G04 #@! TF.GenerationSoftware,KiCad,Pcbnew,6.0.0-rc1-unknown-r13609-32d262b0*
G04 #@! TF.CreationDate,2018-08-28T00:11:02+02:00*
G04 #@! TF.ProjectId,neOSensorV4_panel,6E654F53656E736F7256345F70616E65,v4*
G04 #@! TF.SameCoordinates,Original*
G04 #@! TF.FileFunction,Soldermask,Bot*
G04 #@! TF.FilePolarity,Negative*
%FSLAX46Y46*%
G04 Gerber Fmt 4.6, Leading zero omitted, Abs format (unit mm)*
G04 Created by KiCad (PCBNEW 6.0.0-rc1-unknown-r13609-32d262b0) date Tue Aug 28 00:11:02 2018*
%MOMM*%
%LPD*%
G01*
G04 APERTURE LIST*
%ADD10C,0.150000*%
%ADD11C,0.100000*%
%ADD12C,1.550000*%
%ADD13C,1.000000*%
%ADD14R,1.400000X1.900000*%
%ADD15R,2.100000X2.100000*%
%ADD16O,2.100000X2.100000*%
%ADD17C,6.800000*%
%ADD18R,0.850000X2.350000*%
%ADD19R,1.000000X1.950000*%
%ADD20C,2.000000*%
%ADD21R,2.000000X2.000000*%
%ADD22C,2.650000*%
%ADD23C,2.400000*%
%ADD24C,1.500000*%
%ADD25R,1.600000X2.400000*%
%ADD26R,1.670000X1.924000*%
%ADD27R,2.400000X1.200000*%
%ADD28R,1.650000X3.400000*%
%ADD29R,2.100000X2.600000*%
%ADD30C,1.050000*%
%ADD31C,1.924000*%
G04 APERTURE END LIST*
D10*
G36*
X124206000Y-104394000D02*
X117475000Y-104394000D01*
X117475000Y-96139000D01*
X118491000Y-96139000D01*
X124206000Y-96139001D01*
X124206000Y-104394000D01*
G37*
X124206000Y-104394000D02*
X117475000Y-104394000D01*
X117475000Y-96139000D01*
X118491000Y-96139000D01*
X124206000Y-96139001D01*
X124206000Y-104394000D01*
G36*
X94488000Y-72009000D02*
X101219000Y-72009000D01*
X101219000Y-80264000D01*
X100203000Y-80264000D01*
X94488000Y-80264000D01*
X94488000Y-72009000D01*
G37*
X94488000Y-72009000D02*
X101219000Y-72009000D01*
X101219000Y-80264000D01*
X100203000Y-80264000D01*
X94488000Y-80264000D01*
X94488000Y-72009000D01*
G36*
X124206000Y-67945000D02*
X117475000Y-67945000D01*
X117475000Y-59690000D01*
X118491000Y-59690000D01*
X124206000Y-59690001D01*
X124206000Y-67945000D01*
G37*
X124206000Y-67945000D02*
X117475000Y-67945000D01*
X117475000Y-59690000D01*
X118491000Y-59690000D01*
X124206000Y-59690001D01*
X124206000Y-67945000D01*
G36*
X94488000Y-35560000D02*
X101219000Y-35560000D01*
X101219000Y-43815000D01*
X100203000Y-43815000D01*
X94488000Y-43815000D01*
X94488000Y-35560000D01*
G37*
X94488000Y-35560000D02*
X101219000Y-35560000D01*
X101219000Y-43815000D01*
X100203000Y-43815000D01*
X94488000Y-43815000D01*
X94488000Y-35560000D01*
D11*
G04 #@! TO.C,C1*
G36*
X143217071Y-111095623D02*
X143249781Y-111100475D01*
X143281857Y-111108509D01*
X143312991Y-111119649D01*
X143342884Y-111133787D01*
X143371247Y-111150787D01*
X143397807Y-111170485D01*
X143422308Y-111192692D01*
X143444515Y-111217193D01*
X143464213Y-111243753D01*
X143481213Y-111272116D01*
X143495351Y-111302009D01*
X143506491Y-111333143D01*
X143514525Y-111365219D01*
X143519377Y-111397929D01*
X143521000Y-111430956D01*
X143521000Y-112307044D01*
X143519377Y-112340071D01*
X143514525Y-112372781D01*
X143506491Y-112404857D01*
X143495351Y-112435991D01*
X143481213Y-112465884D01*
X143464213Y-112494247D01*
X143444515Y-112520807D01*
X143422308Y-112545308D01*
X143397807Y-112567515D01*
X143371247Y-112587213D01*
X143342884Y-112604213D01*
X143312991Y-112618351D01*
X143281857Y-112629491D01*
X143249781Y-112637525D01*
X143217071Y-112642377D01*
X143184044Y-112644000D01*
X142057956Y-112644000D01*
X142024929Y-112642377D01*
X141992219Y-112637525D01*
X141960143Y-112629491D01*
X141929009Y-112618351D01*
X141899116Y-112604213D01*
X141870753Y-112587213D01*
X141844193Y-112567515D01*
X141819692Y-112545308D01*
X141797485Y-112520807D01*
X141777787Y-112494247D01*
X141760787Y-112465884D01*
X141746649Y-112435991D01*
X141735509Y-112404857D01*
X141727475Y-112372781D01*
X141722623Y-112340071D01*
X141721000Y-112307044D01*
X141721000Y-111430956D01*
X141722623Y-111397929D01*
X141727475Y-111365219D01*
X141735509Y-111333143D01*
X141746649Y-111302009D01*
X141760787Y-111272116D01*
X141777787Y-111243753D01*
X141797485Y-111217193D01*
X141819692Y-111192692D01*
X141844193Y-111170485D01*
X141870753Y-111150787D01*
X141899116Y-111133787D01*
X141929009Y-111119649D01*
X141960143Y-111108509D01*
X141992219Y-111100475D01*
X142024929Y-111095623D01*
X142057956Y-111094000D01*
X143184044Y-111094000D01*
X143217071Y-111095623D01*
X143217071Y-111095623D01*
G37*
D12*
X142621000Y-111869000D03*
D11*
G36*
X143217071Y-113145623D02*
X143249781Y-113150475D01*
X143281857Y-113158509D01*
X143312991Y-113169649D01*
X143342884Y-113183787D01*
X143371247Y-113200787D01*
X143397807Y-113220485D01*
X143422308Y-113242692D01*
X143444515Y-113267193D01*
X143464213Y-113293753D01*
X143481213Y-113322116D01*
X143495351Y-113352009D01*
X143506491Y-113383143D01*
X143514525Y-113415219D01*
X143519377Y-113447929D01*
X143521000Y-113480956D01*
X143521000Y-114357044D01*
X143519377Y-114390071D01*
X143514525Y-114422781D01*
X143506491Y-114454857D01*
X143495351Y-114485991D01*
X143481213Y-114515884D01*
X143464213Y-114544247D01*
X143444515Y-114570807D01*
X143422308Y-114595308D01*
X143397807Y-114617515D01*
X143371247Y-114637213D01*
X143342884Y-114654213D01*
X143312991Y-114668351D01*
X143281857Y-114679491D01*
X143249781Y-114687525D01*
X143217071Y-114692377D01*
X143184044Y-114694000D01*
X142057956Y-114694000D01*
X142024929Y-114692377D01*
X141992219Y-114687525D01*
X141960143Y-114679491D01*
X141929009Y-114668351D01*
X141899116Y-114654213D01*
X141870753Y-114637213D01*
X141844193Y-114617515D01*
X141819692Y-114595308D01*
X141797485Y-114570807D01*
X141777787Y-114544247D01*
X141760787Y-114515884D01*
X141746649Y-114485991D01*
X141735509Y-114454857D01*
X141727475Y-114422781D01*
X141722623Y-114390071D01*
X141721000Y-114357044D01*
X141721000Y-113480956D01*
X141722623Y-113447929D01*
X141727475Y-113415219D01*
X141735509Y-113383143D01*
X141746649Y-113352009D01*
X141760787Y-113322116D01*
X141777787Y-113293753D01*
X141797485Y-113267193D01*
X141819692Y-113242692D01*
X141844193Y-113220485D01*
X141870753Y-113200787D01*
X141899116Y-113183787D01*
X141929009Y-113169649D01*
X141960143Y-113158509D01*
X141992219Y-113150475D01*
X142024929Y-113145623D01*
X142057956Y-113144000D01*
X143184044Y-113144000D01*
X143217071Y-113145623D01*
X143217071Y-113145623D01*
G37*
D12*
X142621000Y-113919000D03*
G04 #@! TD*
D13*
G04 #@! TO.C,JP1*
X148433000Y-115443001D03*
D11*
G36*
X148972018Y-114496844D02*
X149009537Y-114508225D01*
X149044114Y-114526707D01*
X149074421Y-114551580D01*
X149099294Y-114581887D01*
X149117776Y-114616464D01*
X149129157Y-114653983D01*
X149133000Y-114693001D01*
X149133000Y-114943001D01*
X149333000Y-114943001D01*
X149372018Y-114946844D01*
X149409537Y-114958225D01*
X149444114Y-114976707D01*
X149474421Y-115001580D01*
X149499294Y-115031887D01*
X149517776Y-115066464D01*
X149529157Y-115103983D01*
X149533000Y-115143001D01*
X149533000Y-115743001D01*
X149529157Y-115782019D01*
X149517776Y-115819538D01*
X149499294Y-115854115D01*
X149474421Y-115884422D01*
X149444114Y-115909295D01*
X149409537Y-115927777D01*
X149372018Y-115939158D01*
X149333000Y-115943001D01*
X149133000Y-115943001D01*
X149133000Y-116193001D01*
X149129157Y-116232019D01*
X149117776Y-116269538D01*
X149099294Y-116304115D01*
X149074421Y-116334422D01*
X149044114Y-116359295D01*
X149009537Y-116377777D01*
X148972018Y-116389158D01*
X148933000Y-116393001D01*
X147933000Y-116393001D01*
X147893982Y-116389158D01*
X147856463Y-116377777D01*
X147821886Y-116359295D01*
X147791579Y-116334422D01*
X147766706Y-116304115D01*
X147748224Y-116269538D01*
X147736843Y-116232019D01*
X147733000Y-116193001D01*
X147733000Y-114693001D01*
X147736843Y-114653983D01*
X147748224Y-114616464D01*
X147766706Y-114581887D01*
X147791579Y-114551580D01*
X147821886Y-114526707D01*
X147856463Y-114508225D01*
X147893982Y-114496844D01*
X147933000Y-114493001D01*
X148933000Y-114493001D01*
X148972018Y-114496844D01*
X148972018Y-114496844D01*
G37*
D14*
X151033000Y-115443001D03*
X149733000Y-115443001D03*
G04 #@! TD*
D13*
G04 #@! TO.C,JP2*
X148433000Y-113030000D03*
D11*
G36*
X148972018Y-112083843D02*
X149009537Y-112095224D01*
X149044114Y-112113706D01*
X149074421Y-112138579D01*
X149099294Y-112168886D01*
X149117776Y-112203463D01*
X149129157Y-112240982D01*
X149133000Y-112280000D01*
X149133000Y-112530000D01*
X149333000Y-112530000D01*
X149372018Y-112533843D01*
X149409537Y-112545224D01*
X149444114Y-112563706D01*
X149474421Y-112588579D01*
X149499294Y-112618886D01*
X149517776Y-112653463D01*
X149529157Y-112690982D01*
X149533000Y-112730000D01*
X149533000Y-113330000D01*
X149529157Y-113369018D01*
X149517776Y-113406537D01*
X149499294Y-113441114D01*
X149474421Y-113471421D01*
X149444114Y-113496294D01*
X149409537Y-113514776D01*
X149372018Y-113526157D01*
X149333000Y-113530000D01*
X149133000Y-113530000D01*
X149133000Y-113780000D01*
X149129157Y-113819018D01*
X149117776Y-113856537D01*
X149099294Y-113891114D01*
X149074421Y-113921421D01*
X149044114Y-113946294D01*
X149009537Y-113964776D01*
X148972018Y-113976157D01*
X148933000Y-113980000D01*
X147933000Y-113980000D01*
X147893982Y-113976157D01*
X147856463Y-113964776D01*
X147821886Y-113946294D01*
X147791579Y-113921421D01*
X147766706Y-113891114D01*
X147748224Y-113856537D01*
X147736843Y-113819018D01*
X147733000Y-113780000D01*
X147733000Y-112280000D01*
X147736843Y-112240982D01*
X147748224Y-112203463D01*
X147766706Y-112168886D01*
X147791579Y-112138579D01*
X147821886Y-112113706D01*
X147856463Y-112095224D01*
X147893982Y-112083843D01*
X147933000Y-112080000D01*
X148933000Y-112080000D01*
X148972018Y-112083843D01*
X148972018Y-112083843D01*
G37*
D14*
X151033000Y-113030000D03*
X149733000Y-113030000D03*
G04 #@! TD*
D13*
G04 #@! TO.C,JP3*
X148433000Y-110617000D03*
D11*
G36*
X148972018Y-109670843D02*
X149009537Y-109682224D01*
X149044114Y-109700706D01*
X149074421Y-109725579D01*
X149099294Y-109755886D01*
X149117776Y-109790463D01*
X149129157Y-109827982D01*
X149133000Y-109867000D01*
X149133000Y-110117000D01*
X149333000Y-110117000D01*
X149372018Y-110120843D01*
X149409537Y-110132224D01*
X149444114Y-110150706D01*
X149474421Y-110175579D01*
X149499294Y-110205886D01*
X149517776Y-110240463D01*
X149529157Y-110277982D01*
X149533000Y-110317000D01*
X149533000Y-110917000D01*
X149529157Y-110956018D01*
X149517776Y-110993537D01*
X149499294Y-111028114D01*
X149474421Y-111058421D01*
X149444114Y-111083294D01*
X149409537Y-111101776D01*
X149372018Y-111113157D01*
X149333000Y-111117000D01*
X149133000Y-111117000D01*
X149133000Y-111367000D01*
X149129157Y-111406018D01*
X149117776Y-111443537D01*
X149099294Y-111478114D01*
X149074421Y-111508421D01*
X149044114Y-111533294D01*
X149009537Y-111551776D01*
X148972018Y-111563157D01*
X148933000Y-111567000D01*
X147933000Y-111567000D01*
X147893982Y-111563157D01*
X147856463Y-111551776D01*
X147821886Y-111533294D01*
X147791579Y-111508421D01*
X147766706Y-111478114D01*
X147748224Y-111443537D01*
X147736843Y-111406018D01*
X147733000Y-111367000D01*
X147733000Y-109867000D01*
X147736843Y-109827982D01*
X147748224Y-109790463D01*
X147766706Y-109755886D01*
X147791579Y-109725579D01*
X147821886Y-109700706D01*
X147856463Y-109682224D01*
X147893982Y-109670843D01*
X147933000Y-109667000D01*
X148933000Y-109667000D01*
X148972018Y-109670843D01*
X148972018Y-109670843D01*
G37*
D14*
X151033000Y-110617000D03*
X149733000Y-110617000D03*
G04 #@! TD*
D15*
G04 #@! TO.C,J1*
X150749000Y-129413000D03*
D16*
X148209000Y-129413000D03*
X145669000Y-129413000D03*
X143129000Y-129413000D03*
X140589000Y-129413000D03*
G04 #@! TD*
D17*
G04 #@! TO.C,MH1*
X141351000Y-120904000D03*
G04 #@! TD*
G04 #@! TO.C,MH2*
X149860000Y-120904000D03*
G04 #@! TD*
G04 #@! TO.C,MH2*
X134112000Y-120904000D03*
G04 #@! TD*
D11*
G04 #@! TO.C,C1*
G36*
X127469071Y-113145623D02*
X127501781Y-113150475D01*
X127533857Y-113158509D01*
X127564991Y-113169649D01*
X127594884Y-113183787D01*
X127623247Y-113200787D01*
X127649807Y-113220485D01*
X127674308Y-113242692D01*
X127696515Y-113267193D01*
X127716213Y-113293753D01*
X127733213Y-113322116D01*
X127747351Y-113352009D01*
X127758491Y-113383143D01*
X127766525Y-113415219D01*
X127771377Y-113447929D01*
X127773000Y-113480956D01*
X127773000Y-114357044D01*
X127771377Y-114390071D01*
X127766525Y-114422781D01*
X127758491Y-114454857D01*
X127747351Y-114485991D01*
X127733213Y-114515884D01*
X127716213Y-114544247D01*
X127696515Y-114570807D01*
X127674308Y-114595308D01*
X127649807Y-114617515D01*
X127623247Y-114637213D01*
X127594884Y-114654213D01*
X127564991Y-114668351D01*
X127533857Y-114679491D01*
X127501781Y-114687525D01*
X127469071Y-114692377D01*
X127436044Y-114694000D01*
X126309956Y-114694000D01*
X126276929Y-114692377D01*
X126244219Y-114687525D01*
X126212143Y-114679491D01*
X126181009Y-114668351D01*
X126151116Y-114654213D01*
X126122753Y-114637213D01*
X126096193Y-114617515D01*
X126071692Y-114595308D01*
X126049485Y-114570807D01*
X126029787Y-114544247D01*
X126012787Y-114515884D01*
X125998649Y-114485991D01*
X125987509Y-114454857D01*
X125979475Y-114422781D01*
X125974623Y-114390071D01*
X125973000Y-114357044D01*
X125973000Y-113480956D01*
X125974623Y-113447929D01*
X125979475Y-113415219D01*
X125987509Y-113383143D01*
X125998649Y-113352009D01*
X126012787Y-113322116D01*
X126029787Y-113293753D01*
X126049485Y-113267193D01*
X126071692Y-113242692D01*
X126096193Y-113220485D01*
X126122753Y-113200787D01*
X126151116Y-113183787D01*
X126181009Y-113169649D01*
X126212143Y-113158509D01*
X126244219Y-113150475D01*
X126276929Y-113145623D01*
X126309956Y-113144000D01*
X127436044Y-113144000D01*
X127469071Y-113145623D01*
X127469071Y-113145623D01*
G37*
D12*
X126873000Y-113919000D03*
D11*
G36*
X127469071Y-111095623D02*
X127501781Y-111100475D01*
X127533857Y-111108509D01*
X127564991Y-111119649D01*
X127594884Y-111133787D01*
X127623247Y-111150787D01*
X127649807Y-111170485D01*
X127674308Y-111192692D01*
X127696515Y-111217193D01*
X127716213Y-111243753D01*
X127733213Y-111272116D01*
X127747351Y-111302009D01*
X127758491Y-111333143D01*
X127766525Y-111365219D01*
X127771377Y-111397929D01*
X127773000Y-111430956D01*
X127773000Y-112307044D01*
X127771377Y-112340071D01*
X127766525Y-112372781D01*
X127758491Y-112404857D01*
X127747351Y-112435991D01*
X127733213Y-112465884D01*
X127716213Y-112494247D01*
X127696515Y-112520807D01*
X127674308Y-112545308D01*
X127649807Y-112567515D01*
X127623247Y-112587213D01*
X127594884Y-112604213D01*
X127564991Y-112618351D01*
X127533857Y-112629491D01*
X127501781Y-112637525D01*
X127469071Y-112642377D01*
X127436044Y-112644000D01*
X126309956Y-112644000D01*
X126276929Y-112642377D01*
X126244219Y-112637525D01*
X126212143Y-112629491D01*
X126181009Y-112618351D01*
X126151116Y-112604213D01*
X126122753Y-112587213D01*
X126096193Y-112567515D01*
X126071692Y-112545308D01*
X126049485Y-112520807D01*
X126029787Y-112494247D01*
X126012787Y-112465884D01*
X125998649Y-112435991D01*
X125987509Y-112404857D01*
X125979475Y-112372781D01*
X125974623Y-112340071D01*
X125973000Y-112307044D01*
X125973000Y-111430956D01*
X125974623Y-111397929D01*
X125979475Y-111365219D01*
X125987509Y-111333143D01*
X125998649Y-111302009D01*
X126012787Y-111272116D01*
X126029787Y-111243753D01*
X126049485Y-111217193D01*
X126071692Y-111192692D01*
X126096193Y-111170485D01*
X126122753Y-111150787D01*
X126151116Y-111133787D01*
X126181009Y-111119649D01*
X126212143Y-111108509D01*
X126244219Y-111100475D01*
X126276929Y-111095623D01*
X126309956Y-111094000D01*
X127436044Y-111094000D01*
X127469071Y-111095623D01*
X127469071Y-111095623D01*
G37*
D12*
X126873000Y-111869000D03*
G04 #@! TD*
D14*
G04 #@! TO.C,JP1*
X133985000Y-115443001D03*
X135285000Y-115443001D03*
D13*
X132685000Y-115443001D03*
D11*
G36*
X133224018Y-114496844D02*
X133261537Y-114508225D01*
X133296114Y-114526707D01*
X133326421Y-114551580D01*
X133351294Y-114581887D01*
X133369776Y-114616464D01*
X133381157Y-114653983D01*
X133385000Y-114693001D01*
X133385000Y-114943001D01*
X133585000Y-114943001D01*
X133624018Y-114946844D01*
X133661537Y-114958225D01*
X133696114Y-114976707D01*
X133726421Y-115001580D01*
X133751294Y-115031887D01*
X133769776Y-115066464D01*
X133781157Y-115103983D01*
X133785000Y-115143001D01*
X133785000Y-115743001D01*
X133781157Y-115782019D01*
X133769776Y-115819538D01*
X133751294Y-115854115D01*
X133726421Y-115884422D01*
X133696114Y-115909295D01*
X133661537Y-115927777D01*
X133624018Y-115939158D01*
X133585000Y-115943001D01*
X133385000Y-115943001D01*
X133385000Y-116193001D01*
X133381157Y-116232019D01*
X133369776Y-116269538D01*
X133351294Y-116304115D01*
X133326421Y-116334422D01*
X133296114Y-116359295D01*
X133261537Y-116377777D01*
X133224018Y-116389158D01*
X133185000Y-116393001D01*
X132185000Y-116393001D01*
X132145982Y-116389158D01*
X132108463Y-116377777D01*
X132073886Y-116359295D01*
X132043579Y-116334422D01*
X132018706Y-116304115D01*
X132000224Y-116269538D01*
X131988843Y-116232019D01*
X131985000Y-116193001D01*
X131985000Y-114693001D01*
X131988843Y-114653983D01*
X132000224Y-114616464D01*
X132018706Y-114581887D01*
X132043579Y-114551580D01*
X132073886Y-114526707D01*
X132108463Y-114508225D01*
X132145982Y-114496844D01*
X132185000Y-114493001D01*
X133185000Y-114493001D01*
X133224018Y-114496844D01*
X133224018Y-114496844D01*
G37*
G04 #@! TD*
D17*
G04 #@! TO.C,MH1*
X125603000Y-120904000D03*
G04 #@! TD*
D14*
G04 #@! TO.C,JP3*
X133985000Y-110617000D03*
X135285000Y-110617000D03*
D13*
X132685000Y-110617000D03*
D11*
G36*
X133224018Y-109670843D02*
X133261537Y-109682224D01*
X133296114Y-109700706D01*
X133326421Y-109725579D01*
X133351294Y-109755886D01*
X133369776Y-109790463D01*
X133381157Y-109827982D01*
X133385000Y-109867000D01*
X133385000Y-110117000D01*
X133585000Y-110117000D01*
X133624018Y-110120843D01*
X133661537Y-110132224D01*
X133696114Y-110150706D01*
X133726421Y-110175579D01*
X133751294Y-110205886D01*
X133769776Y-110240463D01*
X133781157Y-110277982D01*
X133785000Y-110317000D01*
X133785000Y-110917000D01*
X133781157Y-110956018D01*
X133769776Y-110993537D01*
X133751294Y-111028114D01*
X133726421Y-111058421D01*
X133696114Y-111083294D01*
X133661537Y-111101776D01*
X133624018Y-111113157D01*
X133585000Y-111117000D01*
X133385000Y-111117000D01*
X133385000Y-111367000D01*
X133381157Y-111406018D01*
X133369776Y-111443537D01*
X133351294Y-111478114D01*
X133326421Y-111508421D01*
X133296114Y-111533294D01*
X133261537Y-111551776D01*
X133224018Y-111563157D01*
X133185000Y-111567000D01*
X132185000Y-111567000D01*
X132145982Y-111563157D01*
X132108463Y-111551776D01*
X132073886Y-111533294D01*
X132043579Y-111508421D01*
X132018706Y-111478114D01*
X132000224Y-111443537D01*
X131988843Y-111406018D01*
X131985000Y-111367000D01*
X131985000Y-109867000D01*
X131988843Y-109827982D01*
X132000224Y-109790463D01*
X132018706Y-109755886D01*
X132043579Y-109725579D01*
X132073886Y-109700706D01*
X132108463Y-109682224D01*
X132145982Y-109670843D01*
X132185000Y-109667000D01*
X133185000Y-109667000D01*
X133224018Y-109670843D01*
X133224018Y-109670843D01*
G37*
G04 #@! TD*
D14*
G04 #@! TO.C,JP2*
X133985000Y-113030000D03*
X135285000Y-113030000D03*
D13*
X132685000Y-113030000D03*
D11*
G36*
X133224018Y-112083843D02*
X133261537Y-112095224D01*
X133296114Y-112113706D01*
X133326421Y-112138579D01*
X133351294Y-112168886D01*
X133369776Y-112203463D01*
X133381157Y-112240982D01*
X133385000Y-112280000D01*
X133385000Y-112530000D01*
X133585000Y-112530000D01*
X133624018Y-112533843D01*
X133661537Y-112545224D01*
X133696114Y-112563706D01*
X133726421Y-112588579D01*
X133751294Y-112618886D01*
X133769776Y-112653463D01*
X133781157Y-112690982D01*
X133785000Y-112730000D01*
X133785000Y-113330000D01*
X133781157Y-113369018D01*
X133769776Y-113406537D01*
X133751294Y-113441114D01*
X133726421Y-113471421D01*
X133696114Y-113496294D01*
X133661537Y-113514776D01*
X133624018Y-113526157D01*
X133585000Y-113530000D01*
X133385000Y-113530000D01*
X133385000Y-113780000D01*
X133381157Y-113819018D01*
X133369776Y-113856537D01*
X133351294Y-113891114D01*
X133326421Y-113921421D01*
X133296114Y-113946294D01*
X133261537Y-113964776D01*
X133224018Y-113976157D01*
X133185000Y-113980000D01*
X132185000Y-113980000D01*
X132145982Y-113976157D01*
X132108463Y-113964776D01*
X132073886Y-113946294D01*
X132043579Y-113921421D01*
X132018706Y-113891114D01*
X132000224Y-113856537D01*
X131988843Y-113819018D01*
X131985000Y-113780000D01*
X131985000Y-112280000D01*
X131988843Y-112240982D01*
X132000224Y-112203463D01*
X132018706Y-112168886D01*
X132043579Y-112138579D01*
X132073886Y-112113706D01*
X132108463Y-112095224D01*
X132145982Y-112083843D01*
X132185000Y-112080000D01*
X133185000Y-112080000D01*
X133224018Y-112083843D01*
X133224018Y-112083843D01*
G37*
G04 #@! TD*
D16*
G04 #@! TO.C,J1*
X124841000Y-129413000D03*
X127381000Y-129413000D03*
X129921000Y-129413000D03*
X132461000Y-129413000D03*
D15*
X135001000Y-129413000D03*
G04 #@! TD*
D13*
G04 #@! TO.C,JP2*
X116937000Y-113030000D03*
D11*
G36*
X117476018Y-112083843D02*
X117513537Y-112095224D01*
X117548114Y-112113706D01*
X117578421Y-112138579D01*
X117603294Y-112168886D01*
X117621776Y-112203463D01*
X117633157Y-112240982D01*
X117637000Y-112280000D01*
X117637000Y-112530000D01*
X117837000Y-112530000D01*
X117876018Y-112533843D01*
X117913537Y-112545224D01*
X117948114Y-112563706D01*
X117978421Y-112588579D01*
X118003294Y-112618886D01*
X118021776Y-112653463D01*
X118033157Y-112690982D01*
X118037000Y-112730000D01*
X118037000Y-113330000D01*
X118033157Y-113369018D01*
X118021776Y-113406537D01*
X118003294Y-113441114D01*
X117978421Y-113471421D01*
X117948114Y-113496294D01*
X117913537Y-113514776D01*
X117876018Y-113526157D01*
X117837000Y-113530000D01*
X117637000Y-113530000D01*
X117637000Y-113780000D01*
X117633157Y-113819018D01*
X117621776Y-113856537D01*
X117603294Y-113891114D01*
X117578421Y-113921421D01*
X117548114Y-113946294D01*
X117513537Y-113964776D01*
X117476018Y-113976157D01*
X117437000Y-113980000D01*
X116437000Y-113980000D01*
X116397982Y-113976157D01*
X116360463Y-113964776D01*
X116325886Y-113946294D01*
X116295579Y-113921421D01*
X116270706Y-113891114D01*
X116252224Y-113856537D01*
X116240843Y-113819018D01*
X116237000Y-113780000D01*
X116237000Y-112280000D01*
X116240843Y-112240982D01*
X116252224Y-112203463D01*
X116270706Y-112168886D01*
X116295579Y-112138579D01*
X116325886Y-112113706D01*
X116360463Y-112095224D01*
X116397982Y-112083843D01*
X116437000Y-112080000D01*
X117437000Y-112080000D01*
X117476018Y-112083843D01*
X117476018Y-112083843D01*
G37*
D14*
X119537000Y-113030000D03*
X118237000Y-113030000D03*
G04 #@! TD*
D15*
G04 #@! TO.C,J1*
X119253000Y-129413000D03*
D16*
X116713000Y-129413000D03*
X114173000Y-129413000D03*
X111633000Y-129413000D03*
X109093000Y-129413000D03*
G04 #@! TD*
D11*
G04 #@! TO.C,C1*
G36*
X111721071Y-111095623D02*
X111753781Y-111100475D01*
X111785857Y-111108509D01*
X111816991Y-111119649D01*
X111846884Y-111133787D01*
X111875247Y-111150787D01*
X111901807Y-111170485D01*
X111926308Y-111192692D01*
X111948515Y-111217193D01*
X111968213Y-111243753D01*
X111985213Y-111272116D01*
X111999351Y-111302009D01*
X112010491Y-111333143D01*
X112018525Y-111365219D01*
X112023377Y-111397929D01*
X112025000Y-111430956D01*
X112025000Y-112307044D01*
X112023377Y-112340071D01*
X112018525Y-112372781D01*
X112010491Y-112404857D01*
X111999351Y-112435991D01*
X111985213Y-112465884D01*
X111968213Y-112494247D01*
X111948515Y-112520807D01*
X111926308Y-112545308D01*
X111901807Y-112567515D01*
X111875247Y-112587213D01*
X111846884Y-112604213D01*
X111816991Y-112618351D01*
X111785857Y-112629491D01*
X111753781Y-112637525D01*
X111721071Y-112642377D01*
X111688044Y-112644000D01*
X110561956Y-112644000D01*
X110528929Y-112642377D01*
X110496219Y-112637525D01*
X110464143Y-112629491D01*
X110433009Y-112618351D01*
X110403116Y-112604213D01*
X110374753Y-112587213D01*
X110348193Y-112567515D01*
X110323692Y-112545308D01*
X110301485Y-112520807D01*
X110281787Y-112494247D01*
X110264787Y-112465884D01*
X110250649Y-112435991D01*
X110239509Y-112404857D01*
X110231475Y-112372781D01*
X110226623Y-112340071D01*
X110225000Y-112307044D01*
X110225000Y-111430956D01*
X110226623Y-111397929D01*
X110231475Y-111365219D01*
X110239509Y-111333143D01*
X110250649Y-111302009D01*
X110264787Y-111272116D01*
X110281787Y-111243753D01*
X110301485Y-111217193D01*
X110323692Y-111192692D01*
X110348193Y-111170485D01*
X110374753Y-111150787D01*
X110403116Y-111133787D01*
X110433009Y-111119649D01*
X110464143Y-111108509D01*
X110496219Y-111100475D01*
X110528929Y-111095623D01*
X110561956Y-111094000D01*
X111688044Y-111094000D01*
X111721071Y-111095623D01*
X111721071Y-111095623D01*
G37*
D12*
X111125000Y-111869000D03*
D11*
G36*
X111721071Y-113145623D02*
X111753781Y-113150475D01*
X111785857Y-113158509D01*
X111816991Y-113169649D01*
X111846884Y-113183787D01*
X111875247Y-113200787D01*
X111901807Y-113220485D01*
X111926308Y-113242692D01*
X111948515Y-113267193D01*
X111968213Y-113293753D01*
X111985213Y-113322116D01*
X111999351Y-113352009D01*
X112010491Y-113383143D01*
X112018525Y-113415219D01*
X112023377Y-113447929D01*
X112025000Y-113480956D01*
X112025000Y-114357044D01*
X112023377Y-114390071D01*
X112018525Y-114422781D01*
X112010491Y-114454857D01*
X111999351Y-114485991D01*
X111985213Y-114515884D01*
X111968213Y-114544247D01*
X111948515Y-114570807D01*
X111926308Y-114595308D01*
X111901807Y-114617515D01*
X111875247Y-114637213D01*
X111846884Y-114654213D01*
X111816991Y-114668351D01*
X111785857Y-114679491D01*
X111753781Y-114687525D01*
X111721071Y-114692377D01*
X111688044Y-114694000D01*
X110561956Y-114694000D01*
X110528929Y-114692377D01*
X110496219Y-114687525D01*
X110464143Y-114679491D01*
X110433009Y-114668351D01*
X110403116Y-114654213D01*
X110374753Y-114637213D01*
X110348193Y-114617515D01*
X110323692Y-114595308D01*
X110301485Y-114570807D01*
X110281787Y-114544247D01*
X110264787Y-114515884D01*
X110250649Y-114485991D01*
X110239509Y-114454857D01*
X110231475Y-114422781D01*
X110226623Y-114390071D01*
X110225000Y-114357044D01*
X110225000Y-113480956D01*
X110226623Y-113447929D01*
X110231475Y-113415219D01*
X110239509Y-113383143D01*
X110250649Y-113352009D01*
X110264787Y-113322116D01*
X110281787Y-113293753D01*
X110301485Y-113267193D01*
X110323692Y-113242692D01*
X110348193Y-113220485D01*
X110374753Y-113200787D01*
X110403116Y-113183787D01*
X110433009Y-113169649D01*
X110464143Y-113158509D01*
X110496219Y-113150475D01*
X110528929Y-113145623D01*
X110561956Y-113144000D01*
X111688044Y-113144000D01*
X111721071Y-113145623D01*
X111721071Y-113145623D01*
G37*
D12*
X111125000Y-113919000D03*
G04 #@! TD*
D17*
G04 #@! TO.C,MH2*
X118364000Y-120904000D03*
G04 #@! TD*
D13*
G04 #@! TO.C,JP3*
X116937000Y-110617000D03*
D11*
G36*
X117476018Y-109670843D02*
X117513537Y-109682224D01*
X117548114Y-109700706D01*
X117578421Y-109725579D01*
X117603294Y-109755886D01*
X117621776Y-109790463D01*
X117633157Y-109827982D01*
X117637000Y-109867000D01*
X117637000Y-110117000D01*
X117837000Y-110117000D01*
X117876018Y-110120843D01*
X117913537Y-110132224D01*
X117948114Y-110150706D01*
X117978421Y-110175579D01*
X118003294Y-110205886D01*
X118021776Y-110240463D01*
X118033157Y-110277982D01*
X118037000Y-110317000D01*
X118037000Y-110917000D01*
X118033157Y-110956018D01*
X118021776Y-110993537D01*
X118003294Y-111028114D01*
X117978421Y-111058421D01*
X117948114Y-111083294D01*
X117913537Y-111101776D01*
X117876018Y-111113157D01*
X117837000Y-111117000D01*
X117637000Y-111117000D01*
X117637000Y-111367000D01*
X117633157Y-111406018D01*
X117621776Y-111443537D01*
X117603294Y-111478114D01*
X117578421Y-111508421D01*
X117548114Y-111533294D01*
X117513537Y-111551776D01*
X117476018Y-111563157D01*
X117437000Y-111567000D01*
X116437000Y-111567000D01*
X116397982Y-111563157D01*
X116360463Y-111551776D01*
X116325886Y-111533294D01*
X116295579Y-111508421D01*
X116270706Y-111478114D01*
X116252224Y-111443537D01*
X116240843Y-111406018D01*
X116237000Y-111367000D01*
X116237000Y-109867000D01*
X116240843Y-109827982D01*
X116252224Y-109790463D01*
X116270706Y-109755886D01*
X116295579Y-109725579D01*
X116325886Y-109700706D01*
X116360463Y-109682224D01*
X116397982Y-109670843D01*
X116437000Y-109667000D01*
X117437000Y-109667000D01*
X117476018Y-109670843D01*
X117476018Y-109670843D01*
G37*
D14*
X119537000Y-110617000D03*
X118237000Y-110617000D03*
G04 #@! TD*
D13*
G04 #@! TO.C,JP1*
X116937000Y-115443001D03*
D11*
G36*
X117476018Y-114496844D02*
X117513537Y-114508225D01*
X117548114Y-114526707D01*
X117578421Y-114551580D01*
X117603294Y-114581887D01*
X117621776Y-114616464D01*
X117633157Y-114653983D01*
X117637000Y-114693001D01*
X117637000Y-114943001D01*
X117837000Y-114943001D01*
X117876018Y-114946844D01*
X117913537Y-114958225D01*
X117948114Y-114976707D01*
X117978421Y-115001580D01*
X118003294Y-115031887D01*
X118021776Y-115066464D01*
X118033157Y-115103983D01*
X118037000Y-115143001D01*
X118037000Y-115743001D01*
X118033157Y-115782019D01*
X118021776Y-115819538D01*
X118003294Y-115854115D01*
X117978421Y-115884422D01*
X117948114Y-115909295D01*
X117913537Y-115927777D01*
X117876018Y-115939158D01*
X117837000Y-115943001D01*
X117637000Y-115943001D01*
X117637000Y-116193001D01*
X117633157Y-116232019D01*
X117621776Y-116269538D01*
X117603294Y-116304115D01*
X117578421Y-116334422D01*
X117548114Y-116359295D01*
X117513537Y-116377777D01*
X117476018Y-116389158D01*
X117437000Y-116393001D01*
X116437000Y-116393001D01*
X116397982Y-116389158D01*
X116360463Y-116377777D01*
X116325886Y-116359295D01*
X116295579Y-116334422D01*
X116270706Y-116304115D01*
X116252224Y-116269538D01*
X116240843Y-116232019D01*
X116237000Y-116193001D01*
X116237000Y-114693001D01*
X116240843Y-114653983D01*
X116252224Y-114616464D01*
X116270706Y-114581887D01*
X116295579Y-114551580D01*
X116325886Y-114526707D01*
X116360463Y-114508225D01*
X116397982Y-114496844D01*
X116437000Y-114493001D01*
X117437000Y-114493001D01*
X117476018Y-114496844D01*
X117476018Y-114496844D01*
G37*
D14*
X119537000Y-115443001D03*
X118237000Y-115443001D03*
G04 #@! TD*
D17*
G04 #@! TO.C,MH1*
X109855000Y-120904000D03*
G04 #@! TD*
D14*
G04 #@! TO.C,JP1*
X102489000Y-115443001D03*
X103789000Y-115443001D03*
D13*
X101189000Y-115443001D03*
D11*
G36*
X101728018Y-114496844D02*
X101765537Y-114508225D01*
X101800114Y-114526707D01*
X101830421Y-114551580D01*
X101855294Y-114581887D01*
X101873776Y-114616464D01*
X101885157Y-114653983D01*
X101889000Y-114693001D01*
X101889000Y-114943001D01*
X102089000Y-114943001D01*
X102128018Y-114946844D01*
X102165537Y-114958225D01*
X102200114Y-114976707D01*
X102230421Y-115001580D01*
X102255294Y-115031887D01*
X102273776Y-115066464D01*
X102285157Y-115103983D01*
X102289000Y-115143001D01*
X102289000Y-115743001D01*
X102285157Y-115782019D01*
X102273776Y-115819538D01*
X102255294Y-115854115D01*
X102230421Y-115884422D01*
X102200114Y-115909295D01*
X102165537Y-115927777D01*
X102128018Y-115939158D01*
X102089000Y-115943001D01*
X101889000Y-115943001D01*
X101889000Y-116193001D01*
X101885157Y-116232019D01*
X101873776Y-116269538D01*
X101855294Y-116304115D01*
X101830421Y-116334422D01*
X101800114Y-116359295D01*
X101765537Y-116377777D01*
X101728018Y-116389158D01*
X101689000Y-116393001D01*
X100689000Y-116393001D01*
X100649982Y-116389158D01*
X100612463Y-116377777D01*
X100577886Y-116359295D01*
X100547579Y-116334422D01*
X100522706Y-116304115D01*
X100504224Y-116269538D01*
X100492843Y-116232019D01*
X100489000Y-116193001D01*
X100489000Y-114693001D01*
X100492843Y-114653983D01*
X100504224Y-114616464D01*
X100522706Y-114581887D01*
X100547579Y-114551580D01*
X100577886Y-114526707D01*
X100612463Y-114508225D01*
X100649982Y-114496844D01*
X100689000Y-114493001D01*
X101689000Y-114493001D01*
X101728018Y-114496844D01*
X101728018Y-114496844D01*
G37*
G04 #@! TD*
D14*
G04 #@! TO.C,JP2*
X102489000Y-113030000D03*
X103789000Y-113030000D03*
D13*
X101189000Y-113030000D03*
D11*
G36*
X101728018Y-112083843D02*
X101765537Y-112095224D01*
X101800114Y-112113706D01*
X101830421Y-112138579D01*
X101855294Y-112168886D01*
X101873776Y-112203463D01*
X101885157Y-112240982D01*
X101889000Y-112280000D01*
X101889000Y-112530000D01*
X102089000Y-112530000D01*
X102128018Y-112533843D01*
X102165537Y-112545224D01*
X102200114Y-112563706D01*
X102230421Y-112588579D01*
X102255294Y-112618886D01*
X102273776Y-112653463D01*
X102285157Y-112690982D01*
X102289000Y-112730000D01*
X102289000Y-113330000D01*
X102285157Y-113369018D01*
X102273776Y-113406537D01*
X102255294Y-113441114D01*
X102230421Y-113471421D01*
X102200114Y-113496294D01*
X102165537Y-113514776D01*
X102128018Y-113526157D01*
X102089000Y-113530000D01*
X101889000Y-113530000D01*
X101889000Y-113780000D01*
X101885157Y-113819018D01*
X101873776Y-113856537D01*
X101855294Y-113891114D01*
X101830421Y-113921421D01*
X101800114Y-113946294D01*
X101765537Y-113964776D01*
X101728018Y-113976157D01*
X101689000Y-113980000D01*
X100689000Y-113980000D01*
X100649982Y-113976157D01*
X100612463Y-113964776D01*
X100577886Y-113946294D01*
X100547579Y-113921421D01*
X100522706Y-113891114D01*
X100504224Y-113856537D01*
X100492843Y-113819018D01*
X100489000Y-113780000D01*
X100489000Y-112280000D01*
X100492843Y-112240982D01*
X100504224Y-112203463D01*
X100522706Y-112168886D01*
X100547579Y-112138579D01*
X100577886Y-112113706D01*
X100612463Y-112095224D01*
X100649982Y-112083843D01*
X100689000Y-112080000D01*
X101689000Y-112080000D01*
X101728018Y-112083843D01*
X101728018Y-112083843D01*
G37*
G04 #@! TD*
D17*
G04 #@! TO.C,MH2*
X102616000Y-120904000D03*
G04 #@! TD*
D14*
G04 #@! TO.C,JP3*
X102489000Y-110617000D03*
X103789000Y-110617000D03*
D13*
X101189000Y-110617000D03*
D11*
G36*
X101728018Y-109670843D02*
X101765537Y-109682224D01*
X101800114Y-109700706D01*
X101830421Y-109725579D01*
X101855294Y-109755886D01*
X101873776Y-109790463D01*
X101885157Y-109827982D01*
X101889000Y-109867000D01*
X101889000Y-110117000D01*
X102089000Y-110117000D01*
X102128018Y-110120843D01*
X102165537Y-110132224D01*
X102200114Y-110150706D01*
X102230421Y-110175579D01*
X102255294Y-110205886D01*
X102273776Y-110240463D01*
X102285157Y-110277982D01*
X102289000Y-110317000D01*
X102289000Y-110917000D01*
X102285157Y-110956018D01*
X102273776Y-110993537D01*
X102255294Y-111028114D01*
X102230421Y-111058421D01*
X102200114Y-111083294D01*
X102165537Y-111101776D01*
X102128018Y-111113157D01*
X102089000Y-111117000D01*
X101889000Y-111117000D01*
X101889000Y-111367000D01*
X101885157Y-111406018D01*
X101873776Y-111443537D01*
X101855294Y-111478114D01*
X101830421Y-111508421D01*
X101800114Y-111533294D01*
X101765537Y-111551776D01*
X101728018Y-111563157D01*
X101689000Y-111567000D01*
X100689000Y-111567000D01*
X100649982Y-111563157D01*
X100612463Y-111551776D01*
X100577886Y-111533294D01*
X100547579Y-111508421D01*
X100522706Y-111478114D01*
X100504224Y-111443537D01*
X100492843Y-111406018D01*
X100489000Y-111367000D01*
X100489000Y-109867000D01*
X100492843Y-109827982D01*
X100504224Y-109790463D01*
X100522706Y-109755886D01*
X100547579Y-109725579D01*
X100577886Y-109700706D01*
X100612463Y-109682224D01*
X100649982Y-109670843D01*
X100689000Y-109667000D01*
X101689000Y-109667000D01*
X101728018Y-109670843D01*
X101728018Y-109670843D01*
G37*
G04 #@! TD*
D16*
G04 #@! TO.C,J1*
X93345000Y-129413000D03*
X95885000Y-129413000D03*
X98425000Y-129413000D03*
X100965000Y-129413000D03*
D15*
X103505000Y-129413000D03*
G04 #@! TD*
D17*
G04 #@! TO.C,MH1*
X94107000Y-120904000D03*
G04 #@! TD*
D11*
G04 #@! TO.C,C1*
G36*
X95973071Y-113145623D02*
X96005781Y-113150475D01*
X96037857Y-113158509D01*
X96068991Y-113169649D01*
X96098884Y-113183787D01*
X96127247Y-113200787D01*
X96153807Y-113220485D01*
X96178308Y-113242692D01*
X96200515Y-113267193D01*
X96220213Y-113293753D01*
X96237213Y-113322116D01*
X96251351Y-113352009D01*
X96262491Y-113383143D01*
X96270525Y-113415219D01*
X96275377Y-113447929D01*
X96277000Y-113480956D01*
X96277000Y-114357044D01*
X96275377Y-114390071D01*
X96270525Y-114422781D01*
X96262491Y-114454857D01*
X96251351Y-114485991D01*
X96237213Y-114515884D01*
X96220213Y-114544247D01*
X96200515Y-114570807D01*
X96178308Y-114595308D01*
X96153807Y-114617515D01*
X96127247Y-114637213D01*
X96098884Y-114654213D01*
X96068991Y-114668351D01*
X96037857Y-114679491D01*
X96005781Y-114687525D01*
X95973071Y-114692377D01*
X95940044Y-114694000D01*
X94813956Y-114694000D01*
X94780929Y-114692377D01*
X94748219Y-114687525D01*
X94716143Y-114679491D01*
X94685009Y-114668351D01*
X94655116Y-114654213D01*
X94626753Y-114637213D01*
X94600193Y-114617515D01*
X94575692Y-114595308D01*
X94553485Y-114570807D01*
X94533787Y-114544247D01*
X94516787Y-114515884D01*
X94502649Y-114485991D01*
X94491509Y-114454857D01*
X94483475Y-114422781D01*
X94478623Y-114390071D01*
X94477000Y-114357044D01*
X94477000Y-113480956D01*
X94478623Y-113447929D01*
X94483475Y-113415219D01*
X94491509Y-113383143D01*
X94502649Y-113352009D01*
X94516787Y-113322116D01*
X94533787Y-113293753D01*
X94553485Y-113267193D01*
X94575692Y-113242692D01*
X94600193Y-113220485D01*
X94626753Y-113200787D01*
X94655116Y-113183787D01*
X94685009Y-113169649D01*
X94716143Y-113158509D01*
X94748219Y-113150475D01*
X94780929Y-113145623D01*
X94813956Y-113144000D01*
X95940044Y-113144000D01*
X95973071Y-113145623D01*
X95973071Y-113145623D01*
G37*
D12*
X95377000Y-113919000D03*
D11*
G36*
X95973071Y-111095623D02*
X96005781Y-111100475D01*
X96037857Y-111108509D01*
X96068991Y-111119649D01*
X96098884Y-111133787D01*
X96127247Y-111150787D01*
X96153807Y-111170485D01*
X96178308Y-111192692D01*
X96200515Y-111217193D01*
X96220213Y-111243753D01*
X96237213Y-111272116D01*
X96251351Y-111302009D01*
X96262491Y-111333143D01*
X96270525Y-111365219D01*
X96275377Y-111397929D01*
X96277000Y-111430956D01*
X96277000Y-112307044D01*
X96275377Y-112340071D01*
X96270525Y-112372781D01*
X96262491Y-112404857D01*
X96251351Y-112435991D01*
X96237213Y-112465884D01*
X96220213Y-112494247D01*
X96200515Y-112520807D01*
X96178308Y-112545308D01*
X96153807Y-112567515D01*
X96127247Y-112587213D01*
X96098884Y-112604213D01*
X96068991Y-112618351D01*
X96037857Y-112629491D01*
X96005781Y-112637525D01*
X95973071Y-112642377D01*
X95940044Y-112644000D01*
X94813956Y-112644000D01*
X94780929Y-112642377D01*
X94748219Y-112637525D01*
X94716143Y-112629491D01*
X94685009Y-112618351D01*
X94655116Y-112604213D01*
X94626753Y-112587213D01*
X94600193Y-112567515D01*
X94575692Y-112545308D01*
X94553485Y-112520807D01*
X94533787Y-112494247D01*
X94516787Y-112465884D01*
X94502649Y-112435991D01*
X94491509Y-112404857D01*
X94483475Y-112372781D01*
X94478623Y-112340071D01*
X94477000Y-112307044D01*
X94477000Y-111430956D01*
X94478623Y-111397929D01*
X94483475Y-111365219D01*
X94491509Y-111333143D01*
X94502649Y-111302009D01*
X94516787Y-111272116D01*
X94533787Y-111243753D01*
X94553485Y-111217193D01*
X94575692Y-111192692D01*
X94600193Y-111170485D01*
X94626753Y-111150787D01*
X94655116Y-111133787D01*
X94685009Y-111119649D01*
X94716143Y-111108509D01*
X94748219Y-111100475D01*
X94780929Y-111095623D01*
X94813956Y-111094000D01*
X95940044Y-111094000D01*
X95973071Y-111095623D01*
X95973071Y-111095623D01*
G37*
D12*
X95377000Y-111869000D03*
G04 #@! TD*
D17*
G04 #@! TO.C,MH1*
X78359000Y-120904000D03*
G04 #@! TD*
D13*
G04 #@! TO.C,JP1*
X85441000Y-115443001D03*
D11*
G36*
X85980018Y-114496844D02*
X86017537Y-114508225D01*
X86052114Y-114526707D01*
X86082421Y-114551580D01*
X86107294Y-114581887D01*
X86125776Y-114616464D01*
X86137157Y-114653983D01*
X86141000Y-114693001D01*
X86141000Y-114943001D01*
X86341000Y-114943001D01*
X86380018Y-114946844D01*
X86417537Y-114958225D01*
X86452114Y-114976707D01*
X86482421Y-115001580D01*
X86507294Y-115031887D01*
X86525776Y-115066464D01*
X86537157Y-115103983D01*
X86541000Y-115143001D01*
X86541000Y-115743001D01*
X86537157Y-115782019D01*
X86525776Y-115819538D01*
X86507294Y-115854115D01*
X86482421Y-115884422D01*
X86452114Y-115909295D01*
X86417537Y-115927777D01*
X86380018Y-115939158D01*
X86341000Y-115943001D01*
X86141000Y-115943001D01*
X86141000Y-116193001D01*
X86137157Y-116232019D01*
X86125776Y-116269538D01*
X86107294Y-116304115D01*
X86082421Y-116334422D01*
X86052114Y-116359295D01*
X86017537Y-116377777D01*
X85980018Y-116389158D01*
X85941000Y-116393001D01*
X84941000Y-116393001D01*
X84901982Y-116389158D01*
X84864463Y-116377777D01*
X84829886Y-116359295D01*
X84799579Y-116334422D01*
X84774706Y-116304115D01*
X84756224Y-116269538D01*
X84744843Y-116232019D01*
X84741000Y-116193001D01*
X84741000Y-114693001D01*
X84744843Y-114653983D01*
X84756224Y-114616464D01*
X84774706Y-114581887D01*
X84799579Y-114551580D01*
X84829886Y-114526707D01*
X84864463Y-114508225D01*
X84901982Y-114496844D01*
X84941000Y-114493001D01*
X85941000Y-114493001D01*
X85980018Y-114496844D01*
X85980018Y-114496844D01*
G37*
D14*
X88041000Y-115443001D03*
X86741000Y-115443001D03*
G04 #@! TD*
D11*
G04 #@! TO.C,C1*
G36*
X80225071Y-111095623D02*
X80257781Y-111100475D01*
X80289857Y-111108509D01*
X80320991Y-111119649D01*
X80350884Y-111133787D01*
X80379247Y-111150787D01*
X80405807Y-111170485D01*
X80430308Y-111192692D01*
X80452515Y-111217193D01*
X80472213Y-111243753D01*
X80489213Y-111272116D01*
X80503351Y-111302009D01*
X80514491Y-111333143D01*
X80522525Y-111365219D01*
X80527377Y-111397929D01*
X80529000Y-111430956D01*
X80529000Y-112307044D01*
X80527377Y-112340071D01*
X80522525Y-112372781D01*
X80514491Y-112404857D01*
X80503351Y-112435991D01*
X80489213Y-112465884D01*
X80472213Y-112494247D01*
X80452515Y-112520807D01*
X80430308Y-112545308D01*
X80405807Y-112567515D01*
X80379247Y-112587213D01*
X80350884Y-112604213D01*
X80320991Y-112618351D01*
X80289857Y-112629491D01*
X80257781Y-112637525D01*
X80225071Y-112642377D01*
X80192044Y-112644000D01*
X79065956Y-112644000D01*
X79032929Y-112642377D01*
X79000219Y-112637525D01*
X78968143Y-112629491D01*
X78937009Y-112618351D01*
X78907116Y-112604213D01*
X78878753Y-112587213D01*
X78852193Y-112567515D01*
X78827692Y-112545308D01*
X78805485Y-112520807D01*
X78785787Y-112494247D01*
X78768787Y-112465884D01*
X78754649Y-112435991D01*
X78743509Y-112404857D01*
X78735475Y-112372781D01*
X78730623Y-112340071D01*
X78729000Y-112307044D01*
X78729000Y-111430956D01*
X78730623Y-111397929D01*
X78735475Y-111365219D01*
X78743509Y-111333143D01*
X78754649Y-111302009D01*
X78768787Y-111272116D01*
X78785787Y-111243753D01*
X78805485Y-111217193D01*
X78827692Y-111192692D01*
X78852193Y-111170485D01*
X78878753Y-111150787D01*
X78907116Y-111133787D01*
X78937009Y-111119649D01*
X78968143Y-111108509D01*
X79000219Y-111100475D01*
X79032929Y-111095623D01*
X79065956Y-111094000D01*
X80192044Y-111094000D01*
X80225071Y-111095623D01*
X80225071Y-111095623D01*
G37*
D12*
X79629000Y-111869000D03*
D11*
G36*
X80225071Y-113145623D02*
X80257781Y-113150475D01*
X80289857Y-113158509D01*
X80320991Y-113169649D01*
X80350884Y-113183787D01*
X80379247Y-113200787D01*
X80405807Y-113220485D01*
X80430308Y-113242692D01*
X80452515Y-113267193D01*
X80472213Y-113293753D01*
X80489213Y-113322116D01*
X80503351Y-113352009D01*
X80514491Y-113383143D01*
X80522525Y-113415219D01*
X80527377Y-113447929D01*
X80529000Y-113480956D01*
X80529000Y-114357044D01*
X80527377Y-114390071D01*
X80522525Y-114422781D01*
X80514491Y-114454857D01*
X80503351Y-114485991D01*
X80489213Y-114515884D01*
X80472213Y-114544247D01*
X80452515Y-114570807D01*
X80430308Y-114595308D01*
X80405807Y-114617515D01*
X80379247Y-114637213D01*
X80350884Y-114654213D01*
X80320991Y-114668351D01*
X80289857Y-114679491D01*
X80257781Y-114687525D01*
X80225071Y-114692377D01*
X80192044Y-114694000D01*
X79065956Y-114694000D01*
X79032929Y-114692377D01*
X79000219Y-114687525D01*
X78968143Y-114679491D01*
X78937009Y-114668351D01*
X78907116Y-114654213D01*
X78878753Y-114637213D01*
X78852193Y-114617515D01*
X78827692Y-114595308D01*
X78805485Y-114570807D01*
X78785787Y-114544247D01*
X78768787Y-114515884D01*
X78754649Y-114485991D01*
X78743509Y-114454857D01*
X78735475Y-114422781D01*
X78730623Y-114390071D01*
X78729000Y-114357044D01*
X78729000Y-113480956D01*
X78730623Y-113447929D01*
X78735475Y-113415219D01*
X78743509Y-113383143D01*
X78754649Y-113352009D01*
X78768787Y-113322116D01*
X78785787Y-113293753D01*
X78805485Y-113267193D01*
X78827692Y-113242692D01*
X78852193Y-113220485D01*
X78878753Y-113200787D01*
X78907116Y-113183787D01*
X78937009Y-113169649D01*
X78968143Y-113158509D01*
X79000219Y-113150475D01*
X79032929Y-113145623D01*
X79065956Y-113144000D01*
X80192044Y-113144000D01*
X80225071Y-113145623D01*
X80225071Y-113145623D01*
G37*
D12*
X79629000Y-113919000D03*
G04 #@! TD*
D15*
G04 #@! TO.C,J1*
X87757000Y-129413000D03*
D16*
X85217000Y-129413000D03*
X82677000Y-129413000D03*
X80137000Y-129413000D03*
X77597000Y-129413000D03*
G04 #@! TD*
D13*
G04 #@! TO.C,JP2*
X85441000Y-113030000D03*
D11*
G36*
X85980018Y-112083843D02*
X86017537Y-112095224D01*
X86052114Y-112113706D01*
X86082421Y-112138579D01*
X86107294Y-112168886D01*
X86125776Y-112203463D01*
X86137157Y-112240982D01*
X86141000Y-112280000D01*
X86141000Y-112530000D01*
X86341000Y-112530000D01*
X86380018Y-112533843D01*
X86417537Y-112545224D01*
X86452114Y-112563706D01*
X86482421Y-112588579D01*
X86507294Y-112618886D01*
X86525776Y-112653463D01*
X86537157Y-112690982D01*
X86541000Y-112730000D01*
X86541000Y-113330000D01*
X86537157Y-113369018D01*
X86525776Y-113406537D01*
X86507294Y-113441114D01*
X86482421Y-113471421D01*
X86452114Y-113496294D01*
X86417537Y-113514776D01*
X86380018Y-113526157D01*
X86341000Y-113530000D01*
X86141000Y-113530000D01*
X86141000Y-113780000D01*
X86137157Y-113819018D01*
X86125776Y-113856537D01*
X86107294Y-113891114D01*
X86082421Y-113921421D01*
X86052114Y-113946294D01*
X86017537Y-113964776D01*
X85980018Y-113976157D01*
X85941000Y-113980000D01*
X84941000Y-113980000D01*
X84901982Y-113976157D01*
X84864463Y-113964776D01*
X84829886Y-113946294D01*
X84799579Y-113921421D01*
X84774706Y-113891114D01*
X84756224Y-113856537D01*
X84744843Y-113819018D01*
X84741000Y-113780000D01*
X84741000Y-112280000D01*
X84744843Y-112240982D01*
X84756224Y-112203463D01*
X84774706Y-112168886D01*
X84799579Y-112138579D01*
X84829886Y-112113706D01*
X84864463Y-112095224D01*
X84901982Y-112083843D01*
X84941000Y-112080000D01*
X85941000Y-112080000D01*
X85980018Y-112083843D01*
X85980018Y-112083843D01*
G37*
D14*
X88041000Y-113030000D03*
X86741000Y-113030000D03*
G04 #@! TD*
D13*
G04 #@! TO.C,JP3*
X85441000Y-110617000D03*
D11*
G36*
X85980018Y-109670843D02*
X86017537Y-109682224D01*
X86052114Y-109700706D01*
X86082421Y-109725579D01*
X86107294Y-109755886D01*
X86125776Y-109790463D01*
X86137157Y-109827982D01*
X86141000Y-109867000D01*
X86141000Y-110117000D01*
X86341000Y-110117000D01*
X86380018Y-110120843D01*
X86417537Y-110132224D01*
X86452114Y-110150706D01*
X86482421Y-110175579D01*
X86507294Y-110205886D01*
X86525776Y-110240463D01*
X86537157Y-110277982D01*
X86541000Y-110317000D01*
X86541000Y-110917000D01*
X86537157Y-110956018D01*
X86525776Y-110993537D01*
X86507294Y-111028114D01*
X86482421Y-111058421D01*
X86452114Y-111083294D01*
X86417537Y-111101776D01*
X86380018Y-111113157D01*
X86341000Y-111117000D01*
X86141000Y-111117000D01*
X86141000Y-111367000D01*
X86137157Y-111406018D01*
X86125776Y-111443537D01*
X86107294Y-111478114D01*
X86082421Y-111508421D01*
X86052114Y-111533294D01*
X86017537Y-111551776D01*
X85980018Y-111563157D01*
X85941000Y-111567000D01*
X84941000Y-111567000D01*
X84901982Y-111563157D01*
X84864463Y-111551776D01*
X84829886Y-111533294D01*
X84799579Y-111508421D01*
X84774706Y-111478114D01*
X84756224Y-111443537D01*
X84744843Y-111406018D01*
X84741000Y-111367000D01*
X84741000Y-109867000D01*
X84744843Y-109827982D01*
X84756224Y-109790463D01*
X84774706Y-109755886D01*
X84799579Y-109725579D01*
X84829886Y-109700706D01*
X84864463Y-109682224D01*
X84901982Y-109670843D01*
X84941000Y-109667000D01*
X85941000Y-109667000D01*
X85980018Y-109670843D01*
X85980018Y-109670843D01*
G37*
D14*
X88041000Y-110617000D03*
X86741000Y-110617000D03*
G04 #@! TD*
D17*
G04 #@! TO.C,MH2*
X86868000Y-120904000D03*
G04 #@! TD*
D18*
G04 #@! TO.C,U3*
X99400000Y-102133000D03*
X98750000Y-102133000D03*
X98100000Y-102133000D03*
X97450000Y-102133000D03*
X97450000Y-95733000D03*
X98100000Y-95733000D03*
X98750000Y-95733000D03*
X99400000Y-95733000D03*
G04 #@! TD*
D19*
G04 #@! TO.C,U1*
X125222000Y-83726000D03*
X126492000Y-83726000D03*
X127762000Y-83726000D03*
X129032000Y-83726000D03*
X129032000Y-78326000D03*
X127762000Y-78326000D03*
X126492000Y-78326000D03*
X125222000Y-78326000D03*
G04 #@! TD*
D20*
G04 #@! TO.C,C14*
X134620000Y-94234000D03*
D21*
X137120000Y-94234000D03*
G04 #@! TD*
D16*
G04 #@! TO.C,MK1*
X129793999Y-73152000D03*
D15*
X127253999Y-73152000D03*
G04 #@! TD*
D11*
G04 #@! TO.C,C9*
G36*
X125315417Y-92379418D02*
X125343999Y-92383658D01*
X125372029Y-92390679D01*
X125399235Y-92400413D01*
X125425356Y-92412768D01*
X125450140Y-92427623D01*
X125473349Y-92444836D01*
X125494759Y-92464241D01*
X125514164Y-92485651D01*
X125531377Y-92508860D01*
X125546232Y-92533644D01*
X125558587Y-92559765D01*
X125568321Y-92586971D01*
X125575342Y-92615001D01*
X125579582Y-92643583D01*
X125581000Y-92672444D01*
X125581000Y-95033556D01*
X125579582Y-95062417D01*
X125575342Y-95090999D01*
X125568321Y-95119029D01*
X125558587Y-95146235D01*
X125546232Y-95172356D01*
X125531377Y-95197140D01*
X125514164Y-95220349D01*
X125494759Y-95241759D01*
X125473349Y-95261164D01*
X125450140Y-95278377D01*
X125425356Y-95293232D01*
X125399235Y-95305587D01*
X125372029Y-95315321D01*
X125343999Y-95322342D01*
X125315417Y-95326582D01*
X125286556Y-95328000D01*
X123225444Y-95328000D01*
X123196583Y-95326582D01*
X123168001Y-95322342D01*
X123139971Y-95315321D01*
X123112765Y-95305587D01*
X123086644Y-95293232D01*
X123061860Y-95278377D01*
X123038651Y-95261164D01*
X123017241Y-95241759D01*
X122997836Y-95220349D01*
X122980623Y-95197140D01*
X122965768Y-95172356D01*
X122953413Y-95146235D01*
X122943679Y-95119029D01*
X122936658Y-95090999D01*
X122932418Y-95062417D01*
X122931000Y-95033556D01*
X122931000Y-92672444D01*
X122932418Y-92643583D01*
X122936658Y-92615001D01*
X122943679Y-92586971D01*
X122953413Y-92559765D01*
X122965768Y-92533644D01*
X122980623Y-92508860D01*
X122997836Y-92485651D01*
X123017241Y-92464241D01*
X123038651Y-92444836D01*
X123061860Y-92427623D01*
X123086644Y-92412768D01*
X123112765Y-92400413D01*
X123139971Y-92390679D01*
X123168001Y-92383658D01*
X123196583Y-92379418D01*
X123225444Y-92378000D01*
X125286556Y-92378000D01*
X125315417Y-92379418D01*
X125315417Y-92379418D01*
G37*
D22*
X124256000Y-93853000D03*
D11*
G36*
X118915417Y-92379418D02*
X118943999Y-92383658D01*
X118972029Y-92390679D01*
X118999235Y-92400413D01*
X119025356Y-92412768D01*
X119050140Y-92427623D01*
X119073349Y-92444836D01*
X119094759Y-92464241D01*
X119114164Y-92485651D01*
X119131377Y-92508860D01*
X119146232Y-92533644D01*
X119158587Y-92559765D01*
X119168321Y-92586971D01*
X119175342Y-92615001D01*
X119179582Y-92643583D01*
X119181000Y-92672444D01*
X119181000Y-95033556D01*
X119179582Y-95062417D01*
X119175342Y-95090999D01*
X119168321Y-95119029D01*
X119158587Y-95146235D01*
X119146232Y-95172356D01*
X119131377Y-95197140D01*
X119114164Y-95220349D01*
X119094759Y-95241759D01*
X119073349Y-95261164D01*
X119050140Y-95278377D01*
X119025356Y-95293232D01*
X118999235Y-95305587D01*
X118972029Y-95315321D01*
X118943999Y-95322342D01*
X118915417Y-95326582D01*
X118886556Y-95328000D01*
X116825444Y-95328000D01*
X116796583Y-95326582D01*
X116768001Y-95322342D01*
X116739971Y-95315321D01*
X116712765Y-95305587D01*
X116686644Y-95293232D01*
X116661860Y-95278377D01*
X116638651Y-95261164D01*
X116617241Y-95241759D01*
X116597836Y-95220349D01*
X116580623Y-95197140D01*
X116565768Y-95172356D01*
X116553413Y-95146235D01*
X116543679Y-95119029D01*
X116536658Y-95090999D01*
X116532418Y-95062417D01*
X116531000Y-95033556D01*
X116531000Y-92672444D01*
X116532418Y-92643583D01*
X116536658Y-92615001D01*
X116543679Y-92586971D01*
X116553413Y-92559765D01*
X116565768Y-92533644D01*
X116580623Y-92508860D01*
X116597836Y-92485651D01*
X116617241Y-92464241D01*
X116638651Y-92444836D01*
X116661860Y-92427623D01*
X116686644Y-92412768D01*
X116712765Y-92400413D01*
X116739971Y-92390679D01*
X116768001Y-92383658D01*
X116796583Y-92379418D01*
X116825444Y-92378000D01*
X118886556Y-92378000D01*
X118915417Y-92379418D01*
X118915417Y-92379418D01*
G37*
D22*
X117856000Y-93853000D03*
G04 #@! TD*
D23*
G04 #@! TO.C,GND*
X157353000Y-104521000D03*
G04 #@! TD*
G04 #@! TO.C,GND*
X111252000Y-87376000D03*
G04 #@! TD*
G04 #@! TO.C,mic_amp*
X123444000Y-72897999D03*
G04 #@! TD*
D15*
G04 #@! TO.C,J3*
X107061000Y-104013000D03*
D16*
X107061000Y-101473000D03*
X107061000Y-98933000D03*
X107061000Y-96393000D03*
X107061000Y-93853000D03*
G04 #@! TD*
D15*
G04 #@! TO.C,J2*
X103124000Y-104013000D03*
D16*
X103124000Y-101473000D03*
X103124000Y-98933000D03*
X103124000Y-96393000D03*
X103124000Y-93853000D03*
G04 #@! TD*
D15*
G04 #@! TO.C,J4*
X73533000Y-95885000D03*
D16*
X70993000Y-95885000D03*
X68453000Y-95885000D03*
G04 #@! TD*
D15*
G04 #@! TO.C,C4*
X91694000Y-80772000D03*
D16*
X91694000Y-83312000D03*
G04 #@! TD*
D15*
G04 #@! TO.C,MK1*
X91440000Y-103251000D03*
D16*
X88900000Y-103251000D03*
G04 #@! TD*
D11*
G04 #@! TO.C,C9*
G36*
X101897417Y-81076418D02*
X101925999Y-81080658D01*
X101954029Y-81087679D01*
X101981235Y-81097413D01*
X102007356Y-81109768D01*
X102032140Y-81124623D01*
X102055349Y-81141836D01*
X102076759Y-81161241D01*
X102096164Y-81182651D01*
X102113377Y-81205860D01*
X102128232Y-81230644D01*
X102140587Y-81256765D01*
X102150321Y-81283971D01*
X102157342Y-81312001D01*
X102161582Y-81340583D01*
X102163000Y-81369444D01*
X102163000Y-83730556D01*
X102161582Y-83759417D01*
X102157342Y-83787999D01*
X102150321Y-83816029D01*
X102140587Y-83843235D01*
X102128232Y-83869356D01*
X102113377Y-83894140D01*
X102096164Y-83917349D01*
X102076759Y-83938759D01*
X102055349Y-83958164D01*
X102032140Y-83975377D01*
X102007356Y-83990232D01*
X101981235Y-84002587D01*
X101954029Y-84012321D01*
X101925999Y-84019342D01*
X101897417Y-84023582D01*
X101868556Y-84025000D01*
X99807444Y-84025000D01*
X99778583Y-84023582D01*
X99750001Y-84019342D01*
X99721971Y-84012321D01*
X99694765Y-84002587D01*
X99668644Y-83990232D01*
X99643860Y-83975377D01*
X99620651Y-83958164D01*
X99599241Y-83938759D01*
X99579836Y-83917349D01*
X99562623Y-83894140D01*
X99547768Y-83869356D01*
X99535413Y-83843235D01*
X99525679Y-83816029D01*
X99518658Y-83787999D01*
X99514418Y-83759417D01*
X99513000Y-83730556D01*
X99513000Y-81369444D01*
X99514418Y-81340583D01*
X99518658Y-81312001D01*
X99525679Y-81283971D01*
X99535413Y-81256765D01*
X99547768Y-81230644D01*
X99562623Y-81205860D01*
X99579836Y-81182651D01*
X99599241Y-81161241D01*
X99620651Y-81141836D01*
X99643860Y-81124623D01*
X99668644Y-81109768D01*
X99694765Y-81097413D01*
X99721971Y-81087679D01*
X99750001Y-81080658D01*
X99778583Y-81076418D01*
X99807444Y-81075000D01*
X101868556Y-81075000D01*
X101897417Y-81076418D01*
X101897417Y-81076418D01*
G37*
D22*
X100838000Y-82550000D03*
D11*
G36*
X95497417Y-81076418D02*
X95525999Y-81080658D01*
X95554029Y-81087679D01*
X95581235Y-81097413D01*
X95607356Y-81109768D01*
X95632140Y-81124623D01*
X95655349Y-81141836D01*
X95676759Y-81161241D01*
X95696164Y-81182651D01*
X95713377Y-81205860D01*
X95728232Y-81230644D01*
X95740587Y-81256765D01*
X95750321Y-81283971D01*
X95757342Y-81312001D01*
X95761582Y-81340583D01*
X95763000Y-81369444D01*
X95763000Y-83730556D01*
X95761582Y-83759417D01*
X95757342Y-83787999D01*
X95750321Y-83816029D01*
X95740587Y-83843235D01*
X95728232Y-83869356D01*
X95713377Y-83894140D01*
X95696164Y-83917349D01*
X95676759Y-83938759D01*
X95655349Y-83958164D01*
X95632140Y-83975377D01*
X95607356Y-83990232D01*
X95581235Y-84002587D01*
X95554029Y-84012321D01*
X95525999Y-84019342D01*
X95497417Y-84023582D01*
X95468556Y-84025000D01*
X93407444Y-84025000D01*
X93378583Y-84023582D01*
X93350001Y-84019342D01*
X93321971Y-84012321D01*
X93294765Y-84002587D01*
X93268644Y-83990232D01*
X93243860Y-83975377D01*
X93220651Y-83958164D01*
X93199241Y-83938759D01*
X93179836Y-83917349D01*
X93162623Y-83894140D01*
X93147768Y-83869356D01*
X93135413Y-83843235D01*
X93125679Y-83816029D01*
X93118658Y-83787999D01*
X93114418Y-83759417D01*
X93113000Y-83730556D01*
X93113000Y-81369444D01*
X93114418Y-81340583D01*
X93118658Y-81312001D01*
X93125679Y-81283971D01*
X93135413Y-81256765D01*
X93147768Y-81230644D01*
X93162623Y-81205860D01*
X93179836Y-81182651D01*
X93199241Y-81161241D01*
X93220651Y-81141836D01*
X93243860Y-81124623D01*
X93268644Y-81109768D01*
X93294765Y-81097413D01*
X93321971Y-81087679D01*
X93350001Y-81080658D01*
X93378583Y-81076418D01*
X93407444Y-81075000D01*
X95468556Y-81075000D01*
X95497417Y-81076418D01*
X95497417Y-81076418D01*
G37*
D22*
X94438000Y-82550000D03*
G04 #@! TD*
D23*
G04 #@! TO.C,GND*
X61341000Y-71882000D03*
G04 #@! TD*
G04 #@! TO.C,GND*
X107442000Y-89027000D03*
G04 #@! TD*
D11*
G04 #@! TO.C,R1*
G36*
X133438071Y-97515623D02*
X133470781Y-97520475D01*
X133502857Y-97528509D01*
X133533991Y-97539649D01*
X133563884Y-97553787D01*
X133592247Y-97570787D01*
X133618807Y-97590485D01*
X133643308Y-97612692D01*
X133665515Y-97637193D01*
X133685213Y-97663753D01*
X133702213Y-97692116D01*
X133716351Y-97722009D01*
X133727491Y-97753143D01*
X133735525Y-97785219D01*
X133740377Y-97817929D01*
X133742000Y-97850956D01*
X133742000Y-98727044D01*
X133740377Y-98760071D01*
X133735525Y-98792781D01*
X133727491Y-98824857D01*
X133716351Y-98855991D01*
X133702213Y-98885884D01*
X133685213Y-98914247D01*
X133665515Y-98940807D01*
X133643308Y-98965308D01*
X133618807Y-98987515D01*
X133592247Y-99007213D01*
X133563884Y-99024213D01*
X133533991Y-99038351D01*
X133502857Y-99049491D01*
X133470781Y-99057525D01*
X133438071Y-99062377D01*
X133405044Y-99064000D01*
X132278956Y-99064000D01*
X132245929Y-99062377D01*
X132213219Y-99057525D01*
X132181143Y-99049491D01*
X132150009Y-99038351D01*
X132120116Y-99024213D01*
X132091753Y-99007213D01*
X132065193Y-98987515D01*
X132040692Y-98965308D01*
X132018485Y-98940807D01*
X131998787Y-98914247D01*
X131981787Y-98885884D01*
X131967649Y-98855991D01*
X131956509Y-98824857D01*
X131948475Y-98792781D01*
X131943623Y-98760071D01*
X131942000Y-98727044D01*
X131942000Y-97850956D01*
X131943623Y-97817929D01*
X131948475Y-97785219D01*
X131956509Y-97753143D01*
X131967649Y-97722009D01*
X131981787Y-97692116D01*
X131998787Y-97663753D01*
X132018485Y-97637193D01*
X132040692Y-97612692D01*
X132065193Y-97590485D01*
X132091753Y-97570787D01*
X132120116Y-97553787D01*
X132150009Y-97539649D01*
X132181143Y-97528509D01*
X132213219Y-97520475D01*
X132245929Y-97515623D01*
X132278956Y-97514000D01*
X133405044Y-97514000D01*
X133438071Y-97515623D01*
X133438071Y-97515623D01*
G37*
D12*
X132842000Y-98289000D03*
D11*
G36*
X133438071Y-99565623D02*
X133470781Y-99570475D01*
X133502857Y-99578509D01*
X133533991Y-99589649D01*
X133563884Y-99603787D01*
X133592247Y-99620787D01*
X133618807Y-99640485D01*
X133643308Y-99662692D01*
X133665515Y-99687193D01*
X133685213Y-99713753D01*
X133702213Y-99742116D01*
X133716351Y-99772009D01*
X133727491Y-99803143D01*
X133735525Y-99835219D01*
X133740377Y-99867929D01*
X133742000Y-99900956D01*
X133742000Y-100777044D01*
X133740377Y-100810071D01*
X133735525Y-100842781D01*
X133727491Y-100874857D01*
X133716351Y-100905991D01*
X133702213Y-100935884D01*
X133685213Y-100964247D01*
X133665515Y-100990807D01*
X133643308Y-101015308D01*
X133618807Y-101037515D01*
X133592247Y-101057213D01*
X133563884Y-101074213D01*
X133533991Y-101088351D01*
X133502857Y-101099491D01*
X133470781Y-101107525D01*
X133438071Y-101112377D01*
X133405044Y-101114000D01*
X132278956Y-101114000D01*
X132245929Y-101112377D01*
X132213219Y-101107525D01*
X132181143Y-101099491D01*
X132150009Y-101088351D01*
X132120116Y-101074213D01*
X132091753Y-101057213D01*
X132065193Y-101037515D01*
X132040692Y-101015308D01*
X132018485Y-100990807D01*
X131998787Y-100964247D01*
X131981787Y-100935884D01*
X131967649Y-100905991D01*
X131956509Y-100874857D01*
X131948475Y-100842781D01*
X131943623Y-100810071D01*
X131942000Y-100777044D01*
X131942000Y-99900956D01*
X131943623Y-99867929D01*
X131948475Y-99835219D01*
X131956509Y-99803143D01*
X131967649Y-99772009D01*
X131981787Y-99742116D01*
X131998787Y-99713753D01*
X132018485Y-99687193D01*
X132040692Y-99662692D01*
X132065193Y-99640485D01*
X132091753Y-99620787D01*
X132120116Y-99603787D01*
X132150009Y-99589649D01*
X132181143Y-99578509D01*
X132213219Y-99570475D01*
X132245929Y-99565623D01*
X132278956Y-99564000D01*
X133405044Y-99564000D01*
X133438071Y-99565623D01*
X133438071Y-99565623D01*
G37*
D12*
X132842000Y-100339000D03*
G04 #@! TD*
D11*
G04 #@! TO.C,R11*
G36*
X139924071Y-77848623D02*
X139956781Y-77853475D01*
X139988857Y-77861509D01*
X140019991Y-77872649D01*
X140049884Y-77886787D01*
X140078247Y-77903787D01*
X140104807Y-77923485D01*
X140129308Y-77945692D01*
X140151515Y-77970193D01*
X140171213Y-77996753D01*
X140188213Y-78025116D01*
X140202351Y-78055009D01*
X140213491Y-78086143D01*
X140221525Y-78118219D01*
X140226377Y-78150929D01*
X140228000Y-78183956D01*
X140228000Y-79060044D01*
X140226377Y-79093071D01*
X140221525Y-79125781D01*
X140213491Y-79157857D01*
X140202351Y-79188991D01*
X140188213Y-79218884D01*
X140171213Y-79247247D01*
X140151515Y-79273807D01*
X140129308Y-79298308D01*
X140104807Y-79320515D01*
X140078247Y-79340213D01*
X140049884Y-79357213D01*
X140019991Y-79371351D01*
X139988857Y-79382491D01*
X139956781Y-79390525D01*
X139924071Y-79395377D01*
X139891044Y-79397000D01*
X138764956Y-79397000D01*
X138731929Y-79395377D01*
X138699219Y-79390525D01*
X138667143Y-79382491D01*
X138636009Y-79371351D01*
X138606116Y-79357213D01*
X138577753Y-79340213D01*
X138551193Y-79320515D01*
X138526692Y-79298308D01*
X138504485Y-79273807D01*
X138484787Y-79247247D01*
X138467787Y-79218884D01*
X138453649Y-79188991D01*
X138442509Y-79157857D01*
X138434475Y-79125781D01*
X138429623Y-79093071D01*
X138428000Y-79060044D01*
X138428000Y-78183956D01*
X138429623Y-78150929D01*
X138434475Y-78118219D01*
X138442509Y-78086143D01*
X138453649Y-78055009D01*
X138467787Y-78025116D01*
X138484787Y-77996753D01*
X138504485Y-77970193D01*
X138526692Y-77945692D01*
X138551193Y-77923485D01*
X138577753Y-77903787D01*
X138606116Y-77886787D01*
X138636009Y-77872649D01*
X138667143Y-77861509D01*
X138699219Y-77853475D01*
X138731929Y-77848623D01*
X138764956Y-77847000D01*
X139891044Y-77847000D01*
X139924071Y-77848623D01*
X139924071Y-77848623D01*
G37*
D12*
X139328000Y-78622000D03*
D11*
G36*
X139924071Y-75798623D02*
X139956781Y-75803475D01*
X139988857Y-75811509D01*
X140019991Y-75822649D01*
X140049884Y-75836787D01*
X140078247Y-75853787D01*
X140104807Y-75873485D01*
X140129308Y-75895692D01*
X140151515Y-75920193D01*
X140171213Y-75946753D01*
X140188213Y-75975116D01*
X140202351Y-76005009D01*
X140213491Y-76036143D01*
X140221525Y-76068219D01*
X140226377Y-76100929D01*
X140228000Y-76133956D01*
X140228000Y-77010044D01*
X140226377Y-77043071D01*
X140221525Y-77075781D01*
X140213491Y-77107857D01*
X140202351Y-77138991D01*
X140188213Y-77168884D01*
X140171213Y-77197247D01*
X140151515Y-77223807D01*
X140129308Y-77248308D01*
X140104807Y-77270515D01*
X140078247Y-77290213D01*
X140049884Y-77307213D01*
X140019991Y-77321351D01*
X139988857Y-77332491D01*
X139956781Y-77340525D01*
X139924071Y-77345377D01*
X139891044Y-77347000D01*
X138764956Y-77347000D01*
X138731929Y-77345377D01*
X138699219Y-77340525D01*
X138667143Y-77332491D01*
X138636009Y-77321351D01*
X138606116Y-77307213D01*
X138577753Y-77290213D01*
X138551193Y-77270515D01*
X138526692Y-77248308D01*
X138504485Y-77223807D01*
X138484787Y-77197247D01*
X138467787Y-77168884D01*
X138453649Y-77138991D01*
X138442509Y-77107857D01*
X138434475Y-77075781D01*
X138429623Y-77043071D01*
X138428000Y-77010044D01*
X138428000Y-76133956D01*
X138429623Y-76100929D01*
X138434475Y-76068219D01*
X138442509Y-76036143D01*
X138453649Y-76005009D01*
X138467787Y-75975116D01*
X138484787Y-75946753D01*
X138504485Y-75920193D01*
X138526692Y-75895692D01*
X138551193Y-75873485D01*
X138577753Y-75853787D01*
X138606116Y-75836787D01*
X138636009Y-75822649D01*
X138667143Y-75811509D01*
X138699219Y-75803475D01*
X138731929Y-75798623D01*
X138764956Y-75797000D01*
X139891044Y-75797000D01*
X139924071Y-75798623D01*
X139924071Y-75798623D01*
G37*
D12*
X139328000Y-76572000D03*
G04 #@! TD*
D11*
G04 #@! TO.C,R13*
G36*
X137894071Y-75682623D02*
X137926781Y-75687475D01*
X137958857Y-75695509D01*
X137989991Y-75706649D01*
X138019884Y-75720787D01*
X138048247Y-75737787D01*
X138074807Y-75757485D01*
X138099308Y-75779692D01*
X138121515Y-75804193D01*
X138141213Y-75830753D01*
X138158213Y-75859116D01*
X138172351Y-75889009D01*
X138183491Y-75920143D01*
X138191525Y-75952219D01*
X138196377Y-75984929D01*
X138198000Y-76017956D01*
X138198000Y-77144044D01*
X138196377Y-77177071D01*
X138191525Y-77209781D01*
X138183491Y-77241857D01*
X138172351Y-77272991D01*
X138158213Y-77302884D01*
X138141213Y-77331247D01*
X138121515Y-77357807D01*
X138099308Y-77382308D01*
X138074807Y-77404515D01*
X138048247Y-77424213D01*
X138019884Y-77441213D01*
X137989991Y-77455351D01*
X137958857Y-77466491D01*
X137926781Y-77474525D01*
X137894071Y-77479377D01*
X137861044Y-77481000D01*
X136984956Y-77481000D01*
X136951929Y-77479377D01*
X136919219Y-77474525D01*
X136887143Y-77466491D01*
X136856009Y-77455351D01*
X136826116Y-77441213D01*
X136797753Y-77424213D01*
X136771193Y-77404515D01*
X136746692Y-77382308D01*
X136724485Y-77357807D01*
X136704787Y-77331247D01*
X136687787Y-77302884D01*
X136673649Y-77272991D01*
X136662509Y-77241857D01*
X136654475Y-77209781D01*
X136649623Y-77177071D01*
X136648000Y-77144044D01*
X136648000Y-76017956D01*
X136649623Y-75984929D01*
X136654475Y-75952219D01*
X136662509Y-75920143D01*
X136673649Y-75889009D01*
X136687787Y-75859116D01*
X136704787Y-75830753D01*
X136724485Y-75804193D01*
X136746692Y-75779692D01*
X136771193Y-75757485D01*
X136797753Y-75737787D01*
X136826116Y-75720787D01*
X136856009Y-75706649D01*
X136887143Y-75695509D01*
X136919219Y-75687475D01*
X136951929Y-75682623D01*
X136984956Y-75681000D01*
X137861044Y-75681000D01*
X137894071Y-75682623D01*
X137894071Y-75682623D01*
G37*
D12*
X137423000Y-76581000D03*
D11*
G36*
X135844071Y-75682623D02*
X135876781Y-75687475D01*
X135908857Y-75695509D01*
X135939991Y-75706649D01*
X135969884Y-75720787D01*
X135998247Y-75737787D01*
X136024807Y-75757485D01*
X136049308Y-75779692D01*
X136071515Y-75804193D01*
X136091213Y-75830753D01*
X136108213Y-75859116D01*
X136122351Y-75889009D01*
X136133491Y-75920143D01*
X136141525Y-75952219D01*
X136146377Y-75984929D01*
X136148000Y-76017956D01*
X136148000Y-77144044D01*
X136146377Y-77177071D01*
X136141525Y-77209781D01*
X136133491Y-77241857D01*
X136122351Y-77272991D01*
X136108213Y-77302884D01*
X136091213Y-77331247D01*
X136071515Y-77357807D01*
X136049308Y-77382308D01*
X136024807Y-77404515D01*
X135998247Y-77424213D01*
X135969884Y-77441213D01*
X135939991Y-77455351D01*
X135908857Y-77466491D01*
X135876781Y-77474525D01*
X135844071Y-77479377D01*
X135811044Y-77481000D01*
X134934956Y-77481000D01*
X134901929Y-77479377D01*
X134869219Y-77474525D01*
X134837143Y-77466491D01*
X134806009Y-77455351D01*
X134776116Y-77441213D01*
X134747753Y-77424213D01*
X134721193Y-77404515D01*
X134696692Y-77382308D01*
X134674485Y-77357807D01*
X134654787Y-77331247D01*
X134637787Y-77302884D01*
X134623649Y-77272991D01*
X134612509Y-77241857D01*
X134604475Y-77209781D01*
X134599623Y-77177071D01*
X134598000Y-77144044D01*
X134598000Y-76017956D01*
X134599623Y-75984929D01*
X134604475Y-75952219D01*
X134612509Y-75920143D01*
X134623649Y-75889009D01*
X134637787Y-75859116D01*
X134654787Y-75830753D01*
X134674485Y-75804193D01*
X134696692Y-75779692D01*
X134721193Y-75757485D01*
X134747753Y-75737787D01*
X134776116Y-75720787D01*
X134806009Y-75706649D01*
X134837143Y-75695509D01*
X134869219Y-75687475D01*
X134901929Y-75682623D01*
X134934956Y-75681000D01*
X135811044Y-75681000D01*
X135844071Y-75682623D01*
X135844071Y-75682623D01*
G37*
D12*
X135373000Y-76581000D03*
G04 #@! TD*
D11*
G04 #@! TO.C,R12*
G36*
X151746071Y-75047623D02*
X151778781Y-75052475D01*
X151810857Y-75060509D01*
X151841991Y-75071649D01*
X151871884Y-75085787D01*
X151900247Y-75102787D01*
X151926807Y-75122485D01*
X151951308Y-75144692D01*
X151973515Y-75169193D01*
X151993213Y-75195753D01*
X152010213Y-75224116D01*
X152024351Y-75254009D01*
X152035491Y-75285143D01*
X152043525Y-75317219D01*
X152048377Y-75349929D01*
X152050000Y-75382956D01*
X152050000Y-76509044D01*
X152048377Y-76542071D01*
X152043525Y-76574781D01*
X152035491Y-76606857D01*
X152024351Y-76637991D01*
X152010213Y-76667884D01*
X151993213Y-76696247D01*
X151973515Y-76722807D01*
X151951308Y-76747308D01*
X151926807Y-76769515D01*
X151900247Y-76789213D01*
X151871884Y-76806213D01*
X151841991Y-76820351D01*
X151810857Y-76831491D01*
X151778781Y-76839525D01*
X151746071Y-76844377D01*
X151713044Y-76846000D01*
X150836956Y-76846000D01*
X150803929Y-76844377D01*
X150771219Y-76839525D01*
X150739143Y-76831491D01*
X150708009Y-76820351D01*
X150678116Y-76806213D01*
X150649753Y-76789213D01*
X150623193Y-76769515D01*
X150598692Y-76747308D01*
X150576485Y-76722807D01*
X150556787Y-76696247D01*
X150539787Y-76667884D01*
X150525649Y-76637991D01*
X150514509Y-76606857D01*
X150506475Y-76574781D01*
X150501623Y-76542071D01*
X150500000Y-76509044D01*
X150500000Y-75382956D01*
X150501623Y-75349929D01*
X150506475Y-75317219D01*
X150514509Y-75285143D01*
X150525649Y-75254009D01*
X150539787Y-75224116D01*
X150556787Y-75195753D01*
X150576485Y-75169193D01*
X150598692Y-75144692D01*
X150623193Y-75122485D01*
X150649753Y-75102787D01*
X150678116Y-75085787D01*
X150708009Y-75071649D01*
X150739143Y-75060509D01*
X150771219Y-75052475D01*
X150803929Y-75047623D01*
X150836956Y-75046000D01*
X151713044Y-75046000D01*
X151746071Y-75047623D01*
X151746071Y-75047623D01*
G37*
D12*
X151275000Y-75946000D03*
D11*
G36*
X149696071Y-75047623D02*
X149728781Y-75052475D01*
X149760857Y-75060509D01*
X149791991Y-75071649D01*
X149821884Y-75085787D01*
X149850247Y-75102787D01*
X149876807Y-75122485D01*
X149901308Y-75144692D01*
X149923515Y-75169193D01*
X149943213Y-75195753D01*
X149960213Y-75224116D01*
X149974351Y-75254009D01*
X149985491Y-75285143D01*
X149993525Y-75317219D01*
X149998377Y-75349929D01*
X150000000Y-75382956D01*
X150000000Y-76509044D01*
X149998377Y-76542071D01*
X149993525Y-76574781D01*
X149985491Y-76606857D01*
X149974351Y-76637991D01*
X149960213Y-76667884D01*
X149943213Y-76696247D01*
X149923515Y-76722807D01*
X149901308Y-76747308D01*
X149876807Y-76769515D01*
X149850247Y-76789213D01*
X149821884Y-76806213D01*
X149791991Y-76820351D01*
X149760857Y-76831491D01*
X149728781Y-76839525D01*
X149696071Y-76844377D01*
X149663044Y-76846000D01*
X148786956Y-76846000D01*
X148753929Y-76844377D01*
X148721219Y-76839525D01*
X148689143Y-76831491D01*
X148658009Y-76820351D01*
X148628116Y-76806213D01*
X148599753Y-76789213D01*
X148573193Y-76769515D01*
X148548692Y-76747308D01*
X148526485Y-76722807D01*
X148506787Y-76696247D01*
X148489787Y-76667884D01*
X148475649Y-76637991D01*
X148464509Y-76606857D01*
X148456475Y-76574781D01*
X148451623Y-76542071D01*
X148450000Y-76509044D01*
X148450000Y-75382956D01*
X148451623Y-75349929D01*
X148456475Y-75317219D01*
X148464509Y-75285143D01*
X148475649Y-75254009D01*
X148489787Y-75224116D01*
X148506787Y-75195753D01*
X148526485Y-75169193D01*
X148548692Y-75144692D01*
X148573193Y-75122485D01*
X148599753Y-75102787D01*
X148628116Y-75085787D01*
X148658009Y-75071649D01*
X148689143Y-75060509D01*
X148721219Y-75052475D01*
X148753929Y-75047623D01*
X148786956Y-75046000D01*
X149663044Y-75046000D01*
X149696071Y-75047623D01*
X149696071Y-75047623D01*
G37*
D12*
X149225000Y-75946000D03*
G04 #@! TD*
D23*
G04 #@! TO.C,mic_amp*
X95250000Y-103505000D03*
G04 #@! TD*
D11*
G04 #@! TO.C,R1*
G36*
X86448071Y-75290623D02*
X86480781Y-75295475D01*
X86512857Y-75303509D01*
X86543991Y-75314649D01*
X86573884Y-75328787D01*
X86602247Y-75345787D01*
X86628807Y-75365485D01*
X86653308Y-75387692D01*
X86675515Y-75412193D01*
X86695213Y-75438753D01*
X86712213Y-75467116D01*
X86726351Y-75497009D01*
X86737491Y-75528143D01*
X86745525Y-75560219D01*
X86750377Y-75592929D01*
X86752000Y-75625956D01*
X86752000Y-76502044D01*
X86750377Y-76535071D01*
X86745525Y-76567781D01*
X86737491Y-76599857D01*
X86726351Y-76630991D01*
X86712213Y-76660884D01*
X86695213Y-76689247D01*
X86675515Y-76715807D01*
X86653308Y-76740308D01*
X86628807Y-76762515D01*
X86602247Y-76782213D01*
X86573884Y-76799213D01*
X86543991Y-76813351D01*
X86512857Y-76824491D01*
X86480781Y-76832525D01*
X86448071Y-76837377D01*
X86415044Y-76839000D01*
X85288956Y-76839000D01*
X85255929Y-76837377D01*
X85223219Y-76832525D01*
X85191143Y-76824491D01*
X85160009Y-76813351D01*
X85130116Y-76799213D01*
X85101753Y-76782213D01*
X85075193Y-76762515D01*
X85050692Y-76740308D01*
X85028485Y-76715807D01*
X85008787Y-76689247D01*
X84991787Y-76660884D01*
X84977649Y-76630991D01*
X84966509Y-76599857D01*
X84958475Y-76567781D01*
X84953623Y-76535071D01*
X84952000Y-76502044D01*
X84952000Y-75625956D01*
X84953623Y-75592929D01*
X84958475Y-75560219D01*
X84966509Y-75528143D01*
X84977649Y-75497009D01*
X84991787Y-75467116D01*
X85008787Y-75438753D01*
X85028485Y-75412193D01*
X85050692Y-75387692D01*
X85075193Y-75365485D01*
X85101753Y-75345787D01*
X85130116Y-75328787D01*
X85160009Y-75314649D01*
X85191143Y-75303509D01*
X85223219Y-75295475D01*
X85255929Y-75290623D01*
X85288956Y-75289000D01*
X86415044Y-75289000D01*
X86448071Y-75290623D01*
X86448071Y-75290623D01*
G37*
D12*
X85852000Y-76064000D03*
D11*
G36*
X86448071Y-77340623D02*
X86480781Y-77345475D01*
X86512857Y-77353509D01*
X86543991Y-77364649D01*
X86573884Y-77378787D01*
X86602247Y-77395787D01*
X86628807Y-77415485D01*
X86653308Y-77437692D01*
X86675515Y-77462193D01*
X86695213Y-77488753D01*
X86712213Y-77517116D01*
X86726351Y-77547009D01*
X86737491Y-77578143D01*
X86745525Y-77610219D01*
X86750377Y-77642929D01*
X86752000Y-77675956D01*
X86752000Y-78552044D01*
X86750377Y-78585071D01*
X86745525Y-78617781D01*
X86737491Y-78649857D01*
X86726351Y-78680991D01*
X86712213Y-78710884D01*
X86695213Y-78739247D01*
X86675515Y-78765807D01*
X86653308Y-78790308D01*
X86628807Y-78812515D01*
X86602247Y-78832213D01*
X86573884Y-78849213D01*
X86543991Y-78863351D01*
X86512857Y-78874491D01*
X86480781Y-78882525D01*
X86448071Y-78887377D01*
X86415044Y-78889000D01*
X85288956Y-78889000D01*
X85255929Y-78887377D01*
X85223219Y-78882525D01*
X85191143Y-78874491D01*
X85160009Y-78863351D01*
X85130116Y-78849213D01*
X85101753Y-78832213D01*
X85075193Y-78812515D01*
X85050692Y-78790308D01*
X85028485Y-78765807D01*
X85008787Y-78739247D01*
X84991787Y-78710884D01*
X84977649Y-78680991D01*
X84966509Y-78649857D01*
X84958475Y-78617781D01*
X84953623Y-78585071D01*
X84952000Y-78552044D01*
X84952000Y-77675956D01*
X84953623Y-77642929D01*
X84958475Y-77610219D01*
X84966509Y-77578143D01*
X84977649Y-77547009D01*
X84991787Y-77517116D01*
X85008787Y-77488753D01*
X85028485Y-77462193D01*
X85050692Y-77437692D01*
X85075193Y-77415485D01*
X85101753Y-77395787D01*
X85130116Y-77378787D01*
X85160009Y-77364649D01*
X85191143Y-77353509D01*
X85223219Y-77345475D01*
X85255929Y-77340623D01*
X85288956Y-77339000D01*
X86415044Y-77339000D01*
X86448071Y-77340623D01*
X86448071Y-77340623D01*
G37*
D12*
X85852000Y-78114000D03*
G04 #@! TD*
D11*
G04 #@! TO.C,R11*
G36*
X79962071Y-99057623D02*
X79994781Y-99062475D01*
X80026857Y-99070509D01*
X80057991Y-99081649D01*
X80087884Y-99095787D01*
X80116247Y-99112787D01*
X80142807Y-99132485D01*
X80167308Y-99154692D01*
X80189515Y-99179193D01*
X80209213Y-99205753D01*
X80226213Y-99234116D01*
X80240351Y-99264009D01*
X80251491Y-99295143D01*
X80259525Y-99327219D01*
X80264377Y-99359929D01*
X80266000Y-99392956D01*
X80266000Y-100269044D01*
X80264377Y-100302071D01*
X80259525Y-100334781D01*
X80251491Y-100366857D01*
X80240351Y-100397991D01*
X80226213Y-100427884D01*
X80209213Y-100456247D01*
X80189515Y-100482807D01*
X80167308Y-100507308D01*
X80142807Y-100529515D01*
X80116247Y-100549213D01*
X80087884Y-100566213D01*
X80057991Y-100580351D01*
X80026857Y-100591491D01*
X79994781Y-100599525D01*
X79962071Y-100604377D01*
X79929044Y-100606000D01*
X78802956Y-100606000D01*
X78769929Y-100604377D01*
X78737219Y-100599525D01*
X78705143Y-100591491D01*
X78674009Y-100580351D01*
X78644116Y-100566213D01*
X78615753Y-100549213D01*
X78589193Y-100529515D01*
X78564692Y-100507308D01*
X78542485Y-100482807D01*
X78522787Y-100456247D01*
X78505787Y-100427884D01*
X78491649Y-100397991D01*
X78480509Y-100366857D01*
X78472475Y-100334781D01*
X78467623Y-100302071D01*
X78466000Y-100269044D01*
X78466000Y-99392956D01*
X78467623Y-99359929D01*
X78472475Y-99327219D01*
X78480509Y-99295143D01*
X78491649Y-99264009D01*
X78505787Y-99234116D01*
X78522787Y-99205753D01*
X78542485Y-99179193D01*
X78564692Y-99154692D01*
X78589193Y-99132485D01*
X78615753Y-99112787D01*
X78644116Y-99095787D01*
X78674009Y-99081649D01*
X78705143Y-99070509D01*
X78737219Y-99062475D01*
X78769929Y-99057623D01*
X78802956Y-99056000D01*
X79929044Y-99056000D01*
X79962071Y-99057623D01*
X79962071Y-99057623D01*
G37*
D12*
X79366000Y-99831000D03*
D11*
G36*
X79962071Y-97007623D02*
X79994781Y-97012475D01*
X80026857Y-97020509D01*
X80057991Y-97031649D01*
X80087884Y-97045787D01*
X80116247Y-97062787D01*
X80142807Y-97082485D01*
X80167308Y-97104692D01*
X80189515Y-97129193D01*
X80209213Y-97155753D01*
X80226213Y-97184116D01*
X80240351Y-97214009D01*
X80251491Y-97245143D01*
X80259525Y-97277219D01*
X80264377Y-97309929D01*
X80266000Y-97342956D01*
X80266000Y-98219044D01*
X80264377Y-98252071D01*
X80259525Y-98284781D01*
X80251491Y-98316857D01*
X80240351Y-98347991D01*
X80226213Y-98377884D01*
X80209213Y-98406247D01*
X80189515Y-98432807D01*
X80167308Y-98457308D01*
X80142807Y-98479515D01*
X80116247Y-98499213D01*
X80087884Y-98516213D01*
X80057991Y-98530351D01*
X80026857Y-98541491D01*
X79994781Y-98549525D01*
X79962071Y-98554377D01*
X79929044Y-98556000D01*
X78802956Y-98556000D01*
X78769929Y-98554377D01*
X78737219Y-98549525D01*
X78705143Y-98541491D01*
X78674009Y-98530351D01*
X78644116Y-98516213D01*
X78615753Y-98499213D01*
X78589193Y-98479515D01*
X78564692Y-98457308D01*
X78542485Y-98432807D01*
X78522787Y-98406247D01*
X78505787Y-98377884D01*
X78491649Y-98347991D01*
X78480509Y-98316857D01*
X78472475Y-98284781D01*
X78467623Y-98252071D01*
X78466000Y-98219044D01*
X78466000Y-97342956D01*
X78467623Y-97309929D01*
X78472475Y-97277219D01*
X78480509Y-97245143D01*
X78491649Y-97214009D01*
X78505787Y-97184116D01*
X78522787Y-97155753D01*
X78542485Y-97129193D01*
X78564692Y-97104692D01*
X78589193Y-97082485D01*
X78615753Y-97062787D01*
X78644116Y-97045787D01*
X78674009Y-97031649D01*
X78705143Y-97020509D01*
X78737219Y-97012475D01*
X78769929Y-97007623D01*
X78802956Y-97006000D01*
X79929044Y-97006000D01*
X79962071Y-97007623D01*
X79962071Y-97007623D01*
G37*
D12*
X79366000Y-97781000D03*
G04 #@! TD*
D11*
G04 #@! TO.C,R13*
G36*
X83792071Y-98923623D02*
X83824781Y-98928475D01*
X83856857Y-98936509D01*
X83887991Y-98947649D01*
X83917884Y-98961787D01*
X83946247Y-98978787D01*
X83972807Y-98998485D01*
X83997308Y-99020692D01*
X84019515Y-99045193D01*
X84039213Y-99071753D01*
X84056213Y-99100116D01*
X84070351Y-99130009D01*
X84081491Y-99161143D01*
X84089525Y-99193219D01*
X84094377Y-99225929D01*
X84096000Y-99258956D01*
X84096000Y-100385044D01*
X84094377Y-100418071D01*
X84089525Y-100450781D01*
X84081491Y-100482857D01*
X84070351Y-100513991D01*
X84056213Y-100543884D01*
X84039213Y-100572247D01*
X84019515Y-100598807D01*
X83997308Y-100623308D01*
X83972807Y-100645515D01*
X83946247Y-100665213D01*
X83917884Y-100682213D01*
X83887991Y-100696351D01*
X83856857Y-100707491D01*
X83824781Y-100715525D01*
X83792071Y-100720377D01*
X83759044Y-100722000D01*
X82882956Y-100722000D01*
X82849929Y-100720377D01*
X82817219Y-100715525D01*
X82785143Y-100707491D01*
X82754009Y-100696351D01*
X82724116Y-100682213D01*
X82695753Y-100665213D01*
X82669193Y-100645515D01*
X82644692Y-100623308D01*
X82622485Y-100598807D01*
X82602787Y-100572247D01*
X82585787Y-100543884D01*
X82571649Y-100513991D01*
X82560509Y-100482857D01*
X82552475Y-100450781D01*
X82547623Y-100418071D01*
X82546000Y-100385044D01*
X82546000Y-99258956D01*
X82547623Y-99225929D01*
X82552475Y-99193219D01*
X82560509Y-99161143D01*
X82571649Y-99130009D01*
X82585787Y-99100116D01*
X82602787Y-99071753D01*
X82622485Y-99045193D01*
X82644692Y-99020692D01*
X82669193Y-98998485D01*
X82695753Y-98978787D01*
X82724116Y-98961787D01*
X82754009Y-98947649D01*
X82785143Y-98936509D01*
X82817219Y-98928475D01*
X82849929Y-98923623D01*
X82882956Y-98922000D01*
X83759044Y-98922000D01*
X83792071Y-98923623D01*
X83792071Y-98923623D01*
G37*
D12*
X83321000Y-99822000D03*
D11*
G36*
X81742071Y-98923623D02*
X81774781Y-98928475D01*
X81806857Y-98936509D01*
X81837991Y-98947649D01*
X81867884Y-98961787D01*
X81896247Y-98978787D01*
X81922807Y-98998485D01*
X81947308Y-99020692D01*
X81969515Y-99045193D01*
X81989213Y-99071753D01*
X82006213Y-99100116D01*
X82020351Y-99130009D01*
X82031491Y-99161143D01*
X82039525Y-99193219D01*
X82044377Y-99225929D01*
X82046000Y-99258956D01*
X82046000Y-100385044D01*
X82044377Y-100418071D01*
X82039525Y-100450781D01*
X82031491Y-100482857D01*
X82020351Y-100513991D01*
X82006213Y-100543884D01*
X81989213Y-100572247D01*
X81969515Y-100598807D01*
X81947308Y-100623308D01*
X81922807Y-100645515D01*
X81896247Y-100665213D01*
X81867884Y-100682213D01*
X81837991Y-100696351D01*
X81806857Y-100707491D01*
X81774781Y-100715525D01*
X81742071Y-100720377D01*
X81709044Y-100722000D01*
X80832956Y-100722000D01*
X80799929Y-100720377D01*
X80767219Y-100715525D01*
X80735143Y-100707491D01*
X80704009Y-100696351D01*
X80674116Y-100682213D01*
X80645753Y-100665213D01*
X80619193Y-100645515D01*
X80594692Y-100623308D01*
X80572485Y-100598807D01*
X80552787Y-100572247D01*
X80535787Y-100543884D01*
X80521649Y-100513991D01*
X80510509Y-100482857D01*
X80502475Y-100450781D01*
X80497623Y-100418071D01*
X80496000Y-100385044D01*
X80496000Y-99258956D01*
X80497623Y-99225929D01*
X80502475Y-99193219D01*
X80510509Y-99161143D01*
X80521649Y-99130009D01*
X80535787Y-99100116D01*
X80552787Y-99071753D01*
X80572485Y-99045193D01*
X80594692Y-99020692D01*
X80619193Y-98998485D01*
X80645753Y-98978787D01*
X80674116Y-98961787D01*
X80704009Y-98947649D01*
X80735143Y-98936509D01*
X80767219Y-98928475D01*
X80799929Y-98923623D01*
X80832956Y-98922000D01*
X81709044Y-98922000D01*
X81742071Y-98923623D01*
X81742071Y-98923623D01*
G37*
D12*
X81271000Y-99822000D03*
G04 #@! TD*
D11*
G04 #@! TO.C,R12*
G36*
X69940071Y-99558623D02*
X69972781Y-99563475D01*
X70004857Y-99571509D01*
X70035991Y-99582649D01*
X70065884Y-99596787D01*
X70094247Y-99613787D01*
X70120807Y-99633485D01*
X70145308Y-99655692D01*
X70167515Y-99680193D01*
X70187213Y-99706753D01*
X70204213Y-99735116D01*
X70218351Y-99765009D01*
X70229491Y-99796143D01*
X70237525Y-99828219D01*
X70242377Y-99860929D01*
X70244000Y-99893956D01*
X70244000Y-101020044D01*
X70242377Y-101053071D01*
X70237525Y-101085781D01*
X70229491Y-101117857D01*
X70218351Y-101148991D01*
X70204213Y-101178884D01*
X70187213Y-101207247D01*
X70167515Y-101233807D01*
X70145308Y-101258308D01*
X70120807Y-101280515D01*
X70094247Y-101300213D01*
X70065884Y-101317213D01*
X70035991Y-101331351D01*
X70004857Y-101342491D01*
X69972781Y-101350525D01*
X69940071Y-101355377D01*
X69907044Y-101357000D01*
X69030956Y-101357000D01*
X68997929Y-101355377D01*
X68965219Y-101350525D01*
X68933143Y-101342491D01*
X68902009Y-101331351D01*
X68872116Y-101317213D01*
X68843753Y-101300213D01*
X68817193Y-101280515D01*
X68792692Y-101258308D01*
X68770485Y-101233807D01*
X68750787Y-101207247D01*
X68733787Y-101178884D01*
X68719649Y-101148991D01*
X68708509Y-101117857D01*
X68700475Y-101085781D01*
X68695623Y-101053071D01*
X68694000Y-101020044D01*
X68694000Y-99893956D01*
X68695623Y-99860929D01*
X68700475Y-99828219D01*
X68708509Y-99796143D01*
X68719649Y-99765009D01*
X68733787Y-99735116D01*
X68750787Y-99706753D01*
X68770485Y-99680193D01*
X68792692Y-99655692D01*
X68817193Y-99633485D01*
X68843753Y-99613787D01*
X68872116Y-99596787D01*
X68902009Y-99582649D01*
X68933143Y-99571509D01*
X68965219Y-99563475D01*
X68997929Y-99558623D01*
X69030956Y-99557000D01*
X69907044Y-99557000D01*
X69940071Y-99558623D01*
X69940071Y-99558623D01*
G37*
D12*
X69469000Y-100457000D03*
D11*
G36*
X67890071Y-99558623D02*
X67922781Y-99563475D01*
X67954857Y-99571509D01*
X67985991Y-99582649D01*
X68015884Y-99596787D01*
X68044247Y-99613787D01*
X68070807Y-99633485D01*
X68095308Y-99655692D01*
X68117515Y-99680193D01*
X68137213Y-99706753D01*
X68154213Y-99735116D01*
X68168351Y-99765009D01*
X68179491Y-99796143D01*
X68187525Y-99828219D01*
X68192377Y-99860929D01*
X68194000Y-99893956D01*
X68194000Y-101020044D01*
X68192377Y-101053071D01*
X68187525Y-101085781D01*
X68179491Y-101117857D01*
X68168351Y-101148991D01*
X68154213Y-101178884D01*
X68137213Y-101207247D01*
X68117515Y-101233807D01*
X68095308Y-101258308D01*
X68070807Y-101280515D01*
X68044247Y-101300213D01*
X68015884Y-101317213D01*
X67985991Y-101331351D01*
X67954857Y-101342491D01*
X67922781Y-101350525D01*
X67890071Y-101355377D01*
X67857044Y-101357000D01*
X66980956Y-101357000D01*
X66947929Y-101355377D01*
X66915219Y-101350525D01*
X66883143Y-101342491D01*
X66852009Y-101331351D01*
X66822116Y-101317213D01*
X66793753Y-101300213D01*
X66767193Y-101280515D01*
X66742692Y-101258308D01*
X66720485Y-101233807D01*
X66700787Y-101207247D01*
X66683787Y-101178884D01*
X66669649Y-101148991D01*
X66658509Y-101117857D01*
X66650475Y-101085781D01*
X66645623Y-101053071D01*
X66644000Y-101020044D01*
X66644000Y-99893956D01*
X66645623Y-99860929D01*
X66650475Y-99828219D01*
X66658509Y-99796143D01*
X66669649Y-99765009D01*
X66683787Y-99735116D01*
X66700787Y-99706753D01*
X66720485Y-99680193D01*
X66742692Y-99655692D01*
X66767193Y-99633485D01*
X66793753Y-99613787D01*
X66822116Y-99596787D01*
X66852009Y-99582649D01*
X66883143Y-99571509D01*
X66915219Y-99563475D01*
X66947929Y-99558623D01*
X66980956Y-99557000D01*
X67857044Y-99557000D01*
X67890071Y-99558623D01*
X67890071Y-99558623D01*
G37*
D12*
X67419000Y-100457000D03*
G04 #@! TD*
D11*
G04 #@! TO.C,D1*
G36*
X88353071Y-85096623D02*
X88385781Y-85101475D01*
X88417857Y-85109509D01*
X88448991Y-85120649D01*
X88478884Y-85134787D01*
X88507247Y-85151787D01*
X88533807Y-85171485D01*
X88558308Y-85193692D01*
X88580515Y-85218193D01*
X88600213Y-85244753D01*
X88617213Y-85273116D01*
X88631351Y-85303009D01*
X88642491Y-85334143D01*
X88650525Y-85366219D01*
X88655377Y-85398929D01*
X88657000Y-85431956D01*
X88657000Y-86308044D01*
X88655377Y-86341071D01*
X88650525Y-86373781D01*
X88642491Y-86405857D01*
X88631351Y-86436991D01*
X88617213Y-86466884D01*
X88600213Y-86495247D01*
X88580515Y-86521807D01*
X88558308Y-86546308D01*
X88533807Y-86568515D01*
X88507247Y-86588213D01*
X88478884Y-86605213D01*
X88448991Y-86619351D01*
X88417857Y-86630491D01*
X88385781Y-86638525D01*
X88353071Y-86643377D01*
X88320044Y-86645000D01*
X87193956Y-86645000D01*
X87160929Y-86643377D01*
X87128219Y-86638525D01*
X87096143Y-86630491D01*
X87065009Y-86619351D01*
X87035116Y-86605213D01*
X87006753Y-86588213D01*
X86980193Y-86568515D01*
X86955692Y-86546308D01*
X86933485Y-86521807D01*
X86913787Y-86495247D01*
X86896787Y-86466884D01*
X86882649Y-86436991D01*
X86871509Y-86405857D01*
X86863475Y-86373781D01*
X86858623Y-86341071D01*
X86857000Y-86308044D01*
X86857000Y-85431956D01*
X86858623Y-85398929D01*
X86863475Y-85366219D01*
X86871509Y-85334143D01*
X86882649Y-85303009D01*
X86896787Y-85273116D01*
X86913787Y-85244753D01*
X86933485Y-85218193D01*
X86955692Y-85193692D01*
X86980193Y-85171485D01*
X87006753Y-85151787D01*
X87035116Y-85134787D01*
X87065009Y-85120649D01*
X87096143Y-85109509D01*
X87128219Y-85101475D01*
X87160929Y-85096623D01*
X87193956Y-85095000D01*
X88320044Y-85095000D01*
X88353071Y-85096623D01*
X88353071Y-85096623D01*
G37*
D12*
X87757000Y-85870000D03*
D11*
G36*
X88353071Y-83046623D02*
X88385781Y-83051475D01*
X88417857Y-83059509D01*
X88448991Y-83070649D01*
X88478884Y-83084787D01*
X88507247Y-83101787D01*
X88533807Y-83121485D01*
X88558308Y-83143692D01*
X88580515Y-83168193D01*
X88600213Y-83194753D01*
X88617213Y-83223116D01*
X88631351Y-83253009D01*
X88642491Y-83284143D01*
X88650525Y-83316219D01*
X88655377Y-83348929D01*
X88657000Y-83381956D01*
X88657000Y-84258044D01*
X88655377Y-84291071D01*
X88650525Y-84323781D01*
X88642491Y-84355857D01*
X88631351Y-84386991D01*
X88617213Y-84416884D01*
X88600213Y-84445247D01*
X88580515Y-84471807D01*
X88558308Y-84496308D01*
X88533807Y-84518515D01*
X88507247Y-84538213D01*
X88478884Y-84555213D01*
X88448991Y-84569351D01*
X88417857Y-84580491D01*
X88385781Y-84588525D01*
X88353071Y-84593377D01*
X88320044Y-84595000D01*
X87193956Y-84595000D01*
X87160929Y-84593377D01*
X87128219Y-84588525D01*
X87096143Y-84580491D01*
X87065009Y-84569351D01*
X87035116Y-84555213D01*
X87006753Y-84538213D01*
X86980193Y-84518515D01*
X86955692Y-84496308D01*
X86933485Y-84471807D01*
X86913787Y-84445247D01*
X86896787Y-84416884D01*
X86882649Y-84386991D01*
X86871509Y-84355857D01*
X86863475Y-84323781D01*
X86858623Y-84291071D01*
X86857000Y-84258044D01*
X86857000Y-83381956D01*
X86858623Y-83348929D01*
X86863475Y-83316219D01*
X86871509Y-83284143D01*
X86882649Y-83253009D01*
X86896787Y-83223116D01*
X86913787Y-83194753D01*
X86933485Y-83168193D01*
X86955692Y-83143692D01*
X86980193Y-83121485D01*
X87006753Y-83101787D01*
X87035116Y-83084787D01*
X87065009Y-83070649D01*
X87096143Y-83059509D01*
X87128219Y-83051475D01*
X87160929Y-83046623D01*
X87193956Y-83045000D01*
X88320044Y-83045000D01*
X88353071Y-83046623D01*
X88353071Y-83046623D01*
G37*
D12*
X87757000Y-83820000D03*
G04 #@! TD*
D23*
G04 #@! TO.C,esp_pwr*
X75946000Y-72644000D03*
G04 #@! TD*
G04 #@! TO.C,threshold*
X85217000Y-92583000D03*
G04 #@! TD*
D21*
G04 #@! TO.C,C14*
X81574000Y-82169000D03*
D20*
X84074000Y-82169000D03*
G04 #@! TD*
D11*
G04 #@! TO.C,C1*
G36*
X84797071Y-75290623D02*
X84829781Y-75295475D01*
X84861857Y-75303509D01*
X84892991Y-75314649D01*
X84922884Y-75328787D01*
X84951247Y-75345787D01*
X84977807Y-75365485D01*
X85002308Y-75387692D01*
X85024515Y-75412193D01*
X85044213Y-75438753D01*
X85061213Y-75467116D01*
X85075351Y-75497009D01*
X85086491Y-75528143D01*
X85094525Y-75560219D01*
X85099377Y-75592929D01*
X85101000Y-75625956D01*
X85101000Y-76502044D01*
X85099377Y-76535071D01*
X85094525Y-76567781D01*
X85086491Y-76599857D01*
X85075351Y-76630991D01*
X85061213Y-76660884D01*
X85044213Y-76689247D01*
X85024515Y-76715807D01*
X85002308Y-76740308D01*
X84977807Y-76762515D01*
X84951247Y-76782213D01*
X84922884Y-76799213D01*
X84892991Y-76813351D01*
X84861857Y-76824491D01*
X84829781Y-76832525D01*
X84797071Y-76837377D01*
X84764044Y-76839000D01*
X83637956Y-76839000D01*
X83604929Y-76837377D01*
X83572219Y-76832525D01*
X83540143Y-76824491D01*
X83509009Y-76813351D01*
X83479116Y-76799213D01*
X83450753Y-76782213D01*
X83424193Y-76762515D01*
X83399692Y-76740308D01*
X83377485Y-76715807D01*
X83357787Y-76689247D01*
X83340787Y-76660884D01*
X83326649Y-76630991D01*
X83315509Y-76599857D01*
X83307475Y-76567781D01*
X83302623Y-76535071D01*
X83301000Y-76502044D01*
X83301000Y-75625956D01*
X83302623Y-75592929D01*
X83307475Y-75560219D01*
X83315509Y-75528143D01*
X83326649Y-75497009D01*
X83340787Y-75467116D01*
X83357787Y-75438753D01*
X83377485Y-75412193D01*
X83399692Y-75387692D01*
X83424193Y-75365485D01*
X83450753Y-75345787D01*
X83479116Y-75328787D01*
X83509009Y-75314649D01*
X83540143Y-75303509D01*
X83572219Y-75295475D01*
X83604929Y-75290623D01*
X83637956Y-75289000D01*
X84764044Y-75289000D01*
X84797071Y-75290623D01*
X84797071Y-75290623D01*
G37*
D12*
X84201000Y-76064000D03*
D11*
G36*
X84797071Y-77340623D02*
X84829781Y-77345475D01*
X84861857Y-77353509D01*
X84892991Y-77364649D01*
X84922884Y-77378787D01*
X84951247Y-77395787D01*
X84977807Y-77415485D01*
X85002308Y-77437692D01*
X85024515Y-77462193D01*
X85044213Y-77488753D01*
X85061213Y-77517116D01*
X85075351Y-77547009D01*
X85086491Y-77578143D01*
X85094525Y-77610219D01*
X85099377Y-77642929D01*
X85101000Y-77675956D01*
X85101000Y-78552044D01*
X85099377Y-78585071D01*
X85094525Y-78617781D01*
X85086491Y-78649857D01*
X85075351Y-78680991D01*
X85061213Y-78710884D01*
X85044213Y-78739247D01*
X85024515Y-78765807D01*
X85002308Y-78790308D01*
X84977807Y-78812515D01*
X84951247Y-78832213D01*
X84922884Y-78849213D01*
X84892991Y-78863351D01*
X84861857Y-78874491D01*
X84829781Y-78882525D01*
X84797071Y-78887377D01*
X84764044Y-78889000D01*
X83637956Y-78889000D01*
X83604929Y-78887377D01*
X83572219Y-78882525D01*
X83540143Y-78874491D01*
X83509009Y-78863351D01*
X83479116Y-78849213D01*
X83450753Y-78832213D01*
X83424193Y-78812515D01*
X83399692Y-78790308D01*
X83377485Y-78765807D01*
X83357787Y-78739247D01*
X83340787Y-78710884D01*
X83326649Y-78680991D01*
X83315509Y-78649857D01*
X83307475Y-78617781D01*
X83302623Y-78585071D01*
X83301000Y-78552044D01*
X83301000Y-77675956D01*
X83302623Y-77642929D01*
X83307475Y-77610219D01*
X83315509Y-77578143D01*
X83326649Y-77547009D01*
X83340787Y-77517116D01*
X83357787Y-77488753D01*
X83377485Y-77462193D01*
X83399692Y-77437692D01*
X83424193Y-77415485D01*
X83450753Y-77395787D01*
X83479116Y-77378787D01*
X83509009Y-77364649D01*
X83540143Y-77353509D01*
X83572219Y-77345475D01*
X83604929Y-77340623D01*
X83637956Y-77339000D01*
X84764044Y-77339000D01*
X84797071Y-77340623D01*
X84797071Y-77340623D01*
G37*
D12*
X84201000Y-78114000D03*
G04 #@! TD*
D17*
G04 #@! TO.C,MH2*
X62992000Y-102870000D03*
G04 #@! TD*
G04 #@! TO.C,MH1*
X105791000Y-73660000D03*
G04 #@! TD*
D11*
G04 #@! TO.C,D1*
G36*
X131533071Y-91809623D02*
X131565781Y-91814475D01*
X131597857Y-91822509D01*
X131628991Y-91833649D01*
X131658884Y-91847787D01*
X131687247Y-91864787D01*
X131713807Y-91884485D01*
X131738308Y-91906692D01*
X131760515Y-91931193D01*
X131780213Y-91957753D01*
X131797213Y-91986116D01*
X131811351Y-92016009D01*
X131822491Y-92047143D01*
X131830525Y-92079219D01*
X131835377Y-92111929D01*
X131837000Y-92144956D01*
X131837000Y-93021044D01*
X131835377Y-93054071D01*
X131830525Y-93086781D01*
X131822491Y-93118857D01*
X131811351Y-93149991D01*
X131797213Y-93179884D01*
X131780213Y-93208247D01*
X131760515Y-93234807D01*
X131738308Y-93259308D01*
X131713807Y-93281515D01*
X131687247Y-93301213D01*
X131658884Y-93318213D01*
X131628991Y-93332351D01*
X131597857Y-93343491D01*
X131565781Y-93351525D01*
X131533071Y-93356377D01*
X131500044Y-93358000D01*
X130373956Y-93358000D01*
X130340929Y-93356377D01*
X130308219Y-93351525D01*
X130276143Y-93343491D01*
X130245009Y-93332351D01*
X130215116Y-93318213D01*
X130186753Y-93301213D01*
X130160193Y-93281515D01*
X130135692Y-93259308D01*
X130113485Y-93234807D01*
X130093787Y-93208247D01*
X130076787Y-93179884D01*
X130062649Y-93149991D01*
X130051509Y-93118857D01*
X130043475Y-93086781D01*
X130038623Y-93054071D01*
X130037000Y-93021044D01*
X130037000Y-92144956D01*
X130038623Y-92111929D01*
X130043475Y-92079219D01*
X130051509Y-92047143D01*
X130062649Y-92016009D01*
X130076787Y-91986116D01*
X130093787Y-91957753D01*
X130113485Y-91931193D01*
X130135692Y-91906692D01*
X130160193Y-91884485D01*
X130186753Y-91864787D01*
X130215116Y-91847787D01*
X130245009Y-91833649D01*
X130276143Y-91822509D01*
X130308219Y-91814475D01*
X130340929Y-91809623D01*
X130373956Y-91808000D01*
X131500044Y-91808000D01*
X131533071Y-91809623D01*
X131533071Y-91809623D01*
G37*
D12*
X130937000Y-92583000D03*
D11*
G36*
X131533071Y-89759623D02*
X131565781Y-89764475D01*
X131597857Y-89772509D01*
X131628991Y-89783649D01*
X131658884Y-89797787D01*
X131687247Y-89814787D01*
X131713807Y-89834485D01*
X131738308Y-89856692D01*
X131760515Y-89881193D01*
X131780213Y-89907753D01*
X131797213Y-89936116D01*
X131811351Y-89966009D01*
X131822491Y-89997143D01*
X131830525Y-90029219D01*
X131835377Y-90061929D01*
X131837000Y-90094956D01*
X131837000Y-90971044D01*
X131835377Y-91004071D01*
X131830525Y-91036781D01*
X131822491Y-91068857D01*
X131811351Y-91099991D01*
X131797213Y-91129884D01*
X131780213Y-91158247D01*
X131760515Y-91184807D01*
X131738308Y-91209308D01*
X131713807Y-91231515D01*
X131687247Y-91251213D01*
X131658884Y-91268213D01*
X131628991Y-91282351D01*
X131597857Y-91293491D01*
X131565781Y-91301525D01*
X131533071Y-91306377D01*
X131500044Y-91308000D01*
X130373956Y-91308000D01*
X130340929Y-91306377D01*
X130308219Y-91301525D01*
X130276143Y-91293491D01*
X130245009Y-91282351D01*
X130215116Y-91268213D01*
X130186753Y-91251213D01*
X130160193Y-91231515D01*
X130135692Y-91209308D01*
X130113485Y-91184807D01*
X130093787Y-91158247D01*
X130076787Y-91129884D01*
X130062649Y-91099991D01*
X130051509Y-91068857D01*
X130043475Y-91036781D01*
X130038623Y-91004071D01*
X130037000Y-90971044D01*
X130037000Y-90094956D01*
X130038623Y-90061929D01*
X130043475Y-90029219D01*
X130051509Y-89997143D01*
X130062649Y-89966009D01*
X130076787Y-89936116D01*
X130093787Y-89907753D01*
X130113485Y-89881193D01*
X130135692Y-89856692D01*
X130160193Y-89834485D01*
X130186753Y-89814787D01*
X130215116Y-89797787D01*
X130245009Y-89783649D01*
X130276143Y-89772509D01*
X130308219Y-89764475D01*
X130340929Y-89759623D01*
X130373956Y-89758000D01*
X131500044Y-89758000D01*
X131533071Y-89759623D01*
X131533071Y-89759623D01*
G37*
D12*
X130937000Y-90533000D03*
G04 #@! TD*
D23*
G04 #@! TO.C,esp_pwr*
X142748000Y-103759000D03*
G04 #@! TD*
G04 #@! TO.C,threshold*
X133477000Y-83820000D03*
G04 #@! TD*
D24*
G04 #@! TO.C,clear*
X68714000Y-71785000D03*
X66414000Y-71785000D03*
G04 #@! TD*
G04 #@! TO.C,prog*
X71703000Y-104559000D03*
X69403000Y-104559000D03*
D25*
X72653000Y-102792000D03*
X68453000Y-102792000D03*
D26*
X74744000Y-105097000D03*
D27*
X74363000Y-105478000D03*
D26*
X66489000Y-105097000D03*
D27*
X66870000Y-105478000D03*
G04 #@! TD*
D23*
G04 #@! TO.C,+5V*
X92202000Y-77089000D03*
G04 #@! TD*
G04 #@! TO.C,+3V3*
X114300000Y-96139000D03*
G04 #@! TD*
D17*
G04 #@! TO.C,MH2*
X155702000Y-73533000D03*
G04 #@! TD*
D24*
G04 #@! TO.C,clear*
X152280000Y-104618000D03*
X149980000Y-104618000D03*
G04 #@! TD*
D11*
G04 #@! TO.C,C1*
G36*
X135089071Y-97515623D02*
X135121781Y-97520475D01*
X135153857Y-97528509D01*
X135184991Y-97539649D01*
X135214884Y-97553787D01*
X135243247Y-97570787D01*
X135269807Y-97590485D01*
X135294308Y-97612692D01*
X135316515Y-97637193D01*
X135336213Y-97663753D01*
X135353213Y-97692116D01*
X135367351Y-97722009D01*
X135378491Y-97753143D01*
X135386525Y-97785219D01*
X135391377Y-97817929D01*
X135393000Y-97850956D01*
X135393000Y-98727044D01*
X135391377Y-98760071D01*
X135386525Y-98792781D01*
X135378491Y-98824857D01*
X135367351Y-98855991D01*
X135353213Y-98885884D01*
X135336213Y-98914247D01*
X135316515Y-98940807D01*
X135294308Y-98965308D01*
X135269807Y-98987515D01*
X135243247Y-99007213D01*
X135214884Y-99024213D01*
X135184991Y-99038351D01*
X135153857Y-99049491D01*
X135121781Y-99057525D01*
X135089071Y-99062377D01*
X135056044Y-99064000D01*
X133929956Y-99064000D01*
X133896929Y-99062377D01*
X133864219Y-99057525D01*
X133832143Y-99049491D01*
X133801009Y-99038351D01*
X133771116Y-99024213D01*
X133742753Y-99007213D01*
X133716193Y-98987515D01*
X133691692Y-98965308D01*
X133669485Y-98940807D01*
X133649787Y-98914247D01*
X133632787Y-98885884D01*
X133618649Y-98855991D01*
X133607509Y-98824857D01*
X133599475Y-98792781D01*
X133594623Y-98760071D01*
X133593000Y-98727044D01*
X133593000Y-97850956D01*
X133594623Y-97817929D01*
X133599475Y-97785219D01*
X133607509Y-97753143D01*
X133618649Y-97722009D01*
X133632787Y-97692116D01*
X133649787Y-97663753D01*
X133669485Y-97637193D01*
X133691692Y-97612692D01*
X133716193Y-97590485D01*
X133742753Y-97570787D01*
X133771116Y-97553787D01*
X133801009Y-97539649D01*
X133832143Y-97528509D01*
X133864219Y-97520475D01*
X133896929Y-97515623D01*
X133929956Y-97514000D01*
X135056044Y-97514000D01*
X135089071Y-97515623D01*
X135089071Y-97515623D01*
G37*
D12*
X134493000Y-98289000D03*
D11*
G36*
X135089071Y-99565623D02*
X135121781Y-99570475D01*
X135153857Y-99578509D01*
X135184991Y-99589649D01*
X135214884Y-99603787D01*
X135243247Y-99620787D01*
X135269807Y-99640485D01*
X135294308Y-99662692D01*
X135316515Y-99687193D01*
X135336213Y-99713753D01*
X135353213Y-99742116D01*
X135367351Y-99772009D01*
X135378491Y-99803143D01*
X135386525Y-99835219D01*
X135391377Y-99867929D01*
X135393000Y-99900956D01*
X135393000Y-100777044D01*
X135391377Y-100810071D01*
X135386525Y-100842781D01*
X135378491Y-100874857D01*
X135367351Y-100905991D01*
X135353213Y-100935884D01*
X135336213Y-100964247D01*
X135316515Y-100990807D01*
X135294308Y-101015308D01*
X135269807Y-101037515D01*
X135243247Y-101057213D01*
X135214884Y-101074213D01*
X135184991Y-101088351D01*
X135153857Y-101099491D01*
X135121781Y-101107525D01*
X135089071Y-101112377D01*
X135056044Y-101114000D01*
X133929956Y-101114000D01*
X133896929Y-101112377D01*
X133864219Y-101107525D01*
X133832143Y-101099491D01*
X133801009Y-101088351D01*
X133771116Y-101074213D01*
X133742753Y-101057213D01*
X133716193Y-101037515D01*
X133691692Y-101015308D01*
X133669485Y-100990807D01*
X133649787Y-100964247D01*
X133632787Y-100935884D01*
X133618649Y-100905991D01*
X133607509Y-100874857D01*
X133599475Y-100842781D01*
X133594623Y-100810071D01*
X133593000Y-100777044D01*
X133593000Y-99900956D01*
X133594623Y-99867929D01*
X133599475Y-99835219D01*
X133607509Y-99803143D01*
X133618649Y-99772009D01*
X133632787Y-99742116D01*
X133649787Y-99713753D01*
X133669485Y-99687193D01*
X133691692Y-99662692D01*
X133716193Y-99640485D01*
X133742753Y-99620787D01*
X133771116Y-99603787D01*
X133801009Y-99589649D01*
X133832143Y-99578509D01*
X133864219Y-99570475D01*
X133896929Y-99565623D01*
X133929956Y-99564000D01*
X135056044Y-99564000D01*
X135089071Y-99565623D01*
X135089071Y-99565623D01*
G37*
D12*
X134493000Y-100339000D03*
G04 #@! TD*
D23*
G04 #@! TO.C,+5V*
X126492001Y-99314000D03*
G04 #@! TD*
D28*
G04 #@! TO.C,ESP8266*
X62032000Y-76355000D03*
X64032000Y-76355000D03*
X66032000Y-76355000D03*
X68032000Y-76355000D03*
X70032000Y-76355000D03*
X72032000Y-76355000D03*
X74032000Y-76355000D03*
X76032000Y-76355000D03*
X76032000Y-92555000D03*
X74032000Y-92555000D03*
X72032000Y-92555000D03*
X70032000Y-92555000D03*
X68032000Y-92555000D03*
X66032000Y-92555000D03*
X64032000Y-92555000D03*
X62032000Y-92555000D03*
G04 #@! TD*
D29*
G04 #@! TO.C,J1*
X88863000Y-72635000D03*
X81063000Y-72635000D03*
D30*
X86963000Y-74785000D03*
X82963000Y-74785000D03*
D29*
X88863000Y-76105000D03*
X81063000Y-76105000D03*
G04 #@! TD*
D19*
G04 #@! TO.C,U1*
X93472000Y-98077000D03*
X92202000Y-98077000D03*
X90932000Y-98077000D03*
X89662000Y-98077000D03*
X89662000Y-92677000D03*
X90932000Y-92677000D03*
X92202000Y-92677000D03*
X93472000Y-92677000D03*
G04 #@! TD*
D29*
G04 #@! TO.C,J1*
X137631000Y-100298000D03*
X129831000Y-100298000D03*
D30*
X135731000Y-101618000D03*
X131731000Y-101618000D03*
D29*
X137631000Y-103768000D03*
X129831000Y-103768000D03*
G04 #@! TD*
D31*
G04 #@! TO.C,IR1*
X83439000Y-104775000D03*
X80899000Y-102235000D03*
X78359000Y-104775000D03*
D11*
G36*
X78887146Y-101307316D02*
X78933838Y-101314242D01*
X78979627Y-101325712D01*
X79024071Y-101341614D01*
X79066742Y-101361796D01*
X79107229Y-101386063D01*
X79145143Y-101414182D01*
X79180118Y-101445882D01*
X79211818Y-101480857D01*
X79239937Y-101518771D01*
X79264204Y-101559258D01*
X79284386Y-101601929D01*
X79300288Y-101646373D01*
X79311758Y-101692162D01*
X79318684Y-101738854D01*
X79321000Y-101786000D01*
X79321000Y-105224000D01*
X79318684Y-105271146D01*
X79311758Y-105317838D01*
X79300288Y-105363627D01*
X79284386Y-105408071D01*
X79264204Y-105450742D01*
X79239937Y-105491229D01*
X79211818Y-105529143D01*
X79180118Y-105564118D01*
X79145143Y-105595818D01*
X79107229Y-105623937D01*
X79066742Y-105648204D01*
X79024071Y-105668386D01*
X78979627Y-105684288D01*
X78933838Y-105695758D01*
X78887146Y-105702684D01*
X78840000Y-105705000D01*
X77878000Y-105705000D01*
X77830854Y-105702684D01*
X77784162Y-105695758D01*
X77738373Y-105684288D01*
X77693929Y-105668386D01*
X77651258Y-105648204D01*
X77610771Y-105623937D01*
X77572857Y-105595818D01*
X77537882Y-105564118D01*
X77506182Y-105529143D01*
X77478063Y-105491229D01*
X77453796Y-105450742D01*
X77433614Y-105408071D01*
X77417712Y-105363627D01*
X77406242Y-105317838D01*
X77399316Y-105271146D01*
X77397000Y-105224000D01*
X77397000Y-101786000D01*
X77399316Y-101738854D01*
X77406242Y-101692162D01*
X77417712Y-101646373D01*
X77433614Y-101601929D01*
X77453796Y-101559258D01*
X77478063Y-101518771D01*
X77506182Y-101480857D01*
X77537882Y-101445882D01*
X77572857Y-101414182D01*
X77610771Y-101386063D01*
X77651258Y-101361796D01*
X77693929Y-101341614D01*
X77738373Y-101325712D01*
X77784162Y-101314242D01*
X77830854Y-101307316D01*
X77878000Y-101305000D01*
X78840000Y-101305000D01*
X78887146Y-101307316D01*
X78887146Y-101307316D01*
G37*
D31*
X78359000Y-103505000D03*
D11*
G36*
X83967146Y-101307316D02*
X84013838Y-101314242D01*
X84059627Y-101325712D01*
X84104071Y-101341614D01*
X84146742Y-101361796D01*
X84187229Y-101386063D01*
X84225143Y-101414182D01*
X84260118Y-101445882D01*
X84291818Y-101480857D01*
X84319937Y-101518771D01*
X84344204Y-101559258D01*
X84364386Y-101601929D01*
X84380288Y-101646373D01*
X84391758Y-101692162D01*
X84398684Y-101738854D01*
X84401000Y-101786000D01*
X84401000Y-105224000D01*
X84398684Y-105271146D01*
X84391758Y-105317838D01*
X84380288Y-105363627D01*
X84364386Y-105408071D01*
X84344204Y-105450742D01*
X84319937Y-105491229D01*
X84291818Y-105529143D01*
X84260118Y-105564118D01*
X84225143Y-105595818D01*
X84187229Y-105623937D01*
X84146742Y-105648204D01*
X84104071Y-105668386D01*
X84059627Y-105684288D01*
X84013838Y-105695758D01*
X83967146Y-105702684D01*
X83920000Y-105705000D01*
X82958000Y-105705000D01*
X82910854Y-105702684D01*
X82864162Y-105695758D01*
X82818373Y-105684288D01*
X82773929Y-105668386D01*
X82731258Y-105648204D01*
X82690771Y-105623937D01*
X82652857Y-105595818D01*
X82617882Y-105564118D01*
X82586182Y-105529143D01*
X82558063Y-105491229D01*
X82533796Y-105450742D01*
X82513614Y-105408071D01*
X82497712Y-105363627D01*
X82486242Y-105317838D01*
X82479316Y-105271146D01*
X82477000Y-105224000D01*
X82477000Y-101786000D01*
X82479316Y-101738854D01*
X82486242Y-101692162D01*
X82497712Y-101646373D01*
X82513614Y-101601929D01*
X82533796Y-101559258D01*
X82558063Y-101518771D01*
X82586182Y-101480857D01*
X82617882Y-101445882D01*
X82652857Y-101414182D01*
X82690771Y-101386063D01*
X82731258Y-101361796D01*
X82773929Y-101341614D01*
X82818373Y-101325712D01*
X82864162Y-101314242D01*
X82910854Y-101307316D01*
X82958000Y-101305000D01*
X83920000Y-101305000D01*
X83967146Y-101307316D01*
X83967146Y-101307316D01*
G37*
D31*
X83439000Y-103505000D03*
G04 #@! TD*
D23*
G04 #@! TO.C,+3V3*
X104394000Y-80264000D03*
G04 #@! TD*
D17*
G04 #@! TO.C,MH1*
X112903000Y-102743000D03*
G04 #@! TD*
D18*
G04 #@! TO.C,U3*
X119294001Y-80670000D03*
X119944001Y-80670000D03*
X120594001Y-80670000D03*
X121244001Y-80670000D03*
X121244001Y-74270000D03*
X120594001Y-74270000D03*
X119944001Y-74270000D03*
X119294001Y-74270000D03*
G04 #@! TD*
D16*
G04 #@! TO.C,J3*
X111633000Y-82550000D03*
X111633000Y-80010000D03*
X111633000Y-77470000D03*
X111633000Y-74930000D03*
D15*
X111633000Y-72390000D03*
G04 #@! TD*
D16*
G04 #@! TO.C,J2*
X115570000Y-82550000D03*
X115570000Y-80010000D03*
X115570000Y-77470000D03*
X115570000Y-74930000D03*
D15*
X115570000Y-72390000D03*
G04 #@! TD*
D16*
G04 #@! TO.C,J4*
X150241000Y-80518000D03*
X147701000Y-80518000D03*
D15*
X145161000Y-80518000D03*
G04 #@! TD*
D16*
G04 #@! TO.C,C4*
X127000000Y-93091000D03*
D15*
X127000000Y-95631000D03*
G04 #@! TD*
D11*
G04 #@! TO.C,IR1*
G36*
X135783146Y-70700316D02*
X135829838Y-70707242D01*
X135875627Y-70718712D01*
X135920071Y-70734614D01*
X135962742Y-70754796D01*
X136003229Y-70779063D01*
X136041143Y-70807182D01*
X136076118Y-70838882D01*
X136107818Y-70873857D01*
X136135937Y-70911771D01*
X136160204Y-70952258D01*
X136180386Y-70994929D01*
X136196288Y-71039373D01*
X136207758Y-71085162D01*
X136214684Y-71131854D01*
X136217000Y-71179000D01*
X136217000Y-74617000D01*
X136214684Y-74664146D01*
X136207758Y-74710838D01*
X136196288Y-74756627D01*
X136180386Y-74801071D01*
X136160204Y-74843742D01*
X136135937Y-74884229D01*
X136107818Y-74922143D01*
X136076118Y-74957118D01*
X136041143Y-74988818D01*
X136003229Y-75016937D01*
X135962742Y-75041204D01*
X135920071Y-75061386D01*
X135875627Y-75077288D01*
X135829838Y-75088758D01*
X135783146Y-75095684D01*
X135736000Y-75098000D01*
X134774000Y-75098000D01*
X134726854Y-75095684D01*
X134680162Y-75088758D01*
X134634373Y-75077288D01*
X134589929Y-75061386D01*
X134547258Y-75041204D01*
X134506771Y-75016937D01*
X134468857Y-74988818D01*
X134433882Y-74957118D01*
X134402182Y-74922143D01*
X134374063Y-74884229D01*
X134349796Y-74843742D01*
X134329614Y-74801071D01*
X134313712Y-74756627D01*
X134302242Y-74710838D01*
X134295316Y-74664146D01*
X134293000Y-74617000D01*
X134293000Y-71179000D01*
X134295316Y-71131854D01*
X134302242Y-71085162D01*
X134313712Y-71039373D01*
X134329614Y-70994929D01*
X134349796Y-70952258D01*
X134374063Y-70911771D01*
X134402182Y-70873857D01*
X134433882Y-70838882D01*
X134468857Y-70807182D01*
X134506771Y-70779063D01*
X134547258Y-70754796D01*
X134589929Y-70734614D01*
X134634373Y-70718712D01*
X134680162Y-70707242D01*
X134726854Y-70700316D01*
X134774000Y-70698000D01*
X135736000Y-70698000D01*
X135783146Y-70700316D01*
X135783146Y-70700316D01*
G37*
D31*
X135255000Y-72898000D03*
D11*
G36*
X140863146Y-70700316D02*
X140909838Y-70707242D01*
X140955627Y-70718712D01*
X141000071Y-70734614D01*
X141042742Y-70754796D01*
X141083229Y-70779063D01*
X141121143Y-70807182D01*
X141156118Y-70838882D01*
X141187818Y-70873857D01*
X141215937Y-70911771D01*
X141240204Y-70952258D01*
X141260386Y-70994929D01*
X141276288Y-71039373D01*
X141287758Y-71085162D01*
X141294684Y-71131854D01*
X141297000Y-71179000D01*
X141297000Y-74617000D01*
X141294684Y-74664146D01*
X141287758Y-74710838D01*
X141276288Y-74756627D01*
X141260386Y-74801071D01*
X141240204Y-74843742D01*
X141215937Y-74884229D01*
X141187818Y-74922143D01*
X141156118Y-74957118D01*
X141121143Y-74988818D01*
X141083229Y-75016937D01*
X141042742Y-75041204D01*
X141000071Y-75061386D01*
X140955627Y-75077288D01*
X140909838Y-75088758D01*
X140863146Y-75095684D01*
X140816000Y-75098000D01*
X139854000Y-75098000D01*
X139806854Y-75095684D01*
X139760162Y-75088758D01*
X139714373Y-75077288D01*
X139669929Y-75061386D01*
X139627258Y-75041204D01*
X139586771Y-75016937D01*
X139548857Y-74988818D01*
X139513882Y-74957118D01*
X139482182Y-74922143D01*
X139454063Y-74884229D01*
X139429796Y-74843742D01*
X139409614Y-74801071D01*
X139393712Y-74756627D01*
X139382242Y-74710838D01*
X139375316Y-74664146D01*
X139373000Y-74617000D01*
X139373000Y-71179000D01*
X139375316Y-71131854D01*
X139382242Y-71085162D01*
X139393712Y-71039373D01*
X139409614Y-70994929D01*
X139429796Y-70952258D01*
X139454063Y-70911771D01*
X139482182Y-70873857D01*
X139513882Y-70838882D01*
X139548857Y-70807182D01*
X139586771Y-70779063D01*
X139627258Y-70754796D01*
X139669929Y-70734614D01*
X139714373Y-70718712D01*
X139760162Y-70707242D01*
X139806854Y-70700316D01*
X139854000Y-70698000D01*
X140816000Y-70698000D01*
X140863146Y-70700316D01*
X140863146Y-70700316D01*
G37*
D31*
X140335000Y-72898000D03*
X140335000Y-71628000D03*
X137795000Y-74168000D03*
X135255000Y-71628000D03*
G04 #@! TD*
D27*
G04 #@! TO.C,prog*
X151824000Y-70925000D03*
D26*
X152205000Y-71306000D03*
D27*
X144331000Y-70925000D03*
D26*
X143950000Y-71306000D03*
D25*
X150241000Y-73611000D03*
X146041000Y-73611000D03*
D24*
X149291000Y-71844000D03*
X146991000Y-71844000D03*
G04 #@! TD*
D28*
G04 #@! TO.C,ESP8266*
X156662000Y-83848000D03*
X154662000Y-83848000D03*
X152662000Y-83848000D03*
X150662000Y-83848000D03*
X148662000Y-83848000D03*
X146662000Y-83848000D03*
X144662000Y-83848000D03*
X142662000Y-83848000D03*
X142662000Y-100048000D03*
X144662000Y-100048000D03*
X146662000Y-100048000D03*
X148662000Y-100048000D03*
X150662000Y-100048000D03*
X152662000Y-100048000D03*
X154662000Y-100048000D03*
X156662000Y-100048000D03*
G04 #@! TD*
D18*
G04 #@! TO.C,U3*
X119294001Y-37821000D03*
X119944001Y-37821000D03*
X120594001Y-37821000D03*
X121244001Y-37821000D03*
X121244001Y-44221000D03*
X120594001Y-44221000D03*
X119944001Y-44221000D03*
X119294001Y-44221000D03*
G04 #@! TD*
D15*
G04 #@! TO.C,J3*
X111633000Y-35941000D03*
D16*
X111633000Y-38481000D03*
X111633000Y-41021000D03*
X111633000Y-43561000D03*
X111633000Y-46101000D03*
G04 #@! TD*
D15*
G04 #@! TO.C,J2*
X115570000Y-35941000D03*
D16*
X115570000Y-38481000D03*
X115570000Y-41021000D03*
X115570000Y-43561000D03*
X115570000Y-46101000D03*
G04 #@! TD*
D15*
G04 #@! TO.C,J4*
X145161000Y-44069000D03*
D16*
X147701000Y-44069000D03*
X150241000Y-44069000D03*
G04 #@! TD*
D15*
G04 #@! TO.C,C4*
X127000000Y-59182000D03*
D16*
X127000000Y-56642000D03*
G04 #@! TD*
D15*
G04 #@! TO.C,MK1*
X127253999Y-36703000D03*
D16*
X129793999Y-36703000D03*
G04 #@! TD*
D11*
G04 #@! TO.C,C9*
G36*
X118915417Y-55930418D02*
X118943999Y-55934658D01*
X118972029Y-55941679D01*
X118999235Y-55951413D01*
X119025356Y-55963768D01*
X119050140Y-55978623D01*
X119073349Y-55995836D01*
X119094759Y-56015241D01*
X119114164Y-56036651D01*
X119131377Y-56059860D01*
X119146232Y-56084644D01*
X119158587Y-56110765D01*
X119168321Y-56137971D01*
X119175342Y-56166001D01*
X119179582Y-56194583D01*
X119181000Y-56223444D01*
X119181000Y-58584556D01*
X119179582Y-58613417D01*
X119175342Y-58641999D01*
X119168321Y-58670029D01*
X119158587Y-58697235D01*
X119146232Y-58723356D01*
X119131377Y-58748140D01*
X119114164Y-58771349D01*
X119094759Y-58792759D01*
X119073349Y-58812164D01*
X119050140Y-58829377D01*
X119025356Y-58844232D01*
X118999235Y-58856587D01*
X118972029Y-58866321D01*
X118943999Y-58873342D01*
X118915417Y-58877582D01*
X118886556Y-58879000D01*
X116825444Y-58879000D01*
X116796583Y-58877582D01*
X116768001Y-58873342D01*
X116739971Y-58866321D01*
X116712765Y-58856587D01*
X116686644Y-58844232D01*
X116661860Y-58829377D01*
X116638651Y-58812164D01*
X116617241Y-58792759D01*
X116597836Y-58771349D01*
X116580623Y-58748140D01*
X116565768Y-58723356D01*
X116553413Y-58697235D01*
X116543679Y-58670029D01*
X116536658Y-58641999D01*
X116532418Y-58613417D01*
X116531000Y-58584556D01*
X116531000Y-56223444D01*
X116532418Y-56194583D01*
X116536658Y-56166001D01*
X116543679Y-56137971D01*
X116553413Y-56110765D01*
X116565768Y-56084644D01*
X116580623Y-56059860D01*
X116597836Y-56036651D01*
X116617241Y-56015241D01*
X116638651Y-55995836D01*
X116661860Y-55978623D01*
X116686644Y-55963768D01*
X116712765Y-55951413D01*
X116739971Y-55941679D01*
X116768001Y-55934658D01*
X116796583Y-55930418D01*
X116825444Y-55929000D01*
X118886556Y-55929000D01*
X118915417Y-55930418D01*
X118915417Y-55930418D01*
G37*
D22*
X117856000Y-57404000D03*
D11*
G36*
X125315417Y-55930418D02*
X125343999Y-55934658D01*
X125372029Y-55941679D01*
X125399235Y-55951413D01*
X125425356Y-55963768D01*
X125450140Y-55978623D01*
X125473349Y-55995836D01*
X125494759Y-56015241D01*
X125514164Y-56036651D01*
X125531377Y-56059860D01*
X125546232Y-56084644D01*
X125558587Y-56110765D01*
X125568321Y-56137971D01*
X125575342Y-56166001D01*
X125579582Y-56194583D01*
X125581000Y-56223444D01*
X125581000Y-58584556D01*
X125579582Y-58613417D01*
X125575342Y-58641999D01*
X125568321Y-58670029D01*
X125558587Y-58697235D01*
X125546232Y-58723356D01*
X125531377Y-58748140D01*
X125514164Y-58771349D01*
X125494759Y-58792759D01*
X125473349Y-58812164D01*
X125450140Y-58829377D01*
X125425356Y-58844232D01*
X125399235Y-58856587D01*
X125372029Y-58866321D01*
X125343999Y-58873342D01*
X125315417Y-58877582D01*
X125286556Y-58879000D01*
X123225444Y-58879000D01*
X123196583Y-58877582D01*
X123168001Y-58873342D01*
X123139971Y-58866321D01*
X123112765Y-58856587D01*
X123086644Y-58844232D01*
X123061860Y-58829377D01*
X123038651Y-58812164D01*
X123017241Y-58792759D01*
X122997836Y-58771349D01*
X122980623Y-58748140D01*
X122965768Y-58723356D01*
X122953413Y-58697235D01*
X122943679Y-58670029D01*
X122936658Y-58641999D01*
X122932418Y-58613417D01*
X122931000Y-58584556D01*
X122931000Y-56223444D01*
X122932418Y-56194583D01*
X122936658Y-56166001D01*
X122943679Y-56137971D01*
X122953413Y-56110765D01*
X122965768Y-56084644D01*
X122980623Y-56059860D01*
X122997836Y-56036651D01*
X123017241Y-56015241D01*
X123038651Y-55995836D01*
X123061860Y-55978623D01*
X123086644Y-55963768D01*
X123112765Y-55951413D01*
X123139971Y-55941679D01*
X123168001Y-55934658D01*
X123196583Y-55930418D01*
X123225444Y-55929000D01*
X125286556Y-55929000D01*
X125315417Y-55930418D01*
X125315417Y-55930418D01*
G37*
D22*
X124256000Y-57404000D03*
G04 #@! TD*
D23*
G04 #@! TO.C,GND*
X157353000Y-68072000D03*
G04 #@! TD*
G04 #@! TO.C,GND*
X111252000Y-50927000D03*
G04 #@! TD*
G04 #@! TO.C,mic_amp*
X123444000Y-36448999D03*
G04 #@! TD*
D11*
G04 #@! TO.C,R1*
G36*
X133438071Y-63116623D02*
X133470781Y-63121475D01*
X133502857Y-63129509D01*
X133533991Y-63140649D01*
X133563884Y-63154787D01*
X133592247Y-63171787D01*
X133618807Y-63191485D01*
X133643308Y-63213692D01*
X133665515Y-63238193D01*
X133685213Y-63264753D01*
X133702213Y-63293116D01*
X133716351Y-63323009D01*
X133727491Y-63354143D01*
X133735525Y-63386219D01*
X133740377Y-63418929D01*
X133742000Y-63451956D01*
X133742000Y-64328044D01*
X133740377Y-64361071D01*
X133735525Y-64393781D01*
X133727491Y-64425857D01*
X133716351Y-64456991D01*
X133702213Y-64486884D01*
X133685213Y-64515247D01*
X133665515Y-64541807D01*
X133643308Y-64566308D01*
X133618807Y-64588515D01*
X133592247Y-64608213D01*
X133563884Y-64625213D01*
X133533991Y-64639351D01*
X133502857Y-64650491D01*
X133470781Y-64658525D01*
X133438071Y-64663377D01*
X133405044Y-64665000D01*
X132278956Y-64665000D01*
X132245929Y-64663377D01*
X132213219Y-64658525D01*
X132181143Y-64650491D01*
X132150009Y-64639351D01*
X132120116Y-64625213D01*
X132091753Y-64608213D01*
X132065193Y-64588515D01*
X132040692Y-64566308D01*
X132018485Y-64541807D01*
X131998787Y-64515247D01*
X131981787Y-64486884D01*
X131967649Y-64456991D01*
X131956509Y-64425857D01*
X131948475Y-64393781D01*
X131943623Y-64361071D01*
X131942000Y-64328044D01*
X131942000Y-63451956D01*
X131943623Y-63418929D01*
X131948475Y-63386219D01*
X131956509Y-63354143D01*
X131967649Y-63323009D01*
X131981787Y-63293116D01*
X131998787Y-63264753D01*
X132018485Y-63238193D01*
X132040692Y-63213692D01*
X132065193Y-63191485D01*
X132091753Y-63171787D01*
X132120116Y-63154787D01*
X132150009Y-63140649D01*
X132181143Y-63129509D01*
X132213219Y-63121475D01*
X132245929Y-63116623D01*
X132278956Y-63115000D01*
X133405044Y-63115000D01*
X133438071Y-63116623D01*
X133438071Y-63116623D01*
G37*
D12*
X132842000Y-63890000D03*
D11*
G36*
X133438071Y-61066623D02*
X133470781Y-61071475D01*
X133502857Y-61079509D01*
X133533991Y-61090649D01*
X133563884Y-61104787D01*
X133592247Y-61121787D01*
X133618807Y-61141485D01*
X133643308Y-61163692D01*
X133665515Y-61188193D01*
X133685213Y-61214753D01*
X133702213Y-61243116D01*
X133716351Y-61273009D01*
X133727491Y-61304143D01*
X133735525Y-61336219D01*
X133740377Y-61368929D01*
X133742000Y-61401956D01*
X133742000Y-62278044D01*
X133740377Y-62311071D01*
X133735525Y-62343781D01*
X133727491Y-62375857D01*
X133716351Y-62406991D01*
X133702213Y-62436884D01*
X133685213Y-62465247D01*
X133665515Y-62491807D01*
X133643308Y-62516308D01*
X133618807Y-62538515D01*
X133592247Y-62558213D01*
X133563884Y-62575213D01*
X133533991Y-62589351D01*
X133502857Y-62600491D01*
X133470781Y-62608525D01*
X133438071Y-62613377D01*
X133405044Y-62615000D01*
X132278956Y-62615000D01*
X132245929Y-62613377D01*
X132213219Y-62608525D01*
X132181143Y-62600491D01*
X132150009Y-62589351D01*
X132120116Y-62575213D01*
X132091753Y-62558213D01*
X132065193Y-62538515D01*
X132040692Y-62516308D01*
X132018485Y-62491807D01*
X131998787Y-62465247D01*
X131981787Y-62436884D01*
X131967649Y-62406991D01*
X131956509Y-62375857D01*
X131948475Y-62343781D01*
X131943623Y-62311071D01*
X131942000Y-62278044D01*
X131942000Y-61401956D01*
X131943623Y-61368929D01*
X131948475Y-61336219D01*
X131956509Y-61304143D01*
X131967649Y-61273009D01*
X131981787Y-61243116D01*
X131998787Y-61214753D01*
X132018485Y-61188193D01*
X132040692Y-61163692D01*
X132065193Y-61141485D01*
X132091753Y-61121787D01*
X132120116Y-61104787D01*
X132150009Y-61090649D01*
X132181143Y-61079509D01*
X132213219Y-61071475D01*
X132245929Y-61066623D01*
X132278956Y-61065000D01*
X133405044Y-61065000D01*
X133438071Y-61066623D01*
X133438071Y-61066623D01*
G37*
D12*
X132842000Y-61840000D03*
G04 #@! TD*
D11*
G04 #@! TO.C,R11*
G36*
X139924071Y-39349623D02*
X139956781Y-39354475D01*
X139988857Y-39362509D01*
X140019991Y-39373649D01*
X140049884Y-39387787D01*
X140078247Y-39404787D01*
X140104807Y-39424485D01*
X140129308Y-39446692D01*
X140151515Y-39471193D01*
X140171213Y-39497753D01*
X140188213Y-39526116D01*
X140202351Y-39556009D01*
X140213491Y-39587143D01*
X140221525Y-39619219D01*
X140226377Y-39651929D01*
X140228000Y-39684956D01*
X140228000Y-40561044D01*
X140226377Y-40594071D01*
X140221525Y-40626781D01*
X140213491Y-40658857D01*
X140202351Y-40689991D01*
X140188213Y-40719884D01*
X140171213Y-40748247D01*
X140151515Y-40774807D01*
X140129308Y-40799308D01*
X140104807Y-40821515D01*
X140078247Y-40841213D01*
X140049884Y-40858213D01*
X140019991Y-40872351D01*
X139988857Y-40883491D01*
X139956781Y-40891525D01*
X139924071Y-40896377D01*
X139891044Y-40898000D01*
X138764956Y-40898000D01*
X138731929Y-40896377D01*
X138699219Y-40891525D01*
X138667143Y-40883491D01*
X138636009Y-40872351D01*
X138606116Y-40858213D01*
X138577753Y-40841213D01*
X138551193Y-40821515D01*
X138526692Y-40799308D01*
X138504485Y-40774807D01*
X138484787Y-40748247D01*
X138467787Y-40719884D01*
X138453649Y-40689991D01*
X138442509Y-40658857D01*
X138434475Y-40626781D01*
X138429623Y-40594071D01*
X138428000Y-40561044D01*
X138428000Y-39684956D01*
X138429623Y-39651929D01*
X138434475Y-39619219D01*
X138442509Y-39587143D01*
X138453649Y-39556009D01*
X138467787Y-39526116D01*
X138484787Y-39497753D01*
X138504485Y-39471193D01*
X138526692Y-39446692D01*
X138551193Y-39424485D01*
X138577753Y-39404787D01*
X138606116Y-39387787D01*
X138636009Y-39373649D01*
X138667143Y-39362509D01*
X138699219Y-39354475D01*
X138731929Y-39349623D01*
X138764956Y-39348000D01*
X139891044Y-39348000D01*
X139924071Y-39349623D01*
X139924071Y-39349623D01*
G37*
D12*
X139328000Y-40123000D03*
D11*
G36*
X139924071Y-41399623D02*
X139956781Y-41404475D01*
X139988857Y-41412509D01*
X140019991Y-41423649D01*
X140049884Y-41437787D01*
X140078247Y-41454787D01*
X140104807Y-41474485D01*
X140129308Y-41496692D01*
X140151515Y-41521193D01*
X140171213Y-41547753D01*
X140188213Y-41576116D01*
X140202351Y-41606009D01*
X140213491Y-41637143D01*
X140221525Y-41669219D01*
X140226377Y-41701929D01*
X140228000Y-41734956D01*
X140228000Y-42611044D01*
X140226377Y-42644071D01*
X140221525Y-42676781D01*
X140213491Y-42708857D01*
X140202351Y-42739991D01*
X140188213Y-42769884D01*
X140171213Y-42798247D01*
X140151515Y-42824807D01*
X140129308Y-42849308D01*
X140104807Y-42871515D01*
X140078247Y-42891213D01*
X140049884Y-42908213D01*
X140019991Y-42922351D01*
X139988857Y-42933491D01*
X139956781Y-42941525D01*
X139924071Y-42946377D01*
X139891044Y-42948000D01*
X138764956Y-42948000D01*
X138731929Y-42946377D01*
X138699219Y-42941525D01*
X138667143Y-42933491D01*
X138636009Y-42922351D01*
X138606116Y-42908213D01*
X138577753Y-42891213D01*
X138551193Y-42871515D01*
X138526692Y-42849308D01*
X138504485Y-42824807D01*
X138484787Y-42798247D01*
X138467787Y-42769884D01*
X138453649Y-42739991D01*
X138442509Y-42708857D01*
X138434475Y-42676781D01*
X138429623Y-42644071D01*
X138428000Y-42611044D01*
X138428000Y-41734956D01*
X138429623Y-41701929D01*
X138434475Y-41669219D01*
X138442509Y-41637143D01*
X138453649Y-41606009D01*
X138467787Y-41576116D01*
X138484787Y-41547753D01*
X138504485Y-41521193D01*
X138526692Y-41496692D01*
X138551193Y-41474485D01*
X138577753Y-41454787D01*
X138606116Y-41437787D01*
X138636009Y-41423649D01*
X138667143Y-41412509D01*
X138699219Y-41404475D01*
X138731929Y-41399623D01*
X138764956Y-41398000D01*
X139891044Y-41398000D01*
X139924071Y-41399623D01*
X139924071Y-41399623D01*
G37*
D12*
X139328000Y-42173000D03*
G04 #@! TD*
D11*
G04 #@! TO.C,R13*
G36*
X135844071Y-39233623D02*
X135876781Y-39238475D01*
X135908857Y-39246509D01*
X135939991Y-39257649D01*
X135969884Y-39271787D01*
X135998247Y-39288787D01*
X136024807Y-39308485D01*
X136049308Y-39330692D01*
X136071515Y-39355193D01*
X136091213Y-39381753D01*
X136108213Y-39410116D01*
X136122351Y-39440009D01*
X136133491Y-39471143D01*
X136141525Y-39503219D01*
X136146377Y-39535929D01*
X136148000Y-39568956D01*
X136148000Y-40695044D01*
X136146377Y-40728071D01*
X136141525Y-40760781D01*
X136133491Y-40792857D01*
X136122351Y-40823991D01*
X136108213Y-40853884D01*
X136091213Y-40882247D01*
X136071515Y-40908807D01*
X136049308Y-40933308D01*
X136024807Y-40955515D01*
X135998247Y-40975213D01*
X135969884Y-40992213D01*
X135939991Y-41006351D01*
X135908857Y-41017491D01*
X135876781Y-41025525D01*
X135844071Y-41030377D01*
X135811044Y-41032000D01*
X134934956Y-41032000D01*
X134901929Y-41030377D01*
X134869219Y-41025525D01*
X134837143Y-41017491D01*
X134806009Y-41006351D01*
X134776116Y-40992213D01*
X134747753Y-40975213D01*
X134721193Y-40955515D01*
X134696692Y-40933308D01*
X134674485Y-40908807D01*
X134654787Y-40882247D01*
X134637787Y-40853884D01*
X134623649Y-40823991D01*
X134612509Y-40792857D01*
X134604475Y-40760781D01*
X134599623Y-40728071D01*
X134598000Y-40695044D01*
X134598000Y-39568956D01*
X134599623Y-39535929D01*
X134604475Y-39503219D01*
X134612509Y-39471143D01*
X134623649Y-39440009D01*
X134637787Y-39410116D01*
X134654787Y-39381753D01*
X134674485Y-39355193D01*
X134696692Y-39330692D01*
X134721193Y-39308485D01*
X134747753Y-39288787D01*
X134776116Y-39271787D01*
X134806009Y-39257649D01*
X134837143Y-39246509D01*
X134869219Y-39238475D01*
X134901929Y-39233623D01*
X134934956Y-39232000D01*
X135811044Y-39232000D01*
X135844071Y-39233623D01*
X135844071Y-39233623D01*
G37*
D12*
X135373000Y-40132000D03*
D11*
G36*
X137894071Y-39233623D02*
X137926781Y-39238475D01*
X137958857Y-39246509D01*
X137989991Y-39257649D01*
X138019884Y-39271787D01*
X138048247Y-39288787D01*
X138074807Y-39308485D01*
X138099308Y-39330692D01*
X138121515Y-39355193D01*
X138141213Y-39381753D01*
X138158213Y-39410116D01*
X138172351Y-39440009D01*
X138183491Y-39471143D01*
X138191525Y-39503219D01*
X138196377Y-39535929D01*
X138198000Y-39568956D01*
X138198000Y-40695044D01*
X138196377Y-40728071D01*
X138191525Y-40760781D01*
X138183491Y-40792857D01*
X138172351Y-40823991D01*
X138158213Y-40853884D01*
X138141213Y-40882247D01*
X138121515Y-40908807D01*
X138099308Y-40933308D01*
X138074807Y-40955515D01*
X138048247Y-40975213D01*
X138019884Y-40992213D01*
X137989991Y-41006351D01*
X137958857Y-41017491D01*
X137926781Y-41025525D01*
X137894071Y-41030377D01*
X137861044Y-41032000D01*
X136984956Y-41032000D01*
X136951929Y-41030377D01*
X136919219Y-41025525D01*
X136887143Y-41017491D01*
X136856009Y-41006351D01*
X136826116Y-40992213D01*
X136797753Y-40975213D01*
X136771193Y-40955515D01*
X136746692Y-40933308D01*
X136724485Y-40908807D01*
X136704787Y-40882247D01*
X136687787Y-40853884D01*
X136673649Y-40823991D01*
X136662509Y-40792857D01*
X136654475Y-40760781D01*
X136649623Y-40728071D01*
X136648000Y-40695044D01*
X136648000Y-39568956D01*
X136649623Y-39535929D01*
X136654475Y-39503219D01*
X136662509Y-39471143D01*
X136673649Y-39440009D01*
X136687787Y-39410116D01*
X136704787Y-39381753D01*
X136724485Y-39355193D01*
X136746692Y-39330692D01*
X136771193Y-39308485D01*
X136797753Y-39288787D01*
X136826116Y-39271787D01*
X136856009Y-39257649D01*
X136887143Y-39246509D01*
X136919219Y-39238475D01*
X136951929Y-39233623D01*
X136984956Y-39232000D01*
X137861044Y-39232000D01*
X137894071Y-39233623D01*
X137894071Y-39233623D01*
G37*
D12*
X137423000Y-40132000D03*
G04 #@! TD*
D11*
G04 #@! TO.C,R12*
G36*
X149696071Y-38598623D02*
X149728781Y-38603475D01*
X149760857Y-38611509D01*
X149791991Y-38622649D01*
X149821884Y-38636787D01*
X149850247Y-38653787D01*
X149876807Y-38673485D01*
X149901308Y-38695692D01*
X149923515Y-38720193D01*
X149943213Y-38746753D01*
X149960213Y-38775116D01*
X149974351Y-38805009D01*
X149985491Y-38836143D01*
X149993525Y-38868219D01*
X149998377Y-38900929D01*
X150000000Y-38933956D01*
X150000000Y-40060044D01*
X149998377Y-40093071D01*
X149993525Y-40125781D01*
X149985491Y-40157857D01*
X149974351Y-40188991D01*
X149960213Y-40218884D01*
X149943213Y-40247247D01*
X149923515Y-40273807D01*
X149901308Y-40298308D01*
X149876807Y-40320515D01*
X149850247Y-40340213D01*
X149821884Y-40357213D01*
X149791991Y-40371351D01*
X149760857Y-40382491D01*
X149728781Y-40390525D01*
X149696071Y-40395377D01*
X149663044Y-40397000D01*
X148786956Y-40397000D01*
X148753929Y-40395377D01*
X148721219Y-40390525D01*
X148689143Y-40382491D01*
X148658009Y-40371351D01*
X148628116Y-40357213D01*
X148599753Y-40340213D01*
X148573193Y-40320515D01*
X148548692Y-40298308D01*
X148526485Y-40273807D01*
X148506787Y-40247247D01*
X148489787Y-40218884D01*
X148475649Y-40188991D01*
X148464509Y-40157857D01*
X148456475Y-40125781D01*
X148451623Y-40093071D01*
X148450000Y-40060044D01*
X148450000Y-38933956D01*
X148451623Y-38900929D01*
X148456475Y-38868219D01*
X148464509Y-38836143D01*
X148475649Y-38805009D01*
X148489787Y-38775116D01*
X148506787Y-38746753D01*
X148526485Y-38720193D01*
X148548692Y-38695692D01*
X148573193Y-38673485D01*
X148599753Y-38653787D01*
X148628116Y-38636787D01*
X148658009Y-38622649D01*
X148689143Y-38611509D01*
X148721219Y-38603475D01*
X148753929Y-38598623D01*
X148786956Y-38597000D01*
X149663044Y-38597000D01*
X149696071Y-38598623D01*
X149696071Y-38598623D01*
G37*
D12*
X149225000Y-39497000D03*
D11*
G36*
X151746071Y-38598623D02*
X151778781Y-38603475D01*
X151810857Y-38611509D01*
X151841991Y-38622649D01*
X151871884Y-38636787D01*
X151900247Y-38653787D01*
X151926807Y-38673485D01*
X151951308Y-38695692D01*
X151973515Y-38720193D01*
X151993213Y-38746753D01*
X152010213Y-38775116D01*
X152024351Y-38805009D01*
X152035491Y-38836143D01*
X152043525Y-38868219D01*
X152048377Y-38900929D01*
X152050000Y-38933956D01*
X152050000Y-40060044D01*
X152048377Y-40093071D01*
X152043525Y-40125781D01*
X152035491Y-40157857D01*
X152024351Y-40188991D01*
X152010213Y-40218884D01*
X151993213Y-40247247D01*
X151973515Y-40273807D01*
X151951308Y-40298308D01*
X151926807Y-40320515D01*
X151900247Y-40340213D01*
X151871884Y-40357213D01*
X151841991Y-40371351D01*
X151810857Y-40382491D01*
X151778781Y-40390525D01*
X151746071Y-40395377D01*
X151713044Y-40397000D01*
X150836956Y-40397000D01*
X150803929Y-40395377D01*
X150771219Y-40390525D01*
X150739143Y-40382491D01*
X150708009Y-40371351D01*
X150678116Y-40357213D01*
X150649753Y-40340213D01*
X150623193Y-40320515D01*
X150598692Y-40298308D01*
X150576485Y-40273807D01*
X150556787Y-40247247D01*
X150539787Y-40218884D01*
X150525649Y-40188991D01*
X150514509Y-40157857D01*
X150506475Y-40125781D01*
X150501623Y-40093071D01*
X150500000Y-40060044D01*
X150500000Y-38933956D01*
X150501623Y-38900929D01*
X150506475Y-38868219D01*
X150514509Y-38836143D01*
X150525649Y-38805009D01*
X150539787Y-38775116D01*
X150556787Y-38746753D01*
X150576485Y-38720193D01*
X150598692Y-38695692D01*
X150623193Y-38673485D01*
X150649753Y-38653787D01*
X150678116Y-38636787D01*
X150708009Y-38622649D01*
X150739143Y-38611509D01*
X150771219Y-38603475D01*
X150803929Y-38598623D01*
X150836956Y-38597000D01*
X151713044Y-38597000D01*
X151746071Y-38598623D01*
X151746071Y-38598623D01*
G37*
D12*
X151275000Y-39497000D03*
G04 #@! TD*
D11*
G04 #@! TO.C,D1*
G36*
X131533071Y-53310623D02*
X131565781Y-53315475D01*
X131597857Y-53323509D01*
X131628991Y-53334649D01*
X131658884Y-53348787D01*
X131687247Y-53365787D01*
X131713807Y-53385485D01*
X131738308Y-53407692D01*
X131760515Y-53432193D01*
X131780213Y-53458753D01*
X131797213Y-53487116D01*
X131811351Y-53517009D01*
X131822491Y-53548143D01*
X131830525Y-53580219D01*
X131835377Y-53612929D01*
X131837000Y-53645956D01*
X131837000Y-54522044D01*
X131835377Y-54555071D01*
X131830525Y-54587781D01*
X131822491Y-54619857D01*
X131811351Y-54650991D01*
X131797213Y-54680884D01*
X131780213Y-54709247D01*
X131760515Y-54735807D01*
X131738308Y-54760308D01*
X131713807Y-54782515D01*
X131687247Y-54802213D01*
X131658884Y-54819213D01*
X131628991Y-54833351D01*
X131597857Y-54844491D01*
X131565781Y-54852525D01*
X131533071Y-54857377D01*
X131500044Y-54859000D01*
X130373956Y-54859000D01*
X130340929Y-54857377D01*
X130308219Y-54852525D01*
X130276143Y-54844491D01*
X130245009Y-54833351D01*
X130215116Y-54819213D01*
X130186753Y-54802213D01*
X130160193Y-54782515D01*
X130135692Y-54760308D01*
X130113485Y-54735807D01*
X130093787Y-54709247D01*
X130076787Y-54680884D01*
X130062649Y-54650991D01*
X130051509Y-54619857D01*
X130043475Y-54587781D01*
X130038623Y-54555071D01*
X130037000Y-54522044D01*
X130037000Y-53645956D01*
X130038623Y-53612929D01*
X130043475Y-53580219D01*
X130051509Y-53548143D01*
X130062649Y-53517009D01*
X130076787Y-53487116D01*
X130093787Y-53458753D01*
X130113485Y-53432193D01*
X130135692Y-53407692D01*
X130160193Y-53385485D01*
X130186753Y-53365787D01*
X130215116Y-53348787D01*
X130245009Y-53334649D01*
X130276143Y-53323509D01*
X130308219Y-53315475D01*
X130340929Y-53310623D01*
X130373956Y-53309000D01*
X131500044Y-53309000D01*
X131533071Y-53310623D01*
X131533071Y-53310623D01*
G37*
D12*
X130937000Y-54084000D03*
D11*
G36*
X131533071Y-55360623D02*
X131565781Y-55365475D01*
X131597857Y-55373509D01*
X131628991Y-55384649D01*
X131658884Y-55398787D01*
X131687247Y-55415787D01*
X131713807Y-55435485D01*
X131738308Y-55457692D01*
X131760515Y-55482193D01*
X131780213Y-55508753D01*
X131797213Y-55537116D01*
X131811351Y-55567009D01*
X131822491Y-55598143D01*
X131830525Y-55630219D01*
X131835377Y-55662929D01*
X131837000Y-55695956D01*
X131837000Y-56572044D01*
X131835377Y-56605071D01*
X131830525Y-56637781D01*
X131822491Y-56669857D01*
X131811351Y-56700991D01*
X131797213Y-56730884D01*
X131780213Y-56759247D01*
X131760515Y-56785807D01*
X131738308Y-56810308D01*
X131713807Y-56832515D01*
X131687247Y-56852213D01*
X131658884Y-56869213D01*
X131628991Y-56883351D01*
X131597857Y-56894491D01*
X131565781Y-56902525D01*
X131533071Y-56907377D01*
X131500044Y-56909000D01*
X130373956Y-56909000D01*
X130340929Y-56907377D01*
X130308219Y-56902525D01*
X130276143Y-56894491D01*
X130245009Y-56883351D01*
X130215116Y-56869213D01*
X130186753Y-56852213D01*
X130160193Y-56832515D01*
X130135692Y-56810308D01*
X130113485Y-56785807D01*
X130093787Y-56759247D01*
X130076787Y-56730884D01*
X130062649Y-56700991D01*
X130051509Y-56669857D01*
X130043475Y-56637781D01*
X130038623Y-56605071D01*
X130037000Y-56572044D01*
X130037000Y-55695956D01*
X130038623Y-55662929D01*
X130043475Y-55630219D01*
X130051509Y-55598143D01*
X130062649Y-55567009D01*
X130076787Y-55537116D01*
X130093787Y-55508753D01*
X130113485Y-55482193D01*
X130135692Y-55457692D01*
X130160193Y-55435485D01*
X130186753Y-55415787D01*
X130215116Y-55398787D01*
X130245009Y-55384649D01*
X130276143Y-55373509D01*
X130308219Y-55365475D01*
X130340929Y-55360623D01*
X130373956Y-55359000D01*
X131500044Y-55359000D01*
X131533071Y-55360623D01*
X131533071Y-55360623D01*
G37*
D12*
X130937000Y-56134000D03*
G04 #@! TD*
D23*
G04 #@! TO.C,esp_pwr*
X142748000Y-67310000D03*
G04 #@! TD*
G04 #@! TO.C,threshold*
X133477000Y-47371000D03*
G04 #@! TD*
D21*
G04 #@! TO.C,C14*
X137120000Y-57785000D03*
D20*
X134620000Y-57785000D03*
G04 #@! TD*
D11*
G04 #@! TO.C,C1*
G36*
X135089071Y-63116623D02*
X135121781Y-63121475D01*
X135153857Y-63129509D01*
X135184991Y-63140649D01*
X135214884Y-63154787D01*
X135243247Y-63171787D01*
X135269807Y-63191485D01*
X135294308Y-63213692D01*
X135316515Y-63238193D01*
X135336213Y-63264753D01*
X135353213Y-63293116D01*
X135367351Y-63323009D01*
X135378491Y-63354143D01*
X135386525Y-63386219D01*
X135391377Y-63418929D01*
X135393000Y-63451956D01*
X135393000Y-64328044D01*
X135391377Y-64361071D01*
X135386525Y-64393781D01*
X135378491Y-64425857D01*
X135367351Y-64456991D01*
X135353213Y-64486884D01*
X135336213Y-64515247D01*
X135316515Y-64541807D01*
X135294308Y-64566308D01*
X135269807Y-64588515D01*
X135243247Y-64608213D01*
X135214884Y-64625213D01*
X135184991Y-64639351D01*
X135153857Y-64650491D01*
X135121781Y-64658525D01*
X135089071Y-64663377D01*
X135056044Y-64665000D01*
X133929956Y-64665000D01*
X133896929Y-64663377D01*
X133864219Y-64658525D01*
X133832143Y-64650491D01*
X133801009Y-64639351D01*
X133771116Y-64625213D01*
X133742753Y-64608213D01*
X133716193Y-64588515D01*
X133691692Y-64566308D01*
X133669485Y-64541807D01*
X133649787Y-64515247D01*
X133632787Y-64486884D01*
X133618649Y-64456991D01*
X133607509Y-64425857D01*
X133599475Y-64393781D01*
X133594623Y-64361071D01*
X133593000Y-64328044D01*
X133593000Y-63451956D01*
X133594623Y-63418929D01*
X133599475Y-63386219D01*
X133607509Y-63354143D01*
X133618649Y-63323009D01*
X133632787Y-63293116D01*
X133649787Y-63264753D01*
X133669485Y-63238193D01*
X133691692Y-63213692D01*
X133716193Y-63191485D01*
X133742753Y-63171787D01*
X133771116Y-63154787D01*
X133801009Y-63140649D01*
X133832143Y-63129509D01*
X133864219Y-63121475D01*
X133896929Y-63116623D01*
X133929956Y-63115000D01*
X135056044Y-63115000D01*
X135089071Y-63116623D01*
X135089071Y-63116623D01*
G37*
D12*
X134493000Y-63890000D03*
D11*
G36*
X135089071Y-61066623D02*
X135121781Y-61071475D01*
X135153857Y-61079509D01*
X135184991Y-61090649D01*
X135214884Y-61104787D01*
X135243247Y-61121787D01*
X135269807Y-61141485D01*
X135294308Y-61163692D01*
X135316515Y-61188193D01*
X135336213Y-61214753D01*
X135353213Y-61243116D01*
X135367351Y-61273009D01*
X135378491Y-61304143D01*
X135386525Y-61336219D01*
X135391377Y-61368929D01*
X135393000Y-61401956D01*
X135393000Y-62278044D01*
X135391377Y-62311071D01*
X135386525Y-62343781D01*
X135378491Y-62375857D01*
X135367351Y-62406991D01*
X135353213Y-62436884D01*
X135336213Y-62465247D01*
X135316515Y-62491807D01*
X135294308Y-62516308D01*
X135269807Y-62538515D01*
X135243247Y-62558213D01*
X135214884Y-62575213D01*
X135184991Y-62589351D01*
X135153857Y-62600491D01*
X135121781Y-62608525D01*
X135089071Y-62613377D01*
X135056044Y-62615000D01*
X133929956Y-62615000D01*
X133896929Y-62613377D01*
X133864219Y-62608525D01*
X133832143Y-62600491D01*
X133801009Y-62589351D01*
X133771116Y-62575213D01*
X133742753Y-62558213D01*
X133716193Y-62538515D01*
X133691692Y-62516308D01*
X133669485Y-62491807D01*
X133649787Y-62465247D01*
X133632787Y-62436884D01*
X133618649Y-62406991D01*
X133607509Y-62375857D01*
X133599475Y-62343781D01*
X133594623Y-62311071D01*
X133593000Y-62278044D01*
X133593000Y-61401956D01*
X133594623Y-61368929D01*
X133599475Y-61336219D01*
X133607509Y-61304143D01*
X133618649Y-61273009D01*
X133632787Y-61243116D01*
X133649787Y-61214753D01*
X133669485Y-61188193D01*
X133691692Y-61163692D01*
X133716193Y-61141485D01*
X133742753Y-61121787D01*
X133771116Y-61104787D01*
X133801009Y-61090649D01*
X133832143Y-61079509D01*
X133864219Y-61071475D01*
X133896929Y-61066623D01*
X133929956Y-61065000D01*
X135056044Y-61065000D01*
X135089071Y-61066623D01*
X135089071Y-61066623D01*
G37*
D12*
X134493000Y-61840000D03*
G04 #@! TD*
D17*
G04 #@! TO.C,MH2*
X155702000Y-37084000D03*
G04 #@! TD*
G04 #@! TO.C,MH1*
X112903000Y-66294000D03*
G04 #@! TD*
D24*
G04 #@! TO.C,clear*
X149980000Y-68169000D03*
X152280000Y-68169000D03*
G04 #@! TD*
G04 #@! TO.C,prog*
X146991000Y-35395000D03*
X149291000Y-35395000D03*
D25*
X146041000Y-37162000D03*
X150241000Y-37162000D03*
D26*
X143950000Y-34857000D03*
D27*
X144331000Y-34476000D03*
D26*
X152205000Y-34857000D03*
D27*
X151824000Y-34476000D03*
G04 #@! TD*
D23*
G04 #@! TO.C,+5V*
X126492001Y-62865000D03*
G04 #@! TD*
D28*
G04 #@! TO.C,ESP8266*
X156662000Y-63599000D03*
X154662000Y-63599000D03*
X152662000Y-63599000D03*
X150662000Y-63599000D03*
X148662000Y-63599000D03*
X146662000Y-63599000D03*
X144662000Y-63599000D03*
X142662000Y-63599000D03*
X142662000Y-47399000D03*
X144662000Y-47399000D03*
X146662000Y-47399000D03*
X148662000Y-47399000D03*
X150662000Y-47399000D03*
X152662000Y-47399000D03*
X154662000Y-47399000D03*
X156662000Y-47399000D03*
G04 #@! TD*
D29*
G04 #@! TO.C,J1*
X129831000Y-67319000D03*
X137631000Y-67319000D03*
D30*
X131731000Y-65169000D03*
X135731000Y-65169000D03*
D29*
X129831000Y-63849000D03*
X137631000Y-63849000D03*
G04 #@! TD*
D19*
G04 #@! TO.C,U1*
X125222000Y-41877000D03*
X126492000Y-41877000D03*
X127762000Y-41877000D03*
X129032000Y-41877000D03*
X129032000Y-47277000D03*
X127762000Y-47277000D03*
X126492000Y-47277000D03*
X125222000Y-47277000D03*
G04 #@! TD*
D31*
G04 #@! TO.C,IR1*
X135255000Y-35179000D03*
X137795000Y-37719000D03*
X140335000Y-35179000D03*
D11*
G36*
X140863146Y-34251316D02*
X140909838Y-34258242D01*
X140955627Y-34269712D01*
X141000071Y-34285614D01*
X141042742Y-34305796D01*
X141083229Y-34330063D01*
X141121143Y-34358182D01*
X141156118Y-34389882D01*
X141187818Y-34424857D01*
X141215937Y-34462771D01*
X141240204Y-34503258D01*
X141260386Y-34545929D01*
X141276288Y-34590373D01*
X141287758Y-34636162D01*
X141294684Y-34682854D01*
X141297000Y-34730000D01*
X141297000Y-38168000D01*
X141294684Y-38215146D01*
X141287758Y-38261838D01*
X141276288Y-38307627D01*
X141260386Y-38352071D01*
X141240204Y-38394742D01*
X141215937Y-38435229D01*
X141187818Y-38473143D01*
X141156118Y-38508118D01*
X141121143Y-38539818D01*
X141083229Y-38567937D01*
X141042742Y-38592204D01*
X141000071Y-38612386D01*
X140955627Y-38628288D01*
X140909838Y-38639758D01*
X140863146Y-38646684D01*
X140816000Y-38649000D01*
X139854000Y-38649000D01*
X139806854Y-38646684D01*
X139760162Y-38639758D01*
X139714373Y-38628288D01*
X139669929Y-38612386D01*
X139627258Y-38592204D01*
X139586771Y-38567937D01*
X139548857Y-38539818D01*
X139513882Y-38508118D01*
X139482182Y-38473143D01*
X139454063Y-38435229D01*
X139429796Y-38394742D01*
X139409614Y-38352071D01*
X139393712Y-38307627D01*
X139382242Y-38261838D01*
X139375316Y-38215146D01*
X139373000Y-38168000D01*
X139373000Y-34730000D01*
X139375316Y-34682854D01*
X139382242Y-34636162D01*
X139393712Y-34590373D01*
X139409614Y-34545929D01*
X139429796Y-34503258D01*
X139454063Y-34462771D01*
X139482182Y-34424857D01*
X139513882Y-34389882D01*
X139548857Y-34358182D01*
X139586771Y-34330063D01*
X139627258Y-34305796D01*
X139669929Y-34285614D01*
X139714373Y-34269712D01*
X139760162Y-34258242D01*
X139806854Y-34251316D01*
X139854000Y-34249000D01*
X140816000Y-34249000D01*
X140863146Y-34251316D01*
X140863146Y-34251316D01*
G37*
D31*
X140335000Y-36449000D03*
D11*
G36*
X135783146Y-34251316D02*
X135829838Y-34258242D01*
X135875627Y-34269712D01*
X135920071Y-34285614D01*
X135962742Y-34305796D01*
X136003229Y-34330063D01*
X136041143Y-34358182D01*
X136076118Y-34389882D01*
X136107818Y-34424857D01*
X136135937Y-34462771D01*
X136160204Y-34503258D01*
X136180386Y-34545929D01*
X136196288Y-34590373D01*
X136207758Y-34636162D01*
X136214684Y-34682854D01*
X136217000Y-34730000D01*
X136217000Y-38168000D01*
X136214684Y-38215146D01*
X136207758Y-38261838D01*
X136196288Y-38307627D01*
X136180386Y-38352071D01*
X136160204Y-38394742D01*
X136135937Y-38435229D01*
X136107818Y-38473143D01*
X136076118Y-38508118D01*
X136041143Y-38539818D01*
X136003229Y-38567937D01*
X135962742Y-38592204D01*
X135920071Y-38612386D01*
X135875627Y-38628288D01*
X135829838Y-38639758D01*
X135783146Y-38646684D01*
X135736000Y-38649000D01*
X134774000Y-38649000D01*
X134726854Y-38646684D01*
X134680162Y-38639758D01*
X134634373Y-38628288D01*
X134589929Y-38612386D01*
X134547258Y-38592204D01*
X134506771Y-38567937D01*
X134468857Y-38539818D01*
X134433882Y-38508118D01*
X134402182Y-38473143D01*
X134374063Y-38435229D01*
X134349796Y-38394742D01*
X134329614Y-38352071D01*
X134313712Y-38307627D01*
X134302242Y-38261838D01*
X134295316Y-38215146D01*
X134293000Y-38168000D01*
X134293000Y-34730000D01*
X134295316Y-34682854D01*
X134302242Y-34636162D01*
X134313712Y-34590373D01*
X134329614Y-34545929D01*
X134349796Y-34503258D01*
X134374063Y-34462771D01*
X134402182Y-34424857D01*
X134433882Y-34389882D01*
X134468857Y-34358182D01*
X134506771Y-34330063D01*
X134547258Y-34305796D01*
X134589929Y-34285614D01*
X134634373Y-34269712D01*
X134680162Y-34258242D01*
X134726854Y-34251316D01*
X134774000Y-34249000D01*
X135736000Y-34249000D01*
X135783146Y-34251316D01*
X135783146Y-34251316D01*
G37*
D31*
X135255000Y-36449000D03*
G04 #@! TD*
D23*
G04 #@! TO.C,+3V3*
X114300000Y-59690000D03*
G04 #@! TD*
D18*
G04 #@! TO.C,U3*
X99400000Y-59284000D03*
X98750000Y-59284000D03*
X98100000Y-59284000D03*
X97450000Y-59284000D03*
X97450000Y-65684000D03*
X98100000Y-65684000D03*
X98750000Y-65684000D03*
X99400000Y-65684000D03*
G04 #@! TD*
D23*
G04 #@! TO.C,threshold*
X85217000Y-56134000D03*
G04 #@! TD*
G04 #@! TO.C,esp_pwr*
X75946000Y-36195000D03*
G04 #@! TD*
G04 #@! TO.C,mic_amp*
X95250000Y-67056000D03*
G04 #@! TD*
G04 #@! TO.C,GND*
X61341000Y-35433000D03*
G04 #@! TD*
G04 #@! TO.C,GND*
X107442000Y-52578000D03*
G04 #@! TD*
G04 #@! TO.C,+3V3*
X104394000Y-43815000D03*
G04 #@! TD*
G04 #@! TO.C,+5V*
X92202000Y-40640000D03*
G04 #@! TD*
D27*
G04 #@! TO.C,prog*
X66870000Y-69029000D03*
D26*
X66489000Y-68648000D03*
D27*
X74363000Y-69029000D03*
D26*
X74744000Y-68648000D03*
D25*
X68453000Y-66343000D03*
X72653000Y-66343000D03*
D24*
X69403000Y-68110000D03*
X71703000Y-68110000D03*
G04 #@! TD*
G04 #@! TO.C,clear*
X66414000Y-35336000D03*
X68714000Y-35336000D03*
G04 #@! TD*
D11*
G04 #@! TO.C,IR1*
G36*
X83967146Y-64858316D02*
X84013838Y-64865242D01*
X84059627Y-64876712D01*
X84104071Y-64892614D01*
X84146742Y-64912796D01*
X84187229Y-64937063D01*
X84225143Y-64965182D01*
X84260118Y-64996882D01*
X84291818Y-65031857D01*
X84319937Y-65069771D01*
X84344204Y-65110258D01*
X84364386Y-65152929D01*
X84380288Y-65197373D01*
X84391758Y-65243162D01*
X84398684Y-65289854D01*
X84401000Y-65337000D01*
X84401000Y-68775000D01*
X84398684Y-68822146D01*
X84391758Y-68868838D01*
X84380288Y-68914627D01*
X84364386Y-68959071D01*
X84344204Y-69001742D01*
X84319937Y-69042229D01*
X84291818Y-69080143D01*
X84260118Y-69115118D01*
X84225143Y-69146818D01*
X84187229Y-69174937D01*
X84146742Y-69199204D01*
X84104071Y-69219386D01*
X84059627Y-69235288D01*
X84013838Y-69246758D01*
X83967146Y-69253684D01*
X83920000Y-69256000D01*
X82958000Y-69256000D01*
X82910854Y-69253684D01*
X82864162Y-69246758D01*
X82818373Y-69235288D01*
X82773929Y-69219386D01*
X82731258Y-69199204D01*
X82690771Y-69174937D01*
X82652857Y-69146818D01*
X82617882Y-69115118D01*
X82586182Y-69080143D01*
X82558063Y-69042229D01*
X82533796Y-69001742D01*
X82513614Y-68959071D01*
X82497712Y-68914627D01*
X82486242Y-68868838D01*
X82479316Y-68822146D01*
X82477000Y-68775000D01*
X82477000Y-65337000D01*
X82479316Y-65289854D01*
X82486242Y-65243162D01*
X82497712Y-65197373D01*
X82513614Y-65152929D01*
X82533796Y-65110258D01*
X82558063Y-65069771D01*
X82586182Y-65031857D01*
X82617882Y-64996882D01*
X82652857Y-64965182D01*
X82690771Y-64937063D01*
X82731258Y-64912796D01*
X82773929Y-64892614D01*
X82818373Y-64876712D01*
X82864162Y-64865242D01*
X82910854Y-64858316D01*
X82958000Y-64856000D01*
X83920000Y-64856000D01*
X83967146Y-64858316D01*
X83967146Y-64858316D01*
G37*
D31*
X83439000Y-67056000D03*
D11*
G36*
X78887146Y-64858316D02*
X78933838Y-64865242D01*
X78979627Y-64876712D01*
X79024071Y-64892614D01*
X79066742Y-64912796D01*
X79107229Y-64937063D01*
X79145143Y-64965182D01*
X79180118Y-64996882D01*
X79211818Y-65031857D01*
X79239937Y-65069771D01*
X79264204Y-65110258D01*
X79284386Y-65152929D01*
X79300288Y-65197373D01*
X79311758Y-65243162D01*
X79318684Y-65289854D01*
X79321000Y-65337000D01*
X79321000Y-68775000D01*
X79318684Y-68822146D01*
X79311758Y-68868838D01*
X79300288Y-68914627D01*
X79284386Y-68959071D01*
X79264204Y-69001742D01*
X79239937Y-69042229D01*
X79211818Y-69080143D01*
X79180118Y-69115118D01*
X79145143Y-69146818D01*
X79107229Y-69174937D01*
X79066742Y-69199204D01*
X79024071Y-69219386D01*
X78979627Y-69235288D01*
X78933838Y-69246758D01*
X78887146Y-69253684D01*
X78840000Y-69256000D01*
X77878000Y-69256000D01*
X77830854Y-69253684D01*
X77784162Y-69246758D01*
X77738373Y-69235288D01*
X77693929Y-69219386D01*
X77651258Y-69199204D01*
X77610771Y-69174937D01*
X77572857Y-69146818D01*
X77537882Y-69115118D01*
X77506182Y-69080143D01*
X77478063Y-69042229D01*
X77453796Y-69001742D01*
X77433614Y-68959071D01*
X77417712Y-68914627D01*
X77406242Y-68868838D01*
X77399316Y-68822146D01*
X77397000Y-68775000D01*
X77397000Y-65337000D01*
X77399316Y-65289854D01*
X77406242Y-65243162D01*
X77417712Y-65197373D01*
X77433614Y-65152929D01*
X77453796Y-65110258D01*
X77478063Y-65069771D01*
X77506182Y-65031857D01*
X77537882Y-64996882D01*
X77572857Y-64965182D01*
X77610771Y-64937063D01*
X77651258Y-64912796D01*
X77693929Y-64892614D01*
X77738373Y-64876712D01*
X77784162Y-64865242D01*
X77830854Y-64858316D01*
X77878000Y-64856000D01*
X78840000Y-64856000D01*
X78887146Y-64858316D01*
X78887146Y-64858316D01*
G37*
D31*
X78359000Y-67056000D03*
X78359000Y-68326000D03*
X80899000Y-65786000D03*
X83439000Y-68326000D03*
G04 #@! TD*
D19*
G04 #@! TO.C,U1*
X93472000Y-56228000D03*
X92202000Y-56228000D03*
X90932000Y-56228000D03*
X89662000Y-56228000D03*
X89662000Y-61628000D03*
X90932000Y-61628000D03*
X92202000Y-61628000D03*
X93472000Y-61628000D03*
G04 #@! TD*
D29*
G04 #@! TO.C,J1*
X81063000Y-39656000D03*
X88863000Y-39656000D03*
D30*
X82963000Y-38336000D03*
X86963000Y-38336000D03*
D29*
X81063000Y-36186000D03*
X88863000Y-36186000D03*
G04 #@! TD*
D28*
G04 #@! TO.C,ESP8266*
X62032000Y-56106000D03*
X64032000Y-56106000D03*
X66032000Y-56106000D03*
X68032000Y-56106000D03*
X70032000Y-56106000D03*
X72032000Y-56106000D03*
X74032000Y-56106000D03*
X76032000Y-56106000D03*
X76032000Y-39906000D03*
X74032000Y-39906000D03*
X72032000Y-39906000D03*
X70032000Y-39906000D03*
X68032000Y-39906000D03*
X66032000Y-39906000D03*
X64032000Y-39906000D03*
X62032000Y-39906000D03*
G04 #@! TD*
D17*
G04 #@! TO.C,MH1*
X105791000Y-37211000D03*
G04 #@! TD*
G04 #@! TO.C,MH2*
X62992000Y-66421000D03*
G04 #@! TD*
D11*
G04 #@! TO.C,C1*
G36*
X84797071Y-40891623D02*
X84829781Y-40896475D01*
X84861857Y-40904509D01*
X84892991Y-40915649D01*
X84922884Y-40929787D01*
X84951247Y-40946787D01*
X84977807Y-40966485D01*
X85002308Y-40988692D01*
X85024515Y-41013193D01*
X85044213Y-41039753D01*
X85061213Y-41068116D01*
X85075351Y-41098009D01*
X85086491Y-41129143D01*
X85094525Y-41161219D01*
X85099377Y-41193929D01*
X85101000Y-41226956D01*
X85101000Y-42103044D01*
X85099377Y-42136071D01*
X85094525Y-42168781D01*
X85086491Y-42200857D01*
X85075351Y-42231991D01*
X85061213Y-42261884D01*
X85044213Y-42290247D01*
X85024515Y-42316807D01*
X85002308Y-42341308D01*
X84977807Y-42363515D01*
X84951247Y-42383213D01*
X84922884Y-42400213D01*
X84892991Y-42414351D01*
X84861857Y-42425491D01*
X84829781Y-42433525D01*
X84797071Y-42438377D01*
X84764044Y-42440000D01*
X83637956Y-42440000D01*
X83604929Y-42438377D01*
X83572219Y-42433525D01*
X83540143Y-42425491D01*
X83509009Y-42414351D01*
X83479116Y-42400213D01*
X83450753Y-42383213D01*
X83424193Y-42363515D01*
X83399692Y-42341308D01*
X83377485Y-42316807D01*
X83357787Y-42290247D01*
X83340787Y-42261884D01*
X83326649Y-42231991D01*
X83315509Y-42200857D01*
X83307475Y-42168781D01*
X83302623Y-42136071D01*
X83301000Y-42103044D01*
X83301000Y-41226956D01*
X83302623Y-41193929D01*
X83307475Y-41161219D01*
X83315509Y-41129143D01*
X83326649Y-41098009D01*
X83340787Y-41068116D01*
X83357787Y-41039753D01*
X83377485Y-41013193D01*
X83399692Y-40988692D01*
X83424193Y-40966485D01*
X83450753Y-40946787D01*
X83479116Y-40929787D01*
X83509009Y-40915649D01*
X83540143Y-40904509D01*
X83572219Y-40896475D01*
X83604929Y-40891623D01*
X83637956Y-40890000D01*
X84764044Y-40890000D01*
X84797071Y-40891623D01*
X84797071Y-40891623D01*
G37*
D12*
X84201000Y-41665000D03*
D11*
G36*
X84797071Y-38841623D02*
X84829781Y-38846475D01*
X84861857Y-38854509D01*
X84892991Y-38865649D01*
X84922884Y-38879787D01*
X84951247Y-38896787D01*
X84977807Y-38916485D01*
X85002308Y-38938692D01*
X85024515Y-38963193D01*
X85044213Y-38989753D01*
X85061213Y-39018116D01*
X85075351Y-39048009D01*
X85086491Y-39079143D01*
X85094525Y-39111219D01*
X85099377Y-39143929D01*
X85101000Y-39176956D01*
X85101000Y-40053044D01*
X85099377Y-40086071D01*
X85094525Y-40118781D01*
X85086491Y-40150857D01*
X85075351Y-40181991D01*
X85061213Y-40211884D01*
X85044213Y-40240247D01*
X85024515Y-40266807D01*
X85002308Y-40291308D01*
X84977807Y-40313515D01*
X84951247Y-40333213D01*
X84922884Y-40350213D01*
X84892991Y-40364351D01*
X84861857Y-40375491D01*
X84829781Y-40383525D01*
X84797071Y-40388377D01*
X84764044Y-40390000D01*
X83637956Y-40390000D01*
X83604929Y-40388377D01*
X83572219Y-40383525D01*
X83540143Y-40375491D01*
X83509009Y-40364351D01*
X83479116Y-40350213D01*
X83450753Y-40333213D01*
X83424193Y-40313515D01*
X83399692Y-40291308D01*
X83377485Y-40266807D01*
X83357787Y-40240247D01*
X83340787Y-40211884D01*
X83326649Y-40181991D01*
X83315509Y-40150857D01*
X83307475Y-40118781D01*
X83302623Y-40086071D01*
X83301000Y-40053044D01*
X83301000Y-39176956D01*
X83302623Y-39143929D01*
X83307475Y-39111219D01*
X83315509Y-39079143D01*
X83326649Y-39048009D01*
X83340787Y-39018116D01*
X83357787Y-38989753D01*
X83377485Y-38963193D01*
X83399692Y-38938692D01*
X83424193Y-38916485D01*
X83450753Y-38896787D01*
X83479116Y-38879787D01*
X83509009Y-38865649D01*
X83540143Y-38854509D01*
X83572219Y-38846475D01*
X83604929Y-38841623D01*
X83637956Y-38840000D01*
X84764044Y-38840000D01*
X84797071Y-38841623D01*
X84797071Y-38841623D01*
G37*
D12*
X84201000Y-39615000D03*
G04 #@! TD*
D20*
G04 #@! TO.C,C14*
X84074000Y-45720000D03*
D21*
X81574000Y-45720000D03*
G04 #@! TD*
D11*
G04 #@! TO.C,C9*
G36*
X95497417Y-44627418D02*
X95525999Y-44631658D01*
X95554029Y-44638679D01*
X95581235Y-44648413D01*
X95607356Y-44660768D01*
X95632140Y-44675623D01*
X95655349Y-44692836D01*
X95676759Y-44712241D01*
X95696164Y-44733651D01*
X95713377Y-44756860D01*
X95728232Y-44781644D01*
X95740587Y-44807765D01*
X95750321Y-44834971D01*
X95757342Y-44863001D01*
X95761582Y-44891583D01*
X95763000Y-44920444D01*
X95763000Y-47281556D01*
X95761582Y-47310417D01*
X95757342Y-47338999D01*
X95750321Y-47367029D01*
X95740587Y-47394235D01*
X95728232Y-47420356D01*
X95713377Y-47445140D01*
X95696164Y-47468349D01*
X95676759Y-47489759D01*
X95655349Y-47509164D01*
X95632140Y-47526377D01*
X95607356Y-47541232D01*
X95581235Y-47553587D01*
X95554029Y-47563321D01*
X95525999Y-47570342D01*
X95497417Y-47574582D01*
X95468556Y-47576000D01*
X93407444Y-47576000D01*
X93378583Y-47574582D01*
X93350001Y-47570342D01*
X93321971Y-47563321D01*
X93294765Y-47553587D01*
X93268644Y-47541232D01*
X93243860Y-47526377D01*
X93220651Y-47509164D01*
X93199241Y-47489759D01*
X93179836Y-47468349D01*
X93162623Y-47445140D01*
X93147768Y-47420356D01*
X93135413Y-47394235D01*
X93125679Y-47367029D01*
X93118658Y-47338999D01*
X93114418Y-47310417D01*
X93113000Y-47281556D01*
X93113000Y-44920444D01*
X93114418Y-44891583D01*
X93118658Y-44863001D01*
X93125679Y-44834971D01*
X93135413Y-44807765D01*
X93147768Y-44781644D01*
X93162623Y-44756860D01*
X93179836Y-44733651D01*
X93199241Y-44712241D01*
X93220651Y-44692836D01*
X93243860Y-44675623D01*
X93268644Y-44660768D01*
X93294765Y-44648413D01*
X93321971Y-44638679D01*
X93350001Y-44631658D01*
X93378583Y-44627418D01*
X93407444Y-44626000D01*
X95468556Y-44626000D01*
X95497417Y-44627418D01*
X95497417Y-44627418D01*
G37*
D22*
X94438000Y-46101000D03*
D11*
G36*
X101897417Y-44627418D02*
X101925999Y-44631658D01*
X101954029Y-44638679D01*
X101981235Y-44648413D01*
X102007356Y-44660768D01*
X102032140Y-44675623D01*
X102055349Y-44692836D01*
X102076759Y-44712241D01*
X102096164Y-44733651D01*
X102113377Y-44756860D01*
X102128232Y-44781644D01*
X102140587Y-44807765D01*
X102150321Y-44834971D01*
X102157342Y-44863001D01*
X102161582Y-44891583D01*
X102163000Y-44920444D01*
X102163000Y-47281556D01*
X102161582Y-47310417D01*
X102157342Y-47338999D01*
X102150321Y-47367029D01*
X102140587Y-47394235D01*
X102128232Y-47420356D01*
X102113377Y-47445140D01*
X102096164Y-47468349D01*
X102076759Y-47489759D01*
X102055349Y-47509164D01*
X102032140Y-47526377D01*
X102007356Y-47541232D01*
X101981235Y-47553587D01*
X101954029Y-47563321D01*
X101925999Y-47570342D01*
X101897417Y-47574582D01*
X101868556Y-47576000D01*
X99807444Y-47576000D01*
X99778583Y-47574582D01*
X99750001Y-47570342D01*
X99721971Y-47563321D01*
X99694765Y-47553587D01*
X99668644Y-47541232D01*
X99643860Y-47526377D01*
X99620651Y-47509164D01*
X99599241Y-47489759D01*
X99579836Y-47468349D01*
X99562623Y-47445140D01*
X99547768Y-47420356D01*
X99535413Y-47394235D01*
X99525679Y-47367029D01*
X99518658Y-47338999D01*
X99514418Y-47310417D01*
X99513000Y-47281556D01*
X99513000Y-44920444D01*
X99514418Y-44891583D01*
X99518658Y-44863001D01*
X99525679Y-44834971D01*
X99535413Y-44807765D01*
X99547768Y-44781644D01*
X99562623Y-44756860D01*
X99579836Y-44733651D01*
X99599241Y-44712241D01*
X99620651Y-44692836D01*
X99643860Y-44675623D01*
X99668644Y-44660768D01*
X99694765Y-44648413D01*
X99721971Y-44638679D01*
X99750001Y-44631658D01*
X99778583Y-44627418D01*
X99807444Y-44626000D01*
X101868556Y-44626000D01*
X101897417Y-44627418D01*
X101897417Y-44627418D01*
G37*
D22*
X100838000Y-46101000D03*
G04 #@! TD*
D16*
G04 #@! TO.C,MK1*
X88900000Y-66802000D03*
D15*
X91440000Y-66802000D03*
G04 #@! TD*
D16*
G04 #@! TO.C,C4*
X91694000Y-46863000D03*
D15*
X91694000Y-44323000D03*
G04 #@! TD*
D16*
G04 #@! TO.C,J4*
X68453000Y-59436000D03*
X70993000Y-59436000D03*
D15*
X73533000Y-59436000D03*
G04 #@! TD*
D16*
G04 #@! TO.C,J2*
X103124000Y-57404000D03*
X103124000Y-59944000D03*
X103124000Y-62484000D03*
X103124000Y-65024000D03*
D15*
X103124000Y-67564000D03*
G04 #@! TD*
D16*
G04 #@! TO.C,J3*
X107061000Y-57404000D03*
X107061000Y-59944000D03*
X107061000Y-62484000D03*
X107061000Y-65024000D03*
D15*
X107061000Y-67564000D03*
G04 #@! TD*
D11*
G04 #@! TO.C,D1*
G36*
X88353071Y-46597623D02*
X88385781Y-46602475D01*
X88417857Y-46610509D01*
X88448991Y-46621649D01*
X88478884Y-46635787D01*
X88507247Y-46652787D01*
X88533807Y-46672485D01*
X88558308Y-46694692D01*
X88580515Y-46719193D01*
X88600213Y-46745753D01*
X88617213Y-46774116D01*
X88631351Y-46804009D01*
X88642491Y-46835143D01*
X88650525Y-46867219D01*
X88655377Y-46899929D01*
X88657000Y-46932956D01*
X88657000Y-47809044D01*
X88655377Y-47842071D01*
X88650525Y-47874781D01*
X88642491Y-47906857D01*
X88631351Y-47937991D01*
X88617213Y-47967884D01*
X88600213Y-47996247D01*
X88580515Y-48022807D01*
X88558308Y-48047308D01*
X88533807Y-48069515D01*
X88507247Y-48089213D01*
X88478884Y-48106213D01*
X88448991Y-48120351D01*
X88417857Y-48131491D01*
X88385781Y-48139525D01*
X88353071Y-48144377D01*
X88320044Y-48146000D01*
X87193956Y-48146000D01*
X87160929Y-48144377D01*
X87128219Y-48139525D01*
X87096143Y-48131491D01*
X87065009Y-48120351D01*
X87035116Y-48106213D01*
X87006753Y-48089213D01*
X86980193Y-48069515D01*
X86955692Y-48047308D01*
X86933485Y-48022807D01*
X86913787Y-47996247D01*
X86896787Y-47967884D01*
X86882649Y-47937991D01*
X86871509Y-47906857D01*
X86863475Y-47874781D01*
X86858623Y-47842071D01*
X86857000Y-47809044D01*
X86857000Y-46932956D01*
X86858623Y-46899929D01*
X86863475Y-46867219D01*
X86871509Y-46835143D01*
X86882649Y-46804009D01*
X86896787Y-46774116D01*
X86913787Y-46745753D01*
X86933485Y-46719193D01*
X86955692Y-46694692D01*
X86980193Y-46672485D01*
X87006753Y-46652787D01*
X87035116Y-46635787D01*
X87065009Y-46621649D01*
X87096143Y-46610509D01*
X87128219Y-46602475D01*
X87160929Y-46597623D01*
X87193956Y-46596000D01*
X88320044Y-46596000D01*
X88353071Y-46597623D01*
X88353071Y-46597623D01*
G37*
D12*
X87757000Y-47371000D03*
D11*
G36*
X88353071Y-48647623D02*
X88385781Y-48652475D01*
X88417857Y-48660509D01*
X88448991Y-48671649D01*
X88478884Y-48685787D01*
X88507247Y-48702787D01*
X88533807Y-48722485D01*
X88558308Y-48744692D01*
X88580515Y-48769193D01*
X88600213Y-48795753D01*
X88617213Y-48824116D01*
X88631351Y-48854009D01*
X88642491Y-48885143D01*
X88650525Y-48917219D01*
X88655377Y-48949929D01*
X88657000Y-48982956D01*
X88657000Y-49859044D01*
X88655377Y-49892071D01*
X88650525Y-49924781D01*
X88642491Y-49956857D01*
X88631351Y-49987991D01*
X88617213Y-50017884D01*
X88600213Y-50046247D01*
X88580515Y-50072807D01*
X88558308Y-50097308D01*
X88533807Y-50119515D01*
X88507247Y-50139213D01*
X88478884Y-50156213D01*
X88448991Y-50170351D01*
X88417857Y-50181491D01*
X88385781Y-50189525D01*
X88353071Y-50194377D01*
X88320044Y-50196000D01*
X87193956Y-50196000D01*
X87160929Y-50194377D01*
X87128219Y-50189525D01*
X87096143Y-50181491D01*
X87065009Y-50170351D01*
X87035116Y-50156213D01*
X87006753Y-50139213D01*
X86980193Y-50119515D01*
X86955692Y-50097308D01*
X86933485Y-50072807D01*
X86913787Y-50046247D01*
X86896787Y-50017884D01*
X86882649Y-49987991D01*
X86871509Y-49956857D01*
X86863475Y-49924781D01*
X86858623Y-49892071D01*
X86857000Y-49859044D01*
X86857000Y-48982956D01*
X86858623Y-48949929D01*
X86863475Y-48917219D01*
X86871509Y-48885143D01*
X86882649Y-48854009D01*
X86896787Y-48824116D01*
X86913787Y-48795753D01*
X86933485Y-48769193D01*
X86955692Y-48744692D01*
X86980193Y-48722485D01*
X87006753Y-48702787D01*
X87035116Y-48685787D01*
X87065009Y-48671649D01*
X87096143Y-48660509D01*
X87128219Y-48652475D01*
X87160929Y-48647623D01*
X87193956Y-48646000D01*
X88320044Y-48646000D01*
X88353071Y-48647623D01*
X88353071Y-48647623D01*
G37*
D12*
X87757000Y-49421000D03*
G04 #@! TD*
D11*
G04 #@! TO.C,R12*
G36*
X67890071Y-63109623D02*
X67922781Y-63114475D01*
X67954857Y-63122509D01*
X67985991Y-63133649D01*
X68015884Y-63147787D01*
X68044247Y-63164787D01*
X68070807Y-63184485D01*
X68095308Y-63206692D01*
X68117515Y-63231193D01*
X68137213Y-63257753D01*
X68154213Y-63286116D01*
X68168351Y-63316009D01*
X68179491Y-63347143D01*
X68187525Y-63379219D01*
X68192377Y-63411929D01*
X68194000Y-63444956D01*
X68194000Y-64571044D01*
X68192377Y-64604071D01*
X68187525Y-64636781D01*
X68179491Y-64668857D01*
X68168351Y-64699991D01*
X68154213Y-64729884D01*
X68137213Y-64758247D01*
X68117515Y-64784807D01*
X68095308Y-64809308D01*
X68070807Y-64831515D01*
X68044247Y-64851213D01*
X68015884Y-64868213D01*
X67985991Y-64882351D01*
X67954857Y-64893491D01*
X67922781Y-64901525D01*
X67890071Y-64906377D01*
X67857044Y-64908000D01*
X66980956Y-64908000D01*
X66947929Y-64906377D01*
X66915219Y-64901525D01*
X66883143Y-64893491D01*
X66852009Y-64882351D01*
X66822116Y-64868213D01*
X66793753Y-64851213D01*
X66767193Y-64831515D01*
X66742692Y-64809308D01*
X66720485Y-64784807D01*
X66700787Y-64758247D01*
X66683787Y-64729884D01*
X66669649Y-64699991D01*
X66658509Y-64668857D01*
X66650475Y-64636781D01*
X66645623Y-64604071D01*
X66644000Y-64571044D01*
X66644000Y-63444956D01*
X66645623Y-63411929D01*
X66650475Y-63379219D01*
X66658509Y-63347143D01*
X66669649Y-63316009D01*
X66683787Y-63286116D01*
X66700787Y-63257753D01*
X66720485Y-63231193D01*
X66742692Y-63206692D01*
X66767193Y-63184485D01*
X66793753Y-63164787D01*
X66822116Y-63147787D01*
X66852009Y-63133649D01*
X66883143Y-63122509D01*
X66915219Y-63114475D01*
X66947929Y-63109623D01*
X66980956Y-63108000D01*
X67857044Y-63108000D01*
X67890071Y-63109623D01*
X67890071Y-63109623D01*
G37*
D12*
X67419000Y-64008000D03*
D11*
G36*
X69940071Y-63109623D02*
X69972781Y-63114475D01*
X70004857Y-63122509D01*
X70035991Y-63133649D01*
X70065884Y-63147787D01*
X70094247Y-63164787D01*
X70120807Y-63184485D01*
X70145308Y-63206692D01*
X70167515Y-63231193D01*
X70187213Y-63257753D01*
X70204213Y-63286116D01*
X70218351Y-63316009D01*
X70229491Y-63347143D01*
X70237525Y-63379219D01*
X70242377Y-63411929D01*
X70244000Y-63444956D01*
X70244000Y-64571044D01*
X70242377Y-64604071D01*
X70237525Y-64636781D01*
X70229491Y-64668857D01*
X70218351Y-64699991D01*
X70204213Y-64729884D01*
X70187213Y-64758247D01*
X70167515Y-64784807D01*
X70145308Y-64809308D01*
X70120807Y-64831515D01*
X70094247Y-64851213D01*
X70065884Y-64868213D01*
X70035991Y-64882351D01*
X70004857Y-64893491D01*
X69972781Y-64901525D01*
X69940071Y-64906377D01*
X69907044Y-64908000D01*
X69030956Y-64908000D01*
X68997929Y-64906377D01*
X68965219Y-64901525D01*
X68933143Y-64893491D01*
X68902009Y-64882351D01*
X68872116Y-64868213D01*
X68843753Y-64851213D01*
X68817193Y-64831515D01*
X68792692Y-64809308D01*
X68770485Y-64784807D01*
X68750787Y-64758247D01*
X68733787Y-64729884D01*
X68719649Y-64699991D01*
X68708509Y-64668857D01*
X68700475Y-64636781D01*
X68695623Y-64604071D01*
X68694000Y-64571044D01*
X68694000Y-63444956D01*
X68695623Y-63411929D01*
X68700475Y-63379219D01*
X68708509Y-63347143D01*
X68719649Y-63316009D01*
X68733787Y-63286116D01*
X68750787Y-63257753D01*
X68770485Y-63231193D01*
X68792692Y-63206692D01*
X68817193Y-63184485D01*
X68843753Y-63164787D01*
X68872116Y-63147787D01*
X68902009Y-63133649D01*
X68933143Y-63122509D01*
X68965219Y-63114475D01*
X68997929Y-63109623D01*
X69030956Y-63108000D01*
X69907044Y-63108000D01*
X69940071Y-63109623D01*
X69940071Y-63109623D01*
G37*
D12*
X69469000Y-64008000D03*
G04 #@! TD*
D11*
G04 #@! TO.C,R13*
G36*
X81742071Y-62474623D02*
X81774781Y-62479475D01*
X81806857Y-62487509D01*
X81837991Y-62498649D01*
X81867884Y-62512787D01*
X81896247Y-62529787D01*
X81922807Y-62549485D01*
X81947308Y-62571692D01*
X81969515Y-62596193D01*
X81989213Y-62622753D01*
X82006213Y-62651116D01*
X82020351Y-62681009D01*
X82031491Y-62712143D01*
X82039525Y-62744219D01*
X82044377Y-62776929D01*
X82046000Y-62809956D01*
X82046000Y-63936044D01*
X82044377Y-63969071D01*
X82039525Y-64001781D01*
X82031491Y-64033857D01*
X82020351Y-64064991D01*
X82006213Y-64094884D01*
X81989213Y-64123247D01*
X81969515Y-64149807D01*
X81947308Y-64174308D01*
X81922807Y-64196515D01*
X81896247Y-64216213D01*
X81867884Y-64233213D01*
X81837991Y-64247351D01*
X81806857Y-64258491D01*
X81774781Y-64266525D01*
X81742071Y-64271377D01*
X81709044Y-64273000D01*
X80832956Y-64273000D01*
X80799929Y-64271377D01*
X80767219Y-64266525D01*
X80735143Y-64258491D01*
X80704009Y-64247351D01*
X80674116Y-64233213D01*
X80645753Y-64216213D01*
X80619193Y-64196515D01*
X80594692Y-64174308D01*
X80572485Y-64149807D01*
X80552787Y-64123247D01*
X80535787Y-64094884D01*
X80521649Y-64064991D01*
X80510509Y-64033857D01*
X80502475Y-64001781D01*
X80497623Y-63969071D01*
X80496000Y-63936044D01*
X80496000Y-62809956D01*
X80497623Y-62776929D01*
X80502475Y-62744219D01*
X80510509Y-62712143D01*
X80521649Y-62681009D01*
X80535787Y-62651116D01*
X80552787Y-62622753D01*
X80572485Y-62596193D01*
X80594692Y-62571692D01*
X80619193Y-62549485D01*
X80645753Y-62529787D01*
X80674116Y-62512787D01*
X80704009Y-62498649D01*
X80735143Y-62487509D01*
X80767219Y-62479475D01*
X80799929Y-62474623D01*
X80832956Y-62473000D01*
X81709044Y-62473000D01*
X81742071Y-62474623D01*
X81742071Y-62474623D01*
G37*
D12*
X81271000Y-63373000D03*
D11*
G36*
X83792071Y-62474623D02*
X83824781Y-62479475D01*
X83856857Y-62487509D01*
X83887991Y-62498649D01*
X83917884Y-62512787D01*
X83946247Y-62529787D01*
X83972807Y-62549485D01*
X83997308Y-62571692D01*
X84019515Y-62596193D01*
X84039213Y-62622753D01*
X84056213Y-62651116D01*
X84070351Y-62681009D01*
X84081491Y-62712143D01*
X84089525Y-62744219D01*
X84094377Y-62776929D01*
X84096000Y-62809956D01*
X84096000Y-63936044D01*
X84094377Y-63969071D01*
X84089525Y-64001781D01*
X84081491Y-64033857D01*
X84070351Y-64064991D01*
X84056213Y-64094884D01*
X84039213Y-64123247D01*
X84019515Y-64149807D01*
X83997308Y-64174308D01*
X83972807Y-64196515D01*
X83946247Y-64216213D01*
X83917884Y-64233213D01*
X83887991Y-64247351D01*
X83856857Y-64258491D01*
X83824781Y-64266525D01*
X83792071Y-64271377D01*
X83759044Y-64273000D01*
X82882956Y-64273000D01*
X82849929Y-64271377D01*
X82817219Y-64266525D01*
X82785143Y-64258491D01*
X82754009Y-64247351D01*
X82724116Y-64233213D01*
X82695753Y-64216213D01*
X82669193Y-64196515D01*
X82644692Y-64174308D01*
X82622485Y-64149807D01*
X82602787Y-64123247D01*
X82585787Y-64094884D01*
X82571649Y-64064991D01*
X82560509Y-64033857D01*
X82552475Y-64001781D01*
X82547623Y-63969071D01*
X82546000Y-63936044D01*
X82546000Y-62809956D01*
X82547623Y-62776929D01*
X82552475Y-62744219D01*
X82560509Y-62712143D01*
X82571649Y-62681009D01*
X82585787Y-62651116D01*
X82602787Y-62622753D01*
X82622485Y-62596193D01*
X82644692Y-62571692D01*
X82669193Y-62549485D01*
X82695753Y-62529787D01*
X82724116Y-62512787D01*
X82754009Y-62498649D01*
X82785143Y-62487509D01*
X82817219Y-62479475D01*
X82849929Y-62474623D01*
X82882956Y-62473000D01*
X83759044Y-62473000D01*
X83792071Y-62474623D01*
X83792071Y-62474623D01*
G37*
D12*
X83321000Y-63373000D03*
G04 #@! TD*
D11*
G04 #@! TO.C,R11*
G36*
X79962071Y-60558623D02*
X79994781Y-60563475D01*
X80026857Y-60571509D01*
X80057991Y-60582649D01*
X80087884Y-60596787D01*
X80116247Y-60613787D01*
X80142807Y-60633485D01*
X80167308Y-60655692D01*
X80189515Y-60680193D01*
X80209213Y-60706753D01*
X80226213Y-60735116D01*
X80240351Y-60765009D01*
X80251491Y-60796143D01*
X80259525Y-60828219D01*
X80264377Y-60860929D01*
X80266000Y-60893956D01*
X80266000Y-61770044D01*
X80264377Y-61803071D01*
X80259525Y-61835781D01*
X80251491Y-61867857D01*
X80240351Y-61898991D01*
X80226213Y-61928884D01*
X80209213Y-61957247D01*
X80189515Y-61983807D01*
X80167308Y-62008308D01*
X80142807Y-62030515D01*
X80116247Y-62050213D01*
X80087884Y-62067213D01*
X80057991Y-62081351D01*
X80026857Y-62092491D01*
X79994781Y-62100525D01*
X79962071Y-62105377D01*
X79929044Y-62107000D01*
X78802956Y-62107000D01*
X78769929Y-62105377D01*
X78737219Y-62100525D01*
X78705143Y-62092491D01*
X78674009Y-62081351D01*
X78644116Y-62067213D01*
X78615753Y-62050213D01*
X78589193Y-62030515D01*
X78564692Y-62008308D01*
X78542485Y-61983807D01*
X78522787Y-61957247D01*
X78505787Y-61928884D01*
X78491649Y-61898991D01*
X78480509Y-61867857D01*
X78472475Y-61835781D01*
X78467623Y-61803071D01*
X78466000Y-61770044D01*
X78466000Y-60893956D01*
X78467623Y-60860929D01*
X78472475Y-60828219D01*
X78480509Y-60796143D01*
X78491649Y-60765009D01*
X78505787Y-60735116D01*
X78522787Y-60706753D01*
X78542485Y-60680193D01*
X78564692Y-60655692D01*
X78589193Y-60633485D01*
X78615753Y-60613787D01*
X78644116Y-60596787D01*
X78674009Y-60582649D01*
X78705143Y-60571509D01*
X78737219Y-60563475D01*
X78769929Y-60558623D01*
X78802956Y-60557000D01*
X79929044Y-60557000D01*
X79962071Y-60558623D01*
X79962071Y-60558623D01*
G37*
D12*
X79366000Y-61332000D03*
D11*
G36*
X79962071Y-62608623D02*
X79994781Y-62613475D01*
X80026857Y-62621509D01*
X80057991Y-62632649D01*
X80087884Y-62646787D01*
X80116247Y-62663787D01*
X80142807Y-62683485D01*
X80167308Y-62705692D01*
X80189515Y-62730193D01*
X80209213Y-62756753D01*
X80226213Y-62785116D01*
X80240351Y-62815009D01*
X80251491Y-62846143D01*
X80259525Y-62878219D01*
X80264377Y-62910929D01*
X80266000Y-62943956D01*
X80266000Y-63820044D01*
X80264377Y-63853071D01*
X80259525Y-63885781D01*
X80251491Y-63917857D01*
X80240351Y-63948991D01*
X80226213Y-63978884D01*
X80209213Y-64007247D01*
X80189515Y-64033807D01*
X80167308Y-64058308D01*
X80142807Y-64080515D01*
X80116247Y-64100213D01*
X80087884Y-64117213D01*
X80057991Y-64131351D01*
X80026857Y-64142491D01*
X79994781Y-64150525D01*
X79962071Y-64155377D01*
X79929044Y-64157000D01*
X78802956Y-64157000D01*
X78769929Y-64155377D01*
X78737219Y-64150525D01*
X78705143Y-64142491D01*
X78674009Y-64131351D01*
X78644116Y-64117213D01*
X78615753Y-64100213D01*
X78589193Y-64080515D01*
X78564692Y-64058308D01*
X78542485Y-64033807D01*
X78522787Y-64007247D01*
X78505787Y-63978884D01*
X78491649Y-63948991D01*
X78480509Y-63917857D01*
X78472475Y-63885781D01*
X78467623Y-63853071D01*
X78466000Y-63820044D01*
X78466000Y-62943956D01*
X78467623Y-62910929D01*
X78472475Y-62878219D01*
X78480509Y-62846143D01*
X78491649Y-62815009D01*
X78505787Y-62785116D01*
X78522787Y-62756753D01*
X78542485Y-62730193D01*
X78564692Y-62705692D01*
X78589193Y-62683485D01*
X78615753Y-62663787D01*
X78644116Y-62646787D01*
X78674009Y-62632649D01*
X78705143Y-62621509D01*
X78737219Y-62613475D01*
X78769929Y-62608623D01*
X78802956Y-62607000D01*
X79929044Y-62607000D01*
X79962071Y-62608623D01*
X79962071Y-62608623D01*
G37*
D12*
X79366000Y-63382000D03*
G04 #@! TD*
D11*
G04 #@! TO.C,R1*
G36*
X86448071Y-40891623D02*
X86480781Y-40896475D01*
X86512857Y-40904509D01*
X86543991Y-40915649D01*
X86573884Y-40929787D01*
X86602247Y-40946787D01*
X86628807Y-40966485D01*
X86653308Y-40988692D01*
X86675515Y-41013193D01*
X86695213Y-41039753D01*
X86712213Y-41068116D01*
X86726351Y-41098009D01*
X86737491Y-41129143D01*
X86745525Y-41161219D01*
X86750377Y-41193929D01*
X86752000Y-41226956D01*
X86752000Y-42103044D01*
X86750377Y-42136071D01*
X86745525Y-42168781D01*
X86737491Y-42200857D01*
X86726351Y-42231991D01*
X86712213Y-42261884D01*
X86695213Y-42290247D01*
X86675515Y-42316807D01*
X86653308Y-42341308D01*
X86628807Y-42363515D01*
X86602247Y-42383213D01*
X86573884Y-42400213D01*
X86543991Y-42414351D01*
X86512857Y-42425491D01*
X86480781Y-42433525D01*
X86448071Y-42438377D01*
X86415044Y-42440000D01*
X85288956Y-42440000D01*
X85255929Y-42438377D01*
X85223219Y-42433525D01*
X85191143Y-42425491D01*
X85160009Y-42414351D01*
X85130116Y-42400213D01*
X85101753Y-42383213D01*
X85075193Y-42363515D01*
X85050692Y-42341308D01*
X85028485Y-42316807D01*
X85008787Y-42290247D01*
X84991787Y-42261884D01*
X84977649Y-42231991D01*
X84966509Y-42200857D01*
X84958475Y-42168781D01*
X84953623Y-42136071D01*
X84952000Y-42103044D01*
X84952000Y-41226956D01*
X84953623Y-41193929D01*
X84958475Y-41161219D01*
X84966509Y-41129143D01*
X84977649Y-41098009D01*
X84991787Y-41068116D01*
X85008787Y-41039753D01*
X85028485Y-41013193D01*
X85050692Y-40988692D01*
X85075193Y-40966485D01*
X85101753Y-40946787D01*
X85130116Y-40929787D01*
X85160009Y-40915649D01*
X85191143Y-40904509D01*
X85223219Y-40896475D01*
X85255929Y-40891623D01*
X85288956Y-40890000D01*
X86415044Y-40890000D01*
X86448071Y-40891623D01*
X86448071Y-40891623D01*
G37*
D12*
X85852000Y-41665000D03*
D11*
G36*
X86448071Y-38841623D02*
X86480781Y-38846475D01*
X86512857Y-38854509D01*
X86543991Y-38865649D01*
X86573884Y-38879787D01*
X86602247Y-38896787D01*
X86628807Y-38916485D01*
X86653308Y-38938692D01*
X86675515Y-38963193D01*
X86695213Y-38989753D01*
X86712213Y-39018116D01*
X86726351Y-39048009D01*
X86737491Y-39079143D01*
X86745525Y-39111219D01*
X86750377Y-39143929D01*
X86752000Y-39176956D01*
X86752000Y-40053044D01*
X86750377Y-40086071D01*
X86745525Y-40118781D01*
X86737491Y-40150857D01*
X86726351Y-40181991D01*
X86712213Y-40211884D01*
X86695213Y-40240247D01*
X86675515Y-40266807D01*
X86653308Y-40291308D01*
X86628807Y-40313515D01*
X86602247Y-40333213D01*
X86573884Y-40350213D01*
X86543991Y-40364351D01*
X86512857Y-40375491D01*
X86480781Y-40383525D01*
X86448071Y-40388377D01*
X86415044Y-40390000D01*
X85288956Y-40390000D01*
X85255929Y-40388377D01*
X85223219Y-40383525D01*
X85191143Y-40375491D01*
X85160009Y-40364351D01*
X85130116Y-40350213D01*
X85101753Y-40333213D01*
X85075193Y-40313515D01*
X85050692Y-40291308D01*
X85028485Y-40266807D01*
X85008787Y-40240247D01*
X84991787Y-40211884D01*
X84977649Y-40181991D01*
X84966509Y-40150857D01*
X84958475Y-40118781D01*
X84953623Y-40086071D01*
X84952000Y-40053044D01*
X84952000Y-39176956D01*
X84953623Y-39143929D01*
X84958475Y-39111219D01*
X84966509Y-39079143D01*
X84977649Y-39048009D01*
X84991787Y-39018116D01*
X85008787Y-38989753D01*
X85028485Y-38963193D01*
X85050692Y-38938692D01*
X85075193Y-38916485D01*
X85101753Y-38896787D01*
X85130116Y-38879787D01*
X85160009Y-38865649D01*
X85191143Y-38854509D01*
X85223219Y-38846475D01*
X85255929Y-38841623D01*
X85288956Y-38840000D01*
X86415044Y-38840000D01*
X86448071Y-38841623D01*
X86448071Y-38841623D01*
G37*
D12*
X85852000Y-39615000D03*
G04 #@! TD*
D17*
G04 #@! TO.C,MH1*
X62738000Y-120904000D03*
G04 #@! TD*
G04 #@! TO.C,MH2*
X71247000Y-120904000D03*
G04 #@! TD*
D14*
G04 #@! TO.C,JP3*
X71120000Y-110617000D03*
X72420000Y-110617000D03*
D13*
X69820000Y-110617000D03*
D11*
G36*
X70359018Y-109670843D02*
X70396537Y-109682224D01*
X70431114Y-109700706D01*
X70461421Y-109725579D01*
X70486294Y-109755886D01*
X70504776Y-109790463D01*
X70516157Y-109827982D01*
X70520000Y-109867000D01*
X70520000Y-110117000D01*
X70720000Y-110117000D01*
X70759018Y-110120843D01*
X70796537Y-110132224D01*
X70831114Y-110150706D01*
X70861421Y-110175579D01*
X70886294Y-110205886D01*
X70904776Y-110240463D01*
X70916157Y-110277982D01*
X70920000Y-110317000D01*
X70920000Y-110917000D01*
X70916157Y-110956018D01*
X70904776Y-110993537D01*
X70886294Y-111028114D01*
X70861421Y-111058421D01*
X70831114Y-111083294D01*
X70796537Y-111101776D01*
X70759018Y-111113157D01*
X70720000Y-111117000D01*
X70520000Y-111117000D01*
X70520000Y-111367000D01*
X70516157Y-111406018D01*
X70504776Y-111443537D01*
X70486294Y-111478114D01*
X70461421Y-111508421D01*
X70431114Y-111533294D01*
X70396537Y-111551776D01*
X70359018Y-111563157D01*
X70320000Y-111567000D01*
X69320000Y-111567000D01*
X69280982Y-111563157D01*
X69243463Y-111551776D01*
X69208886Y-111533294D01*
X69178579Y-111508421D01*
X69153706Y-111478114D01*
X69135224Y-111443537D01*
X69123843Y-111406018D01*
X69120000Y-111367000D01*
X69120000Y-109867000D01*
X69123843Y-109827982D01*
X69135224Y-109790463D01*
X69153706Y-109755886D01*
X69178579Y-109725579D01*
X69208886Y-109700706D01*
X69243463Y-109682224D01*
X69280982Y-109670843D01*
X69320000Y-109667000D01*
X70320000Y-109667000D01*
X70359018Y-109670843D01*
X70359018Y-109670843D01*
G37*
G04 #@! TD*
D14*
G04 #@! TO.C,JP2*
X71120000Y-113030000D03*
X72420000Y-113030000D03*
D13*
X69820000Y-113030000D03*
D11*
G36*
X70359018Y-112083843D02*
X70396537Y-112095224D01*
X70431114Y-112113706D01*
X70461421Y-112138579D01*
X70486294Y-112168886D01*
X70504776Y-112203463D01*
X70516157Y-112240982D01*
X70520000Y-112280000D01*
X70520000Y-112530000D01*
X70720000Y-112530000D01*
X70759018Y-112533843D01*
X70796537Y-112545224D01*
X70831114Y-112563706D01*
X70861421Y-112588579D01*
X70886294Y-112618886D01*
X70904776Y-112653463D01*
X70916157Y-112690982D01*
X70920000Y-112730000D01*
X70920000Y-113330000D01*
X70916157Y-113369018D01*
X70904776Y-113406537D01*
X70886294Y-113441114D01*
X70861421Y-113471421D01*
X70831114Y-113496294D01*
X70796537Y-113514776D01*
X70759018Y-113526157D01*
X70720000Y-113530000D01*
X70520000Y-113530000D01*
X70520000Y-113780000D01*
X70516157Y-113819018D01*
X70504776Y-113856537D01*
X70486294Y-113891114D01*
X70461421Y-113921421D01*
X70431114Y-113946294D01*
X70396537Y-113964776D01*
X70359018Y-113976157D01*
X70320000Y-113980000D01*
X69320000Y-113980000D01*
X69280982Y-113976157D01*
X69243463Y-113964776D01*
X69208886Y-113946294D01*
X69178579Y-113921421D01*
X69153706Y-113891114D01*
X69135224Y-113856537D01*
X69123843Y-113819018D01*
X69120000Y-113780000D01*
X69120000Y-112280000D01*
X69123843Y-112240982D01*
X69135224Y-112203463D01*
X69153706Y-112168886D01*
X69178579Y-112138579D01*
X69208886Y-112113706D01*
X69243463Y-112095224D01*
X69280982Y-112083843D01*
X69320000Y-112080000D01*
X70320000Y-112080000D01*
X70359018Y-112083843D01*
X70359018Y-112083843D01*
G37*
G04 #@! TD*
D14*
G04 #@! TO.C,JP1*
X71120000Y-115443000D03*
X72420000Y-115443000D03*
D13*
X69820000Y-115443000D03*
D11*
G36*
X70359018Y-114496843D02*
X70396537Y-114508224D01*
X70431114Y-114526706D01*
X70461421Y-114551579D01*
X70486294Y-114581886D01*
X70504776Y-114616463D01*
X70516157Y-114653982D01*
X70520000Y-114693000D01*
X70520000Y-114943000D01*
X70720000Y-114943000D01*
X70759018Y-114946843D01*
X70796537Y-114958224D01*
X70831114Y-114976706D01*
X70861421Y-115001579D01*
X70886294Y-115031886D01*
X70904776Y-115066463D01*
X70916157Y-115103982D01*
X70920000Y-115143000D01*
X70920000Y-115743000D01*
X70916157Y-115782018D01*
X70904776Y-115819537D01*
X70886294Y-115854114D01*
X70861421Y-115884421D01*
X70831114Y-115909294D01*
X70796537Y-115927776D01*
X70759018Y-115939157D01*
X70720000Y-115943000D01*
X70520000Y-115943000D01*
X70520000Y-116193000D01*
X70516157Y-116232018D01*
X70504776Y-116269537D01*
X70486294Y-116304114D01*
X70461421Y-116334421D01*
X70431114Y-116359294D01*
X70396537Y-116377776D01*
X70359018Y-116389157D01*
X70320000Y-116393000D01*
X69320000Y-116393000D01*
X69280982Y-116389157D01*
X69243463Y-116377776D01*
X69208886Y-116359294D01*
X69178579Y-116334421D01*
X69153706Y-116304114D01*
X69135224Y-116269537D01*
X69123843Y-116232018D01*
X69120000Y-116193000D01*
X69120000Y-114693000D01*
X69123843Y-114653982D01*
X69135224Y-114616463D01*
X69153706Y-114581886D01*
X69178579Y-114551579D01*
X69208886Y-114526706D01*
X69243463Y-114508224D01*
X69280982Y-114496843D01*
X69320000Y-114493000D01*
X70320000Y-114493000D01*
X70359018Y-114496843D01*
X70359018Y-114496843D01*
G37*
G04 #@! TD*
D16*
G04 #@! TO.C,J1*
X61976000Y-129413000D03*
X64516000Y-129413000D03*
X67056000Y-129413000D03*
X69596000Y-129413000D03*
D15*
X72136000Y-129413000D03*
G04 #@! TD*
D11*
G04 #@! TO.C,C1*
G36*
X64604071Y-113145623D02*
X64636781Y-113150475D01*
X64668857Y-113158509D01*
X64699991Y-113169649D01*
X64729884Y-113183787D01*
X64758247Y-113200787D01*
X64784807Y-113220485D01*
X64809308Y-113242692D01*
X64831515Y-113267193D01*
X64851213Y-113293753D01*
X64868213Y-113322116D01*
X64882351Y-113352009D01*
X64893491Y-113383143D01*
X64901525Y-113415219D01*
X64906377Y-113447929D01*
X64908000Y-113480956D01*
X64908000Y-114357044D01*
X64906377Y-114390071D01*
X64901525Y-114422781D01*
X64893491Y-114454857D01*
X64882351Y-114485991D01*
X64868213Y-114515884D01*
X64851213Y-114544247D01*
X64831515Y-114570807D01*
X64809308Y-114595308D01*
X64784807Y-114617515D01*
X64758247Y-114637213D01*
X64729884Y-114654213D01*
X64699991Y-114668351D01*
X64668857Y-114679491D01*
X64636781Y-114687525D01*
X64604071Y-114692377D01*
X64571044Y-114694000D01*
X63444956Y-114694000D01*
X63411929Y-114692377D01*
X63379219Y-114687525D01*
X63347143Y-114679491D01*
X63316009Y-114668351D01*
X63286116Y-114654213D01*
X63257753Y-114637213D01*
X63231193Y-114617515D01*
X63206692Y-114595308D01*
X63184485Y-114570807D01*
X63164787Y-114544247D01*
X63147787Y-114515884D01*
X63133649Y-114485991D01*
X63122509Y-114454857D01*
X63114475Y-114422781D01*
X63109623Y-114390071D01*
X63108000Y-114357044D01*
X63108000Y-113480956D01*
X63109623Y-113447929D01*
X63114475Y-113415219D01*
X63122509Y-113383143D01*
X63133649Y-113352009D01*
X63147787Y-113322116D01*
X63164787Y-113293753D01*
X63184485Y-113267193D01*
X63206692Y-113242692D01*
X63231193Y-113220485D01*
X63257753Y-113200787D01*
X63286116Y-113183787D01*
X63316009Y-113169649D01*
X63347143Y-113158509D01*
X63379219Y-113150475D01*
X63411929Y-113145623D01*
X63444956Y-113144000D01*
X64571044Y-113144000D01*
X64604071Y-113145623D01*
X64604071Y-113145623D01*
G37*
D12*
X64008000Y-113919000D03*
D11*
G36*
X64604071Y-111095623D02*
X64636781Y-111100475D01*
X64668857Y-111108509D01*
X64699991Y-111119649D01*
X64729884Y-111133787D01*
X64758247Y-111150787D01*
X64784807Y-111170485D01*
X64809308Y-111192692D01*
X64831515Y-111217193D01*
X64851213Y-111243753D01*
X64868213Y-111272116D01*
X64882351Y-111302009D01*
X64893491Y-111333143D01*
X64901525Y-111365219D01*
X64906377Y-111397929D01*
X64908000Y-111430956D01*
X64908000Y-112307044D01*
X64906377Y-112340071D01*
X64901525Y-112372781D01*
X64893491Y-112404857D01*
X64882351Y-112435991D01*
X64868213Y-112465884D01*
X64851213Y-112494247D01*
X64831515Y-112520807D01*
X64809308Y-112545308D01*
X64784807Y-112567515D01*
X64758247Y-112587213D01*
X64729884Y-112604213D01*
X64699991Y-112618351D01*
X64668857Y-112629491D01*
X64636781Y-112637525D01*
X64604071Y-112642377D01*
X64571044Y-112644000D01*
X63444956Y-112644000D01*
X63411929Y-112642377D01*
X63379219Y-112637525D01*
X63347143Y-112629491D01*
X63316009Y-112618351D01*
X63286116Y-112604213D01*
X63257753Y-112587213D01*
X63231193Y-112567515D01*
X63206692Y-112545308D01*
X63184485Y-112520807D01*
X63164787Y-112494247D01*
X63147787Y-112465884D01*
X63133649Y-112435991D01*
X63122509Y-112404857D01*
X63114475Y-112372781D01*
X63109623Y-112340071D01*
X63108000Y-112307044D01*
X63108000Y-111430956D01*
X63109623Y-111397929D01*
X63114475Y-111365219D01*
X63122509Y-111333143D01*
X63133649Y-111302009D01*
X63147787Y-111272116D01*
X63164787Y-111243753D01*
X63184485Y-111217193D01*
X63206692Y-111192692D01*
X63231193Y-111170485D01*
X63257753Y-111150787D01*
X63286116Y-111133787D01*
X63316009Y-111119649D01*
X63347143Y-111108509D01*
X63379219Y-111100475D01*
X63411929Y-111095623D01*
X63444956Y-111094000D01*
X64571044Y-111094000D01*
X64604071Y-111095623D01*
X64604071Y-111095623D01*
G37*
D12*
X64008000Y-111869000D03*
G04 #@! TD*
M02*
