G04 #@! TF.GenerationSoftware,KiCad,Pcbnew,6.0.0-rc1-unknown-r13609-32d262b0*
G04 #@! TF.CreationDate,2018-08-28T00:11:02+02:00*
G04 #@! TF.ProjectId,neOSensorV4_panel,6E654F53656E736F7256345F70616E65,v4*
G04 #@! TF.SameCoordinates,Original*
G04 #@! TF.FileFunction,Legend,Bot*
G04 #@! TF.FilePolarity,Positive*
%FSLAX46Y46*%
G04 Gerber Fmt 4.6, Leading zero omitted, Abs format (unit mm)*
G04 Created by KiCad (PCBNEW 6.0.0-rc1-unknown-r13609-32d262b0) date Tue Aug 28 00:11:02 2018*
%MOMM*%
%LPD*%
G01*
G04 APERTURE LIST*
%ADD10C,0.150000*%
%ADD11C,0.200000*%
%ADD12C,0.120000*%
G04 APERTURE END LIST*
D10*
X150947428Y-116713047D02*
X150947428Y-117474952D01*
X146978666Y-112315714D02*
X146978666Y-112791904D01*
X147264380Y-112220476D02*
X146264380Y-112553809D01*
X147264380Y-112887142D01*
X147264380Y-113744285D02*
X147264380Y-113172857D01*
X147264380Y-113458571D02*
X146264380Y-113458571D01*
X146407238Y-113363333D01*
X146502476Y-113268095D01*
X146550095Y-113172857D01*
X146978666Y-109902714D02*
X146978666Y-110378904D01*
X147264380Y-109807476D02*
X146264380Y-110140809D01*
X147264380Y-110474142D01*
X146359619Y-110759857D02*
X146312000Y-110807476D01*
X146264380Y-110902714D01*
X146264380Y-111140809D01*
X146312000Y-111236047D01*
X146359619Y-111283666D01*
X146454857Y-111331285D01*
X146550095Y-111331285D01*
X146692952Y-111283666D01*
X147264380Y-110712238D01*
X147264380Y-111331285D01*
X145200714Y-115991238D02*
X145200714Y-116372190D01*
X144867380Y-116134095D02*
X145724523Y-116134095D01*
X145819761Y-116181714D01*
X145867380Y-116276952D01*
X145867380Y-116372190D01*
X145819761Y-117086476D02*
X145867380Y-116991238D01*
X145867380Y-116800761D01*
X145819761Y-116705523D01*
X145724523Y-116657904D01*
X145343571Y-116657904D01*
X145248333Y-116705523D01*
X145200714Y-116800761D01*
X145200714Y-116991238D01*
X145248333Y-117086476D01*
X145343571Y-117134095D01*
X145438809Y-117134095D01*
X145534047Y-116657904D01*
X145867380Y-117562666D02*
X145200714Y-117562666D01*
X145295952Y-117562666D02*
X145248333Y-117610285D01*
X145200714Y-117705523D01*
X145200714Y-117848380D01*
X145248333Y-117943619D01*
X145343571Y-117991238D01*
X145867380Y-117991238D01*
X145343571Y-117991238D02*
X145248333Y-118038857D01*
X145200714Y-118134095D01*
X145200714Y-118276952D01*
X145248333Y-118372190D01*
X145343571Y-118419809D01*
X145867380Y-118419809D01*
X145200714Y-118896000D02*
X146200714Y-118896000D01*
X145248333Y-118896000D02*
X145200714Y-118991238D01*
X145200714Y-119181714D01*
X145248333Y-119276952D01*
X145295952Y-119324571D01*
X145391190Y-119372190D01*
X145676904Y-119372190D01*
X145772142Y-119324571D01*
X145819761Y-119276952D01*
X145867380Y-119181714D01*
X145867380Y-118991238D01*
X145819761Y-118896000D01*
X145819761Y-120181714D02*
X145867380Y-120086476D01*
X145867380Y-119896000D01*
X145819761Y-119800761D01*
X145724523Y-119753142D01*
X145343571Y-119753142D01*
X145248333Y-119800761D01*
X145200714Y-119896000D01*
X145200714Y-120086476D01*
X145248333Y-120181714D01*
X145343571Y-120229333D01*
X145438809Y-120229333D01*
X145534047Y-119753142D01*
X145867380Y-120657904D02*
X145200714Y-120657904D01*
X145391190Y-120657904D02*
X145295952Y-120705523D01*
X145248333Y-120753142D01*
X145200714Y-120848380D01*
X145200714Y-120943619D01*
X145867380Y-121705523D02*
X145343571Y-121705523D01*
X145248333Y-121657904D01*
X145200714Y-121562666D01*
X145200714Y-121372190D01*
X145248333Y-121276952D01*
X145819761Y-121705523D02*
X145867380Y-121610285D01*
X145867380Y-121372190D01*
X145819761Y-121276952D01*
X145724523Y-121229333D01*
X145629285Y-121229333D01*
X145534047Y-121276952D01*
X145486428Y-121372190D01*
X145486428Y-121610285D01*
X145438809Y-121705523D01*
X145200714Y-122038857D02*
X145200714Y-122419809D01*
X144867380Y-122181714D02*
X145724523Y-122181714D01*
X145819761Y-122229333D01*
X145867380Y-122324571D01*
X145867380Y-122419809D01*
X145200714Y-123181714D02*
X145867380Y-123181714D01*
X145200714Y-122753142D02*
X145724523Y-122753142D01*
X145819761Y-122800761D01*
X145867380Y-122896000D01*
X145867380Y-123038857D01*
X145819761Y-123134095D01*
X145772142Y-123181714D01*
X145867380Y-123657904D02*
X145200714Y-123657904D01*
X145391190Y-123657904D02*
X145295952Y-123705523D01*
X145248333Y-123753142D01*
X145200714Y-123848380D01*
X145200714Y-123943619D01*
X145819761Y-124657904D02*
X145867380Y-124562666D01*
X145867380Y-124372190D01*
X145819761Y-124276952D01*
X145724523Y-124229333D01*
X145343571Y-124229333D01*
X145248333Y-124276952D01*
X145200714Y-124372190D01*
X145200714Y-124562666D01*
X145248333Y-124657904D01*
X145343571Y-124705523D01*
X145438809Y-124705523D01*
X145534047Y-124229333D01*
X148534428Y-116713047D02*
X148534428Y-117474952D01*
X148915380Y-117094000D02*
X148153476Y-117094000D01*
X146978666Y-114728715D02*
X146978666Y-115204905D01*
X147264380Y-114633477D02*
X146264380Y-114966810D01*
X147264380Y-115300143D01*
X146264380Y-115823953D02*
X146264380Y-115919191D01*
X146312000Y-116014429D01*
X146359619Y-116062048D01*
X146454857Y-116109667D01*
X146645333Y-116157286D01*
X146883428Y-116157286D01*
X147073904Y-116109667D01*
X147169142Y-116062048D01*
X147216761Y-116014429D01*
X147264380Y-115919191D01*
X147264380Y-115823953D01*
X147216761Y-115728715D01*
X147169142Y-115681096D01*
X147073904Y-115633477D01*
X146883428Y-115585858D01*
X146645333Y-115585858D01*
X146454857Y-115633477D01*
X146359619Y-115681096D01*
X146312000Y-115728715D01*
X146264380Y-115823953D01*
X131230666Y-114728715D02*
X131230666Y-115204905D01*
X131516380Y-114633477D02*
X130516380Y-114966810D01*
X131516380Y-115300143D01*
X130516380Y-115823953D02*
X130516380Y-115919191D01*
X130564000Y-116014429D01*
X130611619Y-116062048D01*
X130706857Y-116109667D01*
X130897333Y-116157286D01*
X131135428Y-116157286D01*
X131325904Y-116109667D01*
X131421142Y-116062048D01*
X131468761Y-116014429D01*
X131516380Y-115919191D01*
X131516380Y-115823953D01*
X131468761Y-115728715D01*
X131421142Y-115681096D01*
X131325904Y-115633477D01*
X131135428Y-115585858D01*
X130897333Y-115585858D01*
X130706857Y-115633477D01*
X130611619Y-115681096D01*
X130564000Y-115728715D01*
X130516380Y-115823953D01*
X135199428Y-116713047D02*
X135199428Y-117474952D01*
X131230666Y-109902714D02*
X131230666Y-110378904D01*
X131516380Y-109807476D02*
X130516380Y-110140809D01*
X131516380Y-110474142D01*
X130611619Y-110759857D02*
X130564000Y-110807476D01*
X130516380Y-110902714D01*
X130516380Y-111140809D01*
X130564000Y-111236047D01*
X130611619Y-111283666D01*
X130706857Y-111331285D01*
X130802095Y-111331285D01*
X130944952Y-111283666D01*
X131516380Y-110712238D01*
X131516380Y-111331285D01*
X131230666Y-112315714D02*
X131230666Y-112791904D01*
X131516380Y-112220476D02*
X130516380Y-112553809D01*
X131516380Y-112887142D01*
X131516380Y-113744285D02*
X131516380Y-113172857D01*
X131516380Y-113458571D02*
X130516380Y-113458571D01*
X130659238Y-113363333D01*
X130754476Y-113268095D01*
X130802095Y-113172857D01*
X129452714Y-115991238D02*
X129452714Y-116372190D01*
X129119380Y-116134095D02*
X129976523Y-116134095D01*
X130071761Y-116181714D01*
X130119380Y-116276952D01*
X130119380Y-116372190D01*
X130071761Y-117086476D02*
X130119380Y-116991238D01*
X130119380Y-116800761D01*
X130071761Y-116705523D01*
X129976523Y-116657904D01*
X129595571Y-116657904D01*
X129500333Y-116705523D01*
X129452714Y-116800761D01*
X129452714Y-116991238D01*
X129500333Y-117086476D01*
X129595571Y-117134095D01*
X129690809Y-117134095D01*
X129786047Y-116657904D01*
X130119380Y-117562666D02*
X129452714Y-117562666D01*
X129547952Y-117562666D02*
X129500333Y-117610285D01*
X129452714Y-117705523D01*
X129452714Y-117848380D01*
X129500333Y-117943619D01*
X129595571Y-117991238D01*
X130119380Y-117991238D01*
X129595571Y-117991238D02*
X129500333Y-118038857D01*
X129452714Y-118134095D01*
X129452714Y-118276952D01*
X129500333Y-118372190D01*
X129595571Y-118419809D01*
X130119380Y-118419809D01*
X129452714Y-118896000D02*
X130452714Y-118896000D01*
X129500333Y-118896000D02*
X129452714Y-118991238D01*
X129452714Y-119181714D01*
X129500333Y-119276952D01*
X129547952Y-119324571D01*
X129643190Y-119372190D01*
X129928904Y-119372190D01*
X130024142Y-119324571D01*
X130071761Y-119276952D01*
X130119380Y-119181714D01*
X130119380Y-118991238D01*
X130071761Y-118896000D01*
X130071761Y-120181714D02*
X130119380Y-120086476D01*
X130119380Y-119896000D01*
X130071761Y-119800761D01*
X129976523Y-119753142D01*
X129595571Y-119753142D01*
X129500333Y-119800761D01*
X129452714Y-119896000D01*
X129452714Y-120086476D01*
X129500333Y-120181714D01*
X129595571Y-120229333D01*
X129690809Y-120229333D01*
X129786047Y-119753142D01*
X130119380Y-120657904D02*
X129452714Y-120657904D01*
X129643190Y-120657904D02*
X129547952Y-120705523D01*
X129500333Y-120753142D01*
X129452714Y-120848380D01*
X129452714Y-120943619D01*
X130119380Y-121705523D02*
X129595571Y-121705523D01*
X129500333Y-121657904D01*
X129452714Y-121562666D01*
X129452714Y-121372190D01*
X129500333Y-121276952D01*
X130071761Y-121705523D02*
X130119380Y-121610285D01*
X130119380Y-121372190D01*
X130071761Y-121276952D01*
X129976523Y-121229333D01*
X129881285Y-121229333D01*
X129786047Y-121276952D01*
X129738428Y-121372190D01*
X129738428Y-121610285D01*
X129690809Y-121705523D01*
X129452714Y-122038857D02*
X129452714Y-122419809D01*
X129119380Y-122181714D02*
X129976523Y-122181714D01*
X130071761Y-122229333D01*
X130119380Y-122324571D01*
X130119380Y-122419809D01*
X129452714Y-123181714D02*
X130119380Y-123181714D01*
X129452714Y-122753142D02*
X129976523Y-122753142D01*
X130071761Y-122800761D01*
X130119380Y-122896000D01*
X130119380Y-123038857D01*
X130071761Y-123134095D01*
X130024142Y-123181714D01*
X130119380Y-123657904D02*
X129452714Y-123657904D01*
X129643190Y-123657904D02*
X129547952Y-123705523D01*
X129500333Y-123753142D01*
X129452714Y-123848380D01*
X129452714Y-123943619D01*
X130071761Y-124657904D02*
X130119380Y-124562666D01*
X130119380Y-124372190D01*
X130071761Y-124276952D01*
X129976523Y-124229333D01*
X129595571Y-124229333D01*
X129500333Y-124276952D01*
X129452714Y-124372190D01*
X129452714Y-124562666D01*
X129500333Y-124657904D01*
X129595571Y-124705523D01*
X129690809Y-124705523D01*
X129786047Y-124229333D01*
X132786428Y-116713047D02*
X132786428Y-117474952D01*
X133167380Y-117094000D02*
X132405476Y-117094000D01*
X115482666Y-112315714D02*
X115482666Y-112791904D01*
X115768380Y-112220476D02*
X114768380Y-112553809D01*
X115768380Y-112887142D01*
X115768380Y-113744285D02*
X115768380Y-113172857D01*
X115768380Y-113458571D02*
X114768380Y-113458571D01*
X114911238Y-113363333D01*
X115006476Y-113268095D01*
X115054095Y-113172857D01*
X113704714Y-115991238D02*
X113704714Y-116372190D01*
X113371380Y-116134095D02*
X114228523Y-116134095D01*
X114323761Y-116181714D01*
X114371380Y-116276952D01*
X114371380Y-116372190D01*
X114323761Y-117086476D02*
X114371380Y-116991238D01*
X114371380Y-116800761D01*
X114323761Y-116705523D01*
X114228523Y-116657904D01*
X113847571Y-116657904D01*
X113752333Y-116705523D01*
X113704714Y-116800761D01*
X113704714Y-116991238D01*
X113752333Y-117086476D01*
X113847571Y-117134095D01*
X113942809Y-117134095D01*
X114038047Y-116657904D01*
X114371380Y-117562666D02*
X113704714Y-117562666D01*
X113799952Y-117562666D02*
X113752333Y-117610285D01*
X113704714Y-117705523D01*
X113704714Y-117848380D01*
X113752333Y-117943619D01*
X113847571Y-117991238D01*
X114371380Y-117991238D01*
X113847571Y-117991238D02*
X113752333Y-118038857D01*
X113704714Y-118134095D01*
X113704714Y-118276952D01*
X113752333Y-118372190D01*
X113847571Y-118419809D01*
X114371380Y-118419809D01*
X113704714Y-118896000D02*
X114704714Y-118896000D01*
X113752333Y-118896000D02*
X113704714Y-118991238D01*
X113704714Y-119181714D01*
X113752333Y-119276952D01*
X113799952Y-119324571D01*
X113895190Y-119372190D01*
X114180904Y-119372190D01*
X114276142Y-119324571D01*
X114323761Y-119276952D01*
X114371380Y-119181714D01*
X114371380Y-118991238D01*
X114323761Y-118896000D01*
X114323761Y-120181714D02*
X114371380Y-120086476D01*
X114371380Y-119896000D01*
X114323761Y-119800761D01*
X114228523Y-119753142D01*
X113847571Y-119753142D01*
X113752333Y-119800761D01*
X113704714Y-119896000D01*
X113704714Y-120086476D01*
X113752333Y-120181714D01*
X113847571Y-120229333D01*
X113942809Y-120229333D01*
X114038047Y-119753142D01*
X114371380Y-120657904D02*
X113704714Y-120657904D01*
X113895190Y-120657904D02*
X113799952Y-120705523D01*
X113752333Y-120753142D01*
X113704714Y-120848380D01*
X113704714Y-120943619D01*
X114371380Y-121705523D02*
X113847571Y-121705523D01*
X113752333Y-121657904D01*
X113704714Y-121562666D01*
X113704714Y-121372190D01*
X113752333Y-121276952D01*
X114323761Y-121705523D02*
X114371380Y-121610285D01*
X114371380Y-121372190D01*
X114323761Y-121276952D01*
X114228523Y-121229333D01*
X114133285Y-121229333D01*
X114038047Y-121276952D01*
X113990428Y-121372190D01*
X113990428Y-121610285D01*
X113942809Y-121705523D01*
X113704714Y-122038857D02*
X113704714Y-122419809D01*
X113371380Y-122181714D02*
X114228523Y-122181714D01*
X114323761Y-122229333D01*
X114371380Y-122324571D01*
X114371380Y-122419809D01*
X113704714Y-123181714D02*
X114371380Y-123181714D01*
X113704714Y-122753142D02*
X114228523Y-122753142D01*
X114323761Y-122800761D01*
X114371380Y-122896000D01*
X114371380Y-123038857D01*
X114323761Y-123134095D01*
X114276142Y-123181714D01*
X114371380Y-123657904D02*
X113704714Y-123657904D01*
X113895190Y-123657904D02*
X113799952Y-123705523D01*
X113752333Y-123753142D01*
X113704714Y-123848380D01*
X113704714Y-123943619D01*
X114323761Y-124657904D02*
X114371380Y-124562666D01*
X114371380Y-124372190D01*
X114323761Y-124276952D01*
X114228523Y-124229333D01*
X113847571Y-124229333D01*
X113752333Y-124276952D01*
X113704714Y-124372190D01*
X113704714Y-124562666D01*
X113752333Y-124657904D01*
X113847571Y-124705523D01*
X113942809Y-124705523D01*
X114038047Y-124229333D01*
X115482666Y-109902714D02*
X115482666Y-110378904D01*
X115768380Y-109807476D02*
X114768380Y-110140809D01*
X115768380Y-110474142D01*
X114863619Y-110759857D02*
X114816000Y-110807476D01*
X114768380Y-110902714D01*
X114768380Y-111140809D01*
X114816000Y-111236047D01*
X114863619Y-111283666D01*
X114958857Y-111331285D01*
X115054095Y-111331285D01*
X115196952Y-111283666D01*
X115768380Y-110712238D01*
X115768380Y-111331285D01*
X117038428Y-116713047D02*
X117038428Y-117474952D01*
X117419380Y-117094000D02*
X116657476Y-117094000D01*
X115482666Y-114728715D02*
X115482666Y-115204905D01*
X115768380Y-114633477D02*
X114768380Y-114966810D01*
X115768380Y-115300143D01*
X114768380Y-115823953D02*
X114768380Y-115919191D01*
X114816000Y-116014429D01*
X114863619Y-116062048D01*
X114958857Y-116109667D01*
X115149333Y-116157286D01*
X115387428Y-116157286D01*
X115577904Y-116109667D01*
X115673142Y-116062048D01*
X115720761Y-116014429D01*
X115768380Y-115919191D01*
X115768380Y-115823953D01*
X115720761Y-115728715D01*
X115673142Y-115681096D01*
X115577904Y-115633477D01*
X115387428Y-115585858D01*
X115149333Y-115585858D01*
X114958857Y-115633477D01*
X114863619Y-115681096D01*
X114816000Y-115728715D01*
X114768380Y-115823953D01*
X119451428Y-116713047D02*
X119451428Y-117474952D01*
X99734666Y-112315714D02*
X99734666Y-112791904D01*
X100020380Y-112220476D02*
X99020380Y-112553809D01*
X100020380Y-112887142D01*
X100020380Y-113744285D02*
X100020380Y-113172857D01*
X100020380Y-113458571D02*
X99020380Y-113458571D01*
X99163238Y-113363333D01*
X99258476Y-113268095D01*
X99306095Y-113172857D01*
X97956714Y-115991238D02*
X97956714Y-116372190D01*
X97623380Y-116134095D02*
X98480523Y-116134095D01*
X98575761Y-116181714D01*
X98623380Y-116276952D01*
X98623380Y-116372190D01*
X98575761Y-117086476D02*
X98623380Y-116991238D01*
X98623380Y-116800761D01*
X98575761Y-116705523D01*
X98480523Y-116657904D01*
X98099571Y-116657904D01*
X98004333Y-116705523D01*
X97956714Y-116800761D01*
X97956714Y-116991238D01*
X98004333Y-117086476D01*
X98099571Y-117134095D01*
X98194809Y-117134095D01*
X98290047Y-116657904D01*
X98623380Y-117562666D02*
X97956714Y-117562666D01*
X98051952Y-117562666D02*
X98004333Y-117610285D01*
X97956714Y-117705523D01*
X97956714Y-117848380D01*
X98004333Y-117943619D01*
X98099571Y-117991238D01*
X98623380Y-117991238D01*
X98099571Y-117991238D02*
X98004333Y-118038857D01*
X97956714Y-118134095D01*
X97956714Y-118276952D01*
X98004333Y-118372190D01*
X98099571Y-118419809D01*
X98623380Y-118419809D01*
X97956714Y-118896000D02*
X98956714Y-118896000D01*
X98004333Y-118896000D02*
X97956714Y-118991238D01*
X97956714Y-119181714D01*
X98004333Y-119276952D01*
X98051952Y-119324571D01*
X98147190Y-119372190D01*
X98432904Y-119372190D01*
X98528142Y-119324571D01*
X98575761Y-119276952D01*
X98623380Y-119181714D01*
X98623380Y-118991238D01*
X98575761Y-118896000D01*
X98575761Y-120181714D02*
X98623380Y-120086476D01*
X98623380Y-119896000D01*
X98575761Y-119800761D01*
X98480523Y-119753142D01*
X98099571Y-119753142D01*
X98004333Y-119800761D01*
X97956714Y-119896000D01*
X97956714Y-120086476D01*
X98004333Y-120181714D01*
X98099571Y-120229333D01*
X98194809Y-120229333D01*
X98290047Y-119753142D01*
X98623380Y-120657904D02*
X97956714Y-120657904D01*
X98147190Y-120657904D02*
X98051952Y-120705523D01*
X98004333Y-120753142D01*
X97956714Y-120848380D01*
X97956714Y-120943619D01*
X98623380Y-121705523D02*
X98099571Y-121705523D01*
X98004333Y-121657904D01*
X97956714Y-121562666D01*
X97956714Y-121372190D01*
X98004333Y-121276952D01*
X98575761Y-121705523D02*
X98623380Y-121610285D01*
X98623380Y-121372190D01*
X98575761Y-121276952D01*
X98480523Y-121229333D01*
X98385285Y-121229333D01*
X98290047Y-121276952D01*
X98242428Y-121372190D01*
X98242428Y-121610285D01*
X98194809Y-121705523D01*
X97956714Y-122038857D02*
X97956714Y-122419809D01*
X97623380Y-122181714D02*
X98480523Y-122181714D01*
X98575761Y-122229333D01*
X98623380Y-122324571D01*
X98623380Y-122419809D01*
X97956714Y-123181714D02*
X98623380Y-123181714D01*
X97956714Y-122753142D02*
X98480523Y-122753142D01*
X98575761Y-122800761D01*
X98623380Y-122896000D01*
X98623380Y-123038857D01*
X98575761Y-123134095D01*
X98528142Y-123181714D01*
X98623380Y-123657904D02*
X97956714Y-123657904D01*
X98147190Y-123657904D02*
X98051952Y-123705523D01*
X98004333Y-123753142D01*
X97956714Y-123848380D01*
X97956714Y-123943619D01*
X98575761Y-124657904D02*
X98623380Y-124562666D01*
X98623380Y-124372190D01*
X98575761Y-124276952D01*
X98480523Y-124229333D01*
X98099571Y-124229333D01*
X98004333Y-124276952D01*
X97956714Y-124372190D01*
X97956714Y-124562666D01*
X98004333Y-124657904D01*
X98099571Y-124705523D01*
X98194809Y-124705523D01*
X98290047Y-124229333D01*
X103703428Y-116713047D02*
X103703428Y-117474952D01*
X99734666Y-114728715D02*
X99734666Y-115204905D01*
X100020380Y-114633477D02*
X99020380Y-114966810D01*
X100020380Y-115300143D01*
X99020380Y-115823953D02*
X99020380Y-115919191D01*
X99068000Y-116014429D01*
X99115619Y-116062048D01*
X99210857Y-116109667D01*
X99401333Y-116157286D01*
X99639428Y-116157286D01*
X99829904Y-116109667D01*
X99925142Y-116062048D01*
X99972761Y-116014429D01*
X100020380Y-115919191D01*
X100020380Y-115823953D01*
X99972761Y-115728715D01*
X99925142Y-115681096D01*
X99829904Y-115633477D01*
X99639428Y-115585858D01*
X99401333Y-115585858D01*
X99210857Y-115633477D01*
X99115619Y-115681096D01*
X99068000Y-115728715D01*
X99020380Y-115823953D01*
X101290428Y-116713047D02*
X101290428Y-117474952D01*
X101671380Y-117094000D02*
X100909476Y-117094000D01*
X99734666Y-109902714D02*
X99734666Y-110378904D01*
X100020380Y-109807476D02*
X99020380Y-110140809D01*
X100020380Y-110474142D01*
X99115619Y-110759857D02*
X99068000Y-110807476D01*
X99020380Y-110902714D01*
X99020380Y-111140809D01*
X99068000Y-111236047D01*
X99115619Y-111283666D01*
X99210857Y-111331285D01*
X99306095Y-111331285D01*
X99448952Y-111283666D01*
X100020380Y-110712238D01*
X100020380Y-111331285D01*
X85542428Y-116713047D02*
X85542428Y-117474952D01*
X85923380Y-117094000D02*
X85161476Y-117094000D01*
X87955428Y-116713047D02*
X87955428Y-117474952D01*
X83986666Y-109902714D02*
X83986666Y-110378904D01*
X84272380Y-109807476D02*
X83272380Y-110140809D01*
X84272380Y-110474142D01*
X83367619Y-110759857D02*
X83320000Y-110807476D01*
X83272380Y-110902714D01*
X83272380Y-111140809D01*
X83320000Y-111236047D01*
X83367619Y-111283666D01*
X83462857Y-111331285D01*
X83558095Y-111331285D01*
X83700952Y-111283666D01*
X84272380Y-110712238D01*
X84272380Y-111331285D01*
X83986666Y-114728715D02*
X83986666Y-115204905D01*
X84272380Y-114633477D02*
X83272380Y-114966810D01*
X84272380Y-115300143D01*
X83272380Y-115823953D02*
X83272380Y-115919191D01*
X83320000Y-116014429D01*
X83367619Y-116062048D01*
X83462857Y-116109667D01*
X83653333Y-116157286D01*
X83891428Y-116157286D01*
X84081904Y-116109667D01*
X84177142Y-116062048D01*
X84224761Y-116014429D01*
X84272380Y-115919191D01*
X84272380Y-115823953D01*
X84224761Y-115728715D01*
X84177142Y-115681096D01*
X84081904Y-115633477D01*
X83891428Y-115585858D01*
X83653333Y-115585858D01*
X83462857Y-115633477D01*
X83367619Y-115681096D01*
X83320000Y-115728715D01*
X83272380Y-115823953D01*
X82208714Y-115991238D02*
X82208714Y-116372190D01*
X81875380Y-116134095D02*
X82732523Y-116134095D01*
X82827761Y-116181714D01*
X82875380Y-116276952D01*
X82875380Y-116372190D01*
X82827761Y-117086476D02*
X82875380Y-116991238D01*
X82875380Y-116800761D01*
X82827761Y-116705523D01*
X82732523Y-116657904D01*
X82351571Y-116657904D01*
X82256333Y-116705523D01*
X82208714Y-116800761D01*
X82208714Y-116991238D01*
X82256333Y-117086476D01*
X82351571Y-117134095D01*
X82446809Y-117134095D01*
X82542047Y-116657904D01*
X82875380Y-117562666D02*
X82208714Y-117562666D01*
X82303952Y-117562666D02*
X82256333Y-117610285D01*
X82208714Y-117705523D01*
X82208714Y-117848380D01*
X82256333Y-117943619D01*
X82351571Y-117991238D01*
X82875380Y-117991238D01*
X82351571Y-117991238D02*
X82256333Y-118038857D01*
X82208714Y-118134095D01*
X82208714Y-118276952D01*
X82256333Y-118372190D01*
X82351571Y-118419809D01*
X82875380Y-118419809D01*
X82208714Y-118896000D02*
X83208714Y-118896000D01*
X82256333Y-118896000D02*
X82208714Y-118991238D01*
X82208714Y-119181714D01*
X82256333Y-119276952D01*
X82303952Y-119324571D01*
X82399190Y-119372190D01*
X82684904Y-119372190D01*
X82780142Y-119324571D01*
X82827761Y-119276952D01*
X82875380Y-119181714D01*
X82875380Y-118991238D01*
X82827761Y-118896000D01*
X82827761Y-120181714D02*
X82875380Y-120086476D01*
X82875380Y-119896000D01*
X82827761Y-119800761D01*
X82732523Y-119753142D01*
X82351571Y-119753142D01*
X82256333Y-119800761D01*
X82208714Y-119896000D01*
X82208714Y-120086476D01*
X82256333Y-120181714D01*
X82351571Y-120229333D01*
X82446809Y-120229333D01*
X82542047Y-119753142D01*
X82875380Y-120657904D02*
X82208714Y-120657904D01*
X82399190Y-120657904D02*
X82303952Y-120705523D01*
X82256333Y-120753142D01*
X82208714Y-120848380D01*
X82208714Y-120943619D01*
X82875380Y-121705523D02*
X82351571Y-121705523D01*
X82256333Y-121657904D01*
X82208714Y-121562666D01*
X82208714Y-121372190D01*
X82256333Y-121276952D01*
X82827761Y-121705523D02*
X82875380Y-121610285D01*
X82875380Y-121372190D01*
X82827761Y-121276952D01*
X82732523Y-121229333D01*
X82637285Y-121229333D01*
X82542047Y-121276952D01*
X82494428Y-121372190D01*
X82494428Y-121610285D01*
X82446809Y-121705523D01*
X82208714Y-122038857D02*
X82208714Y-122419809D01*
X81875380Y-122181714D02*
X82732523Y-122181714D01*
X82827761Y-122229333D01*
X82875380Y-122324571D01*
X82875380Y-122419809D01*
X82208714Y-123181714D02*
X82875380Y-123181714D01*
X82208714Y-122753142D02*
X82732523Y-122753142D01*
X82827761Y-122800761D01*
X82875380Y-122896000D01*
X82875380Y-123038857D01*
X82827761Y-123134095D01*
X82780142Y-123181714D01*
X82875380Y-123657904D02*
X82208714Y-123657904D01*
X82399190Y-123657904D02*
X82303952Y-123705523D01*
X82256333Y-123753142D01*
X82208714Y-123848380D01*
X82208714Y-123943619D01*
X82827761Y-124657904D02*
X82875380Y-124562666D01*
X82875380Y-124372190D01*
X82827761Y-124276952D01*
X82732523Y-124229333D01*
X82351571Y-124229333D01*
X82256333Y-124276952D01*
X82208714Y-124372190D01*
X82208714Y-124562666D01*
X82256333Y-124657904D01*
X82351571Y-124705523D01*
X82446809Y-124705523D01*
X82542047Y-124229333D01*
X83986666Y-112315714D02*
X83986666Y-112791904D01*
X84272380Y-112220476D02*
X83272380Y-112553809D01*
X84272380Y-112887142D01*
X84272380Y-113744285D02*
X84272380Y-113172857D01*
X84272380Y-113458571D02*
X83272380Y-113458571D01*
X83415238Y-113363333D01*
X83510476Y-113268095D01*
X83558095Y-113172857D01*
D11*
X113082285Y-89176428D02*
X113082285Y-88176428D01*
X113082285Y-89033571D02*
X113153714Y-89105000D01*
X113296571Y-89176428D01*
X113510857Y-89176428D01*
X113653714Y-89105000D01*
X113725142Y-88962142D01*
X113725142Y-88176428D01*
X115010857Y-88247857D02*
X114868000Y-88176428D01*
X114582285Y-88176428D01*
X114439428Y-88247857D01*
X114368000Y-88390714D01*
X114368000Y-88962142D01*
X114439428Y-89105000D01*
X114582285Y-89176428D01*
X114868000Y-89176428D01*
X115010857Y-89105000D01*
X115082285Y-88962142D01*
X115082285Y-88819285D01*
X114368000Y-88676428D01*
X116010857Y-89676428D02*
X116296571Y-89676428D01*
X116439428Y-89605000D01*
X116582285Y-89462142D01*
X116653714Y-89176428D01*
X116653714Y-88676428D01*
X116582285Y-88390714D01*
X116439428Y-88247857D01*
X116296571Y-88176428D01*
X116010857Y-88176428D01*
X115868000Y-88247857D01*
X115725142Y-88390714D01*
X115653714Y-88676428D01*
X115653714Y-89176428D01*
X115725142Y-89462142D01*
X115868000Y-89605000D01*
X116010857Y-89676428D01*
X117225142Y-88247857D02*
X117439428Y-88176428D01*
X117796571Y-88176428D01*
X117939428Y-88247857D01*
X118010857Y-88319285D01*
X118082285Y-88462142D01*
X118082285Y-88605000D01*
X118010857Y-88747857D01*
X117939428Y-88819285D01*
X117796571Y-88890714D01*
X117510857Y-88962142D01*
X117367999Y-89033571D01*
X117296571Y-89105000D01*
X117225142Y-89247857D01*
X117225142Y-89390714D01*
X117296571Y-89533571D01*
X117367999Y-89605000D01*
X117510857Y-89676428D01*
X117868000Y-89676428D01*
X118082285Y-89605000D01*
X119296571Y-88247857D02*
X119153714Y-88176428D01*
X118867999Y-88176428D01*
X118725142Y-88247857D01*
X118653714Y-88390714D01*
X118653714Y-88962142D01*
X118725142Y-89105000D01*
X118867999Y-89176428D01*
X119153714Y-89176428D01*
X119296571Y-89105000D01*
X119367999Y-88962142D01*
X119367999Y-88819285D01*
X118653714Y-88676428D01*
X120010857Y-89176428D02*
X120010857Y-88176428D01*
X120010857Y-89033571D02*
X120082285Y-89105000D01*
X120225142Y-89176428D01*
X120439428Y-89176428D01*
X120582285Y-89105000D01*
X120653714Y-88962142D01*
X120653714Y-88176428D01*
X121296571Y-88247857D02*
X121439428Y-88176428D01*
X121725142Y-88176428D01*
X121867999Y-88247857D01*
X121939428Y-88390714D01*
X121939428Y-88462142D01*
X121867999Y-88605000D01*
X121725142Y-88676428D01*
X121510857Y-88676428D01*
X121367999Y-88747857D01*
X121296571Y-88890714D01*
X121296571Y-88962142D01*
X121367999Y-89105000D01*
X121510857Y-89176428D01*
X121725142Y-89176428D01*
X121867999Y-89105000D01*
X122796571Y-88176428D02*
X122653714Y-88247857D01*
X122582285Y-88319285D01*
X122510857Y-88462142D01*
X122510857Y-88890714D01*
X122582285Y-89033571D01*
X122653714Y-89105000D01*
X122796571Y-89176428D01*
X123010857Y-89176428D01*
X123153714Y-89105000D01*
X123225142Y-89033571D01*
X123296571Y-88890714D01*
X123296571Y-88462142D01*
X123225142Y-88319285D01*
X123153714Y-88247857D01*
X123010857Y-88176428D01*
X122796571Y-88176428D01*
X123939428Y-88176428D02*
X123939428Y-89176428D01*
X123939428Y-88890714D02*
X124010857Y-89033571D01*
X124082285Y-89105000D01*
X124225142Y-89176428D01*
X124367999Y-89176428D01*
X115118000Y-86726428D02*
X115118000Y-85226428D01*
X115118000Y-86655000D02*
X115260857Y-86726428D01*
X115546571Y-86726428D01*
X115689428Y-86655000D01*
X115760857Y-86583571D01*
X115832285Y-86440714D01*
X115832285Y-86012142D01*
X115760857Y-85869285D01*
X115689428Y-85797857D01*
X115546571Y-85726428D01*
X115260857Y-85726428D01*
X115118000Y-85797857D01*
X117118000Y-85797857D02*
X116975142Y-85726428D01*
X116689428Y-85726428D01*
X116546571Y-85797857D01*
X116475142Y-85869285D01*
X116403714Y-86012142D01*
X116403714Y-86440714D01*
X116475142Y-86583571D01*
X116546571Y-86655000D01*
X116689428Y-86726428D01*
X116975142Y-86726428D01*
X117118000Y-86655000D01*
X117760857Y-85726428D02*
X117760857Y-87226428D01*
X117760857Y-86655000D02*
X117903714Y-86726428D01*
X118189428Y-86726428D01*
X118332285Y-86655000D01*
X118403714Y-86583571D01*
X118475142Y-86440714D01*
X118475142Y-86012142D01*
X118403714Y-85869285D01*
X118332285Y-85797857D01*
X118189428Y-85726428D01*
X117903714Y-85726428D01*
X117760857Y-85797857D01*
X120118000Y-86726428D02*
X120475142Y-85726428D01*
X120832285Y-86726428D01*
X122046571Y-86726428D02*
X122046571Y-85726428D01*
X121689428Y-87297857D02*
X121332285Y-86226428D01*
X122260857Y-86226428D01*
D10*
X124586952Y-90876428D02*
X123825047Y-90876428D01*
X131317952Y-89225428D02*
X130556047Y-89225428D01*
X87376047Y-87177571D02*
X88137952Y-87177571D01*
X94107047Y-85526571D02*
X94868952Y-85526571D01*
D11*
X105611714Y-87226571D02*
X105611714Y-88226571D01*
X105611714Y-87369428D02*
X105540285Y-87298000D01*
X105397428Y-87226571D01*
X105183142Y-87226571D01*
X105040285Y-87298000D01*
X104968857Y-87440857D01*
X104968857Y-88226571D01*
X103683142Y-88155142D02*
X103826000Y-88226571D01*
X104111714Y-88226571D01*
X104254571Y-88155142D01*
X104326000Y-88012285D01*
X104326000Y-87440857D01*
X104254571Y-87298000D01*
X104111714Y-87226571D01*
X103826000Y-87226571D01*
X103683142Y-87298000D01*
X103611714Y-87440857D01*
X103611714Y-87583714D01*
X104326000Y-87726571D01*
X102683142Y-86726571D02*
X102397428Y-86726571D01*
X102254571Y-86798000D01*
X102111714Y-86940857D01*
X102040285Y-87226571D01*
X102040285Y-87726571D01*
X102111714Y-88012285D01*
X102254571Y-88155142D01*
X102397428Y-88226571D01*
X102683142Y-88226571D01*
X102826000Y-88155142D01*
X102968857Y-88012285D01*
X103040285Y-87726571D01*
X103040285Y-87226571D01*
X102968857Y-86940857D01*
X102826000Y-86798000D01*
X102683142Y-86726571D01*
X101468857Y-88155142D02*
X101254571Y-88226571D01*
X100897428Y-88226571D01*
X100754571Y-88155142D01*
X100683142Y-88083714D01*
X100611714Y-87940857D01*
X100611714Y-87798000D01*
X100683142Y-87655142D01*
X100754571Y-87583714D01*
X100897428Y-87512285D01*
X101183142Y-87440857D01*
X101326000Y-87369428D01*
X101397428Y-87298000D01*
X101468857Y-87155142D01*
X101468857Y-87012285D01*
X101397428Y-86869428D01*
X101326000Y-86798000D01*
X101183142Y-86726571D01*
X100826000Y-86726571D01*
X100611714Y-86798000D01*
X99397428Y-88155142D02*
X99540285Y-88226571D01*
X99826000Y-88226571D01*
X99968857Y-88155142D01*
X100040285Y-88012285D01*
X100040285Y-87440857D01*
X99968857Y-87298000D01*
X99826000Y-87226571D01*
X99540285Y-87226571D01*
X99397428Y-87298000D01*
X99326000Y-87440857D01*
X99326000Y-87583714D01*
X100040285Y-87726571D01*
X98683142Y-87226571D02*
X98683142Y-88226571D01*
X98683142Y-87369428D02*
X98611714Y-87298000D01*
X98468857Y-87226571D01*
X98254571Y-87226571D01*
X98111714Y-87298000D01*
X98040285Y-87440857D01*
X98040285Y-88226571D01*
X97397428Y-88155142D02*
X97254571Y-88226571D01*
X96968857Y-88226571D01*
X96826000Y-88155142D01*
X96754571Y-88012285D01*
X96754571Y-87940857D01*
X96826000Y-87798000D01*
X96968857Y-87726571D01*
X97183142Y-87726571D01*
X97326000Y-87655142D01*
X97397428Y-87512285D01*
X97397428Y-87440857D01*
X97326000Y-87298000D01*
X97183142Y-87226571D01*
X96968857Y-87226571D01*
X96826000Y-87298000D01*
X95897428Y-88226571D02*
X96040285Y-88155142D01*
X96111714Y-88083714D01*
X96183142Y-87940857D01*
X96183142Y-87512285D01*
X96111714Y-87369428D01*
X96040285Y-87298000D01*
X95897428Y-87226571D01*
X95683142Y-87226571D01*
X95540285Y-87298000D01*
X95468857Y-87369428D01*
X95397428Y-87512285D01*
X95397428Y-87940857D01*
X95468857Y-88083714D01*
X95540285Y-88155142D01*
X95683142Y-88226571D01*
X95897428Y-88226571D01*
X94754571Y-88226571D02*
X94754571Y-87226571D01*
X94754571Y-87512285D02*
X94683142Y-87369428D01*
X94611714Y-87298000D01*
X94468857Y-87226571D01*
X94326000Y-87226571D01*
X103576000Y-89676571D02*
X103576000Y-91176571D01*
X103576000Y-89748000D02*
X103433142Y-89676571D01*
X103147428Y-89676571D01*
X103004571Y-89748000D01*
X102933142Y-89819428D01*
X102861714Y-89962285D01*
X102861714Y-90390857D01*
X102933142Y-90533714D01*
X103004571Y-90605142D01*
X103147428Y-90676571D01*
X103433142Y-90676571D01*
X103576000Y-90605142D01*
X101576000Y-90605142D02*
X101718857Y-90676571D01*
X102004571Y-90676571D01*
X102147428Y-90605142D01*
X102218857Y-90533714D01*
X102290285Y-90390857D01*
X102290285Y-89962285D01*
X102218857Y-89819428D01*
X102147428Y-89748000D01*
X102004571Y-89676571D01*
X101718857Y-89676571D01*
X101576000Y-89748000D01*
X100933142Y-90676571D02*
X100933142Y-89176571D01*
X100933142Y-89748000D02*
X100790285Y-89676571D01*
X100504571Y-89676571D01*
X100361714Y-89748000D01*
X100290285Y-89819428D01*
X100218857Y-89962285D01*
X100218857Y-90390857D01*
X100290285Y-90533714D01*
X100361714Y-90605142D01*
X100504571Y-90676571D01*
X100790285Y-90676571D01*
X100933142Y-90605142D01*
X98576000Y-89676571D02*
X98218857Y-90676571D01*
X97861714Y-89676571D01*
X96647428Y-89676571D02*
X96647428Y-90676571D01*
X97004571Y-89105142D02*
X97361714Y-90176571D01*
X96433142Y-90176571D01*
D10*
X131317952Y-52776428D02*
X130556047Y-52776428D01*
X124586952Y-54427428D02*
X123825047Y-54427428D01*
D11*
X113082285Y-52727428D02*
X113082285Y-51727428D01*
X113082285Y-52584571D02*
X113153714Y-52656000D01*
X113296571Y-52727428D01*
X113510857Y-52727428D01*
X113653714Y-52656000D01*
X113725142Y-52513142D01*
X113725142Y-51727428D01*
X115010857Y-51798857D02*
X114868000Y-51727428D01*
X114582285Y-51727428D01*
X114439428Y-51798857D01*
X114368000Y-51941714D01*
X114368000Y-52513142D01*
X114439428Y-52656000D01*
X114582285Y-52727428D01*
X114868000Y-52727428D01*
X115010857Y-52656000D01*
X115082285Y-52513142D01*
X115082285Y-52370285D01*
X114368000Y-52227428D01*
X116010857Y-53227428D02*
X116296571Y-53227428D01*
X116439428Y-53156000D01*
X116582285Y-53013142D01*
X116653714Y-52727428D01*
X116653714Y-52227428D01*
X116582285Y-51941714D01*
X116439428Y-51798857D01*
X116296571Y-51727428D01*
X116010857Y-51727428D01*
X115868000Y-51798857D01*
X115725142Y-51941714D01*
X115653714Y-52227428D01*
X115653714Y-52727428D01*
X115725142Y-53013142D01*
X115868000Y-53156000D01*
X116010857Y-53227428D01*
X117225142Y-51798857D02*
X117439428Y-51727428D01*
X117796571Y-51727428D01*
X117939428Y-51798857D01*
X118010857Y-51870285D01*
X118082285Y-52013142D01*
X118082285Y-52156000D01*
X118010857Y-52298857D01*
X117939428Y-52370285D01*
X117796571Y-52441714D01*
X117510857Y-52513142D01*
X117367999Y-52584571D01*
X117296571Y-52656000D01*
X117225142Y-52798857D01*
X117225142Y-52941714D01*
X117296571Y-53084571D01*
X117367999Y-53156000D01*
X117510857Y-53227428D01*
X117868000Y-53227428D01*
X118082285Y-53156000D01*
X119296571Y-51798857D02*
X119153714Y-51727428D01*
X118867999Y-51727428D01*
X118725142Y-51798857D01*
X118653714Y-51941714D01*
X118653714Y-52513142D01*
X118725142Y-52656000D01*
X118867999Y-52727428D01*
X119153714Y-52727428D01*
X119296571Y-52656000D01*
X119367999Y-52513142D01*
X119367999Y-52370285D01*
X118653714Y-52227428D01*
X120010857Y-52727428D02*
X120010857Y-51727428D01*
X120010857Y-52584571D02*
X120082285Y-52656000D01*
X120225142Y-52727428D01*
X120439428Y-52727428D01*
X120582285Y-52656000D01*
X120653714Y-52513142D01*
X120653714Y-51727428D01*
X121296571Y-51798857D02*
X121439428Y-51727428D01*
X121725142Y-51727428D01*
X121867999Y-51798857D01*
X121939428Y-51941714D01*
X121939428Y-52013142D01*
X121867999Y-52156000D01*
X121725142Y-52227428D01*
X121510857Y-52227428D01*
X121367999Y-52298857D01*
X121296571Y-52441714D01*
X121296571Y-52513142D01*
X121367999Y-52656000D01*
X121510857Y-52727428D01*
X121725142Y-52727428D01*
X121867999Y-52656000D01*
X122796571Y-51727428D02*
X122653714Y-51798857D01*
X122582285Y-51870285D01*
X122510857Y-52013142D01*
X122510857Y-52441714D01*
X122582285Y-52584571D01*
X122653714Y-52656000D01*
X122796571Y-52727428D01*
X123010857Y-52727428D01*
X123153714Y-52656000D01*
X123225142Y-52584571D01*
X123296571Y-52441714D01*
X123296571Y-52013142D01*
X123225142Y-51870285D01*
X123153714Y-51798857D01*
X123010857Y-51727428D01*
X122796571Y-51727428D01*
X123939428Y-51727428D02*
X123939428Y-52727428D01*
X123939428Y-52441714D02*
X124010857Y-52584571D01*
X124082285Y-52656000D01*
X124225142Y-52727428D01*
X124367999Y-52727428D01*
X115118000Y-50277428D02*
X115118000Y-48777428D01*
X115118000Y-50206000D02*
X115260857Y-50277428D01*
X115546571Y-50277428D01*
X115689428Y-50206000D01*
X115760857Y-50134571D01*
X115832285Y-49991714D01*
X115832285Y-49563142D01*
X115760857Y-49420285D01*
X115689428Y-49348857D01*
X115546571Y-49277428D01*
X115260857Y-49277428D01*
X115118000Y-49348857D01*
X117118000Y-49348857D02*
X116975142Y-49277428D01*
X116689428Y-49277428D01*
X116546571Y-49348857D01*
X116475142Y-49420285D01*
X116403714Y-49563142D01*
X116403714Y-49991714D01*
X116475142Y-50134571D01*
X116546571Y-50206000D01*
X116689428Y-50277428D01*
X116975142Y-50277428D01*
X117118000Y-50206000D01*
X117760857Y-49277428D02*
X117760857Y-50777428D01*
X117760857Y-50206000D02*
X117903714Y-50277428D01*
X118189428Y-50277428D01*
X118332285Y-50206000D01*
X118403714Y-50134571D01*
X118475142Y-49991714D01*
X118475142Y-49563142D01*
X118403714Y-49420285D01*
X118332285Y-49348857D01*
X118189428Y-49277428D01*
X117903714Y-49277428D01*
X117760857Y-49348857D01*
X120118000Y-50277428D02*
X120475142Y-49277428D01*
X120832285Y-50277428D01*
X122046571Y-50277428D02*
X122046571Y-49277428D01*
X121689428Y-50848857D02*
X121332285Y-49777428D01*
X122260857Y-49777428D01*
X105611714Y-50777571D02*
X105611714Y-51777571D01*
X105611714Y-50920428D02*
X105540285Y-50849000D01*
X105397428Y-50777571D01*
X105183142Y-50777571D01*
X105040285Y-50849000D01*
X104968857Y-50991857D01*
X104968857Y-51777571D01*
X103683142Y-51706142D02*
X103826000Y-51777571D01*
X104111714Y-51777571D01*
X104254571Y-51706142D01*
X104326000Y-51563285D01*
X104326000Y-50991857D01*
X104254571Y-50849000D01*
X104111714Y-50777571D01*
X103826000Y-50777571D01*
X103683142Y-50849000D01*
X103611714Y-50991857D01*
X103611714Y-51134714D01*
X104326000Y-51277571D01*
X102683142Y-50277571D02*
X102397428Y-50277571D01*
X102254571Y-50349000D01*
X102111714Y-50491857D01*
X102040285Y-50777571D01*
X102040285Y-51277571D01*
X102111714Y-51563285D01*
X102254571Y-51706142D01*
X102397428Y-51777571D01*
X102683142Y-51777571D01*
X102826000Y-51706142D01*
X102968857Y-51563285D01*
X103040285Y-51277571D01*
X103040285Y-50777571D01*
X102968857Y-50491857D01*
X102826000Y-50349000D01*
X102683142Y-50277571D01*
X101468857Y-51706142D02*
X101254571Y-51777571D01*
X100897428Y-51777571D01*
X100754571Y-51706142D01*
X100683142Y-51634714D01*
X100611714Y-51491857D01*
X100611714Y-51349000D01*
X100683142Y-51206142D01*
X100754571Y-51134714D01*
X100897428Y-51063285D01*
X101183142Y-50991857D01*
X101326000Y-50920428D01*
X101397428Y-50849000D01*
X101468857Y-50706142D01*
X101468857Y-50563285D01*
X101397428Y-50420428D01*
X101326000Y-50349000D01*
X101183142Y-50277571D01*
X100826000Y-50277571D01*
X100611714Y-50349000D01*
X99397428Y-51706142D02*
X99540285Y-51777571D01*
X99826000Y-51777571D01*
X99968857Y-51706142D01*
X100040285Y-51563285D01*
X100040285Y-50991857D01*
X99968857Y-50849000D01*
X99826000Y-50777571D01*
X99540285Y-50777571D01*
X99397428Y-50849000D01*
X99326000Y-50991857D01*
X99326000Y-51134714D01*
X100040285Y-51277571D01*
X98683142Y-50777571D02*
X98683142Y-51777571D01*
X98683142Y-50920428D02*
X98611714Y-50849000D01*
X98468857Y-50777571D01*
X98254571Y-50777571D01*
X98111714Y-50849000D01*
X98040285Y-50991857D01*
X98040285Y-51777571D01*
X97397428Y-51706142D02*
X97254571Y-51777571D01*
X96968857Y-51777571D01*
X96826000Y-51706142D01*
X96754571Y-51563285D01*
X96754571Y-51491857D01*
X96826000Y-51349000D01*
X96968857Y-51277571D01*
X97183142Y-51277571D01*
X97326000Y-51206142D01*
X97397428Y-51063285D01*
X97397428Y-50991857D01*
X97326000Y-50849000D01*
X97183142Y-50777571D01*
X96968857Y-50777571D01*
X96826000Y-50849000D01*
X95897428Y-51777571D02*
X96040285Y-51706142D01*
X96111714Y-51634714D01*
X96183142Y-51491857D01*
X96183142Y-51063285D01*
X96111714Y-50920428D01*
X96040285Y-50849000D01*
X95897428Y-50777571D01*
X95683142Y-50777571D01*
X95540285Y-50849000D01*
X95468857Y-50920428D01*
X95397428Y-51063285D01*
X95397428Y-51491857D01*
X95468857Y-51634714D01*
X95540285Y-51706142D01*
X95683142Y-51777571D01*
X95897428Y-51777571D01*
X94754571Y-51777571D02*
X94754571Y-50777571D01*
X94754571Y-51063285D02*
X94683142Y-50920428D01*
X94611714Y-50849000D01*
X94468857Y-50777571D01*
X94326000Y-50777571D01*
X103576000Y-53227571D02*
X103576000Y-54727571D01*
X103576000Y-53299000D02*
X103433142Y-53227571D01*
X103147428Y-53227571D01*
X103004571Y-53299000D01*
X102933142Y-53370428D01*
X102861714Y-53513285D01*
X102861714Y-53941857D01*
X102933142Y-54084714D01*
X103004571Y-54156142D01*
X103147428Y-54227571D01*
X103433142Y-54227571D01*
X103576000Y-54156142D01*
X101576000Y-54156142D02*
X101718857Y-54227571D01*
X102004571Y-54227571D01*
X102147428Y-54156142D01*
X102218857Y-54084714D01*
X102290285Y-53941857D01*
X102290285Y-53513285D01*
X102218857Y-53370428D01*
X102147428Y-53299000D01*
X102004571Y-53227571D01*
X101718857Y-53227571D01*
X101576000Y-53299000D01*
X100933142Y-54227571D02*
X100933142Y-52727571D01*
X100933142Y-53299000D02*
X100790285Y-53227571D01*
X100504571Y-53227571D01*
X100361714Y-53299000D01*
X100290285Y-53370428D01*
X100218857Y-53513285D01*
X100218857Y-53941857D01*
X100290285Y-54084714D01*
X100361714Y-54156142D01*
X100504571Y-54227571D01*
X100790285Y-54227571D01*
X100933142Y-54156142D01*
X98576000Y-53227571D02*
X98218857Y-54227571D01*
X97861714Y-53227571D01*
X96647428Y-53227571D02*
X96647428Y-54227571D01*
X97004571Y-52656142D02*
X97361714Y-53727571D01*
X96433142Y-53727571D01*
D10*
X94107047Y-49077571D02*
X94868952Y-49077571D01*
X87376047Y-50728571D02*
X88137952Y-50728571D01*
X72334428Y-116713047D02*
X72334428Y-117474952D01*
X69921428Y-116713047D02*
X69921428Y-117474952D01*
X70302380Y-117094000D02*
X69540476Y-117094000D01*
X68365666Y-109902714D02*
X68365666Y-110378904D01*
X68651380Y-109807476D02*
X67651380Y-110140809D01*
X68651380Y-110474142D01*
X67746619Y-110759857D02*
X67699000Y-110807476D01*
X67651380Y-110902714D01*
X67651380Y-111140809D01*
X67699000Y-111236047D01*
X67746619Y-111283666D01*
X67841857Y-111331285D01*
X67937095Y-111331285D01*
X68079952Y-111283666D01*
X68651380Y-110712238D01*
X68651380Y-111331285D01*
X68365666Y-112315714D02*
X68365666Y-112791904D01*
X68651380Y-112220476D02*
X67651380Y-112553809D01*
X68651380Y-112887142D01*
X68651380Y-113744285D02*
X68651380Y-113172857D01*
X68651380Y-113458571D02*
X67651380Y-113458571D01*
X67794238Y-113363333D01*
X67889476Y-113268095D01*
X67937095Y-113172857D01*
X68365666Y-114728714D02*
X68365666Y-115204904D01*
X68651380Y-114633476D02*
X67651380Y-114966809D01*
X68651380Y-115300142D01*
X67651380Y-115823952D02*
X67651380Y-115919190D01*
X67699000Y-116014428D01*
X67746619Y-116062047D01*
X67841857Y-116109666D01*
X68032333Y-116157285D01*
X68270428Y-116157285D01*
X68460904Y-116109666D01*
X68556142Y-116062047D01*
X68603761Y-116014428D01*
X68651380Y-115919190D01*
X68651380Y-115823952D01*
X68603761Y-115728714D01*
X68556142Y-115681095D01*
X68460904Y-115633476D01*
X68270428Y-115585857D01*
X68032333Y-115585857D01*
X67841857Y-115633476D01*
X67746619Y-115681095D01*
X67699000Y-115728714D01*
X67651380Y-115823952D01*
X66587714Y-115991238D02*
X66587714Y-116372190D01*
X66254380Y-116134095D02*
X67111523Y-116134095D01*
X67206761Y-116181714D01*
X67254380Y-116276952D01*
X67254380Y-116372190D01*
X67206761Y-117086476D02*
X67254380Y-116991238D01*
X67254380Y-116800761D01*
X67206761Y-116705523D01*
X67111523Y-116657904D01*
X66730571Y-116657904D01*
X66635333Y-116705523D01*
X66587714Y-116800761D01*
X66587714Y-116991238D01*
X66635333Y-117086476D01*
X66730571Y-117134095D01*
X66825809Y-117134095D01*
X66921047Y-116657904D01*
X67254380Y-117562666D02*
X66587714Y-117562666D01*
X66682952Y-117562666D02*
X66635333Y-117610285D01*
X66587714Y-117705523D01*
X66587714Y-117848380D01*
X66635333Y-117943619D01*
X66730571Y-117991238D01*
X67254380Y-117991238D01*
X66730571Y-117991238D02*
X66635333Y-118038857D01*
X66587714Y-118134095D01*
X66587714Y-118276952D01*
X66635333Y-118372190D01*
X66730571Y-118419809D01*
X67254380Y-118419809D01*
X66587714Y-118896000D02*
X67587714Y-118896000D01*
X66635333Y-118896000D02*
X66587714Y-118991238D01*
X66587714Y-119181714D01*
X66635333Y-119276952D01*
X66682952Y-119324571D01*
X66778190Y-119372190D01*
X67063904Y-119372190D01*
X67159142Y-119324571D01*
X67206761Y-119276952D01*
X67254380Y-119181714D01*
X67254380Y-118991238D01*
X67206761Y-118896000D01*
X67206761Y-120181714D02*
X67254380Y-120086476D01*
X67254380Y-119896000D01*
X67206761Y-119800761D01*
X67111523Y-119753142D01*
X66730571Y-119753142D01*
X66635333Y-119800761D01*
X66587714Y-119896000D01*
X66587714Y-120086476D01*
X66635333Y-120181714D01*
X66730571Y-120229333D01*
X66825809Y-120229333D01*
X66921047Y-119753142D01*
X67254380Y-120657904D02*
X66587714Y-120657904D01*
X66778190Y-120657904D02*
X66682952Y-120705523D01*
X66635333Y-120753142D01*
X66587714Y-120848380D01*
X66587714Y-120943619D01*
X67254380Y-121705523D02*
X66730571Y-121705523D01*
X66635333Y-121657904D01*
X66587714Y-121562666D01*
X66587714Y-121372190D01*
X66635333Y-121276952D01*
X67206761Y-121705523D02*
X67254380Y-121610285D01*
X67254380Y-121372190D01*
X67206761Y-121276952D01*
X67111523Y-121229333D01*
X67016285Y-121229333D01*
X66921047Y-121276952D01*
X66873428Y-121372190D01*
X66873428Y-121610285D01*
X66825809Y-121705523D01*
X66587714Y-122038857D02*
X66587714Y-122419809D01*
X66254380Y-122181714D02*
X67111523Y-122181714D01*
X67206761Y-122229333D01*
X67254380Y-122324571D01*
X67254380Y-122419809D01*
X66587714Y-123181714D02*
X67254380Y-123181714D01*
X66587714Y-122753142D02*
X67111523Y-122753142D01*
X67206761Y-122800761D01*
X67254380Y-122896000D01*
X67254380Y-123038857D01*
X67206761Y-123134095D01*
X67159142Y-123181714D01*
X67254380Y-123657904D02*
X66587714Y-123657904D01*
X66778190Y-123657904D02*
X66682952Y-123705523D01*
X66635333Y-123753142D01*
X66587714Y-123848380D01*
X66587714Y-123943619D01*
X67206761Y-124657904D02*
X67254380Y-124562666D01*
X67254380Y-124372190D01*
X67206761Y-124276952D01*
X67111523Y-124229333D01*
X66730571Y-124229333D01*
X66635333Y-124276952D01*
X66587714Y-124372190D01*
X66587714Y-124562666D01*
X66635333Y-124657904D01*
X66730571Y-124705523D01*
X66825809Y-124705523D01*
X66921047Y-124229333D01*
D12*
G04 #@! TO.C,C1*
X141911000Y-112632748D02*
X141911000Y-113155252D01*
X143331000Y-112632748D02*
X143331000Y-113155252D01*
G04 #@! TO.C,JP1*
X148433000Y-114243001D02*
X148733000Y-113943001D01*
X148133000Y-113943001D02*
X148733000Y-113943001D01*
X148433000Y-114243001D02*
X148133000Y-113943001D01*
X147683000Y-114443001D02*
X147683000Y-116443001D01*
X151783000Y-114443001D02*
X147683000Y-114443001D01*
X151783000Y-116443001D02*
X151783000Y-114443001D01*
X147683000Y-116443001D02*
X151783000Y-116443001D01*
G04 #@! TO.C,JP2*
X148433000Y-111830000D02*
X148733000Y-111530000D01*
X148133000Y-111530000D02*
X148733000Y-111530000D01*
X148433000Y-111830000D02*
X148133000Y-111530000D01*
X147683000Y-112030000D02*
X147683000Y-114030000D01*
X151783000Y-112030000D02*
X147683000Y-112030000D01*
X151783000Y-114030000D02*
X151783000Y-112030000D01*
X147683000Y-114030000D02*
X151783000Y-114030000D01*
G04 #@! TO.C,JP3*
X148433000Y-109417000D02*
X148733000Y-109117000D01*
X148133000Y-109117000D02*
X148733000Y-109117000D01*
X148433000Y-109417000D02*
X148133000Y-109117000D01*
X147683000Y-109617000D02*
X147683000Y-111617000D01*
X151783000Y-109617000D02*
X147683000Y-109617000D01*
X151783000Y-111617000D02*
X151783000Y-109617000D01*
X147683000Y-111617000D02*
X151783000Y-111617000D01*
G04 #@! TO.C,C1*
X127583000Y-112632748D02*
X127583000Y-113155252D01*
X126163000Y-112632748D02*
X126163000Y-113155252D01*
G04 #@! TO.C,JP1*
X131935000Y-116443001D02*
X136035000Y-116443001D01*
X136035000Y-116443001D02*
X136035000Y-114443001D01*
X136035000Y-114443001D02*
X131935000Y-114443001D01*
X131935000Y-114443001D02*
X131935000Y-116443001D01*
X132685000Y-114243001D02*
X132385000Y-113943001D01*
X132385000Y-113943001D02*
X132985000Y-113943001D01*
X132685000Y-114243001D02*
X132985000Y-113943001D01*
G04 #@! TO.C,JP3*
X131935000Y-111617000D02*
X136035000Y-111617000D01*
X136035000Y-111617000D02*
X136035000Y-109617000D01*
X136035000Y-109617000D02*
X131935000Y-109617000D01*
X131935000Y-109617000D02*
X131935000Y-111617000D01*
X132685000Y-109417000D02*
X132385000Y-109117000D01*
X132385000Y-109117000D02*
X132985000Y-109117000D01*
X132685000Y-109417000D02*
X132985000Y-109117000D01*
G04 #@! TO.C,JP2*
X131935000Y-114030000D02*
X136035000Y-114030000D01*
X136035000Y-114030000D02*
X136035000Y-112030000D01*
X136035000Y-112030000D02*
X131935000Y-112030000D01*
X131935000Y-112030000D02*
X131935000Y-114030000D01*
X132685000Y-111830000D02*
X132385000Y-111530000D01*
X132385000Y-111530000D02*
X132985000Y-111530000D01*
X132685000Y-111830000D02*
X132985000Y-111530000D01*
X116937000Y-111830000D02*
X117237000Y-111530000D01*
X116637000Y-111530000D02*
X117237000Y-111530000D01*
X116937000Y-111830000D02*
X116637000Y-111530000D01*
X116187000Y-112030000D02*
X116187000Y-114030000D01*
X120287000Y-112030000D02*
X116187000Y-112030000D01*
X120287000Y-114030000D02*
X120287000Y-112030000D01*
X116187000Y-114030000D02*
X120287000Y-114030000D01*
G04 #@! TO.C,C1*
X110415000Y-112632748D02*
X110415000Y-113155252D01*
X111835000Y-112632748D02*
X111835000Y-113155252D01*
G04 #@! TO.C,JP3*
X116937000Y-109417000D02*
X117237000Y-109117000D01*
X116637000Y-109117000D02*
X117237000Y-109117000D01*
X116937000Y-109417000D02*
X116637000Y-109117000D01*
X116187000Y-109617000D02*
X116187000Y-111617000D01*
X120287000Y-109617000D02*
X116187000Y-109617000D01*
X120287000Y-111617000D02*
X120287000Y-109617000D01*
X116187000Y-111617000D02*
X120287000Y-111617000D01*
G04 #@! TO.C,JP1*
X116937000Y-114243001D02*
X117237000Y-113943001D01*
X116637000Y-113943001D02*
X117237000Y-113943001D01*
X116937000Y-114243001D02*
X116637000Y-113943001D01*
X116187000Y-114443001D02*
X116187000Y-116443001D01*
X120287000Y-114443001D02*
X116187000Y-114443001D01*
X120287000Y-116443001D02*
X120287000Y-114443001D01*
X116187000Y-116443001D02*
X120287000Y-116443001D01*
X100439000Y-116443001D02*
X104539000Y-116443001D01*
X104539000Y-116443001D02*
X104539000Y-114443001D01*
X104539000Y-114443001D02*
X100439000Y-114443001D01*
X100439000Y-114443001D02*
X100439000Y-116443001D01*
X101189000Y-114243001D02*
X100889000Y-113943001D01*
X100889000Y-113943001D02*
X101489000Y-113943001D01*
X101189000Y-114243001D02*
X101489000Y-113943001D01*
G04 #@! TO.C,JP2*
X100439000Y-114030000D02*
X104539000Y-114030000D01*
X104539000Y-114030000D02*
X104539000Y-112030000D01*
X104539000Y-112030000D02*
X100439000Y-112030000D01*
X100439000Y-112030000D02*
X100439000Y-114030000D01*
X101189000Y-111830000D02*
X100889000Y-111530000D01*
X100889000Y-111530000D02*
X101489000Y-111530000D01*
X101189000Y-111830000D02*
X101489000Y-111530000D01*
G04 #@! TO.C,JP3*
X100439000Y-111617000D02*
X104539000Y-111617000D01*
X104539000Y-111617000D02*
X104539000Y-109617000D01*
X104539000Y-109617000D02*
X100439000Y-109617000D01*
X100439000Y-109617000D02*
X100439000Y-111617000D01*
X101189000Y-109417000D02*
X100889000Y-109117000D01*
X100889000Y-109117000D02*
X101489000Y-109117000D01*
X101189000Y-109417000D02*
X101489000Y-109117000D01*
G04 #@! TO.C,C1*
X96087000Y-112632748D02*
X96087000Y-113155252D01*
X94667000Y-112632748D02*
X94667000Y-113155252D01*
G04 #@! TO.C,JP1*
X85441000Y-114243001D02*
X85741000Y-113943001D01*
X85141000Y-113943001D02*
X85741000Y-113943001D01*
X85441000Y-114243001D02*
X85141000Y-113943001D01*
X84691000Y-114443001D02*
X84691000Y-116443001D01*
X88791000Y-114443001D02*
X84691000Y-114443001D01*
X88791000Y-116443001D02*
X88791000Y-114443001D01*
X84691000Y-116443001D02*
X88791000Y-116443001D01*
G04 #@! TO.C,C1*
X78919000Y-112632748D02*
X78919000Y-113155252D01*
X80339000Y-112632748D02*
X80339000Y-113155252D01*
G04 #@! TO.C,JP2*
X85441000Y-111830000D02*
X85741000Y-111530000D01*
X85141000Y-111530000D02*
X85741000Y-111530000D01*
X85441000Y-111830000D02*
X85141000Y-111530000D01*
X84691000Y-112030000D02*
X84691000Y-114030000D01*
X88791000Y-112030000D02*
X84691000Y-112030000D01*
X88791000Y-114030000D02*
X88791000Y-112030000D01*
X84691000Y-114030000D02*
X88791000Y-114030000D01*
G04 #@! TO.C,JP3*
X85441000Y-109417000D02*
X85741000Y-109117000D01*
X85141000Y-109117000D02*
X85741000Y-109117000D01*
X85441000Y-109417000D02*
X85141000Y-109117000D01*
X84691000Y-109617000D02*
X84691000Y-111617000D01*
X88791000Y-109617000D02*
X84691000Y-109617000D01*
X88791000Y-111617000D02*
X88791000Y-109617000D01*
X84691000Y-111617000D02*
X88791000Y-111617000D01*
D10*
G04 #@! TO.C,U3*
X100050000Y-101258000D02*
X99950000Y-101258000D01*
X100050000Y-96608000D02*
X99850000Y-96608000D01*
X96800000Y-96608000D02*
X97000000Y-96608000D01*
X96800000Y-101258000D02*
X97000000Y-101258000D01*
X100050000Y-101258000D02*
X100050000Y-96608000D01*
X96800000Y-101258000D02*
X96800000Y-96608000D01*
X99950000Y-101258000D02*
X99950000Y-102608000D01*
G04 #@! TO.C,U1*
X124602000Y-78951000D02*
X124602000Y-77551000D01*
X129702000Y-78951000D02*
X129702000Y-83101000D01*
X124552000Y-78951000D02*
X124552000Y-83101000D01*
X129702000Y-78951000D02*
X129557000Y-78951000D01*
X129702000Y-83101000D02*
X129557000Y-83101000D01*
X124552000Y-83101000D02*
X124697000Y-83101000D01*
X124552000Y-78951000D02*
X124602000Y-78951000D01*
D12*
G04 #@! TO.C,C14*
X139055241Y-92080000D02*
X139055241Y-92710000D01*
X139370241Y-92395000D02*
X138740241Y-92395000D01*
X132629000Y-93832000D02*
X132629000Y-94636000D01*
X132669000Y-93601000D02*
X132669000Y-94867000D01*
X132709000Y-93432000D02*
X132709000Y-95036000D01*
X132749000Y-93294000D02*
X132749000Y-95174000D01*
X132789000Y-93175000D02*
X132789000Y-95293000D01*
X132829000Y-93069000D02*
X132829000Y-95399000D01*
X132869000Y-92972000D02*
X132869000Y-95496000D01*
X132909000Y-92884000D02*
X132909000Y-95584000D01*
X132949000Y-92802000D02*
X132949000Y-95666000D01*
X132989000Y-92725000D02*
X132989000Y-95743000D01*
X133029000Y-92653000D02*
X133029000Y-95815000D01*
X133069000Y-92584000D02*
X133069000Y-95884000D01*
X133109000Y-92520000D02*
X133109000Y-95948000D01*
X133149000Y-92458000D02*
X133149000Y-96010000D01*
X133189000Y-92400000D02*
X133189000Y-96068000D01*
X133229000Y-92344000D02*
X133229000Y-96124000D01*
X133269000Y-92290000D02*
X133269000Y-96178000D01*
X133309000Y-92239000D02*
X133309000Y-96229000D01*
X133349000Y-92190000D02*
X133349000Y-96278000D01*
X133389000Y-92142000D02*
X133389000Y-96326000D01*
X133429000Y-92097000D02*
X133429000Y-96371000D01*
X133469000Y-92052000D02*
X133469000Y-96416000D01*
X133509000Y-92010000D02*
X133509000Y-96458000D01*
X133549000Y-91969000D02*
X133549000Y-96499000D01*
X133589000Y-95274000D02*
X133589000Y-96539000D01*
X133589000Y-91929000D02*
X133589000Y-93194000D01*
X133629000Y-95274000D02*
X133629000Y-96577000D01*
X133629000Y-91891000D02*
X133629000Y-93194000D01*
X133669000Y-95274000D02*
X133669000Y-96614000D01*
X133669000Y-91854000D02*
X133669000Y-93194000D01*
X133709000Y-95274000D02*
X133709000Y-96650000D01*
X133709000Y-91818000D02*
X133709000Y-93194000D01*
X133749000Y-95274000D02*
X133749000Y-96684000D01*
X133749000Y-91784000D02*
X133749000Y-93194000D01*
X133789000Y-95274000D02*
X133789000Y-96718000D01*
X133789000Y-91750000D02*
X133789000Y-93194000D01*
X133829000Y-95274000D02*
X133829000Y-96750000D01*
X133829000Y-91718000D02*
X133829000Y-93194000D01*
X133869000Y-95274000D02*
X133869000Y-96782000D01*
X133869000Y-91686000D02*
X133869000Y-93194000D01*
X133909000Y-95274000D02*
X133909000Y-96812000D01*
X133909000Y-91656000D02*
X133909000Y-93194000D01*
X133949000Y-95274000D02*
X133949000Y-96841000D01*
X133949000Y-91627000D02*
X133949000Y-93194000D01*
X133989000Y-95274000D02*
X133989000Y-96870000D01*
X133989000Y-91598000D02*
X133989000Y-93194000D01*
X134029000Y-95274000D02*
X134029000Y-96898000D01*
X134029000Y-91570000D02*
X134029000Y-93194000D01*
X134069000Y-95274000D02*
X134069000Y-96924000D01*
X134069000Y-91544000D02*
X134069000Y-93194000D01*
X134109000Y-95274000D02*
X134109000Y-96950000D01*
X134109000Y-91518000D02*
X134109000Y-93194000D01*
X134149000Y-95274000D02*
X134149000Y-96976000D01*
X134149000Y-91492000D02*
X134149000Y-93194000D01*
X134189000Y-95274000D02*
X134189000Y-97000000D01*
X134189000Y-91468000D02*
X134189000Y-93194000D01*
X134229000Y-95274000D02*
X134229000Y-97024000D01*
X134229000Y-91444000D02*
X134229000Y-93194000D01*
X134269000Y-95274000D02*
X134269000Y-97046000D01*
X134269000Y-91422000D02*
X134269000Y-93194000D01*
X134309000Y-95274000D02*
X134309000Y-97068000D01*
X134309000Y-91400000D02*
X134309000Y-93194000D01*
X134349000Y-95274000D02*
X134349000Y-97090000D01*
X134349000Y-91378000D02*
X134349000Y-93194000D01*
X134389000Y-95274000D02*
X134389000Y-97110000D01*
X134389000Y-91358000D02*
X134389000Y-93194000D01*
X134429000Y-95274000D02*
X134429000Y-97130000D01*
X134429000Y-91338000D02*
X134429000Y-93194000D01*
X134469000Y-95274000D02*
X134469000Y-97150000D01*
X134469000Y-91318000D02*
X134469000Y-93194000D01*
X134509000Y-95274000D02*
X134509000Y-97168000D01*
X134509000Y-91300000D02*
X134509000Y-93194000D01*
X134549000Y-95274000D02*
X134549000Y-97186000D01*
X134549000Y-91282000D02*
X134549000Y-93194000D01*
X134589000Y-95274000D02*
X134589000Y-97204000D01*
X134589000Y-91264000D02*
X134589000Y-93194000D01*
X134629000Y-95274000D02*
X134629000Y-97220000D01*
X134629000Y-91248000D02*
X134629000Y-93194000D01*
X134669000Y-95274000D02*
X134669000Y-97236000D01*
X134669000Y-91232000D02*
X134669000Y-93194000D01*
X134709000Y-95274000D02*
X134709000Y-97252000D01*
X134709000Y-91216000D02*
X134709000Y-93194000D01*
X134749000Y-95274000D02*
X134749000Y-97267000D01*
X134749000Y-91201000D02*
X134749000Y-93194000D01*
X134789000Y-95274000D02*
X134789000Y-97281000D01*
X134789000Y-91187000D02*
X134789000Y-93194000D01*
X134829000Y-95274000D02*
X134829000Y-97295000D01*
X134829000Y-91173000D02*
X134829000Y-93194000D01*
X134869000Y-95274000D02*
X134869000Y-97308000D01*
X134869000Y-91160000D02*
X134869000Y-93194000D01*
X134909000Y-95274000D02*
X134909000Y-97320000D01*
X134909000Y-91148000D02*
X134909000Y-93194000D01*
X134949000Y-95274000D02*
X134949000Y-97332000D01*
X134949000Y-91136000D02*
X134949000Y-93194000D01*
X134989000Y-95274000D02*
X134989000Y-97344000D01*
X134989000Y-91124000D02*
X134989000Y-93194000D01*
X135029000Y-95274000D02*
X135029000Y-97355000D01*
X135029000Y-91113000D02*
X135029000Y-93194000D01*
X135069000Y-95274000D02*
X135069000Y-97365000D01*
X135069000Y-91103000D02*
X135069000Y-93194000D01*
X135109000Y-95274000D02*
X135109000Y-97375000D01*
X135109000Y-91093000D02*
X135109000Y-93194000D01*
X135149000Y-95274000D02*
X135149000Y-97384000D01*
X135149000Y-91084000D02*
X135149000Y-93194000D01*
X135190000Y-95274000D02*
X135190000Y-97393000D01*
X135190000Y-91075000D02*
X135190000Y-93194000D01*
X135230000Y-95274000D02*
X135230000Y-97401000D01*
X135230000Y-91067000D02*
X135230000Y-93194000D01*
X135270000Y-95274000D02*
X135270000Y-97409000D01*
X135270000Y-91059000D02*
X135270000Y-93194000D01*
X135310000Y-95274000D02*
X135310000Y-97416000D01*
X135310000Y-91052000D02*
X135310000Y-93194000D01*
X135350000Y-95274000D02*
X135350000Y-97423000D01*
X135350000Y-91045000D02*
X135350000Y-93194000D01*
X135390000Y-95274000D02*
X135390000Y-97429000D01*
X135390000Y-91039000D02*
X135390000Y-93194000D01*
X135430000Y-95274000D02*
X135430000Y-97435000D01*
X135430000Y-91033000D02*
X135430000Y-93194000D01*
X135470000Y-95274000D02*
X135470000Y-97440000D01*
X135470000Y-91028000D02*
X135470000Y-93194000D01*
X135510000Y-95274000D02*
X135510000Y-97445000D01*
X135510000Y-91023000D02*
X135510000Y-93194000D01*
X135550000Y-95274000D02*
X135550000Y-97449000D01*
X135550000Y-91019000D02*
X135550000Y-93194000D01*
X135590000Y-95274000D02*
X135590000Y-97452000D01*
X135590000Y-91016000D02*
X135590000Y-93194000D01*
X135630000Y-95274000D02*
X135630000Y-97456000D01*
X135630000Y-91012000D02*
X135630000Y-93194000D01*
X135670000Y-91010000D02*
X135670000Y-97458000D01*
X135710000Y-91007000D02*
X135710000Y-97461000D01*
X135750000Y-91006000D02*
X135750000Y-97462000D01*
X135790000Y-91004000D02*
X135790000Y-97464000D01*
X135830000Y-91004000D02*
X135830000Y-97464000D01*
X135870000Y-91004000D02*
X135870000Y-97464000D01*
X139140000Y-94234000D02*
G75*
G03X139140000Y-94234000I-3270000J0D01*
G01*
G04 #@! TO.C,C9*
X116471000Y-91593000D02*
X124706000Y-91593000D01*
X116471000Y-96113000D02*
X116471000Y-91593000D01*
X124706000Y-96113000D02*
X116471000Y-96113000D01*
X93988000Y-80290000D02*
X102223000Y-80290000D01*
X102223000Y-80290000D02*
X102223000Y-84810000D01*
X102223000Y-84810000D02*
X93988000Y-84810000D01*
G04 #@! TO.C,R1*
X132132000Y-99575252D02*
X132132000Y-99052748D01*
X133552000Y-99575252D02*
X133552000Y-99052748D01*
G04 #@! TO.C,R11*
X140038000Y-77335748D02*
X140038000Y-77858252D01*
X138618000Y-77335748D02*
X138618000Y-77858252D01*
G04 #@! TO.C,R13*
X136136748Y-75871000D02*
X136659252Y-75871000D01*
X136136748Y-77291000D02*
X136659252Y-77291000D01*
G04 #@! TO.C,R12*
X149988748Y-75236000D02*
X150511252Y-75236000D01*
X149988748Y-76656000D02*
X150511252Y-76656000D01*
G04 #@! TO.C,R1*
X85142000Y-76827748D02*
X85142000Y-77350252D01*
X86562000Y-76827748D02*
X86562000Y-77350252D01*
G04 #@! TO.C,R11*
X80076000Y-99067252D02*
X80076000Y-98544748D01*
X78656000Y-99067252D02*
X78656000Y-98544748D01*
G04 #@! TO.C,R13*
X82557252Y-99112000D02*
X82034748Y-99112000D01*
X82557252Y-100532000D02*
X82034748Y-100532000D01*
G04 #@! TO.C,R12*
X68705252Y-99747000D02*
X68182748Y-99747000D01*
X68705252Y-101167000D02*
X68182748Y-101167000D01*
G04 #@! TO.C,D1*
X88717000Y-83845000D02*
X88717000Y-86705000D01*
X88717000Y-86705000D02*
X86797000Y-86705000D01*
X86797000Y-86705000D02*
X86797000Y-83845000D01*
G04 #@! TO.C,C14*
X86094000Y-82169000D02*
G75*
G03X86094000Y-82169000I-3270000J0D01*
G01*
X82824000Y-85399000D02*
X82824000Y-78939000D01*
X82864000Y-85399000D02*
X82864000Y-78939000D01*
X82904000Y-85399000D02*
X82904000Y-78939000D01*
X82944000Y-85397000D02*
X82944000Y-78941000D01*
X82984000Y-85396000D02*
X82984000Y-78942000D01*
X83024000Y-85393000D02*
X83024000Y-78945000D01*
X83064000Y-85391000D02*
X83064000Y-83209000D01*
X83064000Y-81129000D02*
X83064000Y-78947000D01*
X83104000Y-85387000D02*
X83104000Y-83209000D01*
X83104000Y-81129000D02*
X83104000Y-78951000D01*
X83144000Y-85384000D02*
X83144000Y-83209000D01*
X83144000Y-81129000D02*
X83144000Y-78954000D01*
X83184000Y-85380000D02*
X83184000Y-83209000D01*
X83184000Y-81129000D02*
X83184000Y-78958000D01*
X83224000Y-85375000D02*
X83224000Y-83209000D01*
X83224000Y-81129000D02*
X83224000Y-78963000D01*
X83264000Y-85370000D02*
X83264000Y-83209000D01*
X83264000Y-81129000D02*
X83264000Y-78968000D01*
X83304000Y-85364000D02*
X83304000Y-83209000D01*
X83304000Y-81129000D02*
X83304000Y-78974000D01*
X83344000Y-85358000D02*
X83344000Y-83209000D01*
X83344000Y-81129000D02*
X83344000Y-78980000D01*
X83384000Y-85351000D02*
X83384000Y-83209000D01*
X83384000Y-81129000D02*
X83384000Y-78987000D01*
X83424000Y-85344000D02*
X83424000Y-83209000D01*
X83424000Y-81129000D02*
X83424000Y-78994000D01*
X83464000Y-85336000D02*
X83464000Y-83209000D01*
X83464000Y-81129000D02*
X83464000Y-79002000D01*
X83504000Y-85328000D02*
X83504000Y-83209000D01*
X83504000Y-81129000D02*
X83504000Y-79010000D01*
X83545000Y-85319000D02*
X83545000Y-83209000D01*
X83545000Y-81129000D02*
X83545000Y-79019000D01*
X83585000Y-85310000D02*
X83585000Y-83209000D01*
X83585000Y-81129000D02*
X83585000Y-79028000D01*
X83625000Y-85300000D02*
X83625000Y-83209000D01*
X83625000Y-81129000D02*
X83625000Y-79038000D01*
X83665000Y-85290000D02*
X83665000Y-83209000D01*
X83665000Y-81129000D02*
X83665000Y-79048000D01*
X83705000Y-85279000D02*
X83705000Y-83209000D01*
X83705000Y-81129000D02*
X83705000Y-79059000D01*
X83745000Y-85267000D02*
X83745000Y-83209000D01*
X83745000Y-81129000D02*
X83745000Y-79071000D01*
X83785000Y-85255000D02*
X83785000Y-83209000D01*
X83785000Y-81129000D02*
X83785000Y-79083000D01*
X83825000Y-85243000D02*
X83825000Y-83209000D01*
X83825000Y-81129000D02*
X83825000Y-79095000D01*
X83865000Y-85230000D02*
X83865000Y-83209000D01*
X83865000Y-81129000D02*
X83865000Y-79108000D01*
X83905000Y-85216000D02*
X83905000Y-83209000D01*
X83905000Y-81129000D02*
X83905000Y-79122000D01*
X83945000Y-85202000D02*
X83945000Y-83209000D01*
X83945000Y-81129000D02*
X83945000Y-79136000D01*
X83985000Y-85187000D02*
X83985000Y-83209000D01*
X83985000Y-81129000D02*
X83985000Y-79151000D01*
X84025000Y-85171000D02*
X84025000Y-83209000D01*
X84025000Y-81129000D02*
X84025000Y-79167000D01*
X84065000Y-85155000D02*
X84065000Y-83209000D01*
X84065000Y-81129000D02*
X84065000Y-79183000D01*
X84105000Y-85139000D02*
X84105000Y-83209000D01*
X84105000Y-81129000D02*
X84105000Y-79199000D01*
X84145000Y-85121000D02*
X84145000Y-83209000D01*
X84145000Y-81129000D02*
X84145000Y-79217000D01*
X84185000Y-85103000D02*
X84185000Y-83209000D01*
X84185000Y-81129000D02*
X84185000Y-79235000D01*
X84225000Y-85085000D02*
X84225000Y-83209000D01*
X84225000Y-81129000D02*
X84225000Y-79253000D01*
X84265000Y-85065000D02*
X84265000Y-83209000D01*
X84265000Y-81129000D02*
X84265000Y-79273000D01*
X84305000Y-85045000D02*
X84305000Y-83209000D01*
X84305000Y-81129000D02*
X84305000Y-79293000D01*
X84345000Y-85025000D02*
X84345000Y-83209000D01*
X84345000Y-81129000D02*
X84345000Y-79313000D01*
X84385000Y-85003000D02*
X84385000Y-83209000D01*
X84385000Y-81129000D02*
X84385000Y-79335000D01*
X84425000Y-84981000D02*
X84425000Y-83209000D01*
X84425000Y-81129000D02*
X84425000Y-79357000D01*
X84465000Y-84959000D02*
X84465000Y-83209000D01*
X84465000Y-81129000D02*
X84465000Y-79379000D01*
X84505000Y-84935000D02*
X84505000Y-83209000D01*
X84505000Y-81129000D02*
X84505000Y-79403000D01*
X84545000Y-84911000D02*
X84545000Y-83209000D01*
X84545000Y-81129000D02*
X84545000Y-79427000D01*
X84585000Y-84885000D02*
X84585000Y-83209000D01*
X84585000Y-81129000D02*
X84585000Y-79453000D01*
X84625000Y-84859000D02*
X84625000Y-83209000D01*
X84625000Y-81129000D02*
X84625000Y-79479000D01*
X84665000Y-84833000D02*
X84665000Y-83209000D01*
X84665000Y-81129000D02*
X84665000Y-79505000D01*
X84705000Y-84805000D02*
X84705000Y-83209000D01*
X84705000Y-81129000D02*
X84705000Y-79533000D01*
X84745000Y-84776000D02*
X84745000Y-83209000D01*
X84745000Y-81129000D02*
X84745000Y-79562000D01*
X84785000Y-84747000D02*
X84785000Y-83209000D01*
X84785000Y-81129000D02*
X84785000Y-79591000D01*
X84825000Y-84717000D02*
X84825000Y-83209000D01*
X84825000Y-81129000D02*
X84825000Y-79621000D01*
X84865000Y-84685000D02*
X84865000Y-83209000D01*
X84865000Y-81129000D02*
X84865000Y-79653000D01*
X84905000Y-84653000D02*
X84905000Y-83209000D01*
X84905000Y-81129000D02*
X84905000Y-79685000D01*
X84945000Y-84619000D02*
X84945000Y-83209000D01*
X84945000Y-81129000D02*
X84945000Y-79719000D01*
X84985000Y-84585000D02*
X84985000Y-83209000D01*
X84985000Y-81129000D02*
X84985000Y-79753000D01*
X85025000Y-84549000D02*
X85025000Y-83209000D01*
X85025000Y-81129000D02*
X85025000Y-79789000D01*
X85065000Y-84512000D02*
X85065000Y-83209000D01*
X85065000Y-81129000D02*
X85065000Y-79826000D01*
X85105000Y-84474000D02*
X85105000Y-83209000D01*
X85105000Y-81129000D02*
X85105000Y-79864000D01*
X85145000Y-84434000D02*
X85145000Y-79904000D01*
X85185000Y-84393000D02*
X85185000Y-79945000D01*
X85225000Y-84351000D02*
X85225000Y-79987000D01*
X85265000Y-84306000D02*
X85265000Y-80032000D01*
X85305000Y-84261000D02*
X85305000Y-80077000D01*
X85345000Y-84213000D02*
X85345000Y-80125000D01*
X85385000Y-84164000D02*
X85385000Y-80174000D01*
X85425000Y-84113000D02*
X85425000Y-80225000D01*
X85465000Y-84059000D02*
X85465000Y-80279000D01*
X85505000Y-84003000D02*
X85505000Y-80335000D01*
X85545000Y-83945000D02*
X85545000Y-80393000D01*
X85585000Y-83883000D02*
X85585000Y-80455000D01*
X85625000Y-83819000D02*
X85625000Y-80519000D01*
X85665000Y-83750000D02*
X85665000Y-80588000D01*
X85705000Y-83678000D02*
X85705000Y-80660000D01*
X85745000Y-83601000D02*
X85745000Y-80737000D01*
X85785000Y-83519000D02*
X85785000Y-80819000D01*
X85825000Y-83431000D02*
X85825000Y-80907000D01*
X85865000Y-83334000D02*
X85865000Y-81004000D01*
X85905000Y-83228000D02*
X85905000Y-81110000D01*
X85945000Y-83109000D02*
X85945000Y-81229000D01*
X85985000Y-82971000D02*
X85985000Y-81367000D01*
X86025000Y-82802000D02*
X86025000Y-81536000D01*
X86065000Y-82571000D02*
X86065000Y-81767000D01*
X79323759Y-84008000D02*
X79953759Y-84008000D01*
X79638759Y-84323000D02*
X79638759Y-83693000D01*
G04 #@! TO.C,C1*
X83491000Y-76827748D02*
X83491000Y-77350252D01*
X84911000Y-76827748D02*
X84911000Y-77350252D01*
G04 #@! TO.C,D1*
X131897000Y-89698000D02*
X131897000Y-92558000D01*
X129977000Y-89698000D02*
X131897000Y-89698000D01*
X129977000Y-92558000D02*
X129977000Y-89698000D01*
G04 #@! TO.C,prog*
X68013000Y-105859000D02*
X73220000Y-105859000D01*
X74490000Y-105859000D02*
X74490000Y-104843000D01*
X74490000Y-104843000D02*
X74109000Y-104843000D01*
X74109000Y-104843000D02*
X74109000Y-102303000D01*
X74109000Y-102303000D02*
X67124000Y-102303000D01*
X67124000Y-102303000D02*
X67124000Y-104843000D01*
X67124000Y-104843000D02*
X66743000Y-104843000D01*
X66743000Y-104843000D02*
X66743000Y-105859000D01*
X66743000Y-105859000D02*
X67759000Y-105859000D01*
X73474000Y-105859000D02*
X74490000Y-105859000D01*
G04 #@! TO.C,C1*
X133783000Y-99575252D02*
X133783000Y-99052748D01*
X135203000Y-99575252D02*
X135203000Y-99052748D01*
G04 #@! TO.C,ESP8266*
X53412000Y-76335000D02*
X53412000Y-92575000D01*
X53412000Y-92575000D02*
X61032000Y-92575000D01*
X77032000Y-92575000D02*
X77652000Y-92575000D01*
X77652000Y-92575000D02*
X77652000Y-90455000D01*
X77652000Y-78455000D02*
X77652000Y-76335000D01*
X77652000Y-76335000D02*
X77032000Y-76335000D01*
X61032000Y-76335000D02*
X53412000Y-76335000D01*
X61032000Y-76335000D02*
X61032000Y-75725000D01*
D10*
G04 #@! TO.C,U1*
X94142000Y-97452000D02*
X94092000Y-97452000D01*
X94142000Y-93302000D02*
X93997000Y-93302000D01*
X88992000Y-93302000D02*
X89137000Y-93302000D01*
X88992000Y-97452000D02*
X89137000Y-97452000D01*
X94142000Y-97452000D02*
X94142000Y-93302000D01*
X88992000Y-97452000D02*
X88992000Y-93302000D01*
X94092000Y-97452000D02*
X94092000Y-98852000D01*
G04 #@! TO.C,U3*
X118744001Y-75145000D02*
X118744001Y-73795000D01*
X121894001Y-75145000D02*
X121894001Y-79795000D01*
X118644001Y-75145000D02*
X118644001Y-79795000D01*
X121894001Y-75145000D02*
X121694001Y-75145000D01*
X121894001Y-79795000D02*
X121694001Y-79795000D01*
X118644001Y-79795000D02*
X118844001Y-79795000D01*
X118644001Y-75145000D02*
X118744001Y-75145000D01*
D12*
G04 #@! TO.C,prog*
X145220000Y-70544000D02*
X144204000Y-70544000D01*
X151951000Y-70544000D02*
X150935000Y-70544000D01*
X151951000Y-71560000D02*
X151951000Y-70544000D01*
X151570000Y-71560000D02*
X151951000Y-71560000D01*
X151570000Y-74100000D02*
X151570000Y-71560000D01*
X144585000Y-74100000D02*
X151570000Y-74100000D01*
X144585000Y-71560000D02*
X144585000Y-74100000D01*
X144204000Y-71560000D02*
X144585000Y-71560000D01*
X144204000Y-70544000D02*
X144204000Y-71560000D01*
X150681000Y-70544000D02*
X145474000Y-70544000D01*
G04 #@! TO.C,ESP8266*
X157662000Y-100068000D02*
X157662000Y-100678000D01*
X157662000Y-100068000D02*
X165282000Y-100068000D01*
X141042000Y-100068000D02*
X141662000Y-100068000D01*
X141042000Y-97948000D02*
X141042000Y-100068000D01*
X141042000Y-83828000D02*
X141042000Y-85948000D01*
X141662000Y-83828000D02*
X141042000Y-83828000D01*
X165282000Y-83828000D02*
X157662000Y-83828000D01*
X165282000Y-100068000D02*
X165282000Y-83828000D01*
D10*
G04 #@! TO.C,U3*
X118644001Y-38696000D02*
X118744001Y-38696000D01*
X118644001Y-43346000D02*
X118844001Y-43346000D01*
X121894001Y-43346000D02*
X121694001Y-43346000D01*
X121894001Y-38696000D02*
X121694001Y-38696000D01*
X118644001Y-38696000D02*
X118644001Y-43346000D01*
X121894001Y-38696000D02*
X121894001Y-43346000D01*
X118744001Y-38696000D02*
X118744001Y-37346000D01*
D12*
G04 #@! TO.C,C9*
X124706000Y-59664000D02*
X116471000Y-59664000D01*
X116471000Y-59664000D02*
X116471000Y-55144000D01*
X116471000Y-55144000D02*
X124706000Y-55144000D01*
G04 #@! TO.C,R1*
X133552000Y-63126252D02*
X133552000Y-62603748D01*
X132132000Y-63126252D02*
X132132000Y-62603748D01*
G04 #@! TO.C,R11*
X138618000Y-40886748D02*
X138618000Y-41409252D01*
X140038000Y-40886748D02*
X140038000Y-41409252D01*
G04 #@! TO.C,R13*
X136136748Y-40842000D02*
X136659252Y-40842000D01*
X136136748Y-39422000D02*
X136659252Y-39422000D01*
G04 #@! TO.C,R12*
X149988748Y-40207000D02*
X150511252Y-40207000D01*
X149988748Y-38787000D02*
X150511252Y-38787000D01*
G04 #@! TO.C,D1*
X129977000Y-56109000D02*
X129977000Y-53249000D01*
X129977000Y-53249000D02*
X131897000Y-53249000D01*
X131897000Y-53249000D02*
X131897000Y-56109000D01*
G04 #@! TO.C,C14*
X139140000Y-57785000D02*
G75*
G03X139140000Y-57785000I-3270000J0D01*
G01*
X135870000Y-54555000D02*
X135870000Y-61015000D01*
X135830000Y-54555000D02*
X135830000Y-61015000D01*
X135790000Y-54555000D02*
X135790000Y-61015000D01*
X135750000Y-54557000D02*
X135750000Y-61013000D01*
X135710000Y-54558000D02*
X135710000Y-61012000D01*
X135670000Y-54561000D02*
X135670000Y-61009000D01*
X135630000Y-54563000D02*
X135630000Y-56745000D01*
X135630000Y-58825000D02*
X135630000Y-61007000D01*
X135590000Y-54567000D02*
X135590000Y-56745000D01*
X135590000Y-58825000D02*
X135590000Y-61003000D01*
X135550000Y-54570000D02*
X135550000Y-56745000D01*
X135550000Y-58825000D02*
X135550000Y-61000000D01*
X135510000Y-54574000D02*
X135510000Y-56745000D01*
X135510000Y-58825000D02*
X135510000Y-60996000D01*
X135470000Y-54579000D02*
X135470000Y-56745000D01*
X135470000Y-58825000D02*
X135470000Y-60991000D01*
X135430000Y-54584000D02*
X135430000Y-56745000D01*
X135430000Y-58825000D02*
X135430000Y-60986000D01*
X135390000Y-54590000D02*
X135390000Y-56745000D01*
X135390000Y-58825000D02*
X135390000Y-60980000D01*
X135350000Y-54596000D02*
X135350000Y-56745000D01*
X135350000Y-58825000D02*
X135350000Y-60974000D01*
X135310000Y-54603000D02*
X135310000Y-56745000D01*
X135310000Y-58825000D02*
X135310000Y-60967000D01*
X135270000Y-54610000D02*
X135270000Y-56745000D01*
X135270000Y-58825000D02*
X135270000Y-60960000D01*
X135230000Y-54618000D02*
X135230000Y-56745000D01*
X135230000Y-58825000D02*
X135230000Y-60952000D01*
X135190000Y-54626000D02*
X135190000Y-56745000D01*
X135190000Y-58825000D02*
X135190000Y-60944000D01*
X135149000Y-54635000D02*
X135149000Y-56745000D01*
X135149000Y-58825000D02*
X135149000Y-60935000D01*
X135109000Y-54644000D02*
X135109000Y-56745000D01*
X135109000Y-58825000D02*
X135109000Y-60926000D01*
X135069000Y-54654000D02*
X135069000Y-56745000D01*
X135069000Y-58825000D02*
X135069000Y-60916000D01*
X135029000Y-54664000D02*
X135029000Y-56745000D01*
X135029000Y-58825000D02*
X135029000Y-60906000D01*
X134989000Y-54675000D02*
X134989000Y-56745000D01*
X134989000Y-58825000D02*
X134989000Y-60895000D01*
X134949000Y-54687000D02*
X134949000Y-56745000D01*
X134949000Y-58825000D02*
X134949000Y-60883000D01*
X134909000Y-54699000D02*
X134909000Y-56745000D01*
X134909000Y-58825000D02*
X134909000Y-60871000D01*
X134869000Y-54711000D02*
X134869000Y-56745000D01*
X134869000Y-58825000D02*
X134869000Y-60859000D01*
X134829000Y-54724000D02*
X134829000Y-56745000D01*
X134829000Y-58825000D02*
X134829000Y-60846000D01*
X134789000Y-54738000D02*
X134789000Y-56745000D01*
X134789000Y-58825000D02*
X134789000Y-60832000D01*
X134749000Y-54752000D02*
X134749000Y-56745000D01*
X134749000Y-58825000D02*
X134749000Y-60818000D01*
X134709000Y-54767000D02*
X134709000Y-56745000D01*
X134709000Y-58825000D02*
X134709000Y-60803000D01*
X134669000Y-54783000D02*
X134669000Y-56745000D01*
X134669000Y-58825000D02*
X134669000Y-60787000D01*
X134629000Y-54799000D02*
X134629000Y-56745000D01*
X134629000Y-58825000D02*
X134629000Y-60771000D01*
X134589000Y-54815000D02*
X134589000Y-56745000D01*
X134589000Y-58825000D02*
X134589000Y-60755000D01*
X134549000Y-54833000D02*
X134549000Y-56745000D01*
X134549000Y-58825000D02*
X134549000Y-60737000D01*
X134509000Y-54851000D02*
X134509000Y-56745000D01*
X134509000Y-58825000D02*
X134509000Y-60719000D01*
X134469000Y-54869000D02*
X134469000Y-56745000D01*
X134469000Y-58825000D02*
X134469000Y-60701000D01*
X134429000Y-54889000D02*
X134429000Y-56745000D01*
X134429000Y-58825000D02*
X134429000Y-60681000D01*
X134389000Y-54909000D02*
X134389000Y-56745000D01*
X134389000Y-58825000D02*
X134389000Y-60661000D01*
X134349000Y-54929000D02*
X134349000Y-56745000D01*
X134349000Y-58825000D02*
X134349000Y-60641000D01*
X134309000Y-54951000D02*
X134309000Y-56745000D01*
X134309000Y-58825000D02*
X134309000Y-60619000D01*
X134269000Y-54973000D02*
X134269000Y-56745000D01*
X134269000Y-58825000D02*
X134269000Y-60597000D01*
X134229000Y-54995000D02*
X134229000Y-56745000D01*
X134229000Y-58825000D02*
X134229000Y-60575000D01*
X134189000Y-55019000D02*
X134189000Y-56745000D01*
X134189000Y-58825000D02*
X134189000Y-60551000D01*
X134149000Y-55043000D02*
X134149000Y-56745000D01*
X134149000Y-58825000D02*
X134149000Y-60527000D01*
X134109000Y-55069000D02*
X134109000Y-56745000D01*
X134109000Y-58825000D02*
X134109000Y-60501000D01*
X134069000Y-55095000D02*
X134069000Y-56745000D01*
X134069000Y-58825000D02*
X134069000Y-60475000D01*
X134029000Y-55121000D02*
X134029000Y-56745000D01*
X134029000Y-58825000D02*
X134029000Y-60449000D01*
X133989000Y-55149000D02*
X133989000Y-56745000D01*
X133989000Y-58825000D02*
X133989000Y-60421000D01*
X133949000Y-55178000D02*
X133949000Y-56745000D01*
X133949000Y-58825000D02*
X133949000Y-60392000D01*
X133909000Y-55207000D02*
X133909000Y-56745000D01*
X133909000Y-58825000D02*
X133909000Y-60363000D01*
X133869000Y-55237000D02*
X133869000Y-56745000D01*
X133869000Y-58825000D02*
X133869000Y-60333000D01*
X133829000Y-55269000D02*
X133829000Y-56745000D01*
X133829000Y-58825000D02*
X133829000Y-60301000D01*
X133789000Y-55301000D02*
X133789000Y-56745000D01*
X133789000Y-58825000D02*
X133789000Y-60269000D01*
X133749000Y-55335000D02*
X133749000Y-56745000D01*
X133749000Y-58825000D02*
X133749000Y-60235000D01*
X133709000Y-55369000D02*
X133709000Y-56745000D01*
X133709000Y-58825000D02*
X133709000Y-60201000D01*
X133669000Y-55405000D02*
X133669000Y-56745000D01*
X133669000Y-58825000D02*
X133669000Y-60165000D01*
X133629000Y-55442000D02*
X133629000Y-56745000D01*
X133629000Y-58825000D02*
X133629000Y-60128000D01*
X133589000Y-55480000D02*
X133589000Y-56745000D01*
X133589000Y-58825000D02*
X133589000Y-60090000D01*
X133549000Y-55520000D02*
X133549000Y-60050000D01*
X133509000Y-55561000D02*
X133509000Y-60009000D01*
X133469000Y-55603000D02*
X133469000Y-59967000D01*
X133429000Y-55648000D02*
X133429000Y-59922000D01*
X133389000Y-55693000D02*
X133389000Y-59877000D01*
X133349000Y-55741000D02*
X133349000Y-59829000D01*
X133309000Y-55790000D02*
X133309000Y-59780000D01*
X133269000Y-55841000D02*
X133269000Y-59729000D01*
X133229000Y-55895000D02*
X133229000Y-59675000D01*
X133189000Y-55951000D02*
X133189000Y-59619000D01*
X133149000Y-56009000D02*
X133149000Y-59561000D01*
X133109000Y-56071000D02*
X133109000Y-59499000D01*
X133069000Y-56135000D02*
X133069000Y-59435000D01*
X133029000Y-56204000D02*
X133029000Y-59366000D01*
X132989000Y-56276000D02*
X132989000Y-59294000D01*
X132949000Y-56353000D02*
X132949000Y-59217000D01*
X132909000Y-56435000D02*
X132909000Y-59135000D01*
X132869000Y-56523000D02*
X132869000Y-59047000D01*
X132829000Y-56620000D02*
X132829000Y-58950000D01*
X132789000Y-56726000D02*
X132789000Y-58844000D01*
X132749000Y-56845000D02*
X132749000Y-58725000D01*
X132709000Y-56983000D02*
X132709000Y-58587000D01*
X132669000Y-57152000D02*
X132669000Y-58418000D01*
X132629000Y-57383000D02*
X132629000Y-58187000D01*
X139370241Y-55946000D02*
X138740241Y-55946000D01*
X139055241Y-55631000D02*
X139055241Y-56261000D01*
G04 #@! TO.C,C1*
X135203000Y-63126252D02*
X135203000Y-62603748D01*
X133783000Y-63126252D02*
X133783000Y-62603748D01*
G04 #@! TO.C,prog*
X150681000Y-34095000D02*
X145474000Y-34095000D01*
X144204000Y-34095000D02*
X144204000Y-35111000D01*
X144204000Y-35111000D02*
X144585000Y-35111000D01*
X144585000Y-35111000D02*
X144585000Y-37651000D01*
X144585000Y-37651000D02*
X151570000Y-37651000D01*
X151570000Y-37651000D02*
X151570000Y-35111000D01*
X151570000Y-35111000D02*
X151951000Y-35111000D01*
X151951000Y-35111000D02*
X151951000Y-34095000D01*
X151951000Y-34095000D02*
X150935000Y-34095000D01*
X145220000Y-34095000D02*
X144204000Y-34095000D01*
G04 #@! TO.C,ESP8266*
X165282000Y-63619000D02*
X165282000Y-47379000D01*
X165282000Y-47379000D02*
X157662000Y-47379000D01*
X141662000Y-47379000D02*
X141042000Y-47379000D01*
X141042000Y-47379000D02*
X141042000Y-49499000D01*
X141042000Y-61499000D02*
X141042000Y-63619000D01*
X141042000Y-63619000D02*
X141662000Y-63619000D01*
X157662000Y-63619000D02*
X165282000Y-63619000D01*
X157662000Y-63619000D02*
X157662000Y-64229000D01*
D10*
G04 #@! TO.C,U1*
X124552000Y-42502000D02*
X124602000Y-42502000D01*
X124552000Y-46652000D02*
X124697000Y-46652000D01*
X129702000Y-46652000D02*
X129557000Y-46652000D01*
X129702000Y-42502000D02*
X129557000Y-42502000D01*
X124552000Y-42502000D02*
X124552000Y-46652000D01*
X129702000Y-42502000D02*
X129702000Y-46652000D01*
X124602000Y-42502000D02*
X124602000Y-41102000D01*
G04 #@! TO.C,U3*
X99950000Y-64809000D02*
X99950000Y-66159000D01*
X96800000Y-64809000D02*
X96800000Y-60159000D01*
X100050000Y-64809000D02*
X100050000Y-60159000D01*
X96800000Y-64809000D02*
X97000000Y-64809000D01*
X96800000Y-60159000D02*
X97000000Y-60159000D01*
X100050000Y-60159000D02*
X99850000Y-60159000D01*
X100050000Y-64809000D02*
X99950000Y-64809000D01*
D12*
G04 #@! TO.C,prog*
X73474000Y-69410000D02*
X74490000Y-69410000D01*
X66743000Y-69410000D02*
X67759000Y-69410000D01*
X66743000Y-68394000D02*
X66743000Y-69410000D01*
X67124000Y-68394000D02*
X66743000Y-68394000D01*
X67124000Y-65854000D02*
X67124000Y-68394000D01*
X74109000Y-65854000D02*
X67124000Y-65854000D01*
X74109000Y-68394000D02*
X74109000Y-65854000D01*
X74490000Y-68394000D02*
X74109000Y-68394000D01*
X74490000Y-69410000D02*
X74490000Y-68394000D01*
X68013000Y-69410000D02*
X73220000Y-69410000D01*
D10*
G04 #@! TO.C,U1*
X94092000Y-61003000D02*
X94092000Y-62403000D01*
X88992000Y-61003000D02*
X88992000Y-56853000D01*
X94142000Y-61003000D02*
X94142000Y-56853000D01*
X88992000Y-61003000D02*
X89137000Y-61003000D01*
X88992000Y-56853000D02*
X89137000Y-56853000D01*
X94142000Y-56853000D02*
X93997000Y-56853000D01*
X94142000Y-61003000D02*
X94092000Y-61003000D01*
D12*
G04 #@! TO.C,ESP8266*
X61032000Y-39886000D02*
X61032000Y-39276000D01*
X61032000Y-39886000D02*
X53412000Y-39886000D01*
X77652000Y-39886000D02*
X77032000Y-39886000D01*
X77652000Y-42006000D02*
X77652000Y-39886000D01*
X77652000Y-56126000D02*
X77652000Y-54006000D01*
X77032000Y-56126000D02*
X77652000Y-56126000D01*
X53412000Y-56126000D02*
X61032000Y-56126000D01*
X53412000Y-39886000D02*
X53412000Y-56126000D01*
G04 #@! TO.C,C1*
X84911000Y-40378748D02*
X84911000Y-40901252D01*
X83491000Y-40378748D02*
X83491000Y-40901252D01*
G04 #@! TO.C,C14*
X79638759Y-47874000D02*
X79638759Y-47244000D01*
X79323759Y-47559000D02*
X79953759Y-47559000D01*
X86065000Y-46122000D02*
X86065000Y-45318000D01*
X86025000Y-46353000D02*
X86025000Y-45087000D01*
X85985000Y-46522000D02*
X85985000Y-44918000D01*
X85945000Y-46660000D02*
X85945000Y-44780000D01*
X85905000Y-46779000D02*
X85905000Y-44661000D01*
X85865000Y-46885000D02*
X85865000Y-44555000D01*
X85825000Y-46982000D02*
X85825000Y-44458000D01*
X85785000Y-47070000D02*
X85785000Y-44370000D01*
X85745000Y-47152000D02*
X85745000Y-44288000D01*
X85705000Y-47229000D02*
X85705000Y-44211000D01*
X85665000Y-47301000D02*
X85665000Y-44139000D01*
X85625000Y-47370000D02*
X85625000Y-44070000D01*
X85585000Y-47434000D02*
X85585000Y-44006000D01*
X85545000Y-47496000D02*
X85545000Y-43944000D01*
X85505000Y-47554000D02*
X85505000Y-43886000D01*
X85465000Y-47610000D02*
X85465000Y-43830000D01*
X85425000Y-47664000D02*
X85425000Y-43776000D01*
X85385000Y-47715000D02*
X85385000Y-43725000D01*
X85345000Y-47764000D02*
X85345000Y-43676000D01*
X85305000Y-47812000D02*
X85305000Y-43628000D01*
X85265000Y-47857000D02*
X85265000Y-43583000D01*
X85225000Y-47902000D02*
X85225000Y-43538000D01*
X85185000Y-47944000D02*
X85185000Y-43496000D01*
X85145000Y-47985000D02*
X85145000Y-43455000D01*
X85105000Y-44680000D02*
X85105000Y-43415000D01*
X85105000Y-48025000D02*
X85105000Y-46760000D01*
X85065000Y-44680000D02*
X85065000Y-43377000D01*
X85065000Y-48063000D02*
X85065000Y-46760000D01*
X85025000Y-44680000D02*
X85025000Y-43340000D01*
X85025000Y-48100000D02*
X85025000Y-46760000D01*
X84985000Y-44680000D02*
X84985000Y-43304000D01*
X84985000Y-48136000D02*
X84985000Y-46760000D01*
X84945000Y-44680000D02*
X84945000Y-43270000D01*
X84945000Y-48170000D02*
X84945000Y-46760000D01*
X84905000Y-44680000D02*
X84905000Y-43236000D01*
X84905000Y-48204000D02*
X84905000Y-46760000D01*
X84865000Y-44680000D02*
X84865000Y-43204000D01*
X84865000Y-48236000D02*
X84865000Y-46760000D01*
X84825000Y-44680000D02*
X84825000Y-43172000D01*
X84825000Y-48268000D02*
X84825000Y-46760000D01*
X84785000Y-44680000D02*
X84785000Y-43142000D01*
X84785000Y-48298000D02*
X84785000Y-46760000D01*
X84745000Y-44680000D02*
X84745000Y-43113000D01*
X84745000Y-48327000D02*
X84745000Y-46760000D01*
X84705000Y-44680000D02*
X84705000Y-43084000D01*
X84705000Y-48356000D02*
X84705000Y-46760000D01*
X84665000Y-44680000D02*
X84665000Y-43056000D01*
X84665000Y-48384000D02*
X84665000Y-46760000D01*
X84625000Y-44680000D02*
X84625000Y-43030000D01*
X84625000Y-48410000D02*
X84625000Y-46760000D01*
X84585000Y-44680000D02*
X84585000Y-43004000D01*
X84585000Y-48436000D02*
X84585000Y-46760000D01*
X84545000Y-44680000D02*
X84545000Y-42978000D01*
X84545000Y-48462000D02*
X84545000Y-46760000D01*
X84505000Y-44680000D02*
X84505000Y-42954000D01*
X84505000Y-48486000D02*
X84505000Y-46760000D01*
X84465000Y-44680000D02*
X84465000Y-42930000D01*
X84465000Y-48510000D02*
X84465000Y-46760000D01*
X84425000Y-44680000D02*
X84425000Y-42908000D01*
X84425000Y-48532000D02*
X84425000Y-46760000D01*
X84385000Y-44680000D02*
X84385000Y-42886000D01*
X84385000Y-48554000D02*
X84385000Y-46760000D01*
X84345000Y-44680000D02*
X84345000Y-42864000D01*
X84345000Y-48576000D02*
X84345000Y-46760000D01*
X84305000Y-44680000D02*
X84305000Y-42844000D01*
X84305000Y-48596000D02*
X84305000Y-46760000D01*
X84265000Y-44680000D02*
X84265000Y-42824000D01*
X84265000Y-48616000D02*
X84265000Y-46760000D01*
X84225000Y-44680000D02*
X84225000Y-42804000D01*
X84225000Y-48636000D02*
X84225000Y-46760000D01*
X84185000Y-44680000D02*
X84185000Y-42786000D01*
X84185000Y-48654000D02*
X84185000Y-46760000D01*
X84145000Y-44680000D02*
X84145000Y-42768000D01*
X84145000Y-48672000D02*
X84145000Y-46760000D01*
X84105000Y-44680000D02*
X84105000Y-42750000D01*
X84105000Y-48690000D02*
X84105000Y-46760000D01*
X84065000Y-44680000D02*
X84065000Y-42734000D01*
X84065000Y-48706000D02*
X84065000Y-46760000D01*
X84025000Y-44680000D02*
X84025000Y-42718000D01*
X84025000Y-48722000D02*
X84025000Y-46760000D01*
X83985000Y-44680000D02*
X83985000Y-42702000D01*
X83985000Y-48738000D02*
X83985000Y-46760000D01*
X83945000Y-44680000D02*
X83945000Y-42687000D01*
X83945000Y-48753000D02*
X83945000Y-46760000D01*
X83905000Y-44680000D02*
X83905000Y-42673000D01*
X83905000Y-48767000D02*
X83905000Y-46760000D01*
X83865000Y-44680000D02*
X83865000Y-42659000D01*
X83865000Y-48781000D02*
X83865000Y-46760000D01*
X83825000Y-44680000D02*
X83825000Y-42646000D01*
X83825000Y-48794000D02*
X83825000Y-46760000D01*
X83785000Y-44680000D02*
X83785000Y-42634000D01*
X83785000Y-48806000D02*
X83785000Y-46760000D01*
X83745000Y-44680000D02*
X83745000Y-42622000D01*
X83745000Y-48818000D02*
X83745000Y-46760000D01*
X83705000Y-44680000D02*
X83705000Y-42610000D01*
X83705000Y-48830000D02*
X83705000Y-46760000D01*
X83665000Y-44680000D02*
X83665000Y-42599000D01*
X83665000Y-48841000D02*
X83665000Y-46760000D01*
X83625000Y-44680000D02*
X83625000Y-42589000D01*
X83625000Y-48851000D02*
X83625000Y-46760000D01*
X83585000Y-44680000D02*
X83585000Y-42579000D01*
X83585000Y-48861000D02*
X83585000Y-46760000D01*
X83545000Y-44680000D02*
X83545000Y-42570000D01*
X83545000Y-48870000D02*
X83545000Y-46760000D01*
X83504000Y-44680000D02*
X83504000Y-42561000D01*
X83504000Y-48879000D02*
X83504000Y-46760000D01*
X83464000Y-44680000D02*
X83464000Y-42553000D01*
X83464000Y-48887000D02*
X83464000Y-46760000D01*
X83424000Y-44680000D02*
X83424000Y-42545000D01*
X83424000Y-48895000D02*
X83424000Y-46760000D01*
X83384000Y-44680000D02*
X83384000Y-42538000D01*
X83384000Y-48902000D02*
X83384000Y-46760000D01*
X83344000Y-44680000D02*
X83344000Y-42531000D01*
X83344000Y-48909000D02*
X83344000Y-46760000D01*
X83304000Y-44680000D02*
X83304000Y-42525000D01*
X83304000Y-48915000D02*
X83304000Y-46760000D01*
X83264000Y-44680000D02*
X83264000Y-42519000D01*
X83264000Y-48921000D02*
X83264000Y-46760000D01*
X83224000Y-44680000D02*
X83224000Y-42514000D01*
X83224000Y-48926000D02*
X83224000Y-46760000D01*
X83184000Y-44680000D02*
X83184000Y-42509000D01*
X83184000Y-48931000D02*
X83184000Y-46760000D01*
X83144000Y-44680000D02*
X83144000Y-42505000D01*
X83144000Y-48935000D02*
X83144000Y-46760000D01*
X83104000Y-44680000D02*
X83104000Y-42502000D01*
X83104000Y-48938000D02*
X83104000Y-46760000D01*
X83064000Y-44680000D02*
X83064000Y-42498000D01*
X83064000Y-48942000D02*
X83064000Y-46760000D01*
X83024000Y-48944000D02*
X83024000Y-42496000D01*
X82984000Y-48947000D02*
X82984000Y-42493000D01*
X82944000Y-48948000D02*
X82944000Y-42492000D01*
X82904000Y-48950000D02*
X82904000Y-42490000D01*
X82864000Y-48950000D02*
X82864000Y-42490000D01*
X82824000Y-48950000D02*
X82824000Y-42490000D01*
X86094000Y-45720000D02*
G75*
G03X86094000Y-45720000I-3270000J0D01*
G01*
G04 #@! TO.C,C9*
X102223000Y-48361000D02*
X93988000Y-48361000D01*
X102223000Y-43841000D02*
X102223000Y-48361000D01*
X93988000Y-43841000D02*
X102223000Y-43841000D01*
G04 #@! TO.C,D1*
X86797000Y-50256000D02*
X86797000Y-47396000D01*
X88717000Y-50256000D02*
X86797000Y-50256000D01*
X88717000Y-47396000D02*
X88717000Y-50256000D01*
G04 #@! TO.C,R12*
X68705252Y-64718000D02*
X68182748Y-64718000D01*
X68705252Y-63298000D02*
X68182748Y-63298000D01*
G04 #@! TO.C,R13*
X82557252Y-64083000D02*
X82034748Y-64083000D01*
X82557252Y-62663000D02*
X82034748Y-62663000D01*
G04 #@! TO.C,R11*
X78656000Y-62618252D02*
X78656000Y-62095748D01*
X80076000Y-62618252D02*
X80076000Y-62095748D01*
G04 #@! TO.C,R1*
X86562000Y-40378748D02*
X86562000Y-40901252D01*
X85142000Y-40378748D02*
X85142000Y-40901252D01*
G04 #@! TO.C,JP3*
X69070000Y-111617000D02*
X73170000Y-111617000D01*
X73170000Y-111617000D02*
X73170000Y-109617000D01*
X73170000Y-109617000D02*
X69070000Y-109617000D01*
X69070000Y-109617000D02*
X69070000Y-111617000D01*
X69820000Y-109417000D02*
X69520000Y-109117000D01*
X69520000Y-109117000D02*
X70120000Y-109117000D01*
X69820000Y-109417000D02*
X70120000Y-109117000D01*
G04 #@! TO.C,JP2*
X69070000Y-114030000D02*
X73170000Y-114030000D01*
X73170000Y-114030000D02*
X73170000Y-112030000D01*
X73170000Y-112030000D02*
X69070000Y-112030000D01*
X69070000Y-112030000D02*
X69070000Y-114030000D01*
X69820000Y-111830000D02*
X69520000Y-111530000D01*
X69520000Y-111530000D02*
X70120000Y-111530000D01*
X69820000Y-111830000D02*
X70120000Y-111530000D01*
G04 #@! TO.C,JP1*
X69070000Y-116443000D02*
X73170000Y-116443000D01*
X73170000Y-116443000D02*
X73170000Y-114443000D01*
X73170000Y-114443000D02*
X69070000Y-114443000D01*
X69070000Y-114443000D02*
X69070000Y-116443000D01*
X69820000Y-114243000D02*
X69520000Y-113943000D01*
X69520000Y-113943000D02*
X70120000Y-113943000D01*
X69820000Y-114243000D02*
X70120000Y-113943000D01*
G04 #@! TO.C,C1*
X64718000Y-112632748D02*
X64718000Y-113155252D01*
X63298000Y-112632748D02*
X63298000Y-113155252D01*
D10*
X141328142Y-112727333D02*
X141375761Y-112679714D01*
X141423380Y-112536857D01*
X141423380Y-112441619D01*
X141375761Y-112298761D01*
X141280523Y-112203523D01*
X141185285Y-112155904D01*
X140994809Y-112108285D01*
X140851952Y-112108285D01*
X140661476Y-112155904D01*
X140566238Y-112203523D01*
X140471000Y-112298761D01*
X140423380Y-112441619D01*
X140423380Y-112536857D01*
X140471000Y-112679714D01*
X140518619Y-112727333D01*
X141423380Y-113679714D02*
X141423380Y-113108285D01*
X141423380Y-113394000D02*
X140423380Y-113394000D01*
X140566238Y-113298761D01*
X140661476Y-113203523D01*
X140709095Y-113108285D01*
X125580142Y-112727333D02*
X125627761Y-112679714D01*
X125675380Y-112536857D01*
X125675380Y-112441619D01*
X125627761Y-112298761D01*
X125532523Y-112203523D01*
X125437285Y-112155904D01*
X125246809Y-112108285D01*
X125103952Y-112108285D01*
X124913476Y-112155904D01*
X124818238Y-112203523D01*
X124723000Y-112298761D01*
X124675380Y-112441619D01*
X124675380Y-112536857D01*
X124723000Y-112679714D01*
X124770619Y-112727333D01*
X125675380Y-113679714D02*
X125675380Y-113108285D01*
X125675380Y-113394000D02*
X124675380Y-113394000D01*
X124818238Y-113298761D01*
X124913476Y-113203523D01*
X124961095Y-113108285D01*
X109832142Y-112727333D02*
X109879761Y-112679714D01*
X109927380Y-112536857D01*
X109927380Y-112441619D01*
X109879761Y-112298761D01*
X109784523Y-112203523D01*
X109689285Y-112155904D01*
X109498809Y-112108285D01*
X109355952Y-112108285D01*
X109165476Y-112155904D01*
X109070238Y-112203523D01*
X108975000Y-112298761D01*
X108927380Y-112441619D01*
X108927380Y-112536857D01*
X108975000Y-112679714D01*
X109022619Y-112727333D01*
X109927380Y-113679714D02*
X109927380Y-113108285D01*
X109927380Y-113394000D02*
X108927380Y-113394000D01*
X109070238Y-113298761D01*
X109165476Y-113203523D01*
X109213095Y-113108285D01*
X94084142Y-112727333D02*
X94131761Y-112679714D01*
X94179380Y-112536857D01*
X94179380Y-112441619D01*
X94131761Y-112298761D01*
X94036523Y-112203523D01*
X93941285Y-112155904D01*
X93750809Y-112108285D01*
X93607952Y-112108285D01*
X93417476Y-112155904D01*
X93322238Y-112203523D01*
X93227000Y-112298761D01*
X93179380Y-112441619D01*
X93179380Y-112536857D01*
X93227000Y-112679714D01*
X93274619Y-112727333D01*
X94179380Y-113679714D02*
X94179380Y-113108285D01*
X94179380Y-113394000D02*
X93179380Y-113394000D01*
X93322238Y-113298761D01*
X93417476Y-113203523D01*
X93465095Y-113108285D01*
X78336142Y-112727333D02*
X78383761Y-112679714D01*
X78431380Y-112536857D01*
X78431380Y-112441619D01*
X78383761Y-112298761D01*
X78288523Y-112203523D01*
X78193285Y-112155904D01*
X78002809Y-112108285D01*
X77859952Y-112108285D01*
X77669476Y-112155904D01*
X77574238Y-112203523D01*
X77479000Y-112298761D01*
X77431380Y-112441619D01*
X77431380Y-112536857D01*
X77479000Y-112679714D01*
X77526619Y-112727333D01*
X78431380Y-113679714D02*
X78431380Y-113108285D01*
X78431380Y-113394000D02*
X77431380Y-113394000D01*
X77574238Y-113298761D01*
X77669476Y-113203523D01*
X77717095Y-113108285D01*
G04 #@! TO.C,U3*
X98004380Y-97790095D02*
X98813904Y-97790095D01*
X98909142Y-97837714D01*
X98956761Y-97885333D01*
X99004380Y-97980571D01*
X99004380Y-98171047D01*
X98956761Y-98266285D01*
X98909142Y-98313904D01*
X98813904Y-98361523D01*
X98004380Y-98361523D01*
X98004380Y-98742476D02*
X98004380Y-99361523D01*
X98385333Y-99028190D01*
X98385333Y-99171047D01*
X98432952Y-99266285D01*
X98480571Y-99313904D01*
X98575809Y-99361523D01*
X98813904Y-99361523D01*
X98909142Y-99313904D01*
X98956761Y-99266285D01*
X99004380Y-99171047D01*
X99004380Y-98885333D01*
X98956761Y-98790095D01*
X98909142Y-98742476D01*
G04 #@! TO.C,U1*
X126071380Y-80264095D02*
X126880904Y-80264095D01*
X126976142Y-80311714D01*
X127023761Y-80359333D01*
X127071380Y-80454571D01*
X127071380Y-80645047D01*
X127023761Y-80740285D01*
X126976142Y-80787904D01*
X126880904Y-80835523D01*
X126071380Y-80835523D01*
X127071380Y-81835523D02*
X127071380Y-81264095D01*
X127071380Y-81549809D02*
X126071380Y-81549809D01*
X126214238Y-81454571D01*
X126309476Y-81359333D01*
X126357095Y-81264095D01*
G04 #@! TO.C,C14*
X139032857Y-90781142D02*
X139080476Y-90828761D01*
X139223333Y-90876380D01*
X139318571Y-90876380D01*
X139461428Y-90828761D01*
X139556666Y-90733523D01*
X139604285Y-90638285D01*
X139651904Y-90447809D01*
X139651904Y-90304952D01*
X139604285Y-90114476D01*
X139556666Y-90019238D01*
X139461428Y-89924000D01*
X139318571Y-89876380D01*
X139223333Y-89876380D01*
X139080476Y-89924000D01*
X139032857Y-89971619D01*
X138080476Y-90876380D02*
X138651904Y-90876380D01*
X138366190Y-90876380D02*
X138366190Y-89876380D01*
X138461428Y-90019238D01*
X138556666Y-90114476D01*
X138651904Y-90162095D01*
X137223333Y-90209714D02*
X137223333Y-90876380D01*
X137461428Y-89828761D02*
X137699523Y-90543047D01*
X137080476Y-90543047D01*
G04 #@! TO.C,C9*
X121197666Y-91035142D02*
X121245285Y-91082761D01*
X121388142Y-91130380D01*
X121483380Y-91130380D01*
X121626238Y-91082761D01*
X121721476Y-90987523D01*
X121769095Y-90892285D01*
X121816714Y-90701809D01*
X121816714Y-90558952D01*
X121769095Y-90368476D01*
X121721476Y-90273238D01*
X121626238Y-90178000D01*
X121483380Y-90130380D01*
X121388142Y-90130380D01*
X121245285Y-90178000D01*
X121197666Y-90225619D01*
X120721476Y-91130380D02*
X120531000Y-91130380D01*
X120435761Y-91082761D01*
X120388142Y-91035142D01*
X120292904Y-90892285D01*
X120245285Y-90701809D01*
X120245285Y-90320857D01*
X120292904Y-90225619D01*
X120340523Y-90178000D01*
X120435761Y-90130380D01*
X120626238Y-90130380D01*
X120721476Y-90178000D01*
X120769095Y-90225619D01*
X120816714Y-90320857D01*
X120816714Y-90558952D01*
X120769095Y-90654190D01*
X120721476Y-90701809D01*
X120626238Y-90749428D01*
X120435761Y-90749428D01*
X120340523Y-90701809D01*
X120292904Y-90654190D01*
X120245285Y-90558952D01*
X97829666Y-86082142D02*
X97877285Y-86129761D01*
X98020142Y-86177380D01*
X98115380Y-86177380D01*
X98258238Y-86129761D01*
X98353476Y-86034523D01*
X98401095Y-85939285D01*
X98448714Y-85748809D01*
X98448714Y-85605952D01*
X98401095Y-85415476D01*
X98353476Y-85320238D01*
X98258238Y-85225000D01*
X98115380Y-85177380D01*
X98020142Y-85177380D01*
X97877285Y-85225000D01*
X97829666Y-85272619D01*
X97353476Y-86177380D02*
X97163000Y-86177380D01*
X97067761Y-86129761D01*
X97020142Y-86082142D01*
X96924904Y-85939285D01*
X96877285Y-85748809D01*
X96877285Y-85367857D01*
X96924904Y-85272619D01*
X96972523Y-85225000D01*
X97067761Y-85177380D01*
X97258238Y-85177380D01*
X97353476Y-85225000D01*
X97401095Y-85272619D01*
X97448714Y-85367857D01*
X97448714Y-85605952D01*
X97401095Y-85701190D01*
X97353476Y-85748809D01*
X97258238Y-85796428D01*
X97067761Y-85796428D01*
X96972523Y-85748809D01*
X96924904Y-85701190D01*
X96877285Y-85605952D01*
G04 #@! TO.C,R1*
X132389619Y-102655666D02*
X132865809Y-102989000D01*
X132389619Y-103227095D02*
X133389619Y-103227095D01*
X133389619Y-102846142D01*
X133342000Y-102750904D01*
X133294380Y-102703285D01*
X133199142Y-102655666D01*
X133056285Y-102655666D01*
X132961047Y-102703285D01*
X132913428Y-102750904D01*
X132865809Y-102846142D01*
X132865809Y-103227095D01*
X132389619Y-101703285D02*
X132389619Y-102274714D01*
X132389619Y-101989000D02*
X133389619Y-101989000D01*
X133246761Y-102084238D01*
X133151523Y-102179476D01*
X133103904Y-102274714D01*
G04 #@! TO.C,R11*
X141422380Y-76954142D02*
X140946190Y-76620809D01*
X141422380Y-76382714D02*
X140422380Y-76382714D01*
X140422380Y-76763666D01*
X140470000Y-76858904D01*
X140517619Y-76906523D01*
X140612857Y-76954142D01*
X140755714Y-76954142D01*
X140850952Y-76906523D01*
X140898571Y-76858904D01*
X140946190Y-76763666D01*
X140946190Y-76382714D01*
X141422380Y-77906523D02*
X141422380Y-77335095D01*
X141422380Y-77620809D02*
X140422380Y-77620809D01*
X140565238Y-77525571D01*
X140660476Y-77430333D01*
X140708095Y-77335095D01*
X141422380Y-78858904D02*
X141422380Y-78287476D01*
X141422380Y-78573190D02*
X140422380Y-78573190D01*
X140565238Y-78477952D01*
X140660476Y-78382714D01*
X140708095Y-78287476D01*
G04 #@! TO.C,R13*
X137040857Y-78684380D02*
X137374190Y-78208190D01*
X137612285Y-78684380D02*
X137612285Y-77684380D01*
X137231333Y-77684380D01*
X137136095Y-77732000D01*
X137088476Y-77779619D01*
X137040857Y-77874857D01*
X137040857Y-78017714D01*
X137088476Y-78112952D01*
X137136095Y-78160571D01*
X137231333Y-78208190D01*
X137612285Y-78208190D01*
X136088476Y-78684380D02*
X136659904Y-78684380D01*
X136374190Y-78684380D02*
X136374190Y-77684380D01*
X136469428Y-77827238D01*
X136564666Y-77922476D01*
X136659904Y-77970095D01*
X135755142Y-77684380D02*
X135136095Y-77684380D01*
X135469428Y-78065333D01*
X135326571Y-78065333D01*
X135231333Y-78112952D01*
X135183714Y-78160571D01*
X135136095Y-78255809D01*
X135136095Y-78493904D01*
X135183714Y-78589142D01*
X135231333Y-78636761D01*
X135326571Y-78684380D01*
X135612285Y-78684380D01*
X135707523Y-78636761D01*
X135755142Y-78589142D01*
G04 #@! TO.C,R12*
X150892857Y-78048380D02*
X151226190Y-77572190D01*
X151464285Y-78048380D02*
X151464285Y-77048380D01*
X151083333Y-77048380D01*
X150988095Y-77096000D01*
X150940476Y-77143619D01*
X150892857Y-77238857D01*
X150892857Y-77381714D01*
X150940476Y-77476952D01*
X150988095Y-77524571D01*
X151083333Y-77572190D01*
X151464285Y-77572190D01*
X149940476Y-78048380D02*
X150511904Y-78048380D01*
X150226190Y-78048380D02*
X150226190Y-77048380D01*
X150321428Y-77191238D01*
X150416666Y-77286476D01*
X150511904Y-77334095D01*
X149559523Y-77143619D02*
X149511904Y-77096000D01*
X149416666Y-77048380D01*
X149178571Y-77048380D01*
X149083333Y-77096000D01*
X149035714Y-77143619D01*
X148988095Y-77238857D01*
X148988095Y-77334095D01*
X149035714Y-77476952D01*
X149607142Y-78048380D01*
X148988095Y-78048380D01*
G04 #@! TO.C,R1*
X86304380Y-73747333D02*
X85828190Y-73414000D01*
X86304380Y-73175904D02*
X85304380Y-73175904D01*
X85304380Y-73556857D01*
X85352000Y-73652095D01*
X85399619Y-73699714D01*
X85494857Y-73747333D01*
X85637714Y-73747333D01*
X85732952Y-73699714D01*
X85780571Y-73652095D01*
X85828190Y-73556857D01*
X85828190Y-73175904D01*
X86304380Y-74699714D02*
X86304380Y-74128285D01*
X86304380Y-74414000D02*
X85304380Y-74414000D01*
X85447238Y-74318761D01*
X85542476Y-74223523D01*
X85590095Y-74128285D01*
G04 #@! TO.C,R11*
X78176380Y-98163142D02*
X77700190Y-97829809D01*
X78176380Y-97591714D02*
X77176380Y-97591714D01*
X77176380Y-97972666D01*
X77224000Y-98067904D01*
X77271619Y-98115523D01*
X77366857Y-98163142D01*
X77509714Y-98163142D01*
X77604952Y-98115523D01*
X77652571Y-98067904D01*
X77700190Y-97972666D01*
X77700190Y-97591714D01*
X78176380Y-99115523D02*
X78176380Y-98544095D01*
X78176380Y-98829809D02*
X77176380Y-98829809D01*
X77319238Y-98734571D01*
X77414476Y-98639333D01*
X77462095Y-98544095D01*
X78176380Y-100067904D02*
X78176380Y-99496476D01*
X78176380Y-99782190D02*
X77176380Y-99782190D01*
X77319238Y-99686952D01*
X77414476Y-99591714D01*
X77462095Y-99496476D01*
G04 #@! TO.C,R13*
X82938857Y-98623380D02*
X83272190Y-98147190D01*
X83510285Y-98623380D02*
X83510285Y-97623380D01*
X83129333Y-97623380D01*
X83034095Y-97671000D01*
X82986476Y-97718619D01*
X82938857Y-97813857D01*
X82938857Y-97956714D01*
X82986476Y-98051952D01*
X83034095Y-98099571D01*
X83129333Y-98147190D01*
X83510285Y-98147190D01*
X81986476Y-98623380D02*
X82557904Y-98623380D01*
X82272190Y-98623380D02*
X82272190Y-97623380D01*
X82367428Y-97766238D01*
X82462666Y-97861476D01*
X82557904Y-97909095D01*
X81653142Y-97623380D02*
X81034095Y-97623380D01*
X81367428Y-98004333D01*
X81224571Y-98004333D01*
X81129333Y-98051952D01*
X81081714Y-98099571D01*
X81034095Y-98194809D01*
X81034095Y-98432904D01*
X81081714Y-98528142D01*
X81129333Y-98575761D01*
X81224571Y-98623380D01*
X81510285Y-98623380D01*
X81605523Y-98575761D01*
X81653142Y-98528142D01*
G04 #@! TO.C,R12*
X69086857Y-99259380D02*
X69420190Y-98783190D01*
X69658285Y-99259380D02*
X69658285Y-98259380D01*
X69277333Y-98259380D01*
X69182095Y-98307000D01*
X69134476Y-98354619D01*
X69086857Y-98449857D01*
X69086857Y-98592714D01*
X69134476Y-98687952D01*
X69182095Y-98735571D01*
X69277333Y-98783190D01*
X69658285Y-98783190D01*
X68134476Y-99259380D02*
X68705904Y-99259380D01*
X68420190Y-99259380D02*
X68420190Y-98259380D01*
X68515428Y-98402238D01*
X68610666Y-98497476D01*
X68705904Y-98545095D01*
X67753523Y-98354619D02*
X67705904Y-98307000D01*
X67610666Y-98259380D01*
X67372571Y-98259380D01*
X67277333Y-98307000D01*
X67229714Y-98354619D01*
X67182095Y-98449857D01*
X67182095Y-98545095D01*
X67229714Y-98687952D01*
X67801142Y-99259380D01*
X67182095Y-99259380D01*
G04 #@! TO.C,D1*
X89987380Y-84106904D02*
X88987380Y-84106904D01*
X88987380Y-84345000D01*
X89035000Y-84487857D01*
X89130238Y-84583095D01*
X89225476Y-84630714D01*
X89415952Y-84678333D01*
X89558809Y-84678333D01*
X89749285Y-84630714D01*
X89844523Y-84583095D01*
X89939761Y-84487857D01*
X89987380Y-84345000D01*
X89987380Y-84106904D01*
X89987380Y-85630714D02*
X89987380Y-85059285D01*
X89987380Y-85345000D02*
X88987380Y-85345000D01*
X89130238Y-85249761D01*
X89225476Y-85154523D01*
X89273095Y-85059285D01*
G04 #@! TO.C,C14*
X80946857Y-86336142D02*
X80994476Y-86383761D01*
X81137333Y-86431380D01*
X81232571Y-86431380D01*
X81375428Y-86383761D01*
X81470666Y-86288523D01*
X81518285Y-86193285D01*
X81565904Y-86002809D01*
X81565904Y-85859952D01*
X81518285Y-85669476D01*
X81470666Y-85574238D01*
X81375428Y-85479000D01*
X81232571Y-85431380D01*
X81137333Y-85431380D01*
X80994476Y-85479000D01*
X80946857Y-85526619D01*
X79994476Y-86431380D02*
X80565904Y-86431380D01*
X80280190Y-86431380D02*
X80280190Y-85431380D01*
X80375428Y-85574238D01*
X80470666Y-85669476D01*
X80565904Y-85717095D01*
X79137333Y-85764714D02*
X79137333Y-86431380D01*
X79375428Y-85383761D02*
X79613523Y-86098047D01*
X78994476Y-86098047D01*
G04 #@! TO.C,C1*
X84558142Y-73747333D02*
X84605761Y-73699714D01*
X84653380Y-73556857D01*
X84653380Y-73461619D01*
X84605761Y-73318761D01*
X84510523Y-73223523D01*
X84415285Y-73175904D01*
X84224809Y-73128285D01*
X84081952Y-73128285D01*
X83891476Y-73175904D01*
X83796238Y-73223523D01*
X83701000Y-73318761D01*
X83653380Y-73461619D01*
X83653380Y-73556857D01*
X83701000Y-73699714D01*
X83748619Y-73747333D01*
X84653380Y-74699714D02*
X84653380Y-74128285D01*
X84653380Y-74414000D02*
X83653380Y-74414000D01*
X83796238Y-74318761D01*
X83891476Y-74223523D01*
X83939095Y-74128285D01*
G04 #@! TO.C,D1*
X129611380Y-90819904D02*
X128611380Y-90819904D01*
X128611380Y-91058000D01*
X128659000Y-91200857D01*
X128754238Y-91296095D01*
X128849476Y-91343714D01*
X129039952Y-91391333D01*
X129182809Y-91391333D01*
X129373285Y-91343714D01*
X129468523Y-91296095D01*
X129563761Y-91200857D01*
X129611380Y-91058000D01*
X129611380Y-90819904D01*
X129611380Y-92343714D02*
X129611380Y-91772285D01*
X129611380Y-92058000D02*
X128611380Y-92058000D01*
X128754238Y-91962761D01*
X128849476Y-91867523D01*
X128897095Y-91772285D01*
G04 #@! TO.C,prog*
X73437571Y-100369714D02*
X73437571Y-101369714D01*
X73437571Y-100417333D02*
X73342333Y-100369714D01*
X73151857Y-100369714D01*
X73056619Y-100417333D01*
X73009000Y-100464952D01*
X72961380Y-100560190D01*
X72961380Y-100845904D01*
X73009000Y-100941142D01*
X73056619Y-100988761D01*
X73151857Y-101036380D01*
X73342333Y-101036380D01*
X73437571Y-100988761D01*
X72532809Y-101036380D02*
X72532809Y-100369714D01*
X72532809Y-100560190D02*
X72485190Y-100464952D01*
X72437571Y-100417333D01*
X72342333Y-100369714D01*
X72247095Y-100369714D01*
X71770904Y-101036380D02*
X71866142Y-100988761D01*
X71913761Y-100941142D01*
X71961380Y-100845904D01*
X71961380Y-100560190D01*
X71913761Y-100464952D01*
X71866142Y-100417333D01*
X71770904Y-100369714D01*
X71628047Y-100369714D01*
X71532809Y-100417333D01*
X71485190Y-100464952D01*
X71437571Y-100560190D01*
X71437571Y-100845904D01*
X71485190Y-100941142D01*
X71532809Y-100988761D01*
X71628047Y-101036380D01*
X71770904Y-101036380D01*
X70580428Y-100369714D02*
X70580428Y-101179238D01*
X70628047Y-101274476D01*
X70675666Y-101322095D01*
X70770904Y-101369714D01*
X70913761Y-101369714D01*
X71009000Y-101322095D01*
X70580428Y-100988761D02*
X70675666Y-101036380D01*
X70866142Y-101036380D01*
X70961380Y-100988761D01*
X71009000Y-100941142D01*
X71056619Y-100845904D01*
X71056619Y-100560190D01*
X71009000Y-100464952D01*
X70961380Y-100417333D01*
X70866142Y-100369714D01*
X70675666Y-100369714D01*
X70580428Y-100417333D01*
G04 #@! TO.C,C1*
X134850142Y-102322333D02*
X134897761Y-102274714D01*
X134945380Y-102131857D01*
X134945380Y-102036619D01*
X134897761Y-101893761D01*
X134802523Y-101798523D01*
X134707285Y-101750904D01*
X134516809Y-101703285D01*
X134373952Y-101703285D01*
X134183476Y-101750904D01*
X134088238Y-101798523D01*
X133993000Y-101893761D01*
X133945380Y-102036619D01*
X133945380Y-102131857D01*
X133993000Y-102274714D01*
X134040619Y-102322333D01*
X134945380Y-103274714D02*
X134945380Y-102703285D01*
X134945380Y-102989000D02*
X133945380Y-102989000D01*
X134088238Y-102893761D01*
X134183476Y-102798523D01*
X134231095Y-102703285D01*
G04 #@! TO.C,ESP8266*
X65587571Y-80978761D02*
X65587571Y-81312095D01*
X66111380Y-81454952D02*
X66111380Y-80978761D01*
X65111380Y-80978761D01*
X65111380Y-81454952D01*
X66063761Y-81835904D02*
X66111380Y-81978761D01*
X66111380Y-82216857D01*
X66063761Y-82312095D01*
X66016142Y-82359714D01*
X65920904Y-82407333D01*
X65825666Y-82407333D01*
X65730428Y-82359714D01*
X65682809Y-82312095D01*
X65635190Y-82216857D01*
X65587571Y-82026380D01*
X65539952Y-81931142D01*
X65492333Y-81883523D01*
X65397095Y-81835904D01*
X65301857Y-81835904D01*
X65206619Y-81883523D01*
X65159000Y-81931142D01*
X65111380Y-82026380D01*
X65111380Y-82264476D01*
X65159000Y-82407333D01*
X66111380Y-82835904D02*
X65111380Y-82835904D01*
X65111380Y-83216857D01*
X65159000Y-83312095D01*
X65206619Y-83359714D01*
X65301857Y-83407333D01*
X65444714Y-83407333D01*
X65539952Y-83359714D01*
X65587571Y-83312095D01*
X65635190Y-83216857D01*
X65635190Y-82835904D01*
X65539952Y-83978761D02*
X65492333Y-83883523D01*
X65444714Y-83835904D01*
X65349476Y-83788285D01*
X65301857Y-83788285D01*
X65206619Y-83835904D01*
X65159000Y-83883523D01*
X65111380Y-83978761D01*
X65111380Y-84169238D01*
X65159000Y-84264476D01*
X65206619Y-84312095D01*
X65301857Y-84359714D01*
X65349476Y-84359714D01*
X65444714Y-84312095D01*
X65492333Y-84264476D01*
X65539952Y-84169238D01*
X65539952Y-83978761D01*
X65587571Y-83883523D01*
X65635190Y-83835904D01*
X65730428Y-83788285D01*
X65920904Y-83788285D01*
X66016142Y-83835904D01*
X66063761Y-83883523D01*
X66111380Y-83978761D01*
X66111380Y-84169238D01*
X66063761Y-84264476D01*
X66016142Y-84312095D01*
X65920904Y-84359714D01*
X65730428Y-84359714D01*
X65635190Y-84312095D01*
X65587571Y-84264476D01*
X65539952Y-84169238D01*
X65206619Y-84740666D02*
X65159000Y-84788285D01*
X65111380Y-84883523D01*
X65111380Y-85121619D01*
X65159000Y-85216857D01*
X65206619Y-85264476D01*
X65301857Y-85312095D01*
X65397095Y-85312095D01*
X65539952Y-85264476D01*
X66111380Y-84693047D01*
X66111380Y-85312095D01*
X65111380Y-86169238D02*
X65111380Y-85978761D01*
X65159000Y-85883523D01*
X65206619Y-85835904D01*
X65349476Y-85740666D01*
X65539952Y-85693047D01*
X65920904Y-85693047D01*
X66016142Y-85740666D01*
X66063761Y-85788285D01*
X66111380Y-85883523D01*
X66111380Y-86074000D01*
X66063761Y-86169238D01*
X66016142Y-86216857D01*
X65920904Y-86264476D01*
X65682809Y-86264476D01*
X65587571Y-86216857D01*
X65539952Y-86169238D01*
X65492333Y-86074000D01*
X65492333Y-85883523D01*
X65539952Y-85788285D01*
X65587571Y-85740666D01*
X65682809Y-85693047D01*
X65111380Y-87121619D02*
X65111380Y-86931142D01*
X65159000Y-86835904D01*
X65206619Y-86788285D01*
X65349476Y-86693047D01*
X65539952Y-86645428D01*
X65920904Y-86645428D01*
X66016142Y-86693047D01*
X66063761Y-86740666D01*
X66111380Y-86835904D01*
X66111380Y-87026380D01*
X66063761Y-87121619D01*
X66016142Y-87169238D01*
X65920904Y-87216857D01*
X65682809Y-87216857D01*
X65587571Y-87169238D01*
X65539952Y-87121619D01*
X65492333Y-87026380D01*
X65492333Y-86835904D01*
X65539952Y-86740666D01*
X65587571Y-86693047D01*
X65682809Y-86645428D01*
G04 #@! TO.C,U1*
X91527380Y-94615095D02*
X92336904Y-94615095D01*
X92432142Y-94662714D01*
X92479761Y-94710333D01*
X92527380Y-94805571D01*
X92527380Y-94996047D01*
X92479761Y-95091285D01*
X92432142Y-95138904D01*
X92336904Y-95186523D01*
X91527380Y-95186523D01*
X92527380Y-96186523D02*
X92527380Y-95615095D01*
X92527380Y-95900809D02*
X91527380Y-95900809D01*
X91670238Y-95805571D01*
X91765476Y-95710333D01*
X91813095Y-95615095D01*
G04 #@! TO.C,U3*
X119594381Y-77089095D02*
X120403905Y-77089095D01*
X120499143Y-77136714D01*
X120546762Y-77184333D01*
X120594381Y-77279571D01*
X120594381Y-77470047D01*
X120546762Y-77565285D01*
X120499143Y-77612904D01*
X120403905Y-77660523D01*
X119594381Y-77660523D01*
X119594381Y-78041476D02*
X119594381Y-78660523D01*
X119975334Y-78327190D01*
X119975334Y-78470047D01*
X120022953Y-78565285D01*
X120070572Y-78612904D01*
X120165810Y-78660523D01*
X120403905Y-78660523D01*
X120499143Y-78612904D01*
X120546762Y-78565285D01*
X120594381Y-78470047D01*
X120594381Y-78184333D01*
X120546762Y-78089095D01*
X120499143Y-78041476D01*
G04 #@! TO.C,prog*
X148113571Y-75604714D02*
X148113571Y-76604714D01*
X148113571Y-75652333D02*
X148018333Y-75604714D01*
X147827857Y-75604714D01*
X147732619Y-75652333D01*
X147685000Y-75699952D01*
X147637380Y-75795190D01*
X147637380Y-76080904D01*
X147685000Y-76176142D01*
X147732619Y-76223761D01*
X147827857Y-76271380D01*
X148018333Y-76271380D01*
X148113571Y-76223761D01*
X147208809Y-76271380D02*
X147208809Y-75604714D01*
X147208809Y-75795190D02*
X147161190Y-75699952D01*
X147113571Y-75652333D01*
X147018333Y-75604714D01*
X146923095Y-75604714D01*
X146446904Y-76271380D02*
X146542142Y-76223761D01*
X146589761Y-76176142D01*
X146637380Y-76080904D01*
X146637380Y-75795190D01*
X146589761Y-75699952D01*
X146542142Y-75652333D01*
X146446904Y-75604714D01*
X146304047Y-75604714D01*
X146208809Y-75652333D01*
X146161190Y-75699952D01*
X146113571Y-75795190D01*
X146113571Y-76080904D01*
X146161190Y-76176142D01*
X146208809Y-76223761D01*
X146304047Y-76271380D01*
X146446904Y-76271380D01*
X145256428Y-75604714D02*
X145256428Y-76414238D01*
X145304047Y-76509476D01*
X145351666Y-76557095D01*
X145446904Y-76604714D01*
X145589761Y-76604714D01*
X145685000Y-76557095D01*
X145256428Y-76223761D02*
X145351666Y-76271380D01*
X145542142Y-76271380D01*
X145637380Y-76223761D01*
X145685000Y-76176142D01*
X145732619Y-76080904D01*
X145732619Y-75795190D01*
X145685000Y-75699952D01*
X145637380Y-75652333D01*
X145542142Y-75604714D01*
X145351666Y-75604714D01*
X145256428Y-75652333D01*
G04 #@! TO.C,ESP8266*
X152963571Y-89233761D02*
X152963571Y-89567095D01*
X153487380Y-89709952D02*
X153487380Y-89233761D01*
X152487380Y-89233761D01*
X152487380Y-89709952D01*
X153439761Y-90090904D02*
X153487380Y-90233761D01*
X153487380Y-90471857D01*
X153439761Y-90567095D01*
X153392142Y-90614714D01*
X153296904Y-90662333D01*
X153201666Y-90662333D01*
X153106428Y-90614714D01*
X153058809Y-90567095D01*
X153011190Y-90471857D01*
X152963571Y-90281380D01*
X152915952Y-90186142D01*
X152868333Y-90138523D01*
X152773095Y-90090904D01*
X152677857Y-90090904D01*
X152582619Y-90138523D01*
X152535000Y-90186142D01*
X152487380Y-90281380D01*
X152487380Y-90519476D01*
X152535000Y-90662333D01*
X153487380Y-91090904D02*
X152487380Y-91090904D01*
X152487380Y-91471857D01*
X152535000Y-91567095D01*
X152582619Y-91614714D01*
X152677857Y-91662333D01*
X152820714Y-91662333D01*
X152915952Y-91614714D01*
X152963571Y-91567095D01*
X153011190Y-91471857D01*
X153011190Y-91090904D01*
X152915952Y-92233761D02*
X152868333Y-92138523D01*
X152820714Y-92090904D01*
X152725476Y-92043285D01*
X152677857Y-92043285D01*
X152582619Y-92090904D01*
X152535000Y-92138523D01*
X152487380Y-92233761D01*
X152487380Y-92424238D01*
X152535000Y-92519476D01*
X152582619Y-92567095D01*
X152677857Y-92614714D01*
X152725476Y-92614714D01*
X152820714Y-92567095D01*
X152868333Y-92519476D01*
X152915952Y-92424238D01*
X152915952Y-92233761D01*
X152963571Y-92138523D01*
X153011190Y-92090904D01*
X153106428Y-92043285D01*
X153296904Y-92043285D01*
X153392142Y-92090904D01*
X153439761Y-92138523D01*
X153487380Y-92233761D01*
X153487380Y-92424238D01*
X153439761Y-92519476D01*
X153392142Y-92567095D01*
X153296904Y-92614714D01*
X153106428Y-92614714D01*
X153011190Y-92567095D01*
X152963571Y-92519476D01*
X152915952Y-92424238D01*
X152582619Y-92995666D02*
X152535000Y-93043285D01*
X152487380Y-93138523D01*
X152487380Y-93376619D01*
X152535000Y-93471857D01*
X152582619Y-93519476D01*
X152677857Y-93567095D01*
X152773095Y-93567095D01*
X152915952Y-93519476D01*
X153487380Y-92948047D01*
X153487380Y-93567095D01*
X152487380Y-94424238D02*
X152487380Y-94233761D01*
X152535000Y-94138523D01*
X152582619Y-94090904D01*
X152725476Y-93995666D01*
X152915952Y-93948047D01*
X153296904Y-93948047D01*
X153392142Y-93995666D01*
X153439761Y-94043285D01*
X153487380Y-94138523D01*
X153487380Y-94329000D01*
X153439761Y-94424238D01*
X153392142Y-94471857D01*
X153296904Y-94519476D01*
X153058809Y-94519476D01*
X152963571Y-94471857D01*
X152915952Y-94424238D01*
X152868333Y-94329000D01*
X152868333Y-94138523D01*
X152915952Y-94043285D01*
X152963571Y-93995666D01*
X153058809Y-93948047D01*
X152487380Y-95376619D02*
X152487380Y-95186142D01*
X152535000Y-95090904D01*
X152582619Y-95043285D01*
X152725476Y-94948047D01*
X152915952Y-94900428D01*
X153296904Y-94900428D01*
X153392142Y-94948047D01*
X153439761Y-94995666D01*
X153487380Y-95090904D01*
X153487380Y-95281380D01*
X153439761Y-95376619D01*
X153392142Y-95424238D01*
X153296904Y-95471857D01*
X153058809Y-95471857D01*
X152963571Y-95424238D01*
X152915952Y-95376619D01*
X152868333Y-95281380D01*
X152868333Y-95090904D01*
X152915952Y-94995666D01*
X152963571Y-94948047D01*
X153058809Y-94900428D01*
G04 #@! TO.C,U3*
X119594381Y-40640095D02*
X120403905Y-40640095D01*
X120499143Y-40687714D01*
X120546762Y-40735333D01*
X120594381Y-40830571D01*
X120594381Y-41021047D01*
X120546762Y-41116285D01*
X120499143Y-41163904D01*
X120403905Y-41211523D01*
X119594381Y-41211523D01*
X119594381Y-41592476D02*
X119594381Y-42211523D01*
X119975334Y-41878190D01*
X119975334Y-42021047D01*
X120022953Y-42116285D01*
X120070572Y-42163904D01*
X120165810Y-42211523D01*
X120403905Y-42211523D01*
X120499143Y-42163904D01*
X120546762Y-42116285D01*
X120594381Y-42021047D01*
X120594381Y-41735333D01*
X120546762Y-41640095D01*
X120499143Y-41592476D01*
G04 #@! TO.C,C9*
X121197666Y-54586142D02*
X121245285Y-54633761D01*
X121388142Y-54681380D01*
X121483380Y-54681380D01*
X121626238Y-54633761D01*
X121721476Y-54538523D01*
X121769095Y-54443285D01*
X121816714Y-54252809D01*
X121816714Y-54109952D01*
X121769095Y-53919476D01*
X121721476Y-53824238D01*
X121626238Y-53729000D01*
X121483380Y-53681380D01*
X121388142Y-53681380D01*
X121245285Y-53729000D01*
X121197666Y-53776619D01*
X120721476Y-54681380D02*
X120531000Y-54681380D01*
X120435761Y-54633761D01*
X120388142Y-54586142D01*
X120292904Y-54443285D01*
X120245285Y-54252809D01*
X120245285Y-53871857D01*
X120292904Y-53776619D01*
X120340523Y-53729000D01*
X120435761Y-53681380D01*
X120626238Y-53681380D01*
X120721476Y-53729000D01*
X120769095Y-53776619D01*
X120816714Y-53871857D01*
X120816714Y-54109952D01*
X120769095Y-54205190D01*
X120721476Y-54252809D01*
X120626238Y-54300428D01*
X120435761Y-54300428D01*
X120340523Y-54252809D01*
X120292904Y-54205190D01*
X120245285Y-54109952D01*
G04 #@! TO.C,R1*
X132389619Y-66206666D02*
X132865809Y-66540000D01*
X132389619Y-66778095D02*
X133389619Y-66778095D01*
X133389619Y-66397142D01*
X133342000Y-66301904D01*
X133294380Y-66254285D01*
X133199142Y-66206666D01*
X133056285Y-66206666D01*
X132961047Y-66254285D01*
X132913428Y-66301904D01*
X132865809Y-66397142D01*
X132865809Y-66778095D01*
X132389619Y-65254285D02*
X132389619Y-65825714D01*
X132389619Y-65540000D02*
X133389619Y-65540000D01*
X133246761Y-65635238D01*
X133151523Y-65730476D01*
X133103904Y-65825714D01*
G04 #@! TO.C,R11*
X141422380Y-40505142D02*
X140946190Y-40171809D01*
X141422380Y-39933714D02*
X140422380Y-39933714D01*
X140422380Y-40314666D01*
X140470000Y-40409904D01*
X140517619Y-40457523D01*
X140612857Y-40505142D01*
X140755714Y-40505142D01*
X140850952Y-40457523D01*
X140898571Y-40409904D01*
X140946190Y-40314666D01*
X140946190Y-39933714D01*
X141422380Y-41457523D02*
X141422380Y-40886095D01*
X141422380Y-41171809D02*
X140422380Y-41171809D01*
X140565238Y-41076571D01*
X140660476Y-40981333D01*
X140708095Y-40886095D01*
X141422380Y-42409904D02*
X141422380Y-41838476D01*
X141422380Y-42124190D02*
X140422380Y-42124190D01*
X140565238Y-42028952D01*
X140660476Y-41933714D01*
X140708095Y-41838476D01*
G04 #@! TO.C,R13*
X137040857Y-42235380D02*
X137374190Y-41759190D01*
X137612285Y-42235380D02*
X137612285Y-41235380D01*
X137231333Y-41235380D01*
X137136095Y-41283000D01*
X137088476Y-41330619D01*
X137040857Y-41425857D01*
X137040857Y-41568714D01*
X137088476Y-41663952D01*
X137136095Y-41711571D01*
X137231333Y-41759190D01*
X137612285Y-41759190D01*
X136088476Y-42235380D02*
X136659904Y-42235380D01*
X136374190Y-42235380D02*
X136374190Y-41235380D01*
X136469428Y-41378238D01*
X136564666Y-41473476D01*
X136659904Y-41521095D01*
X135755142Y-41235380D02*
X135136095Y-41235380D01*
X135469428Y-41616333D01*
X135326571Y-41616333D01*
X135231333Y-41663952D01*
X135183714Y-41711571D01*
X135136095Y-41806809D01*
X135136095Y-42044904D01*
X135183714Y-42140142D01*
X135231333Y-42187761D01*
X135326571Y-42235380D01*
X135612285Y-42235380D01*
X135707523Y-42187761D01*
X135755142Y-42140142D01*
G04 #@! TO.C,R12*
X150892857Y-41599380D02*
X151226190Y-41123190D01*
X151464285Y-41599380D02*
X151464285Y-40599380D01*
X151083333Y-40599380D01*
X150988095Y-40647000D01*
X150940476Y-40694619D01*
X150892857Y-40789857D01*
X150892857Y-40932714D01*
X150940476Y-41027952D01*
X150988095Y-41075571D01*
X151083333Y-41123190D01*
X151464285Y-41123190D01*
X149940476Y-41599380D02*
X150511904Y-41599380D01*
X150226190Y-41599380D02*
X150226190Y-40599380D01*
X150321428Y-40742238D01*
X150416666Y-40837476D01*
X150511904Y-40885095D01*
X149559523Y-40694619D02*
X149511904Y-40647000D01*
X149416666Y-40599380D01*
X149178571Y-40599380D01*
X149083333Y-40647000D01*
X149035714Y-40694619D01*
X148988095Y-40789857D01*
X148988095Y-40885095D01*
X149035714Y-41027952D01*
X149607142Y-41599380D01*
X148988095Y-41599380D01*
G04 #@! TO.C,D1*
X129611380Y-54370904D02*
X128611380Y-54370904D01*
X128611380Y-54609000D01*
X128659000Y-54751857D01*
X128754238Y-54847095D01*
X128849476Y-54894714D01*
X129039952Y-54942333D01*
X129182809Y-54942333D01*
X129373285Y-54894714D01*
X129468523Y-54847095D01*
X129563761Y-54751857D01*
X129611380Y-54609000D01*
X129611380Y-54370904D01*
X129611380Y-55894714D02*
X129611380Y-55323285D01*
X129611380Y-55609000D02*
X128611380Y-55609000D01*
X128754238Y-55513761D01*
X128849476Y-55418523D01*
X128897095Y-55323285D01*
G04 #@! TO.C,C14*
X139032857Y-54332142D02*
X139080476Y-54379761D01*
X139223333Y-54427380D01*
X139318571Y-54427380D01*
X139461428Y-54379761D01*
X139556666Y-54284523D01*
X139604285Y-54189285D01*
X139651904Y-53998809D01*
X139651904Y-53855952D01*
X139604285Y-53665476D01*
X139556666Y-53570238D01*
X139461428Y-53475000D01*
X139318571Y-53427380D01*
X139223333Y-53427380D01*
X139080476Y-53475000D01*
X139032857Y-53522619D01*
X138080476Y-54427380D02*
X138651904Y-54427380D01*
X138366190Y-54427380D02*
X138366190Y-53427380D01*
X138461428Y-53570238D01*
X138556666Y-53665476D01*
X138651904Y-53713095D01*
X137223333Y-53760714D02*
X137223333Y-54427380D01*
X137461428Y-53379761D02*
X137699523Y-54094047D01*
X137080476Y-54094047D01*
G04 #@! TO.C,C1*
X134850142Y-65873333D02*
X134897761Y-65825714D01*
X134945380Y-65682857D01*
X134945380Y-65587619D01*
X134897761Y-65444761D01*
X134802523Y-65349523D01*
X134707285Y-65301904D01*
X134516809Y-65254285D01*
X134373952Y-65254285D01*
X134183476Y-65301904D01*
X134088238Y-65349523D01*
X133993000Y-65444761D01*
X133945380Y-65587619D01*
X133945380Y-65682857D01*
X133993000Y-65825714D01*
X134040619Y-65873333D01*
X134945380Y-66825714D02*
X134945380Y-66254285D01*
X134945380Y-66540000D02*
X133945380Y-66540000D01*
X134088238Y-66444761D01*
X134183476Y-66349523D01*
X134231095Y-66254285D01*
G04 #@! TO.C,prog*
X148113571Y-39155714D02*
X148113571Y-40155714D01*
X148113571Y-39203333D02*
X148018333Y-39155714D01*
X147827857Y-39155714D01*
X147732619Y-39203333D01*
X147685000Y-39250952D01*
X147637380Y-39346190D01*
X147637380Y-39631904D01*
X147685000Y-39727142D01*
X147732619Y-39774761D01*
X147827857Y-39822380D01*
X148018333Y-39822380D01*
X148113571Y-39774761D01*
X147208809Y-39822380D02*
X147208809Y-39155714D01*
X147208809Y-39346190D02*
X147161190Y-39250952D01*
X147113571Y-39203333D01*
X147018333Y-39155714D01*
X146923095Y-39155714D01*
X146446904Y-39822380D02*
X146542142Y-39774761D01*
X146589761Y-39727142D01*
X146637380Y-39631904D01*
X146637380Y-39346190D01*
X146589761Y-39250952D01*
X146542142Y-39203333D01*
X146446904Y-39155714D01*
X146304047Y-39155714D01*
X146208809Y-39203333D01*
X146161190Y-39250952D01*
X146113571Y-39346190D01*
X146113571Y-39631904D01*
X146161190Y-39727142D01*
X146208809Y-39774761D01*
X146304047Y-39822380D01*
X146446904Y-39822380D01*
X145256428Y-39155714D02*
X145256428Y-39965238D01*
X145304047Y-40060476D01*
X145351666Y-40108095D01*
X145446904Y-40155714D01*
X145589761Y-40155714D01*
X145685000Y-40108095D01*
X145256428Y-39774761D02*
X145351666Y-39822380D01*
X145542142Y-39822380D01*
X145637380Y-39774761D01*
X145685000Y-39727142D01*
X145732619Y-39631904D01*
X145732619Y-39346190D01*
X145685000Y-39250952D01*
X145637380Y-39203333D01*
X145542142Y-39155714D01*
X145351666Y-39155714D01*
X145256428Y-39203333D01*
G04 #@! TO.C,ESP8266*
X152963571Y-52784761D02*
X152963571Y-53118095D01*
X153487380Y-53260952D02*
X153487380Y-52784761D01*
X152487380Y-52784761D01*
X152487380Y-53260952D01*
X153439761Y-53641904D02*
X153487380Y-53784761D01*
X153487380Y-54022857D01*
X153439761Y-54118095D01*
X153392142Y-54165714D01*
X153296904Y-54213333D01*
X153201666Y-54213333D01*
X153106428Y-54165714D01*
X153058809Y-54118095D01*
X153011190Y-54022857D01*
X152963571Y-53832380D01*
X152915952Y-53737142D01*
X152868333Y-53689523D01*
X152773095Y-53641904D01*
X152677857Y-53641904D01*
X152582619Y-53689523D01*
X152535000Y-53737142D01*
X152487380Y-53832380D01*
X152487380Y-54070476D01*
X152535000Y-54213333D01*
X153487380Y-54641904D02*
X152487380Y-54641904D01*
X152487380Y-55022857D01*
X152535000Y-55118095D01*
X152582619Y-55165714D01*
X152677857Y-55213333D01*
X152820714Y-55213333D01*
X152915952Y-55165714D01*
X152963571Y-55118095D01*
X153011190Y-55022857D01*
X153011190Y-54641904D01*
X152915952Y-55784761D02*
X152868333Y-55689523D01*
X152820714Y-55641904D01*
X152725476Y-55594285D01*
X152677857Y-55594285D01*
X152582619Y-55641904D01*
X152535000Y-55689523D01*
X152487380Y-55784761D01*
X152487380Y-55975238D01*
X152535000Y-56070476D01*
X152582619Y-56118095D01*
X152677857Y-56165714D01*
X152725476Y-56165714D01*
X152820714Y-56118095D01*
X152868333Y-56070476D01*
X152915952Y-55975238D01*
X152915952Y-55784761D01*
X152963571Y-55689523D01*
X153011190Y-55641904D01*
X153106428Y-55594285D01*
X153296904Y-55594285D01*
X153392142Y-55641904D01*
X153439761Y-55689523D01*
X153487380Y-55784761D01*
X153487380Y-55975238D01*
X153439761Y-56070476D01*
X153392142Y-56118095D01*
X153296904Y-56165714D01*
X153106428Y-56165714D01*
X153011190Y-56118095D01*
X152963571Y-56070476D01*
X152915952Y-55975238D01*
X152582619Y-56546666D02*
X152535000Y-56594285D01*
X152487380Y-56689523D01*
X152487380Y-56927619D01*
X152535000Y-57022857D01*
X152582619Y-57070476D01*
X152677857Y-57118095D01*
X152773095Y-57118095D01*
X152915952Y-57070476D01*
X153487380Y-56499047D01*
X153487380Y-57118095D01*
X152487380Y-57975238D02*
X152487380Y-57784761D01*
X152535000Y-57689523D01*
X152582619Y-57641904D01*
X152725476Y-57546666D01*
X152915952Y-57499047D01*
X153296904Y-57499047D01*
X153392142Y-57546666D01*
X153439761Y-57594285D01*
X153487380Y-57689523D01*
X153487380Y-57880000D01*
X153439761Y-57975238D01*
X153392142Y-58022857D01*
X153296904Y-58070476D01*
X153058809Y-58070476D01*
X152963571Y-58022857D01*
X152915952Y-57975238D01*
X152868333Y-57880000D01*
X152868333Y-57689523D01*
X152915952Y-57594285D01*
X152963571Y-57546666D01*
X153058809Y-57499047D01*
X152487380Y-58927619D02*
X152487380Y-58737142D01*
X152535000Y-58641904D01*
X152582619Y-58594285D01*
X152725476Y-58499047D01*
X152915952Y-58451428D01*
X153296904Y-58451428D01*
X153392142Y-58499047D01*
X153439761Y-58546666D01*
X153487380Y-58641904D01*
X153487380Y-58832380D01*
X153439761Y-58927619D01*
X153392142Y-58975238D01*
X153296904Y-59022857D01*
X153058809Y-59022857D01*
X152963571Y-58975238D01*
X152915952Y-58927619D01*
X152868333Y-58832380D01*
X152868333Y-58641904D01*
X152915952Y-58546666D01*
X152963571Y-58499047D01*
X153058809Y-58451428D01*
G04 #@! TO.C,U1*
X126071380Y-43815095D02*
X126880904Y-43815095D01*
X126976142Y-43862714D01*
X127023761Y-43910333D01*
X127071380Y-44005571D01*
X127071380Y-44196047D01*
X127023761Y-44291285D01*
X126976142Y-44338904D01*
X126880904Y-44386523D01*
X126071380Y-44386523D01*
X127071380Y-45386523D02*
X127071380Y-44815095D01*
X127071380Y-45100809D02*
X126071380Y-45100809D01*
X126214238Y-45005571D01*
X126309476Y-44910333D01*
X126357095Y-44815095D01*
G04 #@! TO.C,U3*
X98004380Y-61341095D02*
X98813904Y-61341095D01*
X98909142Y-61388714D01*
X98956761Y-61436333D01*
X99004380Y-61531571D01*
X99004380Y-61722047D01*
X98956761Y-61817285D01*
X98909142Y-61864904D01*
X98813904Y-61912523D01*
X98004380Y-61912523D01*
X98004380Y-62293476D02*
X98004380Y-62912523D01*
X98385333Y-62579190D01*
X98385333Y-62722047D01*
X98432952Y-62817285D01*
X98480571Y-62864904D01*
X98575809Y-62912523D01*
X98813904Y-62912523D01*
X98909142Y-62864904D01*
X98956761Y-62817285D01*
X99004380Y-62722047D01*
X99004380Y-62436333D01*
X98956761Y-62341095D01*
X98909142Y-62293476D01*
G04 #@! TO.C,prog*
X73437571Y-63920714D02*
X73437571Y-64920714D01*
X73437571Y-63968333D02*
X73342333Y-63920714D01*
X73151857Y-63920714D01*
X73056619Y-63968333D01*
X73009000Y-64015952D01*
X72961380Y-64111190D01*
X72961380Y-64396904D01*
X73009000Y-64492142D01*
X73056619Y-64539761D01*
X73151857Y-64587380D01*
X73342333Y-64587380D01*
X73437571Y-64539761D01*
X72532809Y-64587380D02*
X72532809Y-63920714D01*
X72532809Y-64111190D02*
X72485190Y-64015952D01*
X72437571Y-63968333D01*
X72342333Y-63920714D01*
X72247095Y-63920714D01*
X71770904Y-64587380D02*
X71866142Y-64539761D01*
X71913761Y-64492142D01*
X71961380Y-64396904D01*
X71961380Y-64111190D01*
X71913761Y-64015952D01*
X71866142Y-63968333D01*
X71770904Y-63920714D01*
X71628047Y-63920714D01*
X71532809Y-63968333D01*
X71485190Y-64015952D01*
X71437571Y-64111190D01*
X71437571Y-64396904D01*
X71485190Y-64492142D01*
X71532809Y-64539761D01*
X71628047Y-64587380D01*
X71770904Y-64587380D01*
X70580428Y-63920714D02*
X70580428Y-64730238D01*
X70628047Y-64825476D01*
X70675666Y-64873095D01*
X70770904Y-64920714D01*
X70913761Y-64920714D01*
X71009000Y-64873095D01*
X70580428Y-64539761D02*
X70675666Y-64587380D01*
X70866142Y-64587380D01*
X70961380Y-64539761D01*
X71009000Y-64492142D01*
X71056619Y-64396904D01*
X71056619Y-64111190D01*
X71009000Y-64015952D01*
X70961380Y-63968333D01*
X70866142Y-63920714D01*
X70675666Y-63920714D01*
X70580428Y-63968333D01*
G04 #@! TO.C,U1*
X91527380Y-58166095D02*
X92336904Y-58166095D01*
X92432142Y-58213714D01*
X92479761Y-58261333D01*
X92527380Y-58356571D01*
X92527380Y-58547047D01*
X92479761Y-58642285D01*
X92432142Y-58689904D01*
X92336904Y-58737523D01*
X91527380Y-58737523D01*
X92527380Y-59737523D02*
X92527380Y-59166095D01*
X92527380Y-59451809D02*
X91527380Y-59451809D01*
X91670238Y-59356571D01*
X91765476Y-59261333D01*
X91813095Y-59166095D01*
G04 #@! TO.C,ESP8266*
X65587571Y-44529761D02*
X65587571Y-44863095D01*
X66111380Y-45005952D02*
X66111380Y-44529761D01*
X65111380Y-44529761D01*
X65111380Y-45005952D01*
X66063761Y-45386904D02*
X66111380Y-45529761D01*
X66111380Y-45767857D01*
X66063761Y-45863095D01*
X66016142Y-45910714D01*
X65920904Y-45958333D01*
X65825666Y-45958333D01*
X65730428Y-45910714D01*
X65682809Y-45863095D01*
X65635190Y-45767857D01*
X65587571Y-45577380D01*
X65539952Y-45482142D01*
X65492333Y-45434523D01*
X65397095Y-45386904D01*
X65301857Y-45386904D01*
X65206619Y-45434523D01*
X65159000Y-45482142D01*
X65111380Y-45577380D01*
X65111380Y-45815476D01*
X65159000Y-45958333D01*
X66111380Y-46386904D02*
X65111380Y-46386904D01*
X65111380Y-46767857D01*
X65159000Y-46863095D01*
X65206619Y-46910714D01*
X65301857Y-46958333D01*
X65444714Y-46958333D01*
X65539952Y-46910714D01*
X65587571Y-46863095D01*
X65635190Y-46767857D01*
X65635190Y-46386904D01*
X65539952Y-47529761D02*
X65492333Y-47434523D01*
X65444714Y-47386904D01*
X65349476Y-47339285D01*
X65301857Y-47339285D01*
X65206619Y-47386904D01*
X65159000Y-47434523D01*
X65111380Y-47529761D01*
X65111380Y-47720238D01*
X65159000Y-47815476D01*
X65206619Y-47863095D01*
X65301857Y-47910714D01*
X65349476Y-47910714D01*
X65444714Y-47863095D01*
X65492333Y-47815476D01*
X65539952Y-47720238D01*
X65539952Y-47529761D01*
X65587571Y-47434523D01*
X65635190Y-47386904D01*
X65730428Y-47339285D01*
X65920904Y-47339285D01*
X66016142Y-47386904D01*
X66063761Y-47434523D01*
X66111380Y-47529761D01*
X66111380Y-47720238D01*
X66063761Y-47815476D01*
X66016142Y-47863095D01*
X65920904Y-47910714D01*
X65730428Y-47910714D01*
X65635190Y-47863095D01*
X65587571Y-47815476D01*
X65539952Y-47720238D01*
X65206619Y-48291666D02*
X65159000Y-48339285D01*
X65111380Y-48434523D01*
X65111380Y-48672619D01*
X65159000Y-48767857D01*
X65206619Y-48815476D01*
X65301857Y-48863095D01*
X65397095Y-48863095D01*
X65539952Y-48815476D01*
X66111380Y-48244047D01*
X66111380Y-48863095D01*
X65111380Y-49720238D02*
X65111380Y-49529761D01*
X65159000Y-49434523D01*
X65206619Y-49386904D01*
X65349476Y-49291666D01*
X65539952Y-49244047D01*
X65920904Y-49244047D01*
X66016142Y-49291666D01*
X66063761Y-49339285D01*
X66111380Y-49434523D01*
X66111380Y-49625000D01*
X66063761Y-49720238D01*
X66016142Y-49767857D01*
X65920904Y-49815476D01*
X65682809Y-49815476D01*
X65587571Y-49767857D01*
X65539952Y-49720238D01*
X65492333Y-49625000D01*
X65492333Y-49434523D01*
X65539952Y-49339285D01*
X65587571Y-49291666D01*
X65682809Y-49244047D01*
X65111380Y-50672619D02*
X65111380Y-50482142D01*
X65159000Y-50386904D01*
X65206619Y-50339285D01*
X65349476Y-50244047D01*
X65539952Y-50196428D01*
X65920904Y-50196428D01*
X66016142Y-50244047D01*
X66063761Y-50291666D01*
X66111380Y-50386904D01*
X66111380Y-50577380D01*
X66063761Y-50672619D01*
X66016142Y-50720238D01*
X65920904Y-50767857D01*
X65682809Y-50767857D01*
X65587571Y-50720238D01*
X65539952Y-50672619D01*
X65492333Y-50577380D01*
X65492333Y-50386904D01*
X65539952Y-50291666D01*
X65587571Y-50244047D01*
X65682809Y-50196428D01*
G04 #@! TO.C,C1*
X84558142Y-37298333D02*
X84605761Y-37250714D01*
X84653380Y-37107857D01*
X84653380Y-37012619D01*
X84605761Y-36869761D01*
X84510523Y-36774523D01*
X84415285Y-36726904D01*
X84224809Y-36679285D01*
X84081952Y-36679285D01*
X83891476Y-36726904D01*
X83796238Y-36774523D01*
X83701000Y-36869761D01*
X83653380Y-37012619D01*
X83653380Y-37107857D01*
X83701000Y-37250714D01*
X83748619Y-37298333D01*
X84653380Y-38250714D02*
X84653380Y-37679285D01*
X84653380Y-37965000D02*
X83653380Y-37965000D01*
X83796238Y-37869761D01*
X83891476Y-37774523D01*
X83939095Y-37679285D01*
G04 #@! TO.C,C14*
X80946857Y-49887142D02*
X80994476Y-49934761D01*
X81137333Y-49982380D01*
X81232571Y-49982380D01*
X81375428Y-49934761D01*
X81470666Y-49839523D01*
X81518285Y-49744285D01*
X81565904Y-49553809D01*
X81565904Y-49410952D01*
X81518285Y-49220476D01*
X81470666Y-49125238D01*
X81375428Y-49030000D01*
X81232571Y-48982380D01*
X81137333Y-48982380D01*
X80994476Y-49030000D01*
X80946857Y-49077619D01*
X79994476Y-49982380D02*
X80565904Y-49982380D01*
X80280190Y-49982380D02*
X80280190Y-48982380D01*
X80375428Y-49125238D01*
X80470666Y-49220476D01*
X80565904Y-49268095D01*
X79137333Y-49315714D02*
X79137333Y-49982380D01*
X79375428Y-48934761D02*
X79613523Y-49649047D01*
X78994476Y-49649047D01*
G04 #@! TO.C,C9*
X97829666Y-49633142D02*
X97877285Y-49680761D01*
X98020142Y-49728380D01*
X98115380Y-49728380D01*
X98258238Y-49680761D01*
X98353476Y-49585523D01*
X98401095Y-49490285D01*
X98448714Y-49299809D01*
X98448714Y-49156952D01*
X98401095Y-48966476D01*
X98353476Y-48871238D01*
X98258238Y-48776000D01*
X98115380Y-48728380D01*
X98020142Y-48728380D01*
X97877285Y-48776000D01*
X97829666Y-48823619D01*
X97353476Y-49728380D02*
X97163000Y-49728380D01*
X97067761Y-49680761D01*
X97020142Y-49633142D01*
X96924904Y-49490285D01*
X96877285Y-49299809D01*
X96877285Y-48918857D01*
X96924904Y-48823619D01*
X96972523Y-48776000D01*
X97067761Y-48728380D01*
X97258238Y-48728380D01*
X97353476Y-48776000D01*
X97401095Y-48823619D01*
X97448714Y-48918857D01*
X97448714Y-49156952D01*
X97401095Y-49252190D01*
X97353476Y-49299809D01*
X97258238Y-49347428D01*
X97067761Y-49347428D01*
X96972523Y-49299809D01*
X96924904Y-49252190D01*
X96877285Y-49156952D01*
G04 #@! TO.C,D1*
X89987380Y-47657904D02*
X88987380Y-47657904D01*
X88987380Y-47896000D01*
X89035000Y-48038857D01*
X89130238Y-48134095D01*
X89225476Y-48181714D01*
X89415952Y-48229333D01*
X89558809Y-48229333D01*
X89749285Y-48181714D01*
X89844523Y-48134095D01*
X89939761Y-48038857D01*
X89987380Y-47896000D01*
X89987380Y-47657904D01*
X89987380Y-49181714D02*
X89987380Y-48610285D01*
X89987380Y-48896000D02*
X88987380Y-48896000D01*
X89130238Y-48800761D01*
X89225476Y-48705523D01*
X89273095Y-48610285D01*
G04 #@! TO.C,R12*
X69086857Y-62810380D02*
X69420190Y-62334190D01*
X69658285Y-62810380D02*
X69658285Y-61810380D01*
X69277333Y-61810380D01*
X69182095Y-61858000D01*
X69134476Y-61905619D01*
X69086857Y-62000857D01*
X69086857Y-62143714D01*
X69134476Y-62238952D01*
X69182095Y-62286571D01*
X69277333Y-62334190D01*
X69658285Y-62334190D01*
X68134476Y-62810380D02*
X68705904Y-62810380D01*
X68420190Y-62810380D02*
X68420190Y-61810380D01*
X68515428Y-61953238D01*
X68610666Y-62048476D01*
X68705904Y-62096095D01*
X67753523Y-61905619D02*
X67705904Y-61858000D01*
X67610666Y-61810380D01*
X67372571Y-61810380D01*
X67277333Y-61858000D01*
X67229714Y-61905619D01*
X67182095Y-62000857D01*
X67182095Y-62096095D01*
X67229714Y-62238952D01*
X67801142Y-62810380D01*
X67182095Y-62810380D01*
G04 #@! TO.C,R13*
X82938857Y-62174380D02*
X83272190Y-61698190D01*
X83510285Y-62174380D02*
X83510285Y-61174380D01*
X83129333Y-61174380D01*
X83034095Y-61222000D01*
X82986476Y-61269619D01*
X82938857Y-61364857D01*
X82938857Y-61507714D01*
X82986476Y-61602952D01*
X83034095Y-61650571D01*
X83129333Y-61698190D01*
X83510285Y-61698190D01*
X81986476Y-62174380D02*
X82557904Y-62174380D01*
X82272190Y-62174380D02*
X82272190Y-61174380D01*
X82367428Y-61317238D01*
X82462666Y-61412476D01*
X82557904Y-61460095D01*
X81653142Y-61174380D02*
X81034095Y-61174380D01*
X81367428Y-61555333D01*
X81224571Y-61555333D01*
X81129333Y-61602952D01*
X81081714Y-61650571D01*
X81034095Y-61745809D01*
X81034095Y-61983904D01*
X81081714Y-62079142D01*
X81129333Y-62126761D01*
X81224571Y-62174380D01*
X81510285Y-62174380D01*
X81605523Y-62126761D01*
X81653142Y-62079142D01*
G04 #@! TO.C,R11*
X78176380Y-61714142D02*
X77700190Y-61380809D01*
X78176380Y-61142714D02*
X77176380Y-61142714D01*
X77176380Y-61523666D01*
X77224000Y-61618904D01*
X77271619Y-61666523D01*
X77366857Y-61714142D01*
X77509714Y-61714142D01*
X77604952Y-61666523D01*
X77652571Y-61618904D01*
X77700190Y-61523666D01*
X77700190Y-61142714D01*
X78176380Y-62666523D02*
X78176380Y-62095095D01*
X78176380Y-62380809D02*
X77176380Y-62380809D01*
X77319238Y-62285571D01*
X77414476Y-62190333D01*
X77462095Y-62095095D01*
X78176380Y-63618904D02*
X78176380Y-63047476D01*
X78176380Y-63333190D02*
X77176380Y-63333190D01*
X77319238Y-63237952D01*
X77414476Y-63142714D01*
X77462095Y-63047476D01*
G04 #@! TO.C,R1*
X86304380Y-37298333D02*
X85828190Y-36965000D01*
X86304380Y-36726904D02*
X85304380Y-36726904D01*
X85304380Y-37107857D01*
X85352000Y-37203095D01*
X85399619Y-37250714D01*
X85494857Y-37298333D01*
X85637714Y-37298333D01*
X85732952Y-37250714D01*
X85780571Y-37203095D01*
X85828190Y-37107857D01*
X85828190Y-36726904D01*
X86304380Y-38250714D02*
X86304380Y-37679285D01*
X86304380Y-37965000D02*
X85304380Y-37965000D01*
X85447238Y-37869761D01*
X85542476Y-37774523D01*
X85590095Y-37679285D01*
G04 #@! TO.C,C1*
X62715142Y-112727333D02*
X62762761Y-112679714D01*
X62810380Y-112536857D01*
X62810380Y-112441619D01*
X62762761Y-112298761D01*
X62667523Y-112203523D01*
X62572285Y-112155904D01*
X62381809Y-112108285D01*
X62238952Y-112108285D01*
X62048476Y-112155904D01*
X61953238Y-112203523D01*
X61858000Y-112298761D01*
X61810380Y-112441619D01*
X61810380Y-112536857D01*
X61858000Y-112679714D01*
X61905619Y-112727333D01*
X62810380Y-113679714D02*
X62810380Y-113108285D01*
X62810380Y-113394000D02*
X61810380Y-113394000D01*
X61953238Y-113298761D01*
X62048476Y-113203523D01*
X62096095Y-113108285D01*
G04 #@! TD*
M02*
