%FSLAX25Y25*%
%MOIN*%
G70*
G01*
G75*
G04 Layer_Color=255*
%ADD10R,0.01772X0.06299*%
%ADD11R,0.06299X0.13386*%
%ADD12R,0.01654X0.05512*%
%ADD13R,0.05512X0.07087*%
%ADD14R,0.05000X0.03500*%
%ADD15R,0.09000X0.15000*%
%ADD16R,0.08465X0.05000*%
%ADD17R,0.15000X0.28000*%
%ADD18R,0.07874X0.15748*%
%ADD19R,0.05906X0.15748*%
%ADD20R,0.06600X0.01700*%
%ADD21R,0.07087X0.05512*%
%ADD22R,0.11024X0.07874*%
%ADD23R,0.03300X0.03150*%
%ADD24R,0.04724X0.04724*%
%ADD25R,0.03937X0.05906*%
%ADD26R,0.05906X0.03937*%
%ADD27R,0.15748X0.07874*%
%ADD28R,0.03500X0.05000*%
%ADD29R,0.15748X0.05906*%
%ADD30R,0.07874X0.11024*%
%ADD31R,0.04724X0.04724*%
%ADD32R,0.05512X0.01654*%
%ADD33R,0.06299X0.01772*%
%ADD34R,0.13386X0.06299*%
%ADD35R,0.15000X0.09000*%
%ADD36R,0.05000X0.08465*%
%ADD37R,0.28000X0.15000*%
%ADD38C,0.04000*%
%ADD39C,0.01800*%
%ADD40C,0.02000*%
%ADD41C,0.01500*%
%ADD42C,0.02500*%
%ADD43C,0.03000*%
%ADD44C,0.01000*%
%ADD45C,0.05000*%
%ADD46R,0.27700X0.02100*%
%ADD47R,0.01900X0.03800*%
%ADD48R,0.35700X0.03400*%
%ADD49R,0.02100X0.27700*%
%ADD50R,0.03800X0.01900*%
%ADD51R,0.03400X0.35700*%
%ADD52R,0.08200X0.15600*%
%ADD53R,0.05512X0.07874*%
%ADD54R,0.05118X0.07874*%
%ADD55C,0.07874*%
%ADD56C,0.07087*%
%ADD57R,0.07874X0.05512*%
%ADD58R,0.07874X0.05118*%
%ADD59C,0.15800*%
%ADD60C,0.03937*%
%ADD61C,0.04000*%
%ADD62C,0.05000*%
%ADD63C,0.06000*%
%ADD64R,0.26000X0.28400*%
%ADD65R,0.03000X0.10000*%
%ADD66R,0.10000X0.20000*%
%ADD67R,0.09449X0.04724*%
%ADD68R,0.04724X0.11024*%
%ADD69R,0.09843X0.14961*%
%ADD70R,0.14961X0.09843*%
%ADD71R,0.20000X0.10000*%
%ADD72R,0.10000X0.03000*%
%ADD73R,0.04724X0.09449*%
%ADD74R,0.11024X0.04724*%
%ADD75R,0.28400X0.26000*%
%ADD76C,0.03500*%
%ADD77R,0.21028X0.12517*%
%ADD78R,0.12517X0.21028*%
%ADD79R,0.20200X0.15600*%
D19*
X50500Y247800D02*
D03*
X70500D02*
D03*
X50500Y11500D02*
D03*
X70500D02*
D03*
D25*
X346000Y294200D02*
D03*
X337000D02*
D03*
X358200Y302200D02*
D03*
X367200D02*
D03*
X357200Y342200D02*
D03*
X366200D02*
D03*
X377200Y300200D02*
D03*
X386200D02*
D03*
X366200Y352200D02*
D03*
X357200D02*
D03*
X345200Y235300D02*
D03*
X354200D02*
D03*
X345200Y250200D02*
D03*
X354200D02*
D03*
X139500Y121500D02*
D03*
X148500D02*
D03*
X128000Y63500D02*
D03*
X119000D02*
D03*
X29500Y29500D02*
D03*
X20500D02*
D03*
X36500D02*
D03*
X45500D02*
D03*
X139500Y357800D02*
D03*
X148500D02*
D03*
X128000Y299800D02*
D03*
X119000D02*
D03*
X29500Y265800D02*
D03*
X20500D02*
D03*
X36500D02*
D03*
X45500D02*
D03*
D26*
X50500Y284800D02*
D03*
Y275800D02*
D03*
X272200Y339200D02*
D03*
Y348200D02*
D03*
X330200Y327700D02*
D03*
Y318700D02*
D03*
X364200Y229200D02*
D03*
Y220200D02*
D03*
Y236200D02*
D03*
Y245200D02*
D03*
X94500Y47700D02*
D03*
Y56700D02*
D03*
X102500Y35500D02*
D03*
Y26500D02*
D03*
X142500Y36500D02*
D03*
Y27500D02*
D03*
X100500Y16500D02*
D03*
Y7500D02*
D03*
X152500Y27500D02*
D03*
Y36500D02*
D03*
X35600Y48500D02*
D03*
Y39500D02*
D03*
X50500Y48500D02*
D03*
Y39500D02*
D03*
X94500Y284000D02*
D03*
Y293000D02*
D03*
X102500Y271800D02*
D03*
Y262800D02*
D03*
X142500Y272800D02*
D03*
Y263800D02*
D03*
X100500Y252800D02*
D03*
Y243800D02*
D03*
X152500Y263800D02*
D03*
Y272800D02*
D03*
X35600Y284800D02*
D03*
Y275800D02*
D03*
D29*
X382200Y250200D02*
D03*
Y270200D02*
D03*
D44*
X0Y0D02*
Y393701D01*
Y0D02*
X393701D01*
Y393701D01*
X0D02*
X393701D01*
X194000Y236300D02*
Y393700D01*
X0D02*
X194000D01*
X0Y236300D02*
X194000D01*
X0D02*
Y393700D01*
X194000Y0D02*
Y157400D01*
X0D02*
X194000D01*
X0Y0D02*
X194000D01*
X0D02*
Y157400D01*
X236300Y393700D02*
X393700D01*
X236300Y199700D02*
Y393700D01*
X393700Y199700D02*
Y393700D01*
X236300Y199700D02*
X393700D01*
X338700Y0D02*
Y87500D01*
Y0D02*
X393700D01*
X338700Y87500D02*
X393700D01*
Y0D02*
Y87500D01*
X271300Y0D02*
Y87500D01*
Y0D02*
X326300D01*
X271300Y87500D02*
X326300D01*
Y0D02*
Y87500D01*
X203300Y0D02*
Y87500D01*
Y0D02*
X258300D01*
X203300Y87500D02*
X258300D01*
Y0D02*
Y87500D01*
Y101500D02*
Y189000D01*
X203300D02*
X258300D01*
X203300Y101500D02*
X258300D01*
X203300D02*
Y189000D01*
X326300Y101500D02*
Y189000D01*
X271300D02*
X326300D01*
X271300Y101500D02*
X326300D01*
X271300D02*
Y189000D01*
X393700Y101500D02*
Y189000D01*
X338700D02*
X393700D01*
X338700Y101500D02*
X393700D01*
X338700D02*
Y189000D01*
D53*
X81272Y385417D02*
D03*
X102728D02*
D03*
X81272Y149117D02*
D03*
X102728D02*
D03*
D54*
X101547Y373487D02*
D03*
X82453D02*
D03*
X101547Y137187D02*
D03*
X82453D02*
D03*
D55*
X120500Y387800D02*
D03*
X138500Y302000D02*
D03*
X186500D02*
D03*
X116300Y245200D02*
D03*
X127100D02*
D03*
X170500Y285800D02*
D03*
Y245800D02*
D03*
Y255800D02*
D03*
Y265800D02*
D03*
Y275800D02*
D03*
X346200Y80500D02*
D03*
X386200D02*
D03*
X376200D02*
D03*
X366200D02*
D03*
X356200D02*
D03*
X8500Y245800D02*
D03*
Y255800D02*
D03*
Y265800D02*
D03*
Y275800D02*
D03*
X346200Y182000D02*
D03*
X386200D02*
D03*
X376200D02*
D03*
X366200D02*
D03*
X356200D02*
D03*
X278800D02*
D03*
X318800D02*
D03*
X308800D02*
D03*
X298800D02*
D03*
X288800D02*
D03*
X210800D02*
D03*
X250800D02*
D03*
X240800D02*
D03*
X230800D02*
D03*
X220800D02*
D03*
X210800Y80500D02*
D03*
X250800D02*
D03*
X240800D02*
D03*
X230800D02*
D03*
X220800D02*
D03*
X278800D02*
D03*
X318800D02*
D03*
X308800D02*
D03*
X298800D02*
D03*
X288800D02*
D03*
X344200Y384200D02*
D03*
X384200D02*
D03*
X374200D02*
D03*
X364200D02*
D03*
X354200D02*
D03*
X384200Y208200D02*
D03*
X374200D02*
D03*
X364200D02*
D03*
X354200D02*
D03*
X384800Y316000D02*
D03*
Y326800D02*
D03*
X243300Y209700D02*
D03*
X310200Y386200D02*
D03*
X242200Y320200D02*
D03*
X328000Y352200D02*
D03*
Y338200D02*
D03*
Y386200D02*
D03*
X344200Y370200D02*
D03*
X384200D02*
D03*
X374200D02*
D03*
X364200D02*
D03*
X354200D02*
D03*
X184500Y49500D02*
D03*
Y9500D02*
D03*
Y19500D02*
D03*
Y29500D02*
D03*
Y39500D02*
D03*
X8500Y9500D02*
D03*
Y19500D02*
D03*
Y29500D02*
D03*
Y39500D02*
D03*
X116300Y8900D02*
D03*
X127100D02*
D03*
X10000Y150400D02*
D03*
X186500Y83500D02*
D03*
X120500Y151500D02*
D03*
X152500Y65700D02*
D03*
X138500D02*
D03*
X186500D02*
D03*
X170500Y49500D02*
D03*
Y9500D02*
D03*
Y19500D02*
D03*
Y29500D02*
D03*
Y39500D02*
D03*
X184500Y285800D02*
D03*
Y245800D02*
D03*
Y255800D02*
D03*
Y265800D02*
D03*
Y275800D02*
D03*
X10000Y386700D02*
D03*
X186500Y319800D02*
D03*
X152500Y302000D02*
D03*
D56*
X120500Y339800D02*
D03*
X130500D02*
D03*
X290200Y320200D02*
D03*
Y330200D02*
D03*
X120500Y103500D02*
D03*
X130500D02*
D03*
D57*
X244584Y280972D02*
D03*
Y302428D02*
D03*
D58*
X256513Y301247D02*
D03*
Y282153D02*
D03*
D59*
X182300Y382700D02*
D03*
X28500Y249800D02*
D03*
X182300Y146400D02*
D03*
X28500Y13500D02*
D03*
X247300Y382000D02*
D03*
X380200Y228200D02*
D03*
X383800Y29000D02*
D03*
X316400D02*
D03*
X248400D02*
D03*
Y130500D02*
D03*
X316400D02*
D03*
X383800D02*
D03*
D64*
X170900Y345800D02*
D03*
Y109500D02*
D03*
D65*
X113500Y286300D02*
D03*
X118500D02*
D03*
X123500D02*
D03*
X128500D02*
D03*
X123500Y265800D02*
D03*
X118500D02*
D03*
X128500D02*
D03*
X113500D02*
D03*
Y50000D02*
D03*
X118500D02*
D03*
X123500D02*
D03*
X128500D02*
D03*
X123500Y29500D02*
D03*
X118500D02*
D03*
X128500D02*
D03*
X113500D02*
D03*
D66*
X96000Y343900D02*
D03*
Y317500D02*
D03*
Y107600D02*
D03*
Y81200D02*
D03*
D67*
X74992Y317519D02*
D03*
Y325393D02*
D03*
Y333267D02*
D03*
Y341141D02*
D03*
Y349015D02*
D03*
Y356889D02*
D03*
Y81219D02*
D03*
Y89093D02*
D03*
Y96967D02*
D03*
Y104841D02*
D03*
Y112715D02*
D03*
Y120589D02*
D03*
D68*
X67118Y369487D02*
D03*
X59244D02*
D03*
X51370D02*
D03*
X43496D02*
D03*
X35622D02*
D03*
X27748D02*
D03*
X19874D02*
D03*
X12000D02*
D03*
Y304921D02*
D03*
X19874D02*
D03*
X27748D02*
D03*
X35622D02*
D03*
X43496D02*
D03*
X51370D02*
D03*
X59244D02*
D03*
X67118D02*
D03*
Y133187D02*
D03*
X59244D02*
D03*
X51370D02*
D03*
X43496D02*
D03*
X35622D02*
D03*
X27748D02*
D03*
X19874D02*
D03*
X12000D02*
D03*
Y68621D02*
D03*
X19874D02*
D03*
X27748D02*
D03*
X35622D02*
D03*
X43496D02*
D03*
X51370D02*
D03*
X59244D02*
D03*
X67118D02*
D03*
D69*
X136409Y376700D02*
D03*
X163969D02*
D03*
X136409Y140400D02*
D03*
X163969D02*
D03*
D70*
X253300Y336109D02*
D03*
Y363668D02*
D03*
D71*
X286100Y295700D02*
D03*
X312500D02*
D03*
D72*
X343700Y313200D02*
D03*
Y318200D02*
D03*
Y323200D02*
D03*
Y328200D02*
D03*
X364200Y323200D02*
D03*
Y318200D02*
D03*
Y328200D02*
D03*
Y313200D02*
D03*
D73*
X312481Y274692D02*
D03*
X304607D02*
D03*
X296733D02*
D03*
X288859D02*
D03*
X280985D02*
D03*
X273111D02*
D03*
D74*
X260513Y266818D02*
D03*
Y258944D02*
D03*
Y251070D02*
D03*
Y243196D02*
D03*
Y235322D02*
D03*
Y227448D02*
D03*
Y219574D02*
D03*
Y211700D02*
D03*
X325079D02*
D03*
Y219574D02*
D03*
Y227448D02*
D03*
Y235322D02*
D03*
Y243196D02*
D03*
Y251070D02*
D03*
Y258944D02*
D03*
Y266818D02*
D03*
D75*
X284200Y370600D02*
D03*
M02*
