%FSLAX25Y25*%
%MOIN*%
G70*
G01*
G75*
G04 Layer_Color=2752767*
%ADD10R,0.01772X0.06299*%
%ADD11R,0.06299X0.13386*%
%ADD12R,0.01654X0.05512*%
%ADD13R,0.05512X0.07087*%
%ADD14R,0.05000X0.03500*%
%ADD15R,0.09000X0.15000*%
%ADD16R,0.08465X0.05000*%
%ADD17R,0.15000X0.28000*%
%ADD18R,0.07874X0.15748*%
%ADD19R,0.05906X0.15748*%
%ADD20R,0.06600X0.01700*%
%ADD21R,0.07087X0.05512*%
%ADD22R,0.11024X0.07874*%
%ADD23R,0.03300X0.03150*%
%ADD24R,0.04724X0.04724*%
%ADD25R,0.03937X0.05906*%
%ADD26R,0.05906X0.03937*%
%ADD27R,0.15748X0.07874*%
%ADD28R,0.03500X0.05000*%
%ADD29R,0.15748X0.05906*%
%ADD30R,0.07874X0.11024*%
%ADD31R,0.04724X0.04724*%
%ADD32R,0.05512X0.01654*%
%ADD33R,0.06299X0.01772*%
%ADD34R,0.13386X0.06299*%
%ADD35R,0.15000X0.09000*%
%ADD36R,0.05000X0.08465*%
%ADD37R,0.28000X0.15000*%
%ADD38C,0.04000*%
%ADD39C,0.01800*%
%ADD40C,0.02000*%
%ADD41C,0.01500*%
%ADD42C,0.02500*%
%ADD43C,0.03000*%
%ADD44C,0.01000*%
%ADD45C,0.05000*%
%ADD46R,0.27700X0.02100*%
%ADD47R,0.01900X0.03800*%
%ADD48R,0.35700X0.03400*%
%ADD49R,0.02100X0.27700*%
%ADD50R,0.03800X0.01900*%
%ADD51R,0.03400X0.35700*%
%ADD52R,0.08200X0.15600*%
%ADD53R,0.05512X0.07874*%
%ADD54R,0.05118X0.07874*%
%ADD55C,0.07874*%
%ADD56C,0.07087*%
%ADD57R,0.07874X0.05512*%
%ADD58R,0.07874X0.05118*%
%ADD59C,0.15800*%
%ADD60C,0.03937*%
%ADD61C,0.04000*%
%ADD62C,0.05000*%
%ADD63C,0.06000*%
%ADD64R,0.26000X0.28400*%
%ADD65R,0.03000X0.10000*%
%ADD66R,0.10000X0.20000*%
%ADD67R,0.09449X0.04724*%
%ADD68R,0.04724X0.11024*%
%ADD69R,0.09843X0.14961*%
%ADD70R,0.14961X0.09843*%
%ADD71R,0.20000X0.10000*%
%ADD72R,0.10000X0.03000*%
%ADD73R,0.04724X0.09449*%
%ADD74R,0.11024X0.04724*%
%ADD75R,0.28400X0.26000*%
%ADD76C,0.03500*%
%ADD77R,0.21028X0.12517*%
%ADD78R,0.12517X0.21028*%
%ADD79R,0.20200X0.15600*%
%ADD80C,0.00200*%
%ADD81C,0.00394*%
%ADD82C,0.00591*%
%ADD83C,0.00787*%
%ADD84C,0.00500*%
%ADD85C,0.00050*%
%ADD86C,0.00800*%
%ADD87R,0.02300X0.06299*%
%ADD88R,0.12100X0.11300*%
%ADD89R,0.06299X0.02100*%
%ADD90R,0.06299X0.02300*%
%ADD91R,0.02100X0.06299*%
%ADD92R,0.11300X0.12100*%
%ADD93R,0.02572X0.07099*%
%ADD94R,0.07099X0.14186*%
%ADD95R,0.02454X0.06312*%
%ADD96R,0.06312X0.07887*%
%ADD97R,0.05800X0.04300*%
%ADD98R,0.09800X0.15800*%
%ADD99R,0.09265X0.05800*%
%ADD100R,0.15800X0.28800*%
%ADD101R,0.08674X0.16548*%
%ADD102R,0.06706X0.16548*%
%ADD103R,0.07400X0.02500*%
%ADD104R,0.07887X0.06312*%
%ADD105R,0.11824X0.08674*%
%ADD106R,0.04100X0.03950*%
%ADD107R,0.05524X0.05524*%
%ADD108R,0.04737X0.06706*%
%ADD109R,0.06706X0.04737*%
%ADD110R,0.16548X0.08674*%
%ADD111R,0.04300X0.05800*%
%ADD112R,0.16548X0.06706*%
%ADD113R,0.08674X0.11824*%
%ADD114R,0.05524X0.05524*%
%ADD115R,0.06312X0.02454*%
%ADD116R,0.07099X0.02572*%
%ADD117R,0.14186X0.07099*%
%ADD118R,0.15800X0.09800*%
%ADD119R,0.05800X0.09265*%
%ADD120R,0.28800X0.15800*%
%ADD121R,0.06312X0.08674*%
%ADD122R,0.05918X0.08674*%
%ADD123C,0.08674*%
%ADD124C,0.07887*%
%ADD125R,0.08674X0.06312*%
%ADD126R,0.08674X0.05918*%
%ADD127C,0.16600*%
%ADD128C,0.04737*%
%ADD129C,0.04800*%
%ADD130C,0.05800*%
%ADD131C,0.06800*%
%ADD132R,0.26800X0.29200*%
%ADD133R,0.03800X0.10800*%
%ADD134R,0.10800X0.20800*%
%ADD135R,0.10249X0.05524*%
%ADD136R,0.05524X0.11824*%
%ADD137R,0.10642X0.15761*%
%ADD138R,0.15761X0.10642*%
%ADD139R,0.20800X0.10800*%
%ADD140R,0.10800X0.03800*%
%ADD141R,0.05524X0.10249*%
%ADD142R,0.11824X0.05524*%
%ADD143R,0.29200X0.26800*%
%ADD144C,0.00300*%
%ADD145C,0.01969*%
%ADD146C,0.01181*%
%ADD147R,0.06000X0.16929*%
%ADD148R,0.16929X0.06000*%
%ADD149C,0.00667*%
%ADD150C,0.00400*%
D44*
X0Y0D02*
Y393701D01*
Y0D02*
X393701D01*
Y393701D01*
X0D02*
X393701D01*
X194000Y236300D02*
Y393700D01*
X0D02*
X194000D01*
X0Y236300D02*
X194000D01*
X0D02*
Y393700D01*
X194000Y0D02*
Y157400D01*
X0D02*
X194000D01*
X0Y0D02*
X194000D01*
X0D02*
Y157400D01*
X236300Y393700D02*
X393700D01*
X236300Y199700D02*
Y393700D01*
X393700Y199700D02*
Y393700D01*
X236300Y199700D02*
X393700D01*
X338700Y0D02*
Y87500D01*
Y0D02*
X393700D01*
X338700Y87500D02*
X393700D01*
Y0D02*
Y87500D01*
X271300Y0D02*
Y87500D01*
Y0D02*
X326300D01*
X271300Y87500D02*
X326300D01*
Y0D02*
Y87500D01*
X203300Y0D02*
Y87500D01*
Y0D02*
X258300D01*
X203300Y87500D02*
X258300D01*
Y0D02*
Y87500D01*
Y101500D02*
Y189000D01*
X203300D02*
X258300D01*
X203300Y101500D02*
X258300D01*
X203300D02*
Y189000D01*
X326300Y101500D02*
Y189000D01*
X271300D02*
X326300D01*
X271300Y101500D02*
X326300D01*
X271300D02*
Y189000D01*
X393700Y101500D02*
Y189000D01*
X338700D02*
X393700D01*
X338700Y101500D02*
X393700D01*
X338700D02*
Y189000D01*
D85*
X79272Y383417D02*
Y387417D01*
X83272D01*
Y383417D01*
X79272D01*
X100728D02*
Y387417D01*
X104728D01*
Y383417D01*
X100728D01*
X120500Y385800D02*
X118500Y389800D01*
X122500D01*
X120500Y385800D01*
X138500Y300000D02*
X136500Y304000D01*
X140500D01*
X138500Y300000D01*
X186500D02*
X184500Y304000D01*
X188500D01*
X186500Y300000D01*
X116300Y243200D02*
X117300Y244200D01*
X118300D01*
X117300Y245200D01*
X118300Y246200D01*
X117300D01*
X116300Y247200D01*
X115300Y246200D01*
X114300D01*
X115300Y245200D01*
X114300Y244200D01*
X115300D01*
X116300Y243200D01*
X127100D02*
X128100Y244200D01*
X129100D01*
X128100Y245200D01*
X129100Y246200D01*
X128100D01*
X127100Y247200D01*
X126100Y246200D01*
X125100D01*
X126100Y245200D01*
X125100Y244200D01*
X126100D01*
X127100Y243200D01*
X170500Y283800D02*
X171500Y284800D01*
X172500D01*
X171500Y285800D01*
X172500Y286800D01*
X171500D01*
X170500Y287800D01*
X169500Y286800D01*
X168500D01*
X169500Y285800D01*
X168500Y284800D01*
X169500D01*
X170500Y283800D01*
Y243800D02*
X171500Y244800D01*
X172500D01*
X171500Y245800D01*
X172500Y246800D01*
X171500D01*
X170500Y247800D01*
X169500Y246800D01*
X168500D01*
X169500Y245800D01*
X168500Y244800D01*
X169500D01*
X170500Y243800D01*
Y253800D02*
X171500Y254800D01*
X172500D01*
X171500Y255800D01*
X172500Y256800D01*
X171500D01*
X170500Y257800D01*
X169500Y256800D01*
X168500D01*
X169500Y255800D01*
X168500Y254800D01*
X169500D01*
X170500Y253800D01*
Y263800D02*
X171500Y264800D01*
X172500D01*
X171500Y265800D01*
X172500Y266800D01*
X171500D01*
X170500Y267800D01*
X169500Y266800D01*
X168500D01*
X169500Y265800D01*
X168500Y264800D01*
X169500D01*
X170500Y263800D01*
Y273800D02*
X171500Y274800D01*
X172500D01*
X171500Y275800D01*
X172500Y276800D01*
X171500D01*
X170500Y277800D01*
X169500Y276800D01*
X168500D01*
X169500Y275800D01*
X168500Y274800D01*
X169500D01*
X170500Y273800D01*
X346200Y78500D02*
X347200Y79500D01*
X348200D01*
X347200Y80500D01*
X348200Y81500D01*
X347200D01*
X346200Y82500D01*
X345200Y81500D01*
X344200D01*
X345200Y80500D01*
X344200Y79500D01*
X345200D01*
X346200Y78500D01*
X386200D02*
X387200Y79500D01*
X388200D01*
X387200Y80500D01*
X388200Y81500D01*
X387200D01*
X386200Y82500D01*
X385200Y81500D01*
X384200D01*
X385200Y80500D01*
X384200Y79500D01*
X385200D01*
X386200Y78500D01*
X376200D02*
X377200Y79500D01*
X378200D01*
X377200Y80500D01*
X378200Y81500D01*
X377200D01*
X376200Y82500D01*
X375200Y81500D01*
X374200D01*
X375200Y80500D01*
X374200Y79500D01*
X375200D01*
X376200Y78500D01*
X366200D02*
X367200Y79500D01*
X368200D01*
X367200Y80500D01*
X368200Y81500D01*
X367200D01*
X366200Y82500D01*
X365200Y81500D01*
X364200D01*
X365200Y80500D01*
X364200Y79500D01*
X365200D01*
X366200Y78500D01*
X356200D02*
X357200Y79500D01*
X358200D01*
X357200Y80500D01*
X358200Y81500D01*
X357200D01*
X356200Y82500D01*
X355200Y81500D01*
X354200D01*
X355200Y80500D01*
X354200Y79500D01*
X355200D01*
X356200Y78500D01*
X8500Y243800D02*
X9500Y244800D01*
X10500D01*
X9500Y245800D01*
X10500Y246800D01*
X9500D01*
X8500Y247800D01*
X7500Y246800D01*
X6500D01*
X7500Y245800D01*
X6500Y244800D01*
X7500D01*
X8500Y243800D01*
Y253800D02*
X9500Y254800D01*
X10500D01*
X9500Y255800D01*
X10500Y256800D01*
X9500D01*
X8500Y257800D01*
X7500Y256800D01*
X6500D01*
X7500Y255800D01*
X6500Y254800D01*
X7500D01*
X8500Y253800D01*
Y263800D02*
X9500Y264800D01*
X10500D01*
X9500Y265800D01*
X10500Y266800D01*
X9500D01*
X8500Y267800D01*
X7500Y266800D01*
X6500D01*
X7500Y265800D01*
X6500Y264800D01*
X7500D01*
X8500Y263800D01*
Y273800D02*
X9500Y274800D01*
X10500D01*
X9500Y275800D01*
X10500Y276800D01*
X9500D01*
X8500Y277800D01*
X7500Y276800D01*
X6500D01*
X7500Y275800D01*
X6500Y274800D01*
X7500D01*
X8500Y273800D01*
X118500Y337800D02*
X119500Y339800D01*
X118500Y341800D01*
X120500Y340800D01*
X122500Y341800D01*
X121500Y339800D01*
X122500Y337800D01*
X120500Y338800D01*
X118500Y337800D01*
X128500D02*
X129500Y339800D01*
X128500Y341800D01*
X130500Y340800D01*
X132500Y341800D01*
X131500Y339800D01*
X132500Y337800D01*
X130500Y338800D01*
X128500Y337800D01*
X346200Y180000D02*
X347200Y181000D01*
X348200D01*
X347200Y182000D01*
X348200Y183000D01*
X347200D01*
X346200Y184000D01*
X345200Y183000D01*
X344200D01*
X345200Y182000D01*
X344200Y181000D01*
X345200D01*
X346200Y180000D01*
X386200D02*
X387200Y181000D01*
X388200D01*
X387200Y182000D01*
X388200Y183000D01*
X387200D01*
X386200Y184000D01*
X385200Y183000D01*
X384200D01*
X385200Y182000D01*
X384200Y181000D01*
X385200D01*
X386200Y180000D01*
X376200D02*
X377200Y181000D01*
X378200D01*
X377200Y182000D01*
X378200Y183000D01*
X377200D01*
X376200Y184000D01*
X375200Y183000D01*
X374200D01*
X375200Y182000D01*
X374200Y181000D01*
X375200D01*
X376200Y180000D01*
X366200D02*
X367200Y181000D01*
X368200D01*
X367200Y182000D01*
X368200Y183000D01*
X367200D01*
X366200Y184000D01*
X365200Y183000D01*
X364200D01*
X365200Y182000D01*
X364200Y181000D01*
X365200D01*
X366200Y180000D01*
X356200D02*
X357200Y181000D01*
X358200D01*
X357200Y182000D01*
X358200Y183000D01*
X357200D01*
X356200Y184000D01*
X355200Y183000D01*
X354200D01*
X355200Y182000D01*
X354200Y181000D01*
X355200D01*
X356200Y180000D01*
X278800D02*
X279800Y181000D01*
X280800D01*
X279800Y182000D01*
X280800Y183000D01*
X279800D01*
X278800Y184000D01*
X277800Y183000D01*
X276800D01*
X277800Y182000D01*
X276800Y181000D01*
X277800D01*
X278800Y180000D01*
X318800D02*
X319800Y181000D01*
X320800D01*
X319800Y182000D01*
X320800Y183000D01*
X319800D01*
X318800Y184000D01*
X317800Y183000D01*
X316800D01*
X317800Y182000D01*
X316800Y181000D01*
X317800D01*
X318800Y180000D01*
X308800D02*
X309800Y181000D01*
X310800D01*
X309800Y182000D01*
X310800Y183000D01*
X309800D01*
X308800Y184000D01*
X307800Y183000D01*
X306800D01*
X307800Y182000D01*
X306800Y181000D01*
X307800D01*
X308800Y180000D01*
X298800D02*
X299800Y181000D01*
X300800D01*
X299800Y182000D01*
X300800Y183000D01*
X299800D01*
X298800Y184000D01*
X297800Y183000D01*
X296800D01*
X297800Y182000D01*
X296800Y181000D01*
X297800D01*
X298800Y180000D01*
X288800D02*
X289800Y181000D01*
X290800D01*
X289800Y182000D01*
X290800Y183000D01*
X289800D01*
X288800Y184000D01*
X287800Y183000D01*
X286800D01*
X287800Y182000D01*
X286800Y181000D01*
X287800D01*
X288800Y180000D01*
X210800D02*
X211800Y181000D01*
X212800D01*
X211800Y182000D01*
X212800Y183000D01*
X211800D01*
X210800Y184000D01*
X209800Y183000D01*
X208800D01*
X209800Y182000D01*
X208800Y181000D01*
X209800D01*
X210800Y180000D01*
X250800D02*
X251800Y181000D01*
X252800D01*
X251800Y182000D01*
X252800Y183000D01*
X251800D01*
X250800Y184000D01*
X249800Y183000D01*
X248800D01*
X249800Y182000D01*
X248800Y181000D01*
X249800D01*
X250800Y180000D01*
X240800D02*
X241800Y181000D01*
X242800D01*
X241800Y182000D01*
X242800Y183000D01*
X241800D01*
X240800Y184000D01*
X239800Y183000D01*
X238800D01*
X239800Y182000D01*
X238800Y181000D01*
X239800D01*
X240800Y180000D01*
X230800D02*
X231800Y181000D01*
X232800D01*
X231800Y182000D01*
X232800Y183000D01*
X231800D01*
X230800Y184000D01*
X229800Y183000D01*
X228800D01*
X229800Y182000D01*
X228800Y181000D01*
X229800D01*
X230800Y180000D01*
X220800D02*
X221800Y181000D01*
X222800D01*
X221800Y182000D01*
X222800Y183000D01*
X221800D01*
X220800Y184000D01*
X219800Y183000D01*
X218800D01*
X219800Y182000D01*
X218800Y181000D01*
X219800D01*
X220800Y180000D01*
X210800Y78500D02*
X211800Y79500D01*
X212800D01*
X211800Y80500D01*
X212800Y81500D01*
X211800D01*
X210800Y82500D01*
X209800Y81500D01*
X208800D01*
X209800Y80500D01*
X208800Y79500D01*
X209800D01*
X210800Y78500D01*
X250800D02*
X251800Y79500D01*
X252800D01*
X251800Y80500D01*
X252800Y81500D01*
X251800D01*
X250800Y82500D01*
X249800Y81500D01*
X248800D01*
X249800Y80500D01*
X248800Y79500D01*
X249800D01*
X250800Y78500D01*
X240800D02*
X241800Y79500D01*
X242800D01*
X241800Y80500D01*
X242800Y81500D01*
X241800D01*
X240800Y82500D01*
X239800Y81500D01*
X238800D01*
X239800Y80500D01*
X238800Y79500D01*
X239800D01*
X240800Y78500D01*
X230800D02*
X231800Y79500D01*
X232800D01*
X231800Y80500D01*
X232800Y81500D01*
X231800D01*
X230800Y82500D01*
X229800Y81500D01*
X228800D01*
X229800Y80500D01*
X228800Y79500D01*
X229800D01*
X230800Y78500D01*
X220800D02*
X221800Y79500D01*
X222800D01*
X221800Y80500D01*
X222800Y81500D01*
X221800D01*
X220800Y82500D01*
X219800Y81500D01*
X218800D01*
X219800Y80500D01*
X218800Y79500D01*
X219800D01*
X220800Y78500D01*
X278800D02*
X279800Y79500D01*
X280800D01*
X279800Y80500D01*
X280800Y81500D01*
X279800D01*
X278800Y82500D01*
X277800Y81500D01*
X276800D01*
X277800Y80500D01*
X276800Y79500D01*
X277800D01*
X278800Y78500D01*
X318800D02*
X319800Y79500D01*
X320800D01*
X319800Y80500D01*
X320800Y81500D01*
X319800D01*
X318800Y82500D01*
X317800Y81500D01*
X316800D01*
X317800Y80500D01*
X316800Y79500D01*
X317800D01*
X318800Y78500D01*
X308800D02*
X309800Y79500D01*
X310800D01*
X309800Y80500D01*
X310800Y81500D01*
X309800D01*
X308800Y82500D01*
X307800Y81500D01*
X306800D01*
X307800Y80500D01*
X306800Y79500D01*
X307800D01*
X308800Y78500D01*
X298800D02*
X299800Y79500D01*
X300800D01*
X299800Y80500D01*
X300800Y81500D01*
X299800D01*
X298800Y82500D01*
X297800Y81500D01*
X296800D01*
X297800Y80500D01*
X296800Y79500D01*
X297800D01*
X298800Y78500D01*
X288800D02*
X289800Y79500D01*
X290800D01*
X289800Y80500D01*
X290800Y81500D01*
X289800D01*
X288800Y82500D01*
X287800Y81500D01*
X286800D01*
X287800Y80500D01*
X286800Y79500D01*
X287800D01*
X288800Y78500D01*
X288200Y318200D02*
X289200Y320200D01*
X288200Y322200D01*
X290200Y321200D01*
X292200Y322200D01*
X291200Y320200D01*
X292200Y318200D01*
X290200Y319200D01*
X288200Y318200D01*
Y328200D02*
X289200Y330200D01*
X288200Y332200D01*
X290200Y331200D01*
X292200Y332200D01*
X291200Y330200D01*
X292200Y328200D01*
X290200Y329200D01*
X288200Y328200D01*
X344200Y382200D02*
X345200Y383200D01*
X346200D01*
X345200Y384200D01*
X346200Y385200D01*
X345200D01*
X344200Y386200D01*
X343200Y385200D01*
X342200D01*
X343200Y384200D01*
X342200Y383200D01*
X343200D01*
X344200Y382200D01*
X384200D02*
X385200Y383200D01*
X386200D01*
X385200Y384200D01*
X386200Y385200D01*
X385200D01*
X384200Y386200D01*
X383200Y385200D01*
X382200D01*
X383200Y384200D01*
X382200Y383200D01*
X383200D01*
X384200Y382200D01*
X374200D02*
X375200Y383200D01*
X376200D01*
X375200Y384200D01*
X376200Y385200D01*
X375200D01*
X374200Y386200D01*
X373200Y385200D01*
X372200D01*
X373200Y384200D01*
X372200Y383200D01*
X373200D01*
X374200Y382200D01*
X364200D02*
X365200Y383200D01*
X366200D01*
X365200Y384200D01*
X366200Y385200D01*
X365200D01*
X364200Y386200D01*
X363200Y385200D01*
X362200D01*
X363200Y384200D01*
X362200Y383200D01*
X363200D01*
X364200Y382200D01*
X354200D02*
X355200Y383200D01*
X356200D01*
X355200Y384200D01*
X356200Y385200D01*
X355200D01*
X354200Y386200D01*
X353200Y385200D01*
X352200D01*
X353200Y384200D01*
X352200Y383200D01*
X353200D01*
X354200Y382200D01*
X384200Y206200D02*
X385200Y207200D01*
X386200D01*
X385200Y208200D01*
X386200Y209200D01*
X385200D01*
X384200Y210200D01*
X383200Y209200D01*
X382200D01*
X383200Y208200D01*
X382200Y207200D01*
X383200D01*
X384200Y206200D01*
X374200D02*
X375200Y207200D01*
X376200D01*
X375200Y208200D01*
X376200Y209200D01*
X375200D01*
X374200Y210200D01*
X373200Y209200D01*
X372200D01*
X373200Y208200D01*
X372200Y207200D01*
X373200D01*
X374200Y206200D01*
X364200D02*
X365200Y207200D01*
X366200D01*
X365200Y208200D01*
X366200Y209200D01*
X365200D01*
X364200Y210200D01*
X363200Y209200D01*
X362200D01*
X363200Y208200D01*
X362200Y207200D01*
X363200D01*
X364200Y206200D01*
X354200D02*
X355200Y207200D01*
X356200D01*
X355200Y208200D01*
X356200Y209200D01*
X355200D01*
X354200Y210200D01*
X353200Y209200D01*
X352200D01*
X353200Y208200D01*
X352200Y207200D01*
X353200D01*
X354200Y206200D01*
X384800Y314000D02*
X385800Y315000D01*
X386800D01*
X385800Y316000D01*
X386800Y317000D01*
X385800D01*
X384800Y318000D01*
X383800Y317000D01*
X382800D01*
X383800Y316000D01*
X382800Y315000D01*
X383800D01*
X384800Y314000D01*
Y324800D02*
X385800Y325800D01*
X386800D01*
X385800Y326800D01*
X386800Y327800D01*
X385800D01*
X384800Y328800D01*
X383800Y327800D01*
X382800D01*
X383800Y326800D01*
X382800Y325800D01*
X383800D01*
X384800Y324800D01*
X243300Y207700D02*
X241300Y211700D01*
X245300D01*
X243300Y207700D01*
X310200Y384200D02*
X308200Y388200D01*
X312200D01*
X310200Y384200D01*
X242200Y318200D02*
X240200Y322200D01*
X244200D01*
X242200Y318200D01*
X328000Y350200D02*
X326000Y354200D01*
X330000D01*
X328000Y350200D01*
Y336200D02*
X326000Y340200D01*
X330000D01*
X328000Y336200D01*
Y384200D02*
X326000Y388200D01*
X330000D01*
X328000Y384200D01*
X242583Y278972D02*
Y282972D01*
X246584D01*
Y278972D01*
X242583D01*
Y300428D02*
Y304428D01*
X246584D01*
Y300428D01*
X242583D01*
X344200Y368200D02*
X345200Y369200D01*
X346200D01*
X345200Y370200D01*
X346200Y371200D01*
X345200D01*
X344200Y372200D01*
X343200Y371200D01*
X342200D01*
X343200Y370200D01*
X342200Y369200D01*
X343200D01*
X344200Y368200D01*
X384200D02*
X385200Y369200D01*
X386200D01*
X385200Y370200D01*
X386200Y371200D01*
X385200D01*
X384200Y372200D01*
X383200Y371200D01*
X382200D01*
X383200Y370200D01*
X382200Y369200D01*
X383200D01*
X384200Y368200D01*
X374200D02*
X375200Y369200D01*
X376200D01*
X375200Y370200D01*
X376200Y371200D01*
X375200D01*
X374200Y372200D01*
X373200Y371200D01*
X372200D01*
X373200Y370200D01*
X372200Y369200D01*
X373200D01*
X374200Y368200D01*
X364200D02*
X365200Y369200D01*
X366200D01*
X365200Y370200D01*
X366200Y371200D01*
X365200D01*
X364200Y372200D01*
X363200Y371200D01*
X362200D01*
X363200Y370200D01*
X362200Y369200D01*
X363200D01*
X364200Y368200D01*
X354200D02*
X355200Y369200D01*
X356200D01*
X355200Y370200D01*
X356200Y371200D01*
X355200D01*
X354200Y372200D01*
X353200Y371200D01*
X352200D01*
X353200Y370200D01*
X352200Y369200D01*
X353200D01*
X354200Y368200D01*
X118500Y101500D02*
X119500Y103500D01*
X118500Y105500D01*
X120500Y104500D01*
X122500Y105500D01*
X121500Y103500D01*
X122500Y101500D01*
X120500Y102500D01*
X118500Y101500D01*
X128500D02*
X129500Y103500D01*
X128500Y105500D01*
X130500Y104500D01*
X132500Y105500D01*
X131500Y103500D01*
X132500Y101500D01*
X130500Y102500D01*
X128500Y101500D01*
X184500Y47500D02*
X185500Y48500D01*
X186500D01*
X185500Y49500D01*
X186500Y50500D01*
X185500D01*
X184500Y51500D01*
X183500Y50500D01*
X182500D01*
X183500Y49500D01*
X182500Y48500D01*
X183500D01*
X184500Y47500D01*
Y7500D02*
X185500Y8500D01*
X186500D01*
X185500Y9500D01*
X186500Y10500D01*
X185500D01*
X184500Y11500D01*
X183500Y10500D01*
X182500D01*
X183500Y9500D01*
X182500Y8500D01*
X183500D01*
X184500Y7500D01*
Y17500D02*
X185500Y18500D01*
X186500D01*
X185500Y19500D01*
X186500Y20500D01*
X185500D01*
X184500Y21500D01*
X183500Y20500D01*
X182500D01*
X183500Y19500D01*
X182500Y18500D01*
X183500D01*
X184500Y17500D01*
Y27500D02*
X185500Y28500D01*
X186500D01*
X185500Y29500D01*
X186500Y30500D01*
X185500D01*
X184500Y31500D01*
X183500Y30500D01*
X182500D01*
X183500Y29500D01*
X182500Y28500D01*
X183500D01*
X184500Y27500D01*
Y37500D02*
X185500Y38500D01*
X186500D01*
X185500Y39500D01*
X186500Y40500D01*
X185500D01*
X184500Y41500D01*
X183500Y40500D01*
X182500D01*
X183500Y39500D01*
X182500Y38500D01*
X183500D01*
X184500Y37500D01*
X8500Y7500D02*
X9500Y8500D01*
X10500D01*
X9500Y9500D01*
X10500Y10500D01*
X9500D01*
X8500Y11500D01*
X7500Y10500D01*
X6500D01*
X7500Y9500D01*
X6500Y8500D01*
X7500D01*
X8500Y7500D01*
Y17500D02*
X9500Y18500D01*
X10500D01*
X9500Y19500D01*
X10500Y20500D01*
X9500D01*
X8500Y21500D01*
X7500Y20500D01*
X6500D01*
X7500Y19500D01*
X6500Y18500D01*
X7500D01*
X8500Y17500D01*
Y27500D02*
X9500Y28500D01*
X10500D01*
X9500Y29500D01*
X10500Y30500D01*
X9500D01*
X8500Y31500D01*
X7500Y30500D01*
X6500D01*
X7500Y29500D01*
X6500Y28500D01*
X7500D01*
X8500Y27500D01*
Y37500D02*
X9500Y38500D01*
X10500D01*
X9500Y39500D01*
X10500Y40500D01*
X9500D01*
X8500Y41500D01*
X7500Y40500D01*
X6500D01*
X7500Y39500D01*
X6500Y38500D01*
X7500D01*
X8500Y37500D01*
X116300Y6900D02*
X117300Y7900D01*
X118300D01*
X117300Y8900D01*
X118300Y9900D01*
X117300D01*
X116300Y10900D01*
X115300Y9900D01*
X114300D01*
X115300Y8900D01*
X114300Y7900D01*
X115300D01*
X116300Y6900D01*
X127100D02*
X128100Y7900D01*
X129100D01*
X128100Y8900D01*
X129100Y9900D01*
X128100D01*
X127100Y10900D01*
X126100Y9900D01*
X125100D01*
X126100Y8900D01*
X125100Y7900D01*
X126100D01*
X127100Y6900D01*
X10000Y148400D02*
X8000Y152400D01*
X12000D01*
X10000Y148400D01*
X186500Y81500D02*
X184500Y85500D01*
X188500D01*
X186500Y81500D01*
X120500Y149500D02*
X118500Y153500D01*
X122500D01*
X120500Y149500D01*
X152500Y63700D02*
X150500Y67700D01*
X154500D01*
X152500Y63700D01*
X138500D02*
X136500Y67700D01*
X140500D01*
X138500Y63700D01*
X186500D02*
X184500Y67700D01*
X188500D01*
X186500Y63700D01*
X79272Y147116D02*
Y151117D01*
X83272D01*
Y147116D01*
X79272D01*
X100728D02*
Y151117D01*
X104728D01*
Y147116D01*
X100728D01*
X170500Y47500D02*
X171500Y48500D01*
X172500D01*
X171500Y49500D01*
X172500Y50500D01*
X171500D01*
X170500Y51500D01*
X169500Y50500D01*
X168500D01*
X169500Y49500D01*
X168500Y48500D01*
X169500D01*
X170500Y47500D01*
Y7500D02*
X171500Y8500D01*
X172500D01*
X171500Y9500D01*
X172500Y10500D01*
X171500D01*
X170500Y11500D01*
X169500Y10500D01*
X168500D01*
X169500Y9500D01*
X168500Y8500D01*
X169500D01*
X170500Y7500D01*
Y17500D02*
X171500Y18500D01*
X172500D01*
X171500Y19500D01*
X172500Y20500D01*
X171500D01*
X170500Y21500D01*
X169500Y20500D01*
X168500D01*
X169500Y19500D01*
X168500Y18500D01*
X169500D01*
X170500Y17500D01*
Y27500D02*
X171500Y28500D01*
X172500D01*
X171500Y29500D01*
X172500Y30500D01*
X171500D01*
X170500Y31500D01*
X169500Y30500D01*
X168500D01*
X169500Y29500D01*
X168500Y28500D01*
X169500D01*
X170500Y27500D01*
Y37500D02*
X171500Y38500D01*
X172500D01*
X171500Y39500D01*
X172500Y40500D01*
X171500D01*
X170500Y41500D01*
X169500Y40500D01*
X168500D01*
X169500Y39500D01*
X168500Y38500D01*
X169500D01*
X170500Y37500D01*
X184500Y283800D02*
X185500Y284800D01*
X186500D01*
X185500Y285800D01*
X186500Y286800D01*
X185500D01*
X184500Y287800D01*
X183500Y286800D01*
X182500D01*
X183500Y285800D01*
X182500Y284800D01*
X183500D01*
X184500Y283800D01*
Y243800D02*
X185500Y244800D01*
X186500D01*
X185500Y245800D01*
X186500Y246800D01*
X185500D01*
X184500Y247800D01*
X183500Y246800D01*
X182500D01*
X183500Y245800D01*
X182500Y244800D01*
X183500D01*
X184500Y243800D01*
Y253800D02*
X185500Y254800D01*
X186500D01*
X185500Y255800D01*
X186500Y256800D01*
X185500D01*
X184500Y257800D01*
X183500Y256800D01*
X182500D01*
X183500Y255800D01*
X182500Y254800D01*
X183500D01*
X184500Y253800D01*
Y263800D02*
X185500Y264800D01*
X186500D01*
X185500Y265800D01*
X186500Y266800D01*
X185500D01*
X184500Y267800D01*
X183500Y266800D01*
X182500D01*
X183500Y265800D01*
X182500Y264800D01*
X183500D01*
X184500Y263800D01*
Y273800D02*
X185500Y274800D01*
X186500D01*
X185500Y275800D01*
X186500Y276800D01*
X185500D01*
X184500Y277800D01*
X183500Y276800D01*
X182500D01*
X183500Y275800D01*
X182500Y274800D01*
X183500D01*
X184500Y273800D01*
X10000Y384700D02*
X8000Y388700D01*
X12000D01*
X10000Y384700D01*
X186500Y317800D02*
X184500Y321800D01*
X188500D01*
X186500Y317800D01*
X152500Y300000D02*
X150500Y304000D01*
X154500D01*
X152500Y300000D01*
X181300Y381700D02*
Y380700D01*
X183300D01*
Y381700D01*
X184300D01*
Y383700D01*
X183300D01*
Y384700D01*
X181300D01*
Y383700D01*
X180300D01*
Y381700D01*
X181300D01*
X27500Y248800D02*
Y247800D01*
X29500D01*
Y248800D01*
X30500D01*
Y250800D01*
X29500D01*
Y251800D01*
X27500D01*
Y250800D01*
X26500D01*
Y248800D01*
X27500D01*
X181300Y145400D02*
Y144400D01*
X183300D01*
Y145400D01*
X184300D01*
Y147400D01*
X183300D01*
Y148400D01*
X181300D01*
Y147400D01*
X180300D01*
Y145400D01*
X181300D01*
X27500Y12500D02*
Y11500D01*
X29500D01*
Y12500D01*
X30500D01*
Y14500D01*
X29500D01*
Y15500D01*
X27500D01*
Y14500D01*
X26500D01*
Y12500D01*
X27500D01*
X246300Y381000D02*
Y380000D01*
X248300D01*
Y381000D01*
X249300D01*
Y383000D01*
X248300D01*
Y384000D01*
X246300D01*
Y383000D01*
X245300D01*
Y381000D01*
X246300D01*
X379200Y227200D02*
Y226200D01*
X381200D01*
Y227200D01*
X382200D01*
Y229200D01*
X381200D01*
Y230200D01*
X379200D01*
Y229200D01*
X378200D01*
Y227200D01*
X379200D01*
X382800Y28000D02*
Y27000D01*
X384800D01*
Y28000D01*
X385800D01*
Y30000D01*
X384800D01*
Y31000D01*
X382800D01*
Y30000D01*
X381800D01*
Y28000D01*
X382800D01*
X315400D02*
Y27000D01*
X317400D01*
Y28000D01*
X318400D01*
Y30000D01*
X317400D01*
Y31000D01*
X315400D01*
Y30000D01*
X314400D01*
Y28000D01*
X315400D01*
X247400D02*
Y27000D01*
X249400D01*
Y28000D01*
X250400D01*
Y30000D01*
X249400D01*
Y31000D01*
X247400D01*
Y30000D01*
X246400D01*
Y28000D01*
X247400D01*
Y129500D02*
Y128500D01*
X249400D01*
Y129500D01*
X250400D01*
Y131500D01*
X249400D01*
Y132500D01*
X247400D01*
Y131500D01*
X246400D01*
Y129500D01*
X247400D01*
X315400D02*
Y128500D01*
X317400D01*
Y129500D01*
X318400D01*
Y131500D01*
X317400D01*
Y132500D01*
X315400D01*
Y131500D01*
X314400D01*
Y129500D01*
X315400D01*
X382800D02*
Y128500D01*
X384800D01*
Y129500D01*
X385800D01*
Y131500D01*
X384800D01*
Y132500D01*
X382800D01*
Y131500D01*
X381800D01*
Y129500D01*
X382800D01*
X168295Y355611D02*
X169295D01*
X170295Y356611D01*
X171295Y355611D01*
X172295D01*
Y356611D01*
X171295Y357611D01*
X172295Y358611D01*
Y359611D01*
X171295D01*
X170295Y358611D01*
X169295Y359611D01*
X168295D01*
Y358611D01*
X169295Y357611D01*
X168295Y356611D01*
Y355611D01*
X171051Y343800D02*
X172051D01*
X173051Y344800D01*
X174051Y343800D01*
X175051D01*
Y344800D01*
X174051Y345800D01*
X175051Y346800D01*
Y347800D01*
X174051D01*
X173051Y346800D01*
X172051Y347800D01*
X171051D01*
Y346800D01*
X172051Y345800D01*
X171051Y344800D01*
Y343800D01*
X164752Y337501D02*
X165752D01*
X166752Y338501D01*
X167752Y337501D01*
X168752D01*
Y338501D01*
X167752Y339501D01*
X168752Y340501D01*
Y341501D01*
X167752D01*
X166752Y340501D01*
X165752Y341501D01*
X164752D01*
Y340501D01*
X165752Y339501D01*
X164752Y338501D01*
Y337501D01*
X168295Y331989D02*
X169295D01*
X170295Y332989D01*
X171295Y331989D01*
X172295D01*
Y332989D01*
X171295Y333989D01*
X172295Y334989D01*
Y335989D01*
X171295D01*
X170295Y334989D01*
X169295Y335989D01*
X168295D01*
Y334989D01*
X169295Y333989D01*
X168295Y332989D01*
Y331989D01*
X164752Y343800D02*
X165752D01*
X166752Y344800D01*
X167752Y343800D01*
X168752D01*
Y344800D01*
X167752Y345800D01*
X168752Y346800D01*
Y347800D01*
X167752D01*
X166752Y346800D01*
X165752Y347800D01*
X164752D01*
Y346800D01*
X165752Y345800D01*
X164752Y344800D01*
Y343800D01*
X171051Y337501D02*
X172051D01*
X173051Y338501D01*
X174051Y337501D01*
X175051D01*
Y338501D01*
X174051Y339501D01*
X175051Y340501D01*
Y341501D01*
X174051D01*
X173051Y340501D01*
X172051Y341501D01*
X171051D01*
Y340501D01*
X172051Y339501D01*
X171051Y338501D01*
Y337501D01*
X164752Y350099D02*
X165752D01*
X166752Y351099D01*
X167752Y350099D01*
X168752D01*
Y351099D01*
X167752Y352099D01*
X168752Y353099D01*
Y354099D01*
X167752D01*
X166752Y353099D01*
X165752Y354099D01*
X164752D01*
Y353099D01*
X165752Y352099D01*
X164752Y351099D01*
Y350099D01*
X171051D02*
X172051D01*
X173051Y351099D01*
X174051Y350099D01*
X175051D01*
Y351099D01*
X174051Y352099D01*
X175051Y353099D01*
Y354099D01*
X174051D01*
X173051Y353099D01*
X172051Y354099D01*
X171051D01*
Y353099D01*
X172051Y352099D01*
X171051Y351099D01*
Y350099D01*
X270389Y367995D02*
X271389D01*
X272389Y368995D01*
X273389Y367995D01*
X274389D01*
Y368995D01*
X273389Y369995D01*
X274389Y370995D01*
Y371995D01*
X273389D01*
X272389Y370995D01*
X271389Y371995D01*
X270389D01*
Y370995D01*
X271389Y369995D01*
X270389Y368995D01*
Y367995D01*
X282200Y370751D02*
X283200D01*
X284200Y371751D01*
X285200Y370751D01*
X286200D01*
Y371751D01*
X285200Y372751D01*
X286200Y373751D01*
Y374751D01*
X285200D01*
X284200Y373751D01*
X283200Y374751D01*
X282200D01*
Y373751D01*
X283200Y372751D01*
X282200Y371751D01*
Y370751D01*
X288499Y364452D02*
X289499D01*
X290499Y365452D01*
X291499Y364452D01*
X292499D01*
Y365452D01*
X291499Y366452D01*
X292499Y367452D01*
Y368452D01*
X291499D01*
X290499Y367452D01*
X289499Y368452D01*
X288499D01*
Y367452D01*
X289499Y366452D01*
X288499Y365452D01*
Y364452D01*
X294011Y367995D02*
X295011D01*
X296011Y368995D01*
X297011Y367995D01*
X298011D01*
Y368995D01*
X297011Y369995D01*
X298011Y370995D01*
Y371995D01*
X297011D01*
X296011Y370995D01*
X295011Y371995D01*
X294011D01*
Y370995D01*
X295011Y369995D01*
X294011Y368995D01*
Y367995D01*
X282200Y364452D02*
X283200D01*
X284200Y365452D01*
X285200Y364452D01*
X286200D01*
Y365452D01*
X285200Y366452D01*
X286200Y367452D01*
Y368452D01*
X285200D01*
X284200Y367452D01*
X283200Y368452D01*
X282200D01*
Y367452D01*
X283200Y366452D01*
X282200Y365452D01*
Y364452D01*
X288499Y370751D02*
X289499D01*
X290499Y371751D01*
X291499Y370751D01*
X292499D01*
Y371751D01*
X291499Y372751D01*
X292499Y373751D01*
Y374751D01*
X291499D01*
X290499Y373751D01*
X289499Y374751D01*
X288499D01*
Y373751D01*
X289499Y372751D01*
X288499Y371751D01*
Y370751D01*
X275901Y364452D02*
X276901D01*
X277901Y365452D01*
X278901Y364452D01*
X279901D01*
Y365452D01*
X278901Y366452D01*
X279901Y367452D01*
Y368452D01*
X278901D01*
X277901Y367452D01*
X276901Y368452D01*
X275901D01*
Y367452D01*
X276901Y366452D01*
X275901Y365452D01*
Y364452D01*
Y370751D02*
X276901D01*
X277901Y371751D01*
X278901Y370751D01*
X279901D01*
Y371751D01*
X278901Y372751D01*
X279901Y373751D01*
Y374751D01*
X278901D01*
X277901Y373751D01*
X276901Y374751D01*
X275901D01*
Y373751D01*
X276901Y372751D01*
X275901Y371751D01*
Y370751D01*
X168295Y119311D02*
X169295D01*
X170295Y120311D01*
X171295Y119311D01*
X172295D01*
Y120311D01*
X171295Y121311D01*
X172295Y122311D01*
Y123311D01*
X171295D01*
X170295Y122311D01*
X169295Y123311D01*
X168295D01*
Y122311D01*
X169295Y121311D01*
X168295Y120311D01*
Y119311D01*
X171051Y107500D02*
X172051D01*
X173051Y108500D01*
X174051Y107500D01*
X175051D01*
Y108500D01*
X174051Y109500D01*
X175051Y110500D01*
Y111500D01*
X174051D01*
X173051Y110500D01*
X172051Y111500D01*
X171051D01*
Y110500D01*
X172051Y109500D01*
X171051Y108500D01*
Y107500D01*
X164752Y101201D02*
X165752D01*
X166752Y102201D01*
X167752Y101201D01*
X168752D01*
Y102201D01*
X167752Y103201D01*
X168752Y104201D01*
Y105201D01*
X167752D01*
X166752Y104201D01*
X165752Y105201D01*
X164752D01*
Y104201D01*
X165752Y103201D01*
X164752Y102201D01*
Y101201D01*
X168295Y95689D02*
X169295D01*
X170295Y96689D01*
X171295Y95689D01*
X172295D01*
Y96689D01*
X171295Y97689D01*
X172295Y98689D01*
Y99689D01*
X171295D01*
X170295Y98689D01*
X169295Y99689D01*
X168295D01*
Y98689D01*
X169295Y97689D01*
X168295Y96689D01*
Y95689D01*
X164752Y107500D02*
X165752D01*
X166752Y108500D01*
X167752Y107500D01*
X168752D01*
Y108500D01*
X167752Y109500D01*
X168752Y110500D01*
Y111500D01*
X167752D01*
X166752Y110500D01*
X165752Y111500D01*
X164752D01*
Y110500D01*
X165752Y109500D01*
X164752Y108500D01*
Y107500D01*
X171051Y101201D02*
X172051D01*
X173051Y102201D01*
X174051Y101201D01*
X175051D01*
Y102201D01*
X174051Y103201D01*
X175051Y104201D01*
Y105201D01*
X174051D01*
X173051Y104201D01*
X172051Y105201D01*
X171051D01*
Y104201D01*
X172051Y103201D01*
X171051Y102201D01*
Y101201D01*
X164752Y113799D02*
X165752D01*
X166752Y114799D01*
X167752Y113799D01*
X168752D01*
Y114799D01*
X167752Y115799D01*
X168752Y116799D01*
Y117799D01*
X167752D01*
X166752Y116799D01*
X165752Y117799D01*
X164752D01*
Y116799D01*
X165752Y115799D01*
X164752Y114799D01*
Y113799D01*
X171051D02*
X172051D01*
X173051Y114799D01*
X174051Y113799D01*
X175051D01*
Y114799D01*
X174051Y115799D01*
X175051Y116799D01*
Y117799D01*
X174051D01*
X173051Y116799D01*
X172051Y117799D01*
X171051D01*
Y116799D01*
X172051Y115799D01*
X171051Y114799D01*
Y113799D01*
X106400Y294800D02*
X108400Y296800D01*
X110400Y294800D01*
X108400Y292800D01*
X106400Y294800D01*
X103500Y307800D02*
Y311800D01*
X107500D01*
Y307800D01*
X103500D01*
X104300Y308600D02*
Y311000D01*
X106700D01*
Y308600D01*
X104300D01*
X128700Y305800D02*
Y309800D01*
X132700D01*
Y305800D01*
X128700D01*
X129500Y306600D02*
Y309000D01*
X131900D01*
Y306600D01*
X129500D01*
X135717Y313283D02*
X137717Y315283D01*
X139717Y313283D01*
X137717Y311283D01*
X135717Y313283D01*
X89200Y299200D02*
Y303200D01*
X93200D01*
Y299200D01*
X89200D01*
X90000Y300000D02*
Y302400D01*
X92400D01*
Y300000D01*
X90000D01*
X102900Y277500D02*
Y281500D01*
X106900D01*
Y277500D01*
X102900D01*
X103700Y278300D02*
Y280700D01*
X106100D01*
Y278300D01*
X103700D01*
X136800Y319000D02*
X138800Y321000D01*
X140800Y319000D01*
X138800Y317000D01*
X136800Y319000D01*
X135700Y326000D02*
X137700Y328000D01*
X139700Y326000D01*
X137700Y324000D01*
X135700Y326000D01*
X79700Y284000D02*
X81700Y286000D01*
X83700Y284000D01*
X81700Y282000D01*
X79700Y284000D01*
X87700Y268600D02*
X89700Y270600D01*
X91700Y268600D01*
X89700Y266600D01*
X87700Y268600D01*
X85500Y247200D02*
X87500Y249200D01*
X89500Y247200D01*
X87500Y245200D01*
X85500Y247200D01*
X56800Y269900D02*
X58800Y271900D01*
X60800Y269900D01*
X58800Y267900D01*
X56800Y269900D01*
X63500Y286700D02*
Y290700D01*
X67500D01*
Y286700D01*
X63500D01*
X64300Y287500D02*
Y289900D01*
X66700D01*
Y287500D01*
X64300D01*
X107300Y334800D02*
X109300Y336800D01*
X111300Y334800D01*
X109300Y332800D01*
X107300Y334800D01*
X24500Y353500D02*
Y357500D01*
X28500D01*
Y353500D01*
X24500D01*
X25300Y354300D02*
Y356700D01*
X27700D01*
Y354300D01*
X25300D01*
X83700Y328500D02*
Y332500D01*
X87700D01*
Y328500D01*
X83700D01*
X84500Y329300D02*
Y331700D01*
X86900D01*
Y329300D01*
X84500D01*
X153600Y363800D02*
Y367800D01*
X157600D01*
Y363800D01*
X153600D01*
X154400Y364600D02*
Y367000D01*
X156800D01*
Y364600D01*
X154400D01*
X39900Y257800D02*
X41900Y259800D01*
X43900Y257800D01*
X41900Y255800D01*
X39900Y257800D01*
X152000Y376600D02*
Y380600D01*
X156000D01*
Y376600D01*
X152000D01*
X152800Y377400D02*
Y379800D01*
X155200D01*
Y377400D01*
X152800D01*
X36100Y333200D02*
Y337200D01*
X40100D01*
Y333200D01*
X36100D01*
X36900Y334000D02*
Y336400D01*
X39300D01*
Y334000D01*
X36900D01*
X44900Y340700D02*
X46900Y342700D01*
X48900Y340700D01*
X46900Y338700D01*
X44900Y340700D01*
X104400Y356000D02*
Y360000D01*
X108400D01*
Y356000D01*
X104400D01*
X105200Y356800D02*
Y359200D01*
X107600D01*
Y356800D01*
X105200D01*
X57200Y358200D02*
X59200Y360200D01*
X61200Y358200D01*
X59200Y356200D01*
X57200Y358200D01*
X24000Y294700D02*
X26000Y296700D01*
X28000Y294700D01*
X26000Y292700D01*
X24000Y294700D01*
X51900Y340700D02*
X53900Y342700D01*
X55900Y340700D01*
X53900Y338700D01*
X51900Y340700D01*
X6000Y357200D02*
X8000Y359200D01*
X10000Y357200D01*
X8000Y355200D01*
X6000Y357200D01*
X142100Y243200D02*
Y247200D01*
X146100D01*
Y243200D01*
X142100D01*
X142900Y244000D02*
Y246400D01*
X145300D01*
Y244000D01*
X142900D01*
X149400Y328200D02*
Y332200D01*
X153400D01*
Y328200D01*
X149400D01*
X150200Y329000D02*
Y331400D01*
X152600D01*
Y329000D01*
X150200D01*
X142100Y283100D02*
Y287100D01*
X146100D01*
Y283100D01*
X142100D01*
X142900Y283900D02*
Y286300D01*
X145300D01*
Y283900D01*
X142900D01*
X2300Y366800D02*
Y370800D01*
X6300D01*
Y366800D01*
X2300D01*
X3100Y367600D02*
Y370000D01*
X5500D01*
Y367600D01*
X3100D01*
X2300Y334800D02*
Y338800D01*
X6300D01*
Y334800D01*
X2300D01*
X3100Y335600D02*
Y338000D01*
X5500D01*
Y335600D01*
X3100D01*
X2300Y302800D02*
Y306800D01*
X6300D01*
Y302800D01*
X2300D01*
X3100Y303600D02*
Y306000D01*
X5500D01*
Y303600D01*
X3100D01*
X36100Y318800D02*
Y322800D01*
X40100D01*
Y318800D01*
X36100D01*
X36900Y319600D02*
Y322000D01*
X39300D01*
Y319600D01*
X36900D01*
X51900Y387600D02*
Y391600D01*
X55900D01*
Y387600D01*
X51900D01*
X52700Y388400D02*
Y390800D01*
X55100D01*
Y388400D01*
X52700D01*
X148800Y387600D02*
Y391600D01*
X152800D01*
Y387600D01*
X148800D01*
X149600Y388400D02*
Y390800D01*
X152000D01*
Y388400D01*
X149600D01*
X49500Y291200D02*
Y295200D01*
X53500D01*
Y291200D01*
X49500D01*
X50300Y292000D02*
Y294400D01*
X52700D01*
Y292000D01*
X50300D01*
X106400Y58500D02*
X108400Y60500D01*
X110400Y58500D01*
X108400Y56500D01*
X106400Y58500D01*
X103500Y71500D02*
Y75500D01*
X107500D01*
Y71500D01*
X103500D01*
X104300Y72300D02*
Y74700D01*
X106700D01*
Y72300D01*
X104300D01*
X128700Y69500D02*
Y73500D01*
X132700D01*
Y69500D01*
X128700D01*
X129500Y70300D02*
Y72700D01*
X131900D01*
Y70300D01*
X129500D01*
X135717Y76983D02*
X137717Y78983D01*
X139717Y76983D01*
X137717Y74983D01*
X135717Y76983D01*
X89200Y62900D02*
Y66900D01*
X93200D01*
Y62900D01*
X89200D01*
X90000Y63700D02*
Y66100D01*
X92400D01*
Y63700D01*
X90000D01*
X102900Y41200D02*
Y45200D01*
X106900D01*
Y41200D01*
X102900D01*
X103700Y42000D02*
Y44400D01*
X106100D01*
Y42000D01*
X103700D01*
X136800Y82700D02*
X138800Y84700D01*
X140800Y82700D01*
X138800Y80700D01*
X136800Y82700D01*
X135700Y89700D02*
X137700Y91700D01*
X139700Y89700D01*
X137700Y87700D01*
X135700Y89700D01*
X79700Y47700D02*
X81700Y49700D01*
X83700Y47700D01*
X81700Y45700D01*
X79700Y47700D01*
X87700Y32300D02*
X89700Y34300D01*
X91700Y32300D01*
X89700Y30300D01*
X87700Y32300D01*
X85500Y10900D02*
X87500Y12900D01*
X89500Y10900D01*
X87500Y8900D01*
X85500Y10900D01*
X56800Y33600D02*
X58800Y35600D01*
X60800Y33600D01*
X58800Y31600D01*
X56800Y33600D01*
X63500Y50400D02*
Y54400D01*
X67500D01*
Y50400D01*
X63500D01*
X64300Y51200D02*
Y53600D01*
X66700D01*
Y51200D01*
X64300D01*
X107300Y98500D02*
X109300Y100500D01*
X111300Y98500D01*
X109300Y96500D01*
X107300Y98500D01*
X24500Y117200D02*
Y121200D01*
X28500D01*
Y117200D01*
X24500D01*
X25300Y118000D02*
Y120400D01*
X27700D01*
Y118000D01*
X25300D01*
X83700Y92200D02*
Y96200D01*
X87700D01*
Y92200D01*
X83700D01*
X84500Y93000D02*
Y95400D01*
X86900D01*
Y93000D01*
X84500D01*
X153600Y127500D02*
Y131500D01*
X157600D01*
Y127500D01*
X153600D01*
X154400Y128300D02*
Y130700D01*
X156800D01*
Y128300D01*
X154400D01*
X39900Y21500D02*
X41900Y23500D01*
X43900Y21500D01*
X41900Y19500D01*
X39900Y21500D01*
X152000Y140300D02*
Y144300D01*
X156000D01*
Y140300D01*
X152000D01*
X152800Y141100D02*
Y143500D01*
X155200D01*
Y141100D01*
X152800D01*
X36100Y96900D02*
Y100900D01*
X40100D01*
Y96900D01*
X36100D01*
X36900Y97700D02*
Y100100D01*
X39300D01*
Y97700D01*
X36900D01*
X44900Y104400D02*
X46900Y106400D01*
X48900Y104400D01*
X46900Y102400D01*
X44900Y104400D01*
X104400Y119700D02*
Y123700D01*
X108400D01*
Y119700D01*
X104400D01*
X105200Y120500D02*
Y122900D01*
X107600D01*
Y120500D01*
X105200D01*
X57200Y121900D02*
X59200Y123900D01*
X61200Y121900D01*
X59200Y119900D01*
X57200Y121900D01*
X24000Y58400D02*
X26000Y60400D01*
X28000Y58400D01*
X26000Y56400D01*
X24000Y58400D01*
X51900Y104400D02*
X53900Y106400D01*
X55900Y104400D01*
X53900Y102400D01*
X51900Y104400D01*
X6000Y120900D02*
X8000Y122900D01*
X10000Y120900D01*
X8000Y118900D01*
X6000Y120900D01*
X142100Y6900D02*
Y10900D01*
X146100D01*
Y6900D01*
X142100D01*
X142900Y7700D02*
Y10100D01*
X145300D01*
Y7700D01*
X142900D01*
X149400Y91900D02*
Y95900D01*
X153400D01*
Y91900D01*
X149400D01*
X150200Y92700D02*
Y95100D01*
X152600D01*
Y92700D01*
X150200D01*
X142100Y46800D02*
Y50800D01*
X146100D01*
Y46800D01*
X142100D01*
X142900Y47600D02*
Y50000D01*
X145300D01*
Y47600D01*
X142900D01*
X2300Y130500D02*
Y134500D01*
X6300D01*
Y130500D01*
X2300D01*
X3100Y131300D02*
Y133700D01*
X5500D01*
Y131300D01*
X3100D01*
X2300Y98500D02*
Y102500D01*
X6300D01*
Y98500D01*
X2300D01*
X3100Y99300D02*
Y101700D01*
X5500D01*
Y99300D01*
X3100D01*
X2300Y66500D02*
Y70500D01*
X6300D01*
Y66500D01*
X2300D01*
X3100Y67300D02*
Y69700D01*
X5500D01*
Y67300D01*
X3100D01*
X36100Y82500D02*
Y86500D01*
X40100D01*
Y82500D01*
X36100D01*
X36900Y83300D02*
Y85700D01*
X39300D01*
Y83300D01*
X36900D01*
X51900Y151300D02*
Y155300D01*
X55900D01*
Y151300D01*
X51900D01*
X52700Y152100D02*
Y154500D01*
X55100D01*
Y152100D01*
X52700D01*
X148800Y151300D02*
Y155300D01*
X152800D01*
Y151300D01*
X148800D01*
X149600Y152100D02*
Y154500D01*
X152000D01*
Y152100D01*
X149600D01*
X49500Y54900D02*
Y58900D01*
X53500D01*
Y54900D01*
X49500D01*
X50300Y55700D02*
Y58100D01*
X52700D01*
Y55700D01*
X50300D01*
X333200Y308100D02*
X335200Y310100D01*
X337200Y308100D01*
X335200Y306100D01*
X333200Y308100D01*
X318200Y303200D02*
Y307200D01*
X322200D01*
Y303200D01*
X318200D01*
X319000Y304000D02*
Y306400D01*
X321400D01*
Y304000D01*
X319000D01*
X320200Y328400D02*
Y332400D01*
X324200D01*
Y328400D01*
X320200D01*
X321000Y329200D02*
Y331600D01*
X323400D01*
Y329200D01*
X321000D01*
X314717Y337417D02*
X316717Y339417D01*
X318717Y337417D01*
X316717Y335417D01*
X314717Y337417D01*
X326800Y288900D02*
Y292900D01*
X330800D01*
Y288900D01*
X326800D01*
X327600Y289700D02*
Y292100D01*
X330000D01*
Y289700D01*
X327600D01*
X348500Y302600D02*
Y306600D01*
X352500D01*
Y302600D01*
X348500D01*
X349300Y303400D02*
Y305800D01*
X351700D01*
Y303400D01*
X349300D01*
X309000Y338500D02*
X311000Y340500D01*
X313000Y338500D01*
X311000Y336500D01*
X309000Y338500D01*
X302000Y337400D02*
X304000Y339400D01*
X306000Y337400D01*
X304000Y335400D01*
X302000Y337400D01*
X344000Y281400D02*
X346000Y283400D01*
X348000Y281400D01*
X346000Y279400D01*
X344000Y281400D01*
X359400Y289400D02*
X361400Y291400D01*
X363400Y289400D01*
X361400Y287400D01*
X359400Y289400D01*
X380800Y287200D02*
X382800Y289200D01*
X384800Y287200D01*
X382800Y285200D01*
X380800Y287200D01*
X358100Y258500D02*
X360100Y260500D01*
X362100Y258500D01*
X360100Y256500D01*
X358100Y258500D01*
X339300Y263200D02*
Y267200D01*
X343300D01*
Y263200D01*
X339300D01*
X340100Y264000D02*
Y266400D01*
X342500D01*
Y264000D01*
X340100D01*
X293200Y309000D02*
X295200Y311000D01*
X297200Y309000D01*
X295200Y307000D01*
X293200Y309000D01*
X272500Y224200D02*
Y228200D01*
X276500D01*
Y224200D01*
X272500D01*
X273300Y225000D02*
Y227400D01*
X275700D01*
Y225000D01*
X273300D01*
X297500Y283400D02*
Y287400D01*
X301500D01*
Y283400D01*
X297500D01*
X298300Y284200D02*
Y286600D01*
X300700D01*
Y284200D01*
X298300D01*
X262200Y353300D02*
Y357300D01*
X266200D01*
Y353300D01*
X262200D01*
X263000Y354100D02*
Y356500D01*
X265400D01*
Y354100D01*
X263000D01*
X370200Y241600D02*
X372200Y243600D01*
X374200Y241600D01*
X372200Y239600D01*
X370200Y241600D01*
X249400Y351700D02*
Y355700D01*
X253400D01*
Y351700D01*
X249400D01*
X250200Y352500D02*
Y354900D01*
X252600D01*
Y352500D01*
X250200D01*
X292800Y235800D02*
Y239800D01*
X296800D01*
Y235800D01*
X292800D01*
X293600Y236600D02*
Y239000D01*
X296000D01*
Y236600D01*
X293600D01*
X287300Y246600D02*
X289300Y248600D01*
X291300Y246600D01*
X289300Y244600D01*
X287300Y246600D01*
X270000Y304100D02*
Y308100D01*
X274000D01*
Y304100D01*
X270000D01*
X270800Y304900D02*
Y307300D01*
X273200D01*
Y304900D01*
X270800D01*
X269800Y258900D02*
X271800Y260900D01*
X273800Y258900D01*
X271800Y256900D01*
X269800Y258900D01*
X333300Y225700D02*
X335300Y227700D01*
X337300Y225700D01*
X335300Y223700D01*
X333300Y225700D01*
X287300Y253600D02*
X289300Y255600D01*
X291300Y253600D01*
X289300Y251600D01*
X287300Y253600D01*
X270800Y207700D02*
X272800Y209700D01*
X274800Y207700D01*
X272800Y205700D01*
X270800Y207700D01*
X382800Y341800D02*
Y345800D01*
X386800D01*
Y341800D01*
X382800D01*
X383600Y342600D02*
Y345000D01*
X386000D01*
Y342600D01*
X383600D01*
X297800Y349100D02*
Y353100D01*
X301800D01*
Y349100D01*
X297800D01*
X298600Y349900D02*
Y352300D01*
X301000D01*
Y349900D01*
X298600D01*
X342900Y341800D02*
Y345800D01*
X346900D01*
Y341800D01*
X342900D01*
X343700Y342600D02*
Y345000D01*
X346100D01*
Y342600D01*
X343700D01*
X259200Y202000D02*
Y206000D01*
X263200D01*
Y202000D01*
X259200D01*
X260000Y202800D02*
Y205200D01*
X262400D01*
Y202800D01*
X260000D01*
X291200Y202000D02*
Y206000D01*
X295200D01*
Y202000D01*
X291200D01*
X292000Y202800D02*
Y205200D01*
X294400D01*
Y202800D01*
X292000D01*
X323200Y202000D02*
Y206000D01*
X327200D01*
Y202000D01*
X323200D01*
X324000Y202800D02*
Y205200D01*
X326400D01*
Y202800D01*
X324000D01*
X307200Y235800D02*
Y239800D01*
X311200D01*
Y235800D01*
X307200D01*
X308000Y236600D02*
Y239000D01*
X310400D01*
Y236600D01*
X308000D01*
X238400Y251600D02*
Y255600D01*
X242400D01*
Y251600D01*
X238400D01*
X239200Y252400D02*
Y254800D01*
X241600D01*
Y252400D01*
X239200D01*
X238400Y348500D02*
Y352500D01*
X242400D01*
Y348500D01*
X238400D01*
X239200Y349300D02*
Y351700D01*
X241600D01*
Y349300D01*
X239200D01*
X334800Y249200D02*
Y253200D01*
X338800D01*
Y249200D01*
X334800D01*
X335600Y250000D02*
Y252400D01*
X338000D01*
Y250000D01*
X335600D01*
X352000Y46700D02*
Y50700D01*
X356000D01*
Y46700D01*
X352000D01*
X352800Y47500D02*
Y49900D01*
X355200D01*
Y47500D01*
X352800D01*
X351800Y62600D02*
X353800Y64600D01*
X355800Y62600D01*
X353800Y60600D01*
X351800Y62600D01*
X341500Y2100D02*
Y6100D01*
X345500D01*
Y2100D01*
X341500D01*
X342300Y2900D02*
Y5300D01*
X344700D01*
Y2900D01*
X342300D01*
X380100Y73100D02*
X382100Y75100D01*
X384100Y73100D01*
X382100Y71100D01*
X380100Y73100D01*
X371400Y59800D02*
X373400Y61800D01*
X375400Y59800D01*
X373400Y57800D01*
X371400Y59800D01*
X383900Y10800D02*
X385900Y12800D01*
X387900Y10800D01*
X385900Y8800D01*
X383900Y10800D01*
X379900Y6000D02*
X381900Y8000D01*
X383900Y6000D01*
X381900Y4000D01*
X379900Y6000D01*
X362100Y40400D02*
X364100Y42400D01*
X366100Y40400D01*
X364100Y38400D01*
X362100Y40400D01*
Y20000D02*
X364100Y22000D01*
X366100Y20000D01*
X364100Y18000D01*
X362100Y20000D01*
Y3900D02*
X364100Y5900D01*
X366100Y3900D01*
X364100Y1900D01*
X362100Y3900D01*
X284600Y46700D02*
Y50700D01*
X288600D01*
Y46700D01*
X284600D01*
X285400Y47500D02*
Y49900D01*
X287800D01*
Y47500D01*
X285400D01*
X284400Y62600D02*
X286400Y64600D01*
X288400Y62600D01*
X286400Y60600D01*
X284400Y62600D01*
X274100Y2100D02*
Y6100D01*
X278100D01*
Y2100D01*
X274100D01*
X274900Y2900D02*
Y5300D01*
X277300D01*
Y2900D01*
X274900D01*
X312700Y73100D02*
X314700Y75100D01*
X316700Y73100D01*
X314700Y71100D01*
X312700Y73100D01*
X304000Y59800D02*
X306000Y61800D01*
X308000Y59800D01*
X306000Y57800D01*
X304000Y59800D01*
X316500Y10800D02*
X318500Y12800D01*
X320500Y10800D01*
X318500Y8800D01*
X316500Y10800D01*
X312500Y6000D02*
X314500Y8000D01*
X316500Y6000D01*
X314500Y4000D01*
X312500Y6000D01*
X294700Y40400D02*
X296700Y42400D01*
X298700Y40400D01*
X296700Y38400D01*
X294700Y40400D01*
Y20000D02*
X296700Y22000D01*
X298700Y20000D01*
X296700Y18000D01*
X294700Y20000D01*
Y3900D02*
X296700Y5900D01*
X298700Y3900D01*
X296700Y1900D01*
X294700Y3900D01*
X216600Y46700D02*
Y50700D01*
X220600D01*
Y46700D01*
X216600D01*
X217400Y47500D02*
Y49900D01*
X219800D01*
Y47500D01*
X217400D01*
X216400Y62600D02*
X218400Y64600D01*
X220400Y62600D01*
X218400Y60600D01*
X216400Y62600D01*
X206100Y2100D02*
Y6100D01*
X210100D01*
Y2100D01*
X206100D01*
X206900Y2900D02*
Y5300D01*
X209300D01*
Y2900D01*
X206900D01*
X244700Y73100D02*
X246700Y75100D01*
X248700Y73100D01*
X246700Y71100D01*
X244700Y73100D01*
X236000Y59800D02*
X238000Y61800D01*
X240000Y59800D01*
X238000Y57800D01*
X236000Y59800D01*
X248500Y10800D02*
X250500Y12800D01*
X252500Y10800D01*
X250500Y8800D01*
X248500Y10800D01*
X244500Y6000D02*
X246500Y8000D01*
X248500Y6000D01*
X246500Y4000D01*
X244500Y6000D01*
X226700Y40400D02*
X228700Y42400D01*
X230700Y40400D01*
X228700Y38400D01*
X226700Y40400D01*
Y20000D02*
X228700Y22000D01*
X230700Y20000D01*
X228700Y18000D01*
X226700Y20000D01*
Y3900D02*
X228700Y5900D01*
X230700Y3900D01*
X228700Y1900D01*
X226700Y3900D01*
Y105400D02*
X228700Y107400D01*
X230700Y105400D01*
X228700Y103400D01*
X226700Y105400D01*
Y121500D02*
X228700Y123500D01*
X230700Y121500D01*
X228700Y119500D01*
X226700Y121500D01*
Y141900D02*
X228700Y143900D01*
X230700Y141900D01*
X228700Y139900D01*
X226700Y141900D01*
X244500Y107500D02*
X246500Y109500D01*
X248500Y107500D01*
X246500Y105500D01*
X244500Y107500D01*
X248500Y112300D02*
X250500Y114300D01*
X252500Y112300D01*
X250500Y110300D01*
X248500Y112300D01*
X236000Y161300D02*
X238000Y163300D01*
X240000Y161300D01*
X238000Y159300D01*
X236000Y161300D01*
X244700Y174600D02*
X246700Y176600D01*
X248700Y174600D01*
X246700Y172600D01*
X244700Y174600D01*
X206100Y103600D02*
Y107600D01*
X210100D01*
Y103600D01*
X206100D01*
X206900Y104400D02*
Y106800D01*
X209300D01*
Y104400D01*
X206900D01*
X216400Y164100D02*
X218400Y166100D01*
X220400Y164100D01*
X218400Y162100D01*
X216400Y164100D01*
X216600Y148200D02*
Y152200D01*
X220600D01*
Y148200D01*
X216600D01*
X217400Y149000D02*
Y151400D01*
X219800D01*
Y149000D01*
X217400D01*
X294700Y105400D02*
X296700Y107400D01*
X298700Y105400D01*
X296700Y103400D01*
X294700Y105400D01*
Y121500D02*
X296700Y123500D01*
X298700Y121500D01*
X296700Y119500D01*
X294700Y121500D01*
Y141900D02*
X296700Y143900D01*
X298700Y141900D01*
X296700Y139900D01*
X294700Y141900D01*
X312500Y107500D02*
X314500Y109500D01*
X316500Y107500D01*
X314500Y105500D01*
X312500Y107500D01*
X316500Y112300D02*
X318500Y114300D01*
X320500Y112300D01*
X318500Y110300D01*
X316500Y112300D01*
X304000Y161300D02*
X306000Y163300D01*
X308000Y161300D01*
X306000Y159300D01*
X304000Y161300D01*
X312700Y174600D02*
X314700Y176600D01*
X316700Y174600D01*
X314700Y172600D01*
X312700Y174600D01*
X274100Y103600D02*
Y107600D01*
X278100D01*
Y103600D01*
X274100D01*
X274900Y104400D02*
Y106800D01*
X277300D01*
Y104400D01*
X274900D01*
X284400Y164100D02*
X286400Y166100D01*
X288400Y164100D01*
X286400Y162100D01*
X284400Y164100D01*
X284600Y148200D02*
Y152200D01*
X288600D01*
Y148200D01*
X284600D01*
X285400Y149000D02*
Y151400D01*
X287800D01*
Y149000D01*
X285400D01*
X362100Y105400D02*
X364100Y107400D01*
X366100Y105400D01*
X364100Y103400D01*
X362100Y105400D01*
Y121500D02*
X364100Y123500D01*
X366100Y121500D01*
X364100Y119500D01*
X362100Y121500D01*
Y141900D02*
X364100Y143900D01*
X366100Y141900D01*
X364100Y139900D01*
X362100Y141900D01*
X379900Y107500D02*
X381900Y109500D01*
X383900Y107500D01*
X381900Y105500D01*
X379900Y107500D01*
X383900Y112300D02*
X385900Y114300D01*
X387900Y112300D01*
X385900Y110300D01*
X383900Y112300D01*
X371400Y161300D02*
X373400Y163300D01*
X375400Y161300D01*
X373400Y159300D01*
X371400Y161300D01*
X380100Y174600D02*
X382100Y176600D01*
X384100Y174600D01*
X382100Y172600D01*
X380100Y174600D01*
X341500Y103600D02*
Y107600D01*
X345500D01*
Y103600D01*
X341500D01*
X342300Y104400D02*
Y106800D01*
X344700D01*
Y104400D01*
X342300D01*
X351800Y164100D02*
X353800Y166100D01*
X355800Y164100D01*
X353800Y162100D01*
X351800Y164100D01*
X352000Y148200D02*
Y152200D01*
X356000D01*
Y148200D01*
X352000D01*
X352800Y149000D02*
Y151400D01*
X355200D01*
Y149000D01*
X352800D01*
D149*
X103547Y373487D02*
G03*
X103547Y373487I-2000J0D01*
G01*
X84453D02*
G03*
X84453Y373487I-2000J0D01*
G01*
X258513Y301247D02*
G03*
X258513Y301247I-2000J0D01*
G01*
Y282153D02*
G03*
X258513Y282153I-2000J0D01*
G01*
X103547Y137187D02*
G03*
X103547Y137187I-2000J0D01*
G01*
X84453D02*
G03*
X84453Y137187I-2000J0D01*
G01*
X72500Y243800D02*
G03*
X72500Y243800I-2000J0D01*
G01*
X52500D02*
G03*
X52500Y243800I-2000J0D01*
G01*
X62500Y256500D02*
G03*
X62500Y256500I-2000J0D01*
G01*
X72500Y7500D02*
G03*
X72500Y7500I-2000J0D01*
G01*
X52500D02*
G03*
X52500Y7500I-2000J0D01*
G01*
X62500Y20200D02*
G03*
X62500Y20200I-2000J0D01*
G01*
X388200Y270200D02*
G03*
X388200Y270200I-2000J0D01*
G01*
Y250200D02*
G03*
X388200Y250200I-2000J0D01*
G01*
X375500Y260200D02*
G03*
X375500Y260200I-2000J0D01*
G01*
D150*
X71700Y243800D02*
G03*
X71700Y243800I-1200J0D01*
G01*
X51700D02*
G03*
X51700Y243800I-1200J0D01*
G01*
X61700Y256500D02*
G03*
X61700Y256500I-1200J0D01*
G01*
X71700Y7500D02*
G03*
X71700Y7500I-1200J0D01*
G01*
X51700D02*
G03*
X51700Y7500I-1200J0D01*
G01*
X61700Y20200D02*
G03*
X61700Y20200I-1200J0D01*
G01*
X387400Y270200D02*
G03*
X387400Y270200I-1200J0D01*
G01*
Y250200D02*
G03*
X387400Y250200I-1200J0D01*
G01*
X374700Y260200D02*
G03*
X374700Y260200I-1200J0D01*
G01*
M02*
