%FSLAX25Y25*%
%MOIN*%
G70*
G01*
G75*
G04 Layer_Color=8421504*
%ADD10R,0.01772X0.06299*%
%ADD11R,0.06299X0.13386*%
%ADD12R,0.05512X0.01654*%
%ADD13R,0.04724X0.04724*%
%ADD14R,0.08465X0.05000*%
%ADD15R,0.09000X0.15000*%
%ADD16R,0.05906X0.03937*%
%ADD17R,0.03937X0.05906*%
%ADD18R,0.07874X0.11024*%
%ADD19R,0.03500X0.05000*%
%ADD20R,0.07874X0.15748*%
%ADD21R,0.06299X0.09449*%
%ADD22R,0.05512X0.07087*%
%ADD23R,0.05906X0.15748*%
%ADD24R,0.06299X0.01772*%
%ADD25R,0.13386X0.06299*%
%ADD26R,0.01654X0.05512*%
%ADD27R,0.04724X0.04724*%
%ADD28R,0.05000X0.08465*%
%ADD29R,0.15000X0.09000*%
%ADD30R,0.11024X0.07874*%
%ADD31R,0.15748X0.05906*%
%ADD32R,0.05000X0.03500*%
%ADD33R,0.15748X0.07874*%
%ADD34R,0.09449X0.06299*%
%ADD35R,0.07087X0.05512*%
%ADD36R,0.06600X0.01700*%
%ADD37C,0.02500*%
%ADD38C,0.02000*%
%ADD39C,0.03000*%
%ADD40C,0.01500*%
%ADD41C,0.04000*%
%ADD42C,0.01000*%
%ADD43C,0.01800*%
%ADD44R,0.01600X0.04800*%
%ADD45R,0.34200X0.03200*%
%ADD46R,0.14413X0.28346*%
%ADD47R,0.04800X0.01600*%
%ADD48R,0.03200X0.34200*%
%ADD49R,0.28346X0.14413*%
%ADD50C,0.15800*%
%ADD51R,0.05512X0.07874*%
%ADD52R,0.05118X0.07874*%
%ADD53C,0.07874*%
%ADD54R,0.07874X0.05512*%
%ADD55R,0.07874X0.05118*%
%ADD56C,0.05000*%
%ADD57C,0.04000*%
%ADD58C,0.06000*%
%ADD59C,0.03937*%
%ADD60R,0.09449X0.04724*%
%ADD61R,0.04724X0.11024*%
%ADD62R,0.03000X0.10000*%
%ADD63R,0.10000X0.20000*%
%ADD64R,0.06299X0.05512*%
%ADD65R,0.09843X0.14961*%
%ADD66R,0.04724X0.09449*%
%ADD67R,0.11024X0.04724*%
%ADD68R,0.10000X0.03000*%
%ADD69R,0.20000X0.10000*%
%ADD70R,0.05512X0.06299*%
%ADD71R,0.14961X0.09843*%
%ADD72R,0.03150X0.04724*%
%ADD73C,0.03500*%
%ADD74R,0.26400X0.28346*%
%ADD75R,0.28346X0.26400*%
%ADD76C,0.00200*%
%ADD77C,0.00591*%
%ADD78C,0.00394*%
%ADD79C,0.00787*%
%ADD80C,0.00500*%
%ADD81C,0.00050*%
%ADD82C,0.00800*%
%ADD83R,0.02300X0.06299*%
%ADD84R,0.06299X0.02300*%
D10*
X200982Y477100D02*
D03*
X211218D02*
D03*
X208659D02*
D03*
X203541D02*
D03*
X206100D02*
D03*
X200982Y327100D02*
D03*
X211218D02*
D03*
X208659D02*
D03*
X203541D02*
D03*
X206100D02*
D03*
D11*
X209643Y490092D02*
D03*
X202557D02*
D03*
X209643Y340092D02*
D03*
X202557D02*
D03*
D12*
X235328Y393423D02*
D03*
Y395982D02*
D03*
Y398541D02*
D03*
Y401100D02*
D03*
X212100Y393423D02*
D03*
Y395982D02*
D03*
Y398541D02*
D03*
Y401100D02*
D03*
X235328Y243423D02*
D03*
Y245982D02*
D03*
Y248541D02*
D03*
Y251100D02*
D03*
X212100Y243423D02*
D03*
Y245982D02*
D03*
Y248541D02*
D03*
Y251100D02*
D03*
D13*
X130037Y416045D02*
D03*
Y434155D02*
D03*
X122163D02*
D03*
Y416045D02*
D03*
X130037Y266045D02*
D03*
Y284155D02*
D03*
X122163D02*
D03*
Y266045D02*
D03*
D14*
X278100Y442045D02*
D03*
Y451100D02*
D03*
Y460155D02*
D03*
Y292045D02*
D03*
Y301100D02*
D03*
Y310155D02*
D03*
D15*
X252903Y451100D02*
D03*
Y301100D02*
D03*
D16*
X140100Y416100D02*
D03*
Y407100D02*
D03*
X152100Y446100D02*
D03*
Y455100D02*
D03*
X190100Y432100D02*
D03*
Y441100D02*
D03*
X180100Y432100D02*
D03*
Y441100D02*
D03*
X142100Y446100D02*
D03*
Y455100D02*
D03*
X254100Y396100D02*
D03*
Y387100D02*
D03*
Y246100D02*
D03*
Y237100D02*
D03*
X142100Y296100D02*
D03*
Y305100D02*
D03*
X180100Y282100D02*
D03*
Y291100D02*
D03*
X190100Y282100D02*
D03*
Y291100D02*
D03*
X152100Y296100D02*
D03*
Y305100D02*
D03*
X140100Y266100D02*
D03*
Y257100D02*
D03*
X430900Y336100D02*
D03*
Y327100D02*
D03*
X434900Y376100D02*
D03*
Y367100D02*
D03*
X366900Y352100D02*
D03*
Y343100D02*
D03*
X406900Y322100D02*
D03*
Y313100D02*
D03*
X366900Y372100D02*
D03*
Y363100D02*
D03*
X386900Y316100D02*
D03*
Y325100D02*
D03*
X441900Y420100D02*
D03*
Y429100D02*
D03*
X390900Y482100D02*
D03*
Y491100D02*
D03*
D17*
X145100Y427100D02*
D03*
X136100D02*
D03*
X185100Y423100D02*
D03*
X176100D02*
D03*
X161100Y491100D02*
D03*
X152100D02*
D03*
X131100Y451100D02*
D03*
X122100D02*
D03*
X181100Y491100D02*
D03*
X172100D02*
D03*
X125100Y471100D02*
D03*
X134100D02*
D03*
X229100Y416100D02*
D03*
X238100D02*
D03*
X291100Y467100D02*
D03*
X300100D02*
D03*
X291100Y317100D02*
D03*
X300100D02*
D03*
X229100Y266100D02*
D03*
X238100D02*
D03*
X125100Y321100D02*
D03*
X134100D02*
D03*
X181100Y341100D02*
D03*
X172100D02*
D03*
X131100Y301100D02*
D03*
X122100D02*
D03*
X161100Y341100D02*
D03*
X152100D02*
D03*
X185100Y273100D02*
D03*
X176100D02*
D03*
X145100Y277100D02*
D03*
X136100D02*
D03*
X441900Y331100D02*
D03*
X450900D02*
D03*
X411900Y343100D02*
D03*
X402900D02*
D03*
X425900Y381100D02*
D03*
X416900D02*
D03*
X425900Y371100D02*
D03*
X416900D02*
D03*
X411900Y333100D02*
D03*
X402900D02*
D03*
X461900Y445100D02*
D03*
X470900D02*
D03*
X170000Y128000D02*
D03*
X161000D02*
D03*
X170000Y152000D02*
D03*
X161000D02*
D03*
X170000Y140000D02*
D03*
X161000D02*
D03*
X238000D02*
D03*
X229000D02*
D03*
X238000Y152000D02*
D03*
X229000D02*
D03*
X238000Y128000D02*
D03*
X229000D02*
D03*
X374000D02*
D03*
X365000D02*
D03*
X374000Y152000D02*
D03*
X365000D02*
D03*
X374000Y140000D02*
D03*
X365000D02*
D03*
X306000D02*
D03*
X297000D02*
D03*
X306000Y152000D02*
D03*
X297000D02*
D03*
X306000Y128000D02*
D03*
X297000D02*
D03*
X441000Y140000D02*
D03*
X432000D02*
D03*
X441000Y152000D02*
D03*
X432000D02*
D03*
X441000Y128000D02*
D03*
X432000D02*
D03*
X489500Y219500D02*
D03*
X480500D02*
D03*
X489500Y243500D02*
D03*
X480500D02*
D03*
X489500Y231500D02*
D03*
X480500D02*
D03*
X362000Y219500D02*
D03*
X353000D02*
D03*
X362000Y243500D02*
D03*
X353000D02*
D03*
X362000Y231500D02*
D03*
X353000D02*
D03*
X426000D02*
D03*
X417000D02*
D03*
X426000Y243500D02*
D03*
X417000D02*
D03*
X426000Y219500D02*
D03*
X417000D02*
D03*
D18*
X241454Y479100D02*
D03*
X226100D02*
D03*
X241454Y329100D02*
D03*
X226100D02*
D03*
D19*
X152100Y425100D02*
D03*
X159580D02*
D03*
X155840Y432974D02*
D03*
X152100Y275100D02*
D03*
X159580D02*
D03*
X155840Y282974D02*
D03*
D20*
X250966Y483100D02*
D03*
X280100D02*
D03*
X250966Y333100D02*
D03*
X280100D02*
D03*
D21*
X160100Y467100D02*
D03*
X143565D02*
D03*
X160100Y317100D02*
D03*
X143565D02*
D03*
D22*
X200100Y407100D02*
D03*
X185533D02*
D03*
X200100Y257100D02*
D03*
X185533D02*
D03*
D23*
X194100Y375100D02*
D03*
Y225100D02*
D03*
D24*
X380900Y391982D02*
D03*
Y402218D02*
D03*
Y399659D02*
D03*
Y394541D02*
D03*
Y397100D02*
D03*
D25*
X367908Y400643D02*
D03*
Y393557D02*
D03*
D26*
X464577Y426328D02*
D03*
X462018D02*
D03*
X459459D02*
D03*
X456900D02*
D03*
X464577Y403100D02*
D03*
X462018D02*
D03*
X459459D02*
D03*
X456900D02*
D03*
D27*
X441955Y321037D02*
D03*
X423845D02*
D03*
Y313163D02*
D03*
X441955D02*
D03*
D28*
X415955Y469100D02*
D03*
X406900D02*
D03*
X397845D02*
D03*
D29*
X406900Y443903D02*
D03*
D30*
X378900Y432454D02*
D03*
Y417100D02*
D03*
D31*
X482900Y385100D02*
D03*
D32*
X432900Y343100D02*
D03*
Y350580D02*
D03*
X425026Y346840D02*
D03*
D33*
X374900Y441966D02*
D03*
Y471100D02*
D03*
D34*
X390900Y351100D02*
D03*
Y334565D02*
D03*
D35*
X450900Y391100D02*
D03*
Y376533D02*
D03*
D36*
X158110Y161823D02*
D03*
Y164382D02*
D03*
Y166941D02*
D03*
Y169500D02*
D03*
X140000Y161823D02*
D03*
Y164382D02*
D03*
Y166941D02*
D03*
Y169500D02*
D03*
X226110Y161823D02*
D03*
Y164382D02*
D03*
Y166941D02*
D03*
Y169500D02*
D03*
X208000Y161823D02*
D03*
Y164382D02*
D03*
Y166941D02*
D03*
Y169500D02*
D03*
X362110Y161823D02*
D03*
Y164382D02*
D03*
Y166941D02*
D03*
Y169500D02*
D03*
X344000Y161823D02*
D03*
Y164382D02*
D03*
Y166941D02*
D03*
Y169500D02*
D03*
X294110Y161823D02*
D03*
Y164382D02*
D03*
Y166941D02*
D03*
Y169500D02*
D03*
X276000Y161823D02*
D03*
Y164382D02*
D03*
Y166941D02*
D03*
Y169500D02*
D03*
X429110Y161823D02*
D03*
Y164382D02*
D03*
Y166941D02*
D03*
Y169500D02*
D03*
X411000Y161823D02*
D03*
Y164382D02*
D03*
Y166941D02*
D03*
Y169500D02*
D03*
X477610Y253323D02*
D03*
Y255882D02*
D03*
Y258441D02*
D03*
Y261000D02*
D03*
X459500Y253323D02*
D03*
Y255882D02*
D03*
Y258441D02*
D03*
Y261000D02*
D03*
X350110Y253323D02*
D03*
Y255882D02*
D03*
Y258441D02*
D03*
Y261000D02*
D03*
X332000Y253323D02*
D03*
Y255882D02*
D03*
Y258441D02*
D03*
Y261000D02*
D03*
X414110Y253323D02*
D03*
Y255882D02*
D03*
Y258441D02*
D03*
Y261000D02*
D03*
X396000Y253323D02*
D03*
Y255882D02*
D03*
Y258441D02*
D03*
Y261000D02*
D03*
D42*
X110000Y110000D02*
Y504000D01*
Y110000D02*
X504000D01*
Y504000D01*
X110000D02*
X504000D01*
X308100Y362100D02*
Y498100D01*
X114100D02*
X308100D01*
X114100Y362100D02*
X308100D01*
X114100D02*
Y498100D01*
Y212100D02*
Y348100D01*
Y212100D02*
X308100D01*
X114100Y348100D02*
X308100D01*
Y212100D02*
Y348100D01*
X359900Y499100D02*
X495900D01*
X359900Y305100D02*
Y499100D01*
X495900Y305100D02*
Y499100D01*
X359900Y305100D02*
X495900D01*
X120000Y196500D02*
X180000D01*
X120000Y118500D02*
Y196500D01*
Y118500D02*
X180000D01*
Y196500D01*
X248000Y118500D02*
Y196500D01*
X188000Y118500D02*
X248000D01*
X188000D02*
Y196500D01*
X248000D01*
X324000D02*
X384000D01*
X324000Y118500D02*
Y196500D01*
Y118500D02*
X384000D01*
Y196500D01*
X316000Y118500D02*
Y196500D01*
X256000Y118500D02*
X316000D01*
X256000D02*
Y196500D01*
X316000D01*
X451000Y118500D02*
Y196500D01*
X391000Y118500D02*
X451000D01*
X391000D02*
Y196500D01*
X451000D01*
X439500Y288000D02*
X499500D01*
X439500Y210000D02*
Y288000D01*
Y210000D02*
X499500D01*
Y288000D01*
X312000D02*
X372000D01*
X312000Y210000D02*
Y288000D01*
Y210000D02*
X372000D01*
Y288000D01*
X436000Y210000D02*
Y288000D01*
X376000Y210000D02*
X436000D01*
X376000D02*
Y288000D01*
X436000D01*
M02*
