%FSLAX25Y25*%
%MOIN*%
G70*
G01*
G75*
G04 Layer_Physical_Order=2*
G04 Layer_Color=16711680*
%ADD10R,0.01772X0.06299*%
%ADD11R,0.06299X0.13386*%
%ADD12R,0.05512X0.01654*%
%ADD13R,0.04724X0.04724*%
%ADD14R,0.08465X0.05000*%
%ADD15R,0.09000X0.15000*%
%ADD16R,0.05906X0.03937*%
%ADD17R,0.03937X0.05906*%
%ADD18R,0.07874X0.11024*%
%ADD19R,0.03500X0.05000*%
%ADD20R,0.07874X0.15748*%
%ADD21R,0.06299X0.09449*%
%ADD22R,0.05512X0.07087*%
%ADD23R,0.05906X0.15748*%
%ADD24R,0.06299X0.01772*%
%ADD25R,0.13386X0.06299*%
%ADD26R,0.01654X0.05512*%
%ADD27R,0.04724X0.04724*%
%ADD28R,0.05000X0.08465*%
%ADD29R,0.15000X0.09000*%
%ADD30R,0.11024X0.07874*%
%ADD31R,0.15748X0.05906*%
%ADD32R,0.05000X0.03500*%
%ADD33R,0.15748X0.07874*%
%ADD34R,0.09449X0.06299*%
%ADD35R,0.07087X0.05512*%
%ADD36R,0.06600X0.01700*%
%ADD37C,0.02500*%
%ADD38C,0.02000*%
%ADD39C,0.03000*%
%ADD40C,0.01500*%
%ADD41C,0.04000*%
%ADD42C,0.01000*%
%ADD43C,0.01800*%
%ADD44R,0.01600X0.04800*%
%ADD45R,0.34200X0.03200*%
%ADD46R,0.14413X0.28346*%
%ADD47R,0.04800X0.01600*%
%ADD48R,0.03200X0.34200*%
%ADD49R,0.28346X0.14413*%
%ADD50C,0.15800*%
%ADD51R,0.05512X0.07874*%
%ADD52R,0.05118X0.07874*%
%ADD53C,0.07874*%
%ADD54R,0.07874X0.05512*%
%ADD55R,0.07874X0.05118*%
%ADD56C,0.05000*%
%ADD57C,0.04000*%
%ADD58C,0.06000*%
%ADD59C,0.03937*%
%ADD60R,0.09449X0.04724*%
%ADD61R,0.04724X0.11024*%
%ADD62R,0.03000X0.10000*%
%ADD63R,0.10000X0.20000*%
%ADD64R,0.06299X0.05512*%
%ADD65R,0.09843X0.14961*%
%ADD66R,0.04724X0.09449*%
%ADD67R,0.11024X0.04724*%
%ADD68R,0.10000X0.03000*%
%ADD69R,0.20000X0.10000*%
%ADD70R,0.05512X0.06299*%
%ADD71R,0.14961X0.09843*%
%ADD72R,0.03150X0.04724*%
%ADD73C,0.03500*%
%ADD74R,0.26400X0.28346*%
%ADD75R,0.28346X0.26400*%
G36*
X372000Y210000D02*
X312000D01*
Y288000D01*
X372000D01*
Y210000D01*
D02*
G37*
G36*
X451000Y118500D02*
X391000D01*
Y196500D01*
X451000D01*
Y118500D01*
D02*
G37*
G36*
X499500Y210000D02*
X439500D01*
Y288000D01*
X499500D01*
Y210000D01*
D02*
G37*
G36*
X436000D02*
X376000D01*
Y288000D01*
X436000D01*
Y210000D01*
D02*
G37*
G36*
X316000Y118500D02*
X256000D01*
Y196500D01*
X316000D01*
Y118500D01*
D02*
G37*
G36*
X248000D02*
X188000D01*
Y196500D01*
X248000D01*
Y118500D01*
D02*
G37*
G36*
X180000D02*
X120000D01*
Y196500D01*
X180000D01*
Y118500D01*
D02*
G37*
G36*
X384000D02*
X324000D01*
Y196500D01*
X384000D01*
Y118500D01*
D02*
G37*
%LPC*%
G36*
X264082Y153889D02*
X262057D01*
Y151077D01*
X264082D01*
Y153889D01*
D02*
G37*
G36*
X328557D02*
X326532D01*
Y151077D01*
X328557D01*
Y153889D01*
D02*
G37*
G36*
X196082D02*
X194057D01*
Y151077D01*
X196082D01*
Y153889D01*
D02*
G37*
G36*
X260557D02*
X258532D01*
Y151077D01*
X260557D01*
Y153889D01*
D02*
G37*
G36*
X332082D02*
X330057D01*
Y151077D01*
X332082D01*
Y153889D01*
D02*
G37*
G36*
X154000Y157728D02*
X153165Y157618D01*
X152386Y157295D01*
X151718Y156782D01*
X151688Y156743D01*
X146200D01*
X145342Y156572D01*
X144614Y156086D01*
X142049Y153521D01*
X142000Y153528D01*
X141165Y153418D01*
X140386Y153095D01*
X139718Y152582D01*
X139688Y152543D01*
X135169D01*
Y153889D01*
X129619D01*
Y146765D01*
X135169D01*
Y148057D01*
X139688D01*
X139718Y148018D01*
X140386Y147505D01*
X141165Y147182D01*
X142000Y147072D01*
X142835Y147182D01*
X143614Y147505D01*
X144282Y148018D01*
X144795Y148686D01*
X145118Y149465D01*
X145228Y150300D01*
X145221Y150349D01*
X147129Y152257D01*
X151688D01*
X151718Y152218D01*
X152386Y151705D01*
X153165Y151382D01*
X154000Y151272D01*
X154835Y151382D01*
X155614Y151705D01*
X156282Y152218D01*
X156795Y152886D01*
X157118Y153665D01*
X157228Y154500D01*
X157118Y155335D01*
X156795Y156114D01*
X156282Y156782D01*
X155614Y157295D01*
X154835Y157618D01*
X154000Y157728D01*
D02*
G37*
G36*
X222000D02*
X221165Y157618D01*
X220386Y157295D01*
X219718Y156782D01*
X219688Y156743D01*
X214200D01*
X213342Y156572D01*
X212614Y156086D01*
X210049Y153521D01*
X210000Y153528D01*
X209165Y153418D01*
X208386Y153095D01*
X207718Y152582D01*
X207688Y152543D01*
X203169D01*
Y153889D01*
X197619D01*
Y146765D01*
X203169D01*
Y148057D01*
X207688D01*
X207718Y148018D01*
X208386Y147505D01*
X209165Y147182D01*
X210000Y147072D01*
X210835Y147182D01*
X211614Y147505D01*
X212282Y148018D01*
X212795Y148686D01*
X213118Y149465D01*
X213228Y150300D01*
X213221Y150349D01*
X215129Y152257D01*
X219688D01*
X219718Y152218D01*
X220386Y151705D01*
X221165Y151382D01*
X222000Y151272D01*
X222835Y151382D01*
X223614Y151705D01*
X224282Y152218D01*
X224795Y152886D01*
X225118Y153665D01*
X225228Y154500D01*
X225118Y155335D01*
X224795Y156114D01*
X224282Y156782D01*
X223614Y157295D01*
X222835Y157618D01*
X222000Y157728D01*
D02*
G37*
G36*
X395557Y153889D02*
X393532D01*
Y151077D01*
X395557D01*
Y153889D01*
D02*
G37*
G36*
X399082D02*
X397057D01*
Y151077D01*
X399082D01*
Y153889D01*
D02*
G37*
G36*
X192557D02*
X190532D01*
Y151077D01*
X192557D01*
Y153889D01*
D02*
G37*
G36*
X196082Y149577D02*
X194057D01*
Y146765D01*
X196082D01*
Y149577D01*
D02*
G37*
G36*
X260557D02*
X258532D01*
Y146765D01*
X260557D01*
Y149577D01*
D02*
G37*
G36*
X264082D02*
X262057D01*
Y146765D01*
X264082D01*
Y149577D01*
D02*
G37*
G36*
X124557D02*
X122532D01*
Y146765D01*
X124557D01*
Y149577D01*
D02*
G37*
G36*
X128082D02*
X126057D01*
Y146765D01*
X128082D01*
Y149577D01*
D02*
G37*
G36*
X192557D02*
X190532D01*
Y146765D01*
X192557D01*
Y149577D01*
D02*
G37*
G36*
X399082D02*
X397057D01*
Y146765D01*
X399082D01*
Y149577D01*
D02*
G37*
G36*
X124557Y153889D02*
X122532D01*
Y151077D01*
X124557D01*
Y153889D01*
D02*
G37*
G36*
X128082D02*
X126057D01*
Y151077D01*
X128082D01*
Y153889D01*
D02*
G37*
G36*
X328557Y149577D02*
X326532D01*
Y146765D01*
X328557D01*
Y149577D01*
D02*
G37*
G36*
X332082D02*
X330057D01*
Y146765D01*
X332082D01*
Y149577D01*
D02*
G37*
G36*
X395557D02*
X393532D01*
Y146765D01*
X395557D01*
Y149577D01*
D02*
G37*
G36*
X223389Y166250D02*
X220183D01*
Y162257D01*
X223389D01*
Y166250D01*
D02*
G37*
G36*
X286683D02*
X283477D01*
Y162257D01*
X286683D01*
Y166250D01*
D02*
G37*
G36*
X291389D02*
X288183D01*
Y162257D01*
X291389D01*
Y166250D01*
D02*
G37*
G36*
X150683D02*
X147477D01*
Y162257D01*
X150683D01*
Y166250D01*
D02*
G37*
G36*
X155389D02*
X152183D01*
Y162257D01*
X155389D01*
Y166250D01*
D02*
G37*
G36*
X218683D02*
X215477D01*
Y162257D01*
X218683D01*
Y166250D01*
D02*
G37*
G36*
X426389D02*
X423183D01*
Y162257D01*
X426389D01*
Y166250D01*
D02*
G37*
G36*
X124650Y165433D02*
X124434Y165405D01*
X123534Y165032D01*
X122761Y164439D01*
X122168Y163666D01*
X121795Y162766D01*
X121767Y162550D01*
X124650D01*
Y165433D01*
D02*
G37*
G36*
X126150D02*
Y162550D01*
X129033D01*
X129005Y162766D01*
X128632Y163666D01*
X128039Y164439D01*
X127266Y165032D01*
X126366Y165405D01*
X126150Y165433D01*
D02*
G37*
G36*
X354683Y166250D02*
X351477D01*
Y162257D01*
X354683D01*
Y166250D01*
D02*
G37*
G36*
X359389D02*
X356183D01*
Y162257D01*
X359389D01*
Y166250D01*
D02*
G37*
G36*
X421683D02*
X418477D01*
Y162257D01*
X421683D01*
Y166250D01*
D02*
G37*
G36*
X400033Y161050D02*
X397150D01*
Y158167D01*
X397366Y158195D01*
X398266Y158568D01*
X399039Y159161D01*
X399632Y159934D01*
X400005Y160834D01*
X400033Y161050D01*
D02*
G37*
G36*
X124650D02*
X121767D01*
X121795Y160834D01*
X122168Y159934D01*
X122761Y159161D01*
X123534Y158568D01*
X124434Y158195D01*
X124650Y158167D01*
Y161050D01*
D02*
G37*
G36*
X129033D02*
X126150D01*
Y158167D01*
X126366Y158195D01*
X127266Y158568D01*
X128039Y159161D01*
X128632Y159934D01*
X129005Y160834D01*
X129033Y161050D01*
D02*
G37*
G36*
X192650D02*
X189767D01*
X189795Y160834D01*
X190168Y159934D01*
X190761Y159161D01*
X191534Y158568D01*
X192434Y158195D01*
X192650Y158167D01*
Y161050D01*
D02*
G37*
G36*
X290000Y157728D02*
X289165Y157618D01*
X288386Y157295D01*
X287718Y156782D01*
X287688Y156743D01*
X282200D01*
X281342Y156572D01*
X280614Y156086D01*
X278049Y153521D01*
X278000Y153528D01*
X277165Y153418D01*
X276386Y153095D01*
X275718Y152582D01*
X275688Y152543D01*
X271168D01*
Y153889D01*
X265619D01*
Y146765D01*
X271168D01*
Y148057D01*
X275688D01*
X275718Y148018D01*
X276386Y147505D01*
X277165Y147182D01*
X278000Y147072D01*
X278835Y147182D01*
X279614Y147505D01*
X280282Y148018D01*
X280795Y148686D01*
X281118Y149465D01*
X281228Y150300D01*
X281221Y150349D01*
X283129Y152257D01*
X287688D01*
X287718Y152218D01*
X288386Y151705D01*
X289165Y151382D01*
X290000Y151272D01*
X290835Y151382D01*
X291614Y151705D01*
X292282Y152218D01*
X292795Y152886D01*
X293118Y153665D01*
X293228Y154500D01*
X293118Y155335D01*
X292795Y156114D01*
X292282Y156782D01*
X291614Y157295D01*
X290835Y157618D01*
X290000Y157728D01*
D02*
G37*
G36*
X358000D02*
X357165Y157618D01*
X356386Y157295D01*
X355718Y156782D01*
X355688Y156743D01*
X350200D01*
X349342Y156572D01*
X348614Y156086D01*
X346049Y153521D01*
X346000Y153528D01*
X345165Y153418D01*
X344386Y153095D01*
X343718Y152582D01*
X343688Y152543D01*
X339169D01*
Y153889D01*
X333619D01*
Y146765D01*
X339169D01*
Y148057D01*
X343688D01*
X343718Y148018D01*
X344386Y147505D01*
X345165Y147182D01*
X346000Y147072D01*
X346835Y147182D01*
X347614Y147505D01*
X348282Y148018D01*
X348795Y148686D01*
X349118Y149465D01*
X349228Y150300D01*
X349221Y150349D01*
X351129Y152257D01*
X355688D01*
X355718Y152218D01*
X356386Y151705D01*
X357165Y151382D01*
X358000Y151272D01*
X358835Y151382D01*
X359614Y151705D01*
X360282Y152218D01*
X360795Y152886D01*
X361118Y153665D01*
X361228Y154500D01*
X361118Y155335D01*
X360795Y156114D01*
X360282Y156782D01*
X359614Y157295D01*
X358835Y157618D01*
X358000Y157728D01*
D02*
G37*
G36*
X425000D02*
X424165Y157618D01*
X423386Y157295D01*
X422718Y156782D01*
X422688Y156743D01*
X417200D01*
X416342Y156572D01*
X415614Y156086D01*
X413049Y153521D01*
X413000Y153528D01*
X412165Y153418D01*
X411386Y153095D01*
X410718Y152582D01*
X410688Y152543D01*
X406169D01*
Y153889D01*
X400619D01*
Y146765D01*
X406169D01*
Y148057D01*
X410688D01*
X410718Y148018D01*
X411386Y147505D01*
X412165Y147182D01*
X413000Y147072D01*
X413835Y147182D01*
X414614Y147505D01*
X415282Y148018D01*
X415795Y148686D01*
X416118Y149465D01*
X416228Y150300D01*
X416221Y150349D01*
X418129Y152257D01*
X422688D01*
X422718Y152218D01*
X423386Y151705D01*
X424165Y151382D01*
X425000Y151272D01*
X425835Y151382D01*
X426614Y151705D01*
X427282Y152218D01*
X427795Y152886D01*
X428118Y153665D01*
X428228Y154500D01*
X428118Y155335D01*
X427795Y156114D01*
X427282Y156782D01*
X426614Y157295D01*
X425835Y157618D01*
X425000Y157728D01*
D02*
G37*
G36*
X328650Y161050D02*
X325767D01*
X325795Y160834D01*
X326168Y159934D01*
X326761Y159161D01*
X327534Y158568D01*
X328434Y158195D01*
X328650Y158167D01*
Y161050D01*
D02*
G37*
G36*
X333033D02*
X330150D01*
Y158167D01*
X330366Y158195D01*
X331266Y158568D01*
X332039Y159161D01*
X332632Y159934D01*
X333005Y160834D01*
X333033Y161050D01*
D02*
G37*
G36*
X395650D02*
X392767D01*
X392795Y160834D01*
X393168Y159934D01*
X393761Y159161D01*
X394534Y158568D01*
X395434Y158195D01*
X395650Y158167D01*
Y161050D01*
D02*
G37*
G36*
X197033D02*
X194150D01*
Y158167D01*
X194366Y158195D01*
X195266Y158568D01*
X196039Y159161D01*
X196632Y159934D01*
X197005Y160834D01*
X197033Y161050D01*
D02*
G37*
G36*
X260650D02*
X257767D01*
X257795Y160834D01*
X258168Y159934D01*
X258761Y159161D01*
X259534Y158568D01*
X260434Y158195D01*
X260650Y158167D01*
Y161050D01*
D02*
G37*
G36*
X265033D02*
X262150D01*
Y158167D01*
X262366Y158195D01*
X263266Y158568D01*
X264039Y159161D01*
X264632Y159934D01*
X265005Y160834D01*
X265033Y161050D01*
D02*
G37*
G36*
X328557Y131889D02*
X326532D01*
Y129077D01*
X328557D01*
Y131889D01*
D02*
G37*
G36*
X332082D02*
X330057D01*
Y129077D01*
X332082D01*
Y131889D01*
D02*
G37*
G36*
X395557D02*
X393532D01*
Y129077D01*
X395557D01*
Y131889D01*
D02*
G37*
G36*
X196082D02*
X194057D01*
Y129077D01*
X196082D01*
Y131889D01*
D02*
G37*
G36*
X260557D02*
X258532D01*
Y129077D01*
X260557D01*
Y131889D01*
D02*
G37*
G36*
X264082D02*
X262057D01*
Y129077D01*
X264082D01*
Y131889D01*
D02*
G37*
G36*
X288500Y137228D02*
X287665Y137118D01*
X286886Y136795D01*
X286218Y136282D01*
X285705Y135614D01*
X285382Y134835D01*
X285272Y134000D01*
X285279Y133951D01*
X281898Y130570D01*
X271168D01*
Y131889D01*
X265619D01*
Y124765D01*
X271168D01*
Y126084D01*
X282827D01*
X283685Y126254D01*
X284413Y126741D01*
X284413Y126741D01*
X284413Y126741D01*
X288451Y130779D01*
X288500Y130772D01*
X289335Y130882D01*
X290114Y131205D01*
X290782Y131718D01*
X291295Y132386D01*
X291618Y133165D01*
X291728Y134000D01*
X291618Y134835D01*
X291295Y135614D01*
X290782Y136282D01*
X290114Y136795D01*
X289335Y137118D01*
X288500Y137228D01*
D02*
G37*
G36*
X356500D02*
X355665Y137118D01*
X354886Y136795D01*
X354218Y136282D01*
X353705Y135614D01*
X353382Y134835D01*
X353272Y134000D01*
X353279Y133951D01*
X349898Y130570D01*
X339169D01*
Y131889D01*
X333619D01*
Y124765D01*
X339169D01*
Y126084D01*
X350827D01*
X351685Y126254D01*
X352413Y126741D01*
X352413Y126741D01*
X352413Y126741D01*
X356451Y130779D01*
X356500Y130772D01*
X357335Y130882D01*
X358114Y131205D01*
X358782Y131718D01*
X359295Y132386D01*
X359618Y133165D01*
X359728Y134000D01*
X359618Y134835D01*
X359295Y135614D01*
X358782Y136282D01*
X358114Y136795D01*
X357335Y137118D01*
X356500Y137228D01*
D02*
G37*
G36*
X423500D02*
X422665Y137118D01*
X421886Y136795D01*
X421218Y136282D01*
X420705Y135614D01*
X420382Y134835D01*
X420272Y134000D01*
X420279Y133951D01*
X416898Y130570D01*
X406169D01*
Y131889D01*
X400619D01*
Y124765D01*
X406169D01*
Y126084D01*
X417827D01*
X418685Y126254D01*
X419413Y126741D01*
X419413Y126741D01*
X419413Y126741D01*
X423451Y130779D01*
X423500Y130772D01*
X424335Y130882D01*
X425114Y131205D01*
X425782Y131718D01*
X426295Y132386D01*
X426618Y133165D01*
X426728Y134000D01*
X426618Y134835D01*
X426295Y135614D01*
X425782Y136282D01*
X425114Y136795D01*
X424335Y137118D01*
X423500Y137228D01*
D02*
G37*
G36*
X399082Y131889D02*
X397057D01*
Y129077D01*
X399082D01*
Y131889D01*
D02*
G37*
G36*
X152500Y137228D02*
X151665Y137118D01*
X150886Y136795D01*
X150218Y136282D01*
X149705Y135614D01*
X149382Y134835D01*
X149272Y134000D01*
X149279Y133951D01*
X145898Y130570D01*
X135169D01*
Y131889D01*
X129619D01*
Y124765D01*
X135169D01*
Y126084D01*
X146827D01*
X147685Y126254D01*
X148413Y126741D01*
X148413Y126741D01*
X148413Y126741D01*
X152451Y130779D01*
X152500Y130772D01*
X153335Y130882D01*
X154114Y131205D01*
X154782Y131718D01*
X155295Y132386D01*
X155618Y133165D01*
X155728Y134000D01*
X155618Y134835D01*
X155295Y135614D01*
X154782Y136282D01*
X154114Y136795D01*
X153335Y137118D01*
X152500Y137228D01*
D02*
G37*
G36*
X220500D02*
X219665Y137118D01*
X218886Y136795D01*
X218218Y136282D01*
X217705Y135614D01*
X217382Y134835D01*
X217272Y134000D01*
X217279Y133951D01*
X213898Y130570D01*
X203169D01*
Y131889D01*
X197619D01*
Y124765D01*
X203169D01*
Y126084D01*
X214827D01*
X215685Y126254D01*
X216413Y126741D01*
X216413Y126741D01*
X216413Y126741D01*
X220451Y130779D01*
X220500Y130772D01*
X221335Y130882D01*
X222114Y131205D01*
X222782Y131718D01*
X223295Y132386D01*
X223618Y133165D01*
X223728Y134000D01*
X223618Y134835D01*
X223295Y135614D01*
X222782Y136282D01*
X222114Y136795D01*
X221335Y137118D01*
X220500Y137228D01*
D02*
G37*
G36*
X192557Y131889D02*
X190532D01*
Y129077D01*
X192557D01*
Y131889D01*
D02*
G37*
G36*
X196082Y127577D02*
X194057D01*
Y124765D01*
X196082D01*
Y127577D01*
D02*
G37*
G36*
X260557D02*
X258532D01*
Y124765D01*
X260557D01*
Y127577D01*
D02*
G37*
G36*
X264082D02*
X262057D01*
Y124765D01*
X264082D01*
Y127577D01*
D02*
G37*
G36*
X124557D02*
X122532D01*
Y124765D01*
X124557D01*
Y127577D01*
D02*
G37*
G36*
X128082D02*
X126057D01*
Y124765D01*
X128082D01*
Y127577D01*
D02*
G37*
G36*
X192557D02*
X190532D01*
Y124765D01*
X192557D01*
Y127577D01*
D02*
G37*
G36*
X399082D02*
X397057D01*
Y124765D01*
X399082D01*
Y127577D01*
D02*
G37*
G36*
X124557Y131889D02*
X122532D01*
Y129077D01*
X124557D01*
Y131889D01*
D02*
G37*
G36*
X128082D02*
X126057D01*
Y129077D01*
X128082D01*
Y131889D01*
D02*
G37*
G36*
X328557Y127577D02*
X326532D01*
Y124765D01*
X328557D01*
Y127577D01*
D02*
G37*
G36*
X332082D02*
X330057D01*
Y124765D01*
X332082D01*
Y127577D01*
D02*
G37*
G36*
X395557D02*
X393532D01*
Y124765D01*
X395557D01*
Y127577D01*
D02*
G37*
G36*
X328557Y142889D02*
X326532D01*
Y140077D01*
X328557D01*
Y142889D01*
D02*
G37*
G36*
X332082D02*
X330057D01*
Y140077D01*
X332082D01*
Y142889D01*
D02*
G37*
G36*
X395557D02*
X393532D01*
Y140077D01*
X395557D01*
Y142889D01*
D02*
G37*
G36*
X196082D02*
X194057D01*
Y140077D01*
X196082D01*
Y142889D01*
D02*
G37*
G36*
X260557D02*
X258532D01*
Y140077D01*
X260557D01*
Y142889D01*
D02*
G37*
G36*
X264082D02*
X262057D01*
Y140077D01*
X264082D01*
Y142889D01*
D02*
G37*
G36*
X288500Y149728D02*
X287665Y149618D01*
X286886Y149295D01*
X286218Y148782D01*
X285705Y148114D01*
X285382Y147335D01*
X285272Y146500D01*
X285279Y146451D01*
X280398Y141570D01*
X271168D01*
Y142889D01*
X265619D01*
Y135765D01*
X271168D01*
Y137084D01*
X281327D01*
X282185Y137254D01*
X282913Y137741D01*
X282913Y137741D01*
X282913Y137741D01*
X288451Y143279D01*
X288500Y143272D01*
X289335Y143382D01*
X290114Y143705D01*
X290782Y144218D01*
X291295Y144886D01*
X291618Y145665D01*
X291728Y146500D01*
X291618Y147335D01*
X291295Y148114D01*
X290782Y148782D01*
X290114Y149295D01*
X289335Y149618D01*
X288500Y149728D01*
D02*
G37*
G36*
X356500D02*
X355665Y149618D01*
X354886Y149295D01*
X354218Y148782D01*
X353705Y148114D01*
X353382Y147335D01*
X353272Y146500D01*
X353279Y146451D01*
X348398Y141570D01*
X339169D01*
Y142889D01*
X333619D01*
Y135765D01*
X339169D01*
Y137084D01*
X349327D01*
X350185Y137254D01*
X350913Y137741D01*
X350913Y137741D01*
X350913Y137741D01*
X356451Y143279D01*
X356500Y143272D01*
X357335Y143382D01*
X358114Y143705D01*
X358782Y144218D01*
X359295Y144886D01*
X359618Y145665D01*
X359728Y146500D01*
X359618Y147335D01*
X359295Y148114D01*
X358782Y148782D01*
X358114Y149295D01*
X357335Y149618D01*
X356500Y149728D01*
D02*
G37*
G36*
X423500D02*
X422665Y149618D01*
X421886Y149295D01*
X421218Y148782D01*
X420705Y148114D01*
X420382Y147335D01*
X420272Y146500D01*
X420279Y146451D01*
X415398Y141570D01*
X406169D01*
Y142889D01*
X400619D01*
Y135765D01*
X406169D01*
Y137084D01*
X416327D01*
X417185Y137254D01*
X417913Y137741D01*
X417913Y137741D01*
X417913Y137741D01*
X423451Y143279D01*
X423500Y143272D01*
X424335Y143382D01*
X425114Y143705D01*
X425782Y144218D01*
X426295Y144886D01*
X426618Y145665D01*
X426728Y146500D01*
X426618Y147335D01*
X426295Y148114D01*
X425782Y148782D01*
X425114Y149295D01*
X424335Y149618D01*
X423500Y149728D01*
D02*
G37*
G36*
X399082Y142889D02*
X397057D01*
Y140077D01*
X399082D01*
Y142889D01*
D02*
G37*
G36*
X152500Y149728D02*
X151665Y149618D01*
X150886Y149295D01*
X150218Y148782D01*
X149705Y148114D01*
X149382Y147335D01*
X149272Y146500D01*
X149279Y146451D01*
X144398Y141570D01*
X135169D01*
Y142889D01*
X129619D01*
Y135765D01*
X135169D01*
Y137084D01*
X145327D01*
X146185Y137254D01*
X146913Y137741D01*
X146913Y137741D01*
X146913Y137741D01*
X152451Y143279D01*
X152500Y143272D01*
X153335Y143382D01*
X154114Y143705D01*
X154782Y144218D01*
X155295Y144886D01*
X155618Y145665D01*
X155728Y146500D01*
X155618Y147335D01*
X155295Y148114D01*
X154782Y148782D01*
X154114Y149295D01*
X153335Y149618D01*
X152500Y149728D01*
D02*
G37*
G36*
X220500D02*
X219665Y149618D01*
X218886Y149295D01*
X218218Y148782D01*
X217705Y148114D01*
X217382Y147335D01*
X217272Y146500D01*
X217279Y146451D01*
X212398Y141570D01*
X203169D01*
Y142889D01*
X197619D01*
Y135765D01*
X203169D01*
Y137084D01*
X213327D01*
X214185Y137254D01*
X214913Y137741D01*
X214913Y137741D01*
X214913Y137741D01*
X220451Y143279D01*
X220500Y143272D01*
X221335Y143382D01*
X222114Y143705D01*
X222782Y144218D01*
X223295Y144886D01*
X223618Y145665D01*
X223728Y146500D01*
X223618Y147335D01*
X223295Y148114D01*
X222782Y148782D01*
X222114Y149295D01*
X221335Y149618D01*
X220500Y149728D01*
D02*
G37*
G36*
X192557Y142889D02*
X190532D01*
Y140077D01*
X192557D01*
Y142889D01*
D02*
G37*
G36*
X196082Y138577D02*
X194057D01*
Y135765D01*
X196082D01*
Y138577D01*
D02*
G37*
G36*
X260557D02*
X258532D01*
Y135765D01*
X260557D01*
Y138577D01*
D02*
G37*
G36*
X264082D02*
X262057D01*
Y135765D01*
X264082D01*
Y138577D01*
D02*
G37*
G36*
X124557D02*
X122532D01*
Y135765D01*
X124557D01*
Y138577D01*
D02*
G37*
G36*
X128082D02*
X126057D01*
Y135765D01*
X128082D01*
Y138577D01*
D02*
G37*
G36*
X192557D02*
X190532D01*
Y135765D01*
X192557D01*
Y138577D01*
D02*
G37*
G36*
X399082D02*
X397057D01*
Y135765D01*
X399082D01*
Y138577D01*
D02*
G37*
G36*
X124557Y142889D02*
X122532D01*
Y140077D01*
X124557D01*
Y142889D01*
D02*
G37*
G36*
X128082D02*
X126057D01*
Y140077D01*
X128082D01*
Y142889D01*
D02*
G37*
G36*
X328557Y138577D02*
X326532D01*
Y135765D01*
X328557D01*
Y138577D01*
D02*
G37*
G36*
X332082D02*
X330057D01*
Y135765D01*
X332082D01*
Y138577D01*
D02*
G37*
G36*
X395557D02*
X393532D01*
Y135765D01*
X395557D01*
Y138577D01*
D02*
G37*
G36*
X192650Y165433D02*
X192434Y165405D01*
X191534Y165032D01*
X190761Y164439D01*
X190168Y163666D01*
X189795Y162766D01*
X189767Y162550D01*
X192650D01*
Y165433D01*
D02*
G37*
G36*
X444057Y245389D02*
X442032D01*
Y242577D01*
X444057D01*
Y245389D01*
D02*
G37*
G36*
X447582D02*
X445557D01*
Y242577D01*
X447582D01*
Y245389D01*
D02*
G37*
G36*
X346000Y249228D02*
X345165Y249118D01*
X344386Y248795D01*
X343718Y248282D01*
X343688Y248243D01*
X338200D01*
X337342Y248072D01*
X336614Y247586D01*
X334049Y245021D01*
X334000Y245028D01*
X333165Y244918D01*
X332386Y244595D01*
X331718Y244082D01*
X331688Y244043D01*
X327168D01*
Y245389D01*
X321619D01*
Y238265D01*
X327168D01*
Y239557D01*
X331688D01*
X331718Y239518D01*
X332386Y239005D01*
X333165Y238682D01*
X334000Y238572D01*
X334835Y238682D01*
X335614Y239005D01*
X336282Y239518D01*
X336795Y240186D01*
X337118Y240965D01*
X337228Y241800D01*
X337221Y241849D01*
X339129Y243757D01*
X343688D01*
X343718Y243718D01*
X344386Y243205D01*
X345165Y242882D01*
X346000Y242772D01*
X346835Y242882D01*
X347614Y243205D01*
X348282Y243718D01*
X348795Y244386D01*
X349118Y245165D01*
X349228Y246000D01*
X349118Y246835D01*
X348795Y247614D01*
X348282Y248282D01*
X347614Y248795D01*
X346835Y249118D01*
X346000Y249228D01*
D02*
G37*
G36*
X320082Y245389D02*
X318057D01*
Y242577D01*
X320082D01*
Y245389D01*
D02*
G37*
G36*
X380557D02*
X378532D01*
Y242577D01*
X380557D01*
Y245389D01*
D02*
G37*
G36*
X384082D02*
X382057D01*
Y242577D01*
X384082D01*
Y245389D01*
D02*
G37*
G36*
X321033Y252550D02*
X318150D01*
Y249667D01*
X318366Y249695D01*
X319266Y250068D01*
X320039Y250661D01*
X320632Y251434D01*
X321005Y252334D01*
X321033Y252550D01*
D02*
G37*
G36*
X380650D02*
X377767D01*
X377795Y252334D01*
X378168Y251434D01*
X378761Y250661D01*
X379534Y250068D01*
X380434Y249695D01*
X380650Y249667D01*
Y252550D01*
D02*
G37*
G36*
X385033D02*
X382150D01*
Y249667D01*
X382366Y249695D01*
X383266Y250068D01*
X384039Y250661D01*
X384632Y251434D01*
X385005Y252334D01*
X385033Y252550D01*
D02*
G37*
G36*
X410000Y249228D02*
X409165Y249118D01*
X408386Y248795D01*
X407718Y248282D01*
X407688Y248243D01*
X402200D01*
X401342Y248072D01*
X400614Y247586D01*
X398049Y245021D01*
X398000Y245028D01*
X397165Y244918D01*
X396386Y244595D01*
X395718Y244082D01*
X395688Y244043D01*
X391168D01*
Y245389D01*
X385619D01*
Y238265D01*
X391168D01*
Y239557D01*
X395688D01*
X395718Y239518D01*
X396386Y239005D01*
X397165Y238682D01*
X398000Y238572D01*
X398835Y238682D01*
X399614Y239005D01*
X400282Y239518D01*
X400795Y240186D01*
X401118Y240965D01*
X401228Y241800D01*
X401221Y241849D01*
X403129Y243757D01*
X407688D01*
X407718Y243718D01*
X408386Y243205D01*
X409165Y242882D01*
X410000Y242772D01*
X410835Y242882D01*
X411614Y243205D01*
X412282Y243718D01*
X412795Y244386D01*
X413118Y245165D01*
X413228Y246000D01*
X413118Y246835D01*
X412795Y247614D01*
X412282Y248282D01*
X411614Y248795D01*
X410835Y249118D01*
X410000Y249228D01*
D02*
G37*
G36*
X473500D02*
X472665Y249118D01*
X471886Y248795D01*
X471218Y248282D01*
X471188Y248243D01*
X465700D01*
X464842Y248072D01*
X464114Y247586D01*
X461549Y245021D01*
X461500Y245028D01*
X460665Y244918D01*
X459886Y244595D01*
X459218Y244082D01*
X459188Y244043D01*
X454669D01*
Y245389D01*
X449119D01*
Y238265D01*
X454669D01*
Y239557D01*
X459188D01*
X459218Y239518D01*
X459886Y239005D01*
X460665Y238682D01*
X461500Y238572D01*
X462335Y238682D01*
X463114Y239005D01*
X463782Y239518D01*
X464295Y240186D01*
X464618Y240965D01*
X464728Y241800D01*
X464721Y241849D01*
X466629Y243757D01*
X471188D01*
X471218Y243718D01*
X471886Y243205D01*
X472665Y242882D01*
X473500Y242772D01*
X474335Y242882D01*
X475114Y243205D01*
X475782Y243718D01*
X476295Y244386D01*
X476618Y245165D01*
X476728Y246000D01*
X476618Y246835D01*
X476295Y247614D01*
X475782Y248282D01*
X475114Y248795D01*
X474335Y249118D01*
X473500Y249228D01*
D02*
G37*
G36*
X316650Y252550D02*
X313767D01*
X313795Y252334D01*
X314168Y251434D01*
X314761Y250661D01*
X315534Y250068D01*
X316434Y249695D01*
X316650Y249667D01*
Y252550D01*
D02*
G37*
G36*
X316557Y245389D02*
X314532D01*
Y242577D01*
X316557D01*
Y245389D01*
D02*
G37*
G36*
X344500Y241228D02*
X343665Y241118D01*
X342886Y240795D01*
X342218Y240282D01*
X341705Y239614D01*
X341382Y238835D01*
X341272Y238000D01*
X341279Y237951D01*
X336398Y233070D01*
X327168D01*
Y234389D01*
X321619D01*
Y227265D01*
X327168D01*
Y228584D01*
X337327D01*
X338185Y228754D01*
X338913Y229241D01*
X338913Y229241D01*
X338913Y229241D01*
X344451Y234779D01*
X344500Y234772D01*
X345335Y234882D01*
X346114Y235205D01*
X346782Y235718D01*
X347295Y236386D01*
X347618Y237165D01*
X347728Y238000D01*
X347618Y238835D01*
X347295Y239614D01*
X346782Y240282D01*
X346114Y240795D01*
X345335Y241118D01*
X344500Y241228D01*
D02*
G37*
G36*
X408500D02*
X407665Y241118D01*
X406886Y240795D01*
X406218Y240282D01*
X405705Y239614D01*
X405382Y238835D01*
X405272Y238000D01*
X405279Y237951D01*
X400398Y233070D01*
X391168D01*
Y234389D01*
X385619D01*
Y227265D01*
X391168D01*
Y228584D01*
X401327D01*
X402185Y228754D01*
X402913Y229241D01*
X402913Y229241D01*
X402913Y229241D01*
X408451Y234779D01*
X408500Y234772D01*
X409335Y234882D01*
X410114Y235205D01*
X410782Y235718D01*
X411295Y236386D01*
X411618Y237165D01*
X411728Y238000D01*
X411618Y238835D01*
X411295Y239614D01*
X410782Y240282D01*
X410114Y240795D01*
X409335Y241118D01*
X408500Y241228D01*
D02*
G37*
G36*
X472000D02*
X471165Y241118D01*
X470386Y240795D01*
X469718Y240282D01*
X469205Y239614D01*
X468882Y238835D01*
X468772Y238000D01*
X468779Y237951D01*
X463898Y233070D01*
X454669D01*
Y234389D01*
X449119D01*
Y227265D01*
X454669D01*
Y228584D01*
X464827D01*
X465685Y228754D01*
X466413Y229241D01*
X466413Y229241D01*
X466413Y229241D01*
X471951Y234779D01*
X472000Y234772D01*
X472835Y234882D01*
X473614Y235205D01*
X474282Y235718D01*
X474795Y236386D01*
X475118Y237165D01*
X475228Y238000D01*
X475118Y238835D01*
X474795Y239614D01*
X474282Y240282D01*
X473614Y240795D01*
X472835Y241118D01*
X472000Y241228D01*
D02*
G37*
G36*
X384082Y234389D02*
X382057D01*
Y231577D01*
X384082D01*
Y234389D01*
D02*
G37*
G36*
X444057D02*
X442032D01*
Y231577D01*
X444057D01*
Y234389D01*
D02*
G37*
G36*
X447582D02*
X445557D01*
Y231577D01*
X447582D01*
Y234389D01*
D02*
G37*
G36*
X384082Y241077D02*
X382057D01*
Y238265D01*
X384082D01*
Y241077D01*
D02*
G37*
G36*
X444057D02*
X442032D01*
Y238265D01*
X444057D01*
Y241077D01*
D02*
G37*
G36*
X447582D02*
X445557D01*
Y238265D01*
X447582D01*
Y241077D01*
D02*
G37*
G36*
X316557D02*
X314532D01*
Y238265D01*
X316557D01*
Y241077D01*
D02*
G37*
G36*
X320082D02*
X318057D01*
Y238265D01*
X320082D01*
Y241077D01*
D02*
G37*
G36*
X380557D02*
X378532D01*
Y238265D01*
X380557D01*
Y241077D01*
D02*
G37*
G36*
X444150Y252550D02*
X441267D01*
X441295Y252334D01*
X441668Y251434D01*
X442261Y250661D01*
X443034Y250068D01*
X443934Y249695D01*
X444150Y249667D01*
Y252550D01*
D02*
G37*
G36*
X411389Y263243D02*
X408183D01*
Y259250D01*
X411389D01*
Y263243D01*
D02*
G37*
G36*
X470183D02*
X466977D01*
Y259250D01*
X470183D01*
Y263243D01*
D02*
G37*
G36*
X474889D02*
X471683D01*
Y259250D01*
X474889D01*
Y263243D01*
D02*
G37*
G36*
X342683D02*
X339477D01*
Y259250D01*
X342683D01*
Y263243D01*
D02*
G37*
G36*
X347389D02*
X344183D01*
Y259250D01*
X347389D01*
Y263243D01*
D02*
G37*
G36*
X406683D02*
X403477D01*
Y259250D01*
X406683D01*
Y263243D01*
D02*
G37*
G36*
X426000Y283181D02*
X424659Y283005D01*
X423409Y282487D01*
X422336Y281664D01*
X421513Y280591D01*
X421250Y279956D01*
X420750D01*
X420487Y280591D01*
X419664Y281664D01*
X418591Y282487D01*
X417341Y283005D01*
X416750Y283083D01*
Y272917D01*
X417341Y272995D01*
X418591Y273513D01*
X419664Y274336D01*
X420487Y275409D01*
X420750Y276044D01*
X421250D01*
X421513Y275409D01*
X422336Y274336D01*
X423409Y273513D01*
X423502Y273474D01*
Y263535D01*
X423211Y263243D01*
X418044D01*
Y253757D01*
X425956D01*
Y258923D01*
X427766Y260734D01*
X428308Y261544D01*
X428339Y261703D01*
X428498Y262500D01*
Y273474D01*
X428591Y273513D01*
X429664Y274336D01*
X430487Y275409D01*
X431005Y276659D01*
X431181Y278000D01*
X431005Y279341D01*
X430487Y280591D01*
X429664Y281664D01*
X428591Y282487D01*
X427341Y283005D01*
X426000Y283181D01*
D02*
G37*
G36*
X469500D02*
X468159Y283005D01*
X466909Y282487D01*
X465836Y281664D01*
X465013Y280591D01*
X464750Y279956D01*
X464250D01*
X463987Y280591D01*
X463164Y281664D01*
X462091Y282487D01*
X460841Y283005D01*
X459500Y283181D01*
X458159Y283005D01*
X456909Y282487D01*
X455836Y281664D01*
X455013Y280591D01*
X454750Y279956D01*
X454250D01*
X453987Y280591D01*
X453164Y281664D01*
X452091Y282487D01*
X450841Y283005D01*
X449500Y283181D01*
X448159Y283005D01*
X446909Y282487D01*
X445836Y281664D01*
X445013Y280591D01*
X444495Y279341D01*
X444319Y278000D01*
X444495Y276659D01*
X445013Y275409D01*
X445836Y274336D01*
X446909Y273513D01*
X448159Y272995D01*
X449500Y272819D01*
X450841Y272995D01*
X452091Y273513D01*
X453164Y274336D01*
X453987Y275409D01*
X454250Y276044D01*
X454750D01*
X455013Y275409D01*
X455836Y274336D01*
X456909Y273513D01*
X458159Y272995D01*
X459500Y272819D01*
X460841Y272995D01*
X462091Y273513D01*
X463164Y274336D01*
X463987Y275409D01*
X464250Y276044D01*
X464750D01*
X465013Y275409D01*
X465836Y274336D01*
X466909Y273513D01*
X468159Y272995D01*
X469500Y272819D01*
X470841Y272995D01*
X472091Y273513D01*
X473164Y274336D01*
X473987Y275409D01*
X474250Y276044D01*
X474750D01*
X475013Y275409D01*
X475836Y274336D01*
X476909Y273513D01*
X478159Y272995D01*
X478750Y272917D01*
Y283083D01*
X478159Y283005D01*
X476909Y282487D01*
X475836Y281664D01*
X475013Y280591D01*
X474750Y279956D01*
X474250D01*
X473987Y280591D01*
X473164Y281664D01*
X472091Y282487D01*
X470841Y283005D01*
X469500Y283181D01*
D02*
G37*
G36*
X489500D02*
X488159Y283005D01*
X486909Y282487D01*
X485836Y281664D01*
X485013Y280591D01*
X484750Y279956D01*
X484250D01*
X483987Y280591D01*
X483164Y281664D01*
X482091Y282487D01*
X480841Y283005D01*
X480250Y283083D01*
Y272917D01*
X480841Y272995D01*
X482091Y273513D01*
X483164Y274336D01*
X483987Y275409D01*
X484250Y276044D01*
X484750D01*
X485013Y275409D01*
X485836Y274336D01*
X486909Y273513D01*
X487002Y273474D01*
Y263535D01*
X486711Y263243D01*
X481544D01*
Y253757D01*
X489456D01*
Y258923D01*
X491266Y260734D01*
X491808Y261544D01*
X491839Y261703D01*
X491998Y262500D01*
Y273474D01*
X492091Y273513D01*
X493164Y274336D01*
X493987Y275409D01*
X494505Y276659D01*
X494681Y278000D01*
X494505Y279341D01*
X493987Y280591D01*
X493164Y281664D01*
X492091Y282487D01*
X490841Y283005D01*
X489500Y283181D01*
D02*
G37*
G36*
X342000D02*
X340659Y283005D01*
X339409Y282487D01*
X338336Y281664D01*
X337513Y280591D01*
X337250Y279956D01*
X336750D01*
X336487Y280591D01*
X335664Y281664D01*
X334591Y282487D01*
X333341Y283005D01*
X332000Y283181D01*
X330659Y283005D01*
X329409Y282487D01*
X328336Y281664D01*
X327513Y280591D01*
X327250Y279956D01*
X326750D01*
X326487Y280591D01*
X325664Y281664D01*
X324591Y282487D01*
X323341Y283005D01*
X322000Y283181D01*
X320659Y283005D01*
X319409Y282487D01*
X318336Y281664D01*
X317513Y280591D01*
X316995Y279341D01*
X316819Y278000D01*
X316995Y276659D01*
X317513Y275409D01*
X318336Y274336D01*
X319409Y273513D01*
X320659Y272995D01*
X322000Y272819D01*
X323341Y272995D01*
X324591Y273513D01*
X325664Y274336D01*
X326487Y275409D01*
X326750Y276044D01*
X327250D01*
X327513Y275409D01*
X328336Y274336D01*
X329409Y273513D01*
X330659Y272995D01*
X332000Y272819D01*
X333341Y272995D01*
X334591Y273513D01*
X335664Y274336D01*
X336487Y275409D01*
X336750Y276044D01*
X337250D01*
X337513Y275409D01*
X338336Y274336D01*
X339409Y273513D01*
X340659Y272995D01*
X342000Y272819D01*
X343341Y272995D01*
X344591Y273513D01*
X345664Y274336D01*
X346487Y275409D01*
X346750Y276044D01*
X347250D01*
X347513Y275409D01*
X348336Y274336D01*
X349409Y273513D01*
X350659Y272995D01*
X351250Y272917D01*
Y283083D01*
X350659Y283005D01*
X349409Y282487D01*
X348336Y281664D01*
X347513Y280591D01*
X347250Y279956D01*
X346750D01*
X346487Y280591D01*
X345664Y281664D01*
X344591Y282487D01*
X343341Y283005D01*
X342000Y283181D01*
D02*
G37*
G36*
X362000D02*
X360659Y283005D01*
X359409Y282487D01*
X358336Y281664D01*
X357513Y280591D01*
X357250Y279956D01*
X356750D01*
X356487Y280591D01*
X355664Y281664D01*
X354591Y282487D01*
X353341Y283005D01*
X352750Y283083D01*
Y272917D01*
X353341Y272995D01*
X354591Y273513D01*
X355664Y274336D01*
X356487Y275409D01*
X356750Y276044D01*
X357250D01*
X357513Y275409D01*
X358336Y274336D01*
X359409Y273513D01*
X359502Y273474D01*
Y263535D01*
X359211Y263243D01*
X354044D01*
Y253757D01*
X361956D01*
Y258923D01*
X363766Y260734D01*
X364308Y261544D01*
X364339Y261703D01*
X364498Y262500D01*
Y273474D01*
X364591Y273513D01*
X365664Y274336D01*
X366487Y275409D01*
X367005Y276659D01*
X367181Y278000D01*
X367005Y279341D01*
X366487Y280591D01*
X365664Y281664D01*
X364591Y282487D01*
X363341Y283005D01*
X362000Y283181D01*
D02*
G37*
G36*
X406000D02*
X404659Y283005D01*
X403409Y282487D01*
X402336Y281664D01*
X401513Y280591D01*
X401250Y279956D01*
X400750D01*
X400487Y280591D01*
X399664Y281664D01*
X398591Y282487D01*
X397341Y283005D01*
X396000Y283181D01*
X394659Y283005D01*
X393409Y282487D01*
X392336Y281664D01*
X391513Y280591D01*
X391250Y279956D01*
X390750D01*
X390487Y280591D01*
X389664Y281664D01*
X388591Y282487D01*
X387341Y283005D01*
X386000Y283181D01*
X384659Y283005D01*
X383409Y282487D01*
X382336Y281664D01*
X381513Y280591D01*
X380995Y279341D01*
X380819Y278000D01*
X380995Y276659D01*
X381513Y275409D01*
X382336Y274336D01*
X383409Y273513D01*
X384659Y272995D01*
X386000Y272819D01*
X387341Y272995D01*
X388591Y273513D01*
X389664Y274336D01*
X390487Y275409D01*
X390750Y276044D01*
X391250D01*
X391513Y275409D01*
X392336Y274336D01*
X393409Y273513D01*
X394659Y272995D01*
X396000Y272819D01*
X397341Y272995D01*
X398591Y273513D01*
X399664Y274336D01*
X400487Y275409D01*
X400750Y276044D01*
X401250D01*
X401513Y275409D01*
X402336Y274336D01*
X403409Y273513D01*
X404659Y272995D01*
X406000Y272819D01*
X407341Y272995D01*
X408591Y273513D01*
X409664Y274336D01*
X410487Y275409D01*
X410750Y276044D01*
X411250D01*
X411513Y275409D01*
X412336Y274336D01*
X413409Y273513D01*
X414659Y272995D01*
X415250Y272917D01*
Y283083D01*
X414659Y283005D01*
X413409Y282487D01*
X412336Y281664D01*
X411513Y280591D01*
X411250Y279956D01*
X410750D01*
X410487Y280591D01*
X409664Y281664D01*
X408591Y282487D01*
X407341Y283005D01*
X406000Y283181D01*
D02*
G37*
G36*
X445650Y256933D02*
Y254050D01*
X448533D01*
X448505Y254266D01*
X448132Y255166D01*
X447539Y255939D01*
X446766Y256532D01*
X445866Y256905D01*
X445650Y256933D01*
D02*
G37*
G36*
X406683Y257750D02*
X403477D01*
Y253757D01*
X406683D01*
Y257750D01*
D02*
G37*
G36*
X411389D02*
X408183D01*
Y253757D01*
X411389D01*
Y257750D01*
D02*
G37*
G36*
X470183D02*
X466977D01*
Y253757D01*
X470183D01*
Y257750D01*
D02*
G37*
G36*
X448533Y252550D02*
X445650D01*
Y249667D01*
X445866Y249695D01*
X446766Y250068D01*
X447539Y250661D01*
X448132Y251434D01*
X448505Y252334D01*
X448533Y252550D01*
D02*
G37*
G36*
X342683Y257750D02*
X339477D01*
Y253757D01*
X342683D01*
Y257750D01*
D02*
G37*
G36*
X347389D02*
X344183D01*
Y253757D01*
X347389D01*
Y257750D01*
D02*
G37*
G36*
X380650Y256933D02*
X380434Y256905D01*
X379534Y256532D01*
X378761Y255939D01*
X378168Y255166D01*
X377795Y254266D01*
X377767Y254050D01*
X380650D01*
Y256933D01*
D02*
G37*
G36*
X382150D02*
Y254050D01*
X385033D01*
X385005Y254266D01*
X384632Y255166D01*
X384039Y255939D01*
X383266Y256532D01*
X382366Y256905D01*
X382150Y256933D01*
D02*
G37*
G36*
X444150D02*
X443934Y256905D01*
X443034Y256532D01*
X442261Y255939D01*
X441668Y255166D01*
X441295Y254266D01*
X441267Y254050D01*
X444150D01*
Y256933D01*
D02*
G37*
G36*
X474889Y257750D02*
X471683D01*
Y253757D01*
X474889D01*
Y257750D01*
D02*
G37*
G36*
X316650Y256933D02*
X316434Y256905D01*
X315534Y256532D01*
X314761Y255939D01*
X314168Y255166D01*
X313795Y254266D01*
X313767Y254050D01*
X316650D01*
Y256933D01*
D02*
G37*
G36*
X318150D02*
Y254050D01*
X321033D01*
X321005Y254266D01*
X320632Y255166D01*
X320039Y255939D01*
X319266Y256532D01*
X318366Y256905D01*
X318150Y256933D01*
D02*
G37*
G36*
X426389Y171743D02*
X423183D01*
Y167750D01*
X426389D01*
Y171743D01*
D02*
G37*
G36*
X150000Y191681D02*
X148659Y191505D01*
X147409Y190987D01*
X146336Y190164D01*
X145513Y189091D01*
X145250Y188456D01*
X144750D01*
X144487Y189091D01*
X143664Y190164D01*
X142591Y190987D01*
X141341Y191505D01*
X140000Y191681D01*
X138659Y191505D01*
X137409Y190987D01*
X136336Y190164D01*
X135513Y189091D01*
X135250Y188456D01*
X134750D01*
X134487Y189091D01*
X133664Y190164D01*
X132591Y190987D01*
X131341Y191505D01*
X130000Y191681D01*
X128659Y191505D01*
X127409Y190987D01*
X126336Y190164D01*
X125513Y189091D01*
X124995Y187841D01*
X124819Y186500D01*
X124995Y185159D01*
X125513Y183909D01*
X126336Y182836D01*
X127409Y182013D01*
X128659Y181495D01*
X130000Y181319D01*
X131341Y181495D01*
X132591Y182013D01*
X133664Y182836D01*
X134487Y183909D01*
X134750Y184544D01*
X135250D01*
X135513Y183909D01*
X136336Y182836D01*
X137409Y182013D01*
X138659Y181495D01*
X140000Y181319D01*
X141341Y181495D01*
X142591Y182013D01*
X143664Y182836D01*
X144487Y183909D01*
X144750Y184544D01*
X145250D01*
X145513Y183909D01*
X146336Y182836D01*
X147409Y182013D01*
X148659Y181495D01*
X150000Y181319D01*
X151341Y181495D01*
X152591Y182013D01*
X153664Y182836D01*
X154487Y183909D01*
X154750Y184544D01*
X155250D01*
X155513Y183909D01*
X156336Y182836D01*
X157409Y182013D01*
X158659Y181495D01*
X159250Y181417D01*
Y191583D01*
X158659Y191505D01*
X157409Y190987D01*
X156336Y190164D01*
X155513Y189091D01*
X155250Y188456D01*
X154750D01*
X154487Y189091D01*
X153664Y190164D01*
X152591Y190987D01*
X151341Y191505D01*
X150000Y191681D01*
D02*
G37*
G36*
X170000D02*
X168659Y191505D01*
X167409Y190987D01*
X166336Y190164D01*
X165513Y189091D01*
X165250Y188456D01*
X164750D01*
X164487Y189091D01*
X163664Y190164D01*
X162591Y190987D01*
X161341Y191505D01*
X160750Y191583D01*
Y181417D01*
X161341Y181495D01*
X162591Y182013D01*
X163664Y182836D01*
X164487Y183909D01*
X164750Y184544D01*
X165250D01*
X165513Y183909D01*
X166336Y182836D01*
X167409Y182013D01*
X167502Y181974D01*
Y172035D01*
X167211Y171743D01*
X162044D01*
Y162257D01*
X169956D01*
Y167423D01*
X171766Y169234D01*
X172308Y170044D01*
X172339Y170203D01*
X172498Y171000D01*
Y181974D01*
X172591Y182013D01*
X173664Y182836D01*
X174487Y183909D01*
X175005Y185159D01*
X175181Y186500D01*
X175005Y187841D01*
X174487Y189091D01*
X173664Y190164D01*
X172591Y190987D01*
X171341Y191505D01*
X170000Y191681D01*
D02*
G37*
G36*
X354683Y171743D02*
X351477D01*
Y167750D01*
X354683D01*
Y171743D01*
D02*
G37*
G36*
X359389D02*
X356183D01*
Y167750D01*
X359389D01*
Y171743D01*
D02*
G37*
G36*
X421683D02*
X418477D01*
Y167750D01*
X421683D01*
Y171743D01*
D02*
G37*
G36*
X306000Y191681D02*
X304659Y191505D01*
X303409Y190987D01*
X302336Y190164D01*
X301513Y189091D01*
X301250Y188456D01*
X300750D01*
X300487Y189091D01*
X299664Y190164D01*
X298591Y190987D01*
X297341Y191505D01*
X296750Y191583D01*
Y181417D01*
X297341Y181495D01*
X298591Y182013D01*
X299664Y182836D01*
X300487Y183909D01*
X300750Y184544D01*
X301250D01*
X301513Y183909D01*
X302336Y182836D01*
X303409Y182013D01*
X303502Y181974D01*
Y172035D01*
X303211Y171743D01*
X298044D01*
Y162257D01*
X305956D01*
Y167423D01*
X307766Y169234D01*
X308308Y170044D01*
X308339Y170203D01*
X308498Y171000D01*
Y181974D01*
X308591Y182013D01*
X309664Y182836D01*
X310487Y183909D01*
X311005Y185159D01*
X311181Y186500D01*
X311005Y187841D01*
X310487Y189091D01*
X309664Y190164D01*
X308591Y190987D01*
X307341Y191505D01*
X306000Y191681D01*
D02*
G37*
G36*
X354000D02*
X352659Y191505D01*
X351409Y190987D01*
X350336Y190164D01*
X349513Y189091D01*
X349250Y188456D01*
X348750D01*
X348487Y189091D01*
X347664Y190164D01*
X346591Y190987D01*
X345341Y191505D01*
X344000Y191681D01*
X342659Y191505D01*
X341409Y190987D01*
X340336Y190164D01*
X339513Y189091D01*
X339250Y188456D01*
X338750D01*
X338487Y189091D01*
X337664Y190164D01*
X336591Y190987D01*
X335341Y191505D01*
X334000Y191681D01*
X332659Y191505D01*
X331409Y190987D01*
X330336Y190164D01*
X329513Y189091D01*
X328995Y187841D01*
X328819Y186500D01*
X328995Y185159D01*
X329513Y183909D01*
X330336Y182836D01*
X331409Y182013D01*
X332659Y181495D01*
X334000Y181319D01*
X335341Y181495D01*
X336591Y182013D01*
X337664Y182836D01*
X338487Y183909D01*
X338750Y184544D01*
X339250D01*
X339513Y183909D01*
X340336Y182836D01*
X341409Y182013D01*
X342659Y181495D01*
X344000Y181319D01*
X345341Y181495D01*
X346591Y182013D01*
X347664Y182836D01*
X348487Y183909D01*
X348750Y184544D01*
X349250D01*
X349513Y183909D01*
X350336Y182836D01*
X351409Y182013D01*
X352659Y181495D01*
X354000Y181319D01*
X355341Y181495D01*
X356591Y182013D01*
X357664Y182836D01*
X358487Y183909D01*
X358750Y184544D01*
X359250D01*
X359513Y183909D01*
X360336Y182836D01*
X361409Y182013D01*
X362659Y181495D01*
X363250Y181417D01*
Y191583D01*
X362659Y191505D01*
X361409Y190987D01*
X360336Y190164D01*
X359513Y189091D01*
X359250Y188456D01*
X358750D01*
X358487Y189091D01*
X357664Y190164D01*
X356591Y190987D01*
X355341Y191505D01*
X354000Y191681D01*
D02*
G37*
G36*
X374000D02*
X372659Y191505D01*
X371409Y190987D01*
X370336Y190164D01*
X369513Y189091D01*
X369250Y188456D01*
X368750D01*
X368487Y189091D01*
X367664Y190164D01*
X366591Y190987D01*
X365341Y191505D01*
X364750Y191583D01*
Y181417D01*
X365341Y181495D01*
X366591Y182013D01*
X367664Y182836D01*
X368487Y183909D01*
X368750Y184544D01*
X369250D01*
X369513Y183909D01*
X370336Y182836D01*
X371409Y182013D01*
X371502Y181974D01*
Y172035D01*
X371211Y171743D01*
X366044D01*
Y162257D01*
X373956D01*
Y167423D01*
X375766Y169234D01*
X376308Y170044D01*
X376339Y170203D01*
X376498Y171000D01*
Y181974D01*
X376591Y182013D01*
X377664Y182836D01*
X378487Y183909D01*
X379005Y185159D01*
X379181Y186500D01*
X379005Y187841D01*
X378487Y189091D01*
X377664Y190164D01*
X376591Y190987D01*
X375341Y191505D01*
X374000Y191681D01*
D02*
G37*
G36*
X218000D02*
X216659Y191505D01*
X215409Y190987D01*
X214336Y190164D01*
X213513Y189091D01*
X213250Y188456D01*
X212750D01*
X212487Y189091D01*
X211664Y190164D01*
X210591Y190987D01*
X209341Y191505D01*
X208000Y191681D01*
X206659Y191505D01*
X205409Y190987D01*
X204336Y190164D01*
X203513Y189091D01*
X203250Y188456D01*
X202750D01*
X202487Y189091D01*
X201664Y190164D01*
X200591Y190987D01*
X199341Y191505D01*
X198000Y191681D01*
X196659Y191505D01*
X195409Y190987D01*
X194336Y190164D01*
X193513Y189091D01*
X192995Y187841D01*
X192819Y186500D01*
X192995Y185159D01*
X193513Y183909D01*
X194336Y182836D01*
X195409Y182013D01*
X196659Y181495D01*
X198000Y181319D01*
X199341Y181495D01*
X200591Y182013D01*
X201664Y182836D01*
X202487Y183909D01*
X202750Y184544D01*
X203250D01*
X203513Y183909D01*
X204336Y182836D01*
X205409Y182013D01*
X206659Y181495D01*
X208000Y181319D01*
X209341Y181495D01*
X210591Y182013D01*
X211664Y182836D01*
X212487Y183909D01*
X212750Y184544D01*
X213250D01*
X213513Y183909D01*
X214336Y182836D01*
X215409Y182013D01*
X216659Y181495D01*
X218000Y181319D01*
X219341Y181495D01*
X220591Y182013D01*
X221664Y182836D01*
X222487Y183909D01*
X222750Y184544D01*
X223250D01*
X223513Y183909D01*
X224336Y182836D01*
X225409Y182013D01*
X226659Y181495D01*
X227250Y181417D01*
Y191583D01*
X226659Y191505D01*
X225409Y190987D01*
X224336Y190164D01*
X223513Y189091D01*
X223250Y188456D01*
X222750D01*
X222487Y189091D01*
X221664Y190164D01*
X220591Y190987D01*
X219341Y191505D01*
X218000Y191681D01*
D02*
G37*
G36*
X238000D02*
X236659Y191505D01*
X235409Y190987D01*
X234336Y190164D01*
X233513Y189091D01*
X233250Y188456D01*
X232750D01*
X232487Y189091D01*
X231664Y190164D01*
X230591Y190987D01*
X229341Y191505D01*
X228750Y191583D01*
Y181417D01*
X229341Y181495D01*
X230591Y182013D01*
X231664Y182836D01*
X232487Y183909D01*
X232750Y184544D01*
X233250D01*
X233513Y183909D01*
X234336Y182836D01*
X235409Y182013D01*
X235502Y181974D01*
Y172035D01*
X235211Y171743D01*
X230044D01*
Y162257D01*
X237956D01*
Y167423D01*
X239766Y169234D01*
X240308Y170044D01*
X240339Y170203D01*
X240498Y171000D01*
Y181974D01*
X240591Y182013D01*
X241664Y182836D01*
X242487Y183909D01*
X243005Y185159D01*
X243181Y186500D01*
X243005Y187841D01*
X242487Y189091D01*
X241664Y190164D01*
X240591Y190987D01*
X239341Y191505D01*
X238000Y191681D01*
D02*
G37*
G36*
X286000D02*
X284659Y191505D01*
X283409Y190987D01*
X282336Y190164D01*
X281513Y189091D01*
X281250Y188456D01*
X280750D01*
X280487Y189091D01*
X279664Y190164D01*
X278591Y190987D01*
X277341Y191505D01*
X276000Y191681D01*
X274659Y191505D01*
X273409Y190987D01*
X272336Y190164D01*
X271513Y189091D01*
X271250Y188456D01*
X270750D01*
X270487Y189091D01*
X269664Y190164D01*
X268591Y190987D01*
X267341Y191505D01*
X266000Y191681D01*
X264659Y191505D01*
X263409Y190987D01*
X262336Y190164D01*
X261513Y189091D01*
X260995Y187841D01*
X260819Y186500D01*
X260995Y185159D01*
X261513Y183909D01*
X262336Y182836D01*
X263409Y182013D01*
X264659Y181495D01*
X266000Y181319D01*
X267341Y181495D01*
X268591Y182013D01*
X269664Y182836D01*
X270487Y183909D01*
X270750Y184544D01*
X271250D01*
X271513Y183909D01*
X272336Y182836D01*
X273409Y182013D01*
X274659Y181495D01*
X276000Y181319D01*
X277341Y181495D01*
X278591Y182013D01*
X279664Y182836D01*
X280487Y183909D01*
X280750Y184544D01*
X281250D01*
X281513Y183909D01*
X282336Y182836D01*
X283409Y182013D01*
X284659Y181495D01*
X286000Y181319D01*
X287341Y181495D01*
X288591Y182013D01*
X289664Y182836D01*
X290487Y183909D01*
X290750Y184544D01*
X291250D01*
X291513Y183909D01*
X292336Y182836D01*
X293409Y182013D01*
X294659Y181495D01*
X295250Y181417D01*
Y191583D01*
X294659Y191505D01*
X293409Y190987D01*
X292336Y190164D01*
X291513Y189091D01*
X291250Y188456D01*
X290750D01*
X290487Y189091D01*
X289664Y190164D01*
X288591Y190987D01*
X287341Y191505D01*
X286000Y191681D01*
D02*
G37*
G36*
X291389Y171743D02*
X288183D01*
Y167750D01*
X291389D01*
Y171743D01*
D02*
G37*
G36*
X328650Y165433D02*
X328434Y165405D01*
X327534Y165032D01*
X326761Y164439D01*
X326168Y163666D01*
X325795Y162766D01*
X325767Y162550D01*
X328650D01*
Y165433D01*
D02*
G37*
G36*
X330150D02*
Y162550D01*
X333033D01*
X333005Y162766D01*
X332632Y163666D01*
X332039Y164439D01*
X331266Y165032D01*
X330366Y165405D01*
X330150Y165433D01*
D02*
G37*
G36*
X395650D02*
X395434Y165405D01*
X394534Y165032D01*
X393761Y164439D01*
X393168Y163666D01*
X392795Y162766D01*
X392767Y162550D01*
X395650D01*
Y165433D01*
D02*
G37*
G36*
X194150D02*
Y162550D01*
X197033D01*
X197005Y162766D01*
X196632Y163666D01*
X196039Y164439D01*
X195266Y165032D01*
X194366Y165405D01*
X194150Y165433D01*
D02*
G37*
G36*
X260650D02*
X260434Y165405D01*
X259534Y165032D01*
X258761Y164439D01*
X258168Y163666D01*
X257795Y162766D01*
X257767Y162550D01*
X260650D01*
Y165433D01*
D02*
G37*
G36*
X262150D02*
Y162550D01*
X265033D01*
X265005Y162766D01*
X264632Y163666D01*
X264039Y164439D01*
X263266Y165032D01*
X262366Y165405D01*
X262150Y165433D01*
D02*
G37*
G36*
X218683Y171743D02*
X215477D01*
Y167750D01*
X218683D01*
Y171743D01*
D02*
G37*
G36*
X223389D02*
X220183D01*
Y167750D01*
X223389D01*
Y171743D01*
D02*
G37*
G36*
X286683D02*
X283477D01*
Y167750D01*
X286683D01*
Y171743D01*
D02*
G37*
G36*
X397150Y165433D02*
Y162550D01*
X400033D01*
X400005Y162766D01*
X399632Y163666D01*
X399039Y164439D01*
X398266Y165032D01*
X397366Y165405D01*
X397150Y165433D01*
D02*
G37*
G36*
X150683Y171743D02*
X147477D01*
Y167750D01*
X150683D01*
Y171743D01*
D02*
G37*
G36*
X155389D02*
X152183D01*
Y167750D01*
X155389D01*
Y171743D01*
D02*
G37*
G36*
X421000Y191681D02*
X419659Y191505D01*
X418409Y190987D01*
X417336Y190164D01*
X416513Y189091D01*
X416250Y188456D01*
X415750D01*
X415487Y189091D01*
X414664Y190164D01*
X413591Y190987D01*
X412341Y191505D01*
X411000Y191681D01*
X409659Y191505D01*
X408409Y190987D01*
X407336Y190164D01*
X406513Y189091D01*
X406250Y188456D01*
X405750D01*
X405487Y189091D01*
X404664Y190164D01*
X403591Y190987D01*
X402341Y191505D01*
X401000Y191681D01*
X399659Y191505D01*
X398409Y190987D01*
X397336Y190164D01*
X396513Y189091D01*
X395995Y187841D01*
X395819Y186500D01*
X395995Y185159D01*
X396513Y183909D01*
X397336Y182836D01*
X398409Y182013D01*
X399659Y181495D01*
X401000Y181319D01*
X402341Y181495D01*
X403591Y182013D01*
X404664Y182836D01*
X405487Y183909D01*
X405750Y184544D01*
X406250D01*
X406513Y183909D01*
X407336Y182836D01*
X408409Y182013D01*
X409659Y181495D01*
X411000Y181319D01*
X412341Y181495D01*
X413591Y182013D01*
X414664Y182836D01*
X415487Y183909D01*
X415750Y184544D01*
X416250D01*
X416513Y183909D01*
X417336Y182836D01*
X418409Y182013D01*
X419659Y181495D01*
X421000Y181319D01*
X422341Y181495D01*
X423591Y182013D01*
X424664Y182836D01*
X425487Y183909D01*
X425750Y184544D01*
X426250D01*
X426513Y183909D01*
X427336Y182836D01*
X428409Y182013D01*
X429659Y181495D01*
X430250Y181417D01*
Y191583D01*
X429659Y191505D01*
X428409Y190987D01*
X427336Y190164D01*
X426513Y189091D01*
X426250Y188456D01*
X425750D01*
X425487Y189091D01*
X424664Y190164D01*
X423591Y190987D01*
X422341Y191505D01*
X421000Y191681D01*
D02*
G37*
G36*
X316557Y230077D02*
X314532D01*
Y227265D01*
X316557D01*
Y230077D01*
D02*
G37*
G36*
X320082D02*
X318057D01*
Y227265D01*
X320082D01*
Y230077D01*
D02*
G37*
G36*
X380557D02*
X378532D01*
Y227265D01*
X380557D01*
Y230077D01*
D02*
G37*
G36*
X344500Y228728D02*
X343665Y228618D01*
X342886Y228295D01*
X342218Y227782D01*
X341705Y227114D01*
X341382Y226335D01*
X341272Y225500D01*
X341279Y225451D01*
X337898Y222070D01*
X327168D01*
Y223389D01*
X321619D01*
Y216265D01*
X327168D01*
Y217584D01*
X338827D01*
X339685Y217754D01*
X340413Y218241D01*
X340413Y218241D01*
X340413Y218241D01*
X344451Y222279D01*
X344500Y222272D01*
X345335Y222382D01*
X346114Y222705D01*
X346782Y223218D01*
X347295Y223886D01*
X347618Y224665D01*
X347728Y225500D01*
X347618Y226335D01*
X347295Y227114D01*
X346782Y227782D01*
X346114Y228295D01*
X345335Y228618D01*
X344500Y228728D01*
D02*
G37*
G36*
X408500D02*
X407665Y228618D01*
X406886Y228295D01*
X406218Y227782D01*
X405705Y227114D01*
X405382Y226335D01*
X405272Y225500D01*
X405279Y225451D01*
X401898Y222070D01*
X391168D01*
Y223389D01*
X385619D01*
Y216265D01*
X391168D01*
Y217584D01*
X402827D01*
X403685Y217754D01*
X404413Y218241D01*
X404413Y218241D01*
X404413Y218241D01*
X408451Y222279D01*
X408500Y222272D01*
X409335Y222382D01*
X410114Y222705D01*
X410782Y223218D01*
X411295Y223886D01*
X411618Y224665D01*
X411728Y225500D01*
X411618Y226335D01*
X411295Y227114D01*
X410782Y227782D01*
X410114Y228295D01*
X409335Y228618D01*
X408500Y228728D01*
D02*
G37*
G36*
X472000D02*
X471165Y228618D01*
X470386Y228295D01*
X469718Y227782D01*
X469205Y227114D01*
X468882Y226335D01*
X468772Y225500D01*
X468779Y225451D01*
X465398Y222070D01*
X454669D01*
Y223389D01*
X449119D01*
Y216265D01*
X454669D01*
Y217584D01*
X466327D01*
X467185Y217754D01*
X467913Y218241D01*
X467913Y218241D01*
X467913Y218241D01*
X471951Y222279D01*
X472000Y222272D01*
X472835Y222382D01*
X473614Y222705D01*
X474282Y223218D01*
X474795Y223886D01*
X475118Y224665D01*
X475228Y225500D01*
X475118Y226335D01*
X474795Y227114D01*
X474282Y227782D01*
X473614Y228295D01*
X472835Y228618D01*
X472000Y228728D01*
D02*
G37*
G36*
X316557Y234389D02*
X314532D01*
Y231577D01*
X316557D01*
Y234389D01*
D02*
G37*
G36*
X320082D02*
X318057D01*
Y231577D01*
X320082D01*
Y234389D01*
D02*
G37*
G36*
X380557D02*
X378532D01*
Y231577D01*
X380557D01*
Y234389D01*
D02*
G37*
G36*
X384082Y230077D02*
X382057D01*
Y227265D01*
X384082D01*
Y230077D01*
D02*
G37*
G36*
X444057D02*
X442032D01*
Y227265D01*
X444057D01*
Y230077D01*
D02*
G37*
G36*
X447582D02*
X445557D01*
Y227265D01*
X447582D01*
Y230077D01*
D02*
G37*
G36*
Y223389D02*
X445557D01*
Y220577D01*
X447582D01*
Y223389D01*
D02*
G37*
G36*
X380557Y219077D02*
X378532D01*
Y216265D01*
X380557D01*
Y219077D01*
D02*
G37*
G36*
X384082D02*
X382057D01*
Y216265D01*
X384082D01*
Y219077D01*
D02*
G37*
G36*
X444057D02*
X442032D01*
Y216265D01*
X444057D01*
Y219077D01*
D02*
G37*
G36*
X441000Y191681D02*
X439659Y191505D01*
X438409Y190987D01*
X437336Y190164D01*
X436513Y189091D01*
X436250Y188456D01*
X435750D01*
X435487Y189091D01*
X434664Y190164D01*
X433591Y190987D01*
X432341Y191505D01*
X431750Y191583D01*
Y181417D01*
X432341Y181495D01*
X433591Y182013D01*
X434664Y182836D01*
X435487Y183909D01*
X435750Y184544D01*
X436250D01*
X436513Y183909D01*
X437336Y182836D01*
X438409Y182013D01*
X438502Y181974D01*
Y172035D01*
X438211Y171743D01*
X433044D01*
Y162257D01*
X440956D01*
Y167423D01*
X442766Y169234D01*
X443308Y170044D01*
X443339Y170203D01*
X443498Y171000D01*
Y181974D01*
X443591Y182013D01*
X444664Y182836D01*
X445487Y183909D01*
X446005Y185159D01*
X446181Y186500D01*
X446005Y187841D01*
X445487Y189091D01*
X444664Y190164D01*
X443591Y190987D01*
X442341Y191505D01*
X441000Y191681D01*
D02*
G37*
G36*
X316557Y219077D02*
X314532D01*
Y216265D01*
X316557D01*
Y219077D01*
D02*
G37*
G36*
X320082D02*
X318057D01*
Y216265D01*
X320082D01*
Y219077D01*
D02*
G37*
G36*
X380557Y223389D02*
X378532D01*
Y220577D01*
X380557D01*
Y223389D01*
D02*
G37*
G36*
X384082D02*
X382057D01*
Y220577D01*
X384082D01*
Y223389D01*
D02*
G37*
G36*
X444057D02*
X442032D01*
Y220577D01*
X444057D01*
Y223389D01*
D02*
G37*
G36*
X447582Y219077D02*
X445557D01*
Y216265D01*
X447582D01*
Y219077D01*
D02*
G37*
G36*
X316557Y223389D02*
X314532D01*
Y220577D01*
X316557D01*
Y223389D01*
D02*
G37*
G36*
X320082D02*
X318057D01*
Y220577D01*
X320082D01*
Y223389D01*
D02*
G37*
%LPD*%
D16*
X221768Y384132D02*
D03*
Y375132D02*
D03*
Y234132D02*
D03*
Y225132D02*
D03*
X466868Y387768D02*
D03*
Y378768D02*
D03*
X464868Y437268D02*
D03*
Y428268D02*
D03*
X476868Y427768D02*
D03*
Y436768D02*
D03*
X476900Y452100D02*
D03*
Y461100D02*
D03*
X464868Y454768D02*
D03*
Y445768D02*
D03*
X404000Y433100D02*
D03*
Y424100D02*
D03*
D17*
X196768Y391132D02*
D03*
X187768D02*
D03*
X246268Y393132D02*
D03*
X237268D02*
D03*
X236768Y381132D02*
D03*
X245768D02*
D03*
X261100Y381100D02*
D03*
X270100D02*
D03*
X263768Y393132D02*
D03*
X254768D02*
D03*
X242100Y454000D02*
D03*
X233100D02*
D03*
X242100Y304000D02*
D03*
X233100D02*
D03*
X263768Y243132D02*
D03*
X254768D02*
D03*
X261100Y231100D02*
D03*
X270100D02*
D03*
X236768Y231132D02*
D03*
X245768D02*
D03*
X246268Y243132D02*
D03*
X237268D02*
D03*
X196768Y241132D02*
D03*
X187768D02*
D03*
X473868Y412768D02*
D03*
X482868D02*
D03*
D22*
X211768Y393132D02*
D03*
X226335D02*
D03*
X211768Y243132D02*
D03*
X226335D02*
D03*
X166000Y167000D02*
D03*
X151433D02*
D03*
X234000D02*
D03*
X219433D02*
D03*
X370000D02*
D03*
X355433D02*
D03*
X302000D02*
D03*
X287433D02*
D03*
X437000D02*
D03*
X422433D02*
D03*
X485500Y258500D02*
D03*
X470933D02*
D03*
X358000D02*
D03*
X343433D02*
D03*
X422000D02*
D03*
X407433D02*
D03*
D23*
X184100Y375100D02*
D03*
X204100D02*
D03*
X184100Y225100D02*
D03*
X204100D02*
D03*
D31*
X482900Y375100D02*
D03*
Y395100D02*
D03*
D35*
X464868Y402768D02*
D03*
Y417335D02*
D03*
D37*
X173400Y399500D02*
Y409265D01*
X181218Y473887D02*
Y483182D01*
X178000Y486400D02*
X181218Y483182D01*
X266100Y427100D02*
Y441200D01*
X210100Y452000D02*
X220500Y462400D01*
X241900Y454000D02*
X255100D01*
X226335Y393132D02*
X237268D01*
X135400Y486400D02*
X178000D01*
X141848Y473887D02*
Y485648D01*
X246268Y393132D02*
X254768D01*
X265800Y402600D02*
Y412627D01*
X216828Y479069D02*
Y489817D01*
Y329068D02*
Y339816D01*
X265800Y252600D02*
Y262627D01*
X246268Y243132D02*
X254768D01*
X141848Y323887D02*
Y335648D01*
X135400Y336400D02*
X178000D01*
X226335Y243132D02*
X237268D01*
X241900Y304000D02*
X255100D01*
X210100Y302000D02*
X220500Y312400D01*
X266100Y277100D02*
Y291200D01*
X178000Y336400D02*
X181218Y333182D01*
Y323887D02*
Y333182D01*
X173400Y249500D02*
Y259265D01*
X448735Y364400D02*
X458500D01*
X374818Y372218D02*
X384113D01*
X371600Y369000D02*
X374818Y372218D01*
X416800Y457100D02*
X430900D01*
X395600Y411500D02*
X406000Y401100D01*
X404000Y432900D02*
Y446100D01*
X464868Y417335D02*
Y428268D01*
X371600Y326400D02*
Y369000D01*
X372352Y332848D02*
X384113D01*
X464868Y437268D02*
Y445768D01*
X445373Y456800D02*
X455400D01*
X368183Y407828D02*
X378931D01*
X170000Y171000D02*
Y186500D01*
X166000Y167000D02*
X170000Y171000D01*
X234000Y167000D02*
X238000Y171000D01*
Y186500D01*
X374000Y171000D02*
Y186500D01*
X370000Y167000D02*
X374000Y171000D01*
X302000Y167000D02*
X306000Y171000D01*
Y186500D01*
X437000Y167000D02*
X441000Y171000D01*
Y186500D01*
X489500Y262500D02*
Y278000D01*
X485500Y258500D02*
X489500Y262500D01*
X362000D02*
Y278000D01*
X358000Y258500D02*
X362000Y262500D01*
X422000Y258500D02*
X426000Y262500D01*
Y278000D01*
D38*
X241768Y386232D02*
Y397132D01*
X237968Y400932D02*
X241768Y397132D01*
X207632Y400932D02*
X237968D01*
X239100Y405600D02*
X246268Y398432D01*
Y393132D02*
Y398432D01*
X205300Y398600D02*
X207632Y400932D01*
X173344Y409320D02*
X173400Y409265D01*
X164100Y387100D02*
Y394000D01*
X157596Y400504D02*
X164100Y394000D01*
X157596Y400504D02*
Y409320D01*
X164100Y394100D02*
X178400D01*
X181368Y391132D01*
X169300Y418900D02*
Y419000D01*
X152000Y418900D02*
X169300D01*
X181368Y391132D02*
X187768D01*
X204100Y375100D02*
Y389200D01*
X202168Y391132D02*
X204100Y389200D01*
X196768Y391132D02*
X202168D01*
X214700Y384000D02*
X221636D01*
X263768Y391932D02*
Y393132D01*
X229100Y413100D02*
Y420500D01*
X241768Y386232D02*
X245168Y382832D01*
X223768Y375132D02*
X229800Y369100D01*
X133974Y397226D02*
Y409320D01*
X221300Y416700D02*
Y430000D01*
X224900Y433600D01*
X229100D01*
X161000Y445200D02*
Y452900D01*
X157596Y456304D02*
X161000Y452900D01*
X244100Y433600D02*
Y445000D01*
X234100Y400932D02*
Y413100D01*
X244100Y409800D02*
X253300Y400600D01*
X244100Y409800D02*
Y413100D01*
X235500Y445000D02*
X239100Y441400D01*
Y433600D02*
Y441400D01*
X173300Y473843D02*
X173344Y473887D01*
X173300Y462600D02*
Y473843D01*
X141848Y409320D02*
X142000Y409168D01*
Y401000D02*
Y409168D01*
X165470Y458930D02*
Y473887D01*
Y458930D02*
X168000Y456400D01*
Y445100D02*
Y456400D01*
X157596Y456304D02*
Y473887D01*
X149722Y464022D02*
Y473887D01*
X147300Y461600D02*
X149722Y464022D01*
X122100Y461600D02*
X147300D01*
X126100Y465600D02*
Y473887D01*
X122100Y461600D02*
X126100Y465600D01*
Y396700D02*
Y409320D01*
X140100Y399100D02*
X142000Y401000D01*
X126100Y396700D02*
X135700Y387100D01*
X149722Y409320D02*
Y416622D01*
X152000Y418900D01*
X133974Y397226D02*
X137500Y393700D01*
X147500D01*
X154100Y387100D01*
X135700D02*
X144100D01*
X229800Y369100D02*
X236100D01*
X253300Y400600D02*
X257500D01*
X263100Y395000D01*
X229100Y420500D02*
X231500Y422900D01*
X245500D01*
X265800Y402600D01*
X263768Y387732D02*
X265600Y385900D01*
X263768Y387732D02*
Y393132D01*
X239100Y405600D02*
Y413100D01*
X256700Y420700D02*
X270500D01*
X276100Y415100D01*
X288100D01*
X265800Y402600D02*
X270100Y398300D01*
Y381100D02*
Y398300D01*
X265600Y376900D02*
Y385900D01*
Y376900D02*
X273432Y369068D01*
X296032D01*
X223700Y454000D02*
X233100D01*
X242100Y447000D02*
X244100Y445000D01*
X242100Y447000D02*
Y454000D01*
Y297000D02*
Y304000D01*
Y297000D02*
X244100Y295000D01*
X223700Y304000D02*
X233100D01*
X273432Y219068D02*
X296032D01*
X265600Y226900D02*
X273432Y219068D01*
X265600Y226900D02*
Y235900D01*
X270100Y231100D02*
Y248300D01*
X265800Y252600D02*
X270100Y248300D01*
X276100Y265100D02*
X288100D01*
X270500Y270700D02*
X276100Y265100D01*
X256700Y270700D02*
X270500D01*
X239100Y255600D02*
Y263100D01*
X263768Y237732D02*
Y243132D01*
Y237732D02*
X265600Y235900D01*
X245500Y272900D02*
X265800Y252600D01*
X231500Y272900D02*
X245500D01*
X229100Y270500D02*
X231500Y272900D01*
X257500Y250600D02*
X263100Y245000D01*
X253300Y250600D02*
X257500D01*
X229800Y219100D02*
X236100D01*
X135700Y237100D02*
X144100D01*
X147500Y243700D02*
X154100Y237100D01*
X137500Y243700D02*
X147500D01*
X133974Y247226D02*
X137500Y243700D01*
X149722Y266622D02*
X152000Y268900D01*
X149722Y259320D02*
Y266622D01*
X126100Y246700D02*
X135700Y237100D01*
X140100Y249100D02*
X142000Y251000D01*
X126100Y246700D02*
Y259320D01*
X122100Y311600D02*
X126100Y315600D01*
Y323887D01*
X122100Y311600D02*
X147300D01*
X149722Y314022D01*
Y323887D01*
X157596Y306304D02*
Y323887D01*
X168000Y295100D02*
Y306400D01*
X165470Y308930D02*
X168000Y306400D01*
X165470Y308930D02*
Y323887D01*
X142000Y251000D02*
Y259169D01*
X141848Y259320D02*
X142000Y259169D01*
X173300Y312600D02*
Y323843D01*
X173344Y323887D01*
X239100Y283600D02*
Y291400D01*
X235500Y295000D02*
X239100Y291400D01*
X244100Y259800D02*
Y263100D01*
Y259800D02*
X253300Y250600D01*
X234100Y250932D02*
Y263100D01*
X244100Y283600D02*
Y295000D01*
X157596Y306304D02*
X161000Y302900D01*
Y295200D02*
Y302900D01*
X224900Y283600D02*
X229100D01*
X221300Y280000D02*
X224900Y283600D01*
X221300Y266700D02*
Y280000D01*
X133974Y247226D02*
Y259320D01*
X223768Y225132D02*
X229800Y219100D01*
X241768Y236232D02*
X245168Y232832D01*
X229100Y263100D02*
Y270500D01*
X263768Y241932D02*
Y243132D01*
X214700Y234000D02*
X221636D01*
X196768Y241132D02*
X202168D01*
X204100Y239200D01*
Y225100D02*
Y239200D01*
X181368Y241132D02*
X187768D01*
X152000Y268900D02*
X169300D01*
Y269000D01*
X178400Y244100D02*
X181368Y241132D01*
X164100Y244100D02*
X178400D01*
X157596Y250504D02*
Y259320D01*
Y250504D02*
X164100Y244000D01*
Y237100D02*
Y244000D01*
X173344Y259320D02*
X173400Y259265D01*
X205300Y248600D02*
X207632Y250932D01*
X246268Y243132D02*
Y248432D01*
X239100Y255600D02*
X246268Y248432D01*
X207632Y250932D02*
X237968D01*
X241768Y247132D01*
Y236232D02*
Y247132D01*
X460868Y432768D02*
X471768D01*
X457068Y428968D02*
X460868Y432768D01*
X457068Y398632D02*
Y428968D01*
X452400Y430100D02*
X459568Y437268D01*
X464868D01*
X457068Y398632D02*
X459400Y396300D01*
X448679Y364344D02*
X448735Y364400D01*
X464000Y355100D02*
X470900D01*
X457496Y348596D02*
X464000Y355100D01*
X448679Y348596D02*
X457496D01*
X463900Y355100D02*
Y369400D01*
X466868Y372368D01*
X439000Y360300D02*
X439100D01*
Y343000D02*
Y360300D01*
X466868Y372368D02*
Y378768D01*
X468800Y395100D02*
X482900D01*
X466868Y393168D02*
X468800Y395100D01*
X466868Y387768D02*
Y393168D01*
X474000Y405700D02*
Y412636D01*
X464868Y454768D02*
X466068D01*
X437500Y420100D02*
X444900D01*
X471768Y432768D02*
X475168Y436168D01*
X482868Y414768D02*
X488900Y420800D01*
X448679Y324974D02*
X460774D01*
X428000Y412300D02*
X441300D01*
X424400Y415900D02*
X428000Y412300D01*
X424400Y415900D02*
Y420100D01*
X405100Y352000D02*
X412800D01*
X401696Y348596D02*
X405100Y352000D01*
X413000Y435100D02*
X424400D01*
X444900Y425100D02*
X457068D01*
X448200Y435100D02*
X457400Y444300D01*
X444900Y435100D02*
X448200D01*
X413000Y426500D02*
X416600Y430100D01*
X424400D01*
X384113Y364344D02*
X384157Y364300D01*
X395400D01*
X448679Y332848D02*
X448832Y333000D01*
X457000D01*
X384113Y356470D02*
X399070D01*
X401600Y359000D01*
X412900D01*
X384113Y348596D02*
X401696D01*
X384113Y340722D02*
X393978D01*
X396400Y338300D01*
Y313100D02*
Y338300D01*
X384113Y317100D02*
X392400D01*
X396400Y313100D01*
X448679Y317100D02*
X461300D01*
X457000Y333000D02*
X458900Y331100D01*
X461300Y317100D02*
X470900Y326700D01*
X441378Y340722D02*
X448679D01*
X439100Y343000D02*
X441378Y340722D01*
X460774Y324974D02*
X464300Y328500D01*
Y338500D01*
X470900Y345100D01*
Y326700D02*
Y335100D01*
X488900Y420800D02*
Y427100D01*
X457400Y444300D02*
Y448500D01*
X463000Y454100D01*
X435100Y422500D02*
X437500Y420100D01*
X435100Y422500D02*
Y436500D01*
X455400Y456800D01*
X470268Y454768D02*
X472100Y456600D01*
X464868Y454768D02*
X470268D01*
X444900Y430100D02*
X452400D01*
X437300Y447700D02*
Y461500D01*
X442900Y467100D01*
Y479100D01*
X455400Y456800D02*
X459700Y461100D01*
X476900D01*
X472100Y456600D02*
X481100D01*
X488932Y464432D01*
Y487032D01*
X404000Y414700D02*
Y424100D01*
X411000Y433100D02*
X413000Y435100D01*
X404000Y433100D02*
X411000D01*
X146200Y154500D02*
X154000D01*
X142000Y150300D02*
X146200Y154500D01*
X145327Y139327D02*
X152500Y146500D01*
X132394Y139327D02*
X145327D01*
X132394Y150327D02*
X132421Y150300D01*
X142000D01*
X146827Y128327D02*
X152500Y134000D01*
X132394Y128327D02*
X146827D01*
X200394D02*
X214827D01*
X220500Y134000D01*
X200420Y150300D02*
X210000D01*
X200394Y150327D02*
X200420Y150300D01*
X200394Y139327D02*
X213327D01*
X220500Y146500D01*
X210000Y150300D02*
X214200Y154500D01*
X222000D01*
X350200D02*
X358000D01*
X346000Y150300D02*
X350200Y154500D01*
X349327Y139327D02*
X356500Y146500D01*
X336394Y139327D02*
X349327D01*
X336394Y150327D02*
X336420Y150300D01*
X346000D01*
X350827Y128327D02*
X356500Y134000D01*
X336394Y128327D02*
X350827D01*
X268394D02*
X282827D01*
X288500Y134000D01*
X268421Y150300D02*
X278000D01*
X268394Y150327D02*
X268421Y150300D01*
X268394Y139327D02*
X281327D01*
X288500Y146500D01*
X278000Y150300D02*
X282200Y154500D01*
X290000D01*
X403394Y128327D02*
X417827D01*
X423500Y134000D01*
X403420Y150300D02*
X413000D01*
X403394Y150327D02*
X403420Y150300D01*
X403394Y139327D02*
X416327D01*
X423500Y146500D01*
X413000Y150300D02*
X417200Y154500D01*
X425000D01*
X465700Y246000D02*
X473500D01*
X461500Y241800D02*
X465700Y246000D01*
X464827Y230827D02*
X472000Y238000D01*
X451894Y230827D02*
X464827D01*
X451894Y241827D02*
X451921Y241800D01*
X461500D01*
X466327Y219827D02*
X472000Y225500D01*
X451894Y219827D02*
X466327D01*
X338200Y246000D02*
X346000D01*
X334000Y241800D02*
X338200Y246000D01*
X337327Y230827D02*
X344500Y238000D01*
X324394Y230827D02*
X337327D01*
X324394Y241827D02*
X324420Y241800D01*
X334000D01*
X338827Y219827D02*
X344500Y225500D01*
X324394Y219827D02*
X338827D01*
X388394D02*
X402827D01*
X408500Y225500D01*
X388421Y241800D02*
X398000D01*
X388394Y241827D02*
X388421Y241800D01*
X388394Y230827D02*
X401327D01*
X408500Y238000D01*
X398000Y241800D02*
X402200Y246000D01*
X410000D01*
D39*
X221636Y384000D02*
X221768Y384132D01*
X199600Y416600D02*
X208000D01*
X277800Y440400D02*
X300100D01*
Y387800D02*
Y440400D01*
X297400Y385100D02*
X300100Y387800D01*
X288100Y385100D02*
X297400D01*
X288100Y235100D02*
X297400D01*
X300100Y237800D01*
Y290400D01*
X277800D02*
X300100D01*
X199600Y266600D02*
X208000D01*
X221636Y234000D02*
X221768Y234132D01*
X473868Y412768D02*
X474000Y412636D01*
X441400Y390600D02*
Y399000D01*
X417600Y468800D02*
Y491100D01*
X470200D01*
X472900Y488400D01*
Y479100D02*
Y488400D01*
D40*
X214368Y375132D02*
X221768D01*
X210000Y379500D02*
X214368Y375132D01*
X210000Y379500D02*
Y391364D01*
X211768Y393132D01*
X210100Y448300D02*
Y452000D01*
X253600Y381100D02*
X261100D01*
X245800D02*
X253600D01*
X228800Y377400D02*
X230700Y375500D01*
X255700D01*
X262100Y369100D01*
X231700Y386400D02*
X236768Y381332D01*
Y381132D02*
Y381332D01*
X228800Y383500D02*
X231700Y386400D01*
X222400Y383500D02*
X228800D01*
X221768Y384132D02*
X222400Y383500D01*
X221768Y234132D02*
X222400Y233500D01*
X228800D01*
X231700Y236400D01*
X236768Y231132D02*
Y231332D01*
X231700Y236400D02*
X236768Y231332D01*
X255700Y225500D02*
X262100Y219100D01*
X230700Y225500D02*
X255700D01*
X228800Y227400D02*
X230700Y225500D01*
X245800Y231100D02*
X253600D01*
X261100D01*
X210100Y298300D02*
Y302000D01*
X210000Y241364D02*
X211768Y243132D01*
X210000Y229500D02*
Y241364D01*
Y229500D02*
X214368Y225132D01*
X221768D01*
X482868Y405368D02*
Y412768D01*
X478500Y401000D02*
X482868Y405368D01*
X466636Y401000D02*
X478500D01*
X464868Y402768D02*
X466636Y401000D01*
X406000Y401100D02*
X409700D01*
X476900Y444600D02*
Y452100D01*
Y436800D02*
Y444600D01*
X480600Y419800D02*
X482500Y421700D01*
Y446700D01*
X488900Y453100D01*
X471600Y422700D02*
X476668Y427768D01*
X476868D01*
X471600Y422700D02*
X474500Y419800D01*
Y413400D02*
Y419800D01*
X473868Y412768D02*
X474500Y413400D01*
D41*
X170700Y435600D02*
X179400Y444300D01*
X156200Y435600D02*
X170700D01*
X152200Y439600D02*
X156200Y435600D01*
X179400Y444300D02*
Y463500D01*
X181218Y465318D01*
Y473887D01*
X281968Y477200D02*
X286500D01*
X296400Y487100D01*
X250510Y481100D02*
X252410Y483000D01*
X268100D01*
X173344Y409320D02*
X181218D01*
X249900Y468500D02*
X257500Y460900D01*
X192400Y468500D02*
X249900D01*
X187013Y473887D02*
X192400Y468500D01*
X181218Y473887D02*
X187013D01*
X181218Y323887D02*
X187013D01*
X192400Y318500D01*
X249900D01*
X257500Y310900D01*
X173344Y259320D02*
X181218D01*
X252410Y333000D02*
X268100D01*
X250510Y331100D02*
X252410Y333000D01*
X286500Y327200D02*
X296400Y337100D01*
X281968Y327200D02*
X286500D01*
X181218Y315318D02*
Y323887D01*
X179400Y313500D02*
X181218Y315318D01*
X179400Y294300D02*
Y313500D01*
X152200Y289600D02*
X156200Y285600D01*
X170700D01*
X179400Y294300D01*
X413700Y370400D02*
X422400Y361700D01*
Y347200D02*
Y361700D01*
X418400Y343200D02*
X422400Y347200D01*
X394500Y370400D02*
X413700D01*
X392682Y372218D02*
X394500Y370400D01*
X384113Y372218D02*
X392682D01*
X380800Y472968D02*
Y477500D01*
X370900Y487400D02*
X380800Y477500D01*
X375000Y443409D02*
X376900Y441509D01*
X375000Y443409D02*
Y459100D01*
X448679Y364344D02*
Y372218D01*
X389500Y440900D02*
X397100Y448500D01*
X389500Y383400D02*
Y440900D01*
X384113Y378013D02*
X389500Y383400D01*
X384113Y372218D02*
Y378013D01*
D42*
X265800Y412627D02*
X266100Y412927D01*
X221768Y375132D02*
X223768D01*
X195372Y479069D02*
X196553Y477887D01*
X195372Y329068D02*
X196553Y327887D01*
X221768Y225132D02*
X223768D01*
X265800Y262627D02*
X266100Y262927D01*
X445073Y457100D02*
X445373Y456800D01*
X482868Y412768D02*
Y414768D01*
X378931Y386372D02*
X380113Y387553D01*
X125307Y150327D02*
X125400Y150420D01*
X132394Y150327D02*
X132500Y150433D01*
X200394Y150327D02*
X200500Y150433D01*
X193307Y150327D02*
X193400Y150420D01*
X329307Y150327D02*
X329400Y150420D01*
X336394Y150327D02*
X336500Y150433D01*
X268394Y150327D02*
X268500Y150433D01*
X261307Y150327D02*
X261400Y150420D01*
X403394Y150327D02*
X403500Y150433D01*
X396307Y150327D02*
X396400Y150420D01*
X444807Y241827D02*
X444900Y241920D01*
X451894Y241827D02*
X452000Y241933D01*
X317307Y241827D02*
X317400Y241920D01*
X324394Y241827D02*
X324500Y241933D01*
X388394Y241827D02*
X388500Y241933D01*
X381307Y241827D02*
X381400Y241920D01*
X110000Y110000D02*
Y504000D01*
Y110000D02*
X504000D01*
Y504000D01*
X110000D02*
X504000D01*
X308100Y362100D02*
Y498100D01*
X114100D02*
X308100D01*
X114100Y362100D02*
X308100D01*
X114100D02*
Y498100D01*
Y212100D02*
Y348100D01*
Y212100D02*
X308100D01*
X114100Y348100D02*
X308100D01*
Y212100D02*
Y348100D01*
X359900Y499100D02*
X495900D01*
X359900Y305100D02*
Y499100D01*
X495900Y305100D02*
Y499100D01*
X359900Y305100D02*
X495900D01*
X120000Y196500D02*
X180000D01*
X120000Y118500D02*
Y196500D01*
Y118500D02*
X180000D01*
Y196500D01*
X248000Y118500D02*
Y196500D01*
X188000Y118500D02*
X248000D01*
X188000D02*
Y196500D01*
X248000D01*
X324000D02*
X384000D01*
X324000Y118500D02*
Y196500D01*
Y118500D02*
X384000D01*
Y196500D01*
X316000Y118500D02*
Y196500D01*
X256000Y118500D02*
X316000D01*
X256000D02*
Y196500D01*
X316000D01*
X451000Y118500D02*
Y196500D01*
X391000Y118500D02*
X451000D01*
X391000D02*
Y196500D01*
X451000D01*
X439500Y288000D02*
X499500D01*
X439500Y210000D02*
Y288000D01*
Y210000D02*
X499500D01*
Y288000D01*
X312000D02*
X372000D01*
X312000Y210000D02*
Y288000D01*
Y210000D02*
X372000D01*
Y288000D01*
X436000Y210000D02*
Y288000D01*
X376000Y210000D02*
X436000D01*
X376000D02*
Y288000D01*
X436000D01*
D50*
X296400Y487100D02*
D03*
X125100Y373100D02*
D03*
Y223100D02*
D03*
X296400Y337100D02*
D03*
X370900Y487400D02*
D03*
X484900Y316100D02*
D03*
D51*
X195372Y489817D02*
D03*
X216828D02*
D03*
X195372Y339816D02*
D03*
X216828D02*
D03*
D52*
X215647Y477887D02*
D03*
X196553D02*
D03*
X215647Y327887D02*
D03*
X196553D02*
D03*
D53*
X300100Y440400D02*
D03*
X262100Y369100D02*
D03*
X296032Y369068D02*
D03*
X230100Y491100D02*
D03*
X300100Y455100D02*
D03*
X124100Y491100D02*
D03*
X236100Y369100D02*
D03*
X246100D02*
D03*
X174100Y387100D02*
D03*
X164100D02*
D03*
X154100D02*
D03*
X144100D02*
D03*
X288100Y425100D02*
D03*
Y385100D02*
D03*
Y395100D02*
D03*
Y405100D02*
D03*
Y415100D02*
D03*
Y275100D02*
D03*
Y235100D02*
D03*
Y245100D02*
D03*
Y255100D02*
D03*
Y265100D02*
D03*
X174100Y237100D02*
D03*
X164100D02*
D03*
X154100D02*
D03*
X144100D02*
D03*
X236100Y219100D02*
D03*
X246100D02*
D03*
X124100Y341100D02*
D03*
X300100Y305100D02*
D03*
X230100Y341100D02*
D03*
X296032Y219068D02*
D03*
X262100Y219100D02*
D03*
X300100Y290400D02*
D03*
X417600Y491100D02*
D03*
X488900Y453100D02*
D03*
X488932Y487032D02*
D03*
X366900Y421100D02*
D03*
X402900Y491100D02*
D03*
X366900Y315100D02*
D03*
X488900Y427100D02*
D03*
Y437100D02*
D03*
X470900Y365100D02*
D03*
Y355100D02*
D03*
Y345100D02*
D03*
Y335100D02*
D03*
X432900Y479100D02*
D03*
X472900D02*
D03*
X462900D02*
D03*
X452900D02*
D03*
X442900D02*
D03*
X140000Y186500D02*
D03*
X150000D02*
D03*
X160000D02*
D03*
X170000D02*
D03*
X130000D02*
D03*
X208000D02*
D03*
X218000D02*
D03*
X228000D02*
D03*
X238000D02*
D03*
X198000D02*
D03*
X344000D02*
D03*
X354000D02*
D03*
X364000D02*
D03*
X374000D02*
D03*
X334000D02*
D03*
X276000D02*
D03*
X286000D02*
D03*
X296000D02*
D03*
X306000D02*
D03*
X266000D02*
D03*
X411000D02*
D03*
X421000D02*
D03*
X431000D02*
D03*
X441000D02*
D03*
X401000D02*
D03*
X459500Y278000D02*
D03*
X469500D02*
D03*
X479500D02*
D03*
X489500D02*
D03*
X449500D02*
D03*
X332000D02*
D03*
X342000D02*
D03*
X352000D02*
D03*
X362000D02*
D03*
X322000D02*
D03*
X396000D02*
D03*
X406000D02*
D03*
X416000D02*
D03*
X426000D02*
D03*
X386000D02*
D03*
D54*
X368183Y386372D02*
D03*
Y407828D02*
D03*
D55*
X380113Y406647D02*
D03*
Y387553D02*
D03*
D56*
X173400Y399500D02*
D03*
X265800Y402600D02*
D03*
X223700Y454000D02*
D03*
X199600Y416600D02*
D03*
X268100Y483000D02*
D03*
X152200Y439600D02*
D03*
X220500Y462400D02*
D03*
X135400Y486400D02*
D03*
Y336400D02*
D03*
X220500Y312400D02*
D03*
X152200Y289600D02*
D03*
X268100Y333000D02*
D03*
X199600Y266600D02*
D03*
X223700Y304000D02*
D03*
X265800Y252600D02*
D03*
X173400Y249500D02*
D03*
X458500Y364400D02*
D03*
X455400Y456800D02*
D03*
X404000Y414700D02*
D03*
X441400Y390600D02*
D03*
X375000Y459100D02*
D03*
X418400Y343200D02*
D03*
X395600Y411500D02*
D03*
X371600Y326400D02*
D03*
X125400Y161800D02*
D03*
X193400D02*
D03*
X329400D02*
D03*
X261400D02*
D03*
X396400D02*
D03*
X444900Y253300D02*
D03*
X317400D02*
D03*
X381400D02*
D03*
D57*
X169300Y419000D02*
D03*
X205300Y398600D02*
D03*
X214700Y384000D02*
D03*
X231700Y386400D02*
D03*
X221300Y416700D02*
D03*
X161000Y445100D02*
D03*
X235500Y445000D02*
D03*
X173300Y462600D02*
D03*
X140100Y399100D02*
D03*
X168000Y445100D02*
D03*
X122100Y461600D02*
D03*
X253600Y381100D02*
D03*
X256700Y420700D02*
D03*
X228800Y377400D02*
D03*
Y227400D02*
D03*
X256700Y270700D02*
D03*
X253600Y231100D02*
D03*
X122100Y311600D02*
D03*
X168000Y295100D02*
D03*
X140100Y249100D02*
D03*
X173300Y312600D02*
D03*
X235500Y295000D02*
D03*
X161000Y295100D02*
D03*
X221300Y266700D02*
D03*
X231700Y236400D02*
D03*
X214700Y234000D02*
D03*
X205300Y248600D02*
D03*
X169300Y269000D02*
D03*
X439000Y360300D02*
D03*
X459400Y396300D02*
D03*
X474000Y405700D02*
D03*
X471600Y422700D02*
D03*
X441300Y412300D02*
D03*
X412900Y352000D02*
D03*
X413000Y426500D02*
D03*
X395400Y364300D02*
D03*
X458900Y331100D02*
D03*
X412900Y359000D02*
D03*
X396400Y313100D02*
D03*
X476900Y444600D02*
D03*
X437300Y447700D02*
D03*
X480600Y419800D02*
D03*
X154000Y154500D02*
D03*
X142000Y150300D02*
D03*
X152500Y146500D02*
D03*
Y134000D02*
D03*
X220500D02*
D03*
Y146500D02*
D03*
X210000Y150300D02*
D03*
X222000Y154500D02*
D03*
X358000D02*
D03*
X346000Y150300D02*
D03*
X356500Y146500D02*
D03*
Y134000D02*
D03*
X288500D02*
D03*
Y146500D02*
D03*
X278000Y150300D02*
D03*
X290000Y154500D02*
D03*
X423500Y134000D02*
D03*
Y146500D02*
D03*
X413000Y150300D02*
D03*
X425000Y154500D02*
D03*
X473500Y246000D02*
D03*
X461500Y241800D02*
D03*
X472000Y238000D02*
D03*
Y225500D02*
D03*
X346000Y246000D02*
D03*
X334000Y241800D02*
D03*
X344500Y238000D02*
D03*
Y225500D02*
D03*
X408500D02*
D03*
Y238000D02*
D03*
X398000Y241800D02*
D03*
X410000Y246000D02*
D03*
D58*
X194100Y381100D02*
D03*
X184100Y369500D02*
D03*
X204300D02*
D03*
Y219500D02*
D03*
X184100D02*
D03*
X194100Y231100D02*
D03*
X476900Y385100D02*
D03*
X488500Y375100D02*
D03*
Y395300D02*
D03*
D59*
X268651Y457399D02*
D03*
X262352D02*
D03*
X268651Y444801D02*
D03*
X262352Y451100D02*
D03*
X265895Y439289D02*
D03*
X262352Y444801D02*
D03*
X268651Y451100D02*
D03*
X265895Y462911D02*
D03*
X268651Y307399D02*
D03*
X262352D02*
D03*
X268651Y294801D02*
D03*
X262352Y301100D02*
D03*
X265895Y289289D02*
D03*
X262352Y294801D02*
D03*
X268651Y301100D02*
D03*
X265895Y312911D02*
D03*
X400601Y459651D02*
D03*
Y453352D02*
D03*
X413199Y459651D02*
D03*
X406900Y453352D02*
D03*
X418711Y456895D02*
D03*
X413199Y453352D02*
D03*
X406900Y459651D02*
D03*
X395089Y456895D02*
D03*
D60*
X189092Y421919D02*
D03*
Y429793D02*
D03*
Y437667D02*
D03*
Y445541D02*
D03*
Y453415D02*
D03*
Y461289D02*
D03*
Y271919D02*
D03*
Y279793D02*
D03*
Y287667D02*
D03*
Y295541D02*
D03*
Y303415D02*
D03*
Y311289D02*
D03*
D61*
X181218Y473887D02*
D03*
X173344D02*
D03*
X165470D02*
D03*
X157596D02*
D03*
X149722D02*
D03*
X141848D02*
D03*
X133974D02*
D03*
X126100D02*
D03*
Y409320D02*
D03*
X133974D02*
D03*
X141848D02*
D03*
X149722D02*
D03*
X157596D02*
D03*
X165470D02*
D03*
X173344D02*
D03*
X181218D02*
D03*
Y323887D02*
D03*
X173344D02*
D03*
X165470D02*
D03*
X157596D02*
D03*
X149722D02*
D03*
X141848D02*
D03*
X133974D02*
D03*
X126100D02*
D03*
Y259320D02*
D03*
X133974D02*
D03*
X141848D02*
D03*
X149722D02*
D03*
X157596D02*
D03*
X165470D02*
D03*
X173344D02*
D03*
X181218D02*
D03*
D62*
X229100Y433600D02*
D03*
X234100D02*
D03*
X239100D02*
D03*
X244100D02*
D03*
X239100Y413100D02*
D03*
X234100D02*
D03*
X244100D02*
D03*
X229100D02*
D03*
Y283600D02*
D03*
X234100D02*
D03*
X239100D02*
D03*
X244100D02*
D03*
X239100Y263100D02*
D03*
X234100D02*
D03*
X244100D02*
D03*
X229100D02*
D03*
D63*
X210100Y448300D02*
D03*
Y421900D02*
D03*
Y298300D02*
D03*
Y271900D02*
D03*
D64*
X266100Y412927D02*
D03*
Y427100D02*
D03*
Y262927D02*
D03*
Y277100D02*
D03*
D65*
X250510Y481100D02*
D03*
X278068D02*
D03*
X250510Y331100D02*
D03*
X278068D02*
D03*
D66*
X436081Y380092D02*
D03*
X428207D02*
D03*
X420333D02*
D03*
X412459D02*
D03*
X404585D02*
D03*
X396711D02*
D03*
D67*
X384113Y372218D02*
D03*
Y364344D02*
D03*
Y356470D02*
D03*
Y348596D02*
D03*
Y340722D02*
D03*
Y332848D02*
D03*
Y324974D02*
D03*
Y317100D02*
D03*
X448679D02*
D03*
Y324974D02*
D03*
Y332848D02*
D03*
Y340722D02*
D03*
Y348596D02*
D03*
Y356470D02*
D03*
Y364344D02*
D03*
Y372218D02*
D03*
D68*
X424400Y420100D02*
D03*
Y425100D02*
D03*
Y430100D02*
D03*
Y435100D02*
D03*
X444900Y430100D02*
D03*
Y425100D02*
D03*
Y435100D02*
D03*
Y420100D02*
D03*
D69*
X409700Y401100D02*
D03*
X436100D02*
D03*
D70*
X445073Y457100D02*
D03*
X430900D02*
D03*
D71*
X376900Y441509D02*
D03*
Y469068D02*
D03*
D72*
X125307Y150327D02*
D03*
X132394D02*
D03*
X125307Y139327D02*
D03*
X132394D02*
D03*
X125307Y128327D02*
D03*
X132394D02*
D03*
X193307D02*
D03*
X200394D02*
D03*
X193307Y139327D02*
D03*
X200394D02*
D03*
X193307Y150327D02*
D03*
X200394D02*
D03*
X329307D02*
D03*
X336394D02*
D03*
X329307Y139327D02*
D03*
X336394D02*
D03*
X329307Y128327D02*
D03*
X336394D02*
D03*
X261307D02*
D03*
X268394D02*
D03*
X261307Y139327D02*
D03*
X268394D02*
D03*
X261307Y150327D02*
D03*
X268394D02*
D03*
X396307Y128327D02*
D03*
X403394D02*
D03*
X396307Y139327D02*
D03*
X403394D02*
D03*
X396307Y150327D02*
D03*
X403394D02*
D03*
X444807Y241827D02*
D03*
X451894D02*
D03*
X444807Y230827D02*
D03*
X451894D02*
D03*
X444807Y219827D02*
D03*
X451894D02*
D03*
X317307Y241827D02*
D03*
X324394D02*
D03*
X317307Y230827D02*
D03*
X324394D02*
D03*
X317307Y219827D02*
D03*
X324394D02*
D03*
X381307D02*
D03*
X388394D02*
D03*
X381307Y230827D02*
D03*
X388394D02*
D03*
X381307Y241827D02*
D03*
X388394D02*
D03*
D73*
X195372Y489817D02*
X216828D01*
X196553Y477887D02*
X215647D01*
X196553Y327887D02*
X215647D01*
X195372Y339816D02*
X216828D01*
X368183Y386372D02*
Y407828D01*
X380113Y387553D02*
Y406647D01*
D74*
X266989Y451093D02*
D03*
Y301092D02*
D03*
D75*
X406908Y457990D02*
D03*
M02*
