%FSLAX25Y25*%
%MOIN*%
G70*
G01*
G75*
G04 Layer_Color=32896*
%ADD10R,0.01772X0.06299*%
%ADD11R,0.06299X0.13386*%
%ADD12R,0.05512X0.01654*%
%ADD13R,0.04724X0.04724*%
%ADD14R,0.08465X0.05000*%
%ADD15R,0.09000X0.15000*%
%ADD16R,0.05906X0.03937*%
%ADD17R,0.03937X0.05906*%
%ADD18R,0.07874X0.11024*%
%ADD19R,0.03500X0.05000*%
%ADD20R,0.07874X0.15748*%
%ADD21R,0.06299X0.09449*%
%ADD22R,0.05512X0.07087*%
%ADD23R,0.05906X0.15748*%
%ADD24R,0.06299X0.01772*%
%ADD25R,0.13386X0.06299*%
%ADD26R,0.01654X0.05512*%
%ADD27R,0.04724X0.04724*%
%ADD28R,0.05000X0.08465*%
%ADD29R,0.15000X0.09000*%
%ADD30R,0.11024X0.07874*%
%ADD31R,0.15748X0.05906*%
%ADD32R,0.05000X0.03500*%
%ADD33R,0.15748X0.07874*%
%ADD34R,0.09449X0.06299*%
%ADD35R,0.07087X0.05512*%
%ADD36R,0.06600X0.01700*%
%ADD37C,0.02500*%
%ADD38C,0.02000*%
%ADD39C,0.03000*%
%ADD40C,0.01500*%
%ADD41C,0.04000*%
%ADD42C,0.01000*%
%ADD43C,0.01800*%
%ADD44R,0.01600X0.04800*%
%ADD45R,0.34200X0.03200*%
%ADD46R,0.14413X0.28346*%
%ADD47R,0.04800X0.01600*%
%ADD48R,0.03200X0.34200*%
%ADD49R,0.28346X0.14413*%
%ADD50C,0.15800*%
%ADD51R,0.05512X0.07874*%
%ADD52R,0.05118X0.07874*%
%ADD53C,0.07874*%
%ADD54R,0.07874X0.05512*%
%ADD55R,0.07874X0.05118*%
%ADD56C,0.05000*%
%ADD57C,0.04000*%
%ADD58C,0.06000*%
%ADD59C,0.03937*%
%ADD60R,0.09449X0.04724*%
%ADD61R,0.04724X0.11024*%
%ADD62R,0.03000X0.10000*%
%ADD63R,0.10000X0.20000*%
%ADD64R,0.06299X0.05512*%
%ADD65R,0.09843X0.14961*%
%ADD66R,0.04724X0.09449*%
%ADD67R,0.11024X0.04724*%
%ADD68R,0.10000X0.03000*%
%ADD69R,0.20000X0.10000*%
%ADD70R,0.05512X0.06299*%
%ADD71R,0.14961X0.09843*%
%ADD72R,0.03150X0.04724*%
%ADD73C,0.03500*%
%ADD74R,0.26400X0.28346*%
%ADD75R,0.28346X0.26400*%
%ADD76C,0.00200*%
%ADD77C,0.00591*%
%ADD78C,0.00394*%
%ADD79C,0.00787*%
%ADD80C,0.00500*%
%ADD81C,0.00050*%
%ADD82C,0.00800*%
%ADD83R,0.02300X0.06299*%
%ADD84R,0.06299X0.02300*%
%ADD85R,0.02572X0.07099*%
%ADD86R,0.07099X0.14186*%
%ADD87R,0.06312X0.02454*%
%ADD88R,0.05524X0.05524*%
%ADD89R,0.09265X0.05800*%
%ADD90R,0.09800X0.15800*%
%ADD91R,0.06706X0.04737*%
%ADD92R,0.04737X0.06706*%
%ADD93R,0.08674X0.11824*%
%ADD94R,0.04300X0.05800*%
%ADD95R,0.08674X0.16548*%
%ADD96R,0.07099X0.10249*%
%ADD97R,0.06312X0.07887*%
%ADD98R,0.06706X0.16548*%
%ADD99R,0.07099X0.02572*%
%ADD100R,0.14186X0.07099*%
%ADD101R,0.02454X0.06312*%
%ADD102R,0.05524X0.05524*%
%ADD103R,0.05800X0.09265*%
%ADD104R,0.15800X0.09800*%
%ADD105R,0.11824X0.08674*%
%ADD106R,0.16548X0.06706*%
%ADD107R,0.05800X0.04300*%
%ADD108R,0.16548X0.08674*%
%ADD109R,0.10249X0.07099*%
%ADD110R,0.07887X0.06312*%
%ADD111R,0.07400X0.02500*%
%ADD112C,0.16600*%
%ADD113R,0.06312X0.08674*%
%ADD114R,0.05918X0.08674*%
%ADD115C,0.08674*%
%ADD116R,0.08674X0.06312*%
%ADD117R,0.08674X0.05918*%
%ADD118C,0.05800*%
%ADD119C,0.04800*%
%ADD120C,0.06800*%
%ADD121C,0.04737*%
%ADD122R,0.10249X0.05524*%
%ADD123R,0.05524X0.11824*%
%ADD124R,0.03800X0.10800*%
%ADD125R,0.10800X0.20800*%
%ADD126R,0.07099X0.06312*%
%ADD127R,0.10642X0.15761*%
%ADD128R,0.05524X0.10249*%
%ADD129R,0.11824X0.05524*%
%ADD130R,0.10800X0.03800*%
%ADD131R,0.20800X0.10800*%
%ADD132R,0.06312X0.07099*%
%ADD133R,0.15761X0.10642*%
%ADD134R,0.03950X0.05524*%
%ADD135C,0.00300*%
%ADD136C,0.01969*%
%ADD137C,0.01181*%
%ADD138R,0.02100X0.06299*%
%ADD139R,0.06299X0.02100*%
%ADD140R,0.06000X0.16929*%
%ADD141R,0.02100X0.06299*%
%ADD142R,0.16929X0.06000*%
D42*
X219942Y421714D02*
G03*
X222305Y424076I0J2362D01*
G01*
Y446124D02*
G03*
X219942Y448486I-2362J0D01*
G01*
X197895Y424076D02*
G03*
X200257Y421714I2362J0D01*
G01*
Y448486D02*
G03*
X197895Y446124I0J-2362D01*
G01*
X219942Y271714D02*
G03*
X222305Y274076I0J2362D01*
G01*
Y296124D02*
G03*
X219942Y298486I-2362J0D01*
G01*
X197895Y274076D02*
G03*
X200257Y271714I2362J0D01*
G01*
Y298486D02*
G03*
X197895Y296124I0J-2362D01*
G01*
X436286Y410943D02*
G03*
X433924Y413305I-2362J0D01*
G01*
X411876D02*
G03*
X409514Y410943I0J-2362D01*
G01*
X433924Y388895D02*
G03*
X436286Y391258I0J2362D01*
G01*
X409514D02*
G03*
X411876Y388895I2362J0D01*
G01*
X187124Y410108D02*
Y473100D01*
X92635D02*
X187124D01*
X92635Y410108D02*
X187124D01*
X92635D02*
Y473100D01*
X244100Y366600D02*
X244600Y367100D01*
X197895Y424076D02*
Y446124D01*
X222305Y424076D02*
Y446124D01*
X200257Y421714D02*
X219942D01*
X200257Y448486D02*
X219942D01*
X212949Y389932D02*
X225547D01*
X212949D02*
Y396231D01*
X225547D01*
Y389932D02*
Y396231D01*
X269250Y413714D02*
Y426313D01*
X262950Y413714D02*
Y426313D01*
Y413714D02*
X269250D01*
X262950Y426313D02*
X269250D01*
X249919Y472635D02*
Y489565D01*
X278659Y472635D02*
Y489565D01*
X249919Y472635D02*
X278659D01*
X249919Y489565D02*
X278659D01*
X172447Y359352D02*
X215754D01*
X249919Y322635D02*
Y339565D01*
X278659Y322635D02*
Y339565D01*
X249919Y322635D02*
X278659D01*
X249919Y339565D02*
X278659D01*
X269250Y263714D02*
Y276313D01*
X262950Y263714D02*
Y276313D01*
Y263714D02*
X269250D01*
X262950Y276313D02*
X269250D01*
X212949Y239932D02*
X225547D01*
X212949D02*
Y246231D01*
X225547D01*
Y239932D02*
Y246231D01*
X197895Y274076D02*
Y296124D01*
X222305Y274076D02*
Y296124D01*
X200257Y271714D02*
X219942D01*
X200257Y298486D02*
X219942D01*
X244100Y216600D02*
X244600Y217100D01*
X172447Y209352D02*
X215754D01*
X187124Y260108D02*
Y323100D01*
X92635D02*
X187124D01*
X92635Y260108D02*
X187124D01*
X92635D02*
Y323100D01*
X384900Y378124D02*
X447892D01*
X384900Y283635D02*
Y378124D01*
X447892Y283635D02*
Y378124D01*
X384900Y283635D02*
X447892D01*
X498648Y363446D02*
Y406753D01*
X490900Y435600D02*
X491400Y435100D01*
X411876Y388895D02*
X433924D01*
X411876Y413305D02*
X433924D01*
X436286Y391258D02*
Y410943D01*
X409514Y391258D02*
Y410943D01*
X468068Y403949D02*
Y416547D01*
X461769Y403949D02*
X468068D01*
X461769D02*
Y416547D01*
X468068D01*
X431687Y460250D02*
X444286D01*
X431687Y453950D02*
X444286D01*
Y460250D01*
X431687Y453950D02*
Y460250D01*
X368435Y440919D02*
X385365D01*
X368435Y469659D02*
X385365D01*
Y440919D02*
Y469659D01*
X368435Y440919D02*
Y469659D01*
X152220Y170200D02*
X164819D01*
Y163901D02*
Y170200D01*
X152220Y163901D02*
X164819D01*
X152220D02*
Y170200D01*
X220220D02*
X232819D01*
Y163901D02*
Y170200D01*
X220220Y163901D02*
X232819D01*
X220220D02*
Y170200D01*
X356221D02*
X368819D01*
Y163901D02*
Y170200D01*
X356221Y163901D02*
X368819D01*
X356221D02*
Y170200D01*
X288221D02*
X300819D01*
Y163901D02*
Y170200D01*
X288221Y163901D02*
X300819D01*
X288221D02*
Y170200D01*
X423220D02*
X435819D01*
Y163901D02*
Y170200D01*
X423220Y163901D02*
X435819D01*
X423220D02*
Y170200D01*
X471721Y261700D02*
X484319D01*
Y255401D02*
Y261700D01*
X471721Y255401D02*
X484319D01*
X471721D02*
Y261700D01*
X344220D02*
X356819D01*
Y255401D02*
Y261700D01*
X344220Y255401D02*
X356819D01*
X344220D02*
Y261700D01*
X408220D02*
X420819D01*
Y255401D02*
Y261700D01*
X408220Y255401D02*
X420819D01*
X408220D02*
Y261700D01*
X181218Y487998D02*
Y482000D01*
X179219Y483999D01*
X177219Y482000D01*
Y487998D01*
X175220Y482000D02*
X173221D01*
X174220D01*
Y485999D01*
X175220D01*
X170222Y484999D02*
X166223D01*
X160225Y487998D02*
X164224D01*
Y484999D01*
X162224D01*
X164224D01*
Y482000D01*
X158226D02*
X156226D01*
X157226D01*
Y485999D01*
X158226D01*
X153227Y482000D02*
X151228D01*
X152227D01*
Y487998D01*
X153227Y486998D01*
X248300Y447298D02*
Y442300D01*
X247300Y441300D01*
X245301D01*
X244301Y442300D01*
Y447298D01*
X242302Y441300D02*
X240303D01*
X241302D01*
Y447298D01*
X242302Y446298D01*
X216200Y466998D02*
Y461000D01*
X212201D01*
X207203D02*
X209202D01*
X210202Y462000D01*
Y463999D01*
X209202Y464999D01*
X207203D01*
X206203Y463999D01*
Y462999D01*
X210202D01*
X200205Y466998D02*
Y461000D01*
X203204D01*
X204204Y462000D01*
Y463999D01*
X203204Y464999D01*
X200205D01*
X198206Y461000D02*
X196206D01*
X197206D01*
Y466998D01*
X198206Y465998D01*
X239001Y485098D02*
X240001Y486098D01*
X242000D01*
X243000Y485098D01*
Y481100D01*
X242000Y480100D01*
X240001D01*
X239001Y481100D01*
X237002Y480100D02*
X235003D01*
X236002D01*
Y486098D01*
X237002Y485098D01*
X239001Y335098D02*
X240001Y336098D01*
X242000D01*
X243000Y335098D01*
Y331100D01*
X242000Y330100D01*
X240001D01*
X239001Y331100D01*
X237002Y330100D02*
X235003D01*
X236002D01*
Y336098D01*
X237002Y335098D01*
X216200Y316998D02*
Y311000D01*
X212201D01*
X207203D02*
X209202D01*
X210202Y312000D01*
Y313999D01*
X209202Y314999D01*
X207203D01*
X206203Y313999D01*
Y312999D01*
X210202D01*
X200205Y316998D02*
Y311000D01*
X203204D01*
X204204Y312000D01*
Y313999D01*
X203204Y314999D01*
X200205D01*
X198206Y311000D02*
X196206D01*
X197206D01*
Y316998D01*
X198206Y315998D01*
X248300Y297298D02*
Y292300D01*
X247300Y291300D01*
X245301D01*
X244301Y292300D01*
Y297298D01*
X242302Y291300D02*
X240303D01*
X241302D01*
Y297298D01*
X242302Y296298D01*
X181218Y337998D02*
Y332000D01*
X179219Y333999D01*
X177219Y332000D01*
Y337998D01*
X175220Y332000D02*
X173221D01*
X174220D01*
Y335999D01*
X175220D01*
X170222Y334999D02*
X166223D01*
X160225Y337998D02*
X164224D01*
Y334999D01*
X162224D01*
X164224D01*
Y332000D01*
X158226D02*
X156226D01*
X157226D01*
Y335999D01*
X158226D01*
X153227Y332000D02*
X151228D01*
X152227D01*
Y337998D01*
X153227Y336998D01*
X370002Y372218D02*
X376000D01*
X374001Y370219D01*
X376000Y368219D01*
X370002D01*
X376000Y366220D02*
Y364221D01*
Y365220D01*
X372001D01*
Y366220D01*
X373001Y361222D02*
Y357223D01*
X370002Y351225D02*
Y355224D01*
X373001D01*
Y353224D01*
Y355224D01*
X376000D01*
Y349226D02*
Y347226D01*
Y348226D01*
X372001D01*
Y349226D01*
X376000Y344227D02*
Y342228D01*
Y343228D01*
X370002D01*
X371002Y344227D01*
X410702Y439300D02*
X415700D01*
X416700Y438300D01*
Y436301D01*
X415700Y435301D01*
X410702D01*
X416700Y433302D02*
Y431303D01*
Y432302D01*
X410702D01*
X411702Y433302D01*
X391002Y407200D02*
X397000D01*
Y403201D01*
Y398203D02*
Y400202D01*
X396000Y401202D01*
X394001D01*
X393001Y400202D01*
Y398203D01*
X394001Y397203D01*
X395001D01*
Y401202D01*
X391002Y391205D02*
X397000D01*
Y394204D01*
X396000Y395204D01*
X394001D01*
X393001Y394204D01*
Y391205D01*
X397000Y389206D02*
Y387207D01*
Y388206D01*
X391002D01*
X392002Y389206D01*
X372902Y430001D02*
X371902Y431001D01*
Y433000D01*
X372902Y434000D01*
X376900D01*
X377900Y433000D01*
Y431001D01*
X376900Y430001D01*
X377900Y428002D02*
Y426003D01*
Y427002D01*
X371902D01*
X372902Y428002D01*
X132351Y450702D02*
X127400D01*
Y458700D01*
X132351D01*
X127400Y454510D02*
X130447D01*
X139017Y451844D02*
X138255Y451083D01*
X137112Y450702D01*
X135589D01*
X134446Y451083D01*
X133684Y451844D01*
Y452606D01*
X134065Y453368D01*
X134446Y453749D01*
X135208Y454130D01*
X137493Y454891D01*
X138255Y455272D01*
X138636Y455653D01*
X139017Y456415D01*
Y457557D01*
X138255Y458319D01*
X137112Y458700D01*
X135589D01*
X134446Y458319D01*
X133684Y457557D01*
X140807Y454891D02*
X144235D01*
X145377Y454510D01*
X145758Y454130D01*
X146139Y453368D01*
Y452225D01*
X145758Y451464D01*
X145377Y451083D01*
X144235Y450702D01*
X140807D01*
Y458700D01*
X147929Y455272D02*
X154785D01*
X157146Y452225D02*
X157908Y451844D01*
X159050Y450702D01*
Y458700D01*
X163392Y452606D02*
Y452225D01*
X163773Y451464D01*
X164154Y451083D01*
X164916Y450702D01*
X166439D01*
X167201Y451083D01*
X167582Y451464D01*
X167963Y452225D01*
Y452987D01*
X167582Y453749D01*
X166820Y454891D01*
X163011Y458700D01*
X168344D01*
X175085Y450702D02*
X170134D01*
Y458700D01*
X175085D01*
X170134Y454510D02*
X173181D01*
X127800Y422702D02*
X130180Y432700D01*
X132561Y422702D02*
X130180Y432700D01*
X132561Y422702D02*
X134941Y432700D01*
X137322Y422702D02*
X134941Y432700D01*
X140273Y422702D02*
X140750Y423178D01*
X141226Y422702D01*
X140750Y422226D01*
X140273Y422702D01*
X140750Y426035D02*
Y432700D01*
X142987Y428415D02*
X151557D01*
X154509Y422702D02*
Y432700D01*
Y422702D02*
X160698D01*
X154509Y427463D02*
X158317D01*
X162793Y422702D02*
X163269Y423178D01*
X163745Y422702D01*
X163269Y422226D01*
X162793Y422702D01*
X163269Y426035D02*
Y432700D01*
X132351Y300702D02*
X127400D01*
Y308700D01*
X132351D01*
X127400Y304510D02*
X130447D01*
X139017Y301844D02*
X138255Y301083D01*
X137112Y300702D01*
X135589D01*
X134446Y301083D01*
X133684Y301844D01*
Y302606D01*
X134065Y303368D01*
X134446Y303749D01*
X135208Y304130D01*
X137493Y304891D01*
X138255Y305272D01*
X138636Y305653D01*
X139017Y306415D01*
Y307557D01*
X138255Y308319D01*
X137112Y308700D01*
X135589D01*
X134446Y308319D01*
X133684Y307557D01*
X140807Y304891D02*
X144235D01*
X145377Y304510D01*
X145758Y304130D01*
X146139Y303368D01*
Y302225D01*
X145758Y301464D01*
X145377Y301083D01*
X144235Y300702D01*
X140807D01*
Y308700D01*
X147929Y305272D02*
X154785D01*
X157146Y302225D02*
X157908Y301844D01*
X159050Y300702D01*
Y308700D01*
X163392Y302606D02*
Y302225D01*
X163773Y301464D01*
X164154Y301083D01*
X164916Y300702D01*
X166439D01*
X167201Y301083D01*
X167582Y301464D01*
X167963Y302225D01*
Y302987D01*
X167582Y303749D01*
X166820Y304891D01*
X163011Y308700D01*
X168344D01*
X175085Y300702D02*
X170134D01*
Y308700D01*
X175085D01*
X170134Y304510D02*
X173181D01*
X127800Y272702D02*
X130180Y282700D01*
X132561Y272702D02*
X130180Y282700D01*
X132561Y272702D02*
X134941Y282700D01*
X137322Y272702D02*
X134941Y282700D01*
X140273Y272702D02*
X140750Y273178D01*
X141226Y272702D01*
X140750Y272226D01*
X140273Y272702D01*
X140750Y276035D02*
Y282700D01*
X142987Y278415D02*
X151557D01*
X154509Y272702D02*
Y282700D01*
Y272702D02*
X160698D01*
X154509Y277463D02*
X158317D01*
X162793Y272702D02*
X163269Y273178D01*
X163745Y272702D01*
X163269Y272226D01*
X162793Y272702D01*
X163269Y276035D02*
Y282700D01*
X407298Y323351D02*
Y318400D01*
X399300D01*
Y323351D01*
X403490Y318400D02*
Y321447D01*
X406156Y330017D02*
X406917Y329255D01*
X407298Y328112D01*
Y326589D01*
X406917Y325446D01*
X406156Y324684D01*
X405394D01*
X404632Y325065D01*
X404251Y325446D01*
X403870Y326208D01*
X403109Y328493D01*
X402728Y329255D01*
X402347Y329636D01*
X401585Y330017D01*
X400443D01*
X399681Y329255D01*
X399300Y328112D01*
Y326589D01*
X399681Y325446D01*
X400443Y324684D01*
X403109Y331807D02*
Y335234D01*
X403490Y336377D01*
X403870Y336758D01*
X404632Y337139D01*
X405775D01*
X406536Y336758D01*
X406917Y336377D01*
X407298Y335234D01*
Y331807D01*
X399300D01*
X402728Y338929D02*
Y345785D01*
X405775Y348146D02*
X406156Y348908D01*
X407298Y350050D01*
X399300D01*
X405394Y354392D02*
X405775D01*
X406536Y354773D01*
X406917Y355154D01*
X407298Y355916D01*
Y357439D01*
X406917Y358201D01*
X406536Y358582D01*
X405775Y358963D01*
X405013D01*
X404251Y358582D01*
X403109Y357820D01*
X399300Y354011D01*
Y359344D01*
X407298Y366085D02*
Y361134D01*
X399300D01*
Y366085D01*
X403490Y361134D02*
Y364181D01*
X435298Y318800D02*
X425300Y321180D01*
X435298Y323561D02*
X425300Y321180D01*
X435298Y323561D02*
X425300Y325941D01*
X435298Y328322D02*
X425300Y325941D01*
X435298Y331274D02*
X434822Y331750D01*
X435298Y332226D01*
X435774Y331750D01*
X435298Y331274D01*
X431965Y331750D02*
X425300D01*
X429585Y333987D02*
Y342557D01*
X435298Y345509D02*
X425300D01*
X435298D02*
Y351698D01*
X430537Y345509D02*
Y349317D01*
X435298Y353793D02*
X434822Y354269D01*
X435298Y354745D01*
X435774Y354269D01*
X435298Y353793D01*
X431965Y354269D02*
X425300D01*
X110000Y110000D02*
Y504000D01*
Y110000D02*
X504000D01*
Y504000D01*
X110000D02*
X504000D01*
X308100Y362100D02*
Y498100D01*
X114100D02*
X308100D01*
X114100Y362100D02*
X308100D01*
X114100D02*
Y498100D01*
Y212100D02*
Y348100D01*
Y212100D02*
X308100D01*
X114100Y348100D02*
X308100D01*
Y212100D02*
Y348100D01*
X359900Y499100D02*
X495900D01*
X359900Y305100D02*
Y499100D01*
X495900Y305100D02*
Y499100D01*
X359900Y305100D02*
X495900D01*
X120000Y196500D02*
X180000D01*
X120000Y118500D02*
Y196500D01*
Y118500D02*
X180000D01*
Y196500D01*
X248000Y118500D02*
Y196500D01*
X188000Y118500D02*
X248000D01*
X188000D02*
Y196500D01*
X248000D01*
X324000D02*
X384000D01*
X324000Y118500D02*
Y196500D01*
Y118500D02*
X384000D01*
Y196500D01*
X316000Y118500D02*
Y196500D01*
X256000Y118500D02*
X316000D01*
X256000D02*
Y196500D01*
X316000D01*
X451000Y118500D02*
Y196500D01*
X391000Y118500D02*
X451000D01*
X391000D02*
Y196500D01*
X451000D01*
X439500Y288000D02*
X499500D01*
X439500Y210000D02*
Y288000D01*
Y210000D02*
X499500D01*
Y288000D01*
X312000D02*
X372000D01*
X312000Y210000D02*
Y288000D01*
Y210000D02*
X372000D01*
Y288000D01*
X436000Y210000D02*
Y288000D01*
X376000Y210000D02*
X436000D01*
X376000D02*
Y288000D01*
X436000D01*
D76*
X226777Y416600D02*
X246462D01*
X226777Y266600D02*
X246462D01*
X441400Y417777D02*
Y437462D01*
D78*
X219942Y435100D02*
G03*
X219942Y435100I-9843J0D01*
G01*
X220730Y445730D02*
G03*
X220730Y445730I-1181J0D01*
G01*
Y424470D02*
G03*
X220730Y424470I-1181J0D01*
G01*
X201832D02*
G03*
X201832Y424470I-1181J0D01*
G01*
Y445730D02*
G03*
X201832Y445730I-1181J0D01*
G01*
X221124Y435100D02*
G03*
X221124Y435100I-11024J0D01*
G01*
X219942Y285100D02*
G03*
X219942Y285100I-9843J0D01*
G01*
X220730Y295730D02*
G03*
X220730Y295730I-1181J0D01*
G01*
Y274470D02*
G03*
X220730Y274470I-1181J0D01*
G01*
X201832D02*
G03*
X201832Y274470I-1181J0D01*
G01*
Y295730D02*
G03*
X201832Y295730I-1181J0D01*
G01*
X221124Y285100D02*
G03*
X221124Y285100I-11024J0D01*
G01*
X432743Y401100D02*
G03*
X432743Y401100I-9843J0D01*
G01*
X413451Y410549D02*
G03*
X413451Y410549I-1181J0D01*
G01*
X434711D02*
G03*
X434711Y410549I-1181J0D01*
G01*
Y391651D02*
G03*
X434711Y391651I-1181J0D01*
G01*
X413451D02*
G03*
X413451Y391651I-1181J0D01*
G01*
X433924Y401100D02*
G03*
X433924Y401100I-11024J0D01*
G01*
X118226Y413258D02*
Y421919D01*
X122950D01*
Y413258D02*
Y421919D01*
X118226Y413258D02*
X122950D01*
X235116Y361226D02*
X237084D01*
X245116D02*
X247084D01*
X235116Y365163D02*
X237084D01*
X235116Y361226D02*
Y365163D01*
X237084Y361226D02*
Y365163D01*
X245116D02*
X247084D01*
X245116Y361226D02*
Y365163D01*
X247084Y361226D02*
Y365163D01*
X276100Y474801D02*
X278462D01*
X276100D02*
Y487399D01*
X278659D01*
X249919D02*
X252478D01*
Y474801D02*
Y487399D01*
X249919Y474801D02*
X252478D01*
X205281Y359352D02*
Y377462D01*
X202919D02*
X205281D01*
X202919Y359352D02*
Y377462D01*
X192919Y359352D02*
Y377462D01*
X195281D01*
Y359352D02*
Y377462D01*
X182919Y359352D02*
Y377462D01*
X185281D01*
Y359352D02*
Y377462D01*
X276100Y324801D02*
X278462D01*
X276100D02*
Y337399D01*
X278659D01*
X249919D02*
X252478D01*
Y324801D02*
Y337399D01*
X249919Y324801D02*
X252478D01*
X235116Y211226D02*
X237084D01*
X245116D02*
X247084D01*
X235116Y215163D02*
X237084D01*
X235116Y211226D02*
Y215163D01*
X237084Y211226D02*
Y215163D01*
X245116D02*
X247084D01*
X245116Y211226D02*
Y215163D01*
X247084Y211226D02*
Y215163D01*
X205281Y209352D02*
Y227462D01*
X202919D02*
X205281D01*
X202919Y209352D02*
Y227462D01*
X192919Y209352D02*
Y227462D01*
X195281D01*
Y209352D02*
Y227462D01*
X182919Y209352D02*
Y227462D01*
X185281D01*
Y209352D02*
Y227462D01*
X118226Y263258D02*
Y271919D01*
X122950D01*
Y263258D02*
Y271919D01*
X118226Y263258D02*
X122950D01*
X436081Y309226D02*
X444742D01*
X436081D02*
Y313950D01*
X444742D01*
Y309226D02*
Y313950D01*
X480538Y396281D02*
X498648D01*
X480538Y393919D02*
Y396281D01*
Y393919D02*
X498648D01*
X480538Y383919D02*
X498648D01*
X480538D02*
Y386281D01*
X498648D01*
X480538Y373919D02*
X498648D01*
X480538D02*
Y376281D01*
X498648D01*
X496774Y426116D02*
Y428084D01*
Y436116D02*
Y438084D01*
X492837Y426116D02*
Y428084D01*
Y426116D02*
X496774D01*
X492837Y428084D02*
X496774D01*
X492837Y436116D02*
Y438084D01*
Y436116D02*
X496774D01*
X492837Y438084D02*
X496774D01*
X383199Y467100D02*
Y469462D01*
X370601Y467100D02*
X383199D01*
X370601D02*
Y469659D01*
Y440919D02*
Y443478D01*
X383199D01*
Y440919D02*
Y443478D01*
D80*
X226600Y415100D02*
X246600D01*
Y431200D01*
X226600D02*
X246600D01*
X226600Y415100D02*
Y431200D01*
X219307Y375632D02*
Y383506D01*
X224229D01*
Y375632D02*
Y383506D01*
X219307Y375632D02*
X224229D01*
X188268Y393593D02*
X196142D01*
Y388671D02*
Y393593D01*
X188268Y388671D02*
X196142D01*
X188268D02*
Y393593D01*
X237768Y395593D02*
X245642D01*
Y390671D02*
Y395593D01*
X237768Y390671D02*
X245642D01*
X237768D02*
Y395593D01*
X237394Y378672D02*
X245268D01*
X237394D02*
Y383593D01*
X245268D01*
Y378672D02*
Y383593D01*
X261726Y378639D02*
X269600D01*
X261726D02*
Y383561D01*
X269600D01*
Y378639D02*
Y383561D01*
X255268Y395593D02*
X263142D01*
Y390671D02*
Y395593D01*
X255268Y390671D02*
X263142D01*
X255268D02*
Y395593D01*
X212659Y431163D02*
Y439037D01*
X207541Y431163D02*
X212659D01*
X207541D02*
Y439037D01*
X212659D01*
X211281Y432738D02*
X212659D01*
X211281D02*
Y434706D01*
X212659D01*
X207541D02*
X208919D01*
Y432738D02*
Y434706D01*
X207541Y432738D02*
X208919D01*
X233600Y456461D02*
X241474D01*
Y451539D02*
Y456461D01*
X233600Y451539D02*
X241474D01*
X233600D02*
Y456461D01*
Y306461D02*
X241474D01*
Y301539D02*
Y306461D01*
X233600Y301539D02*
X241474D01*
X233600D02*
Y306461D01*
X212659Y281163D02*
Y289037D01*
X207541Y281163D02*
X212659D01*
X207541D02*
Y289037D01*
X212659D01*
X211281Y282738D02*
X212659D01*
X211281D02*
Y284706D01*
X212659D01*
X207541D02*
X208919D01*
Y282738D02*
Y284706D01*
X207541Y282738D02*
X208919D01*
X255268Y245593D02*
X263142D01*
Y240671D02*
Y245593D01*
X255268Y240671D02*
X263142D01*
X255268D02*
Y245593D01*
X261726Y228639D02*
X269600D01*
X261726D02*
Y233561D01*
X269600D01*
Y228639D02*
Y233561D01*
X237394Y228672D02*
X245268D01*
X237394D02*
Y233593D01*
X245268D01*
Y228672D02*
Y233593D01*
X237768Y245593D02*
X245642D01*
Y240671D02*
Y245593D01*
X237768Y240671D02*
X245642D01*
X237768D02*
Y245593D01*
X188268Y243593D02*
X196142D01*
Y238671D02*
Y243593D01*
X188268Y238671D02*
X196142D01*
X188268D02*
Y243593D01*
X219307Y225632D02*
Y233506D01*
X224229D01*
Y225632D02*
Y233506D01*
X219307Y225632D02*
X224229D01*
X226600Y265100D02*
X246600D01*
Y281200D01*
X226600D02*
X246600D01*
X226600Y265100D02*
Y281200D01*
X442900Y417600D02*
Y437600D01*
X426800D02*
X442900D01*
X426800Y417600D02*
Y437600D01*
Y417600D02*
X442900D01*
X474494Y410307D02*
X482368D01*
X474494D02*
Y415229D01*
X482368D01*
Y410307D02*
Y415229D01*
X464407Y379268D02*
Y387142D01*
X469328D01*
Y379268D02*
Y387142D01*
X464407Y379268D02*
X469328D01*
X462407Y428768D02*
Y436642D01*
X467329D01*
Y428768D02*
Y436642D01*
X462407Y428768D02*
X467329D01*
X479328Y428394D02*
Y436268D01*
X474407Y428394D02*
X479328D01*
X474407D02*
Y436268D01*
X479328D01*
X479361Y452726D02*
Y460600D01*
X474439Y452726D02*
X479361D01*
X474439D02*
Y460600D01*
X479361D01*
X462407Y446268D02*
Y454142D01*
X467329D01*
Y446268D02*
Y454142D01*
X462407Y446268D02*
X467329D01*
X418963Y403659D02*
X426837D01*
Y398541D02*
Y403659D01*
X418963Y398541D02*
X426837D01*
X418963D02*
Y403659D01*
X425262Y402281D02*
Y403659D01*
X423294Y402281D02*
X425262D01*
X423294D02*
Y403659D01*
Y398541D02*
Y399919D01*
X425262D01*
Y398541D02*
Y399919D01*
X401539Y424600D02*
Y432474D01*
X406461D01*
Y424600D02*
Y432474D01*
X401539Y424600D02*
X406461D01*
X125701Y152000D02*
X132000D01*
Y148653D02*
Y152000D01*
X125701Y148653D02*
X132000D01*
X125701D02*
Y152000D01*
Y141000D02*
X132000D01*
Y137654D02*
Y141000D01*
X125701Y137654D02*
X132000D01*
X125701D02*
Y141000D01*
Y130000D02*
X132000D01*
Y126654D02*
Y130000D01*
X125701Y126654D02*
X132000D01*
X125701D02*
Y130000D01*
X193701D02*
X200000D01*
Y126654D02*
Y130000D01*
X193701Y126654D02*
X200000D01*
X193701D02*
Y130000D01*
Y141000D02*
X200000D01*
Y137654D02*
Y141000D01*
X193701Y137654D02*
X200000D01*
X193701D02*
Y141000D01*
Y152000D02*
X200000D01*
Y148653D02*
Y152000D01*
X193701Y148653D02*
X200000D01*
X193701D02*
Y152000D01*
X329701D02*
X336000D01*
Y148653D02*
Y152000D01*
X329701Y148653D02*
X336000D01*
X329701D02*
Y152000D01*
Y141000D02*
X336000D01*
Y137654D02*
Y141000D01*
X329701Y137654D02*
X336000D01*
X329701D02*
Y141000D01*
Y130000D02*
X336000D01*
Y126654D02*
Y130000D01*
X329701Y126654D02*
X336000D01*
X329701D02*
Y130000D01*
X261701D02*
X268000D01*
Y126654D02*
Y130000D01*
X261701Y126654D02*
X268000D01*
X261701D02*
Y130000D01*
Y141000D02*
X268000D01*
Y137654D02*
Y141000D01*
X261701Y137654D02*
X268000D01*
X261701D02*
Y141000D01*
Y152000D02*
X268000D01*
Y148653D02*
Y152000D01*
X261701Y148653D02*
X268000D01*
X261701D02*
Y152000D01*
X396701Y130000D02*
X403000D01*
Y126654D02*
Y130000D01*
X396701Y126654D02*
X403000D01*
X396701D02*
Y130000D01*
Y141000D02*
X403000D01*
Y137654D02*
Y141000D01*
X396701Y137654D02*
X403000D01*
X396701D02*
Y141000D01*
Y152000D02*
X403000D01*
Y148653D02*
Y152000D01*
X396701Y148653D02*
X403000D01*
X396701D02*
Y152000D01*
X445201Y243500D02*
X451500D01*
Y240154D02*
Y243500D01*
X445201Y240154D02*
X451500D01*
X445201D02*
Y243500D01*
Y232500D02*
X451500D01*
Y229153D02*
Y232500D01*
X445201Y229153D02*
X451500D01*
X445201D02*
Y232500D01*
Y221500D02*
X451500D01*
Y218154D02*
Y221500D01*
X445201Y218154D02*
X451500D01*
X445201D02*
Y221500D01*
X317701Y243500D02*
X324000D01*
Y240154D02*
Y243500D01*
X317701Y240154D02*
X324000D01*
X317701D02*
Y243500D01*
Y232500D02*
X324000D01*
Y229153D02*
Y232500D01*
X317701Y229153D02*
X324000D01*
X317701D02*
Y232500D01*
Y221500D02*
X324000D01*
Y218154D02*
Y221500D01*
X317701Y218154D02*
X324000D01*
X317701D02*
Y221500D01*
X381701D02*
X388000D01*
Y218154D02*
Y221500D01*
X381701Y218154D02*
X388000D01*
X381701D02*
Y221500D01*
Y232500D02*
X388000D01*
Y229153D02*
Y232500D01*
X381701Y229153D02*
X388000D01*
X381701D02*
Y232500D01*
Y243500D02*
X388000D01*
Y240154D02*
Y243500D01*
X381701Y240154D02*
X388000D01*
X381701D02*
Y243500D01*
X227300Y367300D02*
Y371299D01*
X225301D01*
X224634Y370632D01*
Y369299D01*
X225301Y368633D01*
X227300D01*
X225967D02*
X224634Y367300D01*
X223301D02*
X221968D01*
X222635D01*
Y371299D01*
X223301Y370632D01*
X219969D02*
X219303Y371299D01*
X217970D01*
X217303Y370632D01*
Y369966D01*
X217970Y369299D01*
X217303Y368633D01*
Y367966D01*
X217970Y367300D01*
X219303D01*
X219969Y367966D01*
Y368633D01*
X219303Y369299D01*
X219969Y369966D01*
Y370632D01*
X219303Y369299D02*
X217970D01*
X196268Y395932D02*
Y399931D01*
X194269D01*
X193602Y399264D01*
Y397931D01*
X194269Y397265D01*
X196268D01*
X194935D02*
X193602Y395932D01*
X192269D02*
X190936D01*
X191603D01*
Y399931D01*
X192269Y399264D01*
X186271Y399931D02*
X187604Y399264D01*
X188937Y397931D01*
Y396599D01*
X188270Y395932D01*
X186938D01*
X186271Y396599D01*
Y397265D01*
X186938Y397931D01*
X188937D01*
X245600Y398400D02*
Y402399D01*
X243601D01*
X242934Y401732D01*
Y400399D01*
X243601Y399733D01*
X245600D01*
X244267D02*
X242934Y398400D01*
X241601Y402399D02*
X238935D01*
Y401732D01*
X241601Y399066D01*
Y398400D01*
X246000Y385000D02*
Y388999D01*
X244001D01*
X243334Y388332D01*
Y386999D01*
X244001Y386333D01*
X246000D01*
X244667D02*
X243334Y385000D01*
X239335Y388999D02*
X240668Y388332D01*
X242001Y386999D01*
Y385666D01*
X241335Y385000D01*
X240002D01*
X239335Y385666D01*
Y386333D01*
X240002Y386999D01*
X242001D01*
X276000Y385200D02*
Y389199D01*
X274001D01*
X273334Y388532D01*
Y387199D01*
X274001Y386533D01*
X276000D01*
X274667D02*
X273334Y385200D01*
X269336Y389199D02*
X272001D01*
Y387199D01*
X270668Y387866D01*
X270002D01*
X269336Y387199D01*
Y385866D01*
X270002Y385200D01*
X271335D01*
X272001Y385866D01*
X262368Y397632D02*
Y401631D01*
X260369D01*
X259702Y400964D01*
Y399631D01*
X260369Y398965D01*
X262368D01*
X261035D02*
X259702Y397632D01*
X256370D02*
Y401631D01*
X258369Y399631D01*
X255703D01*
X226934Y402032D02*
X227601Y402699D01*
X228934D01*
X229600Y402032D01*
Y399366D01*
X228934Y398700D01*
X227601D01*
X226934Y399366D01*
X225601Y398700D02*
X224268D01*
X224935D01*
Y402699D01*
X225601Y402032D01*
X219603Y402699D02*
X222269D01*
Y400699D01*
X220936Y401366D01*
X220270D01*
X219603Y400699D01*
Y399366D01*
X220270Y398700D01*
X221603D01*
X222269Y399366D01*
X234234Y462532D02*
X234901Y463199D01*
X236234D01*
X236900Y462532D01*
Y459866D01*
X236234Y459200D01*
X234901D01*
X234234Y459866D01*
X232901Y462532D02*
X232235Y463199D01*
X230902D01*
X230236Y462532D01*
Y461866D01*
X230902Y461199D01*
X230236Y460533D01*
Y459866D01*
X230902Y459200D01*
X232235D01*
X232901Y459866D01*
Y460533D01*
X232235Y461199D01*
X232901Y461866D01*
Y462532D01*
X232235Y461199D02*
X230902D01*
X275434Y421432D02*
X276101Y422099D01*
X277434D01*
X278100Y421432D01*
Y418766D01*
X277434Y418100D01*
X276101D01*
X275434Y418766D01*
X274101Y421432D02*
X273435Y422099D01*
X272102D01*
X271435Y421432D01*
Y420766D01*
X272102Y420099D01*
X272768D01*
X272102D01*
X271435Y419433D01*
Y418766D01*
X272102Y418100D01*
X273435D01*
X274101Y418766D01*
X275434Y271432D02*
X276101Y272099D01*
X277434D01*
X278100Y271432D01*
Y268766D01*
X277434Y268100D01*
X276101D01*
X275434Y268766D01*
X274101Y271432D02*
X273435Y272099D01*
X272102D01*
X271435Y271432D01*
Y270766D01*
X272102Y270099D01*
X272768D01*
X272102D01*
X271435Y269433D01*
Y268766D01*
X272102Y268100D01*
X273435D01*
X274101Y268766D01*
X234234Y312532D02*
X234901Y313199D01*
X236234D01*
X236900Y312532D01*
Y309866D01*
X236234Y309200D01*
X234901D01*
X234234Y309866D01*
X232901Y312532D02*
X232235Y313199D01*
X230902D01*
X230236Y312532D01*
Y311866D01*
X230902Y311199D01*
X230236Y310533D01*
Y309866D01*
X230902Y309200D01*
X232235D01*
X232901Y309866D01*
Y310533D01*
X232235Y311199D01*
X232901Y311866D01*
Y312532D01*
X232235Y311199D02*
X230902D01*
X226934Y252032D02*
X227601Y252699D01*
X228934D01*
X229600Y252032D01*
Y249366D01*
X228934Y248700D01*
X227601D01*
X226934Y249366D01*
X225601Y248700D02*
X224268D01*
X224935D01*
Y252699D01*
X225601Y252032D01*
X219603Y252699D02*
X222269D01*
Y250699D01*
X220936Y251366D01*
X220270D01*
X219603Y250699D01*
Y249366D01*
X220270Y248700D01*
X221603D01*
X222269Y249366D01*
X262368Y247632D02*
Y251631D01*
X260369D01*
X259702Y250964D01*
Y249631D01*
X260369Y248965D01*
X262368D01*
X261035D02*
X259702Y247632D01*
X256370D02*
Y251631D01*
X258369Y249631D01*
X255703D01*
X276000Y235200D02*
Y239199D01*
X274001D01*
X273334Y238532D01*
Y237199D01*
X274001Y236533D01*
X276000D01*
X274667D02*
X273334Y235200D01*
X269336Y239199D02*
X272001D01*
Y237199D01*
X270668Y237866D01*
X270002D01*
X269336Y237199D01*
Y235866D01*
X270002Y235200D01*
X271335D01*
X272001Y235866D01*
X246000Y235000D02*
Y238999D01*
X244001D01*
X243334Y238332D01*
Y236999D01*
X244001Y236333D01*
X246000D01*
X244667D02*
X243334Y235000D01*
X239335Y238999D02*
X240668Y238332D01*
X242001Y236999D01*
Y235666D01*
X241335Y235000D01*
X240002D01*
X239335Y235666D01*
Y236333D01*
X240002Y236999D01*
X242001D01*
X245600Y248400D02*
Y252399D01*
X243601D01*
X242934Y251732D01*
Y250399D01*
X243601Y249733D01*
X245600D01*
X244267D02*
X242934Y248400D01*
X241601Y252399D02*
X238935D01*
Y251732D01*
X241601Y249066D01*
Y248400D01*
X196268Y245932D02*
Y249931D01*
X194269D01*
X193602Y249264D01*
Y247931D01*
X194269Y247265D01*
X196268D01*
X194935D02*
X193602Y245932D01*
X192269D02*
X190936D01*
X191603D01*
Y249931D01*
X192269Y249264D01*
X186271Y249931D02*
X187604Y249264D01*
X188937Y247931D01*
Y246599D01*
X188270Y245932D01*
X186938D01*
X186271Y246599D01*
Y247265D01*
X186938Y247931D01*
X188937D01*
X227300Y217300D02*
Y221299D01*
X225301D01*
X224634Y220632D01*
Y219299D01*
X225301Y218633D01*
X227300D01*
X225967D02*
X224634Y217300D01*
X223301D02*
X221968D01*
X222635D01*
Y221299D01*
X223301Y220632D01*
X219969D02*
X219303Y221299D01*
X217970D01*
X217303Y220632D01*
Y219966D01*
X217970Y219299D01*
X217303Y218633D01*
Y217966D01*
X217970Y217300D01*
X219303D01*
X219969Y217966D01*
Y218633D01*
X219303Y219299D01*
X219969Y219966D01*
Y220632D01*
X219303Y219299D02*
X217970D01*
X490700Y418300D02*
X486701D01*
Y416301D01*
X487368Y415634D01*
X488701D01*
X489367Y416301D01*
Y418300D01*
Y416967D02*
X490700Y415634D01*
Y414301D02*
Y412968D01*
Y413635D01*
X486701D01*
X487368Y414301D01*
Y410969D02*
X486701Y410303D01*
Y408970D01*
X487368Y408303D01*
X488034D01*
X488701Y408970D01*
X489367Y408303D01*
X490034D01*
X490700Y408970D01*
Y410303D01*
X490034Y410969D01*
X489367D01*
X488701Y410303D01*
X488034Y410969D01*
X487368D01*
X488701Y410303D02*
Y408970D01*
X462068Y387268D02*
X458069D01*
Y385269D01*
X458736Y384602D01*
X460069D01*
X460735Y385269D01*
Y387268D01*
Y385935D02*
X462068Y384602D01*
Y383269D02*
Y381936D01*
Y382603D01*
X458069D01*
X458736Y383269D01*
X458069Y377271D02*
X458736Y378604D01*
X460069Y379937D01*
X461402D01*
X462068Y379271D01*
Y377938D01*
X461402Y377271D01*
X460735D01*
X460069Y377938D01*
Y379937D01*
X459600Y436600D02*
X455601D01*
Y434601D01*
X456268Y433934D01*
X457601D01*
X458267Y434601D01*
Y436600D01*
Y435267D02*
X459600Y433934D01*
X455601Y432601D02*
Y429936D01*
X456268D01*
X458934Y432601D01*
X459600D01*
X473000Y437000D02*
X469001D01*
Y435001D01*
X469668Y434334D01*
X471001D01*
X471667Y435001D01*
Y437000D01*
Y435667D02*
X473000Y434334D01*
X469001Y430336D02*
X469668Y431668D01*
X471001Y433001D01*
X472334D01*
X473000Y432335D01*
Y431002D01*
X472334Y430336D01*
X471667D01*
X471001Y431002D01*
Y433001D01*
X473666Y429003D02*
Y426337D01*
X473000Y425004D02*
Y423671D01*
Y424337D01*
X469001D01*
X469668Y425004D01*
X472800Y467000D02*
X468801D01*
Y465001D01*
X469468Y464334D01*
X470801D01*
X471467Y465001D01*
Y467000D01*
Y465667D02*
X472800Y464334D01*
X468801Y460335D02*
Y463001D01*
X470801D01*
X470134Y461668D01*
Y461002D01*
X470801Y460335D01*
X472134D01*
X472800Y461002D01*
Y462335D01*
X472134Y463001D01*
X460368Y453368D02*
X456369D01*
Y451369D01*
X457036Y450702D01*
X458369D01*
X459035Y451369D01*
Y453368D01*
Y452035D02*
X460368Y450702D01*
Y447370D02*
X456369D01*
X458369Y449369D01*
Y446703D01*
X455968Y417934D02*
X455301Y418601D01*
Y419934D01*
X455968Y420600D01*
X458634D01*
X459300Y419934D01*
Y418601D01*
X458634Y417934D01*
X459300Y416601D02*
Y415268D01*
Y415935D01*
X455301D01*
X455968Y416601D01*
X455301Y410603D02*
Y413269D01*
X457301D01*
X456634Y411936D01*
Y411270D01*
X457301Y410603D01*
X458634D01*
X459300Y411270D01*
Y412603D01*
X458634Y413269D01*
X395468Y425234D02*
X394801Y425901D01*
Y427234D01*
X395468Y427900D01*
X398134D01*
X398800Y427234D01*
Y425901D01*
X398134Y425234D01*
X395468Y423901D02*
X394801Y423235D01*
Y421902D01*
X395468Y421236D01*
X396134D01*
X396801Y421902D01*
X397467Y421236D01*
X398134D01*
X398800Y421902D01*
Y423235D01*
X398134Y423901D01*
X397467D01*
X396801Y423235D01*
X396134Y423901D01*
X395468D01*
X396801Y423235D02*
Y421902D01*
X399466Y419903D02*
Y417237D01*
X398800Y415904D02*
Y414571D01*
Y415237D01*
X394801D01*
X395468Y415904D01*
X436568Y466434D02*
X435901Y467101D01*
Y468434D01*
X436568Y469100D01*
X439234D01*
X439900Y468434D01*
Y467101D01*
X439234Y466434D01*
X436568Y465101D02*
X435901Y464435D01*
Y463102D01*
X436568Y462435D01*
X437234D01*
X437901Y463102D01*
Y463768D01*
Y463102D01*
X438567Y462435D01*
X439234D01*
X439900Y463102D01*
Y464435D01*
X439234Y465101D01*
X131166Y155668D02*
X130499Y155001D01*
X129166D01*
X128500Y155668D01*
Y158334D01*
X129166Y159000D01*
X130499D01*
X131166Y158334D01*
X132499Y156334D02*
X135164Y159000D01*
X133832Y157667D01*
X135164Y156334D01*
X132499Y159000D01*
X136497Y155668D02*
X137164Y155001D01*
X138497D01*
X139163Y155668D01*
Y156334D01*
X138497Y157001D01*
X137830D01*
X138497D01*
X139163Y157667D01*
Y158334D01*
X138497Y159000D01*
X137164D01*
X136497Y158334D01*
X139832Y136166D02*
X140499Y135499D01*
Y134167D01*
X139832Y133500D01*
X137167D01*
X136500Y134167D01*
Y135499D01*
X137167Y136166D01*
X139166Y137499D02*
X136500Y140164D01*
X137833Y138832D01*
X139166Y140164D01*
X136500Y137499D01*
Y144163D02*
Y141497D01*
X139166Y144163D01*
X139832D01*
X140499Y143497D01*
Y142164D01*
X139832Y141497D01*
X126666Y120668D02*
X125999Y120001D01*
X124667D01*
X124000Y120668D01*
Y123334D01*
X124667Y124000D01*
X125999D01*
X126666Y123334D01*
X127999Y121334D02*
X130665Y124000D01*
X129332Y122667D01*
X130665Y121334D01*
X127999Y124000D01*
X131997D02*
X133330D01*
X132664D01*
Y120001D01*
X131997Y120668D01*
X194666D02*
X193999Y120001D01*
X192666D01*
X192000Y120668D01*
Y123334D01*
X192666Y124000D01*
X193999D01*
X194666Y123334D01*
X195999Y121334D02*
X198664Y124000D01*
X197332Y122667D01*
X198664Y121334D01*
X195999Y124000D01*
X199997D02*
X201330D01*
X200664D01*
Y120001D01*
X199997Y120668D01*
X207832Y136166D02*
X208499Y135499D01*
Y134167D01*
X207832Y133500D01*
X205166D01*
X204500Y134167D01*
Y135499D01*
X205166Y136166D01*
X207166Y137499D02*
X204500Y140164D01*
X205833Y138832D01*
X207166Y140164D01*
X204500Y137499D01*
Y144163D02*
Y141497D01*
X207166Y144163D01*
X207832D01*
X208499Y143497D01*
Y142164D01*
X207832Y141497D01*
X199166Y155668D02*
X198499Y155001D01*
X197167D01*
X196500Y155668D01*
Y158334D01*
X197167Y159000D01*
X198499D01*
X199166Y158334D01*
X200499Y156334D02*
X203165Y159000D01*
X201832Y157667D01*
X203165Y156334D01*
X200499Y159000D01*
X204497Y155668D02*
X205164Y155001D01*
X206497D01*
X207163Y155668D01*
Y156334D01*
X206497Y157001D01*
X205830D01*
X206497D01*
X207163Y157667D01*
Y158334D01*
X206497Y159000D01*
X205164D01*
X204497Y158334D01*
X335166Y155668D02*
X334499Y155001D01*
X333166D01*
X332500Y155668D01*
Y158334D01*
X333166Y159000D01*
X334499D01*
X335166Y158334D01*
X336499Y156334D02*
X339164Y159000D01*
X337832Y157667D01*
X339164Y156334D01*
X336499Y159000D01*
X340497Y155668D02*
X341164Y155001D01*
X342497D01*
X343163Y155668D01*
Y156334D01*
X342497Y157001D01*
X341830D01*
X342497D01*
X343163Y157667D01*
Y158334D01*
X342497Y159000D01*
X341164D01*
X340497Y158334D01*
X343832Y136166D02*
X344499Y135499D01*
Y134167D01*
X343832Y133500D01*
X341166D01*
X340500Y134167D01*
Y135499D01*
X341166Y136166D01*
X343166Y137499D02*
X340500Y140164D01*
X341833Y138832D01*
X343166Y140164D01*
X340500Y137499D01*
Y144163D02*
Y141497D01*
X343166Y144163D01*
X343832D01*
X344499Y143497D01*
Y142164D01*
X343832Y141497D01*
X330666Y120668D02*
X329999Y120001D01*
X328666D01*
X328000Y120668D01*
Y123334D01*
X328666Y124000D01*
X329999D01*
X330666Y123334D01*
X331999Y121334D02*
X334665Y124000D01*
X333332Y122667D01*
X334665Y121334D01*
X331999Y124000D01*
X335997D02*
X337330D01*
X336664D01*
Y120001D01*
X335997Y120668D01*
X262666D02*
X261999Y120001D01*
X260666D01*
X260000Y120668D01*
Y123334D01*
X260666Y124000D01*
X261999D01*
X262666Y123334D01*
X263999Y121334D02*
X266665Y124000D01*
X265332Y122667D01*
X266665Y121334D01*
X263999Y124000D01*
X267997D02*
X269330D01*
X268664D01*
Y120001D01*
X267997Y120668D01*
X275832Y136166D02*
X276499Y135499D01*
Y134167D01*
X275832Y133500D01*
X273166D01*
X272500Y134167D01*
Y135499D01*
X273166Y136166D01*
X275166Y137499D02*
X272500Y140164D01*
X273833Y138832D01*
X275166Y140164D01*
X272500Y137499D01*
Y144163D02*
Y141497D01*
X275166Y144163D01*
X275832D01*
X276499Y143497D01*
Y142164D01*
X275832Y141497D01*
X267166Y155668D02*
X266499Y155001D01*
X265166D01*
X264500Y155668D01*
Y158334D01*
X265166Y159000D01*
X266499D01*
X267166Y158334D01*
X268499Y156334D02*
X271164Y159000D01*
X269832Y157667D01*
X271164Y156334D01*
X268499Y159000D01*
X272497Y155668D02*
X273164Y155001D01*
X274497D01*
X275163Y155668D01*
Y156334D01*
X274497Y157001D01*
X273830D01*
X274497D01*
X275163Y157667D01*
Y158334D01*
X274497Y159000D01*
X273164D01*
X272497Y158334D01*
X397666Y120668D02*
X396999Y120001D01*
X395666D01*
X395000Y120668D01*
Y123334D01*
X395666Y124000D01*
X396999D01*
X397666Y123334D01*
X398999Y121334D02*
X401664Y124000D01*
X400332Y122667D01*
X401664Y121334D01*
X398999Y124000D01*
X402997D02*
X404330D01*
X403664D01*
Y120001D01*
X402997Y120668D01*
X410832Y136166D02*
X411499Y135499D01*
Y134167D01*
X410832Y133500D01*
X408166D01*
X407500Y134167D01*
Y135499D01*
X408166Y136166D01*
X410166Y137499D02*
X407500Y140164D01*
X408833Y138832D01*
X410166Y140164D01*
X407500Y137499D01*
Y144163D02*
Y141497D01*
X410166Y144163D01*
X410832D01*
X411499Y143497D01*
Y142164D01*
X410832Y141497D01*
X402166Y155668D02*
X401499Y155001D01*
X400166D01*
X399500Y155668D01*
Y158334D01*
X400166Y159000D01*
X401499D01*
X402166Y158334D01*
X403499Y156334D02*
X406165Y159000D01*
X404832Y157667D01*
X406165Y156334D01*
X403499Y159000D01*
X407497Y155668D02*
X408164Y155001D01*
X409497D01*
X410163Y155668D01*
Y156334D01*
X409497Y157001D01*
X408830D01*
X409497D01*
X410163Y157667D01*
Y158334D01*
X409497Y159000D01*
X408164D01*
X407497Y158334D01*
X450666Y247168D02*
X449999Y246501D01*
X448666D01*
X448000Y247168D01*
Y249834D01*
X448666Y250500D01*
X449999D01*
X450666Y249834D01*
X451999Y247834D02*
X454665Y250500D01*
X453332Y249167D01*
X454665Y247834D01*
X451999Y250500D01*
X455997Y247168D02*
X456664Y246501D01*
X457997D01*
X458663Y247168D01*
Y247834D01*
X457997Y248501D01*
X457330D01*
X457997D01*
X458663Y249167D01*
Y249834D01*
X457997Y250500D01*
X456664D01*
X455997Y249834D01*
X459332Y227666D02*
X459999Y226999D01*
Y225666D01*
X459332Y225000D01*
X456666D01*
X456000Y225666D01*
Y226999D01*
X456666Y227666D01*
X458666Y228999D02*
X456000Y231664D01*
X457333Y230332D01*
X458666Y231664D01*
X456000Y228999D01*
Y235663D02*
Y232997D01*
X458666Y235663D01*
X459332D01*
X459999Y234997D01*
Y233664D01*
X459332Y232997D01*
X446166Y212168D02*
X445499Y211501D01*
X444166D01*
X443500Y212168D01*
Y214834D01*
X444166Y215500D01*
X445499D01*
X446166Y214834D01*
X447499Y212834D02*
X450165Y215500D01*
X448832Y214167D01*
X450165Y212834D01*
X447499Y215500D01*
X451497D02*
X452830D01*
X452164D01*
Y211501D01*
X451497Y212168D01*
X323166Y247168D02*
X322499Y246501D01*
X321166D01*
X320500Y247168D01*
Y249834D01*
X321166Y250500D01*
X322499D01*
X323166Y249834D01*
X324499Y247834D02*
X327165Y250500D01*
X325832Y249167D01*
X327165Y247834D01*
X324499Y250500D01*
X328497Y247168D02*
X329164Y246501D01*
X330497D01*
X331163Y247168D01*
Y247834D01*
X330497Y248501D01*
X329830D01*
X330497D01*
X331163Y249167D01*
Y249834D01*
X330497Y250500D01*
X329164D01*
X328497Y249834D01*
X331832Y227666D02*
X332499Y226999D01*
Y225666D01*
X331832Y225000D01*
X329166D01*
X328500Y225666D01*
Y226999D01*
X329166Y227666D01*
X331166Y228999D02*
X328500Y231664D01*
X329833Y230332D01*
X331166Y231664D01*
X328500Y228999D01*
Y235663D02*
Y232997D01*
X331166Y235663D01*
X331832D01*
X332499Y234997D01*
Y233664D01*
X331832Y232997D01*
X318666Y212168D02*
X317999Y211501D01*
X316666D01*
X316000Y212168D01*
Y214834D01*
X316666Y215500D01*
X317999D01*
X318666Y214834D01*
X319999Y212834D02*
X322664Y215500D01*
X321332Y214167D01*
X322664Y212834D01*
X319999Y215500D01*
X323997D02*
X325330D01*
X324664D01*
Y211501D01*
X323997Y212168D01*
X382666D02*
X381999Y211501D01*
X380666D01*
X380000Y212168D01*
Y214834D01*
X380666Y215500D01*
X381999D01*
X382666Y214834D01*
X383999Y212834D02*
X386665Y215500D01*
X385332Y214167D01*
X386665Y212834D01*
X383999Y215500D01*
X387997D02*
X389330D01*
X388664D01*
Y211501D01*
X387997Y212168D01*
X395832Y227666D02*
X396499Y226999D01*
Y225666D01*
X395832Y225000D01*
X393166D01*
X392500Y225666D01*
Y226999D01*
X393166Y227666D01*
X395166Y228999D02*
X392500Y231664D01*
X393833Y230332D01*
X395166Y231664D01*
X392500Y228999D01*
Y235663D02*
Y232997D01*
X395166Y235663D01*
X395832D01*
X396499Y234997D01*
Y233664D01*
X395832Y232997D01*
X387166Y247168D02*
X386499Y246501D01*
X385166D01*
X384500Y247168D01*
Y249834D01*
X385166Y250500D01*
X386499D01*
X387166Y249834D01*
X388499Y247834D02*
X391164Y250500D01*
X389832Y249167D01*
X391164Y247834D01*
X388499Y250500D01*
X392497Y247168D02*
X393164Y246501D01*
X394497D01*
X395163Y247168D01*
Y247834D01*
X394497Y248501D01*
X393830D01*
X394497D01*
X395163Y249167D01*
Y249834D01*
X394497Y250500D01*
X393164D01*
X392497Y249834D01*
D82*
X179300Y364500D02*
Y369498D01*
X176801D01*
X175968Y368665D01*
Y366999D01*
X176801Y366166D01*
X179300D01*
X174302Y369498D02*
X172635D01*
X173469D01*
Y364500D01*
X174302D01*
X172635D01*
X170136D02*
Y369498D01*
X167637D01*
X166804Y368665D01*
Y366999D01*
X167637Y366166D01*
X170136D01*
X168470D02*
X166804Y364500D01*
X165138D02*
X163472D01*
X164305D01*
Y369498D01*
X165138Y368665D01*
X179300Y214500D02*
Y219498D01*
X176801D01*
X175968Y218665D01*
Y216999D01*
X176801Y216166D01*
X179300D01*
X174302Y219498D02*
X172635D01*
X173469D01*
Y214500D01*
X174302D01*
X172635D01*
X170136D02*
Y219498D01*
X167637D01*
X166804Y218665D01*
Y216999D01*
X167637Y216166D01*
X170136D01*
X168470D02*
X166804Y214500D01*
X165138D02*
X163472D01*
X164305D01*
Y219498D01*
X165138Y218665D01*
X493500Y370300D02*
X488502D01*
Y367801D01*
X489335Y366968D01*
X491001D01*
X491834Y367801D01*
Y370300D01*
X488502Y365302D02*
Y363635D01*
Y364469D01*
X493500D01*
Y365302D01*
Y363635D01*
Y361136D02*
X488502D01*
Y358637D01*
X489335Y357804D01*
X491001D01*
X491834Y358637D01*
Y361136D01*
Y359470D02*
X493500Y357804D01*
Y356138D02*
Y354472D01*
Y355305D01*
X488502D01*
X489335Y356138D01*
X158332Y174835D02*
X157499Y174002D01*
X155833D01*
X155000Y174835D01*
Y178167D01*
X155833Y179000D01*
X157499D01*
X158332Y178167D01*
X159998Y179000D02*
X161664D01*
X160831D01*
Y174002D01*
X159998Y174835D01*
X226332D02*
X225499Y174002D01*
X223833D01*
X223000Y174835D01*
Y178167D01*
X223833Y179000D01*
X225499D01*
X226332Y178167D01*
X227998Y179000D02*
X229664D01*
X228831D01*
Y174002D01*
X227998Y174835D01*
X362332D02*
X361499Y174002D01*
X359833D01*
X359000Y174835D01*
Y178167D01*
X359833Y179000D01*
X361499D01*
X362332Y178167D01*
X363998Y179000D02*
X365665D01*
X364831D01*
Y174002D01*
X363998Y174835D01*
X294332D02*
X293499Y174002D01*
X291833D01*
X291000Y174835D01*
Y178167D01*
X291833Y179000D01*
X293499D01*
X294332Y178167D01*
X295998Y179000D02*
X297664D01*
X296831D01*
Y174002D01*
X295998Y174835D01*
X429332D02*
X428499Y174002D01*
X426833D01*
X426000Y174835D01*
Y178167D01*
X426833Y179000D01*
X428499D01*
X429332Y178167D01*
X430998Y179000D02*
X432664D01*
X431831D01*
Y174002D01*
X430998Y174835D01*
X477832Y266335D02*
X476999Y265502D01*
X475333D01*
X474500Y266335D01*
Y269667D01*
X475333Y270500D01*
X476999D01*
X477832Y269667D01*
X479498Y270500D02*
X481165D01*
X480331D01*
Y265502D01*
X479498Y266335D01*
X350332D02*
X349499Y265502D01*
X347833D01*
X347000Y266335D01*
Y269667D01*
X347833Y270500D01*
X349499D01*
X350332Y269667D01*
X351998Y270500D02*
X353664D01*
X352831D01*
Y265502D01*
X351998Y266335D01*
X414332D02*
X413499Y265502D01*
X411833D01*
X411000Y266335D01*
Y269667D01*
X411833Y270500D01*
X413499D01*
X414332Y269667D01*
X415998Y270500D02*
X417664D01*
X416831D01*
Y265502D01*
X415998Y266335D01*
D135*
X245735Y420748D02*
G03*
X245735Y420748I-1438J0D01*
G01*
Y270748D02*
G03*
X245735Y270748I-1438J0D01*
G01*
X438690Y435297D02*
G03*
X438690Y435297I-1438J0D01*
G01*
D136*
X97754Y417982D02*
Y433730D01*
X114289D01*
Y440816D01*
X120194Y426900D02*
Y462076D01*
X97754Y440816D02*
X114289D01*
X97754D02*
Y447903D01*
X114289D01*
Y454990D01*
X97754D02*
X114289D01*
X97754D02*
Y462076D01*
X126100D01*
X97754Y267982D02*
Y283730D01*
X114289D01*
Y290816D01*
X120194Y276900D02*
Y312076D01*
X97754Y290816D02*
X114289D01*
X97754D02*
Y297903D01*
X114289D01*
Y304990D01*
X97754D02*
X114289D01*
X97754D02*
Y312076D01*
X126100D01*
X424270Y288754D02*
X440018D01*
X424270D02*
Y305289D01*
X417183D02*
X424270D01*
X395924Y311194D02*
X431100D01*
X417183Y288754D02*
Y305289D01*
X410097Y288754D02*
X417183D01*
X410097D02*
Y305289D01*
X403010D02*
X410097D01*
X403010Y288754D02*
Y305289D01*
X395924Y288754D02*
X403010D01*
X395924D02*
Y317100D01*
D137*
X126100Y465226D02*
X181218D01*
X126100Y417982D02*
X181218D01*
X126100D02*
Y465226D01*
X181218Y417982D02*
Y465226D01*
X126100Y315226D02*
X181218D01*
X126100Y267982D02*
X181218D01*
X126100D02*
Y315226D01*
X181218Y267982D02*
Y315226D01*
X392774Y317100D02*
Y372218D01*
X440018Y317100D02*
Y372218D01*
X392774Y317100D02*
X440018D01*
X392774Y372218D02*
X440018D01*
D138*
X216218Y393082D02*
D03*
Y243082D02*
D03*
X161550Y167050D02*
D03*
X229550D02*
D03*
X365550D02*
D03*
X297550D02*
D03*
X432550D02*
D03*
X481050Y258550D02*
D03*
X353550D02*
D03*
X417550D02*
D03*
D139*
X266041Y423750D02*
D03*
X266042Y273750D02*
D03*
X464918Y407218D02*
D03*
D140*
X256872Y481103D02*
D03*
Y331103D02*
D03*
D141*
X434250Y457042D02*
D03*
D142*
X376896Y447872D02*
D03*
M02*
