M48
;Layer_Color=9474304
;FILE_FORMAT=2:5
INCH,LZ
;TYPE=PLATED
T1F00S00C0.01575
T2F00S00C0.01800
T3F00S00C0.02400
T4F00S00C0.02559
T5F00S00C0.03150
T7F00S00C0.03200
T9F00S00C0.04331
T10F00S00C0.12200
%
T01
X0170295Y0097689
X0173051Y0103201
Y01095
X0166752
Y0103201
Y0115799
X0173051
X0170295Y0121311
Y0333989
X0173051Y0339501
X0166752
X0272389Y0369995
X0277901Y0372751
X02842
Y0366452
X0290499
Y0372751
X0296011Y0369995
X0277901Y0366452
X0170295Y0357611
X0173051Y0352099
Y03458
X0166752
Y0352099
T02
X00419Y00215
X00875Y00109
X02287Y00039
Y002
X02505Y00108
X02465Y0006
X02967Y00039
Y002
X03185Y00108
X03145Y0006
X03641Y00039
Y002
X03859Y00108
X03819Y0006
X03641Y00404
X03734Y00598
X03821Y00731
X03819Y01075
X03859Y01123
X03641Y01054
Y01215
Y01419
X03734Y01613
X03821Y01746
X03538Y01641
X03147Y01746
X0306Y01613
X02864Y01641
X02967Y01419
Y01215
Y01054
X03145Y01075
X03185Y01123
X03147Y00731
X0306Y00598
X02864Y00626
X02967Y00404
X03538Y00626
X02467Y00731
X0238Y00598
X02184Y00626
X02287Y00404
Y01054
Y01215
Y01419
X0238Y01613
X02467Y01746
X02184Y01641
X02505Y01123
X02465Y01075
X01377Y00897
X01388Y00827
X0137717Y0076983
X01084Y00585
X01093Y00985
X00539Y01044
X00469
X00592Y01219
X0008Y01209
X0026Y00584
X00588Y00336
X00897Y00323
X00817Y00477
X00875Y02472
X00897Y02686
X00817Y0284
X00588Y02699
X00419Y02578
X0026Y02947
X00469Y03407
X00539
X01093Y03348
X01377Y0326
X01388Y0319
X0137717Y0313283
X01084Y02948
X02718Y02589
X02893Y02536
Y02466
X02728Y02077
X03353Y02257
X03722Y02416
X03601Y02585
X03614Y02894
X0346Y02814
X03352Y03081
X02952Y0309
X0304Y03374
X0311Y03385
X0316717Y0337417
X03828Y02872
X00592Y03582
X0008Y03572
T03
X01441Y00089
X02081Y00041
X02761
X03435
X0354Y00487
X02866
X02761Y01056
X02866Y01502
X0354
X03435Y01056
X02081
X02186Y01502
X01508Y01533
X0154Y01423
X01556Y01295
X01514Y00939
X01307Y00715
X01055Y00735
X01049Y00432
X01441Y00488
X02186Y00487
X01064Y01217
X00857Y00942
X00912Y00649
X00655Y00524
X00515Y00569
X00381Y00845
Y00989
X00265Y01192
X00043Y01325
Y01005
Y00685
X00539Y01533
X00515Y02932
X00655Y02887
X00912Y03012
X00857Y03305
X00381Y03352
Y03208
X00043Y03368
Y03048
X01055Y03098
X01307Y03078
X01441Y02851
Y02452
X01049Y02795
X01514Y03302
X02404Y02536
X02745Y02262
X02948Y02378
X03092
X03368Y02512
X03413Y02652
X03288Y02909
X03202Y03052
X03222Y03304
X03505Y03046
X02995Y02854
X0272Y03061
X02612Y0204
X02932
X03252
X03449Y03438
X03848
X02998Y03511
X02642Y03553
X02514Y03537
X02404Y03505
X01556Y03658
X0154Y03786
X01508Y03896
X01064Y0358
X00265Y03555
X00043Y03688
X00539Y03896
T04
X01205Y01035
X01305
Y03398
X01205
X02902Y03302
Y03202
T05
X00085Y00095
Y00195
X01163Y00089
X01271
X01705Y00095
Y00195
X01845
Y00095
X02788Y00805
X02888
X02988
X03088
X03188
X03462
X03562
X03662
X03762
X03862
Y0182
X03762
X03662
X03562
X03462
X03188
X03088
X02988
X02888
X02788
X02508
X02408
X02308
X02208
X02108
Y00805
X02208
X02308
X02408
X02508
X01845Y00495
Y00395
Y00295
X01705
Y00395
Y00495
X00085Y00395
Y00295
Y02458
Y02558
Y02658
Y02758
X01163Y02452
X01271
X01705Y02458
Y02558
Y02658
Y02758
Y02858
X01845
Y02758
Y02658
Y02558
Y02458
X03542Y02082
X03642
X03742
X03842
X03848Y0316
Y03268
X03842Y03702
X03742
X03642
X03542
X03442
Y03842
X03542
X03642
X03742
X03842
T07
X00505Y00075
X00705
X00605Y00202
X00705Y02438
X00505
X00605Y02565
X03735Y02602
X03862Y02702
Y02502
T09
X01385Y00657
X01525
X01865
Y00835
X01205Y01515
X001Y01504
X01385Y0302
X01525
X01865
Y03198
X02422Y03202
X02433Y02097
X0328Y03382
Y03522
Y03862
X03102
X01205Y03878
X001Y03867
T10
X00285Y00135
X02484Y0029
X03164
X03838
Y01305
X03164
X02484
X01823Y01464
X00285Y02498
X03802Y02282
X02473Y0382
X01823Y03827
M30
