M48
;Layer_Color=9474304
;FILE_FORMAT=2:5
INCH,LZ
;TYPE=PLATED
T1F00S00C0.01575
T2F00S00C0.01800
T3F00S00C0.02400
T4F00S00C0.02559
T5F00S00C0.03150
T7F00S00C0.03200
T9F00S00C0.04331
T10F00S00C0.12200
%
T01
X0450395Y-0441211
X0453151Y-0435699
Y-04294
X0446852
Y-0435699
Y-0423101
X0453151
X0450395Y-0417589
Y-0291211
X0453151Y-0285699
Y-02794
X0446852
Y-0285699
Y-0273101
X0453151
X0450395Y-0267589
X0579589Y-0273605
X0585101Y-0270849
X05914
Y-0277148
X0597699
Y-0270849
X0603211Y-0273605
X0585101Y-0277148
X0170295Y0097689
X0173051Y0103201
X0166752
Y01095
Y0115799
X0173051
Y01095
X0170295Y0121311
Y0333989
X0173051Y0339501
X0166752
Y03458
Y0352099
X0173051
Y03458
X0170295Y0357611
X0272389Y0369995
X0277901Y0372751
Y0366452
X02842
X0290499
Y0372751
X02842
X0296011Y0369995
T02
X0337Y-05965
Y-0584
X03385Y-0576
X03265Y-05802
X03945
X0405Y-0584
X04065Y-0576
X0405Y-05965
X04133Y-05031
X04162Y-04941
X03992Y-04965
X03898Y-04819
X04058Y-04638
X04412Y-04598
X04381Y-04994
X042Y-04355
X03525Y-04354
X03455
X03578Y-04179
X03538Y-04615
X03246Y-04814
X03066Y-04189
X03246Y-03314
X03538Y-03115
X03525Y-02854
X03455
X03578Y-02679
X03066Y-02689
X042Y-02855
X04058Y-03138
X03898Y-03319
X03992Y-03465
X04162Y-03441
X04133Y-03531
X04381Y-03494
X04412Y-03098
X05975Y-0304
X05974Y-03715
Y-03785
X05799Y-03662
X05809Y-04174
X05825Y-04887
X0593Y-04925
X05945Y-04845
X0593Y-0505
X0529
Y-04925
X05305Y-04845
X05185Y-04887
X05305Y-05802
X0541Y-0584
X05425Y-0576
X0541Y-05965
X0608
Y-0584
X06095Y-0576
X05975Y-05802
X04745Y-0576
X0473Y-0584
Y-05965
X04625Y-05802
X06565Y-0505
Y-04925
X0658Y-04845
X0646Y-04887
X06434Y-03994
X06235Y-03702
X06258Y-03182
X06439Y-03342
X06585Y-03248
X06561Y-03078
X06651Y-03107
X06614Y-02859
X06218Y-02828
X03819Y0006
X03859Y00108
X03641Y00039
Y002
Y00404
X03734Y00598
X03821Y00731
X03819Y01075
X03859Y01123
X03641Y01054
Y01215
Y01419
X03185Y01123
X03145Y01075
X03147Y00731
X0306Y00598
X03538Y00626
X03185Y00108
X03145Y0006
X02967Y00039
Y002
Y00404
X02864Y00626
X02467Y00731
X0238Y00598
X02184Y00626
X02287Y00404
Y002
Y00039
X02465Y0006
X02505Y00108
X02465Y01075
X02505Y01123
X02287Y01054
Y01215
Y01419
X02967
Y01215
Y01054
X01377Y00897
X01388Y00827
X0137717Y0076983
X01084Y00585
X00817Y00477
X00897Y00323
X00875Y00109
X00588Y00336
X00419Y00215
X0026Y00584
X00469Y01044
X00539
X00592Y01219
X0008Y01209
X01093Y00985
X00875Y02472
X00897Y02686
X00817Y0284
X00588Y02699
X00419Y02578
X0026Y02947
X01084Y02948
X02718Y02589
X02893Y02536
Y02466
X02728Y02077
X02864Y01641
X02467Y01746
X0238Y01613
X02184Y01641
X02952Y0309
X03352Y03081
X0346Y02814
X03614Y02894
X03828Y02872
X03601Y02585
X03722Y02416
X03353Y02257
X03147Y01746
X0306Y01613
X03538Y01641
X03734Y01613
X03821Y01746
X0316717Y0337417
X0311Y03385
X0304Y03374
X01377Y0326
X01388Y0319
X0137717Y0313283
X01093Y03348
X00539Y03407
X00469
X00592Y03582
X0008Y03572
T03
X03099Y-05687
X03779
X04459
X04503Y-04779
X03841Y-04639
X03579Y-0481
X03367Y-04409
X03199Y-03941
X03579Y-0331
X03841Y-03139
X04082Y-02765
X0405Y-02681
X04526Y-02475
X04503Y-03279
X04526Y-03975
X0405Y-04181
X04082Y-04265
X03367Y-02909
X03199Y-02441
X05595Y-02714
X05801Y-0319
X05885Y-03158
X06029Y-03873
X05561Y-04041
X05659Y-04772
X05019
X05139Y-05687
X05809
X06294Y-04772
X0643Y-03661
X06259Y-03399
X06399Y-02737
X03435Y00041
X0354Y00487
X03435Y01056
X0354Y01502
X02866
X02761Y01056
X02866Y00487
X02761Y00041
X02081
X02186Y00487
X02081Y01056
X02186Y01502
X01508Y01533
X0154Y01423
X01556Y01295
X01514Y00939
X01441Y00488
Y00089
X01049Y00432
X01055Y00735
X00912Y00649
X00857Y00942
X01064Y01217
X01307Y00715
X00655Y00524
X00515Y00569
X00381Y00845
Y00989
X00265Y01192
X00043Y01325
Y01005
Y00685
X00539Y01533
X00515Y02932
X00655Y02887
X00912Y03012
X01055Y03098
X01307Y03078
X01049Y02795
X00043Y03048
X01441Y02851
Y02452
X02404Y02536
X02745Y02262
X02948Y02378
X02932Y0204
X02612
X0272Y03061
X02995Y02854
X03288Y02909
X03202Y03052
X03505Y03046
X03413Y02652
X03368Y02512
X03092Y02378
X03252Y0204
X03222Y03304
X03449Y03438
X03848
X02998Y03511
X02642Y03553
X02514Y03537
X02404Y03505
X01556Y03658
X0154Y03786
X01508Y03896
X01514Y03302
X00857Y03305
X01064Y0358
X00265Y03555
X00381Y03352
Y03208
X00043Y03368
Y03688
X00539Y03896
T04
X01205Y01035
X01305
X02902Y03202
Y03302
X01305Y03398
X01205
T05
X03145Y-0544
X03245
X03345
X03445
X03545
X03825
X03925
X04025
X04125
X04225
X04505
X04306Y-05114
X04206
X03586Y-04934
X03486
X03386
X03286
Y-03434
X03386
X03486
X03586
X04206Y-03614
X04306
X04726Y-03454
Y-03354
Y-03254
Y-03154
Y-03054
Y-04554
Y-04654
Y-04754
Y-04854
Y-04954
X04705Y-0544
X04805
X04905
X05185
X05285
X05385
X05485
X05585
X05855
X05955
X06055
X06105Y-04525
X06005
X05905
X05805
X05705
X05465
X05365
X05265
X05165
X05065
X04605Y-0544
X06155
X06255
X0634Y-04525
X0644
X0654
X0664
X0674
X06554Y-03954
Y-03854
Y-03754
Y-03654
X06734Y-03034
Y-02934
X06574Y-02514
X06474
X06374
X06274
X06174
X03862Y00805
X03762
X03662
X03562
X03462
X03188
X03088
X02988
X02888
X02788
X02508
X02408
X02308
X02208
X02108
X01845Y00495
Y00395
Y00295
Y00195
Y00095
X01705
Y00195
Y00295
Y00395
Y00495
X01271Y00089
X01163
X00085Y00095
Y00195
Y00295
Y00395
Y02458
Y02558
Y02658
Y02758
X01163Y02452
X01271
X01705Y02458
Y02558
Y02658
Y02758
Y02858
X01845
Y02758
Y02658
Y02558
Y02458
X02108Y0182
X02208
X02308
X02408
X02508
X02788
X02888
X02988
X03088
X03188
X03462
X03562
X03662
X03762
X03862
X03842Y02082
X03742
X03642
X03542
X03848Y0316
Y03268
X03842Y03702
X03742
X03642
X03542
X03442
Y03842
X03542
X03642
X03742
X03842
T07
X03686Y-0511
X03888
X03786Y-04994
X03686Y-0361
X03888
X03786Y-03494
X06614Y-03454
X0673Y-03554
Y-03352
X00705Y00075
X00505
X00605Y00202
X00705Y02438
X00505
X00605Y02565
X03735Y02602
X03862Y02702
Y02502
T09
X03086Y-03894
X04146
X04466Y-03614
Y-05114
X04146Y-02394
X03086
X04846Y-02754
Y-02901
X0480532Y-0361432
X04846Y-04254
Y-04401
X0480532Y-0511432
X05514Y-04154
Y-03094
X05874Y-02394
X06021
X0673432Y-0243468
X06734Y-02774
X01865Y00657
Y00835
X01525Y00657
X01385
X01205Y01515
X001Y01504
X01385Y0302
X01525
X01865
X02433Y02097
X0328Y03382
Y03522
Y03862
X03102
X02422Y03202
X01865Y03198
X01205Y03878
X001Y03867
T10
X03096Y-05074
Y-03574
X04809Y-03934
Y-02434
X05554Y-02431
X06694Y-04144
X03838Y0029
X03164
Y01305
X03838
X02484
X01823Y01464
X02484Y0029
X00285Y00135
Y02498
X03802Y02282
X02473Y0382
X01823Y03827
M30
