%FSLAX25Y25*%
%MOIN*%
G70*
G01*
G75*
%ADD10R,0.01772X0.06299*%
%ADD11R,0.06299X0.13386*%
%ADD12R,0.01654X0.05512*%
%ADD13R,0.05512X0.07087*%
%ADD14R,0.05000X0.03500*%
%ADD15R,0.09000X0.15000*%
%ADD16R,0.08465X0.05000*%
%ADD17R,0.15000X0.28000*%
%ADD18R,0.07874X0.15748*%
%ADD19R,0.05906X0.15748*%
%ADD20R,0.06600X0.01700*%
%ADD21R,0.07087X0.05512*%
%ADD22R,0.11024X0.07874*%
%ADD23R,0.03300X0.03150*%
%ADD24R,0.04724X0.04724*%
%ADD25R,0.03937X0.05906*%
%ADD26R,0.05906X0.03937*%
%ADD27R,0.15748X0.07874*%
%ADD28R,0.03500X0.05000*%
%ADD29R,0.15748X0.05906*%
%ADD30R,0.07874X0.11024*%
%ADD31R,0.04724X0.04724*%
%ADD32R,0.05512X0.01654*%
%ADD33R,0.06299X0.01772*%
%ADD34R,0.13386X0.06299*%
%ADD35R,0.15000X0.09000*%
%ADD36R,0.05000X0.08465*%
%ADD37R,0.28000X0.15000*%
%ADD38C,0.04000*%
%ADD39C,0.01800*%
%ADD40C,0.02000*%
%ADD41C,0.01500*%
%ADD42C,0.02500*%
%ADD43C,0.03000*%
%ADD44C,0.01000*%
%ADD45C,0.05000*%
%ADD46R,0.27700X0.02100*%
%ADD47R,0.01900X0.03800*%
%ADD48R,0.35700X0.03400*%
%ADD49R,0.02100X0.27700*%
%ADD50R,0.03800X0.01900*%
%ADD51R,0.03400X0.35700*%
%ADD52R,0.08200X0.15600*%
%ADD53R,0.05512X0.07874*%
%ADD54R,0.05118X0.07874*%
%ADD55C,0.07874*%
%ADD56C,0.07087*%
%ADD57R,0.07874X0.05512*%
%ADD58R,0.07874X0.05118*%
%ADD59C,0.15800*%
%ADD60C,0.03937*%
%ADD61C,0.04000*%
%ADD62C,0.05000*%
%ADD63C,0.06000*%
%ADD64R,0.26000X0.28400*%
%ADD65R,0.03000X0.10000*%
%ADD66R,0.10000X0.20000*%
%ADD67R,0.09449X0.04724*%
%ADD68R,0.04724X0.11024*%
%ADD69R,0.09843X0.14961*%
%ADD70R,0.14961X0.09843*%
%ADD71R,0.20000X0.10000*%
%ADD72R,0.10000X0.03000*%
%ADD73R,0.04724X0.09449*%
%ADD74R,0.11024X0.04724*%
%ADD75R,0.28400X0.26000*%
%ADD76C,0.03500*%
%ADD77R,0.21028X0.12517*%
%ADD78R,0.12517X0.21028*%
%ADD79R,0.20200X0.15600*%
%ADD80C,0.00200*%
%ADD81C,0.00394*%
%ADD82C,0.00591*%
%ADD83C,0.00787*%
%ADD84C,0.00500*%
%ADD85C,0.00050*%
%ADD86C,0.00800*%
%ADD87R,0.02300X0.06299*%
%ADD88R,0.12100X0.11300*%
%ADD89R,0.06299X0.02100*%
%ADD90R,0.06299X0.02300*%
%ADD91R,0.02100X0.06299*%
%ADD92R,0.11300X0.12100*%
D44*
X139228Y393267D02*
G03*
X136866Y390905I0J-2362D01*
G01*
X166000Y390905D02*
G03*
X163638Y393267I-2362J0D01*
G01*
Y364133D02*
G03*
X166000Y366495I0J2362D01*
G01*
X136866Y366495D02*
G03*
X139228Y364133I2362J0D01*
G01*
X236733Y338928D02*
G03*
X239095Y336566I2362J0D01*
G01*
X239095Y365700D02*
G03*
X236733Y363338I0J-2362D01*
G01*
X265867D02*
G03*
X263505Y365700I-2362J0D01*
G01*
X263505Y336566D02*
G03*
X265867Y338928I0J2362D01*
G01*
X139228Y156967D02*
G03*
X136866Y154605I0J-2362D01*
G01*
X166000Y154605D02*
G03*
X163638Y156967I-2362J0D01*
G01*
Y127833D02*
G03*
X166000Y130195I0J2362D01*
G01*
X136866Y130195D02*
G03*
X139228Y127833I2362J0D01*
G01*
X40279Y362701D02*
Y369000D01*
X27681Y362701D02*
X40279D01*
X27681D02*
Y369000D01*
X40279D01*
X136866Y366495D02*
Y390905D01*
X139228Y393267D02*
X163638D01*
X166000Y366495D02*
Y390905D01*
X139228Y364133D02*
X163638D01*
X351200Y75500D02*
Y85500D01*
X341200Y75500D02*
X391200D01*
X341200D02*
Y85500D01*
X391200D01*
Y75500D02*
Y85500D01*
X381200Y75500D02*
Y85500D01*
X371200Y75500D02*
Y85500D01*
X361200Y75500D02*
Y85400D01*
X83700Y248021D02*
Y260619D01*
X77401D02*
X83700D01*
X77401Y248021D02*
Y260619D01*
Y248021D02*
X83700D01*
X117600Y373705D02*
X127443D01*
Y361106D02*
Y373705D01*
X117600Y361106D02*
X127443D01*
X117600D02*
Y373705D01*
X351000Y126681D02*
Y139279D01*
Y126681D02*
X357299D01*
Y139279D01*
X351000D02*
X357299D01*
X351200Y177000D02*
Y187000D01*
X341200Y177000D02*
X391200D01*
X341200D02*
Y187000D01*
X391200D01*
Y177000D02*
Y187000D01*
X381200Y177000D02*
Y187000D01*
X371200Y177000D02*
Y187000D01*
X361200Y177000D02*
Y186900D01*
X283600Y126681D02*
Y139279D01*
Y126681D02*
X289899D01*
Y139279D01*
X283600D02*
X289899D01*
X283800Y177000D02*
Y187000D01*
X273800Y177000D02*
X323800D01*
X273800D02*
Y187000D01*
X323800D01*
Y177000D02*
Y187000D01*
X313800Y177000D02*
Y187000D01*
X303800Y177000D02*
Y187000D01*
X293800Y177000D02*
Y186900D01*
X215600Y126681D02*
Y139279D01*
Y126681D02*
X221899D01*
Y139279D01*
X215600D02*
X221899D01*
X215800Y177000D02*
Y187000D01*
X205800Y177000D02*
X255800D01*
X205800D02*
Y187000D01*
X255800D01*
Y177000D02*
Y187000D01*
X245800Y177000D02*
Y187000D01*
X235800Y177000D02*
Y187000D01*
X225800Y177000D02*
Y186900D01*
X215800Y75500D02*
Y85500D01*
X205800Y75500D02*
X255800D01*
X205800D02*
Y85500D01*
X255800D01*
Y75500D02*
Y85500D01*
X245800Y75500D02*
Y85500D01*
X235800Y75500D02*
Y85500D01*
X225800Y75500D02*
Y85400D01*
X215600Y25181D02*
Y37780D01*
Y25181D02*
X221899D01*
Y37780D01*
X215600D02*
X221899D01*
X283800Y75500D02*
Y85500D01*
X273800Y75500D02*
X323800D01*
X273800D02*
Y85500D01*
X323800D01*
Y75500D02*
Y85500D01*
X313800Y75500D02*
Y85500D01*
X303800Y75500D02*
Y85500D01*
X293800Y75500D02*
Y85400D01*
X283600Y25181D02*
Y37780D01*
Y25181D02*
X289899D01*
Y37780D01*
X283600D02*
X289899D01*
X351000Y25181D02*
Y37780D01*
Y25181D02*
X357299D01*
Y37780D01*
X351000D02*
X357299D01*
X353400Y244421D02*
Y257019D01*
X347101D02*
X353400D01*
X347101Y244421D02*
Y257019D01*
Y244421D02*
X353400D01*
X261000Y239980D02*
X267299D01*
Y227381D02*
Y239980D01*
X261000Y227381D02*
X267299D01*
X261000D02*
Y239980D01*
X369381Y283400D02*
X381979D01*
X369381Y277101D02*
Y283400D01*
Y277101D02*
X381979D01*
Y283400D01*
X239095Y336566D02*
X263505D01*
X236733Y338928D02*
Y363338D01*
X239095Y365700D02*
X263505D01*
X265867Y338928D02*
Y363338D01*
X256295Y317300D02*
Y327143D01*
X268894D01*
Y317300D02*
Y327143D01*
X256295Y317300D02*
X268894D01*
X44721Y40300D02*
X57319D01*
Y46599D01*
X44721D02*
X57319D01*
X44721Y40300D02*
Y46599D01*
X40279Y126401D02*
Y132700D01*
X27681Y126401D02*
X40279D01*
X27681D02*
Y132700D01*
X40279D01*
X83700Y11721D02*
Y24319D01*
X77401D02*
X83700D01*
X77401Y11721D02*
Y24319D01*
Y11721D02*
X83700D01*
X136866Y130195D02*
Y154605D01*
X139228Y156967D02*
X163638D01*
X166000Y130195D02*
Y154605D01*
X139228Y127833D02*
X163638D01*
X117600Y137405D02*
X127443D01*
Y124806D02*
Y137405D01*
X117600Y124806D02*
X127443D01*
X117600D02*
Y137405D01*
X44721Y276600D02*
X57319D01*
Y282899D01*
X44721D02*
X57319D01*
X44721Y276600D02*
Y282899D01*
X0Y0D02*
Y393701D01*
Y0D02*
X393701D01*
Y393701D01*
X0D02*
X393701D01*
X194000Y236300D02*
Y393700D01*
X0D02*
X194000D01*
X0Y236300D02*
X194000D01*
X0D02*
Y393700D01*
X194000Y0D02*
Y157400D01*
X0D02*
X194000D01*
X0Y0D02*
X194000D01*
X0D02*
Y157400D01*
X236300Y393700D02*
X393700D01*
X236300Y199700D02*
Y393700D01*
X393700Y199700D02*
Y393700D01*
X236300Y199700D02*
X393700D01*
X338700Y0D02*
Y87500D01*
Y0D02*
X393700D01*
X338700Y87500D02*
X393700D01*
Y0D02*
Y87500D01*
X271300Y0D02*
Y87500D01*
Y0D02*
X326300D01*
X271300Y87500D02*
X326300D01*
Y0D02*
Y87500D01*
X203300Y0D02*
Y87500D01*
Y0D02*
X258300D01*
X203300Y87500D02*
X258300D01*
Y0D02*
Y87500D01*
Y101500D02*
Y189000D01*
X203300D02*
X258300D01*
X203300Y101500D02*
X258300D01*
X203300D02*
Y189000D01*
X326300Y101500D02*
Y189000D01*
X271300D02*
X326300D01*
X271300Y101500D02*
X326300D01*
X271300D02*
Y189000D01*
X393700Y101500D02*
Y189000D01*
X338700D02*
X393700D01*
X338700Y101500D02*
X393700D01*
X338700D02*
Y189000D01*
D80*
X77100Y280687D02*
G03*
X77100Y280687I-1000J0D01*
G01*
X361087Y15600D02*
G03*
X361087Y15600I-1000J0D01*
G01*
Y117100D02*
G03*
X361087Y117100I-1000J0D01*
G01*
X293687D02*
G03*
X293687Y117100I-1000J0D01*
G01*
X225687D02*
G03*
X225687Y117100I-1000J0D01*
G01*
Y15600D02*
G03*
X225687Y15600I-1000J0D01*
G01*
X293687D02*
G03*
X293687Y15600I-1000J0D01*
G01*
X350313Y275800D02*
G03*
X350313Y275800I-1000J0D01*
G01*
X77100Y44387D02*
G03*
X77100Y44387I-1000J0D01*
G01*
X45311Y301761D02*
Y314261D01*
X39681D02*
X45311D01*
X39681Y301761D02*
Y314261D01*
Y301761D02*
X45311D01*
X315739Y245011D02*
X328239D01*
X315739Y239381D02*
Y245011D01*
Y239381D02*
X328239D01*
Y245011D01*
X45311Y65461D02*
Y77961D01*
X39681D02*
X45311D01*
X39681Y65461D02*
Y77961D01*
Y65461D02*
X45311D01*
D81*
X164032Y378700D02*
G03*
X164032Y378700I-12598J0D01*
G01*
X162850D02*
G03*
X162850Y378700I-11417J0D01*
G01*
X263898Y351133D02*
G03*
X263898Y351133I-12598J0D01*
G01*
X262717D02*
G03*
X262717Y351133I-11417J0D01*
G01*
X164032Y142400D02*
G03*
X164032Y142400I-12598J0D01*
G01*
X162850D02*
G03*
X162850Y142400I-11417J0D01*
G01*
X95937Y383724D02*
X99874D01*
X95937D02*
Y390023D01*
X99874D01*
Y383724D02*
Y390023D01*
X76646Y396795D02*
X78400Y394078D01*
X105700D02*
X107354Y396795D01*
X75858Y396322D02*
X76646Y396795D01*
X107354D02*
X108142Y396322D01*
X75858D02*
X77236Y394078D01*
X80100D02*
Y396519D01*
X80189D02*
X103811D01*
Y394078D02*
Y396519D01*
X106764Y394078D02*
X108142Y396322D01*
X97118Y372700D02*
Y375062D01*
X86882D02*
X97118D01*
X86882Y372700D02*
Y375062D01*
X88063Y383724D02*
Y390023D01*
X84126D02*
X88063D01*
X84126Y383724D02*
Y390023D01*
Y383724D02*
X88063D01*
X46768Y318288D02*
Y329312D01*
X30232Y318288D02*
X46768D01*
X30232D02*
Y329312D01*
X46768D01*
X29051Y328524D02*
X30232D01*
X29051Y326556D02*
Y328524D01*
Y326556D02*
X30232D01*
X29051Y319076D02*
X30232D01*
X29051D02*
Y321044D01*
X30232D01*
X46768Y326556D02*
X47949D01*
Y328524D01*
X46768D02*
X47949D01*
X46768Y319076D02*
X47949D01*
Y321044D01*
X46768D02*
X47949D01*
X300688Y246468D02*
X311712D01*
Y229932D02*
Y246468D01*
X300688Y229932D02*
X311712D01*
X300688D02*
Y246468D01*
X301476Y228751D02*
Y229932D01*
Y228751D02*
X303444D01*
Y229932D01*
X310924Y228751D02*
Y229932D01*
X308956Y228751D02*
X310924D01*
X308956D02*
Y229932D01*
X303444Y246468D02*
Y247649D01*
X301476D02*
X303444D01*
X301476Y246468D02*
Y247649D01*
X310924Y246468D02*
Y247649D01*
X308956D02*
X310924D01*
X308956Y246468D02*
Y247649D01*
X246276Y295637D02*
Y299574D01*
X239977Y295637D02*
X246276D01*
X239977D02*
Y299574D01*
X246276D01*
X233206Y276346D02*
X235922Y278100D01*
X233206Y307054D02*
X235922Y305400D01*
X233206Y276346D02*
X233678Y275558D01*
X233206Y307054D02*
X233678Y307842D01*
Y275558D02*
X235922Y276936D01*
X233481Y279800D02*
X235922D01*
X233481Y279889D02*
Y303511D01*
X235922D01*
X233678Y307842D02*
X235922Y306464D01*
X254938Y296818D02*
X257300D01*
X254938Y286582D02*
Y296818D01*
Y286582D02*
X257300D01*
X239977Y287763D02*
X246276D01*
X239977Y283826D02*
Y287763D01*
Y283826D02*
X246276D01*
Y287763D01*
X46768Y81988D02*
Y93012D01*
X30232Y81988D02*
X46768D01*
X30232D02*
Y93012D01*
X46768D01*
X29051Y92224D02*
X30232D01*
X29051Y90256D02*
Y92224D01*
Y90256D02*
X30232D01*
X29051Y82776D02*
X30232D01*
X29051D02*
Y84744D01*
X30232D01*
X46768Y90256D02*
X47949D01*
Y92224D01*
X46768D02*
X47949D01*
X46768Y82776D02*
X47949D01*
Y84744D01*
X46768D02*
X47949D01*
X95937Y147424D02*
X99874D01*
X95937D02*
Y153723D01*
X99874D01*
Y147424D02*
Y153723D01*
X76646Y160494D02*
X78400Y157778D01*
X105700D02*
X107354Y160494D01*
X75858Y160022D02*
X76646Y160494D01*
X107354D02*
X108142Y160022D01*
X75858D02*
X77236Y157778D01*
X80100D02*
Y160219D01*
X80189D02*
X103811D01*
Y157778D02*
Y160219D01*
X106764Y157778D02*
X108142Y160022D01*
X97118Y136400D02*
Y138762D01*
X86882D02*
X97118D01*
X86882Y136400D02*
Y138762D01*
X88063Y147424D02*
Y153723D01*
X84126D02*
X88063D01*
X84126Y147424D02*
Y153723D01*
Y147424D02*
X88063D01*
D82*
X42429Y323800D02*
G03*
X42429Y323800I-3929J0D01*
G01*
X310129Y238200D02*
G03*
X310129Y238200I-3929J0D01*
G01*
X42429Y87500D02*
G03*
X42429Y87500I-3929J0D01*
G01*
D83*
X77236Y372700D02*
X106764D01*
X77236D02*
Y394078D01*
X106764Y372700D02*
Y394078D01*
X77236D02*
X106764D01*
X176791Y332808D02*
Y358792D01*
X162815D02*
X176791D01*
X162815Y332808D02*
Y358792D01*
Y332808D02*
X176791D01*
X257300Y276936D02*
Y306464D01*
X235922Y276936D02*
X257300D01*
X235922Y306464D02*
X257300D01*
X235922Y276936D02*
Y306464D01*
X271208Y376491D02*
X297192D01*
X271208Y362515D02*
Y376491D01*
Y362515D02*
X297192D01*
Y376491D01*
X77236Y136400D02*
X106764D01*
X77236D02*
Y157778D01*
X106764Y136400D02*
Y157778D01*
X77236D02*
X106764D01*
X176791Y96508D02*
Y122492D01*
X162815D02*
X176791D01*
X162815Y96508D02*
Y122492D01*
Y96508D02*
X176791D01*
D84*
X74200Y278556D02*
X86400D01*
X74200D02*
Y296272D01*
X86400Y278556D02*
Y296272D01*
X74200D02*
X86400D01*
X358087Y5300D02*
Y17500D01*
X370287D01*
X358087Y5300D02*
X370287D01*
Y17500D01*
X362869Y64916D02*
Y66884D01*
X366806D01*
Y64916D02*
Y66884D01*
X362869Y64916D02*
X366806D01*
X362869Y166416D02*
Y168384D01*
X366806D01*
Y166416D02*
Y168384D01*
X362869Y166416D02*
X366806D01*
X362869Y155889D02*
Y157858D01*
X366806D01*
Y155889D02*
Y157858D01*
X362869Y155889D02*
X366806D01*
X362869Y147616D02*
Y149584D01*
X366806D01*
Y147616D02*
Y149584D01*
X362869Y147616D02*
X366806D01*
X380600Y164939D02*
X388474D01*
Y169861D01*
X380600D02*
X388474D01*
X380600Y164939D02*
Y169861D01*
Y154439D02*
X388474D01*
Y159361D01*
X380600D02*
X388474D01*
X380600Y154439D02*
Y159361D01*
Y146139D02*
X388474D01*
Y151061D01*
X380600D02*
X388474D01*
X380600Y146139D02*
Y151061D01*
X358087Y106800D02*
Y119000D01*
X370287D01*
X358087Y106800D02*
X370287D01*
Y119000D01*
X366661Y127500D02*
Y135374D01*
X361739D02*
X366661D01*
X361739Y127500D02*
Y135374D01*
Y127500D02*
X366661D01*
X295469Y166416D02*
Y168384D01*
X299406D01*
Y166416D02*
Y168384D01*
X295469Y166416D02*
X299406D01*
X295469Y155889D02*
Y157858D01*
X299406D01*
Y155889D02*
Y157858D01*
X295469Y155889D02*
X299406D01*
X295469Y147616D02*
Y149584D01*
X299406D01*
Y147616D02*
Y149584D01*
X295469Y147616D02*
X299406D01*
X313200Y164939D02*
X321074D01*
Y169861D01*
X313200D02*
X321074D01*
X313200Y164939D02*
Y169861D01*
Y154439D02*
X321074D01*
Y159361D01*
X313200D02*
X321074D01*
X313200Y154439D02*
Y159361D01*
Y146139D02*
X321074D01*
Y151061D01*
X313200D02*
X321074D01*
X313200Y146139D02*
Y151061D01*
X290687Y106800D02*
Y119000D01*
X302887D01*
X290687Y106800D02*
X302887D01*
Y119000D01*
X299261Y127500D02*
Y135374D01*
X294339D02*
X299261D01*
X294339Y127500D02*
Y135374D01*
Y127500D02*
X299261D01*
X227469Y166416D02*
Y168384D01*
X231406D01*
Y166416D02*
Y168384D01*
X227469Y166416D02*
X231406D01*
X227469Y155889D02*
Y157858D01*
X231406D01*
Y155889D02*
Y157858D01*
X227469Y155889D02*
X231406D01*
X227469Y147616D02*
Y149584D01*
X231406D01*
Y147616D02*
Y149584D01*
X227469Y147616D02*
X231406D01*
X245200Y164939D02*
X253074D01*
Y169861D01*
X245200D02*
X253074D01*
X245200Y164939D02*
Y169861D01*
Y154439D02*
X253074D01*
Y159361D01*
X245200D02*
X253074D01*
X245200Y154439D02*
Y159361D01*
Y146139D02*
X253074D01*
Y151061D01*
X245200D02*
X253074D01*
X245200Y146139D02*
Y151061D01*
X222687Y106800D02*
Y119000D01*
X234887D01*
X222687Y106800D02*
X234887D01*
Y119000D01*
X231261Y127500D02*
Y135374D01*
X226339D02*
X231261D01*
X226339Y127500D02*
Y135374D01*
Y127500D02*
X231261D01*
Y26000D02*
Y33874D01*
X226339D02*
X231261D01*
X226339Y26000D02*
Y33874D01*
Y26000D02*
X231261D01*
X222687Y5300D02*
Y17500D01*
X234887D01*
X222687Y5300D02*
X234887D01*
Y17500D01*
X245200Y44639D02*
X253074D01*
Y49561D01*
X245200D02*
X253074D01*
X245200Y44639D02*
Y49561D01*
Y52939D02*
X253074D01*
Y57861D01*
X245200D02*
X253074D01*
X245200Y52939D02*
Y57861D01*
Y63439D02*
X253074D01*
Y68361D01*
X245200D02*
X253074D01*
X245200Y63439D02*
Y68361D01*
X227469Y46116D02*
Y48084D01*
X231406D01*
Y46116D02*
Y48084D01*
X227469Y46116D02*
X231406D01*
X227469Y54389D02*
Y56358D01*
X231406D01*
Y54389D02*
Y56358D01*
X227469Y54389D02*
X231406D01*
X227469Y64916D02*
Y66884D01*
X231406D01*
Y64916D02*
Y66884D01*
X227469Y64916D02*
X231406D01*
X299261Y26000D02*
Y33874D01*
X294339D02*
X299261D01*
X294339Y26000D02*
Y33874D01*
Y26000D02*
X299261D01*
X290687Y5300D02*
Y17500D01*
X302887D01*
X290687Y5300D02*
X302887D01*
Y17500D01*
X313200Y44639D02*
X321074D01*
Y49561D01*
X313200D02*
X321074D01*
X313200Y44639D02*
Y49561D01*
Y52939D02*
X321074D01*
Y57861D01*
X313200D02*
X321074D01*
X313200Y52939D02*
Y57861D01*
Y63439D02*
X321074D01*
Y68361D01*
X313200D02*
X321074D01*
X313200Y63439D02*
Y68361D01*
X295469Y46116D02*
Y48084D01*
X299406D01*
Y46116D02*
Y48084D01*
X295469Y46116D02*
X299406D01*
X295469Y54389D02*
Y56358D01*
X299406D01*
Y54389D02*
Y56358D01*
X295469Y54389D02*
X299406D01*
X295469Y64916D02*
Y66884D01*
X299406D01*
Y64916D02*
Y66884D01*
X295469Y64916D02*
X299406D01*
X366661Y26000D02*
Y33874D01*
X361739D02*
X366661D01*
X361739Y26000D02*
Y33874D01*
Y26000D02*
X366661D01*
X380600Y44639D02*
X388474D01*
Y49561D01*
X380600D02*
X388474D01*
X380600Y44639D02*
Y49561D01*
Y52939D02*
X388474D01*
Y57861D01*
X380600D02*
X388474D01*
X380600Y52939D02*
Y57861D01*
Y63439D02*
X388474D01*
Y68361D01*
X380600D02*
X388474D01*
X380600Y63439D02*
Y68361D01*
X362869Y46116D02*
Y48084D01*
X366806D01*
Y46116D02*
Y48084D01*
X362869Y46116D02*
X366806D01*
X362869Y54389D02*
Y56358D01*
X366806D01*
Y54389D02*
Y56358D01*
X362869Y54389D02*
X366806D01*
X265826Y219161D02*
X273700D01*
X265826Y214239D02*
Y219161D01*
Y214239D02*
X273700D01*
Y219161D01*
X250961Y259800D02*
Y267674D01*
X246039D02*
X250961D01*
X246039Y259800D02*
Y267674D01*
Y259800D02*
X250961D01*
X285761Y208200D02*
Y216074D01*
X280839D02*
X285761D01*
X280839Y208200D02*
Y216074D01*
Y208200D02*
X285761D01*
X279300Y233739D02*
X287174D01*
Y238661D01*
X279300D02*
X287174D01*
X279300Y233739D02*
Y238661D01*
X250961Y239800D02*
Y247674D01*
X246039D02*
X250961D01*
X246039Y239800D02*
Y247674D01*
Y239800D02*
X250961D01*
X365739Y295826D02*
Y303700D01*
Y295826D02*
X370661D01*
Y303700D01*
X365739D02*
X370661D01*
X380700Y297739D02*
X388574D01*
Y302661D01*
X380700D02*
X388574D01*
X380700Y297739D02*
Y302661D01*
X293800Y263239D02*
X301674D01*
Y268161D01*
X293800D02*
X301674D01*
X293800Y263239D02*
Y268161D01*
Y273239D02*
X301674D01*
Y278161D01*
X293800D02*
X301674D01*
X293800Y273239D02*
Y278161D01*
X283700Y223739D02*
X291574D01*
Y228661D01*
X283700D02*
X291574D01*
X283700Y223739D02*
Y228661D01*
X318661Y256700D02*
Y264574D01*
X313739D02*
X318661D01*
X313739Y256700D02*
Y264574D01*
Y256700D02*
X318661D01*
X300700Y213739D02*
X308574D01*
Y218661D01*
X300700D02*
X308574D01*
X300700Y213739D02*
Y218661D01*
X318926Y228161D02*
X326800D01*
X318926Y223239D02*
Y228161D01*
Y223239D02*
X326800D01*
Y228161D01*
X351444Y273900D02*
Y286100D01*
X333728Y273900D02*
X351444D01*
X333728Y286100D02*
X351444D01*
X333728Y273900D02*
Y286100D01*
X292700Y341739D02*
Y346661D01*
X284826Y341739D02*
X292700D01*
X284826D02*
Y346661D01*
X292700D01*
X19461Y120000D02*
Y127874D01*
X14539D02*
X19461D01*
X14539Y120000D02*
Y127874D01*
Y120000D02*
X19461D01*
X60100Y142739D02*
X67974D01*
Y147661D01*
X60100D02*
X67974D01*
X60100Y142739D02*
Y147661D01*
X8500Y107939D02*
X16374D01*
Y112861D01*
X8500D02*
X16374D01*
X8500Y107939D02*
Y112861D01*
X34039Y106526D02*
Y114400D01*
Y106526D02*
X38961D01*
Y114400D01*
X34039D02*
X38961D01*
X40100Y142739D02*
X47974D01*
Y147661D01*
X40100D02*
X47974D01*
X40100Y142739D02*
Y147661D01*
X96126Y27961D02*
X104000D01*
X96126Y23039D02*
Y27961D01*
Y23039D02*
X104000D01*
Y27961D01*
X98039Y5126D02*
Y13000D01*
Y5126D02*
X102961D01*
Y13000D01*
X98039D02*
X102961D01*
X63539Y92026D02*
Y99900D01*
Y92026D02*
X68461D01*
Y99900D01*
X63539D02*
X68461D01*
X73539Y92026D02*
Y99900D01*
Y92026D02*
X78461D01*
Y99900D01*
X73539D02*
X78461D01*
X24039Y102126D02*
Y110000D01*
Y102126D02*
X28961D01*
Y110000D01*
X24039D02*
X28961D01*
X57000Y75039D02*
X64874D01*
Y79961D01*
X57000D02*
X64874D01*
X57000Y75039D02*
Y79961D01*
X14039Y85126D02*
Y93000D01*
Y85126D02*
X18961D01*
Y93000D01*
X14039D02*
X18961D01*
X28461Y66900D02*
Y74774D01*
X23539D02*
X28461D01*
X23539Y66900D02*
Y74774D01*
Y66900D02*
X28461D01*
X74200Y42256D02*
X86400D01*
X74200D02*
Y59972D01*
X86400Y42256D02*
Y59972D01*
X74200D02*
X86400D01*
X142039Y101000D02*
X146961D01*
X142039D02*
Y108874D01*
X146961D01*
Y101000D02*
Y108874D01*
X19461Y356300D02*
Y364174D01*
X14539D02*
X19461D01*
X14539Y356300D02*
Y364174D01*
Y356300D02*
X19461D01*
X60100Y379039D02*
X67974D01*
Y383961D01*
X60100D02*
X67974D01*
X60100Y379039D02*
Y383961D01*
X8500Y344239D02*
X16374D01*
Y349161D01*
X8500D02*
X16374D01*
X8500Y344239D02*
Y349161D01*
X34039Y342826D02*
Y350700D01*
Y342826D02*
X38961D01*
Y350700D01*
X34039D02*
X38961D01*
X40100Y379039D02*
X47974D01*
Y383961D01*
X40100D02*
X47974D01*
X40100Y379039D02*
Y383961D01*
X96126Y264261D02*
X104000D01*
X96126Y259339D02*
Y264261D01*
Y259339D02*
X104000D01*
Y264261D01*
X98039Y241426D02*
Y249300D01*
Y241426D02*
X102961D01*
Y249300D01*
X98039D02*
X102961D01*
X63539Y328326D02*
Y336200D01*
Y328326D02*
X68461D01*
Y336200D01*
X63539D02*
X68461D01*
X73539Y328326D02*
Y336200D01*
Y328326D02*
X78461D01*
Y336200D01*
X73539D02*
X78461D01*
X24039Y338426D02*
Y346300D01*
Y338426D02*
X28961D01*
Y346300D01*
X24039D02*
X28961D01*
X57000Y311339D02*
X64874D01*
Y316261D01*
X57000D02*
X64874D01*
X57000Y311339D02*
Y316261D01*
X14039Y321426D02*
Y329300D01*
Y321426D02*
X18961D01*
Y329300D01*
X14039D02*
X18961D01*
X28461Y303200D02*
Y311074D01*
X23539D02*
X28461D01*
X23539Y303200D02*
Y311074D01*
Y303200D02*
X28461D01*
X142039Y337300D02*
X146961D01*
X142039D02*
Y345174D01*
X146961D01*
Y337300D02*
Y345174D01*
X132466Y350632D02*
X131799Y351299D01*
X130466D01*
X129800Y350632D01*
Y347966D01*
X130466Y347300D01*
X131799D01*
X132466Y347966D01*
X133799Y347300D02*
X135132D01*
X134465D01*
Y351299D01*
X133799Y350632D01*
X139130Y347300D02*
Y351299D01*
X137131Y349299D01*
X139797D01*
X54866Y323932D02*
X54199Y324599D01*
X52866D01*
X52200Y323932D01*
Y323266D01*
X52866Y322599D01*
X54199D01*
X54866Y321933D01*
Y321266D01*
X54199Y320600D01*
X52866D01*
X52200Y321266D01*
X56199Y324599D02*
Y320600D01*
X57532Y321933D01*
X58864Y320600D01*
Y324599D01*
X60197Y320600D02*
X61530D01*
X60864D01*
Y324599D01*
X60197Y323932D01*
X12900Y295500D02*
Y299499D01*
X14899D01*
X15566Y298832D01*
Y297499D01*
X14899Y296833D01*
X12900D01*
X14233D02*
X15566Y295500D01*
X16899D02*
X18232D01*
X17565D01*
Y299499D01*
X16899Y298832D01*
X20231Y296166D02*
X20897Y295500D01*
X22230D01*
X22897Y296166D01*
Y298832D01*
X22230Y299499D01*
X20897D01*
X20231Y298832D01*
Y298166D01*
X20897Y297499D01*
X22897D01*
X4600Y313400D02*
Y317399D01*
X6599D01*
X7266Y316732D01*
Y315399D01*
X6599Y314733D01*
X4600D01*
X5933D02*
X7266Y313400D01*
X8599D02*
X9932D01*
X9265D01*
Y317399D01*
X8599Y316732D01*
X11931Y317399D02*
X14597D01*
Y316732D01*
X11931Y314066D01*
Y313400D01*
X55500Y305300D02*
Y309299D01*
X57499D01*
X58166Y308632D01*
Y307299D01*
X57499Y306633D01*
X55500D01*
X56833D02*
X58166Y305300D01*
X59499D02*
X60832D01*
X60165D01*
Y309299D01*
X59499Y308632D01*
X64830Y305300D02*
Y309299D01*
X62831Y307299D01*
X65497D01*
X22000Y330900D02*
Y334899D01*
X23999D01*
X24666Y334232D01*
Y332899D01*
X23999Y332233D01*
X22000D01*
X23333D02*
X24666Y330900D01*
X25999D02*
X27332D01*
X26665D01*
Y334899D01*
X25999Y334232D01*
X29331Y330900D02*
X30664D01*
X29997D01*
Y334899D01*
X29331Y334232D01*
X133800Y359100D02*
X129801D01*
Y361099D01*
X130468Y361766D01*
X131801D01*
X132467Y361099D01*
Y359100D01*
Y360433D02*
X133800Y361766D01*
Y363099D02*
Y364432D01*
Y363765D01*
X129801D01*
X130468Y363099D01*
Y366431D02*
X129801Y367097D01*
Y368430D01*
X130468Y369097D01*
X133133D01*
X133800Y368430D01*
Y367097D01*
X133133Y366431D01*
X130468D01*
X72600Y340700D02*
Y344699D01*
X74599D01*
X75266Y344032D01*
Y342699D01*
X74599Y342033D01*
X72600D01*
X73933D02*
X75266Y340700D01*
X76599Y341366D02*
X77265Y340700D01*
X78598D01*
X79264Y341366D01*
Y344032D01*
X78598Y344699D01*
X77265D01*
X76599Y344032D01*
Y343366D01*
X77265Y342699D01*
X79264D01*
X59600Y340600D02*
Y344599D01*
X61599D01*
X62266Y343932D01*
Y342599D01*
X61599Y341933D01*
X59600D01*
X60933D02*
X62266Y340600D01*
X63599Y343932D02*
X64265Y344599D01*
X65598D01*
X66264Y343932D01*
Y343266D01*
X65598Y342599D01*
X66264Y341933D01*
Y341266D01*
X65598Y340600D01*
X64265D01*
X63599Y341266D01*
Y341933D01*
X64265Y342599D01*
X63599Y343266D01*
Y343932D01*
X64265Y342599D02*
X65598D01*
X105000Y247400D02*
Y251399D01*
X106999D01*
X107666Y250732D01*
Y249399D01*
X106999Y248733D01*
X105000D01*
X106333D02*
X107666Y247400D01*
X111664Y251399D02*
X110332Y250732D01*
X108999Y249399D01*
Y248066D01*
X109665Y247400D01*
X110998D01*
X111664Y248066D01*
Y248733D01*
X110998Y249399D01*
X108999D01*
X95000Y266800D02*
Y270799D01*
X96999D01*
X97666Y270132D01*
Y268799D01*
X96999Y268133D01*
X95000D01*
X96333D02*
X97666Y266800D01*
X101664Y270799D02*
X98999D01*
Y268799D01*
X100332Y269466D01*
X100998D01*
X101664Y268799D01*
Y267466D01*
X100998Y266800D01*
X99665D01*
X98999Y267466D01*
X42000Y372400D02*
Y376399D01*
X43999D01*
X44666Y375732D01*
Y374399D01*
X43999Y373733D01*
X42000D01*
X43333D02*
X44666Y372400D01*
X45999D02*
X47332D01*
X46665D01*
Y376399D01*
X45999Y375732D01*
X170500Y306200D02*
Y310199D01*
X172499D01*
X173166Y309532D01*
Y308199D01*
X172499Y307533D01*
X170500D01*
X174499Y310199D02*
X177164D01*
X175832D01*
Y306200D01*
X181163Y310199D02*
X179830Y309532D01*
X178497Y308199D01*
Y306866D01*
X179164Y306200D01*
X180497D01*
X181163Y306866D01*
Y307533D01*
X180497Y308199D01*
X178497D01*
X132200Y291900D02*
Y295899D01*
X134199D01*
X134866Y295232D01*
Y293899D01*
X134199Y293233D01*
X132200D01*
X136199Y295899D02*
X138865D01*
X137532D01*
Y291900D01*
X142863Y295899D02*
X140197D01*
Y293899D01*
X141530Y294566D01*
X142197D01*
X142863Y293899D01*
Y292566D01*
X142197Y291900D01*
X140864D01*
X140197Y292566D01*
X147000Y307900D02*
Y311899D01*
X148999D01*
X149666Y311232D01*
Y309899D01*
X148999Y309233D01*
X147000D01*
X150999Y311899D02*
X153665D01*
X152332D01*
Y307900D01*
X156997D02*
Y311899D01*
X154997Y309899D01*
X157663D01*
X113600Y379100D02*
X109601D01*
Y381099D01*
X110268Y381766D01*
X111601D01*
X112267Y381099D01*
Y379100D01*
X109601Y383099D02*
Y385765D01*
Y384432D01*
X113600D01*
X110268Y387097D02*
X109601Y387764D01*
Y389097D01*
X110268Y389763D01*
X110934D01*
X111601Y389097D01*
Y388430D01*
Y389097D01*
X112267Y389763D01*
X112934D01*
X113600Y389097D01*
Y387764D01*
X112934Y387097D01*
X170500Y321600D02*
Y325599D01*
X172499D01*
X173166Y324932D01*
Y323599D01*
X172499Y322933D01*
X170500D01*
X174499Y325599D02*
X177164D01*
X175832D01*
Y321600D01*
X181163D02*
X178497D01*
X181163Y324266D01*
Y324932D01*
X180497Y325599D01*
X179164D01*
X178497Y324932D01*
X16300Y387200D02*
Y391199D01*
X18299D01*
X18966Y390532D01*
Y389199D01*
X18299Y388533D01*
X16300D01*
X20299Y391199D02*
X22964D01*
X21632D01*
Y387200D01*
X24297D02*
X25630D01*
X24964D01*
Y391199D01*
X24297Y390532D01*
X38800Y295800D02*
Y299799D01*
X40133Y298466D01*
X41466Y299799D01*
Y295800D01*
X42799D02*
X44132D01*
X43465D01*
Y299799D01*
X42799Y299132D01*
X67166Y265532D02*
X66499Y266199D01*
X65166D01*
X64500Y265532D01*
Y262866D01*
X65166Y262200D01*
X66499D01*
X67166Y262866D01*
X68499Y262200D02*
X69832D01*
X69165D01*
Y266199D01*
X68499Y265532D01*
X74497Y266199D02*
X71831D01*
Y264199D01*
X73164Y264866D01*
X73830D01*
X74497Y264199D01*
Y262866D01*
X73830Y262200D01*
X72497D01*
X71831Y262866D01*
X44466Y350932D02*
X43799Y351599D01*
X42466D01*
X41800Y350932D01*
Y348266D01*
X42466Y347600D01*
X43799D01*
X44466Y348266D01*
X45799Y347600D02*
X47132D01*
X46465D01*
Y351599D01*
X45799Y350932D01*
X51797Y347600D02*
X49131D01*
X51797Y350266D01*
Y350932D01*
X51130Y351599D01*
X49797D01*
X49131Y350932D01*
X11766Y341332D02*
X11099Y341999D01*
X9766D01*
X9100Y341332D01*
Y338666D01*
X9766Y338000D01*
X11099D01*
X11766Y338666D01*
X13099Y338000D02*
X14432D01*
X13765D01*
Y341999D01*
X13099Y341332D01*
X16431Y338000D02*
X17764D01*
X17097D01*
Y341999D01*
X16431Y341332D01*
X61966Y375632D02*
X61299Y376299D01*
X59966D01*
X59300Y375632D01*
Y372966D01*
X59966Y372300D01*
X61299D01*
X61966Y372966D01*
X63299Y372300D02*
X64632D01*
X63965D01*
Y376299D01*
X63299Y375632D01*
X66631D02*
X67297Y376299D01*
X68630D01*
X69297Y375632D01*
Y372966D01*
X68630Y372300D01*
X67297D01*
X66631Y372966D01*
Y375632D01*
X14666Y372132D02*
X13999Y372799D01*
X12666D01*
X12000Y372132D01*
Y369466D01*
X12666Y368800D01*
X13999D01*
X14666Y369466D01*
X15999D02*
X16665Y368800D01*
X17998D01*
X18665Y369466D01*
Y372132D01*
X17998Y372799D01*
X16665D01*
X15999Y372132D01*
Y371466D01*
X16665Y370799D01*
X18665D01*
X31932Y374865D02*
X31099Y375698D01*
X29433D01*
X28600Y374865D01*
Y371533D01*
X29433Y370700D01*
X31099D01*
X31932Y371533D01*
X33598Y375698D02*
X36931D01*
Y374865D01*
X33598Y371533D01*
Y370700D01*
X44966Y288732D02*
X44299Y289399D01*
X42966D01*
X42300Y288732D01*
Y286066D01*
X42966Y285400D01*
X44299D01*
X44966Y286066D01*
X48965Y289399D02*
X46299D01*
Y287399D01*
X47632Y288066D01*
X48298D01*
X48965Y287399D01*
Y286066D01*
X48298Y285400D01*
X46965D01*
X46299Y286066D01*
X132466Y114332D02*
X131799Y114999D01*
X130466D01*
X129800Y114332D01*
Y111667D01*
X130466Y111000D01*
X131799D01*
X132466Y111667D01*
X133799Y111000D02*
X135132D01*
X134465D01*
Y114999D01*
X133799Y114332D01*
X139130Y111000D02*
Y114999D01*
X137131Y112999D01*
X139797D01*
X54866Y87632D02*
X54199Y88299D01*
X52866D01*
X52200Y87632D01*
Y86966D01*
X52866Y86299D01*
X54199D01*
X54866Y85633D01*
Y84966D01*
X54199Y84300D01*
X52866D01*
X52200Y84966D01*
X56199Y88299D02*
Y84300D01*
X57532Y85633D01*
X58864Y84300D01*
Y88299D01*
X60197Y84300D02*
X61530D01*
X60864D01*
Y88299D01*
X60197Y87632D01*
X12900Y59200D02*
Y63199D01*
X14899D01*
X15566Y62532D01*
Y61199D01*
X14899Y60533D01*
X12900D01*
X14233D02*
X15566Y59200D01*
X16899D02*
X18232D01*
X17565D01*
Y63199D01*
X16899Y62532D01*
X20231Y59866D02*
X20897Y59200D01*
X22230D01*
X22897Y59866D01*
Y62532D01*
X22230Y63199D01*
X20897D01*
X20231Y62532D01*
Y61866D01*
X20897Y61199D01*
X22897D01*
X4600Y77100D02*
Y81099D01*
X6599D01*
X7266Y80432D01*
Y79099D01*
X6599Y78433D01*
X4600D01*
X5933D02*
X7266Y77100D01*
X8599D02*
X9932D01*
X9265D01*
Y81099D01*
X8599Y80432D01*
X11931Y81099D02*
X14597D01*
Y80432D01*
X11931Y77766D01*
Y77100D01*
X55500Y69000D02*
Y72999D01*
X57499D01*
X58166Y72332D01*
Y70999D01*
X57499Y70333D01*
X55500D01*
X56833D02*
X58166Y69000D01*
X59499D02*
X60832D01*
X60165D01*
Y72999D01*
X59499Y72332D01*
X64830Y69000D02*
Y72999D01*
X62831Y70999D01*
X65497D01*
X22000Y94600D02*
Y98599D01*
X23999D01*
X24666Y97932D01*
Y96599D01*
X23999Y95933D01*
X22000D01*
X23333D02*
X24666Y94600D01*
X25999D02*
X27332D01*
X26665D01*
Y98599D01*
X25999Y97932D01*
X29331Y94600D02*
X30664D01*
X29997D01*
Y98599D01*
X29331Y97932D01*
X133800Y122800D02*
X129801D01*
Y124799D01*
X130468Y125466D01*
X131801D01*
X132467Y124799D01*
Y122800D01*
Y124133D02*
X133800Y125466D01*
Y126799D02*
Y128132D01*
Y127465D01*
X129801D01*
X130468Y126799D01*
Y130131D02*
X129801Y130797D01*
Y132130D01*
X130468Y132797D01*
X133133D01*
X133800Y132130D01*
Y130797D01*
X133133Y130131D01*
X130468D01*
X72600Y104400D02*
Y108399D01*
X74599D01*
X75266Y107732D01*
Y106399D01*
X74599Y105733D01*
X72600D01*
X73933D02*
X75266Y104400D01*
X76599Y105067D02*
X77265Y104400D01*
X78598D01*
X79264Y105067D01*
Y107732D01*
X78598Y108399D01*
X77265D01*
X76599Y107732D01*
Y107066D01*
X77265Y106399D01*
X79264D01*
X59600Y104300D02*
Y108299D01*
X61599D01*
X62266Y107632D01*
Y106299D01*
X61599Y105633D01*
X59600D01*
X60933D02*
X62266Y104300D01*
X63599Y107632D02*
X64265Y108299D01*
X65598D01*
X66264Y107632D01*
Y106966D01*
X65598Y106299D01*
X66264Y105633D01*
Y104966D01*
X65598Y104300D01*
X64265D01*
X63599Y104966D01*
Y105633D01*
X64265Y106299D01*
X63599Y106966D01*
Y107632D01*
X64265Y106299D02*
X65598D01*
X105000Y11100D02*
Y15099D01*
X106999D01*
X107666Y14432D01*
Y13099D01*
X106999Y12433D01*
X105000D01*
X106333D02*
X107666Y11100D01*
X111664Y15099D02*
X110332Y14432D01*
X108999Y13099D01*
Y11767D01*
X109665Y11100D01*
X110998D01*
X111664Y11767D01*
Y12433D01*
X110998Y13099D01*
X108999D01*
X95000Y30500D02*
Y34499D01*
X96999D01*
X97666Y33832D01*
Y32499D01*
X96999Y31833D01*
X95000D01*
X96333D02*
X97666Y30500D01*
X101664Y34499D02*
X98999D01*
Y32499D01*
X100332Y33166D01*
X100998D01*
X101664Y32499D01*
Y31166D01*
X100998Y30500D01*
X99665D01*
X98999Y31166D01*
X42000Y136100D02*
Y140099D01*
X43999D01*
X44666Y139432D01*
Y138099D01*
X43999Y137433D01*
X42000D01*
X43333D02*
X44666Y136100D01*
X45999D02*
X47332D01*
X46665D01*
Y140099D01*
X45999Y139432D01*
X170500Y69900D02*
Y73899D01*
X172499D01*
X173166Y73232D01*
Y71899D01*
X172499Y71233D01*
X170500D01*
X174499Y73899D02*
X177164D01*
X175832D01*
Y69900D01*
X181163Y73899D02*
X179830Y73232D01*
X178497Y71899D01*
Y70566D01*
X179164Y69900D01*
X180497D01*
X181163Y70566D01*
Y71233D01*
X180497Y71899D01*
X178497D01*
X132200Y55600D02*
Y59599D01*
X134199D01*
X134866Y58932D01*
Y57599D01*
X134199Y56933D01*
X132200D01*
X136199Y59599D02*
X138865D01*
X137532D01*
Y55600D01*
X142863Y59599D02*
X140197D01*
Y57599D01*
X141530Y58266D01*
X142197D01*
X142863Y57599D01*
Y56266D01*
X142197Y55600D01*
X140864D01*
X140197Y56266D01*
X147000Y71600D02*
Y75599D01*
X148999D01*
X149666Y74932D01*
Y73599D01*
X148999Y72933D01*
X147000D01*
X150999Y75599D02*
X153665D01*
X152332D01*
Y71600D01*
X156997D02*
Y75599D01*
X154997Y73599D01*
X157663D01*
X113600Y142800D02*
X109601D01*
Y144799D01*
X110268Y145466D01*
X111601D01*
X112267Y144799D01*
Y142800D01*
X109601Y146799D02*
Y149464D01*
Y148132D01*
X113600D01*
X110268Y150797D02*
X109601Y151464D01*
Y152797D01*
X110268Y153463D01*
X110934D01*
X111601Y152797D01*
Y152130D01*
Y152797D01*
X112267Y153463D01*
X112934D01*
X113600Y152797D01*
Y151464D01*
X112934Y150797D01*
X170500Y85300D02*
Y89299D01*
X172499D01*
X173166Y88632D01*
Y87299D01*
X172499Y86633D01*
X170500D01*
X174499Y89299D02*
X177164D01*
X175832D01*
Y85300D01*
X181163D02*
X178497D01*
X181163Y87966D01*
Y88632D01*
X180497Y89299D01*
X179164D01*
X178497Y88632D01*
X16300Y150900D02*
Y154899D01*
X18299D01*
X18966Y154232D01*
Y152899D01*
X18299Y152233D01*
X16300D01*
X20299Y154899D02*
X22964D01*
X21632D01*
Y150900D01*
X24297D02*
X25630D01*
X24964D01*
Y154899D01*
X24297Y154232D01*
X38800Y59500D02*
Y63499D01*
X40133Y62166D01*
X41466Y63499D01*
Y59500D01*
X42799D02*
X44132D01*
X43465D01*
Y63499D01*
X42799Y62832D01*
X67166Y29232D02*
X66499Y29899D01*
X65166D01*
X64500Y29232D01*
Y26566D01*
X65166Y25900D01*
X66499D01*
X67166Y26566D01*
X68499Y25900D02*
X69832D01*
X69165D01*
Y29899D01*
X68499Y29232D01*
X74497Y29899D02*
X71831D01*
Y27899D01*
X73164Y28566D01*
X73830D01*
X74497Y27899D01*
Y26566D01*
X73830Y25900D01*
X72497D01*
X71831Y26566D01*
X44466Y114632D02*
X43799Y115299D01*
X42466D01*
X41800Y114632D01*
Y111967D01*
X42466Y111300D01*
X43799D01*
X44466Y111967D01*
X45799Y111300D02*
X47132D01*
X46465D01*
Y115299D01*
X45799Y114632D01*
X51797Y111300D02*
X49131D01*
X51797Y113966D01*
Y114632D01*
X51130Y115299D01*
X49797D01*
X49131Y114632D01*
X11766Y105032D02*
X11099Y105699D01*
X9766D01*
X9100Y105032D01*
Y102366D01*
X9766Y101700D01*
X11099D01*
X11766Y102366D01*
X13099Y101700D02*
X14432D01*
X13765D01*
Y105699D01*
X13099Y105032D01*
X16431Y101700D02*
X17764D01*
X17097D01*
Y105699D01*
X16431Y105032D01*
X61966Y139332D02*
X61299Y139999D01*
X59966D01*
X59300Y139332D01*
Y136667D01*
X59966Y136000D01*
X61299D01*
X61966Y136667D01*
X63299Y136000D02*
X64632D01*
X63965D01*
Y139999D01*
X63299Y139332D01*
X66631D02*
X67297Y139999D01*
X68630D01*
X69297Y139332D01*
Y136667D01*
X68630Y136000D01*
X67297D01*
X66631Y136667D01*
Y139332D01*
X14666Y135832D02*
X13999Y136499D01*
X12666D01*
X12000Y135832D01*
Y133167D01*
X12666Y132500D01*
X13999D01*
X14666Y133167D01*
X15999D02*
X16665Y132500D01*
X17998D01*
X18665Y133167D01*
Y135832D01*
X17998Y136499D01*
X16665D01*
X15999Y135832D01*
Y135166D01*
X16665Y134499D01*
X18665D01*
X31932Y138565D02*
X31099Y139398D01*
X29433D01*
X28600Y138565D01*
Y135233D01*
X29433Y134400D01*
X31099D01*
X31932Y135233D01*
X33598Y139398D02*
X36931D01*
Y138565D01*
X33598Y135233D01*
Y134400D01*
X44966Y52432D02*
X44299Y53099D01*
X42966D01*
X42300Y52432D01*
Y49766D01*
X42966Y49100D01*
X44299D01*
X44966Y49766D01*
X48965Y53099D02*
X46299D01*
Y51099D01*
X47632Y51766D01*
X48298D01*
X48965Y51099D01*
Y49766D01*
X48298Y49100D01*
X46965D01*
X46299Y49766D01*
X279368Y332166D02*
X278701Y331499D01*
Y330166D01*
X279368Y329500D01*
X282034D01*
X282700Y330166D01*
Y331499D01*
X282034Y332166D01*
X282700Y333499D02*
Y334832D01*
Y334165D01*
X278701D01*
X279368Y333499D01*
X282700Y338830D02*
X278701D01*
X280701Y336831D01*
Y339497D01*
X306068Y254566D02*
X305401Y253899D01*
Y252566D01*
X306068Y251900D01*
X306734D01*
X307401Y252566D01*
Y253899D01*
X308067Y254566D01*
X308734D01*
X309400Y253899D01*
Y252566D01*
X308734Y251900D01*
X305401Y255899D02*
X309400D01*
X308067Y257232D01*
X309400Y258564D01*
X305401D01*
X309400Y259897D02*
Y261230D01*
Y260564D01*
X305401D01*
X306068Y259897D01*
X334500Y212600D02*
X330501D01*
Y214599D01*
X331168Y215266D01*
X332501D01*
X333167Y214599D01*
Y212600D01*
Y213933D02*
X334500Y215266D01*
Y216599D02*
Y217932D01*
Y217265D01*
X330501D01*
X331168Y216599D01*
X333834Y219931D02*
X334500Y220597D01*
Y221930D01*
X333834Y222597D01*
X331168D01*
X330501Y221930D01*
Y220597D01*
X331168Y219931D01*
X331834D01*
X332501Y220597D01*
Y222597D01*
X316600Y204300D02*
X312601D01*
Y206299D01*
X313268Y206966D01*
X314601D01*
X315267Y206299D01*
Y204300D01*
Y205633D02*
X316600Y206966D01*
Y208299D02*
Y209632D01*
Y208965D01*
X312601D01*
X313268Y208299D01*
X312601Y211631D02*
Y214297D01*
X313268D01*
X315934Y211631D01*
X316600D01*
X324700Y255200D02*
X320701D01*
Y257199D01*
X321368Y257866D01*
X322701D01*
X323367Y257199D01*
Y255200D01*
Y256533D02*
X324700Y257866D01*
Y259199D02*
Y260532D01*
Y259865D01*
X320701D01*
X321368Y259199D01*
X324700Y264530D02*
X320701D01*
X322701Y262531D01*
Y265197D01*
X299100Y221700D02*
X295101D01*
Y223699D01*
X295768Y224366D01*
X297101D01*
X297767Y223699D01*
Y221700D01*
Y223033D02*
X299100Y224366D01*
Y225699D02*
Y227032D01*
Y226365D01*
X295101D01*
X295768Y225699D01*
X299100Y229031D02*
Y230364D01*
Y229697D01*
X295101D01*
X295768Y229031D01*
X270900Y333500D02*
Y329501D01*
X268901D01*
X268234Y330168D01*
Y331501D01*
X268901Y332167D01*
X270900D01*
X269567D02*
X268234Y333500D01*
X266901D02*
X265568D01*
X266235D01*
Y329501D01*
X266901Y330168D01*
X263569D02*
X262903Y329501D01*
X261570D01*
X260903Y330168D01*
Y332834D01*
X261570Y333500D01*
X262903D01*
X263569Y332834D01*
Y330168D01*
X289300Y272300D02*
X285301D01*
Y274299D01*
X285968Y274966D01*
X287301D01*
X287967Y274299D01*
Y272300D01*
Y273633D02*
X289300Y274966D01*
X288634Y276299D02*
X289300Y276965D01*
Y278298D01*
X288634Y278964D01*
X285968D01*
X285301Y278298D01*
Y276965D01*
X285968Y276299D01*
X286634D01*
X287301Y276965D01*
Y278964D01*
X289400Y259300D02*
X285401D01*
Y261299D01*
X286068Y261966D01*
X287401D01*
X288067Y261299D01*
Y259300D01*
Y260633D02*
X289400Y261966D01*
X286068Y263299D02*
X285401Y263965D01*
Y265298D01*
X286068Y265965D01*
X286734D01*
X287401Y265298D01*
X288067Y265965D01*
X288734D01*
X289400Y265298D01*
Y263965D01*
X288734Y263299D01*
X288067D01*
X287401Y263965D01*
X286734Y263299D01*
X286068D01*
X287401Y263965D02*
Y265298D01*
X382600Y304700D02*
X378601D01*
Y306699D01*
X379268Y307366D01*
X380601D01*
X381267Y306699D01*
Y304700D01*
Y306033D02*
X382600Y307366D01*
X378601Y311365D02*
X379268Y310032D01*
X380601Y308699D01*
X381934D01*
X382600Y309365D01*
Y310698D01*
X381934Y311365D01*
X381267D01*
X380601Y310698D01*
Y308699D01*
X363200Y294700D02*
X359201D01*
Y296699D01*
X359868Y297366D01*
X361201D01*
X361867Y296699D01*
Y294700D01*
Y296033D02*
X363200Y297366D01*
X359201Y301364D02*
Y298699D01*
X361201D01*
X360534Y300032D01*
Y300698D01*
X361201Y301364D01*
X362534D01*
X363200Y300698D01*
Y299365D01*
X362534Y298699D01*
X257600Y241700D02*
X253601D01*
Y243699D01*
X254268Y244366D01*
X255601D01*
X256267Y243699D01*
Y241700D01*
Y243033D02*
X257600Y244366D01*
Y245699D02*
Y247032D01*
Y246365D01*
X253601D01*
X254268Y245699D01*
X258266Y249031D02*
Y251697D01*
X254268Y253030D02*
X253601Y253696D01*
Y255029D01*
X254268Y255696D01*
X254934D01*
X255601Y255029D01*
Y254363D01*
Y255029D01*
X256267Y255696D01*
X256934D01*
X257600Y255029D01*
Y253696D01*
X256934Y253030D01*
X323800Y370200D02*
X319801D01*
Y372199D01*
X320468Y372866D01*
X321801D01*
X322467Y372199D01*
Y370200D01*
X319801Y374199D02*
Y376865D01*
Y375532D01*
X323800D01*
X319801Y380863D02*
X320468Y379530D01*
X321801Y378197D01*
X323134D01*
X323800Y378864D01*
Y380197D01*
X323134Y380863D01*
X322467D01*
X321801Y380197D01*
Y378197D01*
X338100Y331900D02*
X334101D01*
Y333899D01*
X334768Y334566D01*
X336101D01*
X336767Y333899D01*
Y331900D01*
X334101Y335899D02*
Y338564D01*
Y337232D01*
X338100D01*
X334101Y342563D02*
Y339897D01*
X336101D01*
X335434Y341230D01*
Y341897D01*
X336101Y342563D01*
X337434D01*
X338100Y341897D01*
Y340564D01*
X337434Y339897D01*
X322100Y346700D02*
X318101D01*
Y348699D01*
X318768Y349366D01*
X320101D01*
X320767Y348699D01*
Y346700D01*
X318101Y350699D02*
Y353364D01*
Y352032D01*
X322100D01*
Y356697D02*
X318101D01*
X320101Y354697D01*
Y357363D01*
X250900Y313300D02*
Y309301D01*
X248901D01*
X248234Y309968D01*
Y311301D01*
X248901Y311967D01*
X250900D01*
X246901Y309301D02*
X244235D01*
X245568D01*
Y313300D01*
X242903Y309968D02*
X242236Y309301D01*
X240903D01*
X240237Y309968D01*
Y310634D01*
X240903Y311301D01*
X241570D01*
X240903D01*
X240237Y311967D01*
Y312634D01*
X240903Y313300D01*
X242236D01*
X242903Y312634D01*
X308400Y370200D02*
X304401D01*
Y372199D01*
X305068Y372866D01*
X306401D01*
X307067Y372199D01*
Y370200D01*
X304401Y374199D02*
Y376865D01*
Y375532D01*
X308400D01*
Y380863D02*
Y378197D01*
X305734Y380863D01*
X305068D01*
X304401Y380197D01*
Y378864D01*
X305068Y378197D01*
X242800Y216000D02*
X238801D01*
Y217999D01*
X239468Y218666D01*
X240801D01*
X241467Y217999D01*
Y216000D01*
X238801Y219999D02*
Y222664D01*
Y221332D01*
X242800D01*
Y223997D02*
Y225330D01*
Y224664D01*
X238801D01*
X239468Y223997D01*
X334200Y238500D02*
X330201D01*
X331534Y239833D01*
X330201Y241166D01*
X334200D01*
Y242499D02*
Y243832D01*
Y243165D01*
X330201D01*
X330868Y242499D01*
X364468Y266866D02*
X363801Y266199D01*
Y264866D01*
X364468Y264200D01*
X367134D01*
X367800Y264866D01*
Y266199D01*
X367134Y266866D01*
X367800Y268199D02*
Y269532D01*
Y268865D01*
X363801D01*
X364468Y268199D01*
X363801Y274197D02*
Y271531D01*
X365801D01*
X365134Y272864D01*
Y273530D01*
X365801Y274197D01*
X367134D01*
X367800Y273530D01*
Y272197D01*
X367134Y271531D01*
X279068Y244166D02*
X278401Y243499D01*
Y242166D01*
X279068Y241500D01*
X281734D01*
X282400Y242166D01*
Y243499D01*
X281734Y244166D01*
X282400Y245499D02*
Y246832D01*
Y246165D01*
X278401D01*
X279068Y245499D01*
X282400Y251497D02*
Y248831D01*
X279734Y251497D01*
X279068D01*
X278401Y250830D01*
Y249497D01*
X279068Y248831D01*
X288668Y211466D02*
X288001Y210799D01*
Y209466D01*
X288668Y208800D01*
X291334D01*
X292000Y209466D01*
Y210799D01*
X291334Y211466D01*
X292000Y212799D02*
Y214132D01*
Y213465D01*
X288001D01*
X288668Y212799D01*
X292000Y216131D02*
Y217464D01*
Y216797D01*
X288001D01*
X288668Y216131D01*
X254368Y261666D02*
X253701Y260999D01*
Y259666D01*
X254368Y259000D01*
X257034D01*
X257700Y259666D01*
Y260999D01*
X257034Y261666D01*
X257700Y262999D02*
Y264332D01*
Y263665D01*
X253701D01*
X254368Y262999D01*
Y266331D02*
X253701Y266997D01*
Y268330D01*
X254368Y268997D01*
X257034D01*
X257700Y268330D01*
Y266997D01*
X257034Y266331D01*
X254368D01*
X257868Y214366D02*
X257201Y213699D01*
Y212366D01*
X257868Y211700D01*
X260534D01*
X261200Y212366D01*
Y213699D01*
X260534Y214366D01*
Y215699D02*
X261200Y216365D01*
Y217698D01*
X260534Y218365D01*
X257868D01*
X257201Y217698D01*
Y216365D01*
X257868Y215699D01*
X258534D01*
X259201Y216365D01*
Y218365D01*
X255135Y231632D02*
X254302Y230799D01*
Y229133D01*
X255135Y228300D01*
X258467D01*
X259300Y229133D01*
Y230799D01*
X258467Y231632D01*
X254302Y233298D02*
Y236631D01*
X255135D01*
X258467Y233298D01*
X259300D01*
X341268Y244666D02*
X340601Y243999D01*
Y242666D01*
X341268Y242000D01*
X343934D01*
X344600Y242666D01*
Y243999D01*
X343934Y244666D01*
X340601Y248664D02*
Y245999D01*
X342601D01*
X341934Y247332D01*
Y247998D01*
X342601Y248664D01*
X343934D01*
X344600Y247998D01*
Y246665D01*
X343934Y245999D01*
X367307Y60701D02*
X367807Y60201D01*
X368807D01*
X369306Y60701D01*
Y62700D01*
X368807Y63200D01*
X367807D01*
X367307Y62700D01*
X366307Y61201D02*
X364308Y63200D01*
X365308Y62200D01*
X364308Y61201D01*
X366307Y63200D01*
X363308D02*
X362309D01*
X362808D01*
Y60201D01*
X363308Y60701D01*
X366507Y50301D02*
X367007Y49801D01*
X368006D01*
X368506Y50301D01*
Y52300D01*
X368006Y52800D01*
X367007D01*
X366507Y52300D01*
X365507Y50801D02*
X363508Y52800D01*
X364508Y51800D01*
X363508Y50801D01*
X365507Y52800D01*
X360509D02*
X362508D01*
X360509Y50801D01*
Y50301D01*
X361009Y49801D01*
X362008D01*
X362508Y50301D01*
X369601Y39099D02*
X369101Y38600D01*
Y37600D01*
X369601Y37100D01*
X371600D01*
X372100Y37600D01*
Y38600D01*
X371600Y39099D01*
X370101Y40099D02*
X372100Y42098D01*
X371100Y41099D01*
X370101Y42098D01*
X372100Y40099D01*
X369601Y43098D02*
X369101Y43598D01*
Y44598D01*
X369601Y45097D01*
X370101D01*
X370601Y44598D01*
Y44098D01*
Y44598D01*
X371100Y45097D01*
X371600D01*
X372100Y44598D01*
Y43598D01*
X371600Y43098D01*
X387500Y62500D02*
Y58501D01*
X385501D01*
X384834Y59168D01*
Y60501D01*
X385501Y61167D01*
X387500D01*
X386167D02*
X384834Y62500D01*
X383501D02*
X382168D01*
X382835D01*
Y58501D01*
X383501Y59168D01*
X376500Y49500D02*
X372501D01*
Y51499D01*
X373168Y52166D01*
X374501D01*
X375167Y51499D01*
Y49500D01*
Y50833D02*
X376500Y52166D01*
Y56164D02*
Y53499D01*
X373834Y56164D01*
X373168D01*
X372501Y55498D01*
Y54165D01*
X373168Y53499D01*
X388200Y43000D02*
Y39001D01*
X386201D01*
X385534Y39668D01*
Y41001D01*
X386201Y41667D01*
X388200D01*
X386867D02*
X385534Y43000D01*
X384201Y39668D02*
X383535Y39001D01*
X382202D01*
X381536Y39668D01*
Y40334D01*
X382202Y41001D01*
X382868D01*
X382202D01*
X381536Y41667D01*
Y42334D01*
X382202Y43000D01*
X383535D01*
X384201Y42334D01*
X369568Y22666D02*
X368901Y21999D01*
Y20666D01*
X369568Y20000D01*
X372234D01*
X372900Y20666D01*
Y21999D01*
X372234Y22666D01*
X372900Y26665D02*
Y23999D01*
X370234Y26665D01*
X369568D01*
X368901Y25998D01*
Y24665D01*
X369568Y23999D01*
X299907Y60701D02*
X300407Y60201D01*
X301407D01*
X301906Y60701D01*
Y62700D01*
X301407Y63200D01*
X300407D01*
X299907Y62700D01*
X298907Y61201D02*
X296908Y63200D01*
X297908Y62200D01*
X296908Y61201D01*
X298907Y63200D01*
X295908D02*
X294909D01*
X295408D01*
Y60201D01*
X295908Y60701D01*
X299107Y50301D02*
X299607Y49801D01*
X300606D01*
X301106Y50301D01*
Y52300D01*
X300606Y52800D01*
X299607D01*
X299107Y52300D01*
X298107Y50801D02*
X296108Y52800D01*
X297108Y51800D01*
X296108Y50801D01*
X298107Y52800D01*
X293109D02*
X295108D01*
X293109Y50801D01*
Y50301D01*
X293609Y49801D01*
X294608D01*
X295108Y50301D01*
X302201Y39099D02*
X301701Y38600D01*
Y37600D01*
X302201Y37100D01*
X304200D01*
X304700Y37600D01*
Y38600D01*
X304200Y39099D01*
X302701Y40099D02*
X304700Y42098D01*
X303700Y41099D01*
X302701Y42098D01*
X304700Y40099D01*
X302201Y43098D02*
X301701Y43598D01*
Y44598D01*
X302201Y45097D01*
X302701D01*
X303201Y44598D01*
Y44098D01*
Y44598D01*
X303700Y45097D01*
X304200D01*
X304700Y44598D01*
Y43598D01*
X304200Y43098D01*
X319500Y62500D02*
Y58501D01*
X317501D01*
X316834Y59168D01*
Y60501D01*
X317501Y61167D01*
X319500D01*
X318167D02*
X316834Y62500D01*
X315501D02*
X314168D01*
X314835D01*
Y58501D01*
X315501Y59168D01*
X309100Y49500D02*
X305101D01*
Y51499D01*
X305768Y52166D01*
X307101D01*
X307767Y51499D01*
Y49500D01*
Y50833D02*
X309100Y52166D01*
Y56164D02*
Y53499D01*
X306434Y56164D01*
X305768D01*
X305101Y55498D01*
Y54165D01*
X305768Y53499D01*
X320800Y43000D02*
Y39001D01*
X318801D01*
X318134Y39668D01*
Y41001D01*
X318801Y41667D01*
X320800D01*
X319467D02*
X318134Y43000D01*
X316801Y39668D02*
X316135Y39001D01*
X314802D01*
X314136Y39668D01*
Y40334D01*
X314802Y41001D01*
X315468D01*
X314802D01*
X314136Y41667D01*
Y42334D01*
X314802Y43000D01*
X316135D01*
X316801Y42334D01*
X302168Y22666D02*
X301501Y21999D01*
Y20666D01*
X302168Y20000D01*
X304834D01*
X305500Y20666D01*
Y21999D01*
X304834Y22666D01*
X305500Y26665D02*
Y23999D01*
X302834Y26665D01*
X302168D01*
X301501Y25998D01*
Y24665D01*
X302168Y23999D01*
X231907Y60701D02*
X232407Y60201D01*
X233406D01*
X233906Y60701D01*
Y62700D01*
X233406Y63200D01*
X232407D01*
X231907Y62700D01*
X230907Y61201D02*
X228908Y63200D01*
X229908Y62200D01*
X228908Y61201D01*
X230907Y63200D01*
X227908D02*
X226909D01*
X227408D01*
Y60201D01*
X227908Y60701D01*
X231107Y50301D02*
X231607Y49801D01*
X232607D01*
X233106Y50301D01*
Y52300D01*
X232607Y52800D01*
X231607D01*
X231107Y52300D01*
X230107Y50801D02*
X228108Y52800D01*
X229108Y51800D01*
X228108Y50801D01*
X230107Y52800D01*
X225109D02*
X227108D01*
X225109Y50801D01*
Y50301D01*
X225609Y49801D01*
X226608D01*
X227108Y50301D01*
X234201Y39099D02*
X233701Y38600D01*
Y37600D01*
X234201Y37100D01*
X236200D01*
X236700Y37600D01*
Y38600D01*
X236200Y39099D01*
X234701Y40099D02*
X236700Y42098D01*
X235700Y41099D01*
X234701Y42098D01*
X236700Y40099D01*
X234201Y43098D02*
X233701Y43598D01*
Y44598D01*
X234201Y45097D01*
X234701D01*
X235201Y44598D01*
Y44098D01*
Y44598D01*
X235700Y45097D01*
X236200D01*
X236700Y44598D01*
Y43598D01*
X236200Y43098D01*
X251500Y62500D02*
Y58501D01*
X249501D01*
X248834Y59168D01*
Y60501D01*
X249501Y61167D01*
X251500D01*
X250167D02*
X248834Y62500D01*
X247501D02*
X246168D01*
X246835D01*
Y58501D01*
X247501Y59168D01*
X241100Y49500D02*
X237101D01*
Y51499D01*
X237768Y52166D01*
X239101D01*
X239767Y51499D01*
Y49500D01*
Y50833D02*
X241100Y52166D01*
Y56164D02*
Y53499D01*
X238434Y56164D01*
X237768D01*
X237101Y55498D01*
Y54165D01*
X237768Y53499D01*
X252800Y43000D02*
Y39001D01*
X250801D01*
X250134Y39668D01*
Y41001D01*
X250801Y41667D01*
X252800D01*
X251467D02*
X250134Y43000D01*
X248801Y39668D02*
X248135Y39001D01*
X246802D01*
X246135Y39668D01*
Y40334D01*
X246802Y41001D01*
X247468D01*
X246802D01*
X246135Y41667D01*
Y42334D01*
X246802Y43000D01*
X248135D01*
X248801Y42334D01*
X234168Y22666D02*
X233501Y21999D01*
Y20666D01*
X234168Y20000D01*
X236834D01*
X237500Y20666D01*
Y21999D01*
X236834Y22666D01*
X237500Y26665D02*
Y23999D01*
X234834Y26665D01*
X234168D01*
X233501Y25998D01*
Y24665D01*
X234168Y23999D01*
Y124166D02*
X233501Y123499D01*
Y122167D01*
X234168Y121500D01*
X236834D01*
X237500Y122167D01*
Y123499D01*
X236834Y124166D01*
X237500Y128165D02*
Y125499D01*
X234834Y128165D01*
X234168D01*
X233501Y127498D01*
Y126165D01*
X234168Y125499D01*
X252800Y144500D02*
Y140501D01*
X250801D01*
X250134Y141168D01*
Y142501D01*
X250801Y143167D01*
X252800D01*
X251467D02*
X250134Y144500D01*
X248801Y141168D02*
X248135Y140501D01*
X246802D01*
X246135Y141168D01*
Y141834D01*
X246802Y142501D01*
X247468D01*
X246802D01*
X246135Y143167D01*
Y143833D01*
X246802Y144500D01*
X248135D01*
X248801Y143833D01*
X241100Y151000D02*
X237101D01*
Y152999D01*
X237768Y153666D01*
X239101D01*
X239767Y152999D01*
Y151000D01*
Y152333D02*
X241100Y153666D01*
Y157665D02*
Y154999D01*
X238434Y157665D01*
X237768D01*
X237101Y156998D01*
Y155665D01*
X237768Y154999D01*
X251500Y164000D02*
Y160001D01*
X249501D01*
X248834Y160668D01*
Y162001D01*
X249501Y162667D01*
X251500D01*
X250167D02*
X248834Y164000D01*
X247501D02*
X246168D01*
X246835D01*
Y160001D01*
X247501Y160668D01*
X234201Y140599D02*
X233701Y140100D01*
Y139100D01*
X234201Y138600D01*
X236200D01*
X236700Y139100D01*
Y140100D01*
X236200Y140599D01*
X234701Y141599D02*
X236700Y143598D01*
X235700Y142599D01*
X234701Y143598D01*
X236700Y141599D01*
X234201Y144598D02*
X233701Y145098D01*
Y146098D01*
X234201Y146597D01*
X234701D01*
X235201Y146098D01*
Y145598D01*
Y146098D01*
X235700Y146597D01*
X236200D01*
X236700Y146098D01*
Y145098D01*
X236200Y144598D01*
X231107Y151801D02*
X231607Y151301D01*
X232607D01*
X233106Y151801D01*
Y153800D01*
X232607Y154300D01*
X231607D01*
X231107Y153800D01*
X230107Y152301D02*
X228108Y154300D01*
X229108Y153300D01*
X228108Y152301D01*
X230107Y154300D01*
X225109D02*
X227108D01*
X225109Y152301D01*
Y151801D01*
X225609Y151301D01*
X226608D01*
X227108Y151801D01*
X231907Y162201D02*
X232407Y161701D01*
X233406D01*
X233906Y162201D01*
Y164200D01*
X233406Y164700D01*
X232407D01*
X231907Y164200D01*
X230907Y162701D02*
X228908Y164700D01*
X229908Y163700D01*
X228908Y162701D01*
X230907Y164700D01*
X227908D02*
X226909D01*
X227408D01*
Y161701D01*
X227908Y162201D01*
X302168Y124166D02*
X301501Y123499D01*
Y122167D01*
X302168Y121500D01*
X304834D01*
X305500Y122167D01*
Y123499D01*
X304834Y124166D01*
X305500Y128165D02*
Y125499D01*
X302834Y128165D01*
X302168D01*
X301501Y127498D01*
Y126165D01*
X302168Y125499D01*
X320800Y144500D02*
Y140501D01*
X318801D01*
X318134Y141168D01*
Y142501D01*
X318801Y143167D01*
X320800D01*
X319467D02*
X318134Y144500D01*
X316801Y141168D02*
X316135Y140501D01*
X314802D01*
X314136Y141168D01*
Y141834D01*
X314802Y142501D01*
X315468D01*
X314802D01*
X314136Y143167D01*
Y143833D01*
X314802Y144500D01*
X316135D01*
X316801Y143833D01*
X309100Y151000D02*
X305101D01*
Y152999D01*
X305768Y153666D01*
X307101D01*
X307767Y152999D01*
Y151000D01*
Y152333D02*
X309100Y153666D01*
Y157665D02*
Y154999D01*
X306434Y157665D01*
X305768D01*
X305101Y156998D01*
Y155665D01*
X305768Y154999D01*
X320000Y164000D02*
Y160001D01*
X318001D01*
X317334Y160668D01*
Y162001D01*
X318001Y162667D01*
X320000D01*
X318667D02*
X317334Y164000D01*
X316001D02*
X314668D01*
X315335D01*
Y160001D01*
X316001Y160668D01*
X302201Y140599D02*
X301701Y140100D01*
Y139100D01*
X302201Y138600D01*
X304200D01*
X304700Y139100D01*
Y140100D01*
X304200Y140599D01*
X302701Y141599D02*
X304700Y143598D01*
X303700Y142599D01*
X302701Y143598D01*
X304700Y141599D01*
X302201Y144598D02*
X301701Y145098D01*
Y146098D01*
X302201Y146597D01*
X302701D01*
X303201Y146098D01*
Y145598D01*
Y146098D01*
X303700Y146597D01*
X304200D01*
X304700Y146098D01*
Y145098D01*
X304200Y144598D01*
X299107Y151801D02*
X299607Y151301D01*
X300606D01*
X301106Y151801D01*
Y153800D01*
X300606Y154300D01*
X299607D01*
X299107Y153800D01*
X298107Y152301D02*
X296108Y154300D01*
X297108Y153300D01*
X296108Y152301D01*
X298107Y154300D01*
X293109D02*
X295108D01*
X293109Y152301D01*
Y151801D01*
X293609Y151301D01*
X294608D01*
X295108Y151801D01*
X299907Y162201D02*
X300407Y161701D01*
X301407D01*
X301906Y162201D01*
Y164200D01*
X301407Y164700D01*
X300407D01*
X299907Y164200D01*
X298907Y162701D02*
X296908Y164700D01*
X297908Y163700D01*
X296908Y162701D01*
X298907Y164700D01*
X295908D02*
X294909D01*
X295408D01*
Y161701D01*
X295908Y162201D01*
X369568Y124166D02*
X368901Y123499D01*
Y122167D01*
X369568Y121500D01*
X372234D01*
X372900Y122167D01*
Y123499D01*
X372234Y124166D01*
X372900Y128165D02*
Y125499D01*
X370234Y128165D01*
X369568D01*
X368901Y127498D01*
Y126165D01*
X369568Y125499D01*
X388200Y144500D02*
Y140501D01*
X386201D01*
X385534Y141168D01*
Y142501D01*
X386201Y143167D01*
X388200D01*
X386867D02*
X385534Y144500D01*
X384201Y141168D02*
X383535Y140501D01*
X382202D01*
X381536Y141168D01*
Y141834D01*
X382202Y142501D01*
X382868D01*
X382202D01*
X381536Y143167D01*
Y143833D01*
X382202Y144500D01*
X383535D01*
X384201Y143833D01*
X376500Y151000D02*
X372501D01*
Y152999D01*
X373168Y153666D01*
X374501D01*
X375167Y152999D01*
Y151000D01*
Y152333D02*
X376500Y153666D01*
Y157665D02*
Y154999D01*
X373834Y157665D01*
X373168D01*
X372501Y156998D01*
Y155665D01*
X373168Y154999D01*
X387000Y164000D02*
Y160001D01*
X385001D01*
X384334Y160668D01*
Y162001D01*
X385001Y162667D01*
X387000D01*
X385667D02*
X384334Y164000D01*
X383001D02*
X381668D01*
X382335D01*
Y160001D01*
X383001Y160668D01*
X369601Y140599D02*
X369101Y140100D01*
Y139100D01*
X369601Y138600D01*
X371600D01*
X372100Y139100D01*
Y140100D01*
X371600Y140599D01*
X370101Y141599D02*
X372100Y143598D01*
X371100Y142599D01*
X370101Y143598D01*
X372100Y141599D01*
X369601Y144598D02*
X369101Y145098D01*
Y146098D01*
X369601Y146597D01*
X370101D01*
X370601Y146098D01*
Y145598D01*
Y146098D01*
X371100Y146597D01*
X371600D01*
X372100Y146098D01*
Y145098D01*
X371600Y144598D01*
X366507Y151801D02*
X367007Y151301D01*
X368006D01*
X368506Y151801D01*
Y153800D01*
X368006Y154300D01*
X367007D01*
X366507Y153800D01*
X365507Y152301D02*
X363508Y154300D01*
X364508Y153300D01*
X363508Y152301D01*
X365507Y154300D01*
X360509D02*
X362508D01*
X360509Y152301D01*
Y151801D01*
X361009Y151301D01*
X362008D01*
X362508Y151801D01*
X367307Y162201D02*
X367807Y161701D01*
X368807D01*
X369306Y162201D01*
Y164200D01*
X368807Y164700D01*
X367807D01*
X367307Y164200D01*
X366307Y162701D02*
X364308Y164700D01*
X365308Y163700D01*
X364308Y162701D01*
X366307Y164700D01*
X363308D02*
X362309D01*
X362808D01*
Y161701D01*
X363308Y162201D01*
X156066Y277432D02*
X155399Y278099D01*
X154067D01*
X153400Y277432D01*
Y276766D01*
X154067Y276099D01*
X155399D01*
X156066Y275433D01*
Y274766D01*
X155399Y274100D01*
X154067D01*
X153400Y274766D01*
X157399Y278099D02*
Y274100D01*
X159398D01*
X160064Y274766D01*
Y277432D01*
X159398Y278099D01*
X157399D01*
X161397Y274100D02*
Y276766D01*
X162730Y278099D01*
X164063Y276766D01*
Y274100D01*
Y276099D01*
X161397D01*
X156066Y267432D02*
X155399Y268099D01*
X154067D01*
X153400Y267432D01*
Y266766D01*
X154067Y266099D01*
X155399D01*
X156066Y265433D01*
Y264766D01*
X155399Y264100D01*
X154067D01*
X153400Y264766D01*
X160064Y267432D02*
X159398Y268099D01*
X158065D01*
X157399Y267432D01*
Y264766D01*
X158065Y264100D01*
X159398D01*
X160064Y264766D01*
X161397Y268099D02*
Y264100D01*
X164063D01*
X153400Y288099D02*
X154733D01*
X154067D01*
Y284100D01*
X153400D01*
X154733D01*
X156732D02*
Y288099D01*
X159398Y284100D01*
Y288099D01*
X160731D02*
X163397D01*
X162064D01*
Y284100D01*
X156066Y257432D02*
X155399Y258099D01*
X154067D01*
X153400Y257432D01*
Y254766D01*
X154067Y254100D01*
X155399D01*
X156066Y254766D01*
Y256099D01*
X154733D01*
X157399Y254100D02*
Y258099D01*
X160064Y254100D01*
Y258099D01*
X161397D02*
Y254100D01*
X163397D01*
X164063Y254766D01*
Y257432D01*
X163397Y258099D01*
X161397D01*
X153400Y247432D02*
X154067Y248099D01*
X155399D01*
X156066Y247432D01*
Y246766D01*
X155399Y246099D01*
X154733D01*
X155399D01*
X156066Y245433D01*
Y244766D01*
X155399Y244100D01*
X154067D01*
X153400Y244766D01*
X157399Y248099D02*
Y245433D01*
X158732Y244100D01*
X160064Y245433D01*
Y248099D01*
X161397Y247432D02*
X162064Y248099D01*
X163397D01*
X164063Y247432D01*
Y246766D01*
X163397Y246099D01*
X162730D01*
X163397D01*
X164063Y245433D01*
Y244766D01*
X163397Y244100D01*
X162064D01*
X161397Y244766D01*
X353068Y355066D02*
X352401Y354399D01*
Y353066D01*
X353068Y352400D01*
X353734D01*
X354401Y353066D01*
Y354399D01*
X355067Y355066D01*
X355734D01*
X356400Y354399D01*
Y353066D01*
X355734Y352400D01*
X352401Y356399D02*
X356400D01*
Y358398D01*
X355734Y359065D01*
X353068D01*
X352401Y358398D01*
Y356399D01*
X356400Y360397D02*
X353734D01*
X352401Y361730D01*
X353734Y363063D01*
X356400D01*
X354401D01*
Y360397D01*
X363068Y355066D02*
X362401Y354399D01*
Y353066D01*
X363068Y352400D01*
X363734D01*
X364401Y353066D01*
Y354399D01*
X365067Y355066D01*
X365734D01*
X366400Y354399D01*
Y353066D01*
X365734Y352400D01*
X363068Y359065D02*
X362401Y358398D01*
Y357065D01*
X363068Y356399D01*
X365734D01*
X366400Y357065D01*
Y358398D01*
X365734Y359065D01*
X362401Y360397D02*
X366400D01*
Y363063D01*
X342401Y352400D02*
Y353733D01*
Y353066D01*
X346400D01*
Y352400D01*
Y353733D01*
Y355732D02*
X342401D01*
X346400Y358398D01*
X342401D01*
Y359731D02*
Y362397D01*
Y361064D01*
X346400D01*
X373068Y355066D02*
X372401Y354399D01*
Y353066D01*
X373068Y352400D01*
X375734D01*
X376400Y353066D01*
Y354399D01*
X375734Y355066D01*
X374401D01*
Y353733D01*
X376400Y356399D02*
X372401D01*
X376400Y359065D01*
X372401D01*
Y360397D02*
X376400D01*
Y362397D01*
X375734Y363063D01*
X373068D01*
X372401Y362397D01*
Y360397D01*
X383068Y352400D02*
X382401Y353066D01*
Y354399D01*
X383068Y355066D01*
X383734D01*
X384401Y354399D01*
Y353733D01*
Y354399D01*
X385067Y355066D01*
X385734D01*
X386400Y354399D01*
Y353066D01*
X385734Y352400D01*
X382401Y356399D02*
X385067D01*
X386400Y357732D01*
X385067Y359065D01*
X382401D01*
X383068Y360397D02*
X382401Y361064D01*
Y362397D01*
X383068Y363063D01*
X383734D01*
X384401Y362397D01*
Y361730D01*
Y362397D01*
X385067Y363063D01*
X385734D01*
X386400Y362397D01*
Y361064D01*
X385734Y360397D01*
X154066Y40432D02*
X153399Y41099D01*
X152067D01*
X151400Y40432D01*
Y39766D01*
X152067Y39099D01*
X153399D01*
X154066Y38433D01*
Y37766D01*
X153399Y37100D01*
X152067D01*
X151400Y37766D01*
X155399Y41099D02*
Y37100D01*
X157398D01*
X158064Y37766D01*
Y40432D01*
X157398Y41099D01*
X155399D01*
X159397Y37100D02*
Y39766D01*
X160730Y41099D01*
X162063Y39766D01*
Y37100D01*
Y39099D01*
X159397D01*
X154066Y30432D02*
X153399Y31099D01*
X152067D01*
X151400Y30432D01*
Y29766D01*
X152067Y29099D01*
X153399D01*
X154066Y28433D01*
Y27766D01*
X153399Y27100D01*
X152067D01*
X151400Y27766D01*
X158064Y30432D02*
X157398Y31099D01*
X156065D01*
X155399Y30432D01*
Y27766D01*
X156065Y27100D01*
X157398D01*
X158064Y27766D01*
X159397Y31099D02*
Y27100D01*
X162063D01*
X151400Y51099D02*
X152733D01*
X152067D01*
Y47100D01*
X151400D01*
X152733D01*
X154732D02*
Y51099D01*
X157398Y47100D01*
Y51099D01*
X158731D02*
X161397D01*
X160064D01*
Y47100D01*
X154066Y20432D02*
X153399Y21099D01*
X152067D01*
X151400Y20432D01*
Y17766D01*
X152067Y17100D01*
X153399D01*
X154066Y17766D01*
Y19099D01*
X152733D01*
X155399Y17100D02*
Y21099D01*
X158064Y17100D01*
Y21099D01*
X159397D02*
Y17100D01*
X161397D01*
X162063Y17766D01*
Y20432D01*
X161397Y21099D01*
X159397D01*
X151400Y10432D02*
X152067Y11099D01*
X153399D01*
X154066Y10432D01*
Y9766D01*
X153399Y9099D01*
X152733D01*
X153399D01*
X154066Y8433D01*
Y7767D01*
X153399Y7100D01*
X152067D01*
X151400Y7767D01*
X155399Y11099D02*
Y8433D01*
X156732Y7100D01*
X158064Y8433D01*
Y11099D01*
X159397Y10432D02*
X160064Y11099D01*
X161397D01*
X162063Y10432D01*
Y9766D01*
X161397Y9099D01*
X160730D01*
X161397D01*
X162063Y8433D01*
Y7767D01*
X161397Y7100D01*
X160064D01*
X159397Y7767D01*
X15000Y277399D02*
X17666D01*
X16333D01*
Y273400D01*
X18999Y276066D02*
X21665Y273400D01*
X20332Y274733D01*
X21665Y276066D01*
X18999Y273400D01*
X22997Y277399D02*
Y273400D01*
X24997D01*
X25663Y274066D01*
Y276732D01*
X24997Y277399D01*
X22997D01*
X15000Y263400D02*
Y267399D01*
X16999D01*
X17666Y266732D01*
Y265399D01*
X16999Y264733D01*
X15000D01*
X16333D02*
X17666Y263400D01*
X18999Y266066D02*
X21665Y263400D01*
X20332Y264733D01*
X21665Y266066D01*
X18999Y263400D01*
X22997Y267399D02*
Y263400D01*
X24997D01*
X25663Y264066D01*
Y266732D01*
X24997Y267399D01*
X22997D01*
X11766Y239632D02*
X11099Y240299D01*
X9766D01*
X9100Y239632D01*
Y236966D01*
X9766Y236300D01*
X11099D01*
X11766Y236966D01*
Y238299D01*
X10433D01*
X13099Y236300D02*
Y240299D01*
X15098D01*
X15765Y239632D01*
Y238299D01*
X15098Y237633D01*
X13099D01*
X17097Y240299D02*
X18430D01*
X17764D01*
Y236300D01*
X17097D01*
X18430D01*
X22429Y240299D02*
X21096D01*
X20430Y239632D01*
Y236966D01*
X21096Y236300D01*
X22429D01*
X23096Y236966D01*
Y239632D01*
X22429Y240299D01*
X24428Y239632D02*
X25095Y240299D01*
X26428D01*
X27094Y239632D01*
Y236966D01*
X26428Y236300D01*
X25095D01*
X24428Y236966D01*
Y239632D01*
X15000Y41399D02*
X17666D01*
X16333D01*
Y37400D01*
X18999Y40066D02*
X21665Y37400D01*
X20332Y38733D01*
X21665Y40066D01*
X18999Y37400D01*
X22997Y41399D02*
Y37400D01*
X24997D01*
X25663Y38066D01*
Y40732D01*
X24997Y41399D01*
X22997D01*
X15000Y27400D02*
Y31399D01*
X16999D01*
X17666Y30732D01*
Y29399D01*
X16999Y28733D01*
X15000D01*
X16333D02*
X17666Y27400D01*
X18999Y30066D02*
X21665Y27400D01*
X20332Y28733D01*
X21665Y30066D01*
X18999Y27400D01*
X22997Y31399D02*
Y27400D01*
X24997D01*
X25663Y28066D01*
Y30732D01*
X24997Y31399D01*
X22997D01*
X11766Y3632D02*
X11099Y4299D01*
X9766D01*
X9100Y3632D01*
Y967D01*
X9766Y300D01*
X11099D01*
X11766Y967D01*
Y2299D01*
X10433D01*
X13099Y300D02*
Y4299D01*
X15098D01*
X15765Y3632D01*
Y2299D01*
X15098Y1633D01*
X13099D01*
X17097Y4299D02*
X18430D01*
X17764D01*
Y300D01*
X17097D01*
X18430D01*
X22429Y4299D02*
X21096D01*
X20430Y3632D01*
Y967D01*
X21096Y300D01*
X22429D01*
X23096Y967D01*
Y3632D01*
X22429Y4299D01*
X24428Y3632D02*
X25095Y4299D01*
X26428D01*
X27094Y3632D01*
Y967D01*
X26428Y300D01*
X25095D01*
X24428Y967D01*
Y3632D01*
X352101Y216000D02*
Y218666D01*
Y217333D01*
X356100D01*
X353434Y219999D02*
X356100Y222664D01*
X354767Y221332D01*
X353434Y222664D01*
X356100Y219999D01*
X352101Y223997D02*
X356100D01*
Y225997D01*
X355434Y226663D01*
X352768D01*
X352101Y225997D01*
Y223997D01*
X366100Y216000D02*
X362101D01*
Y217999D01*
X362768Y218666D01*
X364101D01*
X364767Y217999D01*
Y216000D01*
Y217333D02*
X366100Y218666D01*
X363434Y219999D02*
X366100Y222664D01*
X364767Y221332D01*
X363434Y222664D01*
X366100Y219999D01*
X362101Y223997D02*
X366100D01*
Y225997D01*
X365434Y226663D01*
X362768D01*
X362101Y225997D01*
Y223997D01*
X389868Y212766D02*
X389201Y212099D01*
Y210766D01*
X389868Y210100D01*
X392534D01*
X393200Y210766D01*
Y212099D01*
X392534Y212766D01*
X391201D01*
Y211433D01*
X393200Y214099D02*
X389201D01*
Y216098D01*
X389868Y216764D01*
X391201D01*
X391867Y216098D01*
Y214099D01*
X389201Y218097D02*
Y219430D01*
Y218764D01*
X393200D01*
Y218097D01*
Y219430D01*
X389201Y223429D02*
Y222096D01*
X389868Y221430D01*
X392534D01*
X393200Y222096D01*
Y223429D01*
X392534Y224096D01*
X389868D01*
X389201Y223429D01*
X389868Y225428D02*
X389201Y226095D01*
Y227428D01*
X389868Y228094D01*
X392534D01*
X393200Y227428D01*
Y226095D01*
X392534Y225428D01*
X389868D01*
X15168Y252666D02*
X14501Y251999D01*
Y250666D01*
X15168Y250000D01*
X17833D01*
X18500Y250666D01*
Y251999D01*
X17833Y252666D01*
X16501D01*
Y251333D01*
X18500Y253999D02*
X14501D01*
X18500Y256664D01*
X14501D01*
Y257997D02*
X18500D01*
Y259997D01*
X17833Y260663D01*
X15168D01*
X14501Y259997D01*
Y257997D01*
X221775Y167366D02*
X221108Y166699D01*
Y165366D01*
X221775Y164700D01*
X222441D01*
X223108Y165366D01*
Y166699D01*
X223774Y167366D01*
X224441D01*
X225107Y166699D01*
Y165366D01*
X224441Y164700D01*
X221108Y168699D02*
X225107D01*
Y170698D01*
X224441Y171364D01*
X221775D01*
X221108Y170698D01*
Y168699D01*
X225107Y172697D02*
X222441D01*
X221108Y174030D01*
X222441Y175363D01*
X225107D01*
X223108D01*
Y172697D01*
X211601Y165600D02*
Y166933D01*
Y166267D01*
X215600D01*
Y165600D01*
Y166933D01*
Y168932D02*
X211601D01*
X215600Y171598D01*
X211601D01*
Y172931D02*
Y175597D01*
Y174264D01*
X215600D01*
X233768Y168266D02*
X233101Y167599D01*
Y166267D01*
X233768Y165600D01*
X234434D01*
X235101Y166267D01*
Y167599D01*
X235767Y168266D01*
X236434D01*
X237100Y167599D01*
Y166267D01*
X236434Y165600D01*
X233768Y172265D02*
X233101Y171598D01*
Y170265D01*
X233768Y169599D01*
X236434D01*
X237100Y170265D01*
Y171598D01*
X236434Y172265D01*
X233101Y173597D02*
X237100D01*
Y176263D01*
X239468Y167566D02*
X238801Y166899D01*
Y165567D01*
X239468Y164900D01*
X242134D01*
X242800Y165567D01*
Y166899D01*
X242134Y167566D01*
X240801D01*
Y166233D01*
X242800Y168899D02*
X238801D01*
X242800Y171564D01*
X238801D01*
Y172897D02*
X242800D01*
Y174897D01*
X242134Y175563D01*
X239468D01*
X238801Y174897D01*
Y172897D01*
X289775Y167366D02*
X289108Y166699D01*
Y165366D01*
X289775Y164700D01*
X290441D01*
X291108Y165366D01*
Y166699D01*
X291774Y167366D01*
X292441D01*
X293107Y166699D01*
Y165366D01*
X292441Y164700D01*
X289108Y168699D02*
X293107D01*
Y170698D01*
X292441Y171364D01*
X289775D01*
X289108Y170698D01*
Y168699D01*
X293107Y172697D02*
X290441D01*
X289108Y174030D01*
X290441Y175363D01*
X293107D01*
X291108D01*
Y172697D01*
X279601Y165600D02*
Y166933D01*
Y166267D01*
X283600D01*
Y165600D01*
Y166933D01*
Y168932D02*
X279601D01*
X283600Y171598D01*
X279601D01*
Y172931D02*
Y175597D01*
Y174264D01*
X283600D01*
X301768Y168266D02*
X301101Y167599D01*
Y166267D01*
X301768Y165600D01*
X302434D01*
X303101Y166267D01*
Y167599D01*
X303767Y168266D01*
X304434D01*
X305100Y167599D01*
Y166267D01*
X304434Y165600D01*
X301768Y172265D02*
X301101Y171598D01*
Y170265D01*
X301768Y169599D01*
X304434D01*
X305100Y170265D01*
Y171598D01*
X304434Y172265D01*
X301101Y173597D02*
X305100D01*
Y176263D01*
X307468Y167566D02*
X306801Y166899D01*
Y165567D01*
X307468Y164900D01*
X310134D01*
X310800Y165567D01*
Y166899D01*
X310134Y167566D01*
X308801D01*
Y166233D01*
X310800Y168899D02*
X306801D01*
X310800Y171564D01*
X306801D01*
Y172897D02*
X310800D01*
Y174897D01*
X310134Y175563D01*
X307468D01*
X306801Y174897D01*
Y172897D01*
X357175Y167366D02*
X356508Y166699D01*
Y165366D01*
X357175Y164700D01*
X357841D01*
X358508Y165366D01*
Y166699D01*
X359174Y167366D01*
X359841D01*
X360507Y166699D01*
Y165366D01*
X359841Y164700D01*
X356508Y168699D02*
X360507D01*
Y170698D01*
X359841Y171364D01*
X357175D01*
X356508Y170698D01*
Y168699D01*
X360507Y172697D02*
X357841D01*
X356508Y174030D01*
X357841Y175363D01*
X360507D01*
X358508D01*
Y172697D01*
X347001Y165600D02*
Y166933D01*
Y166267D01*
X351000D01*
Y165600D01*
Y166933D01*
Y168932D02*
X347001D01*
X351000Y171598D01*
X347001D01*
Y172931D02*
Y175597D01*
Y174264D01*
X351000D01*
X369168Y168266D02*
X368501Y167599D01*
Y166267D01*
X369168Y165600D01*
X369834D01*
X370501Y166267D01*
Y167599D01*
X371167Y168266D01*
X371834D01*
X372500Y167599D01*
Y166267D01*
X371834Y165600D01*
X369168Y172265D02*
X368501Y171598D01*
Y170265D01*
X369168Y169599D01*
X371834D01*
X372500Y170265D01*
Y171598D01*
X371834Y172265D01*
X368501Y173597D02*
X372500D01*
Y176263D01*
X374868Y167566D02*
X374201Y166899D01*
Y165567D01*
X374868Y164900D01*
X377534D01*
X378200Y165567D01*
Y166899D01*
X377534Y167566D01*
X376201D01*
Y166233D01*
X378200Y168899D02*
X374201D01*
X378200Y171564D01*
X374201D01*
Y172897D02*
X378200D01*
Y174897D01*
X377534Y175563D01*
X374868D01*
X374201Y174897D01*
Y172897D01*
X221675Y65366D02*
X221008Y64699D01*
Y63366D01*
X221675Y62700D01*
X222341D01*
X223008Y63366D01*
Y64699D01*
X223674Y65366D01*
X224341D01*
X225007Y64699D01*
Y63366D01*
X224341Y62700D01*
X221008Y66699D02*
X225007D01*
Y68698D01*
X224341Y69365D01*
X221675D01*
X221008Y68698D01*
Y66699D01*
X225007Y70697D02*
X222341D01*
X221008Y72030D01*
X222341Y73363D01*
X225007D01*
X223008D01*
Y70697D01*
X211501Y63600D02*
Y64933D01*
Y64266D01*
X215500D01*
Y63600D01*
Y64933D01*
Y66932D02*
X211501D01*
X215500Y69598D01*
X211501D01*
Y70931D02*
Y73597D01*
Y72264D01*
X215500D01*
X233668Y66266D02*
X233001Y65599D01*
Y64266D01*
X233668Y63600D01*
X234334D01*
X235001Y64266D01*
Y65599D01*
X235667Y66266D01*
X236334D01*
X237000Y65599D01*
Y64266D01*
X236334Y63600D01*
X233668Y70265D02*
X233001Y69598D01*
Y68265D01*
X233668Y67599D01*
X236334D01*
X237000Y68265D01*
Y69598D01*
X236334Y70265D01*
X233001Y71597D02*
X237000D01*
Y74263D01*
X239368Y65566D02*
X238701Y64899D01*
Y63566D01*
X239368Y62900D01*
X242034D01*
X242700Y63566D01*
Y64899D01*
X242034Y65566D01*
X240701D01*
Y64233D01*
X242700Y66899D02*
X238701D01*
X242700Y69564D01*
X238701D01*
Y70897D02*
X242700D01*
Y72897D01*
X242034Y73563D01*
X239368D01*
X238701Y72897D01*
Y70897D01*
X289675Y65866D02*
X289008Y65199D01*
Y63866D01*
X289675Y63200D01*
X290341D01*
X291008Y63866D01*
Y65199D01*
X291674Y65866D01*
X292341D01*
X293007Y65199D01*
Y63866D01*
X292341Y63200D01*
X289008Y67199D02*
X293007D01*
Y69198D01*
X292341Y69864D01*
X289675D01*
X289008Y69198D01*
Y67199D01*
X293007Y71197D02*
X290341D01*
X289008Y72530D01*
X290341Y73863D01*
X293007D01*
X291008D01*
Y71197D01*
X279501Y64100D02*
Y65433D01*
Y64766D01*
X283500D01*
Y64100D01*
Y65433D01*
Y67432D02*
X279501D01*
X283500Y70098D01*
X279501D01*
Y71431D02*
Y74097D01*
Y72764D01*
X283500D01*
X301668Y66766D02*
X301001Y66099D01*
Y64766D01*
X301668Y64100D01*
X302334D01*
X303001Y64766D01*
Y66099D01*
X303667Y66766D01*
X304334D01*
X305000Y66099D01*
Y64766D01*
X304334Y64100D01*
X301668Y70764D02*
X301001Y70098D01*
Y68765D01*
X301668Y68099D01*
X304334D01*
X305000Y68765D01*
Y70098D01*
X304334Y70764D01*
X301001Y72097D02*
X305000D01*
Y74763D01*
X307368Y66066D02*
X306701Y65399D01*
Y64066D01*
X307368Y63400D01*
X310034D01*
X310700Y64066D01*
Y65399D01*
X310034Y66066D01*
X308701D01*
Y64733D01*
X310700Y67399D02*
X306701D01*
X310700Y70065D01*
X306701D01*
Y71397D02*
X310700D01*
Y73397D01*
X310034Y74063D01*
X307368D01*
X306701Y73397D01*
Y71397D01*
X357175Y65366D02*
X356508Y64699D01*
Y63366D01*
X357175Y62700D01*
X357841D01*
X358508Y63366D01*
Y64699D01*
X359174Y65366D01*
X359841D01*
X360507Y64699D01*
Y63366D01*
X359841Y62700D01*
X356508Y66699D02*
X360507D01*
Y68698D01*
X359841Y69365D01*
X357175D01*
X356508Y68698D01*
Y66699D01*
X360507Y70697D02*
X357841D01*
X356508Y72030D01*
X357841Y73363D01*
X360507D01*
X358508D01*
Y70697D01*
X347001Y63600D02*
Y64933D01*
Y64266D01*
X351000D01*
Y63600D01*
Y64933D01*
Y66932D02*
X347001D01*
X351000Y69598D01*
X347001D01*
Y70931D02*
Y73597D01*
Y72264D01*
X351000D01*
X369168Y66266D02*
X368501Y65599D01*
Y64266D01*
X369168Y63600D01*
X369834D01*
X370501Y64266D01*
Y65599D01*
X371167Y66266D01*
X371834D01*
X372500Y65599D01*
Y64266D01*
X371834Y63600D01*
X369168Y70265D02*
X368501Y69598D01*
Y68265D01*
X369168Y67599D01*
X371834D01*
X372500Y68265D01*
Y69598D01*
X371834Y70265D01*
X368501Y71597D02*
X372500D01*
Y74263D01*
X374868Y65566D02*
X374201Y64899D01*
Y63566D01*
X374868Y62900D01*
X377534D01*
X378200Y63566D01*
Y64899D01*
X377534Y65566D01*
X376201D01*
Y64233D01*
X378200Y66899D02*
X374201D01*
X378200Y69564D01*
X374201D01*
Y70897D02*
X378200D01*
Y72897D01*
X377534Y73563D01*
X374868D01*
X374201Y72897D01*
Y70897D01*
X36675Y335366D02*
X36008Y334699D01*
Y333366D01*
X36675Y332700D01*
X37341D01*
X38008Y333366D01*
Y334699D01*
X38674Y335366D01*
X39341D01*
X40007Y334699D01*
Y333366D01*
X39341Y332700D01*
X36008Y336699D02*
X40007D01*
Y338698D01*
X39341Y339365D01*
X36675D01*
X36008Y338698D01*
Y336699D01*
X40007Y340697D02*
X37341D01*
X36008Y342030D01*
X37341Y343363D01*
X40007D01*
X38008D01*
Y340697D01*
X26501Y333600D02*
Y334933D01*
Y334266D01*
X30500D01*
Y333600D01*
Y334933D01*
Y336932D02*
X26501D01*
X30500Y339598D01*
X26501D01*
Y340931D02*
Y343597D01*
Y342264D01*
X30500D01*
X48668Y336266D02*
X48001Y335599D01*
Y334266D01*
X48668Y333600D01*
X49334D01*
X50001Y334266D01*
Y335599D01*
X50667Y336266D01*
X51334D01*
X52000Y335599D01*
Y334266D01*
X51334Y333600D01*
X48668Y340265D02*
X48001Y339598D01*
Y338265D01*
X48668Y337599D01*
X51334D01*
X52000Y338265D01*
Y339598D01*
X51334Y340265D01*
X48001Y341597D02*
X52000D01*
Y344263D01*
X54368Y335566D02*
X53701Y334899D01*
Y333566D01*
X54368Y332900D01*
X57034D01*
X57700Y333566D01*
Y334899D01*
X57034Y335566D01*
X55701D01*
Y334233D01*
X57700Y336899D02*
X53701D01*
X57700Y339564D01*
X53701D01*
Y340897D02*
X57700D01*
Y342897D01*
X57034Y343563D01*
X54368D01*
X53701Y342897D01*
Y340897D01*
X15168Y16166D02*
X14501Y15499D01*
Y14166D01*
X15168Y13500D01*
X17833D01*
X18500Y14166D01*
Y15499D01*
X17833Y16166D01*
X16501D01*
Y14833D01*
X18500Y17499D02*
X14501D01*
X18500Y20165D01*
X14501D01*
Y21497D02*
X18500D01*
Y23497D01*
X17833Y24163D01*
X15168D01*
X14501Y23497D01*
Y21497D01*
X372166Y217832D02*
X371499Y218499D01*
X370166D01*
X369500Y217832D01*
Y215166D01*
X370166Y214500D01*
X371499D01*
X372166Y215166D01*
Y216499D01*
X370833D01*
X373499Y214500D02*
Y218499D01*
X376165Y214500D01*
Y218499D01*
X377497D02*
Y214500D01*
X379497D01*
X380163Y215166D01*
Y217832D01*
X379497Y218499D01*
X377497D01*
D85*
X39681Y313769D02*
X45311D01*
X42437Y301761D02*
Y314261D01*
X316231Y239381D02*
Y245011D01*
X315739Y242137D02*
X328239D01*
X39681Y77469D02*
X45311D01*
X42437Y65461D02*
Y77961D01*
D86*
X156832Y295165D02*
X155999Y295998D01*
X154333D01*
X153500Y295165D01*
Y291833D01*
X154333Y291000D01*
X155999D01*
X156832Y291833D01*
X158498Y291000D02*
Y295998D01*
X161831Y291000D01*
Y295998D01*
X166829D02*
X163497D01*
Y293499D01*
X165163Y294332D01*
X165996D01*
X166829Y293499D01*
Y291833D01*
X165996Y291000D01*
X164330D01*
X163497Y291833D01*
X149000Y320600D02*
Y325598D01*
X151499D01*
X152332Y324765D01*
Y323099D01*
X151499Y322266D01*
X149000D01*
X150666D02*
X152332Y320600D01*
X156498D02*
X154831D01*
X153998Y321433D01*
Y323099D01*
X154831Y323932D01*
X156498D01*
X157331Y323099D01*
Y322266D01*
X153998D01*
X160663Y318934D02*
X161496D01*
X162329Y319767D01*
Y323932D01*
X159830D01*
X158997Y323099D01*
Y321433D01*
X159830Y320600D01*
X162329D01*
X163995D02*
X165661D01*
X164828D01*
Y325598D01*
X163995Y324765D01*
X89532Y366465D02*
X88699Y367298D01*
X87033D01*
X86200Y366465D01*
Y363133D01*
X87033Y362300D01*
X88699D01*
X89532Y363133D01*
X91198Y362300D02*
Y367298D01*
X94531Y362300D01*
Y367298D01*
X96197Y362300D02*
X97863D01*
X97030D01*
Y367298D01*
X96197Y366465D01*
X76100Y291698D02*
Y287533D01*
X76933Y286700D01*
X78599D01*
X79432Y287533D01*
Y291698D01*
X81098Y290865D02*
X81931Y291698D01*
X83598D01*
X84431Y290865D01*
Y290032D01*
X83598Y289199D01*
X82765D01*
X83598D01*
X84431Y288366D01*
Y287533D01*
X83598Y286700D01*
X81931D01*
X81098Y287533D01*
X140700Y361698D02*
Y356700D01*
X144032D01*
X145698D02*
X147364D01*
X146531D01*
Y361698D01*
X145698Y360865D01*
X5332Y288965D02*
X4499Y289798D01*
X2833D01*
X2000Y288965D01*
Y285633D01*
X2833Y284800D01*
X4499D01*
X5332Y285633D01*
X6998Y284800D02*
Y289798D01*
X10331Y284800D01*
Y289798D01*
X14496Y284800D02*
Y289798D01*
X11997Y287299D01*
X15329D01*
X173232Y296265D02*
X172399Y297098D01*
X170733D01*
X169900Y296265D01*
Y292933D01*
X170733Y292100D01*
X172399D01*
X173232Y292933D01*
X174898Y292100D02*
Y297098D01*
X178231Y292100D01*
Y297098D01*
X179897Y296265D02*
X180730Y297098D01*
X182396D01*
X183229Y296265D01*
Y295432D01*
X182396Y294599D01*
X181563D01*
X182396D01*
X183229Y293766D01*
Y292933D01*
X182396Y292100D01*
X180730D01*
X179897Y292933D01*
X155332Y58665D02*
X154499Y59498D01*
X152833D01*
X152000Y58665D01*
Y55333D01*
X152833Y54500D01*
X154499D01*
X155332Y55333D01*
X156998Y54500D02*
Y59498D01*
X160331Y54500D01*
Y59498D01*
X165329D02*
X161997D01*
Y56999D01*
X163663Y57832D01*
X164496D01*
X165329Y56999D01*
Y55333D01*
X164496Y54500D01*
X162830D01*
X161997Y55333D01*
X149000Y84300D02*
Y89298D01*
X151499D01*
X152332Y88465D01*
Y86799D01*
X151499Y85966D01*
X149000D01*
X150666D02*
X152332Y84300D01*
X156498D02*
X154831D01*
X153998Y85133D01*
Y86799D01*
X154831Y87632D01*
X156498D01*
X157331Y86799D01*
Y85966D01*
X153998D01*
X160663Y82634D02*
X161496D01*
X162329Y83467D01*
Y87632D01*
X159830D01*
X158997Y86799D01*
Y85133D01*
X159830Y84300D01*
X162329D01*
X163995D02*
X165661D01*
X164828D01*
Y89298D01*
X163995Y88465D01*
X89532Y130165D02*
X88699Y130998D01*
X87033D01*
X86200Y130165D01*
Y126833D01*
X87033Y126000D01*
X88699D01*
X89532Y126833D01*
X91198Y126000D02*
Y130998D01*
X94531Y126000D01*
Y130998D01*
X96197Y126000D02*
X97863D01*
X97030D01*
Y130998D01*
X96197Y130165D01*
X76100Y55398D02*
Y51233D01*
X76933Y50400D01*
X78599D01*
X79432Y51233D01*
Y55398D01*
X81098Y54565D02*
X81931Y55398D01*
X83598D01*
X84431Y54565D01*
Y53732D01*
X83598Y52899D01*
X82765D01*
X83598D01*
X84431Y52066D01*
Y51233D01*
X83598Y50400D01*
X81931D01*
X81098Y51233D01*
X140700Y125398D02*
Y120400D01*
X144032D01*
X145698D02*
X147364D01*
X146531D01*
Y125398D01*
X145698Y124565D01*
X5332Y52665D02*
X4499Y53498D01*
X2833D01*
X2000Y52665D01*
Y49333D01*
X2833Y48500D01*
X4499D01*
X5332Y49333D01*
X6998Y48500D02*
Y53498D01*
X10331Y48500D01*
Y53498D01*
X14496Y48500D02*
Y53498D01*
X11997Y50999D01*
X15329D01*
X173232Y59965D02*
X172399Y60798D01*
X170733D01*
X169900Y59965D01*
Y56633D01*
X170733Y55800D01*
X172399D01*
X173232Y56633D01*
X174898Y55800D02*
Y60798D01*
X178231Y55800D01*
Y60798D01*
X179897Y59965D02*
X180730Y60798D01*
X182396D01*
X183229Y59965D01*
Y59132D01*
X182396Y58299D01*
X181563D01*
X182396D01*
X183229Y57466D01*
Y56633D01*
X182396Y55800D01*
X180730D01*
X179897Y56633D01*
X335335Y353832D02*
X334502Y352999D01*
Y351333D01*
X335335Y350500D01*
X338667D01*
X339500Y351333D01*
Y352999D01*
X338667Y353832D01*
X339500Y355498D02*
X334502D01*
X339500Y358831D01*
X334502D01*
Y363829D02*
Y360497D01*
X337001D01*
X336168Y362163D01*
Y362996D01*
X337001Y363829D01*
X338667D01*
X339500Y362996D01*
Y361330D01*
X338667Y360497D01*
X309400Y348700D02*
X304402D01*
Y351199D01*
X305235Y352032D01*
X306901D01*
X307734Y351199D01*
Y348700D01*
Y350366D02*
X309400Y352032D01*
Y356198D02*
Y354531D01*
X308567Y353698D01*
X306901D01*
X306068Y354531D01*
Y356198D01*
X306901Y357031D01*
X307734D01*
Y353698D01*
X311066Y360363D02*
Y361196D01*
X310233Y362029D01*
X306068D01*
Y359530D01*
X306901Y358697D01*
X308567D01*
X309400Y359530D01*
Y362029D01*
Y363695D02*
Y365361D01*
Y364528D01*
X304402D01*
X305235Y363695D01*
X263535Y289232D02*
X262702Y288399D01*
Y286733D01*
X263535Y285900D01*
X266867D01*
X267700Y286733D01*
Y288399D01*
X266867Y289232D01*
X267700Y290898D02*
X262702D01*
X267700Y294231D01*
X262702D01*
X267700Y295897D02*
Y297563D01*
Y296730D01*
X262702D01*
X263535Y295897D01*
X338302Y275800D02*
X342467D01*
X343300Y276633D01*
Y278299D01*
X342467Y279132D01*
X338302D01*
X339135Y280798D02*
X338302Y281631D01*
Y283298D01*
X339135Y284131D01*
X339968D01*
X340801Y283298D01*
Y282465D01*
Y283298D01*
X341634Y284131D01*
X342467D01*
X343300Y283298D01*
Y281631D01*
X342467Y280798D01*
X268302Y340400D02*
X273300D01*
Y343732D01*
Y345398D02*
Y347064D01*
Y346231D01*
X268302D01*
X269135Y345398D01*
X341035Y205032D02*
X340202Y204199D01*
Y202533D01*
X341035Y201700D01*
X344367D01*
X345200Y202533D01*
Y204199D01*
X344367Y205032D01*
X345200Y206698D02*
X340202D01*
X345200Y210031D01*
X340202D01*
X345200Y214196D02*
X340202D01*
X342701Y211697D01*
Y215029D01*
X333735Y372932D02*
X332902Y372099D01*
Y370433D01*
X333735Y369600D01*
X337067D01*
X337900Y370433D01*
Y372099D01*
X337067Y372932D01*
X337900Y374598D02*
X332902D01*
X337900Y377931D01*
X332902D01*
X333735Y379597D02*
X332902Y380430D01*
Y382096D01*
X333735Y382929D01*
X334568D01*
X335401Y382096D01*
Y381263D01*
Y382096D01*
X336234Y382929D01*
X337067D01*
X337900Y382096D01*
Y380430D01*
X337067Y379597D01*
X344135Y31132D02*
X343302Y30299D01*
Y28633D01*
X344135Y27800D01*
X347467D01*
X348300Y28633D01*
Y30299D01*
X347467Y31132D01*
X348300Y32798D02*
Y34464D01*
Y33631D01*
X343302D01*
X344135Y32798D01*
X340435Y56832D02*
X339602Y55999D01*
Y54333D01*
X340435Y53500D01*
X343767D01*
X344600Y54333D01*
Y55999D01*
X343767Y56832D01*
X344600Y58498D02*
X339602D01*
X344600Y61831D01*
X339602D01*
X344600Y63497D02*
Y65163D01*
Y64330D01*
X339602D01*
X340435Y63497D01*
X344502Y8600D02*
X348667D01*
X349500Y9433D01*
Y11099D01*
X348667Y11932D01*
X344502D01*
X349500Y16098D02*
X344502D01*
X347001Y13598D01*
Y16931D01*
X276735Y31132D02*
X275902Y30299D01*
Y28633D01*
X276735Y27800D01*
X280067D01*
X280900Y28633D01*
Y30299D01*
X280067Y31132D01*
X280900Y32798D02*
Y34464D01*
Y33631D01*
X275902D01*
X276735Y32798D01*
X273035Y55832D02*
X272202Y54999D01*
Y53333D01*
X273035Y52500D01*
X276367D01*
X277200Y53333D01*
Y54999D01*
X276367Y55832D01*
X277200Y57498D02*
X272202D01*
X277200Y60831D01*
X272202D01*
X277200Y62497D02*
Y64163D01*
Y63330D01*
X272202D01*
X273035Y62497D01*
X277102Y8600D02*
X281267D01*
X282100Y9433D01*
Y11099D01*
X281267Y11932D01*
X277102D01*
X282100Y16098D02*
X277102D01*
X279601Y13598D01*
Y16931D01*
X208735Y31132D02*
X207902Y30299D01*
Y28633D01*
X208735Y27800D01*
X212067D01*
X212900Y28633D01*
Y30299D01*
X212067Y31132D01*
X212900Y32798D02*
Y34464D01*
Y33631D01*
X207902D01*
X208735Y32798D01*
X205035Y56332D02*
X204202Y55499D01*
Y53833D01*
X205035Y53000D01*
X208367D01*
X209200Y53833D01*
Y55499D01*
X208367Y56332D01*
X209200Y57998D02*
X204202D01*
X209200Y61331D01*
X204202D01*
X209200Y62997D02*
Y64663D01*
Y63830D01*
X204202D01*
X205035Y62997D01*
X209102Y8600D02*
X213267D01*
X214100Y9433D01*
Y11099D01*
X213267Y11932D01*
X209102D01*
X214100Y16098D02*
X209102D01*
X211601Y13598D01*
Y16931D01*
X209102Y110100D02*
X213267D01*
X214100Y110933D01*
Y112599D01*
X213267Y113432D01*
X209102D01*
X214100Y117598D02*
X209102D01*
X211601Y115098D01*
Y118431D01*
X205035Y158332D02*
X204202Y157499D01*
Y155833D01*
X205035Y155000D01*
X208367D01*
X209200Y155833D01*
Y157499D01*
X208367Y158332D01*
X209200Y159998D02*
X204202D01*
X209200Y163331D01*
X204202D01*
X209200Y164997D02*
Y166663D01*
Y165830D01*
X204202D01*
X205035Y164997D01*
X208735Y132632D02*
X207902Y131799D01*
Y130133D01*
X208735Y129300D01*
X212067D01*
X212900Y130133D01*
Y131799D01*
X212067Y132632D01*
X212900Y134298D02*
Y135965D01*
Y135131D01*
X207902D01*
X208735Y134298D01*
X277102Y110100D02*
X281267D01*
X282100Y110933D01*
Y112599D01*
X281267Y113432D01*
X277102D01*
X282100Y117598D02*
X277102D01*
X279601Y115098D01*
Y118431D01*
X273035Y157332D02*
X272202Y156499D01*
Y154833D01*
X273035Y154000D01*
X276367D01*
X277200Y154833D01*
Y156499D01*
X276367Y157332D01*
X277200Y158998D02*
X272202D01*
X277200Y162331D01*
X272202D01*
X277200Y163997D02*
Y165663D01*
Y164830D01*
X272202D01*
X273035Y163997D01*
X276735Y132632D02*
X275902Y131799D01*
Y130133D01*
X276735Y129300D01*
X280067D01*
X280900Y130133D01*
Y131799D01*
X280067Y132632D01*
X280900Y134298D02*
Y135965D01*
Y135131D01*
X275902D01*
X276735Y134298D01*
X344502Y110100D02*
X348667D01*
X349500Y110933D01*
Y112599D01*
X348667Y113432D01*
X344502D01*
X349500Y117598D02*
X344502D01*
X347001Y115098D01*
Y118431D01*
X340435Y159832D02*
X339602Y158999D01*
Y157333D01*
X340435Y156500D01*
X343767D01*
X344600Y157333D01*
Y158999D01*
X343767Y159832D01*
X344600Y161498D02*
X339602D01*
X344600Y164831D01*
X339602D01*
X344600Y166497D02*
Y168163D01*
Y167330D01*
X339602D01*
X340435Y166497D01*
X344135Y132632D02*
X343302Y131799D01*
Y130133D01*
X344135Y129300D01*
X347467D01*
X348300Y130133D01*
Y131799D01*
X347467Y132632D01*
X348300Y134298D02*
Y135965D01*
Y135131D01*
X343302D01*
X344135Y134298D01*
D87*
X30450Y365850D02*
D03*
X54550Y43450D02*
D03*
X30450Y129550D02*
D03*
X54550Y279750D02*
D03*
D88*
X170450Y245450D02*
D03*
X8450Y276150D02*
D03*
X184450Y9150D02*
D03*
X8450Y39850D02*
D03*
X170450Y9150D02*
D03*
X184450Y245450D02*
D03*
D89*
X80550Y257350D02*
D03*
X354150Y129950D02*
D03*
X286750Y129950D02*
D03*
X218750D02*
D03*
Y28450D02*
D03*
X286750D02*
D03*
X354150Y28450D02*
D03*
X80550Y21050D02*
D03*
D90*
X350250Y254250D02*
D03*
X264150Y230150D02*
D03*
D91*
X372650Y280250D02*
D03*
D92*
X384550Y384150D02*
D03*
X353850Y208150D02*
D03*
X384550Y370150D02*
D03*
M02*
