%FSLAX25Y25*%
%MOIN*%
G70*
G01*
G75*
G04 Layer_Physical_Order=1*
G04 Layer_Color=255*
%ADD10R,0.01772X0.06299*%
%ADD11R,0.06299X0.13386*%
%ADD12R,0.05512X0.01654*%
%ADD13R,0.04724X0.04724*%
%ADD14R,0.08465X0.05000*%
%ADD15R,0.09000X0.15000*%
%ADD16R,0.05906X0.03937*%
%ADD17R,0.03937X0.05906*%
%ADD18R,0.07874X0.11024*%
%ADD19R,0.03500X0.05000*%
%ADD20R,0.07874X0.15748*%
%ADD21R,0.06299X0.09449*%
%ADD22R,0.05512X0.07087*%
%ADD23R,0.05906X0.15748*%
%ADD24R,0.06299X0.01772*%
%ADD25R,0.13386X0.06299*%
%ADD26R,0.01654X0.05512*%
%ADD27R,0.04724X0.04724*%
%ADD28R,0.05000X0.08465*%
%ADD29R,0.15000X0.09000*%
%ADD30R,0.11024X0.07874*%
%ADD31R,0.15748X0.05906*%
%ADD32R,0.05000X0.03500*%
%ADD33R,0.15748X0.07874*%
%ADD34R,0.09449X0.06299*%
%ADD35R,0.07087X0.05512*%
%ADD36R,0.06600X0.01700*%
%ADD37C,0.02500*%
%ADD38C,0.02000*%
%ADD39C,0.03000*%
%ADD40C,0.01500*%
%ADD41C,0.04000*%
%ADD42C,0.01000*%
%ADD43C,0.01800*%
%ADD44R,0.01600X0.04800*%
%ADD45R,0.34200X0.03200*%
%ADD46R,0.14413X0.28346*%
%ADD47R,0.04800X0.01600*%
%ADD48R,0.03200X0.34200*%
%ADD49R,0.28346X0.14413*%
%ADD50C,0.15800*%
%ADD51R,0.05512X0.07874*%
%ADD52R,0.05118X0.07874*%
%ADD53C,0.07874*%
%ADD54R,0.07874X0.05512*%
%ADD55R,0.07874X0.05118*%
%ADD56C,0.05000*%
%ADD57C,0.04000*%
%ADD58C,0.06000*%
%ADD59C,0.03937*%
G36*
X496000Y305000D02*
X359800D01*
Y388907D01*
X362747D01*
Y382116D01*
X365634D01*
Y375569D01*
X362447D01*
Y368632D01*
X367964D01*
X369565Y367030D01*
X369373Y366568D01*
X367650D01*
Y359631D01*
X371251D01*
Y359056D01*
X367764Y355569D01*
X362447D01*
Y348632D01*
X371353D01*
Y351948D01*
X375602Y356198D01*
X376155Y357025D01*
X376349Y358000D01*
Y366400D01*
X376155Y367375D01*
X375602Y368202D01*
X375602Y368202D01*
X375602Y368202D01*
X371353Y372452D01*
Y375569D01*
X370732D01*
Y382116D01*
X373621D01*
Y388907D01*
X374676D01*
Y383494D01*
X385550D01*
Y391612D01*
X385550D01*
Y391612D01*
X380899D01*
Y392155D01*
X385550D01*
Y399771D01*
X386318D01*
X387099Y399926D01*
X387255Y399957D01*
X388048Y400488D01*
X395093Y407532D01*
X395600Y407466D01*
X396644Y407603D01*
X397617Y408006D01*
X398453Y408647D01*
X399094Y409483D01*
X399497Y410456D01*
X399635Y411500D01*
X399497Y412544D01*
X399094Y413517D01*
X398453Y414353D01*
X397617Y414994D01*
X396644Y415397D01*
X395600Y415534D01*
X395501Y415521D01*
X391961Y419061D01*
X391387Y419502D01*
X390718Y419779D01*
X390000Y419874D01*
X385912D01*
Y422537D01*
X372190D01*
X371649Y423842D01*
X370778Y424978D01*
X369642Y425849D01*
X368319Y426397D01*
X366900Y426584D01*
X365481Y426397D01*
X364158Y425849D01*
X363022Y424978D01*
X362151Y423842D01*
X361603Y422519D01*
X361416Y421100D01*
X361603Y419681D01*
X362151Y418358D01*
X363022Y417222D01*
X364158Y416351D01*
X365481Y415803D01*
X366900Y415616D01*
X367334Y415673D01*
X368404Y414604D01*
X369135Y414043D01*
X369986Y413690D01*
X370900Y413570D01*
X371888D01*
Y412084D01*
X362747D01*
Y405293D01*
X359800D01*
Y499200D01*
X496000D01*
Y305000D01*
D02*
G37*
G36*
X308200Y212000D02*
X114000D01*
Y348200D01*
X197907D01*
Y345253D01*
X191116D01*
Y342366D01*
X184569D01*
Y345553D01*
X177631D01*
Y340036D01*
X176030Y338435D01*
X175568Y338627D01*
Y340350D01*
X168631D01*
Y336749D01*
X168056D01*
X164568Y340236D01*
Y345553D01*
X157632D01*
Y336647D01*
X160948D01*
X165198Y332398D01*
X166024Y331845D01*
X167000Y331651D01*
X175400D01*
X176375Y331845D01*
X177202Y332398D01*
X177202Y332398D01*
X177202Y332398D01*
X181452Y336647D01*
X184569D01*
Y337268D01*
X191116D01*
Y334380D01*
X197907D01*
Y333324D01*
X192494D01*
Y322450D01*
X200612D01*
Y322450D01*
X200612D01*
Y327101D01*
X201155D01*
Y322450D01*
X208771D01*
Y321682D01*
X208927Y320901D01*
X208957Y320745D01*
X209488Y319952D01*
X216532Y312907D01*
X216465Y312400D01*
X216603Y311356D01*
X217006Y310383D01*
X217647Y309547D01*
X218483Y308906D01*
X219456Y308503D01*
X220500Y308366D01*
X221544Y308503D01*
X222517Y308906D01*
X223353Y309547D01*
X223994Y310383D01*
X224397Y311356D01*
X224535Y312400D01*
X224521Y312499D01*
X228061Y316039D01*
X228502Y316613D01*
X228779Y317282D01*
X228874Y318000D01*
Y322088D01*
X231537D01*
Y335810D01*
X232842Y336351D01*
X233978Y337222D01*
X234849Y338358D01*
X235397Y339681D01*
X235584Y341100D01*
X235397Y342519D01*
X234849Y343842D01*
X233978Y344978D01*
X232842Y345849D01*
X231519Y346397D01*
X230100Y346584D01*
X228681Y346397D01*
X227358Y345849D01*
X226222Y344978D01*
X225351Y343842D01*
X224803Y342519D01*
X224616Y341100D01*
X224673Y340666D01*
X223604Y339596D01*
X223043Y338865D01*
X222690Y338014D01*
X222570Y337100D01*
Y336112D01*
X221084D01*
Y345253D01*
X214293D01*
Y348200D01*
X308200D01*
Y212000D01*
D02*
G37*
G36*
Y362000D02*
X114000D01*
Y498200D01*
X197907D01*
Y495254D01*
X191116D01*
Y492366D01*
X184569D01*
Y495553D01*
X177631D01*
Y490036D01*
X176030Y488435D01*
X175568Y488627D01*
Y490350D01*
X168631D01*
Y486749D01*
X168056D01*
X164568Y490236D01*
Y495553D01*
X157632D01*
Y486647D01*
X160948D01*
X165198Y482398D01*
X166024Y481845D01*
X167000Y481651D01*
X175400D01*
X176375Y481845D01*
X177202Y482398D01*
X177202Y482398D01*
X177202Y482398D01*
X181452Y486647D01*
X184569D01*
Y487268D01*
X191116D01*
Y484379D01*
X197907D01*
Y483324D01*
X192494D01*
Y472450D01*
X200612D01*
Y472450D01*
X200612D01*
Y477101D01*
X201155D01*
Y472450D01*
X208771D01*
Y471682D01*
X208927Y470901D01*
X208957Y470745D01*
X209488Y469952D01*
X216532Y462907D01*
X216465Y462400D01*
X216603Y461356D01*
X217006Y460383D01*
X217647Y459547D01*
X218483Y458906D01*
X219456Y458503D01*
X220500Y458365D01*
X221544Y458503D01*
X222517Y458906D01*
X223353Y459547D01*
X223994Y460383D01*
X224397Y461356D01*
X224535Y462400D01*
X224521Y462499D01*
X228061Y466039D01*
X228502Y466613D01*
X228779Y467282D01*
X228874Y468000D01*
Y472088D01*
X231537D01*
Y485810D01*
X232842Y486351D01*
X233978Y487222D01*
X234849Y488358D01*
X235397Y489681D01*
X235584Y491100D01*
X235397Y492519D01*
X234849Y493842D01*
X233978Y494978D01*
X232842Y495849D01*
X231519Y496397D01*
X230100Y496584D01*
X228681Y496397D01*
X227358Y495849D01*
X226222Y494978D01*
X225351Y493842D01*
X224803Y492519D01*
X224616Y491100D01*
X224673Y490666D01*
X223604Y489596D01*
X223043Y488865D01*
X222690Y488014D01*
X222570Y487100D01*
Y486112D01*
X221084D01*
Y495254D01*
X214293D01*
Y498200D01*
X308200D01*
Y362000D01*
D02*
G37*
%LPC*%
G36*
X454368Y335553D02*
X447432D01*
Y326647D01*
X454368D01*
Y328551D01*
X456472D01*
X457135Y328043D01*
X457986Y327690D01*
X458900Y327570D01*
X459814Y327690D01*
X460665Y328043D01*
X461396Y328604D01*
X461957Y329335D01*
X462310Y330186D01*
X462430Y331100D01*
X462310Y332014D01*
X461957Y332865D01*
X461396Y333596D01*
X460665Y334157D01*
X459814Y334510D01*
X458900Y334630D01*
X457986Y334510D01*
X457135Y334157D01*
X456472Y333649D01*
X454368D01*
Y335553D01*
D02*
G37*
G36*
X295650Y336350D02*
X287028D01*
X287136Y335257D01*
X287673Y333485D01*
X288546Y331852D01*
X289721Y330421D01*
X291152Y329246D01*
X292785Y328374D01*
X294557Y327836D01*
X295650Y327728D01*
Y336350D01*
D02*
G37*
G36*
X305772D02*
X297150D01*
Y327728D01*
X298243Y327836D01*
X300015Y328374D01*
X301648Y329246D01*
X303079Y330421D01*
X304254Y331852D01*
X305127Y333485D01*
X305664Y335257D01*
X305772Y336350D01*
D02*
G37*
G36*
X303569Y321553D02*
X300850D01*
Y317850D01*
X303569D01*
Y321553D01*
D02*
G37*
G36*
X256403Y342474D02*
X245529D01*
Y336112D01*
X236017D01*
Y322088D01*
X246891D01*
Y323726D01*
X256403D01*
Y342474D01*
D02*
G37*
G36*
X435353Y326350D02*
X431650D01*
Y323632D01*
X435353D01*
Y326350D01*
D02*
G37*
G36*
X390150Y333815D02*
X384676D01*
Y329915D01*
X390150D01*
Y333815D01*
D02*
G37*
G36*
X397124Y355750D02*
X384676D01*
Y350098D01*
X376939Y342361D01*
X376498Y341787D01*
X376383Y341510D01*
X376221Y341118D01*
X376126Y340400D01*
Y334849D01*
X371699Y330421D01*
X371600Y330434D01*
X370556Y330297D01*
X369583Y329894D01*
X368747Y329253D01*
X368106Y328417D01*
X367703Y327444D01*
X367565Y326400D01*
X367703Y325356D01*
X368106Y324383D01*
X368747Y323547D01*
X369583Y322906D01*
X370556Y322503D01*
X371600Y322365D01*
X372644Y322503D01*
X373617Y322906D01*
X374453Y323547D01*
X375094Y324383D01*
X375497Y325356D01*
X375635Y326400D01*
X375622Y326499D01*
X380861Y331739D01*
X381302Y332313D01*
X381417Y332590D01*
X381579Y332982D01*
X381674Y333700D01*
Y339251D01*
X388873Y346450D01*
X397124D01*
Y355750D01*
D02*
G37*
G36*
X390150Y339214D02*
X384676D01*
Y335315D01*
X390150D01*
Y339214D01*
D02*
G37*
G36*
X476285Y364350D02*
X465515D01*
X465603Y363681D01*
X466151Y362358D01*
X467022Y361222D01*
X468158Y360351D01*
X468160Y360350D01*
Y359850D01*
X468158Y359849D01*
X467022Y358978D01*
X466151Y357842D01*
X465603Y356519D01*
X465416Y355100D01*
X465603Y353681D01*
X466151Y352358D01*
X467022Y351222D01*
X468158Y350351D01*
X468160Y350350D01*
Y349850D01*
X468158Y349849D01*
X467022Y348978D01*
X466151Y347842D01*
X465603Y346519D01*
X465416Y345100D01*
X465603Y343681D01*
X466151Y342358D01*
X467022Y341222D01*
X468158Y340351D01*
X468160Y340350D01*
Y339850D01*
X468158Y339849D01*
X467022Y338978D01*
X466151Y337842D01*
X465603Y336519D01*
X465416Y335100D01*
X465603Y333681D01*
X466151Y332358D01*
X467022Y331222D01*
X468158Y330351D01*
X469481Y329803D01*
X470900Y329616D01*
X472319Y329803D01*
X473642Y330351D01*
X474778Y331222D01*
X475649Y332358D01*
X476197Y333681D01*
X476384Y335100D01*
X476197Y336519D01*
X475649Y337842D01*
X474778Y338978D01*
X473642Y339849D01*
X473640Y339850D01*
Y340350D01*
X473642Y340351D01*
X474778Y341222D01*
X475649Y342358D01*
X476197Y343681D01*
X476384Y345100D01*
X476197Y346519D01*
X475649Y347842D01*
X474778Y348978D01*
X473642Y349849D01*
X473640Y349850D01*
Y350350D01*
X473642Y350351D01*
X474778Y351222D01*
X475649Y352358D01*
X476197Y353681D01*
X476384Y355100D01*
X476197Y356519D01*
X475649Y357842D01*
X474778Y358978D01*
X473642Y359849D01*
X473640Y359850D01*
Y360350D01*
X473642Y360351D01*
X474778Y361222D01*
X475649Y362358D01*
X476197Y363681D01*
X476285Y364350D01*
D02*
G37*
G36*
X430150Y330569D02*
X426447D01*
Y327850D01*
X430150D01*
Y330569D01*
D02*
G37*
G36*
X435353D02*
X431650D01*
Y327850D01*
X435353D01*
Y330569D01*
D02*
G37*
G36*
X397124Y339214D02*
X391650D01*
Y329915D01*
X397124D01*
Y330326D01*
X399431D01*
Y328647D01*
X402150D01*
Y337553D01*
X399431D01*
Y335874D01*
X397124D01*
Y339214D01*
D02*
G37*
G36*
X299350Y321553D02*
X296632D01*
Y317850D01*
X299350D01*
Y321553D01*
D02*
G37*
G36*
X135400Y340435D02*
X134356Y340297D01*
X133383Y339894D01*
X132547Y339253D01*
X131906Y338417D01*
X131503Y337444D01*
X131366Y336400D01*
X131503Y335356D01*
X131906Y334383D01*
X132547Y333547D01*
X133383Y332906D01*
X134356Y332503D01*
X135400Y332365D01*
X135499Y332379D01*
X140739Y327139D01*
X141313Y326698D01*
X141590Y326583D01*
X141982Y326421D01*
X142700Y326326D01*
X148251D01*
X155450Y319127D01*
Y310876D01*
X164750D01*
Y323324D01*
X159098D01*
X151361Y331061D01*
X150787Y331502D01*
X150510Y331617D01*
X150118Y331779D01*
X149400Y331874D01*
X143849D01*
X139421Y336301D01*
X139435Y336400D01*
X139297Y337444D01*
X138894Y338417D01*
X138253Y339253D01*
X137417Y339894D01*
X136444Y340297D01*
X135400Y340435D01*
D02*
G37*
G36*
X299350Y316350D02*
X296632D01*
Y312647D01*
X299350D01*
Y316350D01*
D02*
G37*
G36*
X303569D02*
X300850D01*
Y312647D01*
X303569D01*
Y316350D01*
D02*
G37*
G36*
X372285Y314350D02*
X367650D01*
Y309715D01*
X368319Y309803D01*
X369642Y310351D01*
X370778Y311222D01*
X371649Y312358D01*
X372197Y313681D01*
X372285Y314350D01*
D02*
G37*
G36*
X406150Y312350D02*
X402447D01*
Y309631D01*
X406150D01*
Y312350D01*
D02*
G37*
G36*
X411353D02*
X407650D01*
Y309631D01*
X411353D01*
Y312350D01*
D02*
G37*
G36*
X366150Y314350D02*
X361515D01*
X361603Y313681D01*
X362151Y312358D01*
X363022Y311222D01*
X364158Y310351D01*
X365481Y309803D01*
X366150Y309715D01*
Y314350D01*
D02*
G37*
G36*
X406150Y316568D02*
X402447D01*
Y313850D01*
X406150D01*
Y316568D01*
D02*
G37*
G36*
X485650Y325472D02*
Y316850D01*
X494272D01*
X494164Y317943D01*
X493626Y319715D01*
X492754Y321348D01*
X491579Y322779D01*
X490148Y323954D01*
X488515Y324827D01*
X486743Y325364D01*
X485650Y325472D01*
D02*
G37*
G36*
X142815Y323324D02*
X138915D01*
Y317850D01*
X142815D01*
Y323324D01*
D02*
G37*
G36*
X148214D02*
X144315D01*
Y317850D01*
X148214D01*
Y323324D01*
D02*
G37*
G36*
X484150Y325472D02*
X483057Y325364D01*
X481285Y324827D01*
X479652Y323954D01*
X478221Y322779D01*
X477046Y321348D01*
X476173Y319715D01*
X475636Y317943D01*
X475528Y316850D01*
X484150D01*
Y325472D01*
D02*
G37*
G36*
X411353Y316568D02*
X407650D01*
Y313850D01*
X411353D01*
Y316568D01*
D02*
G37*
G36*
X366150Y320485D02*
X365481Y320397D01*
X364158Y319849D01*
X363022Y318978D01*
X362151Y317842D01*
X361603Y316519D01*
X361515Y315850D01*
X366150D01*
Y320485D01*
D02*
G37*
G36*
X367650D02*
Y315850D01*
X372285D01*
X372197Y316519D01*
X371649Y317842D01*
X370778Y318978D01*
X369642Y319849D01*
X368319Y320397D01*
X367650Y320485D01*
D02*
G37*
G36*
X123350Y340350D02*
X118715D01*
X118803Y339681D01*
X119351Y338358D01*
X120222Y337222D01*
X121358Y336351D01*
X122681Y335803D01*
X123350Y335715D01*
Y340350D01*
D02*
G37*
G36*
X296032Y374552D02*
X294613Y374365D01*
X293290Y373817D01*
X292154Y372946D01*
X291283Y371810D01*
X290735Y370487D01*
X290548Y369068D01*
X290735Y367649D01*
X291283Y366326D01*
X292154Y365190D01*
X293290Y364319D01*
X294613Y363771D01*
X296032Y363584D01*
X297451Y363771D01*
X298774Y364319D01*
X299910Y365190D01*
X300781Y366326D01*
X301329Y367649D01*
X301516Y369068D01*
X301329Y370487D01*
X300781Y371810D01*
X299910Y372946D01*
X298774Y373817D01*
X297451Y374365D01*
X296032Y374552D01*
D02*
G37*
G36*
X262100Y374584D02*
X260681Y374397D01*
X259358Y373849D01*
X258222Y372978D01*
X257351Y371842D01*
X256803Y370519D01*
X256616Y369100D01*
X256803Y367681D01*
X257351Y366358D01*
X258222Y365222D01*
X259358Y364351D01*
X260681Y363803D01*
X262100Y363616D01*
X263519Y363803D01*
X264842Y364351D01*
X265978Y365222D01*
X266849Y366358D01*
X267397Y367681D01*
X267584Y369100D01*
X267397Y370519D01*
X266849Y371842D01*
X265978Y372978D01*
X264842Y373849D01*
X263519Y374397D01*
X262100Y374584D01*
D02*
G37*
G36*
X236100D02*
X234681Y374397D01*
X233358Y373849D01*
X232222Y372978D01*
X231351Y371842D01*
X230803Y370519D01*
X230616Y369100D01*
X230803Y367681D01*
X231351Y366358D01*
X232222Y365222D01*
X233358Y364351D01*
X234681Y363803D01*
X236100Y363616D01*
X237519Y363803D01*
X238842Y364351D01*
X239978Y365222D01*
X240849Y366358D01*
X240850Y366360D01*
X241350D01*
X241351Y366358D01*
X242222Y365222D01*
X243358Y364351D01*
X244681Y363803D01*
X245350Y363715D01*
Y369099D01*
Y374485D01*
X244681Y374397D01*
X243358Y373849D01*
X242222Y372978D01*
X241351Y371842D01*
X241350Y371840D01*
X240850D01*
X240849Y371842D01*
X239978Y372978D01*
X238842Y373849D01*
X237519Y374397D01*
X236100Y374584D01*
D02*
G37*
G36*
X462436Y363650D02*
X459250D01*
Y360464D01*
X459544Y360503D01*
X460517Y360906D01*
X461353Y361547D01*
X461994Y362383D01*
X462397Y363356D01*
X462436Y363650D01*
D02*
G37*
G36*
X436900Y353830D02*
X433650D01*
Y351330D01*
X436900D01*
Y353830D01*
D02*
G37*
G36*
X366150Y362350D02*
X362447D01*
Y359631D01*
X366150D01*
Y362350D01*
D02*
G37*
G36*
X457750Y363650D02*
X454564D01*
X454603Y363356D01*
X455006Y362383D01*
X455647Y361547D01*
X456483Y360906D01*
X457456Y360503D01*
X457750Y360464D01*
Y363650D01*
D02*
G37*
G36*
X251485Y368350D02*
X246850D01*
Y363715D01*
X247519Y363803D01*
X248842Y364351D01*
X249978Y365222D01*
X250849Y366358D01*
X251397Y367681D01*
X251485Y368350D01*
D02*
G37*
G36*
X188540Y368750D02*
X184850D01*
Y365060D01*
X185275Y365116D01*
X186369Y365569D01*
X187309Y366291D01*
X188031Y367231D01*
X188484Y368325D01*
X188540Y368750D01*
D02*
G37*
G36*
X457750Y368336D02*
X457456Y368297D01*
X456483Y367894D01*
X455647Y367253D01*
X455006Y366417D01*
X454603Y365444D01*
X454564Y365150D01*
X457750D01*
Y368336D01*
D02*
G37*
G36*
X459250D02*
Y365150D01*
X462436D01*
X462397Y365444D01*
X461994Y366417D01*
X461353Y367253D01*
X460517Y367894D01*
X459544Y368297D01*
X459250Y368336D01*
D02*
G37*
G36*
X183350Y368750D02*
X179660D01*
X179716Y368325D01*
X180169Y367231D01*
X180891Y366291D01*
X181831Y365569D01*
X182925Y365116D01*
X183350Y365060D01*
Y368750D01*
D02*
G37*
G36*
X124350Y372350D02*
X115728D01*
X115836Y371257D01*
X116374Y369485D01*
X117246Y367852D01*
X118421Y366421D01*
X119852Y365246D01*
X121485Y364373D01*
X123257Y363836D01*
X124350Y363728D01*
Y372350D01*
D02*
G37*
G36*
X134472D02*
X125850D01*
Y363728D01*
X126943Y363836D01*
X128715Y364373D01*
X130348Y365246D01*
X131779Y366421D01*
X132954Y367852D01*
X133826Y369485D01*
X134364Y371257D01*
X134472Y372350D01*
D02*
G37*
G36*
X366150Y366568D02*
X362447D01*
Y363850D01*
X366150D01*
Y366568D01*
D02*
G37*
G36*
X295650Y346472D02*
X294557Y346364D01*
X292785Y345827D01*
X291152Y344954D01*
X289721Y343779D01*
X288546Y342348D01*
X287673Y340715D01*
X287136Y338943D01*
X287028Y337850D01*
X295650D01*
Y346472D01*
D02*
G37*
G36*
X297150D02*
Y337850D01*
X305772D01*
X305664Y338943D01*
X305127Y340715D01*
X304254Y342348D01*
X303079Y343779D01*
X301648Y344954D01*
X300015Y345827D01*
X298243Y346364D01*
X297150Y346472D01*
D02*
G37*
G36*
X366150Y346568D02*
X362447D01*
Y343927D01*
X362416Y343880D01*
X362261Y343100D01*
X362416Y342320D01*
X362447Y342273D01*
Y339632D01*
X366150D01*
Y346568D01*
D02*
G37*
G36*
X155569Y340350D02*
X152850D01*
Y336647D01*
X155569D01*
Y340350D01*
D02*
G37*
G36*
X129485D02*
X124850D01*
Y335715D01*
X125519Y335803D01*
X126842Y336351D01*
X127978Y337222D01*
X128849Y338358D01*
X129397Y339681D01*
X129485Y340350D01*
D02*
G37*
G36*
X285537Y342474D02*
X274663D01*
Y336530D01*
X270030D01*
X269144Y336897D01*
X268100Y337035D01*
X267056Y336897D01*
X266083Y336494D01*
X265247Y335853D01*
X264606Y335017D01*
X264203Y334044D01*
X264066Y333000D01*
X264203Y331956D01*
X264606Y330983D01*
X265247Y330147D01*
X266083Y329506D01*
X267056Y329103D01*
X268100Y328965D01*
X269144Y329103D01*
X270030Y329470D01*
X274663D01*
Y323726D01*
X276570D01*
Y314155D01*
X272543D01*
Y315273D01*
X272426Y315859D01*
X272095Y316355D01*
X271599Y316686D01*
X271013Y316803D01*
X256600D01*
X256015Y316686D01*
X255519Y316355D01*
X255187Y315859D01*
X255071Y315273D01*
Y310100D01*
X246903D01*
Y292100D01*
X255071D01*
Y286927D01*
X255168Y286436D01*
X254851Y286049D01*
X224456D01*
X217721Y292784D01*
X218038Y293171D01*
X218825Y292645D01*
X219800Y292451D01*
X233072D01*
X233735Y291943D01*
X234586Y291590D01*
X235500Y291470D01*
X236414Y291590D01*
X237265Y291943D01*
X237996Y292504D01*
X238557Y293235D01*
X238910Y294086D01*
X239030Y295000D01*
X238910Y295914D01*
X238557Y296765D01*
X237996Y297496D01*
X237265Y298057D01*
X236414Y298410D01*
X235500Y298530D01*
X234586Y298410D01*
X233735Y298057D01*
X233072Y297549D01*
X220856D01*
X204002Y314402D01*
X203175Y314955D01*
X202200Y315149D01*
X175727D01*
X175065Y315657D01*
X174214Y316010D01*
X173300Y316130D01*
X172386Y316010D01*
X171535Y315657D01*
X170804Y315096D01*
X170243Y314365D01*
X169890Y313514D01*
X169770Y312600D01*
X169890Y311686D01*
X170243Y310835D01*
X170732Y310197D01*
X170511Y309749D01*
X165500D01*
X164524Y309555D01*
X163698Y309002D01*
X162344Y307649D01*
X156553D01*
Y308569D01*
X147647D01*
Y303892D01*
X147015Y303259D01*
X146553Y303450D01*
Y304350D01*
X137647D01*
Y302894D01*
X134569D01*
Y305553D01*
X133649D01*
Y315844D01*
X134452Y316647D01*
X137568D01*
Y325553D01*
X130631D01*
Y320036D01*
X129298Y318702D01*
X129047Y318327D01*
X128568Y318472D01*
Y325553D01*
X121632D01*
Y320136D01*
X120298Y318802D01*
X119745Y317975D01*
X119551Y317000D01*
Y314028D01*
X119043Y313365D01*
X118690Y312514D01*
X118570Y311600D01*
X118690Y310686D01*
X119043Y309835D01*
X119604Y309104D01*
X120335Y308543D01*
X121186Y308190D01*
X122100Y308070D01*
X123014Y308190D01*
X123865Y308543D01*
X124596Y309104D01*
X125157Y309835D01*
X125510Y310686D01*
X125630Y311600D01*
X125510Y312514D01*
X125157Y313365D01*
X124649Y314028D01*
Y315944D01*
X125352Y316647D01*
X128551D01*
Y305553D01*
X127631D01*
Y296647D01*
X134569D01*
Y298306D01*
X137647D01*
Y295349D01*
X123500D01*
X122524Y295155D01*
X121698Y294602D01*
X120361Y293265D01*
X119808Y292438D01*
X119614Y291463D01*
Y288017D01*
X118301D01*
Y280293D01*
X126025D01*
X126025Y280293D01*
Y280293D01*
X126025D01*
X126175D01*
X126379Y280293D01*
X126379Y280293D01*
Y280293D01*
X132632D01*
Y277850D01*
X135350D01*
Y281553D01*
X133899D01*
Y288017D01*
X126379D01*
X126379Y288017D01*
Y288017D01*
X126175Y288017D01*
X126100D01*
X126025D01*
X125821Y288017D01*
X125821Y288017D01*
Y288017D01*
X124712D01*
Y290251D01*
X138800D01*
X139776Y290445D01*
X140602Y290998D01*
X142236Y292632D01*
X146553D01*
Y293551D01*
X147647D01*
Y292632D01*
X148919D01*
X149140Y292183D01*
X148706Y291617D01*
X148303Y290644D01*
X148166Y289600D01*
X148303Y288556D01*
X148706Y287583D01*
X149347Y286747D01*
X150183Y286106D01*
X151156Y285703D01*
X152200Y285565D01*
X152214Y285567D01*
X152590Y285238D01*
Y279100D01*
X148850D01*
D01*
X148850D01*
X148568Y279381D01*
Y281553D01*
X141631D01*
Y272647D01*
X142551D01*
Y270856D01*
X141264Y269568D01*
X135647D01*
Y268594D01*
X133899D01*
Y269907D01*
X126379D01*
X126379Y269907D01*
Y269907D01*
X126175Y269907D01*
X126100D01*
X126025D01*
X125821Y269907D01*
X125821Y269907D01*
Y269907D01*
X118301D01*
Y262183D01*
X126025D01*
Y262183D01*
X126175D01*
X126379Y262183D01*
X126379Y262183D01*
Y262183D01*
X133899D01*
Y263496D01*
X135647D01*
Y262632D01*
X144553D01*
Y265648D01*
X146156Y267251D01*
X147800D01*
X148775Y267445D01*
X149602Y267998D01*
X152705Y271100D01*
X155350D01*
Y278974D01*
X156330D01*
Y275850D01*
X162830D01*
Y278425D01*
X168070D01*
X172632Y273864D01*
Y271185D01*
X172158Y271025D01*
X171796Y271496D01*
X171065Y272057D01*
X170214Y272410D01*
X169300Y272530D01*
X168386Y272410D01*
X167535Y272057D01*
X166804Y271496D01*
X166243Y270765D01*
X165890Y269914D01*
X165770Y269000D01*
X165890Y268086D01*
X166243Y267235D01*
X166804Y266504D01*
X167535Y265943D01*
X168386Y265590D01*
X169099Y265496D01*
X170698Y263898D01*
X171525Y263345D01*
X172500Y263151D01*
X189144D01*
X189690Y262605D01*
X189499Y262143D01*
X189497D01*
X189497Y262143D01*
Y262143D01*
X186283D01*
Y257099D01*
Y252057D01*
X189497D01*
X189851Y251703D01*
Y242800D01*
X190045Y241825D01*
X190598Y240998D01*
X191551Y240044D01*
Y234816D01*
X191105Y234474D01*
X189647D01*
Y231754D01*
X189561Y231100D01*
X189647Y230446D01*
Y215726D01*
X198553D01*
Y230446D01*
X198639Y231100D01*
X198553Y231754D01*
Y234474D01*
X197095D01*
X196649Y234816D01*
Y241100D01*
X196455Y242075D01*
X195902Y242902D01*
X194949Y243856D01*
Y263500D01*
X194755Y264475D01*
X194202Y265302D01*
X192002Y267502D01*
X191175Y268055D01*
X190200Y268249D01*
X188568D01*
Y268647D01*
X188568D01*
Y270551D01*
X192044D01*
X195615Y266980D01*
X195565Y266600D01*
X195703Y265556D01*
X196106Y264583D01*
X196747Y263747D01*
X197583Y263106D01*
X198556Y262703D01*
X199017Y262642D01*
X198984Y262143D01*
X195844D01*
Y252057D01*
X197326D01*
Y240400D01*
X197421Y239682D01*
X197583Y239290D01*
X197698Y239013D01*
X198139Y238439D01*
X201526Y235051D01*
Y223044D01*
X201091Y222709D01*
X200369Y221769D01*
X199916Y220675D01*
X199761Y219500D01*
X199916Y218325D01*
X200369Y217231D01*
X201091Y216291D01*
X202031Y215569D01*
X203125Y215116D01*
X204300Y214961D01*
X205475Y215116D01*
X206569Y215569D01*
X207509Y216291D01*
X208231Y217231D01*
X208684Y218325D01*
X208839Y219500D01*
X208684Y220675D01*
X208231Y221769D01*
X207509Y222709D01*
X207074Y223044D01*
Y231226D01*
X212565D01*
X212935Y230943D01*
X213786Y230590D01*
X214700Y230470D01*
X215614Y230590D01*
X216465Y230943D01*
X217196Y231504D01*
X217757Y232235D01*
X218110Y233086D01*
X218230Y234000D01*
X218110Y234914D01*
X217757Y235765D01*
X217196Y236496D01*
X216465Y237057D01*
X215614Y237410D01*
X214700Y237530D01*
X213786Y237410D01*
X212935Y237057D01*
X212565Y236774D01*
X206998D01*
X206979Y236918D01*
X206702Y237587D01*
X206261Y238161D01*
X202874Y241549D01*
Y245485D01*
X203322Y245706D01*
X203535Y245543D01*
X204386Y245190D01*
X205300Y245070D01*
X206214Y245190D01*
X207065Y245543D01*
X207396Y245796D01*
X207844Y245575D01*
Y243655D01*
Y241096D01*
X216356D01*
Y243655D01*
Y243688D01*
X218751D01*
Y234900D01*
X218945Y233925D01*
X219498Y233098D01*
X225281Y227314D01*
X225390Y226486D01*
X225743Y225635D01*
X226304Y224904D01*
X227035Y224343D01*
X227886Y223990D01*
X228800Y223870D01*
X229714Y223990D01*
X230565Y224343D01*
X231296Y224904D01*
X231857Y225635D01*
X232210Y226486D01*
X232330Y227400D01*
X232210Y228314D01*
X231857Y229165D01*
X231296Y229896D01*
X230565Y230457D01*
X229714Y230810D01*
X228886Y230919D01*
X223849Y235956D01*
Y245982D01*
Y264272D01*
X223951Y264406D01*
X225631D01*
Y261647D01*
X232569D01*
Y270553D01*
X225631D01*
Y268994D01*
X223951D01*
X223796Y269196D01*
X223065Y269757D01*
X222214Y270110D01*
X221300Y270230D01*
X220386Y270110D01*
X219535Y269757D01*
X218804Y269196D01*
X218243Y268465D01*
X217890Y267614D01*
X217770Y266700D01*
X217890Y265786D01*
X218243Y264935D01*
X218751Y264272D01*
Y248276D01*
X216356D01*
Y248309D01*
Y248773D01*
Y253427D01*
X214649D01*
Y254600D01*
X214455Y255575D01*
X213902Y256402D01*
X211402Y258902D01*
X210576Y259455D01*
X209600Y259649D01*
X207225D01*
X207034Y260111D01*
X207761Y260839D01*
X208202Y261413D01*
X208479Y262082D01*
X208574Y262800D01*
Y272600D01*
X208479Y273318D01*
X208202Y273987D01*
X207761Y274561D01*
X198261Y284061D01*
X197687Y284502D01*
X197410Y284617D01*
X197018Y284779D01*
X196300Y284874D01*
X194553D01*
Y285568D01*
X185647D01*
Y284874D01*
X184553D01*
Y285568D01*
X176011D01*
X173840Y287740D01*
X173846Y287926D01*
X174102Y288098D01*
X174556Y288551D01*
X175647D01*
Y287632D01*
X184553D01*
Y294568D01*
X175647D01*
Y293649D01*
X173500D01*
X172524Y293455D01*
X171698Y292902D01*
X171346Y292551D01*
X170852Y292632D01*
X170722Y292897D01*
X171057Y293335D01*
X171410Y294186D01*
X171519Y295014D01*
X172556Y296051D01*
X187551D01*
Y294568D01*
X185647D01*
Y287632D01*
X194553D01*
Y294568D01*
X192649D01*
Y296051D01*
X194044D01*
X216498Y273598D01*
X217324Y273045D01*
X218300Y272851D01*
X253353D01*
X253630Y272435D01*
X253290Y271614D01*
X253170Y270700D01*
X253290Y269786D01*
X253643Y268935D01*
X254204Y268204D01*
X254220Y267964D01*
X239683Y253427D01*
X239584Y253427D01*
Y253427D01*
X231072D01*
Y248773D01*
Y248309D01*
Y248276D01*
X229682D01*
X228804Y248101D01*
X228060Y247604D01*
X225878Y245422D01*
X225380Y244678D01*
X225206Y243800D01*
Y240600D01*
X225380Y239722D01*
X225878Y238978D01*
X225878Y238978D01*
X225878Y238978D01*
X228203Y236653D01*
X228170Y236400D01*
X228290Y235486D01*
X228643Y234635D01*
X229204Y233904D01*
X229935Y233343D01*
X230786Y232990D01*
X231700Y232870D01*
X232614Y232990D01*
X233465Y233343D01*
X234196Y233904D01*
X234757Y234635D01*
X235110Y235486D01*
X235230Y236400D01*
X235110Y237314D01*
X234757Y238165D01*
X234196Y238896D01*
X233465Y239457D01*
X232614Y239810D01*
X231700Y239930D01*
X231447Y239897D01*
X229794Y241550D01*
Y242850D01*
X230610Y243666D01*
X231072Y243475D01*
Y243655D01*
X239584D01*
Y243655D01*
Y246214D01*
Y246247D01*
X242741D01*
X243619Y246422D01*
X244363Y246919D01*
X244363Y246919D01*
X244363Y246919D01*
X264920Y267475D01*
X279098Y253298D01*
X279925Y252745D01*
X280900Y252551D01*
X283271D01*
X283351Y252358D01*
X284222Y251222D01*
X285358Y250351D01*
X285360Y250350D01*
Y249850D01*
X285358Y249849D01*
X284222Y248978D01*
X283351Y247842D01*
X282803Y246519D01*
X282715Y245850D01*
X293485D01*
X293397Y246519D01*
X292849Y247842D01*
X291978Y248978D01*
X290842Y249849D01*
X290840Y249850D01*
Y250350D01*
X290842Y250351D01*
X291978Y251222D01*
X292849Y252358D01*
X293397Y253681D01*
X293584Y255100D01*
X293397Y256519D01*
X292849Y257842D01*
X291978Y258978D01*
X290842Y259849D01*
X290840Y259850D01*
Y260350D01*
X290842Y260351D01*
X291978Y261222D01*
X292849Y262358D01*
X293397Y263681D01*
X293584Y265100D01*
X293397Y266519D01*
X292849Y267842D01*
X291978Y268978D01*
X290842Y269849D01*
X290840Y269850D01*
Y270350D01*
X290842Y270351D01*
X291978Y271222D01*
X292849Y272358D01*
X293397Y273681D01*
X293584Y275100D01*
X293397Y276519D01*
X292849Y277842D01*
X291978Y278978D01*
X290842Y279849D01*
X289519Y280397D01*
X288100Y280584D01*
X286681Y280397D01*
X285358Y279849D01*
X284222Y278978D01*
X283351Y277842D01*
X283271Y277649D01*
X281156D01*
X273502Y285302D01*
X272675Y285855D01*
X272610Y285868D01*
X272419Y286330D01*
X272426Y286342D01*
X272543Y286927D01*
Y288045D01*
X277350D01*
Y292044D01*
Y296045D01*
X272543D01*
Y297100D01*
X283832D01*
Y305100D01*
X272543D01*
Y306155D01*
X283832D01*
Y313570D01*
X287632D01*
Y312647D01*
X294568D01*
Y316631D01*
X294630Y317100D01*
X294568Y317569D01*
Y321553D01*
X287632D01*
Y320630D01*
X283630D01*
Y323726D01*
X285537D01*
Y342474D01*
D02*
G37*
G36*
X151350Y340350D02*
X148632D01*
Y336647D01*
X151350D01*
Y340350D01*
D02*
G37*
G36*
X371353Y342350D02*
X367650D01*
Y339632D01*
X371353D01*
Y342350D01*
D02*
G37*
G36*
X175568Y345553D02*
X172850D01*
Y341850D01*
X175568D01*
Y345553D01*
D02*
G37*
G36*
X371353Y346568D02*
X367650D01*
Y343850D01*
X371353D01*
Y346568D01*
D02*
G37*
G36*
X436900Y349830D02*
X433650D01*
Y347330D01*
X436900D01*
Y349830D01*
D02*
G37*
G36*
X171350Y345553D02*
X168631D01*
Y341850D01*
X171350D01*
Y345553D01*
D02*
G37*
G36*
X123350Y346485D02*
X122681Y346397D01*
X121358Y345849D01*
X120222Y344978D01*
X119351Y343842D01*
X118803Y342519D01*
X118715Y341850D01*
X123350D01*
Y346485D01*
D02*
G37*
G36*
X124850D02*
Y341850D01*
X129485D01*
X129397Y342519D01*
X128849Y343842D01*
X127978Y344978D01*
X126842Y345849D01*
X125519Y346397D01*
X124850Y346485D01*
D02*
G37*
G36*
X152100Y345739D02*
X151320Y345584D01*
X151273Y345553D01*
X148632D01*
Y341850D01*
X155569D01*
Y345553D01*
X152927D01*
X152880Y345584D01*
X152100Y345739D01*
D02*
G37*
G36*
X253350Y245350D02*
X249647D01*
Y242632D01*
X253350D01*
Y245350D01*
D02*
G37*
G36*
X258553D02*
X254850D01*
Y242632D01*
X258553D01*
Y245350D01*
D02*
G37*
G36*
X172650Y248750D02*
X169464D01*
X169503Y248456D01*
X169906Y247483D01*
X170547Y246647D01*
X171383Y246006D01*
X172356Y245603D01*
X172650Y245564D01*
Y248750D01*
D02*
G37*
G36*
X239584Y242673D02*
X236078D01*
Y241096D01*
X239584D01*
Y242673D01*
D02*
G37*
G36*
X174850Y242485D02*
Y237850D01*
X179485D01*
X179397Y238519D01*
X178849Y239842D01*
X177978Y240978D01*
X176842Y241849D01*
X175519Y242397D01*
X174850Y242485D01*
D02*
G37*
G36*
X164100Y242584D02*
X162681Y242397D01*
X161358Y241849D01*
X160222Y240978D01*
X159351Y239842D01*
X159350Y239840D01*
X158850D01*
X158849Y239842D01*
X157978Y240978D01*
X156842Y241849D01*
X155519Y242397D01*
X154100Y242584D01*
X152681Y242397D01*
X151358Y241849D01*
X150222Y240978D01*
X149351Y239842D01*
X149350Y239840D01*
X148850D01*
X148849Y239842D01*
X147978Y240978D01*
X146842Y241849D01*
X145519Y242397D01*
X144100Y242584D01*
X142681Y242397D01*
X141358Y241849D01*
X140222Y240978D01*
X139351Y239842D01*
X138803Y238519D01*
X138616Y237100D01*
X138803Y235681D01*
X139351Y234358D01*
X140222Y233222D01*
X141358Y232351D01*
X142681Y231803D01*
X144100Y231616D01*
X145519Y231803D01*
X146842Y232351D01*
X147978Y233222D01*
X148849Y234358D01*
X148850Y234360D01*
X149350D01*
X149351Y234358D01*
X150222Y233222D01*
X151358Y232351D01*
X152681Y231803D01*
X154100Y231616D01*
X155519Y231803D01*
X156842Y232351D01*
X157978Y233222D01*
X158849Y234358D01*
X158850Y234360D01*
X159350D01*
X159351Y234358D01*
X160222Y233222D01*
X161358Y232351D01*
X162681Y231803D01*
X164100Y231616D01*
X165519Y231803D01*
X166842Y232351D01*
X167978Y233222D01*
X168849Y234358D01*
X168850Y234360D01*
X169350D01*
X169351Y234358D01*
X170222Y233222D01*
X171358Y232351D01*
X172681Y231803D01*
X173350Y231715D01*
Y237099D01*
Y242485D01*
X172681Y242397D01*
X171358Y241849D01*
X170222Y240978D01*
X169351Y239842D01*
X169350Y239840D01*
X168850D01*
X168849Y239842D01*
X167978Y240978D01*
X166842Y241849D01*
X165519Y242397D01*
X164100Y242584D01*
D02*
G37*
G36*
X234578Y242673D02*
X231072D01*
Y241096D01*
X234578D01*
Y242673D01*
D02*
G37*
G36*
X177336Y248750D02*
X174150D01*
Y245564D01*
X174444Y245603D01*
X175417Y246006D01*
X176253Y246647D01*
X176894Y247483D01*
X177297Y248456D01*
X177336Y248750D01*
D02*
G37*
G36*
X269736Y251850D02*
X266550D01*
Y248664D01*
X266844Y248703D01*
X267817Y249106D01*
X268653Y249747D01*
X269294Y250583D01*
X269697Y251556D01*
X269736Y251850D01*
D02*
G37*
G36*
X172650Y253436D02*
X172356Y253397D01*
X171383Y252994D01*
X170547Y252353D01*
X169906Y251517D01*
X169503Y250544D01*
X169464Y250250D01*
X172650D01*
Y253436D01*
D02*
G37*
G36*
X174150D02*
Y250250D01*
X177336D01*
X177297Y250544D01*
X176894Y251517D01*
X176253Y252353D01*
X175417Y252994D01*
X174444Y253397D01*
X174150Y253436D01*
D02*
G37*
G36*
X265050Y251850D02*
X261864D01*
X261903Y251556D01*
X262306Y250583D01*
X262947Y249747D01*
X263783Y249106D01*
X264756Y248703D01*
X265050Y248664D01*
Y251850D01*
D02*
G37*
G36*
X144553Y260568D02*
X135647D01*
Y253631D01*
X137551D01*
Y251528D01*
X137043Y250865D01*
X136690Y250014D01*
X136570Y249100D01*
X136690Y248186D01*
X137043Y247335D01*
X137604Y246604D01*
X138335Y246043D01*
X139186Y245690D01*
X140100Y245570D01*
X141014Y245690D01*
X141865Y246043D01*
X142596Y246604D01*
X143157Y247335D01*
X143510Y248186D01*
X143630Y249100D01*
X143510Y250014D01*
X143157Y250865D01*
X142649Y251528D01*
Y253631D01*
X144553D01*
Y260568D01*
D02*
G37*
G36*
X253350Y249569D02*
X249647D01*
Y246850D01*
X253350D01*
Y249569D01*
D02*
G37*
G36*
X258553D02*
X254850D01*
Y246850D01*
X258553D01*
Y249569D01*
D02*
G37*
G36*
X179485Y236350D02*
X174850D01*
Y231715D01*
X175519Y231803D01*
X176842Y232351D01*
X177978Y233222D01*
X178849Y234358D01*
X179397Y235681D01*
X179485Y236350D01*
D02*
G37*
G36*
X124350Y222350D02*
X115728D01*
X115836Y221257D01*
X116374Y219485D01*
X117246Y217852D01*
X118421Y216421D01*
X119852Y215246D01*
X121485Y214373D01*
X123257Y213836D01*
X124350Y213728D01*
Y222350D01*
D02*
G37*
G36*
X134472D02*
X125850D01*
Y213728D01*
X126943Y213836D01*
X128715Y214373D01*
X130348Y215246D01*
X131779Y216421D01*
X132954Y217852D01*
X133826Y219485D01*
X134364Y221257D01*
X134472Y222350D01*
D02*
G37*
G36*
X183350Y218750D02*
X179660D01*
X179716Y218325D01*
X180169Y217231D01*
X180891Y216291D01*
X181831Y215569D01*
X182925Y215116D01*
X183350Y215060D01*
Y218750D01*
D02*
G37*
G36*
X251485Y218350D02*
X246850D01*
Y213715D01*
X247519Y213803D01*
X248842Y214351D01*
X249978Y215222D01*
X250849Y216358D01*
X251397Y217681D01*
X251485Y218350D01*
D02*
G37*
G36*
X296032Y224552D02*
X294613Y224365D01*
X293290Y223817D01*
X292154Y222946D01*
X291283Y221810D01*
X290735Y220487D01*
X290548Y219068D01*
X290735Y217649D01*
X291283Y216326D01*
X292154Y215190D01*
X293290Y214319D01*
X294613Y213771D01*
X296032Y213584D01*
X297451Y213771D01*
X298774Y214319D01*
X299910Y215190D01*
X300781Y216326D01*
X301329Y217649D01*
X301516Y219068D01*
X301329Y220487D01*
X300781Y221810D01*
X299910Y222946D01*
X298774Y223817D01*
X297451Y224365D01*
X296032Y224552D01*
D02*
G37*
G36*
X262100Y224584D02*
X260681Y224397D01*
X259358Y223849D01*
X258222Y222978D01*
X257351Y221842D01*
X256803Y220519D01*
X256616Y219100D01*
X256803Y217681D01*
X257351Y216358D01*
X258222Y215222D01*
X259358Y214351D01*
X260681Y213803D01*
X262100Y213616D01*
X263519Y213803D01*
X264842Y214351D01*
X265978Y215222D01*
X266849Y216358D01*
X267397Y217681D01*
X267584Y219100D01*
X267397Y220519D01*
X266849Y221842D01*
X265978Y222978D01*
X264842Y223849D01*
X263519Y224397D01*
X262100Y224584D01*
D02*
G37*
G36*
X236100D02*
X234681Y224397D01*
X233358Y223849D01*
X232222Y222978D01*
X231351Y221842D01*
X230803Y220519D01*
X230616Y219100D01*
X230803Y217681D01*
X231351Y216358D01*
X232222Y215222D01*
X233358Y214351D01*
X234681Y213803D01*
X236100Y213616D01*
X237519Y213803D01*
X238842Y214351D01*
X239978Y215222D01*
X240849Y216358D01*
X240850Y216360D01*
X241350D01*
X241351Y216358D01*
X242222Y215222D01*
X243358Y214351D01*
X244681Y213803D01*
X245350Y213715D01*
Y219099D01*
Y224485D01*
X244681Y224397D01*
X243358Y223849D01*
X242222Y222978D01*
X241351Y221842D01*
X241350Y221840D01*
X240850D01*
X240849Y221842D01*
X239978Y222978D01*
X238842Y223849D01*
X237519Y224397D01*
X236100Y224584D01*
D02*
G37*
G36*
X188540Y218750D02*
X184850D01*
Y215060D01*
X185275Y215116D01*
X186369Y215569D01*
X187309Y216291D01*
X188031Y217231D01*
X188484Y218325D01*
X188540Y218750D01*
D02*
G37*
G36*
X125850Y232472D02*
Y223850D01*
X134472D01*
X134364Y224943D01*
X133826Y226715D01*
X132954Y228348D01*
X131779Y229779D01*
X130348Y230954D01*
X128715Y231826D01*
X126943Y232364D01*
X125850Y232472D01*
D02*
G37*
G36*
X258553Y240568D02*
X249647D01*
Y233631D01*
X250566D01*
X250787Y233183D01*
X250543Y232865D01*
X250190Y232014D01*
X250070Y231100D01*
X250190Y230186D01*
X250543Y229335D01*
X251104Y228604D01*
X251835Y228043D01*
X252686Y227690D01*
X253600Y227570D01*
X254514Y227690D01*
X255365Y228043D01*
X256096Y228604D01*
X256657Y229335D01*
X257010Y230186D01*
X257130Y231100D01*
X257010Y232014D01*
X256657Y232865D01*
X256096Y233596D01*
X256108Y233631D01*
X258553D01*
Y240568D01*
D02*
G37*
G36*
X293485Y244350D02*
X282715D01*
X282803Y243681D01*
X283351Y242358D01*
X284222Y241222D01*
X285358Y240351D01*
X285360Y240350D01*
Y239850D01*
X285358Y239849D01*
X284222Y238978D01*
X283351Y237842D01*
X282803Y236519D01*
X282616Y235100D01*
X282803Y233681D01*
X283351Y232358D01*
X284222Y231222D01*
X285358Y230351D01*
X286681Y229803D01*
X288100Y229616D01*
X289519Y229803D01*
X290842Y230351D01*
X291978Y231222D01*
X292849Y232358D01*
X293397Y233681D01*
X293584Y235100D01*
X293397Y236519D01*
X292849Y237842D01*
X291978Y238978D01*
X290842Y239849D01*
X290840Y239850D01*
Y240350D01*
X290842Y240351D01*
X291978Y241222D01*
X292849Y242358D01*
X293397Y243681D01*
X293485Y244350D01*
D02*
G37*
G36*
X124350Y232472D02*
X123257Y232364D01*
X121485Y231826D01*
X119852Y230954D01*
X118421Y229779D01*
X117246Y228348D01*
X116374Y226715D01*
X115836Y224943D01*
X115728Y223850D01*
X124350D01*
Y232472D01*
D02*
G37*
G36*
X246850Y224485D02*
Y219850D01*
X251485D01*
X251397Y220519D01*
X250849Y221842D01*
X249978Y222978D01*
X248842Y223849D01*
X247519Y224397D01*
X246850Y224485D01*
D02*
G37*
G36*
X183350Y223940D02*
X182925Y223884D01*
X181831Y223431D01*
X180891Y222709D01*
X180169Y221769D01*
X179716Y220675D01*
X179660Y220250D01*
X183350D01*
Y223940D01*
D02*
G37*
G36*
X184850D02*
Y220250D01*
X188540D01*
X188484Y220675D01*
X188031Y221769D01*
X187309Y222709D01*
X186369Y223431D01*
X185275Y223884D01*
X184850Y223940D01*
D02*
G37*
G36*
X222950Y303250D02*
X219764D01*
X219803Y302956D01*
X220206Y301983D01*
X220847Y301147D01*
X221683Y300506D01*
X222656Y300103D01*
X222950Y300064D01*
Y303250D01*
D02*
G37*
G36*
X227636D02*
X224450D01*
Y300064D01*
X224744Y300103D01*
X225717Y300506D01*
X226553Y301147D01*
X227194Y301983D01*
X227597Y302956D01*
X227636Y303250D01*
D02*
G37*
G36*
X121350Y305553D02*
X118631D01*
Y301850D01*
X121350D01*
Y305553D01*
D02*
G37*
G36*
X305485Y304350D02*
X300850D01*
Y299715D01*
X301519Y299803D01*
X302842Y300351D01*
X303978Y301222D01*
X304849Y302358D01*
X305397Y303681D01*
X305485Y304350D01*
D02*
G37*
G36*
X121350Y300350D02*
X118631D01*
Y296647D01*
X121350D01*
Y300350D01*
D02*
G37*
G36*
X125568D02*
X122850D01*
Y296647D01*
X125568D01*
Y300350D01*
D02*
G37*
G36*
X299350Y304350D02*
X294715D01*
X294803Y303681D01*
X295351Y302358D01*
X296222Y301222D01*
X297358Y300351D01*
X298681Y299803D01*
X299350Y299715D01*
Y304350D01*
D02*
G37*
G36*
X125568Y305553D02*
X122850D01*
Y301850D01*
X125568D01*
Y305553D01*
D02*
G37*
G36*
X300850Y310485D02*
Y305850D01*
X305485D01*
X305397Y306519D01*
X304849Y307842D01*
X303978Y308978D01*
X302842Y309849D01*
X301519Y310397D01*
X300850Y310485D01*
D02*
G37*
G36*
X484150Y315350D02*
X475528D01*
X475636Y314257D01*
X476173Y312485D01*
X477046Y310852D01*
X478221Y309421D01*
X479652Y308246D01*
X481285Y307373D01*
X483057Y306836D01*
X484150Y306728D01*
Y315350D01*
D02*
G37*
G36*
X494272D02*
X485650D01*
Y306728D01*
X486743Y306836D01*
X488515Y307373D01*
X490148Y308246D01*
X491579Y309421D01*
X492754Y310852D01*
X493626Y312485D01*
X494164Y314257D01*
X494272Y315350D01*
D02*
G37*
G36*
X299350Y310485D02*
X298681Y310397D01*
X297358Y309849D01*
X296222Y308978D01*
X295351Y307842D01*
X294803Y306519D01*
X294715Y305850D01*
X299350D01*
Y310485D01*
D02*
G37*
G36*
X222950Y307936D02*
X222656Y307897D01*
X221683Y307494D01*
X220847Y306853D01*
X220206Y306017D01*
X219803Y305044D01*
X219764Y304750D01*
X222950D01*
Y307936D01*
D02*
G37*
G36*
X224450D02*
Y304750D01*
X227636D01*
X227597Y305044D01*
X227194Y306017D01*
X226553Y306853D01*
X225717Y307494D01*
X224744Y307897D01*
X224450Y307936D01*
D02*
G37*
G36*
X148214Y316350D02*
X138915D01*
Y310876D01*
X139326D01*
Y308569D01*
X137647D01*
Y305850D01*
X146553D01*
Y308569D01*
X144874D01*
Y310876D01*
X148214D01*
Y316350D01*
D02*
G37*
G36*
X283832Y296045D02*
X278850D01*
Y292795D01*
X283832D01*
Y296045D01*
D02*
G37*
G36*
X237350Y265350D02*
X234631D01*
Y261647D01*
X237350D01*
Y265350D01*
D02*
G37*
G36*
X241568D02*
X238850D01*
Y261647D01*
X241568D01*
Y265350D01*
D02*
G37*
G36*
X237350Y270553D02*
X234631D01*
Y266850D01*
X237350D01*
Y270553D01*
D02*
G37*
G36*
X184783Y262143D02*
X181277D01*
Y257850D01*
X184783D01*
Y262143D01*
D02*
G37*
G36*
Y256350D02*
X181277D01*
Y252057D01*
X184783D01*
Y256350D01*
D02*
G37*
G36*
X265050Y256536D02*
X264756Y256497D01*
X263783Y256094D01*
X262947Y255453D01*
X262306Y254617D01*
X261903Y253644D01*
X261864Y253350D01*
X265050D01*
Y256536D01*
D02*
G37*
G36*
X266550D02*
Y253350D01*
X269736D01*
X269697Y253644D01*
X269294Y254617D01*
X268653Y255453D01*
X267817Y256094D01*
X266844Y256497D01*
X266550Y256536D01*
D02*
G37*
G36*
X241568Y270553D02*
X238850D01*
Y266850D01*
X241568D01*
Y270553D01*
D02*
G37*
G36*
X139568Y281553D02*
X136850D01*
Y277850D01*
X139568D01*
Y281553D01*
D02*
G37*
G36*
X300100Y295884D02*
X298681Y295697D01*
X297358Y295149D01*
X296222Y294278D01*
X295351Y293142D01*
X294803Y291819D01*
X294616Y290400D01*
X294803Y288981D01*
X295351Y287658D01*
X296222Y286522D01*
X297358Y285651D01*
X298681Y285103D01*
X300100Y284916D01*
X301519Y285103D01*
X302842Y285651D01*
X303978Y286522D01*
X304849Y287658D01*
X305397Y288981D01*
X305584Y290400D01*
X305397Y291819D01*
X304849Y293142D01*
X303978Y294278D01*
X302842Y295149D01*
X301519Y295697D01*
X300100Y295884D01*
D02*
G37*
G36*
X283832Y291295D02*
X278850D01*
Y288045D01*
X283832D01*
Y291295D01*
D02*
G37*
G36*
X139568Y276350D02*
X136850D01*
Y272647D01*
X139568D01*
Y276350D01*
D02*
G37*
G36*
X158830Y274350D02*
X156330D01*
Y271100D01*
X158830D01*
Y274350D01*
D02*
G37*
G36*
X162830D02*
X160330D01*
Y271100D01*
X162830D01*
Y274350D01*
D02*
G37*
G36*
X135350Y276350D02*
X132632D01*
Y272647D01*
X135350D01*
Y276350D01*
D02*
G37*
G36*
X470150Y370485D02*
X469481Y370397D01*
X468158Y369849D01*
X467022Y368978D01*
X466151Y367842D01*
X465603Y366519D01*
X465515Y365850D01*
X470150D01*
Y370485D01*
D02*
G37*
G36*
X454650Y460736D02*
X454356Y460697D01*
X453383Y460294D01*
X452547Y459653D01*
X451906Y458817D01*
X451503Y457844D01*
X451464Y457550D01*
X454650D01*
Y460736D01*
D02*
G37*
G36*
X456150D02*
Y457550D01*
X459336D01*
X459297Y457844D01*
X458894Y458817D01*
X458253Y459653D01*
X457417Y460294D01*
X456444Y460697D01*
X456150Y460736D01*
D02*
G37*
G36*
X135400Y490435D02*
X134356Y490297D01*
X133383Y489894D01*
X132547Y489253D01*
X131906Y488417D01*
X131503Y487444D01*
X131366Y486400D01*
X131503Y485356D01*
X131906Y484383D01*
X132547Y483547D01*
X133383Y482906D01*
X134356Y482503D01*
X135400Y482366D01*
X135499Y482378D01*
X140739Y477139D01*
X141313Y476698D01*
X141590Y476583D01*
X141982Y476421D01*
X142700Y476326D01*
X148251D01*
X155450Y469127D01*
Y460876D01*
X164750D01*
Y473324D01*
X159098D01*
X151361Y481061D01*
X150787Y481502D01*
X150510Y481617D01*
X150118Y481779D01*
X149400Y481874D01*
X143849D01*
X139421Y486301D01*
X139435Y486400D01*
X139297Y487444D01*
X138894Y488417D01*
X138253Y489253D01*
X137417Y489894D01*
X136444Y490297D01*
X135400Y490435D01*
D02*
G37*
G36*
X300850Y460485D02*
Y455850D01*
X305485D01*
X305397Y456519D01*
X304849Y457842D01*
X303978Y458978D01*
X302842Y459849D01*
X301519Y460397D01*
X300850Y460485D01*
D02*
G37*
G36*
X224450Y457936D02*
Y454750D01*
X227636D01*
X227597Y455044D01*
X227194Y456017D01*
X226553Y456853D01*
X225717Y457494D01*
X224744Y457897D01*
X224450Y457936D01*
D02*
G37*
G36*
X148214Y466350D02*
X138915D01*
Y460876D01*
X139326D01*
Y458568D01*
X137647D01*
Y455850D01*
X146553D01*
Y458568D01*
X144874D01*
Y460876D01*
X148214D01*
Y466350D01*
D02*
G37*
G36*
X299350Y460485D02*
X298681Y460397D01*
X297358Y459849D01*
X296222Y458978D01*
X295351Y457842D01*
X294803Y456519D01*
X294715Y455850D01*
X299350D01*
Y460485D01*
D02*
G37*
G36*
Y466350D02*
X296632D01*
Y462647D01*
X299350D01*
Y466350D01*
D02*
G37*
G36*
X303569Y471553D02*
X300850D01*
Y467850D01*
X303569D01*
Y471553D01*
D02*
G37*
G36*
X415205Y474832D02*
X411955D01*
Y469850D01*
X415205D01*
Y474832D01*
D02*
G37*
G36*
X419955D02*
X416705D01*
Y469850D01*
X419955D01*
Y474832D01*
D02*
G37*
G36*
X299350Y471553D02*
X296632D01*
Y467850D01*
X299350D01*
Y471553D01*
D02*
G37*
G36*
X303569Y466350D02*
X300850D01*
Y462647D01*
X303569D01*
Y466350D01*
D02*
G37*
G36*
X142815Y473324D02*
X138915D01*
Y467850D01*
X142815D01*
Y473324D01*
D02*
G37*
G36*
X148214D02*
X144315D01*
Y467850D01*
X148214D01*
Y473324D01*
D02*
G37*
G36*
X125568Y450350D02*
X122850D01*
Y446647D01*
X125568D01*
Y450350D01*
D02*
G37*
G36*
X488900Y458584D02*
X487481Y458397D01*
X486158Y457849D01*
X485022Y456978D01*
X484151Y455842D01*
X483603Y454519D01*
X483416Y453100D01*
X483603Y451681D01*
X484151Y450358D01*
X485022Y449222D01*
X486158Y448351D01*
X487481Y447803D01*
X488900Y447616D01*
X490319Y447803D01*
X491642Y448351D01*
X492778Y449222D01*
X493649Y450358D01*
X494197Y451681D01*
X494384Y453100D01*
X494197Y454519D01*
X493649Y455842D01*
X492778Y456978D01*
X491642Y457849D01*
X490319Y458397D01*
X488900Y458584D01*
D02*
G37*
G36*
X299350Y454350D02*
X294715D01*
X294803Y453681D01*
X295351Y452358D01*
X296222Y451222D01*
X297358Y450351D01*
X298681Y449803D01*
X299350Y449715D01*
Y454350D01*
D02*
G37*
G36*
X121350Y450350D02*
X118631D01*
Y446647D01*
X121350D01*
Y450350D01*
D02*
G37*
G36*
X283832Y446045D02*
X278850D01*
Y442795D01*
X283832D01*
Y446045D01*
D02*
G37*
G36*
X461150Y449553D02*
X458431D01*
Y445850D01*
X461150D01*
Y449553D01*
D02*
G37*
G36*
X465369D02*
X462650D01*
Y445850D01*
X465369D01*
Y449553D01*
D02*
G37*
G36*
X305485Y454350D02*
X300850D01*
Y449715D01*
X301519Y449803D01*
X302842Y450351D01*
X303978Y451222D01*
X304849Y452358D01*
X305397Y453681D01*
X305485Y454350D01*
D02*
G37*
G36*
X454650Y456050D02*
X451464D01*
X451503Y455756D01*
X451906Y454783D01*
X452547Y453947D01*
X453383Y453306D01*
X454356Y452903D01*
X454650Y452864D01*
Y456050D01*
D02*
G37*
G36*
X459336D02*
X456150D01*
Y452864D01*
X456444Y452903D01*
X457417Y453306D01*
X458253Y453947D01*
X458894Y454783D01*
X459297Y455756D01*
X459336Y456050D01*
D02*
G37*
G36*
X222950Y457936D02*
X222656Y457897D01*
X221683Y457494D01*
X220847Y456853D01*
X220206Y456017D01*
X219803Y455044D01*
X219764Y454750D01*
X222950D01*
Y457936D01*
D02*
G37*
G36*
X125568Y455553D02*
X122850D01*
Y451850D01*
X125568D01*
Y455553D01*
D02*
G37*
G36*
X222950Y453250D02*
X219764D01*
X219803Y452956D01*
X220206Y451983D01*
X220847Y451147D01*
X221683Y450506D01*
X222656Y450103D01*
X222950Y450064D01*
Y453250D01*
D02*
G37*
G36*
X227636D02*
X224450D01*
Y450064D01*
X224744Y450103D01*
X225717Y450506D01*
X226553Y451147D01*
X227194Y451983D01*
X227597Y452956D01*
X227636Y453250D01*
D02*
G37*
G36*
X121350Y455553D02*
X118631D01*
Y451850D01*
X121350D01*
Y455553D01*
D02*
G37*
G36*
X256403Y492474D02*
X245529D01*
Y486112D01*
X236017D01*
Y472088D01*
X246891D01*
Y473726D01*
X256403D01*
Y492474D01*
D02*
G37*
G36*
X370150Y496772D02*
X369057Y496664D01*
X367285Y496127D01*
X365652Y495254D01*
X364221Y494079D01*
X363046Y492648D01*
X362174Y491015D01*
X361636Y489243D01*
X361528Y488150D01*
X370150D01*
Y496772D01*
D02*
G37*
G36*
X371650D02*
Y488150D01*
X380272D01*
X380164Y489243D01*
X379626Y491015D01*
X378754Y492648D01*
X377579Y494079D01*
X376148Y495254D01*
X374515Y496127D01*
X372743Y496664D01*
X371650Y496772D01*
D02*
G37*
G36*
X123350Y496485D02*
X122681Y496397D01*
X121358Y495849D01*
X120222Y494978D01*
X119351Y493842D01*
X118803Y492519D01*
X118715Y491850D01*
X123350D01*
Y496485D01*
D02*
G37*
G36*
X297150Y496472D02*
Y487850D01*
X305772D01*
X305664Y488943D01*
X305127Y490715D01*
X304254Y492348D01*
X303079Y493779D01*
X301648Y494954D01*
X300015Y495826D01*
X298243Y496364D01*
X297150Y496472D01*
D02*
G37*
G36*
X390150Y490350D02*
X386447D01*
Y487632D01*
X390150D01*
Y490350D01*
D02*
G37*
G36*
X395353D02*
X391650D01*
Y487632D01*
X395353D01*
Y490350D01*
D02*
G37*
G36*
X295650Y496472D02*
X294557Y496364D01*
X292785Y495826D01*
X291152Y494954D01*
X289721Y493779D01*
X288546Y492348D01*
X287673Y490715D01*
X287136Y488943D01*
X287028Y487850D01*
X295650D01*
Y496472D01*
D02*
G37*
G36*
X124850Y496485D02*
Y491850D01*
X129485D01*
X129397Y492519D01*
X128849Y493842D01*
X127978Y494978D01*
X126842Y495849D01*
X125519Y496397D01*
X124850Y496485D01*
D02*
G37*
G36*
X395353Y494568D02*
X391650D01*
Y491850D01*
X395353D01*
Y494568D01*
D02*
G37*
G36*
X402150Y496485D02*
X401481Y496397D01*
X400158Y495849D01*
X399022Y494978D01*
X398151Y493842D01*
X397603Y492519D01*
X397515Y491850D01*
X402150D01*
Y496485D01*
D02*
G37*
G36*
X403650D02*
Y491850D01*
X408285D01*
X408197Y492519D01*
X407649Y493842D01*
X406778Y494978D01*
X405642Y495849D01*
X404319Y496397D01*
X403650Y496485D01*
D02*
G37*
G36*
X390150Y494568D02*
X386447D01*
Y491850D01*
X390150D01*
Y494568D01*
D02*
G37*
G36*
X152100Y495739D02*
X151320Y495584D01*
X151273Y495553D01*
X148632D01*
Y491850D01*
X155569D01*
Y495553D01*
X152927D01*
X152880Y495584D01*
X152100Y495739D01*
D02*
G37*
G36*
X171350Y495553D02*
X168631D01*
Y491850D01*
X171350D01*
Y495553D01*
D02*
G37*
G36*
X175568D02*
X172850D01*
Y491850D01*
X175568D01*
Y495553D01*
D02*
G37*
G36*
X380272Y486650D02*
X371650D01*
Y478028D01*
X372743Y478136D01*
X374515Y478674D01*
X376148Y479546D01*
X377579Y480721D01*
X378754Y482152D01*
X379626Y483785D01*
X380164Y485557D01*
X380272Y486650D01*
D02*
G37*
G36*
X488932Y492516D02*
X487513Y492329D01*
X486190Y491781D01*
X485054Y490910D01*
X484183Y489774D01*
X483635Y488451D01*
X483448Y487032D01*
X483635Y485613D01*
X484183Y484290D01*
X485054Y483154D01*
X486190Y482283D01*
X487513Y481735D01*
X488932Y481548D01*
X490351Y481735D01*
X491674Y482283D01*
X492810Y483154D01*
X493681Y484290D01*
X494229Y485613D01*
X494416Y487032D01*
X494229Y488451D01*
X493681Y489774D01*
X492810Y490910D01*
X491674Y491781D01*
X490351Y492329D01*
X488932Y492516D01*
D02*
G37*
G36*
X472900Y484584D02*
X471481Y484397D01*
X470158Y483849D01*
X469022Y482978D01*
X468151Y481842D01*
X468150Y481840D01*
X467650D01*
X467649Y481842D01*
X466778Y482978D01*
X465642Y483849D01*
X464319Y484397D01*
X463650Y484485D01*
Y473715D01*
X464319Y473803D01*
X465642Y474351D01*
X466778Y475222D01*
X467649Y476358D01*
X467650Y476360D01*
X468150D01*
X468151Y476358D01*
X469022Y475222D01*
X470158Y474351D01*
X471481Y473803D01*
X472900Y473616D01*
X474319Y473803D01*
X475642Y474351D01*
X476778Y475222D01*
X477649Y476358D01*
X478197Y477681D01*
X478384Y479100D01*
X478197Y480519D01*
X477649Y481842D01*
X476778Y482978D01*
X475642Y483849D01*
X474319Y484397D01*
X472900Y484584D01*
D02*
G37*
G36*
X370150Y486650D02*
X361528D01*
X361636Y485557D01*
X362174Y483785D01*
X363046Y482152D01*
X364221Y480721D01*
X365652Y479546D01*
X367285Y478674D01*
X369057Y478136D01*
X370150Y478028D01*
Y486650D01*
D02*
G37*
G36*
X390900Y485630D02*
X390431Y485569D01*
X386447D01*
Y478631D01*
X387370D01*
Y474630D01*
X384274D01*
Y476537D01*
X365526D01*
Y465663D01*
X371470D01*
Y461030D01*
X371103Y460144D01*
X370966Y459100D01*
X371103Y458056D01*
X371506Y457083D01*
X372147Y456247D01*
X372983Y455606D01*
X373956Y455203D01*
X375000Y455065D01*
X376044Y455203D01*
X377017Y455606D01*
X377853Y456247D01*
X378494Y457083D01*
X378897Y458056D01*
X379034Y459100D01*
X378897Y460144D01*
X378530Y461030D01*
Y465663D01*
X384274D01*
Y467570D01*
X393845D01*
Y463543D01*
X392727D01*
X392142Y463426D01*
X391645Y463095D01*
X391314Y462599D01*
X391197Y462013D01*
Y447600D01*
X391314Y447015D01*
X391645Y446519D01*
X392142Y446187D01*
X392727Y446071D01*
X397900D01*
Y437903D01*
X415900D01*
Y446071D01*
X421073D01*
X421564Y446168D01*
X421951Y445851D01*
Y415456D01*
X415216Y408720D01*
X414829Y409038D01*
X415355Y409825D01*
X415549Y410800D01*
Y424073D01*
X416057Y424735D01*
X416410Y425586D01*
X416530Y426500D01*
X416410Y427414D01*
X416057Y428265D01*
X415496Y428996D01*
X414765Y429557D01*
X413914Y429910D01*
X413000Y430030D01*
X412086Y429910D01*
X411235Y429557D01*
X410504Y428996D01*
X409943Y428265D01*
X409590Y427414D01*
X409470Y426500D01*
X409590Y425586D01*
X409943Y424735D01*
X410451Y424073D01*
Y411856D01*
X393598Y395002D01*
X393045Y394176D01*
X392851Y393200D01*
Y366727D01*
X392343Y366065D01*
X391990Y365214D01*
X391870Y364300D01*
X391990Y363386D01*
X392343Y362535D01*
X392904Y361804D01*
X393635Y361243D01*
X394486Y360890D01*
X395400Y360770D01*
X396314Y360890D01*
X397165Y361243D01*
X397803Y361732D01*
X398251Y361511D01*
Y356500D01*
X398445Y355524D01*
X398998Y354698D01*
X400351Y353344D01*
Y347553D01*
X399431D01*
Y338647D01*
X404108D01*
X404741Y338015D01*
X404550Y337553D01*
X403650D01*
Y328647D01*
X405106D01*
Y325569D01*
X402447D01*
Y324649D01*
X392156D01*
X391353Y325452D01*
Y328569D01*
X382447D01*
Y321632D01*
X387964D01*
X389298Y320298D01*
X389673Y320047D01*
X389528Y319568D01*
X382447D01*
Y312632D01*
X387864D01*
X389198Y311298D01*
X390024Y310745D01*
X391000Y310551D01*
X393972D01*
X394635Y310043D01*
X395486Y309690D01*
X396400Y309570D01*
X397314Y309690D01*
X398165Y310043D01*
X398896Y310604D01*
X399457Y311335D01*
X399810Y312186D01*
X399930Y313100D01*
X399810Y314014D01*
X399457Y314865D01*
X398896Y315596D01*
X398165Y316157D01*
X397314Y316510D01*
X396400Y316630D01*
X395486Y316510D01*
X394635Y316157D01*
X393972Y315649D01*
X392056D01*
X391353Y316352D01*
Y319551D01*
X402447D01*
Y318632D01*
X411353D01*
Y325569D01*
X409694D01*
Y328647D01*
X412651D01*
Y314500D01*
X412845Y313525D01*
X413398Y312698D01*
X414735Y311361D01*
X415562Y310808D01*
X416537Y310614D01*
X419983D01*
Y309301D01*
X427707D01*
Y317025D01*
X427707Y317025D01*
X427707D01*
Y317025D01*
Y317175D01*
X427707Y317379D01*
X427707Y317379D01*
X427707D01*
Y323632D01*
X430150D01*
Y326350D01*
X426447D01*
Y324899D01*
X419983D01*
Y317379D01*
X419983Y317379D01*
X419983D01*
X419983Y317175D01*
Y317100D01*
Y317025D01*
X419983Y316821D01*
X419983Y316821D01*
X419983D01*
Y315712D01*
X417749D01*
Y329800D01*
X417555Y330775D01*
X417002Y331602D01*
X415369Y333236D01*
Y337553D01*
X414449D01*
Y338647D01*
X415369D01*
Y339919D01*
X415817Y340140D01*
X416383Y339706D01*
X417356Y339303D01*
X418400Y339165D01*
X419444Y339303D01*
X420417Y339706D01*
X421253Y340347D01*
X421894Y341183D01*
X422297Y342156D01*
X422435Y343200D01*
X422433Y343214D01*
X422762Y343590D01*
X428900D01*
Y339850D01*
D01*
Y339850D01*
X428618Y339568D01*
X426447D01*
Y332631D01*
X435353D01*
Y333551D01*
X437144D01*
X438432Y332264D01*
Y326647D01*
X439406D01*
Y324899D01*
X438093D01*
Y317379D01*
X438093Y317379D01*
X438093D01*
X438093Y317175D01*
Y317100D01*
Y317025D01*
X438093Y316821D01*
X438093Y316821D01*
X438093D01*
Y309301D01*
X445817D01*
Y317025D01*
X445817D01*
Y317175D01*
X445817Y317379D01*
X445817Y317379D01*
X445817D01*
Y324899D01*
X444504D01*
Y326647D01*
X445368D01*
Y335553D01*
X442352D01*
X440749Y337156D01*
Y338800D01*
X440555Y339775D01*
X440002Y340602D01*
X436900Y343705D01*
Y346350D01*
X429026D01*
Y347330D01*
X432150D01*
Y353830D01*
X429575D01*
Y359070D01*
X434136Y363632D01*
X436815D01*
X436975Y363158D01*
X436504Y362796D01*
X435943Y362065D01*
X435590Y361214D01*
X435470Y360300D01*
X435590Y359386D01*
X435943Y358535D01*
X436504Y357804D01*
X437235Y357243D01*
X438086Y356890D01*
X439000Y356770D01*
X439914Y356890D01*
X440765Y357243D01*
X441496Y357804D01*
X442057Y358535D01*
X442410Y359386D01*
X442504Y360099D01*
X444102Y361698D01*
X444655Y362525D01*
X444849Y363500D01*
Y380144D01*
X445395Y380690D01*
X445857Y380499D01*
Y380498D01*
X445857Y380497D01*
X445857D01*
Y377283D01*
X455943D01*
Y380498D01*
X456297Y380851D01*
X465200D01*
X466176Y381045D01*
X467002Y381598D01*
X467956Y382551D01*
X473184D01*
X473526Y382105D01*
Y380647D01*
X476246D01*
X476900Y380561D01*
X477554Y380647D01*
X492274D01*
Y389553D01*
X477554D01*
X476900Y389639D01*
X476246Y389553D01*
X473526D01*
Y388095D01*
X473184Y387649D01*
X466900D01*
X465925Y387455D01*
X465098Y386902D01*
X464144Y385949D01*
X444500D01*
X443525Y385755D01*
X442698Y385202D01*
X440498Y383002D01*
X439945Y382175D01*
X439751Y381200D01*
Y379569D01*
X439353D01*
Y379569D01*
X437449D01*
Y383044D01*
X441020Y386615D01*
X441400Y386565D01*
X442444Y386703D01*
X443417Y387106D01*
X444253Y387747D01*
X444894Y388583D01*
X445297Y389556D01*
X445358Y390017D01*
X445857Y389984D01*
Y386844D01*
X455943D01*
Y388326D01*
X467600D01*
X468318Y388421D01*
X468710Y388583D01*
X468987Y388698D01*
X469561Y389139D01*
X472949Y392526D01*
X484956D01*
X485291Y392091D01*
X486231Y391369D01*
X487325Y390916D01*
X488500Y390761D01*
X489675Y390916D01*
X490769Y391369D01*
X491709Y392091D01*
X492431Y393031D01*
X492884Y394125D01*
X493039Y395300D01*
X492884Y396475D01*
X492431Y397569D01*
X491709Y398509D01*
X490769Y399231D01*
X489675Y399684D01*
X488500Y399839D01*
X487325Y399684D01*
X486231Y399231D01*
X485291Y398509D01*
X484956Y398074D01*
X476774D01*
Y403565D01*
X477057Y403935D01*
X477410Y404786D01*
X477530Y405700D01*
X477410Y406614D01*
X477057Y407465D01*
X476496Y408196D01*
X475765Y408757D01*
X474914Y409110D01*
X474000Y409230D01*
X473086Y409110D01*
X472235Y408757D01*
X471504Y408196D01*
X470943Y407465D01*
X470590Y406614D01*
X470470Y405700D01*
X470590Y404786D01*
X470943Y403935D01*
X471226Y403565D01*
Y397998D01*
X471082Y397979D01*
X470413Y397702D01*
X469839Y397261D01*
X466451Y393874D01*
X462515D01*
X462294Y394322D01*
X462457Y394535D01*
X462810Y395386D01*
X462930Y396300D01*
X462810Y397214D01*
X462457Y398065D01*
X462204Y398396D01*
X462425Y398844D01*
X466904D01*
Y407356D01*
X464312D01*
Y409751D01*
X473100D01*
X474076Y409945D01*
X474902Y410498D01*
X480686Y416281D01*
X481514Y416390D01*
X482365Y416743D01*
X483096Y417304D01*
X483657Y418035D01*
X484010Y418886D01*
X484130Y419800D01*
X484010Y420714D01*
X483657Y421565D01*
X483096Y422296D01*
X482365Y422857D01*
X481514Y423210D01*
X480600Y423330D01*
X479686Y423210D01*
X478835Y422857D01*
X478104Y422296D01*
X477543Y421565D01*
X477190Y420714D01*
X477081Y419886D01*
X472044Y414849D01*
X443727D01*
X443594Y414951D01*
Y416632D01*
X446353D01*
Y423568D01*
X437447D01*
Y416632D01*
X439006D01*
Y414951D01*
X438804Y414796D01*
X438243Y414065D01*
X437890Y413214D01*
X437770Y412300D01*
X437890Y411386D01*
X438243Y410535D01*
X438804Y409804D01*
X439535Y409243D01*
X440386Y408890D01*
X441300Y408770D01*
X442214Y408890D01*
X443065Y409243D01*
X443727Y409751D01*
X459724D01*
Y407356D01*
X454573D01*
Y405649D01*
X453400D01*
X452424Y405455D01*
X451598Y404902D01*
X449098Y402402D01*
X448545Y401576D01*
X448351Y400600D01*
Y398225D01*
X447889Y398034D01*
X447161Y398761D01*
X446587Y399202D01*
X445918Y399479D01*
X445200Y399574D01*
X435400D01*
X434682Y399479D01*
X434013Y399202D01*
X433439Y398761D01*
X423939Y389261D01*
X423498Y388687D01*
X423383Y388410D01*
X423221Y388018D01*
X423126Y387300D01*
Y385553D01*
X422432D01*
Y376647D01*
X423126D01*
Y375553D01*
X422432D01*
Y367011D01*
X420260Y364840D01*
X420074Y364846D01*
X419902Y365102D01*
X419449Y365556D01*
Y366647D01*
X420368D01*
Y375553D01*
X413432D01*
Y366647D01*
X414351D01*
Y364500D01*
X414545Y363525D01*
X415098Y362698D01*
X415449Y362346D01*
X415368Y361852D01*
X415103Y361721D01*
X414665Y362057D01*
X413814Y362410D01*
X412986Y362519D01*
X411949Y363556D01*
Y378551D01*
X413432D01*
Y376647D01*
X420368D01*
Y385553D01*
X413432D01*
Y383649D01*
X411949D01*
Y385044D01*
X434402Y407498D01*
X434955Y408324D01*
X435149Y409300D01*
Y444353D01*
X435565Y444630D01*
X436386Y444290D01*
X437300Y444170D01*
X438214Y444290D01*
X439065Y444643D01*
X439796Y445204D01*
X440036Y445220D01*
X454573Y430682D01*
X454573Y430584D01*
X454573D01*
Y422073D01*
X459724D01*
Y420682D01*
X459899Y419804D01*
X460396Y419060D01*
X462578Y416878D01*
X463322Y416381D01*
X464200Y416206D01*
X467400D01*
X468278Y416381D01*
X469022Y416878D01*
X469022Y416878D01*
X469022Y416878D01*
X471347Y419203D01*
X471600Y419170D01*
X472514Y419290D01*
X473365Y419643D01*
X474096Y420204D01*
X474657Y420935D01*
X475010Y421786D01*
X475130Y422700D01*
X475010Y423614D01*
X474657Y424465D01*
X474096Y425196D01*
X473365Y425757D01*
X472514Y426110D01*
X471600Y426230D01*
X470686Y426110D01*
X469835Y425757D01*
X469104Y425196D01*
X468543Y424465D01*
X468190Y423614D01*
X468070Y422700D01*
X468103Y422447D01*
X466450Y420794D01*
X465150D01*
X464334Y421610D01*
X464525Y422072D01*
X464345D01*
Y430584D01*
X461753D01*
Y433741D01*
X461579Y434619D01*
X461081Y435363D01*
X461081Y435363D01*
X461081Y435363D01*
X440525Y455920D01*
X454702Y470098D01*
X455255Y470925D01*
X455449Y471900D01*
Y474271D01*
X455642Y474351D01*
X456778Y475222D01*
X457649Y476358D01*
X457650Y476360D01*
X458150D01*
X458151Y476358D01*
X459022Y475222D01*
X460158Y474351D01*
X461481Y473803D01*
X462150Y473715D01*
Y484485D01*
X461481Y484397D01*
X460158Y483849D01*
X459022Y482978D01*
X458151Y481842D01*
X458150Y481840D01*
X457650D01*
X457649Y481842D01*
X456778Y482978D01*
X455642Y483849D01*
X454319Y484397D01*
X452900Y484584D01*
X451481Y484397D01*
X450158Y483849D01*
X449022Y482978D01*
X448151Y481842D01*
X448150Y481840D01*
X447650D01*
X447649Y481842D01*
X446778Y482978D01*
X445642Y483849D01*
X444319Y484397D01*
X442900Y484584D01*
X441481Y484397D01*
X440158Y483849D01*
X439022Y482978D01*
X438151Y481842D01*
X438150Y481840D01*
X437650D01*
X437649Y481842D01*
X436778Y482978D01*
X435642Y483849D01*
X434319Y484397D01*
X432900Y484584D01*
X431481Y484397D01*
X430158Y483849D01*
X429022Y482978D01*
X428151Y481842D01*
X427603Y480519D01*
X427416Y479100D01*
X427603Y477681D01*
X428151Y476358D01*
X429022Y475222D01*
X430158Y474351D01*
X430351Y474271D01*
Y472156D01*
X422698Y464502D01*
X422145Y463675D01*
X422132Y463610D01*
X421670Y463419D01*
X421659Y463426D01*
X421073Y463543D01*
X419955D01*
Y468350D01*
X411955D01*
Y463543D01*
X410900D01*
Y474832D01*
X402900D01*
Y463543D01*
X401845D01*
Y474832D01*
X394430D01*
Y478631D01*
X395353D01*
Y485569D01*
X391369D01*
X390900Y485630D01*
D02*
G37*
G36*
X295650Y486350D02*
X287028D01*
X287136Y485257D01*
X287673Y483485D01*
X288546Y481852D01*
X289721Y480421D01*
X291152Y479246D01*
X292785Y478373D01*
X294557Y477836D01*
X295650Y477728D01*
Y486350D01*
D02*
G37*
G36*
X305772D02*
X297150D01*
Y477728D01*
X298243Y477836D01*
X300015Y478373D01*
X301648Y479246D01*
X303079Y480421D01*
X304254Y481852D01*
X305127Y483485D01*
X305664Y485257D01*
X305772Y486350D01*
D02*
G37*
G36*
X417600Y496584D02*
X416181Y496397D01*
X414858Y495849D01*
X413722Y494978D01*
X412851Y493842D01*
X412303Y492519D01*
X412116Y491100D01*
X412303Y489681D01*
X412851Y488358D01*
X413722Y487222D01*
X414858Y486351D01*
X416181Y485803D01*
X417600Y485616D01*
X419019Y485803D01*
X420342Y486351D01*
X421478Y487222D01*
X422349Y488358D01*
X422897Y489681D01*
X423084Y491100D01*
X422897Y492519D01*
X422349Y493842D01*
X421478Y494978D01*
X420342Y495849D01*
X419019Y496397D01*
X417600Y496584D01*
D02*
G37*
G36*
X285537Y492474D02*
X274663D01*
Y486530D01*
X270030D01*
X269144Y486897D01*
X268100Y487035D01*
X267056Y486897D01*
X266083Y486494D01*
X265247Y485853D01*
X264606Y485017D01*
X264203Y484044D01*
X264066Y483000D01*
X264203Y481956D01*
X264606Y480983D01*
X265247Y480147D01*
X266083Y479506D01*
X267056Y479103D01*
X268100Y478966D01*
X269144Y479103D01*
X270030Y479470D01*
X274663D01*
Y473726D01*
X276570D01*
Y464155D01*
X272543D01*
Y465273D01*
X272426Y465859D01*
X272095Y466355D01*
X271599Y466686D01*
X271013Y466803D01*
X256600D01*
X256015Y466686D01*
X255519Y466355D01*
X255187Y465859D01*
X255071Y465273D01*
Y460100D01*
X246903D01*
Y442100D01*
X255071D01*
Y436927D01*
X255168Y436436D01*
X254851Y436049D01*
X224456D01*
X217721Y442784D01*
X218038Y443171D01*
X218825Y442645D01*
X219800Y442451D01*
X233072D01*
X233735Y441943D01*
X234586Y441590D01*
X235500Y441470D01*
X236414Y441590D01*
X237265Y441943D01*
X237996Y442504D01*
X238557Y443235D01*
X238910Y444086D01*
X239030Y445000D01*
X238910Y445914D01*
X238557Y446765D01*
X237996Y447496D01*
X237265Y448057D01*
X236414Y448410D01*
X235500Y448530D01*
X234586Y448410D01*
X233735Y448057D01*
X233072Y447549D01*
X220856D01*
X204002Y464402D01*
X203175Y464955D01*
X202200Y465149D01*
X175727D01*
X175065Y465657D01*
X174214Y466010D01*
X173300Y466130D01*
X172386Y466010D01*
X171535Y465657D01*
X170804Y465096D01*
X170243Y464365D01*
X169890Y463514D01*
X169770Y462600D01*
X169890Y461686D01*
X170243Y460835D01*
X170732Y460197D01*
X170511Y459749D01*
X165500D01*
X164524Y459555D01*
X163698Y459002D01*
X162344Y457649D01*
X156553D01*
Y458568D01*
X147647D01*
Y453892D01*
X147015Y453259D01*
X146553Y453450D01*
Y454350D01*
X137647D01*
Y452894D01*
X134569D01*
Y455553D01*
X133649D01*
Y465844D01*
X134452Y466647D01*
X137568D01*
Y475553D01*
X130631D01*
Y470036D01*
X129298Y468702D01*
X129047Y468327D01*
X128568Y468472D01*
Y475553D01*
X121632D01*
Y470136D01*
X120298Y468802D01*
X119745Y467976D01*
X119551Y467000D01*
Y464028D01*
X119043Y463365D01*
X118690Y462514D01*
X118570Y461600D01*
X118690Y460686D01*
X119043Y459835D01*
X119604Y459104D01*
X120335Y458543D01*
X121186Y458190D01*
X122100Y458070D01*
X123014Y458190D01*
X123865Y458543D01*
X124596Y459104D01*
X125157Y459835D01*
X125510Y460686D01*
X125630Y461600D01*
X125510Y462514D01*
X125157Y463365D01*
X124649Y464028D01*
Y465944D01*
X125352Y466647D01*
X128551D01*
Y455553D01*
X127631D01*
Y446647D01*
X134569D01*
Y448306D01*
X137647D01*
Y445349D01*
X123500D01*
X122524Y445155D01*
X121698Y444602D01*
X120361Y443265D01*
X119808Y442438D01*
X119614Y441463D01*
Y438017D01*
X118301D01*
Y430293D01*
X126025D01*
X126025Y430293D01*
Y430293D01*
X126025D01*
X126175D01*
X126379Y430293D01*
X126379Y430293D01*
Y430293D01*
X132632D01*
Y427850D01*
X135350D01*
Y431553D01*
X133899D01*
Y438017D01*
X126379D01*
X126379Y438017D01*
Y438017D01*
X126175Y438017D01*
X126100D01*
X126025D01*
X125821Y438017D01*
X125821Y438017D01*
Y438017D01*
X124712D01*
Y440251D01*
X138800D01*
X139776Y440445D01*
X140602Y440998D01*
X142236Y442631D01*
X146553D01*
Y443551D01*
X147647D01*
Y442631D01*
X148919D01*
X149140Y442183D01*
X148706Y441617D01*
X148303Y440644D01*
X148166Y439600D01*
X148303Y438556D01*
X148706Y437583D01*
X149347Y436747D01*
X150183Y436106D01*
X151156Y435703D01*
X152200Y435566D01*
X152214Y435567D01*
X152590Y435238D01*
Y429100D01*
X148850D01*
D01*
X148850D01*
X148568Y429382D01*
Y431553D01*
X141631D01*
Y422647D01*
X142551D01*
Y420856D01*
X141264Y419568D01*
X135647D01*
Y418594D01*
X133899D01*
Y419907D01*
X126379D01*
X126379Y419907D01*
Y419907D01*
X126175Y419907D01*
X126100D01*
X126025D01*
X125821Y419907D01*
X125821Y419907D01*
Y419907D01*
X118301D01*
Y412183D01*
X126025D01*
Y412183D01*
X126175D01*
X126379Y412183D01*
X126379Y412183D01*
Y412183D01*
X133899D01*
Y413496D01*
X135647D01*
Y412632D01*
X144553D01*
Y415648D01*
X146156Y417251D01*
X147800D01*
X148775Y417445D01*
X149602Y417998D01*
X152705Y421100D01*
X155350D01*
Y428974D01*
X156330D01*
Y425850D01*
X162830D01*
Y428425D01*
X168070D01*
X172632Y423864D01*
Y421185D01*
X172158Y421025D01*
X171796Y421496D01*
X171065Y422057D01*
X170214Y422410D01*
X169300Y422530D01*
X168386Y422410D01*
X167535Y422057D01*
X166804Y421496D01*
X166243Y420765D01*
X165890Y419914D01*
X165770Y419000D01*
X165890Y418086D01*
X166243Y417235D01*
X166804Y416504D01*
X167535Y415943D01*
X168386Y415590D01*
X169099Y415496D01*
X170698Y413898D01*
X171525Y413345D01*
X172500Y413151D01*
X189144D01*
X189690Y412605D01*
X189499Y412143D01*
X189497D01*
X189497Y412143D01*
Y412143D01*
X186283D01*
Y407099D01*
Y402057D01*
X189497D01*
X189851Y401703D01*
Y392800D01*
X190045Y391825D01*
X190598Y390998D01*
X191551Y390044D01*
Y384816D01*
X191105Y384474D01*
X189647D01*
Y381754D01*
X189561Y381100D01*
X189647Y380446D01*
Y365726D01*
X198553D01*
Y380446D01*
X198639Y381100D01*
X198553Y381754D01*
Y384474D01*
X197095D01*
X196649Y384816D01*
Y391100D01*
X196455Y392075D01*
X195902Y392902D01*
X194949Y393856D01*
Y413500D01*
X194755Y414475D01*
X194202Y415302D01*
X192002Y417502D01*
X191175Y418055D01*
X190200Y418249D01*
X188568D01*
Y418647D01*
X188568D01*
Y420551D01*
X192044D01*
X195615Y416980D01*
X195565Y416600D01*
X195703Y415556D01*
X196106Y414583D01*
X196747Y413747D01*
X197583Y413106D01*
X198556Y412703D01*
X199017Y412642D01*
X198984Y412143D01*
X195844D01*
Y402057D01*
X197326D01*
Y390400D01*
X197421Y389682D01*
X197583Y389290D01*
X197698Y389013D01*
X198139Y388439D01*
X201526Y385051D01*
Y373044D01*
X201091Y372709D01*
X200369Y371769D01*
X199916Y370675D01*
X199761Y369500D01*
X199916Y368325D01*
X200369Y367231D01*
X201091Y366291D01*
X202031Y365569D01*
X203125Y365116D01*
X204300Y364961D01*
X205475Y365116D01*
X206569Y365569D01*
X207509Y366291D01*
X208231Y367231D01*
X208684Y368325D01*
X208839Y369500D01*
X208684Y370675D01*
X208231Y371769D01*
X207509Y372709D01*
X207074Y373044D01*
Y381226D01*
X212565D01*
X212935Y380943D01*
X213786Y380590D01*
X214700Y380470D01*
X215614Y380590D01*
X216465Y380943D01*
X217196Y381504D01*
X217757Y382235D01*
X218110Y383086D01*
X218230Y384000D01*
X218110Y384914D01*
X217757Y385765D01*
X217196Y386496D01*
X216465Y387057D01*
X215614Y387410D01*
X214700Y387530D01*
X213786Y387410D01*
X212935Y387057D01*
X212565Y386774D01*
X206998D01*
X206979Y386918D01*
X206702Y387587D01*
X206261Y388161D01*
X202874Y391549D01*
Y395485D01*
X203322Y395706D01*
X203535Y395543D01*
X204386Y395190D01*
X205300Y395070D01*
X206214Y395190D01*
X207065Y395543D01*
X207396Y395796D01*
X207844Y395575D01*
Y393655D01*
Y391096D01*
X216356D01*
Y393655D01*
Y393688D01*
X218751D01*
Y384900D01*
X218945Y383925D01*
X219498Y383098D01*
X225281Y377314D01*
X225390Y376486D01*
X225743Y375635D01*
X226304Y374904D01*
X227035Y374343D01*
X227886Y373990D01*
X228800Y373870D01*
X229714Y373990D01*
X230565Y374343D01*
X231296Y374904D01*
X231857Y375635D01*
X232210Y376486D01*
X232330Y377400D01*
X232210Y378314D01*
X231857Y379165D01*
X231296Y379896D01*
X230565Y380457D01*
X229714Y380810D01*
X228886Y380919D01*
X223849Y385956D01*
Y395982D01*
Y414272D01*
X223951Y414406D01*
X225631D01*
Y411647D01*
X232569D01*
Y420553D01*
X225631D01*
Y418994D01*
X223951D01*
X223796Y419196D01*
X223065Y419757D01*
X222214Y420110D01*
X221300Y420230D01*
X220386Y420110D01*
X219535Y419757D01*
X218804Y419196D01*
X218243Y418465D01*
X217890Y417614D01*
X217770Y416700D01*
X217890Y415786D01*
X218243Y414935D01*
X218751Y414272D01*
Y398276D01*
X216356D01*
Y398309D01*
Y398773D01*
Y403427D01*
X214649D01*
Y404600D01*
X214455Y405576D01*
X213902Y406402D01*
X211402Y408902D01*
X210576Y409455D01*
X209600Y409649D01*
X207225D01*
X207034Y410111D01*
X207761Y410839D01*
X208202Y411413D01*
X208479Y412082D01*
X208574Y412800D01*
Y422600D01*
X208479Y423318D01*
X208202Y423987D01*
X207761Y424561D01*
X198261Y434061D01*
X197687Y434502D01*
X197410Y434617D01*
X197018Y434779D01*
X196300Y434874D01*
X194553D01*
Y435569D01*
X185647D01*
Y434874D01*
X184553D01*
Y435569D01*
X176011D01*
X173840Y437740D01*
X173846Y437926D01*
X174102Y438098D01*
X174556Y438551D01*
X175647D01*
Y437632D01*
X184553D01*
Y444568D01*
X175647D01*
Y443649D01*
X173500D01*
X172524Y443455D01*
X171698Y442902D01*
X171346Y442551D01*
X170852Y442632D01*
X170722Y442897D01*
X171057Y443335D01*
X171410Y444186D01*
X171519Y445014D01*
X172556Y446051D01*
X187551D01*
Y444568D01*
X185647D01*
Y437632D01*
X194553D01*
Y444568D01*
X192649D01*
Y446051D01*
X194044D01*
X216498Y423598D01*
X217324Y423045D01*
X218300Y422851D01*
X253353D01*
X253630Y422435D01*
X253290Y421614D01*
X253170Y420700D01*
X253290Y419786D01*
X253643Y418935D01*
X254204Y418204D01*
X254220Y417964D01*
X239683Y403427D01*
X239584Y403427D01*
Y403427D01*
X231072D01*
Y398773D01*
Y398309D01*
Y398276D01*
X229682D01*
X228804Y398101D01*
X228060Y397604D01*
X225878Y395422D01*
X225380Y394678D01*
X225206Y393800D01*
Y390600D01*
X225380Y389722D01*
X225878Y388978D01*
X225878Y388978D01*
X225878Y388978D01*
X228203Y386653D01*
X228170Y386400D01*
X228290Y385486D01*
X228643Y384635D01*
X229204Y383904D01*
X229935Y383343D01*
X230786Y382990D01*
X231700Y382870D01*
X232614Y382990D01*
X233465Y383343D01*
X234196Y383904D01*
X234757Y384635D01*
X235110Y385486D01*
X235230Y386400D01*
X235110Y387314D01*
X234757Y388165D01*
X234196Y388896D01*
X233465Y389457D01*
X232614Y389810D01*
X231700Y389930D01*
X231447Y389897D01*
X229794Y391550D01*
Y392850D01*
X230610Y393666D01*
X231072Y393475D01*
Y393655D01*
X239584D01*
Y393655D01*
Y396214D01*
Y396247D01*
X242741D01*
X243619Y396422D01*
X244363Y396919D01*
X244363Y396919D01*
X244363Y396919D01*
X264920Y417475D01*
X279098Y403298D01*
X279925Y402745D01*
X280900Y402551D01*
X283271D01*
X283351Y402358D01*
X284222Y401222D01*
X285358Y400351D01*
X285360Y400350D01*
Y399850D01*
X285358Y399849D01*
X284222Y398978D01*
X283351Y397842D01*
X282803Y396519D01*
X282715Y395850D01*
X293485D01*
X293397Y396519D01*
X292849Y397842D01*
X291978Y398978D01*
X290842Y399849D01*
X290840Y399850D01*
Y400350D01*
X290842Y400351D01*
X291978Y401222D01*
X292849Y402358D01*
X293397Y403681D01*
X293584Y405100D01*
X293397Y406519D01*
X292849Y407842D01*
X291978Y408978D01*
X290842Y409849D01*
X290840Y409850D01*
Y410350D01*
X290842Y410351D01*
X291978Y411222D01*
X292849Y412358D01*
X293397Y413681D01*
X293584Y415100D01*
X293397Y416519D01*
X292849Y417842D01*
X291978Y418978D01*
X290842Y419849D01*
X290840Y419850D01*
Y420350D01*
X290842Y420351D01*
X291978Y421222D01*
X292849Y422358D01*
X293397Y423681D01*
X293584Y425100D01*
X293397Y426519D01*
X292849Y427842D01*
X291978Y428978D01*
X290842Y429849D01*
X289519Y430397D01*
X288100Y430584D01*
X286681Y430397D01*
X285358Y429849D01*
X284222Y428978D01*
X283351Y427842D01*
X283271Y427649D01*
X281156D01*
X273502Y435302D01*
X272675Y435855D01*
X272610Y435868D01*
X272419Y436330D01*
X272426Y436341D01*
X272543Y436927D01*
Y438045D01*
X277350D01*
Y442044D01*
Y446045D01*
X272543D01*
Y447100D01*
X283832D01*
Y455100D01*
X272543D01*
Y456155D01*
X283832D01*
Y463570D01*
X287632D01*
Y462647D01*
X294568D01*
Y466631D01*
X294630Y467100D01*
X294568Y467569D01*
Y471553D01*
X287632D01*
Y470630D01*
X283630D01*
Y473726D01*
X285537D01*
Y492474D01*
D02*
G37*
G36*
X151350Y490350D02*
X148632D01*
Y486647D01*
X151350D01*
Y490350D01*
D02*
G37*
G36*
X155569D02*
X152850D01*
Y486647D01*
X155569D01*
Y490350D01*
D02*
G37*
G36*
X408285D02*
X403650D01*
Y485715D01*
X404319Y485803D01*
X405642Y486351D01*
X406778Y487222D01*
X407649Y488358D01*
X408197Y489681D01*
X408285Y490350D01*
D02*
G37*
G36*
X123350D02*
X118715D01*
X118803Y489681D01*
X119351Y488358D01*
X120222Y487222D01*
X121358Y486351D01*
X122681Y485803D01*
X123350Y485715D01*
Y490350D01*
D02*
G37*
G36*
X129485D02*
X124850D01*
Y485715D01*
X125519Y485803D01*
X126842Y486351D01*
X127978Y487222D01*
X128849Y488358D01*
X129397Y489681D01*
X129485Y490350D01*
D02*
G37*
G36*
X402150D02*
X397515D01*
X397603Y489681D01*
X398151Y488358D01*
X399022Y487222D01*
X400158Y486351D01*
X401481Y485803D01*
X402150Y485715D01*
Y490350D01*
D02*
G37*
G36*
X474368Y449553D02*
X467431D01*
Y440647D01*
X474368D01*
Y441566D01*
X474817Y441787D01*
X475135Y441543D01*
X475986Y441190D01*
X476900Y441070D01*
X477814Y441190D01*
X478665Y441543D01*
X479396Y442104D01*
X479957Y442835D01*
X480310Y443686D01*
X480430Y444600D01*
X480310Y445514D01*
X479957Y446365D01*
X479396Y447096D01*
X478665Y447657D01*
X477814Y448010D01*
X476900Y448130D01*
X475986Y448010D01*
X475135Y447657D01*
X474404Y447096D01*
X474368Y447108D01*
Y449553D01*
D02*
G37*
G36*
X253350Y395350D02*
X249647D01*
Y392632D01*
X253350D01*
Y395350D01*
D02*
G37*
G36*
X258553D02*
X254850D01*
Y392632D01*
X258553D01*
Y395350D01*
D02*
G37*
G36*
X172650Y398750D02*
X169464D01*
X169503Y398456D01*
X169906Y397483D01*
X170547Y396647D01*
X171383Y396006D01*
X172356Y395603D01*
X172650Y395564D01*
Y398750D01*
D02*
G37*
G36*
X239584Y392673D02*
X236078D01*
Y391096D01*
X239584D01*
Y392673D01*
D02*
G37*
G36*
X174850Y392485D02*
Y387850D01*
X179485D01*
X179397Y388519D01*
X178849Y389842D01*
X177978Y390978D01*
X176842Y391849D01*
X175519Y392397D01*
X174850Y392485D01*
D02*
G37*
G36*
X164100Y392584D02*
X162681Y392397D01*
X161358Y391849D01*
X160222Y390978D01*
X159351Y389842D01*
X159350Y389840D01*
X158850D01*
X158849Y389842D01*
X157978Y390978D01*
X156842Y391849D01*
X155519Y392397D01*
X154100Y392584D01*
X152681Y392397D01*
X151358Y391849D01*
X150222Y390978D01*
X149351Y389842D01*
X149350Y389840D01*
X148850D01*
X148849Y389842D01*
X147978Y390978D01*
X146842Y391849D01*
X145519Y392397D01*
X144100Y392584D01*
X142681Y392397D01*
X141358Y391849D01*
X140222Y390978D01*
X139351Y389842D01*
X138803Y388519D01*
X138616Y387100D01*
X138803Y385681D01*
X139351Y384358D01*
X140222Y383222D01*
X141358Y382351D01*
X142681Y381803D01*
X144100Y381616D01*
X145519Y381803D01*
X146842Y382351D01*
X147978Y383222D01*
X148849Y384358D01*
X148850Y384360D01*
X149350D01*
X149351Y384358D01*
X150222Y383222D01*
X151358Y382351D01*
X152681Y381803D01*
X154100Y381616D01*
X155519Y381803D01*
X156842Y382351D01*
X157978Y383222D01*
X158849Y384358D01*
X158850Y384360D01*
X159350D01*
X159351Y384358D01*
X160222Y383222D01*
X161358Y382351D01*
X162681Y381803D01*
X164100Y381616D01*
X165519Y381803D01*
X166842Y382351D01*
X167978Y383222D01*
X168849Y384358D01*
X168850Y384360D01*
X169350D01*
X169351Y384358D01*
X170222Y383222D01*
X171358Y382351D01*
X172681Y381803D01*
X173350Y381715D01*
Y387099D01*
Y392485D01*
X172681Y392397D01*
X171358Y391849D01*
X170222Y390978D01*
X169351Y389842D01*
X169350Y389840D01*
X168850D01*
X168849Y389842D01*
X167978Y390978D01*
X166842Y391849D01*
X165519Y392397D01*
X164100Y392584D01*
D02*
G37*
G36*
X234578Y392673D02*
X231072D01*
Y391096D01*
X234578D01*
Y392673D01*
D02*
G37*
G36*
X177336Y398750D02*
X174150D01*
Y395564D01*
X174444Y395603D01*
X175417Y396006D01*
X176253Y396647D01*
X176894Y397483D01*
X177297Y398456D01*
X177336Y398750D01*
D02*
G37*
G36*
X269736Y401850D02*
X266550D01*
Y398664D01*
X266844Y398703D01*
X267817Y399106D01*
X268653Y399747D01*
X269294Y400583D01*
X269697Y401556D01*
X269736Y401850D01*
D02*
G37*
G36*
X172650Y403436D02*
X172356Y403397D01*
X171383Y402994D01*
X170547Y402353D01*
X169906Y401517D01*
X169503Y400544D01*
X169464Y400250D01*
X172650D01*
Y403436D01*
D02*
G37*
G36*
X174150D02*
Y400250D01*
X177336D01*
X177297Y400544D01*
X176894Y401517D01*
X176253Y402353D01*
X175417Y402994D01*
X174444Y403397D01*
X174150Y403436D01*
D02*
G37*
G36*
X265050Y401850D02*
X261864D01*
X261903Y401556D01*
X262306Y400583D01*
X262947Y399747D01*
X263783Y399106D01*
X264756Y398703D01*
X265050Y398664D01*
Y401850D01*
D02*
G37*
G36*
X144553Y410569D02*
X135647D01*
Y403631D01*
X137551D01*
Y401528D01*
X137043Y400865D01*
X136690Y400014D01*
X136570Y399100D01*
X136690Y398186D01*
X137043Y397335D01*
X137604Y396604D01*
X138335Y396043D01*
X139186Y395690D01*
X140100Y395570D01*
X141014Y395690D01*
X141865Y396043D01*
X142596Y396604D01*
X143157Y397335D01*
X143510Y398186D01*
X143630Y399100D01*
X143510Y400014D01*
X143157Y400865D01*
X142649Y401528D01*
Y403631D01*
X144553D01*
Y410569D01*
D02*
G37*
G36*
X253350Y399569D02*
X249647D01*
Y396850D01*
X253350D01*
Y399569D01*
D02*
G37*
G36*
X258553D02*
X254850D01*
Y396850D01*
X258553D01*
Y399569D01*
D02*
G37*
G36*
X487750Y374350D02*
X484060D01*
X484116Y373925D01*
X484569Y372831D01*
X485291Y371891D01*
X486231Y371169D01*
X487325Y370716D01*
X487750Y370660D01*
Y374350D01*
D02*
G37*
G36*
X492940D02*
X489250D01*
Y370660D01*
X489675Y370716D01*
X490769Y371169D01*
X491709Y371891D01*
X492431Y372831D01*
X492884Y373925D01*
X492940Y374350D01*
D02*
G37*
G36*
X450150Y375783D02*
X445857D01*
Y372277D01*
X450150D01*
Y375783D01*
D02*
G37*
G36*
X184850Y373940D02*
Y370250D01*
X188540D01*
X188484Y370675D01*
X188031Y371769D01*
X187309Y372709D01*
X186369Y373431D01*
X185275Y373884D01*
X184850Y373940D01*
D02*
G37*
G36*
X471650Y370485D02*
Y365850D01*
X476285D01*
X476197Y366519D01*
X475649Y367842D01*
X474778Y368978D01*
X473642Y369849D01*
X472319Y370397D01*
X471650Y370485D01*
D02*
G37*
G36*
X246850Y374485D02*
Y369850D01*
X251485D01*
X251397Y370519D01*
X250849Y371842D01*
X249978Y372978D01*
X248842Y373849D01*
X247519Y374397D01*
X246850Y374485D01*
D02*
G37*
G36*
X183350Y373940D02*
X182925Y373884D01*
X181831Y373431D01*
X180891Y372709D01*
X180169Y371769D01*
X179716Y370675D01*
X179660Y370250D01*
X183350D01*
Y373940D01*
D02*
G37*
G36*
X455943Y375783D02*
X451650D01*
Y372277D01*
X455943D01*
Y375783D01*
D02*
G37*
G36*
X258553Y390568D02*
X249647D01*
Y383631D01*
X250566D01*
X250787Y383183D01*
X250543Y382865D01*
X250190Y382014D01*
X250070Y381100D01*
X250190Y380186D01*
X250543Y379335D01*
X251104Y378604D01*
X251835Y378043D01*
X252686Y377690D01*
X253600Y377570D01*
X254514Y377690D01*
X255365Y378043D01*
X256096Y378604D01*
X256657Y379335D01*
X257010Y380186D01*
X257130Y381100D01*
X257010Y382014D01*
X256657Y382865D01*
X256096Y383596D01*
X256108Y383631D01*
X258553D01*
Y390568D01*
D02*
G37*
G36*
X293485Y394350D02*
X282715D01*
X282803Y393681D01*
X283351Y392358D01*
X284222Y391222D01*
X285358Y390351D01*
X285360Y390350D01*
Y389850D01*
X285358Y389849D01*
X284222Y388978D01*
X283351Y387842D01*
X282803Y386519D01*
X282616Y385100D01*
X282803Y383681D01*
X283351Y382358D01*
X284222Y381222D01*
X285358Y380351D01*
X286681Y379803D01*
X288100Y379616D01*
X289519Y379803D01*
X290842Y380351D01*
X291978Y381222D01*
X292849Y382358D01*
X293397Y383681D01*
X293584Y385100D01*
X293397Y386519D01*
X292849Y387842D01*
X291978Y388978D01*
X290842Y389849D01*
X290840Y389850D01*
Y390350D01*
X290842Y390351D01*
X291978Y391222D01*
X292849Y392358D01*
X293397Y393681D01*
X293485Y394350D01*
D02*
G37*
G36*
X179485Y386350D02*
X174850D01*
Y381715D01*
X175519Y381803D01*
X176842Y382351D01*
X177978Y383222D01*
X178849Y384358D01*
X179397Y385681D01*
X179485Y386350D01*
D02*
G37*
G36*
X489250Y379540D02*
Y375850D01*
X492940D01*
X492884Y376275D01*
X492431Y377369D01*
X491709Y378309D01*
X490769Y379031D01*
X489675Y379484D01*
X489250Y379540D01*
D02*
G37*
G36*
X124350Y382472D02*
X123257Y382364D01*
X121485Y381826D01*
X119852Y380954D01*
X118421Y379779D01*
X117246Y378348D01*
X116374Y376715D01*
X115836Y374943D01*
X115728Y373850D01*
X124350D01*
Y382472D01*
D02*
G37*
G36*
X125850D02*
Y373850D01*
X134472D01*
X134364Y374943D01*
X133826Y376715D01*
X132954Y378348D01*
X131779Y379779D01*
X130348Y380954D01*
X128715Y381826D01*
X126943Y382364D01*
X125850Y382472D01*
D02*
G37*
G36*
X487750Y379540D02*
X487325Y379484D01*
X486231Y379031D01*
X485291Y378309D01*
X484569Y377369D01*
X484116Y376275D01*
X484060Y375850D01*
X487750D01*
Y379540D01*
D02*
G37*
G36*
X184783Y406350D02*
X181277D01*
Y402057D01*
X184783D01*
Y406350D01*
D02*
G37*
G36*
X384274Y447403D02*
X365526D01*
Y436529D01*
X371888D01*
Y427017D01*
X385912D01*
Y437891D01*
X384274D01*
Y447403D01*
D02*
G37*
G36*
X466904Y430584D02*
X465327D01*
Y427078D01*
X466904D01*
Y430584D01*
D02*
G37*
G36*
X139568Y431553D02*
X136850D01*
Y427850D01*
X139568D01*
Y431553D01*
D02*
G37*
G36*
X446353Y428350D02*
X442650D01*
Y425632D01*
X446353D01*
Y428350D01*
D02*
G37*
G36*
X135350Y426350D02*
X132632D01*
Y422647D01*
X135350D01*
Y426350D01*
D02*
G37*
G36*
X139568D02*
X136850D01*
Y422647D01*
X139568D01*
Y426350D01*
D02*
G37*
G36*
X441150Y428350D02*
X437447D01*
Y425632D01*
X441150D01*
Y428350D01*
D02*
G37*
G36*
Y432569D02*
X437447D01*
Y429850D01*
X441150D01*
Y432569D01*
D02*
G37*
G36*
X283832Y441295D02*
X278850D01*
Y438045D01*
X283832D01*
Y441295D01*
D02*
G37*
G36*
X461150Y444350D02*
X458431D01*
Y440647D01*
X461150D01*
Y444350D01*
D02*
G37*
G36*
X465369D02*
X462650D01*
Y440647D01*
X465369D01*
Y444350D01*
D02*
G37*
G36*
X489650Y442485D02*
Y437850D01*
X494285D01*
X494197Y438519D01*
X493649Y439842D01*
X492778Y440978D01*
X491642Y441849D01*
X490319Y442397D01*
X489650Y442485D01*
D02*
G37*
G36*
X446353Y432569D02*
X442650D01*
Y429850D01*
X446353D01*
Y432569D01*
D02*
G37*
G36*
X300100Y445884D02*
X298681Y445697D01*
X297358Y445149D01*
X296222Y444278D01*
X295351Y443142D01*
X294803Y441819D01*
X294616Y440400D01*
X294803Y438981D01*
X295351Y437658D01*
X296222Y436522D01*
X297358Y435651D01*
X298681Y435103D01*
X300100Y434916D01*
X301519Y435103D01*
X302842Y435651D01*
X303978Y436522D01*
X304849Y437658D01*
X305397Y438981D01*
X305584Y440400D01*
X305397Y441819D01*
X304849Y443142D01*
X303978Y444278D01*
X302842Y445149D01*
X301519Y445697D01*
X300100Y445884D01*
D02*
G37*
G36*
X488150Y442485D02*
X487481Y442397D01*
X486158Y441849D01*
X485022Y440978D01*
X484151Y439842D01*
X483603Y438519D01*
X483515Y437850D01*
X488150D01*
Y442485D01*
D02*
G37*
G36*
X407936Y413950D02*
X404750D01*
Y410764D01*
X405044Y410803D01*
X406017Y411206D01*
X406853Y411847D01*
X407494Y412683D01*
X407897Y413656D01*
X407936Y413950D01*
D02*
G37*
G36*
X237350Y415350D02*
X234631D01*
Y411647D01*
X237350D01*
Y415350D01*
D02*
G37*
G36*
X241568D02*
X238850D01*
Y411647D01*
X241568D01*
Y415350D01*
D02*
G37*
G36*
X403250Y413950D02*
X400064D01*
X400103Y413656D01*
X400506Y412683D01*
X401147Y411847D01*
X401983Y411206D01*
X402956Y410803D01*
X403250Y410764D01*
Y413950D01*
D02*
G37*
G36*
X265050Y406536D02*
X264756Y406497D01*
X263783Y406094D01*
X262947Y405453D01*
X262306Y404617D01*
X261903Y403644D01*
X261864Y403350D01*
X265050D01*
Y406536D01*
D02*
G37*
G36*
X266550D02*
Y403350D01*
X269736D01*
X269697Y403644D01*
X269294Y404617D01*
X268653Y405453D01*
X267817Y406094D01*
X266844Y406497D01*
X266550Y406536D01*
D02*
G37*
G36*
X184783Y412143D02*
X181277D01*
Y407850D01*
X184783D01*
Y412143D01*
D02*
G37*
G36*
X403250Y418636D02*
X402956Y418597D01*
X401983Y418194D01*
X401147Y417553D01*
X400506Y416717D01*
X400103Y415744D01*
X400064Y415450D01*
X403250D01*
Y418636D01*
D02*
G37*
G36*
X162830Y424350D02*
X160330D01*
Y421100D01*
X162830D01*
Y424350D01*
D02*
G37*
G36*
X494285Y436350D02*
X483515D01*
X483603Y435681D01*
X484151Y434358D01*
X485022Y433222D01*
X486158Y432351D01*
X486160Y432350D01*
Y431850D01*
X486158Y431849D01*
X485022Y430978D01*
X484151Y429842D01*
X483603Y428519D01*
X483416Y427100D01*
X483603Y425681D01*
X484151Y424358D01*
X485022Y423222D01*
X486158Y422351D01*
X487481Y421803D01*
X488900Y421616D01*
X490319Y421803D01*
X491642Y422351D01*
X492778Y423222D01*
X493649Y424358D01*
X494197Y425681D01*
X494384Y427100D01*
X494197Y428519D01*
X493649Y429842D01*
X492778Y430978D01*
X491642Y431849D01*
X491640Y431850D01*
Y432350D01*
X491642Y432351D01*
X492778Y433222D01*
X493649Y434358D01*
X494197Y435681D01*
X494285Y436350D01*
D02*
G37*
G36*
X466904Y425578D02*
X465327D01*
Y422073D01*
X466904D01*
Y425578D01*
D02*
G37*
G36*
X158830Y424350D02*
X156330D01*
Y421100D01*
X158830D01*
Y424350D01*
D02*
G37*
G36*
X404750Y418636D02*
Y415450D01*
X407936D01*
X407897Y415744D01*
X407494Y416717D01*
X406853Y417553D01*
X406017Y418194D01*
X405044Y418597D01*
X404750Y418636D01*
D02*
G37*
G36*
X237350Y420553D02*
X234631D01*
Y416850D01*
X237350D01*
Y420553D01*
D02*
G37*
G36*
X241568D02*
X238850D01*
Y416850D01*
X241568D01*
Y420553D01*
D02*
G37*
%LPD*%
D10*
X200982Y477100D02*
D03*
X211218D02*
D03*
X208659D02*
D03*
X203541D02*
D03*
X206100D02*
D03*
X200982Y327100D02*
D03*
X211218D02*
D03*
X208659D02*
D03*
X203541D02*
D03*
X206100D02*
D03*
D11*
X209643Y490092D02*
D03*
X202557D02*
D03*
X209643Y340092D02*
D03*
X202557D02*
D03*
D12*
X235328Y393423D02*
D03*
Y395982D02*
D03*
Y398541D02*
D03*
Y401100D02*
D03*
X212100Y393423D02*
D03*
Y395982D02*
D03*
Y398541D02*
D03*
Y401100D02*
D03*
X235328Y243423D02*
D03*
Y245982D02*
D03*
Y248541D02*
D03*
Y251100D02*
D03*
X212100Y243423D02*
D03*
Y245982D02*
D03*
Y248541D02*
D03*
Y251100D02*
D03*
D13*
X130037Y416045D02*
D03*
Y434155D02*
D03*
X122163D02*
D03*
Y416045D02*
D03*
X130037Y266045D02*
D03*
Y284155D02*
D03*
X122163D02*
D03*
Y266045D02*
D03*
D14*
X278100Y442045D02*
D03*
Y451100D02*
D03*
Y460155D02*
D03*
Y292045D02*
D03*
Y301100D02*
D03*
Y310155D02*
D03*
D15*
X252903Y451100D02*
D03*
Y301100D02*
D03*
D16*
X140100Y416100D02*
D03*
Y407100D02*
D03*
X152100Y446100D02*
D03*
Y455100D02*
D03*
X190100Y432100D02*
D03*
Y441100D02*
D03*
X180100Y432100D02*
D03*
Y441100D02*
D03*
X142100Y446100D02*
D03*
Y455100D02*
D03*
X254100Y396100D02*
D03*
Y387100D02*
D03*
Y246100D02*
D03*
Y237100D02*
D03*
X142100Y296100D02*
D03*
Y305100D02*
D03*
X180100Y282100D02*
D03*
Y291100D02*
D03*
X190100Y282100D02*
D03*
Y291100D02*
D03*
X152100Y296100D02*
D03*
Y305100D02*
D03*
X140100Y266100D02*
D03*
Y257100D02*
D03*
X430900Y336100D02*
D03*
Y327100D02*
D03*
X434900Y376100D02*
D03*
Y367100D02*
D03*
X366900Y352100D02*
D03*
Y343100D02*
D03*
X406900Y322100D02*
D03*
Y313100D02*
D03*
X366900Y372100D02*
D03*
Y363100D02*
D03*
X386900Y316100D02*
D03*
Y325100D02*
D03*
X441900Y420100D02*
D03*
Y429100D02*
D03*
X390900Y482100D02*
D03*
Y491100D02*
D03*
D17*
X145100Y427100D02*
D03*
X136100D02*
D03*
X185100Y423100D02*
D03*
X176100D02*
D03*
X161100Y491100D02*
D03*
X152100D02*
D03*
X131100Y451100D02*
D03*
X122100D02*
D03*
X181100Y491100D02*
D03*
X172100D02*
D03*
X125100Y471100D02*
D03*
X134100D02*
D03*
X229100Y416100D02*
D03*
X238100D02*
D03*
X291100Y467100D02*
D03*
X300100D02*
D03*
X291100Y317100D02*
D03*
X300100D02*
D03*
X229100Y266100D02*
D03*
X238100D02*
D03*
X125100Y321100D02*
D03*
X134100D02*
D03*
X181100Y341100D02*
D03*
X172100D02*
D03*
X131100Y301100D02*
D03*
X122100D02*
D03*
X161100Y341100D02*
D03*
X152100D02*
D03*
X185100Y273100D02*
D03*
X176100D02*
D03*
X145100Y277100D02*
D03*
X136100D02*
D03*
X441900Y331100D02*
D03*
X450900D02*
D03*
X411900Y343100D02*
D03*
X402900D02*
D03*
X425900Y381100D02*
D03*
X416900D02*
D03*
X425900Y371100D02*
D03*
X416900D02*
D03*
X411900Y333100D02*
D03*
X402900D02*
D03*
X461900Y445100D02*
D03*
X470900D02*
D03*
X170000Y128000D02*
D03*
X161000D02*
D03*
X170000Y152000D02*
D03*
X161000D02*
D03*
X170000Y140000D02*
D03*
X161000D02*
D03*
X238000D02*
D03*
X229000D02*
D03*
X238000Y152000D02*
D03*
X229000D02*
D03*
X238000Y128000D02*
D03*
X229000D02*
D03*
X374000D02*
D03*
X365000D02*
D03*
X374000Y152000D02*
D03*
X365000D02*
D03*
X374000Y140000D02*
D03*
X365000D02*
D03*
X306000D02*
D03*
X297000D02*
D03*
X306000Y152000D02*
D03*
X297000D02*
D03*
X306000Y128000D02*
D03*
X297000D02*
D03*
X441000Y140000D02*
D03*
X432000D02*
D03*
X441000Y152000D02*
D03*
X432000D02*
D03*
X441000Y128000D02*
D03*
X432000D02*
D03*
X489500Y219500D02*
D03*
X480500D02*
D03*
X489500Y243500D02*
D03*
X480500D02*
D03*
X489500Y231500D02*
D03*
X480500D02*
D03*
X362000Y219500D02*
D03*
X353000D02*
D03*
X362000Y243500D02*
D03*
X353000D02*
D03*
X362000Y231500D02*
D03*
X353000D02*
D03*
X426000D02*
D03*
X417000D02*
D03*
X426000Y243500D02*
D03*
X417000D02*
D03*
X426000Y219500D02*
D03*
X417000D02*
D03*
D18*
X241454Y479100D02*
D03*
X226100D02*
D03*
X241454Y329100D02*
D03*
X226100D02*
D03*
D19*
X152100Y425100D02*
D03*
X159580D02*
D03*
X155840Y432974D02*
D03*
X152100Y275100D02*
D03*
X159580D02*
D03*
X155840Y282974D02*
D03*
D20*
X250966Y483100D02*
D03*
X280100D02*
D03*
X250966Y333100D02*
D03*
X280100D02*
D03*
D21*
X160100Y467100D02*
D03*
X143565D02*
D03*
X160100Y317100D02*
D03*
X143565D02*
D03*
D22*
X200100Y407100D02*
D03*
X185533D02*
D03*
X200100Y257100D02*
D03*
X185533D02*
D03*
D23*
X194100Y375100D02*
D03*
Y225100D02*
D03*
D24*
X380900Y391982D02*
D03*
Y402218D02*
D03*
Y399659D02*
D03*
Y394541D02*
D03*
Y397100D02*
D03*
D25*
X367908Y400643D02*
D03*
Y393557D02*
D03*
D26*
X464577Y426328D02*
D03*
X462018D02*
D03*
X459459D02*
D03*
X456900D02*
D03*
X464577Y403100D02*
D03*
X462018D02*
D03*
X459459D02*
D03*
X456900D02*
D03*
D27*
X441955Y321037D02*
D03*
X423845D02*
D03*
Y313163D02*
D03*
X441955D02*
D03*
D28*
X415955Y469100D02*
D03*
X406900D02*
D03*
X397845D02*
D03*
D29*
X406900Y443903D02*
D03*
D30*
X378900Y432454D02*
D03*
Y417100D02*
D03*
D31*
X482900Y385100D02*
D03*
D32*
X432900Y343100D02*
D03*
Y350580D02*
D03*
X425026Y346840D02*
D03*
D33*
X374900Y441966D02*
D03*
Y471100D02*
D03*
D34*
X390900Y351100D02*
D03*
Y334565D02*
D03*
D35*
X450900Y391100D02*
D03*
Y376533D02*
D03*
D36*
X158110Y161823D02*
D03*
Y164382D02*
D03*
Y166941D02*
D03*
Y169500D02*
D03*
X140000Y161823D02*
D03*
Y164382D02*
D03*
Y166941D02*
D03*
Y169500D02*
D03*
X226110Y161823D02*
D03*
Y164382D02*
D03*
Y166941D02*
D03*
Y169500D02*
D03*
X208000Y161823D02*
D03*
Y164382D02*
D03*
Y166941D02*
D03*
Y169500D02*
D03*
X362110Y161823D02*
D03*
Y164382D02*
D03*
Y166941D02*
D03*
Y169500D02*
D03*
X344000Y161823D02*
D03*
Y164382D02*
D03*
Y166941D02*
D03*
Y169500D02*
D03*
X294110Y161823D02*
D03*
Y164382D02*
D03*
Y166941D02*
D03*
Y169500D02*
D03*
X276000Y161823D02*
D03*
Y164382D02*
D03*
Y166941D02*
D03*
Y169500D02*
D03*
X429110Y161823D02*
D03*
Y164382D02*
D03*
Y166941D02*
D03*
Y169500D02*
D03*
X411000Y161823D02*
D03*
Y164382D02*
D03*
Y166941D02*
D03*
Y169500D02*
D03*
X477610Y253323D02*
D03*
Y255882D02*
D03*
Y258441D02*
D03*
Y261000D02*
D03*
X459500Y253323D02*
D03*
Y255882D02*
D03*
Y258441D02*
D03*
Y261000D02*
D03*
X350110Y253323D02*
D03*
Y255882D02*
D03*
Y258441D02*
D03*
Y261000D02*
D03*
X332000Y253323D02*
D03*
Y255882D02*
D03*
Y258441D02*
D03*
Y261000D02*
D03*
X414110Y253323D02*
D03*
Y255882D02*
D03*
Y258441D02*
D03*
Y261000D02*
D03*
X396000Y253323D02*
D03*
Y255882D02*
D03*
Y258441D02*
D03*
Y261000D02*
D03*
D37*
X196300Y432100D02*
X205800Y422600D01*
Y412800D02*
Y422600D01*
X200100Y407100D02*
X205800Y412800D01*
X190100Y432100D02*
X196300D01*
X204300Y384000D02*
X214700D01*
X220500Y462400D02*
X226100Y468000D01*
X180100Y432100D02*
X190100D01*
X142100Y455100D02*
Y465635D01*
X226100Y468000D02*
Y479100D01*
X135400Y486400D02*
X142700Y479100D01*
X149400D01*
X160100Y468400D01*
X200100Y390400D02*
Y407100D01*
X204300Y369500D02*
Y386200D01*
X200100Y390400D02*
X204300Y386200D01*
X200100Y240400D02*
X204300Y236200D01*
Y219500D02*
Y236200D01*
X200100Y240400D02*
Y257100D01*
X149400Y329100D02*
X160100Y318400D01*
X142700Y329100D02*
X149400D01*
X135400Y336400D02*
X142700Y329100D01*
X226100Y318000D02*
Y329100D01*
X142100Y305100D02*
Y315635D01*
X180100Y282100D02*
X190100D01*
X220500Y312400D02*
X226100Y318000D01*
X204300Y234000D02*
X214700D01*
X190100Y282100D02*
X196300D01*
X200100Y257100D02*
X205800Y262800D01*
Y272600D01*
X196300Y282100D02*
X205800Y272600D01*
X425900Y387300D02*
X435400Y396800D01*
X445200D01*
X450900Y391100D01*
X425900Y381100D02*
Y387300D01*
X474000Y395300D02*
Y405700D01*
X390000Y417100D02*
X395600Y411500D01*
X425900Y371100D02*
Y381100D01*
X392365Y333100D02*
X402900D01*
X378900Y417100D02*
X390000D01*
X371600Y326400D02*
X378900Y333700D01*
Y340400D01*
X389600Y351100D01*
X450900Y391100D02*
X467600D01*
X471800Y395300D02*
X488500D01*
X467600Y391100D02*
X471800Y395300D01*
X169800Y152200D02*
Y186300D01*
X170000Y140000D02*
Y152000D01*
Y128000D02*
Y140000D01*
X238000Y128000D02*
Y140000D01*
Y152000D01*
X237800Y152200D02*
Y186300D01*
X373800Y152200D02*
Y186300D01*
X374000Y140000D02*
Y152000D01*
Y128000D02*
Y140000D01*
X306000Y128000D02*
Y140000D01*
Y152000D01*
X305800Y152200D02*
Y186300D01*
X441000Y128000D02*
Y140000D01*
Y152000D01*
X440800Y152200D02*
Y186300D01*
X489300Y243700D02*
Y277800D01*
X489500Y231500D02*
Y243500D01*
Y219500D02*
Y231500D01*
X361800Y243700D02*
Y277800D01*
X362000Y231500D02*
Y243500D01*
Y219500D02*
Y231500D01*
X426000Y219500D02*
Y231500D01*
Y243500D01*
X425800Y243700D02*
Y277800D01*
D38*
X172300Y439900D02*
X173500Y441100D01*
X166200Y439900D02*
X172300D01*
X161000Y445100D02*
X166200Y439900D01*
X156600Y432000D02*
X160900D01*
X161926Y430974D01*
X169126D01*
X172500Y415700D02*
X190200D01*
X169400Y418800D02*
X172500Y415700D01*
X169126Y430974D02*
X176100Y424000D01*
X169300Y418900D02*
Y419000D01*
X260600Y425400D02*
X280900Y405100D01*
X218300Y425400D02*
X260600D01*
X195100Y448600D02*
X218300Y425400D01*
X138800Y442800D02*
X142100Y446100D01*
X123500Y442800D02*
X138800D01*
X122163Y441463D02*
X123500Y442800D01*
X155900Y432700D02*
X156600Y432000D01*
X219800Y445000D02*
X235500D01*
X202200Y462600D02*
X219800Y445000D01*
X173300Y462600D02*
X202200D01*
X165500Y457200D02*
X199700D01*
X193100Y423100D02*
X199600Y416600D01*
X200100Y407100D02*
X209600D01*
X212100Y404600D01*
Y401600D02*
Y404600D01*
X190100Y441100D02*
Y448600D01*
X171500D02*
X190100D01*
X173500Y441100D02*
X180100D01*
X152100Y455100D02*
X163400D01*
X165500Y457200D01*
X168000Y445100D02*
X171500Y448600D01*
X161000Y445100D02*
X168800Y452900D01*
X142100Y446100D02*
X152100D01*
X176100Y423100D02*
Y424000D01*
X185100Y423100D02*
X193100D01*
X140045Y416045D02*
X140100Y416100D01*
X130037Y416045D02*
X140045D01*
X140100Y399100D02*
Y407100D01*
X122163Y434155D02*
Y441463D01*
X131100Y466900D02*
X134700Y470500D01*
X122100Y467000D02*
X124800Y469700D01*
X131100Y453100D02*
Y466900D01*
X122100Y461600D02*
Y467000D01*
X182384Y489817D02*
X195372D01*
X145100Y419800D02*
Y427100D01*
X141500Y416200D02*
X145100Y419800D01*
X147800D01*
X152600Y424600D01*
X194100Y381100D02*
Y391100D01*
X192400Y392800D02*
X194100Y391100D01*
X192400Y392800D02*
Y413500D01*
X190200Y415700D02*
X192400Y413500D01*
X280100Y425100D02*
X288100D01*
X265900Y429300D02*
X280100Y415100D01*
X288100D01*
X280900Y405100D02*
X288100D01*
X190100Y448600D02*
X195100D01*
X168800Y452900D02*
X197500D01*
X221100Y429300D01*
X265900D01*
X199700Y457200D02*
X223400Y433500D01*
X271700D01*
X280100Y425100D01*
X221300Y384900D02*
X228800Y377400D01*
X221300Y384900D02*
Y395982D01*
Y416700D01*
X161100Y490100D02*
X167000Y484200D01*
X175400D01*
X180500Y489300D01*
X175400Y334200D02*
X180500Y339300D01*
X167000Y334200D02*
X175400D01*
X161100Y340100D02*
X167000Y334200D01*
X221300Y245982D02*
Y266700D01*
Y234900D02*
Y245982D01*
Y234900D02*
X228800Y227400D01*
X271700Y283500D02*
X280100Y275100D01*
X223400Y283500D02*
X271700D01*
X199700Y307200D02*
X223400Y283500D01*
X221100Y279300D02*
X265900D01*
X197500Y302900D02*
X221100Y279300D01*
X168800Y302900D02*
X197500D01*
X190100Y298600D02*
X195100D01*
X280900Y255100D02*
X288100D01*
X280100Y265100D02*
X288100D01*
X265900Y279300D02*
X280100Y265100D01*
Y275100D02*
X288100D01*
X190200Y265700D02*
X192400Y263500D01*
Y242800D02*
Y263500D01*
Y242800D02*
X194100Y241100D01*
Y231100D02*
Y241100D01*
X147800Y269800D02*
X152600Y274600D01*
X145100Y269800D02*
X147800D01*
X141500Y266200D02*
X145100Y269800D01*
Y277100D01*
X182384Y339816D02*
X195372D01*
X122100Y311600D02*
Y317000D01*
X131100Y303100D02*
Y316900D01*
X122100Y317000D02*
X124800Y319700D01*
X131100Y316900D02*
X134700Y320500D01*
X122163Y284155D02*
Y291463D01*
X140100Y249100D02*
Y257100D01*
X130037Y266045D02*
X140045D01*
X140100Y266100D01*
X185100Y273100D02*
X193100D01*
X176100D02*
Y274000D01*
X142100Y296100D02*
X152100D01*
X161000Y295100D02*
X168800Y302900D01*
X168000Y295100D02*
X171500Y298600D01*
X163400Y305100D02*
X165500Y307200D01*
X152100Y305100D02*
X163400D01*
X173500Y291100D02*
X180100D01*
X171500Y298600D02*
X190100D01*
Y291100D02*
Y298600D01*
X212100Y251600D02*
Y254600D01*
X209600Y257100D02*
X212100Y254600D01*
X200100Y257100D02*
X209600D01*
X193100Y273100D02*
X199600Y266600D01*
X165500Y307200D02*
X199700D01*
X173300Y312600D02*
X202200D01*
X219800Y295000D01*
X235500D01*
X155900Y282700D02*
X156600Y282000D01*
X122163Y291463D02*
X123500Y292800D01*
X138800D01*
X142100Y296100D01*
X195100Y298600D02*
X218300Y275400D01*
X260600D01*
X280900Y255100D01*
X169300Y268900D02*
Y269000D01*
X169126Y280974D02*
X176100Y274000D01*
X169400Y268800D02*
X172500Y265700D01*
X190200D01*
X161926Y280974D02*
X169126D01*
X160900Y282000D02*
X161926Y280974D01*
X156600Y282000D02*
X160900D01*
X161000Y295100D02*
X166200Y289900D01*
X172300D01*
X173500Y291100D01*
X416900Y364500D02*
X418100Y363300D01*
Y357200D02*
Y363300D01*
X412900Y352000D02*
X418100Y357200D01*
X426000Y347600D02*
Y351900D01*
X427026Y352926D01*
Y360126D01*
X442300Y363500D02*
Y381200D01*
X439200Y360400D02*
X442300Y363500D01*
X427026Y360126D02*
X434000Y367100D01*
X439000Y360300D02*
X439100D01*
X432600Y451600D02*
X452900Y471900D01*
X432600Y409300D02*
Y451600D01*
X409400Y386100D02*
X432600Y409300D01*
X411900Y333100D02*
X415200Y329800D01*
Y314500D02*
Y329800D01*
Y314500D02*
X416537Y313163D01*
X425300Y346900D02*
X426000Y347600D01*
X413000Y410800D02*
Y426500D01*
X395400Y393200D02*
X413000Y410800D01*
X395400Y364300D02*
Y393200D01*
X400800Y356500D02*
Y390700D01*
X434900Y384100D02*
X441400Y390600D01*
X450900Y391100D02*
Y400600D01*
X453400Y403100D01*
X456400D01*
X409400Y381100D02*
X416900D01*
X409400Y362500D02*
Y381100D01*
X416900Y364500D02*
Y371100D01*
X402900Y343100D02*
Y354400D01*
X400800Y356500D02*
X402900Y354400D01*
X409400Y362500D02*
X412900Y359000D01*
X405100Y359800D02*
X412900Y352000D01*
X411900Y333100D02*
Y343100D01*
X434000Y367100D02*
X434900D01*
Y376100D02*
Y384100D01*
X441900Y331100D02*
X441955Y331045D01*
Y321037D02*
Y331045D01*
X450900Y331100D02*
X458900D01*
X416537Y313163D02*
X423845D01*
X387500Y325700D02*
X391100Y322100D01*
X388300Y315800D02*
X391000Y313100D01*
X391100Y322100D02*
X404900D01*
X391000Y313100D02*
X396400D01*
X368183Y373383D02*
Y386372D01*
X430900Y336100D02*
X438200D01*
X441800Y332500D01*
X438200Y336100D02*
Y338800D01*
X433400Y343600D02*
X438200Y338800D01*
X466900Y385100D02*
X476900D01*
X465200Y383400D02*
X466900Y385100D01*
X444500Y383400D02*
X465200D01*
X442300Y381200D02*
X444500Y383400D01*
X432900Y471100D02*
Y479100D01*
X428700Y456900D02*
X442900Y471100D01*
Y479100D01*
X452900Y471900D02*
Y479100D01*
X409400Y381100D02*
Y386100D01*
X405100Y359800D02*
Y388500D01*
X428700Y412100D01*
Y456900D01*
X400800Y390700D02*
X424500Y414400D01*
Y462700D01*
X432900Y471100D01*
X473100Y412300D02*
X480600Y419800D01*
X462018Y412300D02*
X473100D01*
X441300D02*
X462018D01*
X367900Y352100D02*
X373800Y358000D01*
Y366400D01*
X368700Y371500D02*
X373800Y366400D01*
X152500Y146500D02*
X156500D01*
X161000Y151000D01*
X142000Y134000D02*
Y150300D01*
X161000Y140000D02*
Y141000D01*
X169800Y186300D02*
X170000Y186500D01*
X169800Y152200D02*
X170000Y152000D01*
X148000Y128000D02*
X160000D01*
X142000Y134000D02*
X148000Y128000D01*
X140000Y170000D02*
Y186500D01*
X154000Y140000D02*
X161000D01*
X152500Y138500D02*
X154000Y140000D01*
X152500Y134000D02*
Y138500D01*
X220500Y134000D02*
Y138500D01*
X222000Y140000D01*
X229000D01*
X208000Y170000D02*
Y186500D01*
X210000Y134000D02*
X216000Y128000D01*
X228000D01*
X237800Y152200D02*
X238000Y152000D01*
X237800Y186300D02*
X238000Y186500D01*
X229000Y140000D02*
Y141000D01*
X210000Y134000D02*
Y150300D01*
X224500Y146500D02*
X229000Y151000D01*
X220500Y146500D02*
X224500D01*
X356500D02*
X360500D01*
X365000Y151000D01*
X346000Y134000D02*
Y150300D01*
X365000Y140000D02*
Y141000D01*
X373800Y186300D02*
X374000Y186500D01*
X373800Y152200D02*
X374000Y152000D01*
X352000Y128000D02*
X364000D01*
X346000Y134000D02*
X352000Y128000D01*
X344000Y170000D02*
Y186500D01*
X358000Y140000D02*
X365000D01*
X356500Y138500D02*
X358000Y140000D01*
X356500Y134000D02*
Y138500D01*
X288500Y134000D02*
Y138500D01*
X290000Y140000D01*
X297000D01*
X276000Y170000D02*
Y186500D01*
X278000Y134000D02*
X284000Y128000D01*
X296000D01*
X305800Y152200D02*
X306000Y152000D01*
X305800Y186300D02*
X306000Y186500D01*
X297000Y140000D02*
Y141000D01*
X278000Y134000D02*
Y150300D01*
X292500Y146500D02*
X297000Y151000D01*
X288500Y146500D02*
X292500D01*
X423500Y134000D02*
Y138500D01*
X425000Y140000D01*
X432000D01*
X411000Y170000D02*
Y186500D01*
X413000Y134000D02*
X419000Y128000D01*
X431000D01*
X440800Y152200D02*
X441000Y152000D01*
X440800Y186300D02*
X441000Y186500D01*
X432000Y140000D02*
Y141000D01*
X413000Y134000D02*
Y150300D01*
X427500Y146500D02*
X432000Y151000D01*
X423500Y146500D02*
X427500D01*
X472000Y238000D02*
X476000D01*
X480500Y242500D01*
X461500Y225500D02*
Y241800D01*
X480500Y231500D02*
Y232500D01*
X489300Y277800D02*
X489500Y278000D01*
X489300Y243700D02*
X489500Y243500D01*
X467500Y219500D02*
X479500D01*
X461500Y225500D02*
X467500Y219500D01*
X459500Y261500D02*
Y278000D01*
X473500Y231500D02*
X480500D01*
X472000Y230000D02*
X473500Y231500D01*
X472000Y225500D02*
Y230000D01*
X344500Y238000D02*
X348500D01*
X353000Y242500D01*
X334000Y225500D02*
Y241800D01*
X353000Y231500D02*
Y232500D01*
X361800Y277800D02*
X362000Y278000D01*
X361800Y243700D02*
X362000Y243500D01*
X340000Y219500D02*
X352000D01*
X334000Y225500D02*
X340000Y219500D01*
X332000Y261500D02*
Y278000D01*
X346000Y231500D02*
X353000D01*
X344500Y230000D02*
X346000Y231500D01*
X344500Y225500D02*
Y230000D01*
X408500Y225500D02*
Y230000D01*
X410000Y231500D01*
X417000D01*
X396000Y261500D02*
Y278000D01*
X398000Y225500D02*
X404000Y219500D01*
X416000D01*
X425800Y243700D02*
X426000Y243500D01*
X425800Y277800D02*
X426000Y278000D01*
X417000Y231500D02*
Y232500D01*
X398000Y225500D02*
Y241800D01*
X412500Y238000D02*
X417000Y242500D01*
X408500Y238000D02*
X412500D01*
D39*
X163100Y435600D02*
X171700D01*
X159100Y439600D02*
X163100Y435600D01*
X152200Y439600D02*
X159100D01*
X152100Y446100D02*
X152200Y446000D01*
Y439600D02*
Y446000D01*
X175200Y432100D02*
X180100D01*
X171700Y435600D02*
X175200Y432100D01*
X171700Y285600D02*
X175200Y282100D01*
X180100D01*
X152200Y289600D02*
Y296000D01*
X152100Y296100D02*
X152200Y296000D01*
Y289600D02*
X159100D01*
X163100Y285600D01*
X171700D01*
X422400Y354100D02*
Y362700D01*
X418400Y350100D02*
X422400Y354100D01*
X418400Y343200D02*
Y350100D01*
X411900Y343100D02*
X412000Y343200D01*
X418400D01*
X425900Y366200D02*
Y371100D01*
X422400Y362700D02*
X425900Y366200D01*
D40*
X205359Y398541D02*
X212100D01*
X240600Y401100D02*
X256700Y417200D01*
X235328Y401100D02*
X240600D01*
X256700Y417200D02*
Y420700D01*
X242741Y398541D02*
X265100Y420900D01*
X235328Y398541D02*
X242741D01*
X221300Y416700D02*
X228500D01*
X131600Y450600D02*
X147600D01*
X152100Y455100D01*
X160100Y467100D02*
Y468400D01*
X253600Y381100D02*
Y386600D01*
X229682Y395982D02*
X235328D01*
X212100D02*
X221300D01*
X227500Y390600D02*
Y393800D01*
X229682Y395982D01*
X230600Y386400D02*
X231100Y386900D01*
X231500Y387300D01*
X231100Y386900D02*
X231650Y386350D01*
X227500Y390600D02*
X231700Y386400D01*
X227500Y240600D02*
X231700Y236400D01*
X231100Y236900D02*
X231650Y236350D01*
X231100Y236900D02*
X231500Y237300D01*
X230600Y236400D02*
X231100Y236900D01*
X227500Y243800D02*
X229682Y245982D01*
X227500Y240600D02*
Y243800D01*
X212100Y245982D02*
X221300D01*
X229682D02*
X235328D01*
X253600Y231100D02*
Y236600D01*
X160100Y317100D02*
Y318400D01*
X147600Y300600D02*
X152100Y305100D01*
X131600Y300600D02*
X147600D01*
X221300Y266700D02*
X228500D01*
X235328Y248541D02*
X242741D01*
X265100Y270900D01*
X256700Y267200D02*
Y270700D01*
X235328Y251100D02*
X240600D01*
X256700Y267200D01*
X205359Y248541D02*
X212100D01*
X459459Y396359D02*
Y403100D01*
X440800Y447700D02*
X456900Y431600D01*
Y426328D02*
Y431600D01*
X437300Y447700D02*
X440800D01*
X437100Y456100D02*
X459459Y433741D01*
Y426328D02*
Y433741D01*
X441300Y412300D02*
Y419500D01*
X407400Y322600D02*
Y338600D01*
X402900Y343100D02*
X407400Y338600D01*
X389600Y351100D02*
X390900D01*
X471400Y444600D02*
X476900D01*
X462018Y420682D02*
Y426328D01*
Y403100D02*
Y412300D01*
X464200Y418500D02*
X467400D01*
X462018Y420682D02*
X464200Y418500D01*
X471100Y422100D02*
X471600Y421600D01*
X470700Y422500D02*
X471100Y422100D01*
X471650Y422650D01*
X467400Y418500D02*
X471600Y422700D01*
X154000Y160000D02*
X155500Y161500D01*
X154000Y154500D02*
Y160000D01*
X148500Y161000D02*
X151882Y164382D01*
X148500Y150500D02*
Y161000D01*
Y150500D02*
X152500Y146500D01*
X158110Y166941D02*
X163559D01*
X165500Y165000D01*
Y145500D02*
Y165000D01*
X161000Y141000D02*
X165500Y145500D01*
X151882Y164382D02*
X158110D01*
Y169500D02*
X168800D01*
X125400Y161800D02*
X139977D01*
X133618Y164382D02*
X140000D01*
X130000Y168000D02*
X133618Y164382D01*
X130000Y168000D02*
Y186500D01*
X140000Y166941D02*
X147441D01*
X150000Y169500D01*
Y186500D01*
X218000Y169500D02*
Y186500D01*
X215441Y166941D02*
X218000Y169500D01*
X208000Y166941D02*
X215441D01*
X198000Y168000D02*
Y186500D01*
Y168000D02*
X201618Y164382D01*
X208000D01*
X193400Y161800D02*
X207977D01*
X226110Y169500D02*
X236800D01*
X219882Y164382D02*
X226110D01*
X229000Y141000D02*
X233500Y145500D01*
Y165000D01*
X231559Y166941D02*
X233500Y165000D01*
X226110Y166941D02*
X231559D01*
X216500Y150500D02*
X220500Y146500D01*
X216500Y150500D02*
Y161000D01*
X219882Y164382D01*
X222000Y154500D02*
Y160000D01*
X223500Y161500D01*
X358000Y160000D02*
X359500Y161500D01*
X358000Y154500D02*
Y160000D01*
X352500Y161000D02*
X355882Y164382D01*
X352500Y150500D02*
Y161000D01*
Y150500D02*
X356500Y146500D01*
X362110Y166941D02*
X367559D01*
X369500Y165000D01*
Y145500D02*
Y165000D01*
X365000Y141000D02*
X369500Y145500D01*
X355882Y164382D02*
X362110D01*
Y169500D02*
X372800D01*
X329400Y161800D02*
X343977D01*
X337618Y164382D02*
X344000D01*
X334000Y168000D02*
X337618Y164382D01*
X334000Y168000D02*
Y186500D01*
X344000Y166941D02*
X351441D01*
X354000Y169500D01*
Y186500D01*
X286000Y169500D02*
Y186500D01*
X283441Y166941D02*
X286000Y169500D01*
X276000Y166941D02*
X283441D01*
X266000Y168000D02*
Y186500D01*
Y168000D02*
X269618Y164382D01*
X276000D01*
X261400Y161800D02*
X275977D01*
X294110Y169500D02*
X304800D01*
X287882Y164382D02*
X294110D01*
X297000Y141000D02*
X301500Y145500D01*
Y165000D01*
X299559Y166941D02*
X301500Y165000D01*
X294110Y166941D02*
X299559D01*
X284500Y150500D02*
X288500Y146500D01*
X284500Y150500D02*
Y161000D01*
X287882Y164382D01*
X290000Y154500D02*
Y160000D01*
X291500Y161500D01*
X421000Y169500D02*
Y186500D01*
X418441Y166941D02*
X421000Y169500D01*
X411000Y166941D02*
X418441D01*
X401000Y168000D02*
Y186500D01*
Y168000D02*
X404618Y164382D01*
X411000D01*
X396400Y161800D02*
X410977D01*
X429110Y169500D02*
X439800D01*
X422882Y164382D02*
X429110D01*
X432000Y141000D02*
X436500Y145500D01*
Y165000D01*
X434559Y166941D02*
X436500Y165000D01*
X429110Y166941D02*
X434559D01*
X419500Y150500D02*
X423500Y146500D01*
X419500Y150500D02*
Y161000D01*
X422882Y164382D01*
X425000Y154500D02*
Y160000D01*
X426500Y161500D01*
X473500Y251500D02*
X475000Y253000D01*
X473500Y246000D02*
Y251500D01*
X468000Y252500D02*
X471382Y255882D01*
X468000Y242000D02*
Y252500D01*
Y242000D02*
X472000Y238000D01*
X477610Y258441D02*
X483059D01*
X485000Y256500D01*
Y237000D02*
Y256500D01*
X480500Y232500D02*
X485000Y237000D01*
X471382Y255882D02*
X477610D01*
Y261000D02*
X488300D01*
X444900Y253300D02*
X459477D01*
X453118Y255882D02*
X459500D01*
X449500Y259500D02*
X453118Y255882D01*
X449500Y259500D02*
Y278000D01*
X459500Y258441D02*
X466941D01*
X469500Y261000D01*
Y278000D01*
X346000Y251500D02*
X347500Y253000D01*
X346000Y246000D02*
Y251500D01*
X340500Y252500D02*
X343882Y255882D01*
X340500Y242000D02*
Y252500D01*
Y242000D02*
X344500Y238000D01*
X350110Y258441D02*
X355559D01*
X357500Y256500D01*
Y237000D02*
Y256500D01*
X353000Y232500D02*
X357500Y237000D01*
X343882Y255882D02*
X350110D01*
Y261000D02*
X360800D01*
X317400Y253300D02*
X331977D01*
X325618Y255882D02*
X332000D01*
X322000Y259500D02*
X325618Y255882D01*
X322000Y259500D02*
Y278000D01*
X332000Y258441D02*
X339441D01*
X342000Y261000D01*
Y278000D01*
X406000Y261000D02*
Y278000D01*
X403441Y258441D02*
X406000Y261000D01*
X396000Y258441D02*
X403441D01*
X386000Y259500D02*
Y278000D01*
Y259500D02*
X389618Y255882D01*
X396000D01*
X381400Y253300D02*
X395977D01*
X414110Y261000D02*
X424800D01*
X407882Y255882D02*
X414110D01*
X417000Y232500D02*
X421500Y237000D01*
Y256500D01*
X419559Y258441D02*
X421500Y256500D01*
X414110Y258441D02*
X419559D01*
X404500Y242000D02*
X408500Y238000D01*
X404500Y242000D02*
Y252500D01*
X407882Y255882D01*
X410000Y246000D02*
Y251500D01*
X411500Y253000D01*
D41*
X226100Y479100D02*
Y487100D01*
X280100Y462155D02*
Y483100D01*
X280200Y467100D02*
X291100D01*
X280000Y483000D02*
X280100Y483100D01*
X278100Y481100D02*
X280000Y483000D01*
X268100D02*
X280000D01*
X268651Y451100D02*
X278100D01*
X226100Y487100D02*
X230100Y491100D01*
X244154Y479800D02*
X248300D01*
X244154Y329800D02*
X248300D01*
X226100Y337100D02*
X230100Y341100D01*
X268651Y301100D02*
X278100D01*
X268100Y333000D02*
X280000D01*
X278100Y331100D02*
X280000Y333000D01*
X280100Y333100D01*
X280200Y317100D02*
X291100D01*
X280100Y312155D02*
Y333100D01*
X226100Y329100D02*
Y337100D01*
X370900Y417100D02*
X378900D01*
X374900Y471100D02*
X395845D01*
X390900Y471200D02*
Y482100D01*
X374900Y471100D02*
X375000Y471000D01*
X376900Y469100D01*
X375000Y459100D02*
Y471000D01*
X406900Y459651D02*
Y469100D01*
X366900Y421100D02*
X370900Y417100D01*
X378200Y435154D02*
Y439300D01*
D42*
X152100Y491100D02*
Y493700D01*
X280100Y483100D02*
X280310Y482891D01*
X142100Y465635D02*
X143565Y467100D01*
X161100Y491100D02*
Y492100D01*
Y490100D02*
Y491100D01*
Y340100D02*
Y341100D01*
Y342100D01*
X142100Y315635D02*
X143565Y317100D01*
X280100Y333100D02*
X280310Y332891D01*
X152100Y341100D02*
Y343700D01*
X364300Y343100D02*
X366900D01*
X374900Y471100D02*
X375110Y471310D01*
X390900Y334565D02*
X392365Y333100D01*
X365900Y352100D02*
X366900D01*
X367900D01*
X161000Y151000D02*
Y152000D01*
X169000Y128000D02*
Y128500D01*
X139977Y161800D02*
X140000Y161823D01*
X207977Y161800D02*
X208000Y161823D01*
X237000Y128000D02*
Y128500D01*
X229000Y151000D02*
Y152000D01*
X365000Y151000D02*
Y152000D01*
X373000Y128000D02*
Y128500D01*
X343977Y161800D02*
X344000Y161823D01*
X275977Y161800D02*
X276000Y161823D01*
X305000Y128000D02*
Y128500D01*
X297000Y151000D02*
Y152000D01*
X410977Y161800D02*
X411000Y161823D01*
X440000Y128000D02*
Y128500D01*
X432000Y151000D02*
Y152000D01*
X480500Y242500D02*
Y243500D01*
X488500Y219500D02*
Y220000D01*
X459477Y253300D02*
X459500Y253323D01*
X353000Y242500D02*
Y243500D01*
X361000Y219500D02*
Y220000D01*
X331977Y253300D02*
X332000Y253323D01*
X395977Y253300D02*
X396000Y253323D01*
X425000Y219500D02*
Y220000D01*
X417000Y242500D02*
Y243500D01*
X110000Y110000D02*
Y504000D01*
Y110000D02*
X504000D01*
Y504000D01*
X110000D02*
X504000D01*
X308100Y362100D02*
Y498100D01*
X114100D02*
X308100D01*
X114100Y362100D02*
X308100D01*
X114100D02*
Y498100D01*
Y212100D02*
Y348100D01*
Y212100D02*
X308100D01*
X114100Y348100D02*
X308100D01*
Y212100D02*
Y348100D01*
X359900Y499100D02*
X495900D01*
X359900Y305100D02*
Y499100D01*
X495900Y305100D02*
Y499100D01*
X359900Y305100D02*
X495900D01*
X120000Y196500D02*
X180000D01*
X120000Y118500D02*
Y196500D01*
Y118500D02*
X180000D01*
Y196500D01*
X248000Y118500D02*
Y196500D01*
X188000Y118500D02*
X248000D01*
X188000D02*
Y196500D01*
X248000D01*
X324000D02*
X384000D01*
X324000Y118500D02*
Y196500D01*
Y118500D02*
X384000D01*
Y196500D01*
X316000Y118500D02*
Y196500D01*
X256000Y118500D02*
X316000D01*
X256000D02*
Y196500D01*
X316000D01*
X451000Y118500D02*
Y196500D01*
X391000Y118500D02*
X451000D01*
X391000D02*
Y196500D01*
X451000D01*
X439500Y288000D02*
X499500D01*
X439500Y210000D02*
Y288000D01*
Y210000D02*
X499500D01*
Y288000D01*
X312000D02*
X372000D01*
X312000Y210000D02*
Y288000D01*
Y210000D02*
X372000D01*
Y288000D01*
X436000Y210000D02*
Y288000D01*
X376000Y210000D02*
X436000D01*
X376000D02*
Y288000D01*
X436000D01*
D43*
X211218Y471682D02*
X220500Y462400D01*
X211218Y471682D02*
Y477100D01*
Y321682D02*
Y327100D01*
Y321682D02*
X220500Y312400D01*
X386318Y402218D02*
X395600Y411500D01*
X380900Y402218D02*
X386318D01*
D44*
X201000Y482100D02*
D03*
Y473300D02*
D03*
Y323300D02*
D03*
Y332100D02*
D03*
D45*
X206600Y496800D02*
D03*
Y346800D02*
D03*
D46*
X263807Y451100D02*
D03*
Y301100D02*
D03*
D47*
X375900Y392000D02*
D03*
X384700D02*
D03*
D48*
X361200Y397600D02*
D03*
D49*
X406900Y454807D02*
D03*
D50*
X296400Y487100D02*
D03*
X125100Y373100D02*
D03*
Y223100D02*
D03*
X296400Y337100D02*
D03*
X370900Y487400D02*
D03*
X484900Y316100D02*
D03*
D51*
X195372Y489817D02*
D03*
X216828D02*
D03*
X195372Y339816D02*
D03*
X216828D02*
D03*
D52*
X215647Y477887D02*
D03*
X196553D02*
D03*
X215647Y327887D02*
D03*
X196553D02*
D03*
D53*
X300100Y440400D02*
D03*
X262100Y369100D02*
D03*
X296032Y369068D02*
D03*
X230100Y491100D02*
D03*
X300100Y455100D02*
D03*
X124100Y491100D02*
D03*
X236100Y369100D02*
D03*
X246100D02*
D03*
X174100Y387100D02*
D03*
X164100D02*
D03*
X154100D02*
D03*
X144100D02*
D03*
X288100Y425100D02*
D03*
Y385100D02*
D03*
Y395100D02*
D03*
Y405100D02*
D03*
Y415100D02*
D03*
Y275100D02*
D03*
Y235100D02*
D03*
Y245100D02*
D03*
Y255100D02*
D03*
Y265100D02*
D03*
X174100Y237100D02*
D03*
X164100D02*
D03*
X154100D02*
D03*
X144100D02*
D03*
X236100Y219100D02*
D03*
X246100D02*
D03*
X124100Y341100D02*
D03*
X300100Y305100D02*
D03*
X230100Y341100D02*
D03*
X296032Y219068D02*
D03*
X262100Y219100D02*
D03*
X300100Y290400D02*
D03*
X417600Y491100D02*
D03*
X488900Y453100D02*
D03*
X488932Y487032D02*
D03*
X366900Y421100D02*
D03*
X402900Y491100D02*
D03*
X366900Y315100D02*
D03*
X488900Y427100D02*
D03*
Y437100D02*
D03*
X470900Y365100D02*
D03*
Y355100D02*
D03*
Y345100D02*
D03*
Y335100D02*
D03*
X432900Y479100D02*
D03*
X472900D02*
D03*
X462900D02*
D03*
X452900D02*
D03*
X442900D02*
D03*
X140000Y186500D02*
D03*
X150000D02*
D03*
X160000D02*
D03*
X170000D02*
D03*
X130000D02*
D03*
X208000D02*
D03*
X218000D02*
D03*
X228000D02*
D03*
X238000D02*
D03*
X198000D02*
D03*
X344000D02*
D03*
X354000D02*
D03*
X364000D02*
D03*
X374000D02*
D03*
X334000D02*
D03*
X276000D02*
D03*
X286000D02*
D03*
X296000D02*
D03*
X306000D02*
D03*
X266000D02*
D03*
X411000D02*
D03*
X421000D02*
D03*
X431000D02*
D03*
X441000D02*
D03*
X401000D02*
D03*
X459500Y278000D02*
D03*
X469500D02*
D03*
X479500D02*
D03*
X489500D02*
D03*
X449500D02*
D03*
X332000D02*
D03*
X342000D02*
D03*
X352000D02*
D03*
X362000D02*
D03*
X322000D02*
D03*
X396000D02*
D03*
X406000D02*
D03*
X416000D02*
D03*
X426000D02*
D03*
X386000D02*
D03*
D54*
X368183Y386372D02*
D03*
Y407828D02*
D03*
D55*
X380113Y406647D02*
D03*
Y387553D02*
D03*
D56*
X173400Y399500D02*
D03*
X265800Y402600D02*
D03*
X223700Y454000D02*
D03*
X199600Y416600D02*
D03*
X268100Y483000D02*
D03*
X152200Y439600D02*
D03*
X220500Y462400D02*
D03*
X135400Y486400D02*
D03*
Y336400D02*
D03*
X220500Y312400D02*
D03*
X152200Y289600D02*
D03*
X268100Y333000D02*
D03*
X199600Y266600D02*
D03*
X223700Y304000D02*
D03*
X265800Y252600D02*
D03*
X173400Y249500D02*
D03*
X458500Y364400D02*
D03*
X455400Y456800D02*
D03*
X404000Y414700D02*
D03*
X441400Y390600D02*
D03*
X375000Y459100D02*
D03*
X418400Y343200D02*
D03*
X395600Y411500D02*
D03*
X371600Y326400D02*
D03*
X125400Y161800D02*
D03*
X193400D02*
D03*
X329400D02*
D03*
X261400D02*
D03*
X396400D02*
D03*
X444900Y253300D02*
D03*
X317400D02*
D03*
X381400D02*
D03*
D57*
X169300Y419000D02*
D03*
X205300Y398600D02*
D03*
X214700Y384000D02*
D03*
X231700Y386400D02*
D03*
X221300Y416700D02*
D03*
X161000Y445100D02*
D03*
X235500Y445000D02*
D03*
X173300Y462600D02*
D03*
X140100Y399100D02*
D03*
X168000Y445100D02*
D03*
X122100Y461600D02*
D03*
X253600Y381100D02*
D03*
X256700Y420700D02*
D03*
X228800Y377400D02*
D03*
Y227400D02*
D03*
X256700Y270700D02*
D03*
X253600Y231100D02*
D03*
X122100Y311600D02*
D03*
X168000Y295100D02*
D03*
X140100Y249100D02*
D03*
X173300Y312600D02*
D03*
X235500Y295000D02*
D03*
X161000Y295100D02*
D03*
X221300Y266700D02*
D03*
X231700Y236400D02*
D03*
X214700Y234000D02*
D03*
X205300Y248600D02*
D03*
X169300Y269000D02*
D03*
X439000Y360300D02*
D03*
X459400Y396300D02*
D03*
X474000Y405700D02*
D03*
X471600Y422700D02*
D03*
X441300Y412300D02*
D03*
X412900Y352000D02*
D03*
X413000Y426500D02*
D03*
X395400Y364300D02*
D03*
X458900Y331100D02*
D03*
X412900Y359000D02*
D03*
X396400Y313100D02*
D03*
X476900Y444600D02*
D03*
X437300Y447700D02*
D03*
X480600Y419800D02*
D03*
X154000Y154500D02*
D03*
X142000Y150300D02*
D03*
X152500Y146500D02*
D03*
Y134000D02*
D03*
X220500D02*
D03*
Y146500D02*
D03*
X210000Y150300D02*
D03*
X222000Y154500D02*
D03*
X358000D02*
D03*
X346000Y150300D02*
D03*
X356500Y146500D02*
D03*
Y134000D02*
D03*
X288500D02*
D03*
Y146500D02*
D03*
X278000Y150300D02*
D03*
X290000Y154500D02*
D03*
X423500Y134000D02*
D03*
Y146500D02*
D03*
X413000Y150300D02*
D03*
X425000Y154500D02*
D03*
X473500Y246000D02*
D03*
X461500Y241800D02*
D03*
X472000Y238000D02*
D03*
Y225500D02*
D03*
X346000Y246000D02*
D03*
X334000Y241800D02*
D03*
X344500Y238000D02*
D03*
Y225500D02*
D03*
X408500D02*
D03*
Y238000D02*
D03*
X398000Y241800D02*
D03*
X410000Y246000D02*
D03*
D58*
X194100Y381100D02*
D03*
X184100Y369500D02*
D03*
X204300D02*
D03*
Y219500D02*
D03*
X184100D02*
D03*
X194100Y231100D02*
D03*
X476900Y385100D02*
D03*
X488500Y375100D02*
D03*
Y395300D02*
D03*
D59*
X268651Y457399D02*
D03*
X262352D02*
D03*
X268651Y444801D02*
D03*
X262352Y451100D02*
D03*
X265895Y439289D02*
D03*
X262352Y444801D02*
D03*
X268651Y451100D02*
D03*
X265895Y462911D02*
D03*
X268651Y307399D02*
D03*
X262352D02*
D03*
X268651Y294801D02*
D03*
X262352Y301100D02*
D03*
X265895Y289289D02*
D03*
X262352Y294801D02*
D03*
X268651Y301100D02*
D03*
X265895Y312911D02*
D03*
X400601Y459651D02*
D03*
Y453352D02*
D03*
X413199Y459651D02*
D03*
X406900Y453352D02*
D03*
X418711Y456895D02*
D03*
X413199Y453352D02*
D03*
X406900Y459651D02*
D03*
X395089Y456895D02*
D03*
M02*
