%FSLAX25Y25*%
%MOIN*%
G70*
G01*
G75*
G04 Layer_Physical_Order=1*
G04 Layer_Color=255*
%ADD10R,0.01772X0.06299*%
%ADD11R,0.06299X0.13386*%
%ADD12R,0.01654X0.05512*%
%ADD13R,0.05512X0.07087*%
%ADD14R,0.05000X0.03500*%
%ADD15R,0.09000X0.15000*%
%ADD16R,0.08465X0.05000*%
%ADD17R,0.15000X0.28000*%
%ADD18R,0.07874X0.15748*%
%ADD19R,0.05906X0.15748*%
%ADD20R,0.06600X0.01700*%
%ADD21R,0.07087X0.05512*%
%ADD22R,0.11024X0.07874*%
%ADD23R,0.03300X0.03150*%
%ADD24R,0.04724X0.04724*%
%ADD25R,0.03937X0.05906*%
%ADD26R,0.05906X0.03937*%
%ADD27R,0.15748X0.07874*%
%ADD28R,0.03500X0.05000*%
%ADD29R,0.15748X0.05906*%
%ADD30R,0.07874X0.11024*%
%ADD31R,0.04724X0.04724*%
%ADD32R,0.05512X0.01654*%
%ADD33R,0.06299X0.01772*%
%ADD34R,0.13386X0.06299*%
%ADD35R,0.15000X0.09000*%
%ADD36R,0.05000X0.08465*%
%ADD37R,0.28000X0.15000*%
%ADD38C,0.04000*%
%ADD39C,0.01800*%
%ADD40C,0.02000*%
%ADD41C,0.01500*%
%ADD42C,0.02500*%
%ADD43C,0.03000*%
%ADD44C,0.01000*%
%ADD45C,0.05000*%
%ADD46R,0.27700X0.02100*%
%ADD47R,0.01900X0.03800*%
%ADD48R,0.35700X0.03400*%
%ADD49R,0.02100X0.27700*%
%ADD50R,0.03800X0.01900*%
%ADD51R,0.03400X0.35700*%
%ADD52R,0.08200X0.15600*%
%ADD53R,0.05512X0.07874*%
%ADD54R,0.05118X0.07874*%
%ADD55C,0.07874*%
%ADD56C,0.07087*%
%ADD57R,0.07874X0.05512*%
%ADD58R,0.07874X0.05118*%
%ADD59C,0.15800*%
%ADD60C,0.03937*%
%ADD61C,0.04000*%
%ADD62C,0.05000*%
%ADD63C,0.06000*%
G36*
X194000Y236300D02*
X0D01*
Y393800D01*
X84307D01*
Y393385D01*
X84307D01*
Y390353D01*
X77516D01*
Y387711D01*
X77017D01*
X76139Y387536D01*
X75394Y387039D01*
X72150Y383794D01*
X71569D01*
Y385453D01*
X65632D01*
Y377547D01*
X65632Y377547D01*
X65632D01*
X65682Y377426D01*
X65350Y377094D01*
X62568D01*
Y377547D01*
X62568D01*
Y380750D01*
X56631D01*
Y377547D01*
X56631D01*
Y377448D01*
X56278Y377094D01*
X51569D01*
Y377547D01*
X51569D01*
Y385453D01*
X45632D01*
Y377547D01*
X46306D01*
Y376600D01*
X46481Y375722D01*
X46978Y374978D01*
X46978Y374978D01*
X46978Y374978D01*
X48778Y373178D01*
X48778D01*
X48778Y373178D01*
X48778Y373178D01*
Y373178D01*
X49522Y372680D01*
X50400Y372506D01*
X66300D01*
X67178Y372680D01*
X67922Y373178D01*
X67922Y373178D01*
X67922Y373178D01*
X70222Y375478D01*
X70222Y375478D01*
X70222Y375478D01*
X70719Y376222D01*
X70894Y377100D01*
Y377547D01*
X71569D01*
Y379206D01*
X73100D01*
X73978Y379380D01*
X74722Y379878D01*
X74722Y379878D01*
X74722Y379878D01*
X77054Y382209D01*
X77516Y382018D01*
Y380480D01*
X84307D01*
Y378424D01*
X78894D01*
Y368550D01*
X86012D01*
Y368550D01*
X86132D01*
Y372701D01*
X87555D01*
Y368550D01*
X95079D01*
Y361882D01*
X95079Y361882D01*
X95079D01*
X95234Y361102D01*
X95676Y360440D01*
X99558Y356558D01*
X100220Y356116D01*
X101000Y355961D01*
X103553D01*
X103904Y355504D01*
X104635Y354943D01*
X105486Y354590D01*
X106400Y354470D01*
X107314Y354590D01*
X108165Y354943D01*
X108896Y355504D01*
X109051Y355706D01*
X115988D01*
Y354863D01*
X129012D01*
Y364737D01*
X115988D01*
Y360294D01*
X112592D01*
X112400Y360756D01*
X113622Y361978D01*
X114120Y362722D01*
X114294Y363600D01*
X114294Y363600D01*
X114294Y363600D01*
Y363600D01*
Y384350D01*
X115450Y385506D01*
X116106D01*
X116188Y385310D01*
X116979Y384279D01*
X118010Y383488D01*
X119211Y382990D01*
X120500Y382820D01*
X121789Y382990D01*
X122990Y383488D01*
X124021Y384279D01*
X124812Y385310D01*
X125310Y386511D01*
X125480Y387800D01*
X125310Y389089D01*
X124812Y390290D01*
X124021Y391321D01*
X122990Y392112D01*
X121789Y392610D01*
X120500Y392780D01*
X119211Y392610D01*
X118010Y392112D01*
X116979Y391321D01*
X116188Y390290D01*
X116106Y390094D01*
X114500D01*
X113622Y389919D01*
X112878Y389422D01*
X110378Y386922D01*
X109880Y386178D01*
X109706Y385300D01*
Y364550D01*
X106653Y361497D01*
X106400Y361530D01*
X105486Y361410D01*
X104635Y361057D01*
X103904Y360496D01*
X103553Y360039D01*
X101845D01*
X99157Y362726D01*
Y368550D01*
X105106D01*
Y378424D01*
X99693D01*
Y380480D01*
X106484D01*
Y390353D01*
X99693D01*
Y393385D01*
X99693D01*
Y393446D01*
X100047Y393800D01*
X194000D01*
Y236300D01*
D02*
G37*
G36*
X393700Y199700D02*
X236200D01*
Y284007D01*
X236615D01*
Y284007D01*
X239647D01*
Y277216D01*
X242289D01*
Y276716D01*
X242464Y275839D01*
X242961Y275094D01*
X246206Y271850D01*
Y271269D01*
X244547D01*
Y265332D01*
X252453D01*
X252453Y265332D01*
Y265332D01*
X252574Y265382D01*
X252906Y265050D01*
Y262268D01*
X252453D01*
Y262268D01*
X249250D01*
Y256331D01*
X252453D01*
Y256331D01*
X252552D01*
X252906Y255978D01*
Y251269D01*
X252453D01*
Y251269D01*
X244547D01*
Y245332D01*
X252453D01*
Y246006D01*
X253400D01*
X254278Y246181D01*
X255022Y246678D01*
X255022Y246678D01*
X255022Y246678D01*
X256822Y248478D01*
Y248478D01*
X256822Y248478D01*
X256822Y248478D01*
X256822D01*
X257319Y249222D01*
X257494Y250100D01*
Y266000D01*
X257319Y266878D01*
X256822Y267622D01*
X256822Y267622D01*
X256822Y267622D01*
X254522Y269922D01*
X254522Y269922D01*
X254522Y269922D01*
X253778Y270420D01*
X252900Y270594D01*
X252453D01*
Y271269D01*
X250794D01*
Y272800D01*
X250620Y273678D01*
X250122Y274422D01*
X250122Y274422D01*
X250122Y274422D01*
X247791Y276754D01*
X247982Y277216D01*
X249520D01*
Y284007D01*
X251576D01*
Y278594D01*
X261450D01*
Y285712D01*
X261450D01*
Y285832D01*
X257299D01*
Y287255D01*
X261450D01*
Y294779D01*
X268118D01*
X268118Y294779D01*
Y294779D01*
X268899Y294934D01*
X269560Y295376D01*
X273442Y299258D01*
X273884Y299920D01*
X274039Y300700D01*
Y303253D01*
X274496Y303604D01*
X275057Y304335D01*
X275410Y305186D01*
X275530Y306100D01*
X275410Y307014D01*
X275057Y307865D01*
X274496Y308596D01*
X274294Y308751D01*
Y315688D01*
X275137D01*
Y328712D01*
X265263D01*
Y315688D01*
X269706D01*
Y312292D01*
X269244Y312100D01*
X268022Y313322D01*
X267278Y313820D01*
X266400Y313994D01*
X266400Y313994D01*
X266400Y313994D01*
X266400D01*
X245650D01*
X244494Y315150D01*
Y315807D01*
X244690Y315887D01*
X245721Y316679D01*
X246513Y317710D01*
X247010Y318911D01*
X247180Y320200D01*
X247010Y321489D01*
X246513Y322690D01*
X245721Y323721D01*
X244690Y324513D01*
X243489Y325010D01*
X242200Y325180D01*
X240911Y325010D01*
X239710Y324513D01*
X238679Y323721D01*
X237888Y322690D01*
X237390Y321489D01*
X237220Y320200D01*
X237390Y318911D01*
X237888Y317710D01*
X238679Y316679D01*
X239710Y315887D01*
X239906Y315807D01*
Y314200D01*
X240080Y313322D01*
X240578Y312578D01*
X243078Y310078D01*
X243822Y309580D01*
X244700Y309406D01*
X265450D01*
X268503Y306353D01*
X268470Y306100D01*
X268590Y305186D01*
X268943Y304335D01*
X269504Y303604D01*
X269961Y303253D01*
Y301545D01*
X267273Y298857D01*
X261450D01*
Y304806D01*
X251576D01*
Y299393D01*
X249520D01*
Y306184D01*
X239647D01*
Y299393D01*
X236615D01*
Y299393D01*
X236554D01*
X236200Y299746D01*
Y393700D01*
X393700D01*
Y199700D01*
D02*
G37*
G36*
X194000Y0D02*
X0D01*
Y157500D01*
X84307D01*
Y157085D01*
X84307D01*
Y154053D01*
X77516D01*
Y151411D01*
X77017D01*
X76139Y151236D01*
X75394Y150739D01*
X72150Y147494D01*
X71569D01*
Y149153D01*
X65632D01*
Y141247D01*
X65632Y141247D01*
X65632D01*
X65682Y141126D01*
X65350Y140794D01*
X62568D01*
Y141247D01*
X62568D01*
Y144450D01*
X56631D01*
Y141247D01*
X56631D01*
Y141148D01*
X56278Y140794D01*
X51569D01*
Y141247D01*
X51569D01*
Y149153D01*
X45632D01*
Y141247D01*
X46306D01*
Y140300D01*
X46481Y139422D01*
X46978Y138678D01*
X46978Y138678D01*
X46978Y138678D01*
X48778Y136878D01*
X48778D01*
X48778Y136878D01*
X48778Y136878D01*
Y136878D01*
X49522Y136381D01*
X50400Y136206D01*
X66300D01*
X67178Y136381D01*
X67922Y136878D01*
X67922Y136878D01*
X67922Y136878D01*
X70222Y139178D01*
X70222Y139178D01*
X70222Y139178D01*
X70719Y139922D01*
X70894Y140800D01*
Y141247D01*
X71569D01*
Y142906D01*
X73100D01*
X73978Y143080D01*
X74722Y143578D01*
X74722Y143578D01*
X74722Y143578D01*
X77054Y145910D01*
X77516Y145718D01*
Y144179D01*
X84307D01*
Y142124D01*
X78894D01*
Y132250D01*
X86012D01*
Y132250D01*
X86132D01*
Y136401D01*
X87555D01*
Y132250D01*
X95079D01*
Y125582D01*
X95079Y125582D01*
X95079D01*
X95234Y124802D01*
X95676Y124140D01*
X99558Y120258D01*
X100220Y119816D01*
X101000Y119661D01*
X103553D01*
X103904Y119204D01*
X104635Y118643D01*
X105486Y118290D01*
X106400Y118170D01*
X107314Y118290D01*
X108165Y118643D01*
X108896Y119204D01*
X109051Y119406D01*
X115988D01*
Y118563D01*
X129012D01*
Y128437D01*
X115988D01*
Y123994D01*
X112592D01*
X112400Y124456D01*
X113622Y125678D01*
X114120Y126422D01*
X114294Y127300D01*
X114294Y127300D01*
X114294Y127300D01*
Y127300D01*
Y148050D01*
X115450Y149206D01*
X116106D01*
X116188Y149010D01*
X116979Y147979D01*
X118010Y147187D01*
X119211Y146690D01*
X120500Y146520D01*
X121789Y146690D01*
X122990Y147187D01*
X124021Y147979D01*
X124812Y149010D01*
X125310Y150211D01*
X125480Y151500D01*
X125310Y152789D01*
X124812Y153990D01*
X124021Y155021D01*
X122990Y155813D01*
X121789Y156310D01*
X120500Y156480D01*
X119211Y156310D01*
X118010Y155813D01*
X116979Y155021D01*
X116188Y153990D01*
X116106Y153794D01*
X114500D01*
X113622Y153620D01*
X112878Y153122D01*
X110378Y150622D01*
X109880Y149878D01*
X109706Y149000D01*
Y128250D01*
X106653Y125197D01*
X106400Y125230D01*
X105486Y125110D01*
X104635Y124757D01*
X103904Y124196D01*
X103553Y123739D01*
X101845D01*
X99157Y126426D01*
Y132250D01*
X105106D01*
Y142124D01*
X99693D01*
Y144179D01*
X106484D01*
Y154053D01*
X99693D01*
Y157085D01*
X99693D01*
Y157146D01*
X100047Y157500D01*
X194000D01*
Y0D01*
D02*
G37*
%LPC*%
G36*
X151550Y156731D02*
Y154050D01*
X154232D01*
X154210Y154214D01*
X153857Y155065D01*
X153296Y155796D01*
X152565Y156357D01*
X151714Y156710D01*
X151550Y156731D01*
D02*
G37*
G36*
X150050D02*
X149886Y156710D01*
X149035Y156357D01*
X148304Y155796D01*
X147743Y155065D01*
X147390Y154214D01*
X147369Y154050D01*
X150050D01*
Y156731D01*
D02*
G37*
G36*
X54650D02*
Y154050D01*
X57332D01*
X57310Y154214D01*
X56957Y155065D01*
X56396Y155796D01*
X55665Y156357D01*
X54814Y156710D01*
X54650Y156731D01*
D02*
G37*
G36*
X292450Y203250D02*
X289769D01*
X289790Y203086D01*
X290143Y202235D01*
X290704Y201504D01*
X291435Y200943D01*
X292286Y200590D01*
X292450Y200569D01*
Y203250D01*
D02*
G37*
G36*
X264632D02*
X261950D01*
Y200569D01*
X262114Y200590D01*
X262965Y200943D01*
X263696Y201504D01*
X264257Y202235D01*
X264610Y203086D01*
X264632Y203250D01*
D02*
G37*
G36*
X260450D02*
X257769D01*
X257790Y203086D01*
X258143Y202235D01*
X258704Y201504D01*
X259435Y200943D01*
X260286Y200590D01*
X260450Y200569D01*
Y203250D01*
D02*
G37*
G36*
X154232Y152550D02*
X151550D01*
Y149869D01*
X151714Y149890D01*
X152565Y150243D01*
X153296Y150804D01*
X153857Y151535D01*
X154210Y152386D01*
X154232Y152550D01*
D02*
G37*
G36*
X150050D02*
X147369D01*
X147390Y152386D01*
X147743Y151535D01*
X148304Y150804D01*
X149035Y150243D01*
X149886Y149890D01*
X150050Y149869D01*
Y152550D01*
D02*
G37*
G36*
X57332D02*
X54650D01*
Y149869D01*
X54814Y149890D01*
X55665Y150243D01*
X56396Y150804D01*
X56957Y151535D01*
X57310Y152386D01*
X57332Y152550D01*
D02*
G37*
G36*
X53150Y156731D02*
X52986Y156710D01*
X52135Y156357D01*
X51404Y155796D01*
X50843Y155065D01*
X50490Y154214D01*
X50468Y154050D01*
X53150D01*
Y156731D01*
D02*
G37*
G36*
X10750Y155281D02*
Y151150D01*
X14881D01*
X14810Y151689D01*
X14312Y152890D01*
X13521Y153921D01*
X12490Y154712D01*
X11289Y155210D01*
X10750Y155281D01*
D02*
G37*
G36*
X9250D02*
X8711Y155210D01*
X7510Y154712D01*
X6479Y153921D01*
X5688Y152890D01*
X5190Y151689D01*
X5119Y151150D01*
X9250D01*
Y155281D01*
D02*
G37*
G36*
X296632Y203250D02*
X293950D01*
Y200569D01*
X294114Y200590D01*
X294965Y200943D01*
X295696Y201504D01*
X296257Y202235D01*
X296610Y203086D01*
X296632Y203250D01*
D02*
G37*
G36*
X293950Y207432D02*
Y204750D01*
X296632D01*
X296610Y204914D01*
X296257Y205765D01*
X295696Y206496D01*
X294965Y207057D01*
X294114Y207410D01*
X293950Y207432D01*
D02*
G37*
G36*
X292450D02*
X292286Y207410D01*
X291435Y207057D01*
X290704Y206496D01*
X290143Y205765D01*
X289790Y204914D01*
X289769Y204750D01*
X292450D01*
Y207432D01*
D02*
G37*
G36*
X261950D02*
Y204750D01*
X264632D01*
X264610Y204914D01*
X264257Y205765D01*
X263696Y206496D01*
X262965Y207057D01*
X262114Y207410D01*
X261950Y207432D01*
D02*
G37*
G36*
X242550Y208950D02*
X238419D01*
X238490Y208411D01*
X238987Y207210D01*
X239779Y206179D01*
X240810Y205387D01*
X242011Y204890D01*
X242550Y204819D01*
Y208950D01*
D02*
G37*
G36*
X325950Y207432D02*
Y204750D01*
X328631D01*
X328610Y204914D01*
X328257Y205765D01*
X327696Y206496D01*
X326965Y207057D01*
X326114Y207410D01*
X325950Y207432D01*
D02*
G37*
G36*
X324450D02*
X324286Y207410D01*
X323435Y207057D01*
X322704Y206496D01*
X322143Y205765D01*
X321790Y204914D01*
X321768Y204750D01*
X324450D01*
Y207432D01*
D02*
G37*
G36*
X268168Y220653D02*
X262231D01*
Y212747D01*
X263161D01*
Y211100D01*
X263161Y211100D01*
X263316Y210320D01*
X263758Y209658D01*
X267158Y206258D01*
X267820Y205816D01*
X268600Y205661D01*
X270583D01*
X270660Y205560D01*
X271287Y205080D01*
X272017Y204777D01*
X272800Y204674D01*
X273583Y204777D01*
X274313Y205080D01*
X274940Y205560D01*
X275420Y206187D01*
X275723Y206917D01*
X275826Y207700D01*
X275723Y208483D01*
X275420Y209213D01*
X274940Y209840D01*
X274313Y210320D01*
X273583Y210623D01*
X272800Y210726D01*
X272017Y210623D01*
X271287Y210320D01*
X270660Y209840D01*
X270583Y209739D01*
X269445D01*
X267239Y211945D01*
Y212747D01*
X268168D01*
Y220653D01*
D02*
G37*
G36*
X328631Y203250D02*
X325950D01*
Y200569D01*
X326114Y200590D01*
X326965Y200943D01*
X327696Y201504D01*
X328257Y202235D01*
X328610Y203086D01*
X328631Y203250D01*
D02*
G37*
G36*
X324450D02*
X321768D01*
X321790Y203086D01*
X322143Y202235D01*
X322704Y201504D01*
X323435Y200943D01*
X324286Y200590D01*
X324450Y200569D01*
Y203250D01*
D02*
G37*
G36*
X260450Y207432D02*
X260286Y207410D01*
X259435Y207057D01*
X258704Y206496D01*
X258143Y205765D01*
X257790Y204914D01*
X257769Y204750D01*
X260450D01*
Y207432D01*
D02*
G37*
G36*
X287253Y206950D02*
X284050D01*
Y204731D01*
X287253D01*
Y206950D01*
D02*
G37*
G36*
X282550D02*
X279347D01*
Y204731D01*
X282550D01*
Y206950D01*
D02*
G37*
G36*
X156350Y132931D02*
Y130250D01*
X159031D01*
X159010Y130414D01*
X158657Y131265D01*
X158096Y131996D01*
X157365Y132557D01*
X156514Y132910D01*
X156350Y132931D01*
D02*
G37*
G36*
X154850D02*
X154686Y132910D01*
X153835Y132557D01*
X153104Y131996D01*
X152543Y131265D01*
X152190Y130414D01*
X152169Y130250D01*
X154850D01*
Y132931D01*
D02*
G37*
G36*
X44823Y134043D02*
X41817D01*
Y130250D01*
X44823D01*
Y134043D01*
D02*
G37*
G36*
X5050Y135932D02*
Y133250D01*
X7732D01*
X7710Y133414D01*
X7357Y134265D01*
X6796Y134996D01*
X6065Y135557D01*
X5214Y135910D01*
X5050Y135932D01*
D02*
G37*
G36*
X3550D02*
X3386Y135910D01*
X2535Y135557D01*
X1804Y134996D01*
X1243Y134265D01*
X890Y133414D01*
X869Y133250D01*
X3550D01*
Y135932D01*
D02*
G37*
G36*
X20953Y131468D02*
X13047D01*
Y130539D01*
X11400D01*
X11400Y130539D01*
X10620Y130384D01*
X9958Y129942D01*
X6558Y126542D01*
X6116Y125880D01*
X5961Y125100D01*
Y123117D01*
X5860Y123040D01*
X5379Y122413D01*
X5077Y121683D01*
X4974Y120900D01*
X5077Y120117D01*
X5379Y119387D01*
X5860Y118760D01*
X6487Y118280D01*
X7217Y117977D01*
X8000Y117874D01*
X8783Y117977D01*
X9513Y118280D01*
X10140Y118760D01*
X10621Y119387D01*
X10923Y120117D01*
X11026Y120900D01*
X10923Y121683D01*
X10621Y122413D01*
X10140Y123040D01*
X10039Y123117D01*
Y124255D01*
X12245Y126461D01*
X13047D01*
Y125531D01*
X20953D01*
Y131468D01*
D02*
G37*
G36*
X159031Y128750D02*
X156350D01*
Y126068D01*
X156514Y126090D01*
X157365Y126443D01*
X158096Y127004D01*
X158657Y127735D01*
X159010Y128586D01*
X159031Y128750D01*
D02*
G37*
G36*
X154850D02*
X152169D01*
X152190Y128586D01*
X152543Y127735D01*
X153104Y127004D01*
X153835Y126443D01*
X154686Y126090D01*
X154850Y126068D01*
Y128750D01*
D02*
G37*
G36*
X44823D02*
X41817D01*
Y124957D01*
X44823D01*
Y128750D01*
D02*
G37*
G36*
X40317Y134043D02*
X37311D01*
Y130250D01*
X40317D01*
Y134043D01*
D02*
G37*
G36*
X7732Y131750D02*
X5050D01*
Y129069D01*
X5214Y129090D01*
X6065Y129443D01*
X6796Y130004D01*
X7357Y130735D01*
X7710Y131586D01*
X7732Y131750D01*
D02*
G37*
G36*
X3550D02*
X869D01*
X890Y131586D01*
X1243Y130735D01*
X1804Y130004D01*
X2535Y129443D01*
X3386Y129090D01*
X3550Y129069D01*
Y131750D01*
D02*
G37*
G36*
X182300Y155343D02*
X180555Y155171D01*
X178878Y154662D01*
X177331Y153836D01*
X175976Y152724D01*
X174864Y151368D01*
X174038Y149822D01*
X173529Y148145D01*
X173357Y146400D01*
X173529Y144655D01*
X174038Y142978D01*
X174864Y141431D01*
X175976Y140076D01*
X177331Y138964D01*
X178878Y138138D01*
X180555Y137629D01*
X182300Y137457D01*
X184045Y137629D01*
X185722Y138138D01*
X187268Y138964D01*
X188624Y140076D01*
X189736Y141431D01*
X190562Y142978D01*
X191071Y144655D01*
X191243Y146400D01*
X191071Y148145D01*
X190562Y149822D01*
X189736Y151368D01*
X188624Y152724D01*
X187268Y153836D01*
X185722Y154662D01*
X184045Y155171D01*
X182300Y155343D01*
D02*
G37*
G36*
X58850Y149153D02*
X56631D01*
Y145950D01*
X58850D01*
Y149153D01*
D02*
G37*
G36*
X42568D02*
X40350D01*
Y145950D01*
X42568D01*
Y149153D01*
D02*
G37*
G36*
X38850D02*
X36632D01*
Y145950D01*
X38850D01*
Y149153D01*
D02*
G37*
G36*
X53150Y152550D02*
X50468D01*
X50490Y152386D01*
X50843Y151535D01*
X51404Y150804D01*
X52135Y150243D01*
X52986Y149890D01*
X53150Y149869D01*
Y152550D01*
D02*
G37*
G36*
X51250Y247736D02*
Y244550D01*
X54436D01*
X54397Y244844D01*
X53994Y245817D01*
X53353Y246653D01*
X52517Y247294D01*
X51544Y247697D01*
X51250Y247736D01*
D02*
G37*
G36*
X62568Y149153D02*
X60350D01*
Y145950D01*
X62568D01*
Y149153D01*
D02*
G37*
G36*
X141803Y151274D02*
X131929D01*
Y141880D01*
X129012D01*
Y143791D01*
X115988D01*
Y133917D01*
X129012D01*
Y135828D01*
X131929D01*
Y133526D01*
X141803D01*
Y151274D01*
D02*
G37*
G36*
X42568Y144450D02*
X40350D01*
Y141247D01*
X42568D01*
Y144450D01*
D02*
G37*
G36*
X38850D02*
X36632D01*
Y141247D01*
X38850D01*
Y144450D01*
D02*
G37*
G36*
X14881Y149650D02*
X10750D01*
Y145519D01*
X11289Y145590D01*
X12490Y146088D01*
X13521Y146879D01*
X14312Y147910D01*
X14810Y149111D01*
X14881Y149650D01*
D02*
G37*
G36*
X9250D02*
X5119D01*
X5190Y149111D01*
X5688Y147910D01*
X6479Y146879D01*
X7510Y146088D01*
X8711Y145590D01*
X9250Y145519D01*
Y149650D01*
D02*
G37*
G36*
X170937Y151274D02*
X161063D01*
Y145326D01*
X155806D01*
X155765Y145357D01*
X154914Y145710D01*
X154000Y145830D01*
X153086Y145710D01*
X152235Y145357D01*
X151504Y144796D01*
X150943Y144065D01*
X150590Y143214D01*
X150470Y142300D01*
X150590Y141386D01*
X150943Y140535D01*
X151504Y139804D01*
X152235Y139243D01*
X153086Y138890D01*
X154000Y138770D01*
X154914Y138890D01*
X155765Y139243D01*
X155806Y139274D01*
X161063D01*
Y133526D01*
X170937D01*
Y133526D01*
X171095Y133526D01*
X179474Y125147D01*
Y122055D01*
X177554D01*
X177554Y122055D01*
Y122055D01*
X177268Y122055D01*
X177200Y122123D01*
Y124500D01*
X160200D01*
Y118000D01*
X151803D01*
Y111794D01*
X148453D01*
Y112469D01*
X140547D01*
Y106532D01*
X148453D01*
Y107206D01*
X151803D01*
Y101000D01*
X160200D01*
Y94500D01*
X177200D01*
Y96945D01*
X177200D01*
X177268D01*
X177554Y96945D01*
X177554Y96945D01*
Y96945D01*
X181750D01*
Y100444D01*
Y103945D01*
X177554D01*
X177554Y103945D01*
Y103945D01*
X177268Y103945D01*
X177200Y104013D01*
Y106000D01*
X177268D01*
Y106000D01*
X187732D01*
Y113000D01*
X177268D01*
D01*
X177268D01*
X177200Y113068D01*
Y114987D01*
X177268Y115055D01*
X177554Y115055D01*
X177554Y115055D01*
Y115055D01*
X187732D01*
Y122055D01*
X185526D01*
Y126400D01*
X185423Y127183D01*
X185209Y127699D01*
X185120Y127913D01*
X184640Y128540D01*
X174340Y138840D01*
X173713Y139321D01*
X173499Y139409D01*
X172983Y139623D01*
X172200Y139726D01*
X170937D01*
Y151274D01*
D02*
G37*
G36*
X54436Y243050D02*
X51250D01*
Y239864D01*
X51544Y239903D01*
X52517Y240306D01*
X53353Y240947D01*
X53994Y241783D01*
X54397Y242756D01*
X54436Y243050D01*
D02*
G37*
G36*
X49750D02*
X46564D01*
X46603Y242756D01*
X47006Y241783D01*
X47647Y240947D01*
X48483Y240306D01*
X49456Y239903D01*
X49750Y239864D01*
Y243050D01*
D02*
G37*
G36*
X328430Y241700D02*
X326430D01*
Y238950D01*
X328430D01*
Y241700D01*
D02*
G37*
G36*
X354743Y247389D02*
X350950D01*
Y244383D01*
X354743D01*
Y247389D01*
D02*
G37*
G36*
Y242883D02*
X350950D01*
Y239877D01*
X354743D01*
Y242883D01*
D02*
G37*
G36*
X349450D02*
X345657D01*
Y239877D01*
X349450D01*
Y242883D01*
D02*
G37*
G36*
X308450Y241231D02*
X308286Y241210D01*
X307435Y240857D01*
X306704Y240296D01*
X306143Y239565D01*
X305790Y238714D01*
X305768Y238550D01*
X308450D01*
Y241231D01*
D02*
G37*
G36*
X268743Y240017D02*
X264950D01*
Y237011D01*
X268743D01*
Y240017D01*
D02*
G37*
G36*
X263450D02*
X259657D01*
Y237011D01*
X263450D01*
Y240017D01*
D02*
G37*
G36*
X324930Y241700D02*
X322930D01*
Y238950D01*
X324930D01*
Y241700D01*
D02*
G37*
G36*
X60500Y260535D02*
X59456Y260397D01*
X58483Y259994D01*
X57647Y259353D01*
X57006Y258517D01*
X56603Y257544D01*
X56466Y256500D01*
X56547Y255879D01*
Y238926D01*
X64453D01*
Y255879D01*
X64534Y256500D01*
X64397Y257544D01*
X63994Y258517D01*
X63353Y259353D01*
X62517Y259994D01*
X61544Y260397D01*
X60500Y260535D01*
D02*
G37*
G36*
X309950Y241231D02*
Y238550D01*
X312632D01*
X312610Y238714D01*
X312257Y239565D01*
X311696Y240296D01*
X310965Y240857D01*
X310114Y241210D01*
X309950Y241231D01*
D02*
G37*
G36*
X247750Y242268D02*
X244547D01*
Y240050D01*
X247750D01*
Y242268D01*
D02*
G37*
G36*
X143350Y244450D02*
X140668D01*
X140690Y244286D01*
X141043Y243435D01*
X141604Y242704D01*
X142335Y242143D01*
X143186Y241790D01*
X143350Y241769D01*
Y244450D01*
D02*
G37*
G36*
X268743Y244523D02*
X264950D01*
Y241517D01*
X268743D01*
Y244523D01*
D02*
G37*
G36*
X263450D02*
X259657D01*
Y241517D01*
X263450D01*
Y244523D01*
D02*
G37*
G36*
X349450Y247389D02*
X345657D01*
Y244383D01*
X349450D01*
Y247389D01*
D02*
G37*
G36*
X313499Y250617D02*
X306775D01*
Y243893D01*
X313499D01*
Y250617D01*
D02*
G37*
G36*
X147531Y244450D02*
X144850D01*
Y241769D01*
X145014Y241790D01*
X145865Y242143D01*
X146596Y242704D01*
X147157Y243435D01*
X147510Y244286D01*
X147531Y244450D01*
D02*
G37*
G36*
X126350D02*
X122219D01*
X122290Y243911D01*
X122787Y242710D01*
X123579Y241679D01*
X124610Y240887D01*
X125811Y240390D01*
X126350Y240319D01*
Y244450D01*
D02*
G37*
G36*
X65500Y292230D02*
X64586Y292110D01*
X63735Y291757D01*
X63004Y291196D01*
X62443Y290465D01*
X62090Y289614D01*
X62083Y289563D01*
X56864Y284343D01*
X54744D01*
Y279288D01*
X52178Y276722D01*
X51681Y275978D01*
X51506Y275100D01*
Y265650D01*
X45950Y260094D01*
X43838D01*
X43413Y260420D01*
X42683Y260723D01*
X41900Y260826D01*
X41117Y260723D01*
X40387Y260420D01*
X39760Y259940D01*
X39279Y259313D01*
X38977Y258583D01*
X38874Y257800D01*
X38977Y257017D01*
X39279Y256287D01*
X39760Y255660D01*
X40387Y255180D01*
X41117Y254877D01*
X41900Y254774D01*
X42683Y254877D01*
X43413Y255180D01*
X43838Y255506D01*
X46900D01*
X47778Y255680D01*
X48522Y256178D01*
X48522Y256178D01*
X48522Y256178D01*
X55150Y262806D01*
X62150D01*
X68206Y256750D01*
Y247082D01*
X67647Y246653D01*
X67006Y245817D01*
X66603Y244844D01*
X66466Y243800D01*
X66603Y242756D01*
X67006Y241783D01*
X67647Y240947D01*
X68483Y240306D01*
X69456Y239903D01*
X70500Y239766D01*
X71198Y239857D01*
X72178Y238878D01*
X72922Y238381D01*
X73800Y238206D01*
X96547D01*
Y237831D01*
X104453D01*
Y243161D01*
X111801D01*
X111987Y242710D01*
X112779Y241679D01*
X113810Y240887D01*
X115011Y240390D01*
X116300Y240220D01*
X117589Y240390D01*
X118790Y240887D01*
X119821Y241679D01*
X120613Y242710D01*
X121110Y243911D01*
X121280Y245200D01*
X121110Y246489D01*
X120613Y247690D01*
X119821Y248721D01*
X118790Y249513D01*
X117589Y250010D01*
X116300Y250180D01*
X115011Y250010D01*
X113810Y249513D01*
X112779Y248721D01*
X111987Y247690D01*
X111801Y247239D01*
X104453D01*
Y252768D01*
X100415D01*
X97539Y255645D01*
Y257847D01*
X98469D01*
Y265753D01*
X95431D01*
X92709Y268475D01*
X92726Y268600D01*
X92623Y269383D01*
X92321Y270113D01*
X91840Y270740D01*
X91213Y271220D01*
X90483Y271523D01*
X89700Y271626D01*
X88917Y271523D01*
X88187Y271220D01*
X87560Y270740D01*
X87288Y270384D01*
X81839D01*
X80843Y271380D01*
Y272044D01*
X86004D01*
Y279556D01*
X83402D01*
Y281525D01*
X83840Y281860D01*
X84320Y282487D01*
X84623Y283217D01*
X84726Y284000D01*
X84623Y284783D01*
X84320Y285513D01*
X83840Y286140D01*
X83213Y286620D01*
X82483Y286923D01*
X81700Y287026D01*
X80917Y286923D01*
X80187Y286620D01*
X79560Y286140D01*
X79080Y285513D01*
X78777Y284783D01*
X78674Y284000D01*
X78777Y283217D01*
X79080Y282487D01*
X79560Y281860D01*
X79834Y281650D01*
Y279556D01*
X74673D01*
Y277739D01*
X71945D01*
X68442Y281242D01*
X67780Y281684D01*
X67000Y281839D01*
X63572D01*
X63380Y282301D01*
X66363Y285283D01*
X66414Y285290D01*
X67265Y285643D01*
X67996Y286204D01*
X68557Y286935D01*
X68910Y287786D01*
X69030Y288700D01*
X68910Y289614D01*
X68557Y290465D01*
X67996Y291196D01*
X67265Y291757D01*
X66414Y292110D01*
X65500Y292230D01*
D02*
G37*
G36*
X252453Y242268D02*
X249250D01*
Y240050D01*
X252453D01*
Y242268D01*
D02*
G37*
G36*
X28500Y258743D02*
X26755Y258571D01*
X25078Y258062D01*
X23531Y257236D01*
X22176Y256124D01*
X21064Y254768D01*
X20238Y253222D01*
X19729Y251545D01*
X19557Y249800D01*
X19729Y248055D01*
X20238Y246378D01*
X21064Y244831D01*
X22176Y243476D01*
X23531Y242364D01*
X25078Y241538D01*
X26755Y241029D01*
X28500Y240857D01*
X30245Y241029D01*
X31922Y241538D01*
X33468Y242364D01*
X34824Y243476D01*
X35936Y244831D01*
X36762Y246378D01*
X37271Y248055D01*
X37443Y249800D01*
X37271Y251545D01*
X36762Y253222D01*
X35936Y254768D01*
X34824Y256124D01*
X33468Y257236D01*
X31922Y258062D01*
X30245Y258571D01*
X28500Y258743D01*
D02*
G37*
G36*
X13381Y255050D02*
X3619D01*
X3690Y254511D01*
X4188Y253310D01*
X4979Y252279D01*
X6010Y251487D01*
X7067Y251050D01*
Y250550D01*
X6010Y250113D01*
X4979Y249321D01*
X4188Y248290D01*
X3690Y247089D01*
X3520Y245800D01*
X3690Y244511D01*
X4188Y243310D01*
X4979Y242279D01*
X6010Y241488D01*
X7211Y240990D01*
X8500Y240820D01*
X9789Y240990D01*
X10990Y241488D01*
X12021Y242279D01*
X12812Y243310D01*
X13310Y244511D01*
X13480Y245800D01*
X13310Y247089D01*
X12812Y248290D01*
X12021Y249321D01*
X10990Y250113D01*
X9933Y250550D01*
Y251050D01*
X10990Y251487D01*
X12021Y252279D01*
X12812Y253310D01*
X13310Y254511D01*
X13381Y255050D01*
D02*
G37*
G36*
X131981Y244450D02*
X127850D01*
Y240319D01*
X128389Y240390D01*
X129590Y240887D01*
X130621Y241679D01*
X131412Y242710D01*
X131910Y243911D01*
X131981Y244450D01*
D02*
G37*
G36*
X299450Y215450D02*
X297232D01*
Y212247D01*
X299450D01*
Y215450D01*
D02*
G37*
G36*
X244050Y214581D02*
Y210450D01*
X248181D01*
X248110Y210989D01*
X247613Y212190D01*
X246821Y213221D01*
X245790Y214013D01*
X244589Y214510D01*
X244050Y214581D01*
D02*
G37*
G36*
X242550D02*
X242011Y214510D01*
X240810Y214013D01*
X239779Y213221D01*
X238987Y212190D01*
X238490Y210989D01*
X238419Y210450D01*
X242550D01*
Y214581D01*
D02*
G37*
G36*
X303169Y220153D02*
X300950D01*
Y216950D01*
X303169D01*
Y220153D01*
D02*
G37*
G36*
X299450D02*
X297232D01*
Y216950D01*
X299450D01*
Y220153D01*
D02*
G37*
G36*
X303169Y215450D02*
X300950D01*
Y212247D01*
X303169D01*
Y215450D01*
D02*
G37*
G36*
X282550Y210668D02*
X279347D01*
Y208450D01*
X282550D01*
Y210668D01*
D02*
G37*
G36*
X49750Y247736D02*
X49456Y247697D01*
X48483Y247294D01*
X47647Y246653D01*
X47006Y245817D01*
X46603Y244844D01*
X46564Y244550D01*
X49750D01*
Y247736D01*
D02*
G37*
G36*
X248181Y208950D02*
X244050D01*
Y204819D01*
X244589Y204890D01*
X245790Y205387D01*
X246821Y206179D01*
X247613Y207210D01*
X248110Y208411D01*
X248181Y208950D01*
D02*
G37*
G36*
X384200Y213180D02*
X382911Y213010D01*
X381710Y212512D01*
X380679Y211721D01*
X379888Y210690D01*
X379450Y209633D01*
X378950D01*
X378513Y210690D01*
X377721Y211721D01*
X376690Y212512D01*
X375489Y213010D01*
X374950Y213081D01*
Y203319D01*
X375489Y203390D01*
X376690Y203888D01*
X377721Y204679D01*
X378513Y205710D01*
X378950Y206767D01*
X379450D01*
X379888Y205710D01*
X380679Y204679D01*
X381710Y203888D01*
X382911Y203390D01*
X384200Y203220D01*
X385489Y203390D01*
X386690Y203888D01*
X387721Y204679D01*
X388512Y205710D01*
X389010Y206911D01*
X389180Y208200D01*
X389010Y209489D01*
X388512Y210690D01*
X387721Y211721D01*
X386690Y212512D01*
X385489Y213010D01*
X384200Y213180D01*
D02*
G37*
G36*
X364200D02*
X362911Y213010D01*
X361710Y212512D01*
X360679Y211721D01*
X359888Y210690D01*
X359450Y209633D01*
X358950D01*
X358512Y210690D01*
X357721Y211721D01*
X356690Y212512D01*
X355489Y213010D01*
X354200Y213180D01*
X352911Y213010D01*
X351710Y212512D01*
X350679Y211721D01*
X349887Y210690D01*
X349390Y209489D01*
X349220Y208200D01*
X349390Y206911D01*
X349887Y205710D01*
X350679Y204679D01*
X351710Y203888D01*
X352911Y203390D01*
X354200Y203220D01*
X355489Y203390D01*
X356690Y203888D01*
X357721Y204679D01*
X358512Y205710D01*
X358950Y206767D01*
X359450D01*
X359888Y205710D01*
X360679Y204679D01*
X361710Y203888D01*
X362911Y203390D01*
X364200Y203220D01*
X365489Y203390D01*
X366690Y203888D01*
X367721Y204679D01*
X368513Y205710D01*
X368950Y206767D01*
X369450D01*
X369887Y205710D01*
X370679Y204679D01*
X371710Y203888D01*
X372911Y203390D01*
X373450Y203319D01*
Y213081D01*
X372911Y213010D01*
X371710Y212512D01*
X370679Y211721D01*
X369887Y210690D01*
X369450Y209633D01*
X368950D01*
X368513Y210690D01*
X367721Y211721D01*
X366690Y212512D01*
X365489Y213010D01*
X364200Y213180D01*
D02*
G37*
G36*
X287253Y210668D02*
X284050D01*
Y208450D01*
X287253D01*
Y210668D01*
D02*
G37*
G36*
X380200Y237143D02*
X378455Y236971D01*
X376778Y236462D01*
X375232Y235636D01*
X373876Y234524D01*
X372764Y233169D01*
X371938Y231622D01*
X371429Y229945D01*
X371257Y228200D01*
X371429Y226455D01*
X371938Y224778D01*
X372764Y223232D01*
X373876Y221876D01*
X375232Y220764D01*
X376778Y219938D01*
X378455Y219429D01*
X380200Y219257D01*
X381945Y219429D01*
X383622Y219938D01*
X385169Y220764D01*
X386524Y221876D01*
X387636Y223232D01*
X388462Y224778D01*
X388971Y226455D01*
X389143Y228200D01*
X388971Y229945D01*
X388462Y231622D01*
X387636Y233169D01*
X386524Y234524D01*
X385169Y235636D01*
X383622Y236462D01*
X381945Y236971D01*
X380200Y237143D01*
D02*
G37*
G36*
X328430Y237450D02*
X326430D01*
Y234700D01*
X328430D01*
Y237450D01*
D02*
G37*
G36*
X324930D02*
X322930D01*
Y234700D01*
X324930D01*
Y237450D01*
D02*
G37*
G36*
X312632Y237050D02*
X309950D01*
Y234368D01*
X310114Y234390D01*
X310965Y234743D01*
X311696Y235304D01*
X312257Y236035D01*
X312610Y236886D01*
X312632Y237050D01*
D02*
G37*
G36*
X278050Y240153D02*
X275832D01*
Y236950D01*
X278050D01*
Y240153D01*
D02*
G37*
G36*
X252453Y238550D02*
X249250D01*
Y236332D01*
X252453D01*
Y238550D01*
D02*
G37*
G36*
X247750D02*
X244547D01*
Y236332D01*
X247750D01*
Y238550D01*
D02*
G37*
G36*
X305625Y232507D02*
X298901D01*
Y225783D01*
X305625D01*
Y232507D01*
D02*
G37*
G36*
X330269Y229653D02*
X324331D01*
Y221747D01*
X330269D01*
Y223661D01*
X333083D01*
X333160Y223560D01*
X333787Y223079D01*
X334517Y222777D01*
X335300Y222674D01*
X336083Y222777D01*
X336813Y223079D01*
X337440Y223560D01*
X337920Y224187D01*
X338223Y224917D01*
X338326Y225700D01*
X338223Y226483D01*
X337920Y227213D01*
X337440Y227840D01*
X336813Y228321D01*
X336083Y228623D01*
X335300Y228726D01*
X334517Y228623D01*
X333787Y228321D01*
X333160Y227840D01*
X333083Y227739D01*
X330269D01*
Y229653D01*
D02*
G37*
G36*
X268743Y229956D02*
X259657D01*
Y222444D01*
X268743D01*
Y223651D01*
X272073D01*
X272735Y223143D01*
X273586Y222790D01*
X274500Y222670D01*
X275414Y222790D01*
X276265Y223143D01*
X276996Y223704D01*
X277557Y224435D01*
X277910Y225286D01*
X278030Y226200D01*
X277910Y227114D01*
X277557Y227965D01*
X276996Y228696D01*
X276265Y229257D01*
X275414Y229610D01*
X274500Y229730D01*
X273586Y229610D01*
X272735Y229257D01*
X272073Y228749D01*
X268743D01*
Y229956D01*
D02*
G37*
G36*
X308450Y237050D02*
X305768D01*
X305790Y236886D01*
X306143Y236035D01*
X306704Y235304D01*
X307435Y234743D01*
X308286Y234390D01*
X308450Y234368D01*
Y237050D01*
D02*
G37*
G36*
X278050Y235450D02*
X275832D01*
Y232247D01*
X278050D01*
Y235450D01*
D02*
G37*
G36*
X320950Y241700D02*
X315450D01*
Y234700D01*
X316161D01*
Y229653D01*
X315332D01*
Y227994D01*
X314532D01*
X313499Y229027D01*
Y232507D01*
X306775D01*
Y225783D01*
X307161D01*
Y220153D01*
X306231D01*
Y212247D01*
X312169D01*
Y220153D01*
X311239D01*
Y224145D01*
X311701Y224337D01*
X311960Y224078D01*
X312704Y223581D01*
X313582Y223406D01*
X315332D01*
Y221747D01*
X321269D01*
Y229653D01*
X320239D01*
Y234700D01*
X320950D01*
Y241700D01*
D02*
G37*
G36*
X40317Y128750D02*
X37311D01*
Y124957D01*
X40317D01*
Y128750D01*
D02*
G37*
G36*
X144850Y52232D02*
Y49550D01*
X147531D01*
X147510Y49714D01*
X147157Y50565D01*
X146596Y51296D01*
X145865Y51857D01*
X145014Y52210D01*
X144850Y52232D01*
D02*
G37*
G36*
X143350D02*
X143186Y52210D01*
X142335Y51857D01*
X141604Y51296D01*
X141043Y50565D01*
X140690Y49714D01*
X140668Y49550D01*
X143350D01*
Y52232D01*
D02*
G37*
G36*
X147531Y48050D02*
X144850D01*
Y45368D01*
X145014Y45390D01*
X145865Y45743D01*
X146596Y46304D01*
X147157Y47035D01*
X147510Y47886D01*
X147531Y48050D01*
D02*
G37*
G36*
X54931Y56150D02*
X52250D01*
Y53469D01*
X52414Y53490D01*
X53265Y53843D01*
X53996Y54404D01*
X54557Y55135D01*
X54910Y55986D01*
X54931Y56150D01*
D02*
G37*
G36*
X50750D02*
X48068D01*
X48090Y55986D01*
X48443Y55135D01*
X49004Y54404D01*
X49735Y53843D01*
X50586Y53490D01*
X50750Y53469D01*
Y56150D01*
D02*
G37*
G36*
X184500Y54480D02*
X183211Y54310D01*
X182010Y53812D01*
X180979Y53021D01*
X180187Y51990D01*
X180106Y51794D01*
X174893D01*
X174812Y51990D01*
X174021Y53021D01*
X172990Y53812D01*
X171789Y54310D01*
X170500Y54480D01*
X169211Y54310D01*
X168010Y53812D01*
X166979Y53021D01*
X166188Y51990D01*
X165690Y50789D01*
X165520Y49500D01*
X165690Y48211D01*
X166188Y47010D01*
X166979Y45979D01*
X168010Y45188D01*
X169067Y44750D01*
Y44250D01*
X168010Y43813D01*
X166979Y43021D01*
X166188Y41990D01*
X165690Y40789D01*
X165520Y39500D01*
X165690Y38211D01*
X166188Y37010D01*
X166979Y35979D01*
X168010Y35188D01*
X169067Y34750D01*
Y34250D01*
X168010Y33812D01*
X166979Y33021D01*
X166188Y31990D01*
X165690Y30789D01*
X165520Y29500D01*
X165690Y28211D01*
X166188Y27010D01*
X166979Y25979D01*
X168010Y25188D01*
X169067Y24750D01*
Y24250D01*
X168010Y23812D01*
X166979Y23021D01*
X166188Y21990D01*
X165690Y20789D01*
X165619Y20250D01*
X170501D01*
Y19501D01*
X171250D01*
Y14619D01*
X171789Y14690D01*
X172990Y15188D01*
X174021Y15979D01*
X174812Y17010D01*
X174893Y17206D01*
X180106D01*
X180187Y17010D01*
X180979Y15979D01*
X182010Y15188D01*
X183211Y14690D01*
X183750Y14619D01*
Y19501D01*
X184499D01*
Y20250D01*
X189381D01*
X189310Y20789D01*
X188812Y21990D01*
X188021Y23021D01*
X186990Y23812D01*
X185933Y24250D01*
Y24750D01*
X186990Y25188D01*
X188021Y25979D01*
X188812Y27010D01*
X189310Y28211D01*
X189480Y29500D01*
X189310Y30789D01*
X188812Y31990D01*
X188021Y33021D01*
X186990Y33812D01*
X185933Y34250D01*
Y34750D01*
X186990Y35188D01*
X188021Y35979D01*
X188812Y37010D01*
X189310Y38211D01*
X189480Y39500D01*
X189310Y40789D01*
X188812Y41990D01*
X188021Y43021D01*
X186990Y43813D01*
X185933Y44250D01*
Y44750D01*
X186990Y45188D01*
X188021Y45979D01*
X188812Y47010D01*
X189310Y48211D01*
X189480Y49500D01*
X189310Y50789D01*
X188812Y51990D01*
X188021Y53021D01*
X186990Y53812D01*
X185789Y54310D01*
X184500Y54480D01*
D02*
G37*
G36*
X105650Y46632D02*
Y43950D01*
X108332D01*
X108310Y44114D01*
X107957Y44965D01*
X107396Y45696D01*
X106665Y46257D01*
X105814Y46610D01*
X105650Y46632D01*
D02*
G37*
G36*
X104150D02*
X103986Y46610D01*
X103135Y46257D01*
X102404Y45696D01*
X101843Y44965D01*
X101490Y44114D01*
X101469Y43950D01*
X104150D01*
Y46632D01*
D02*
G37*
G36*
X108332Y42450D02*
X105650D01*
Y39768D01*
X105814Y39790D01*
X106665Y40143D01*
X107396Y40704D01*
X107957Y41435D01*
X108310Y42286D01*
X108332Y42450D01*
D02*
G37*
G36*
X143350Y48050D02*
X140668D01*
X140690Y47886D01*
X141043Y47035D01*
X141604Y46304D01*
X142335Y45743D01*
X143186Y45390D01*
X143350Y45368D01*
Y48050D01*
D02*
G37*
G36*
X47689Y48043D02*
X44683D01*
Y44250D01*
X47689D01*
Y48043D01*
D02*
G37*
G36*
X43183D02*
X40177D01*
Y44250D01*
X43183D01*
Y48043D01*
D02*
G37*
G36*
X29953Y69368D02*
X22047D01*
Y63432D01*
X23961D01*
Y60617D01*
X23860Y60540D01*
X23380Y59913D01*
X23077Y59183D01*
X22974Y58400D01*
X23077Y57617D01*
X23380Y56887D01*
X23860Y56260D01*
X24487Y55779D01*
X25217Y55477D01*
X26000Y55374D01*
X26783Y55477D01*
X27513Y55779D01*
X28140Y56260D01*
X28620Y56887D01*
X28923Y57617D01*
X29026Y58400D01*
X28923Y59183D01*
X28620Y59913D01*
X28140Y60540D01*
X28039Y60617D01*
Y63432D01*
X29953D01*
Y69368D01*
D02*
G37*
G36*
X94631Y64150D02*
X91950D01*
Y61468D01*
X92114Y61490D01*
X92965Y61843D01*
X93696Y62404D01*
X94257Y63135D01*
X94610Y63986D01*
X94631Y64150D01*
D02*
G37*
G36*
X90450D02*
X87769D01*
X87790Y63986D01*
X88143Y63135D01*
X88704Y62404D01*
X89435Y61843D01*
X90286Y61490D01*
X90450Y61468D01*
Y64150D01*
D02*
G37*
G36*
X186500Y70680D02*
X185211Y70510D01*
X184010Y70012D01*
X182979Y69221D01*
X182187Y68190D01*
X181690Y66989D01*
X181520Y65700D01*
X181602Y65081D01*
X179047Y62526D01*
X164800D01*
X164017Y62423D01*
X163287Y62120D01*
X162660Y61640D01*
X157560Y56540D01*
X157080Y55913D01*
X156991Y55699D01*
X156777Y55183D01*
X156674Y54400D01*
Y13000D01*
X156777Y12217D01*
X156991Y11701D01*
X157080Y11487D01*
X157560Y10860D01*
X161060Y7360D01*
X161687Y6880D01*
X162052Y6728D01*
X162417Y6577D01*
X162508Y6565D01*
X163200Y6474D01*
X163200Y6474D01*
X166599D01*
X166979Y5979D01*
X168010Y5187D01*
X169211Y4690D01*
X170500Y4520D01*
X171789Y4690D01*
X172990Y5187D01*
X174021Y5979D01*
X174401Y6474D01*
X180599D01*
X180979Y5979D01*
X182010Y5187D01*
X183211Y4690D01*
X184500Y4520D01*
X185789Y4690D01*
X186990Y5187D01*
X188021Y5979D01*
X188812Y7010D01*
X189310Y8211D01*
X189480Y9500D01*
X189310Y10789D01*
X188812Y11990D01*
X188021Y13021D01*
X186990Y13813D01*
X185789Y14310D01*
X184500Y14480D01*
X183211Y14310D01*
X182010Y13813D01*
X180979Y13021D01*
X180599Y12526D01*
X174401D01*
X174021Y13021D01*
X172990Y13813D01*
X171789Y14310D01*
X170500Y14480D01*
X169211Y14310D01*
X168010Y13813D01*
X166979Y13021D01*
X166599Y12526D01*
X164453D01*
X162726Y14253D01*
Y53147D01*
X166053Y56474D01*
X180300D01*
X181083Y56577D01*
X181599Y56791D01*
X181813Y56880D01*
X182440Y57360D01*
X185881Y60802D01*
X186500Y60720D01*
X187789Y60890D01*
X188990Y61387D01*
X190021Y62179D01*
X190813Y63210D01*
X191310Y64411D01*
X191480Y65700D01*
X191310Y66989D01*
X190813Y68190D01*
X190021Y69221D01*
X188990Y70012D01*
X187789Y70510D01*
X186500Y70680D01*
D02*
G37*
G36*
X7732Y67750D02*
X5050D01*
Y65069D01*
X5214Y65090D01*
X6065Y65443D01*
X6796Y66004D01*
X7357Y66735D01*
X7710Y67586D01*
X7732Y67750D01*
D02*
G37*
G36*
X3550D02*
X869D01*
X890Y67586D01*
X1243Y66735D01*
X1804Y66004D01*
X2535Y65443D01*
X3386Y65090D01*
X3550Y65069D01*
Y67750D01*
D02*
G37*
G36*
X86004Y66484D02*
X84927D01*
Y63478D01*
X86004D01*
Y66484D01*
D02*
G37*
G36*
X83427D02*
X82368D01*
Y62727D01*
Y58973D01*
X83427D01*
Y62727D01*
Y66484D01*
D02*
G37*
G36*
X52250Y60331D02*
Y57650D01*
X54931D01*
X54910Y57814D01*
X54557Y58665D01*
X53996Y59396D01*
X53265Y59957D01*
X52414Y60310D01*
X52250Y60331D01*
D02*
G37*
G36*
X50750D02*
X50586Y60310D01*
X49735Y59957D01*
X49004Y59396D01*
X48443Y58665D01*
X48090Y57814D01*
X48068Y57650D01*
X50750D01*
Y60331D01*
D02*
G37*
G36*
X152500Y70680D02*
X151211Y70510D01*
X150010Y70012D01*
X148979Y69221D01*
X148187Y68190D01*
X147690Y66989D01*
X147520Y65700D01*
X147690Y64411D01*
X148187Y63210D01*
X148979Y62179D01*
X150010Y61387D01*
X151211Y60890D01*
X152500Y60720D01*
X153789Y60890D01*
X154990Y61387D01*
X156021Y62179D01*
X156813Y63210D01*
X157310Y64411D01*
X157480Y65700D01*
X157310Y66989D01*
X156813Y68190D01*
X156021Y69221D01*
X154990Y70012D01*
X153789Y70510D01*
X152500Y70680D01*
D02*
G37*
G36*
X138500D02*
X137211Y70510D01*
X136010Y70012D01*
X134979Y69221D01*
X134187Y68190D01*
X133690Y66989D01*
X133520Y65700D01*
X133690Y64411D01*
X133877Y63961D01*
X130455Y60539D01*
X110617D01*
X110540Y60640D01*
X109913Y61120D01*
X109183Y61423D01*
X108400Y61526D01*
X107617Y61423D01*
X106887Y61120D01*
X106260Y60640D01*
X105780Y60013D01*
X105477Y59283D01*
X105374Y58500D01*
X105477Y57717D01*
X105780Y56987D01*
X106260Y56360D01*
X106887Y55879D01*
X107617Y55577D01*
X108400Y55474D01*
X109183Y55577D01*
X109913Y55879D01*
X110540Y56360D01*
X110617Y56461D01*
X131300D01*
X132080Y56616D01*
X132742Y57058D01*
X132742Y57058D01*
X132742Y57058D01*
X136761Y61077D01*
X137211Y60890D01*
X138500Y60720D01*
X139789Y60890D01*
X140990Y61387D01*
X142021Y62179D01*
X142813Y63210D01*
X143310Y64411D01*
X143480Y65700D01*
X143310Y66989D01*
X142813Y68190D01*
X142021Y69221D01*
X140990Y70012D01*
X139789Y70510D01*
X138500Y70680D01*
D02*
G37*
G36*
X86004Y61978D02*
X84927D01*
Y58973D01*
X86004D01*
Y61978D01*
D02*
G37*
G36*
X104150Y42450D02*
X101469D01*
X101490Y42286D01*
X101843Y41435D01*
X102404Y40704D01*
X103135Y40143D01*
X103986Y39790D01*
X104150Y39768D01*
Y42450D01*
D02*
G37*
G36*
X143350Y8150D02*
X140668D01*
X140690Y7986D01*
X141043Y7135D01*
X141604Y6404D01*
X142335Y5843D01*
X143186Y5490D01*
X143350Y5469D01*
Y8150D01*
D02*
G37*
G36*
X28500Y22443D02*
X26755Y22271D01*
X25078Y21762D01*
X23531Y20936D01*
X22176Y19824D01*
X21064Y18469D01*
X20238Y16922D01*
X19729Y15245D01*
X19557Y13500D01*
X19729Y11755D01*
X20238Y10078D01*
X21064Y8531D01*
X22176Y7176D01*
X23531Y6064D01*
X25078Y5238D01*
X26755Y4729D01*
X28500Y4557D01*
X30245Y4729D01*
X31922Y5238D01*
X33468Y6064D01*
X34824Y7176D01*
X35936Y8531D01*
X36762Y10078D01*
X37271Y11755D01*
X37443Y13500D01*
X37271Y15245D01*
X36762Y16922D01*
X35936Y18469D01*
X34824Y19824D01*
X33468Y20936D01*
X31922Y21762D01*
X30245Y22271D01*
X28500Y22443D01*
D02*
G37*
G36*
X13381Y18750D02*
X3619D01*
X3690Y18211D01*
X4188Y17010D01*
X4979Y15979D01*
X6010Y15188D01*
X7067Y14750D01*
Y14250D01*
X6010Y13813D01*
X4979Y13021D01*
X4188Y11990D01*
X3690Y10789D01*
X3520Y9500D01*
X3690Y8211D01*
X4188Y7010D01*
X4979Y5979D01*
X6010Y5187D01*
X7211Y4690D01*
X8500Y4520D01*
X9789Y4690D01*
X10990Y5187D01*
X12021Y5979D01*
X12812Y7010D01*
X13310Y8211D01*
X13480Y9500D01*
X13310Y10789D01*
X12812Y11990D01*
X12021Y13021D01*
X10990Y13813D01*
X9933Y14250D01*
Y14750D01*
X10990Y15188D01*
X12021Y15979D01*
X12812Y17010D01*
X13310Y18211D01*
X13381Y18750D01*
D02*
G37*
G36*
X51250Y11436D02*
Y8250D01*
X54436D01*
X54397Y8544D01*
X53994Y9517D01*
X53353Y10353D01*
X52517Y10994D01*
X51544Y11397D01*
X51250Y11436D01*
D02*
G37*
G36*
X49750D02*
X49456Y11397D01*
X48483Y10994D01*
X47647Y10353D01*
X47006Y9517D01*
X46603Y8544D01*
X46564Y8250D01*
X49750D01*
Y11436D01*
D02*
G37*
G36*
X147531Y8150D02*
X144850D01*
Y5469D01*
X145014Y5490D01*
X145865Y5843D01*
X146596Y6404D01*
X147157Y7135D01*
X147510Y7986D01*
X147531Y8150D01*
D02*
G37*
G36*
X54436Y6750D02*
X51250D01*
Y3564D01*
X51544Y3603D01*
X52517Y4006D01*
X53353Y4647D01*
X53994Y5483D01*
X54397Y6456D01*
X54436Y6750D01*
D02*
G37*
G36*
X49750D02*
X46564D01*
X46603Y6456D01*
X47006Y5483D01*
X47647Y4647D01*
X48483Y4006D01*
X49456Y3603D01*
X49750Y3564D01*
Y6750D01*
D02*
G37*
G36*
X60500Y24235D02*
X59456Y24097D01*
X58483Y23694D01*
X57647Y23053D01*
X57006Y22217D01*
X56603Y21244D01*
X56466Y20200D01*
X56547Y19579D01*
Y2626D01*
X64453D01*
Y19579D01*
X64534Y20200D01*
X64397Y21244D01*
X63994Y22217D01*
X63353Y23053D01*
X62517Y23694D01*
X61544Y24097D01*
X60500Y24235D01*
D02*
G37*
G36*
X131981Y8150D02*
X127850D01*
Y4019D01*
X128389Y4090D01*
X129590Y4588D01*
X130621Y5379D01*
X131412Y6410D01*
X131910Y7611D01*
X131981Y8150D01*
D02*
G37*
G36*
X126350D02*
X122219D01*
X122290Y7611D01*
X122787Y6410D01*
X123579Y5379D01*
X124610Y4588D01*
X125811Y4090D01*
X126350Y4019D01*
Y8150D01*
D02*
G37*
G36*
X65500Y55930D02*
X64586Y55810D01*
X63735Y55457D01*
X63004Y54896D01*
X62443Y54165D01*
X62090Y53314D01*
X62083Y53263D01*
X56864Y48043D01*
X54744D01*
Y42988D01*
X52178Y40422D01*
X51681Y39678D01*
X51506Y38800D01*
Y29350D01*
X45950Y23794D01*
X43838D01*
X43413Y24121D01*
X42683Y24423D01*
X41900Y24526D01*
X41117Y24423D01*
X40387Y24121D01*
X39760Y23640D01*
X39279Y23013D01*
X38977Y22283D01*
X38874Y21500D01*
X38977Y20717D01*
X39279Y19987D01*
X39760Y19360D01*
X40387Y18880D01*
X41117Y18577D01*
X41900Y18474D01*
X42683Y18577D01*
X43413Y18880D01*
X43838Y19206D01*
X46900D01*
X47778Y19380D01*
X48522Y19878D01*
X48522Y19878D01*
X48522Y19878D01*
X55150Y26506D01*
X62150D01*
X68206Y20450D01*
Y10782D01*
X67647Y10353D01*
X67006Y9517D01*
X66603Y8544D01*
X66466Y7500D01*
X66603Y6456D01*
X67006Y5483D01*
X67647Y4647D01*
X68483Y4006D01*
X69456Y3603D01*
X70500Y3466D01*
X71198Y3557D01*
X72178Y2578D01*
X72922Y2080D01*
X73800Y1906D01*
X96547D01*
Y1531D01*
X104453D01*
Y6861D01*
X111801D01*
X111987Y6410D01*
X112779Y5379D01*
X113810Y4588D01*
X115011Y4090D01*
X116300Y3920D01*
X117589Y4090D01*
X118790Y4588D01*
X119821Y5379D01*
X120613Y6410D01*
X121110Y7611D01*
X121280Y8900D01*
X121110Y10189D01*
X120613Y11390D01*
X119821Y12421D01*
X118790Y13213D01*
X117589Y13710D01*
X116300Y13880D01*
X115011Y13710D01*
X113810Y13213D01*
X112779Y12421D01*
X111987Y11390D01*
X111801Y10939D01*
X104453D01*
Y16468D01*
X100415D01*
X97539Y19345D01*
Y21547D01*
X98469D01*
Y29453D01*
X95431D01*
X92709Y32175D01*
X92726Y32300D01*
X92623Y33083D01*
X92321Y33813D01*
X91840Y34440D01*
X91213Y34920D01*
X90483Y35223D01*
X89700Y35326D01*
X88917Y35223D01*
X88187Y34920D01*
X87560Y34440D01*
X87288Y34084D01*
X81839D01*
X80843Y35080D01*
Y35744D01*
X86004D01*
Y43256D01*
X83402D01*
Y45225D01*
X83840Y45560D01*
X84320Y46187D01*
X84623Y46917D01*
X84726Y47700D01*
X84623Y48483D01*
X84320Y49213D01*
X83840Y49840D01*
X83213Y50321D01*
X82483Y50623D01*
X81700Y50726D01*
X80917Y50623D01*
X80187Y50321D01*
X79560Y49840D01*
X79080Y49213D01*
X78777Y48483D01*
X78674Y47700D01*
X78777Y46917D01*
X79080Y46187D01*
X79560Y45560D01*
X79834Y45351D01*
Y43256D01*
X74673D01*
Y41439D01*
X71945D01*
X68442Y44942D01*
X67780Y45384D01*
X67000Y45539D01*
X63572D01*
X63380Y46001D01*
X66363Y48983D01*
X66414Y48990D01*
X67265Y49343D01*
X67996Y49904D01*
X68557Y50635D01*
X68910Y51486D01*
X69030Y52400D01*
X68910Y53314D01*
X68557Y54165D01*
X67996Y54896D01*
X67265Y55457D01*
X66414Y55810D01*
X65500Y55930D01*
D02*
G37*
G36*
X126350Y13781D02*
X125811Y13710D01*
X124610Y13213D01*
X123579Y12421D01*
X122787Y11390D01*
X122290Y10189D01*
X122219Y9650D01*
X126350D01*
Y13781D01*
D02*
G37*
G36*
X103750Y29453D02*
X101532D01*
Y26250D01*
X103750D01*
Y29453D01*
D02*
G37*
G36*
X107468Y24750D02*
X105250D01*
Y21547D01*
X107468D01*
Y24750D01*
D02*
G37*
G36*
X103750D02*
X101532D01*
Y21547D01*
X103750D01*
Y24750D01*
D02*
G37*
G36*
X47689Y42750D02*
X44683D01*
Y38957D01*
X47689D01*
Y42750D01*
D02*
G37*
G36*
X43183D02*
X40177D01*
Y38957D01*
X43183D01*
Y42750D01*
D02*
G37*
G36*
X107468Y29453D02*
X105250D01*
Y26250D01*
X107468D01*
Y29453D01*
D02*
G37*
G36*
X144850Y12331D02*
Y9650D01*
X147531D01*
X147510Y9814D01*
X147157Y10665D01*
X146596Y11396D01*
X145865Y11957D01*
X145014Y12310D01*
X144850Y12331D01*
D02*
G37*
G36*
X143350D02*
X143186Y12310D01*
X142335Y11957D01*
X141604Y11396D01*
X141043Y10665D01*
X140690Y9814D01*
X140668Y9650D01*
X143350D01*
Y12331D01*
D02*
G37*
G36*
X127850Y13781D02*
Y9650D01*
X131981D01*
X131910Y10189D01*
X131412Y11390D01*
X130621Y12421D01*
X129590Y13213D01*
X128389Y13710D01*
X127850Y13781D01*
D02*
G37*
G36*
X8500Y44480D02*
X7211Y44310D01*
X6010Y43813D01*
X4979Y43021D01*
X4188Y41990D01*
X3690Y40789D01*
X3520Y39500D01*
X3690Y38211D01*
X4188Y37010D01*
X4979Y35979D01*
X6010Y35188D01*
X7067Y34750D01*
Y34250D01*
X6010Y33812D01*
X4979Y33021D01*
X4188Y31990D01*
X3690Y30789D01*
X3520Y29500D01*
X3690Y28211D01*
X4188Y27010D01*
X4979Y25979D01*
X6010Y25188D01*
X7067Y24750D01*
Y24250D01*
X6010Y23812D01*
X4979Y23021D01*
X4188Y21990D01*
X3690Y20789D01*
X3619Y20250D01*
X13381D01*
X13310Y20789D01*
X12812Y21990D01*
X12021Y23021D01*
X10990Y23812D01*
X9933Y24250D01*
Y24750D01*
X10990Y25188D01*
X12021Y25979D01*
X12812Y27010D01*
X13310Y28211D01*
X13480Y29500D01*
X13310Y30789D01*
X12812Y31990D01*
X12021Y33021D01*
X10990Y33812D01*
X9933Y34250D01*
Y34750D01*
X10990Y35188D01*
X12021Y35979D01*
X12812Y37010D01*
X13310Y38211D01*
X13480Y39500D01*
X13310Y40789D01*
X12812Y41990D01*
X12021Y43021D01*
X10990Y43813D01*
X9789Y44310D01*
X8500Y44480D01*
D02*
G37*
G36*
X189381Y18750D02*
X185250D01*
Y14619D01*
X185789Y14690D01*
X186990Y15188D01*
X188021Y15979D01*
X188812Y17010D01*
X189310Y18211D01*
X189381Y18750D01*
D02*
G37*
G36*
X169750D02*
X165619D01*
X165690Y18211D01*
X166188Y17010D01*
X166979Y15979D01*
X168010Y15188D01*
X169211Y14690D01*
X169750Y14619D01*
Y18750D01*
D02*
G37*
G36*
X119750Y102750D02*
X116016D01*
X116074Y102314D01*
X116531Y101209D01*
X117260Y100260D01*
X118209Y99531D01*
X119314Y99074D01*
X119750Y99016D01*
Y102750D01*
D02*
G37*
G36*
X130500Y108082D02*
X129314Y107926D01*
X128209Y107469D01*
X127260Y106740D01*
X126531Y105791D01*
X126074Y104686D01*
X125917Y103500D01*
X126074Y102314D01*
X126531Y101209D01*
X127260Y100260D01*
X128209Y99531D01*
X129314Y99074D01*
X130500Y98918D01*
X131686Y99074D01*
X132791Y99531D01*
X133740Y100260D01*
X134469Y101209D01*
X134926Y102314D01*
X135082Y103500D01*
X134926Y104686D01*
X134469Y105791D01*
X133740Y106740D01*
X132791Y107469D01*
X131686Y107926D01*
X130500Y108082D01*
D02*
G37*
G36*
X148453Y99750D02*
X145250D01*
Y97531D01*
X148453D01*
Y99750D01*
D02*
G37*
G36*
X3550Y103931D02*
X3386Y103910D01*
X2535Y103557D01*
X1804Y102996D01*
X1243Y102265D01*
X890Y101414D01*
X869Y101250D01*
X3550D01*
Y103931D01*
D02*
G37*
G36*
X187732Y103945D02*
X183250D01*
Y101195D01*
X187732D01*
Y103945D01*
D02*
G37*
G36*
X124984Y102750D02*
X121250D01*
Y99016D01*
X121686Y99074D01*
X122791Y99531D01*
X123740Y100260D01*
X124469Y101209D01*
X124926Y102314D01*
X124984Y102750D01*
D02*
G37*
G36*
X187732Y99695D02*
X183250D01*
Y96945D01*
X187732D01*
Y99695D01*
D02*
G37*
G36*
X152150Y97332D02*
Y94650D01*
X154832D01*
X154810Y94814D01*
X154457Y95665D01*
X153896Y96396D01*
X153165Y96957D01*
X152314Y97310D01*
X152150Y97332D01*
D02*
G37*
G36*
X150650D02*
X150486Y97310D01*
X149635Y96957D01*
X148904Y96396D01*
X148343Y95665D01*
X147990Y94814D01*
X147968Y94650D01*
X150650D01*
Y97332D01*
D02*
G37*
G36*
X143750Y99750D02*
X140547D01*
Y97531D01*
X143750D01*
Y99750D01*
D02*
G37*
G36*
X7732D02*
X5050D01*
Y97069D01*
X5214Y97090D01*
X6065Y97443D01*
X6796Y98004D01*
X7357Y98735D01*
X7710Y99586D01*
X7732Y99750D01*
D02*
G37*
G36*
X3550D02*
X869D01*
X890Y99586D01*
X1243Y98735D01*
X1804Y98004D01*
X2535Y97443D01*
X3386Y97090D01*
X3550Y97069D01*
Y99750D01*
D02*
G37*
G36*
X5050Y103931D02*
Y101250D01*
X7732D01*
X7710Y101414D01*
X7357Y102265D01*
X6796Y102996D01*
X6065Y103557D01*
X5214Y103910D01*
X5050Y103931D01*
D02*
G37*
G36*
X59200Y124926D02*
X58417Y124823D01*
X57687Y124521D01*
X57060Y124040D01*
X56580Y123413D01*
X56277Y122683D01*
X56174Y121900D01*
X56277Y121117D01*
X56580Y120387D01*
X57060Y119760D01*
X57687Y119280D01*
X58417Y118977D01*
X59200Y118874D01*
X59325Y118891D01*
X60058Y118158D01*
X60119Y118118D01*
X59973Y117639D01*
X47800D01*
X47020Y117484D01*
X46358Y117042D01*
X41855Y112539D01*
X40453D01*
Y114150D01*
X32547D01*
Y112539D01*
X30453D01*
Y113469D01*
X22547D01*
Y112539D01*
X19969D01*
Y114353D01*
X19039D01*
Y116532D01*
X20953D01*
Y122468D01*
X13047D01*
Y116532D01*
X14961D01*
Y114353D01*
X14031D01*
Y106447D01*
X19969D01*
Y108461D01*
X22547D01*
Y107531D01*
X30453D01*
Y108461D01*
X32547D01*
Y102931D01*
X35806D01*
Y101551D01*
X35604Y101396D01*
X35449Y101194D01*
X31250D01*
X30453Y101992D01*
Y104469D01*
X22547D01*
Y98532D01*
X27424D01*
X28678Y97278D01*
X29422Y96781D01*
X30300Y96606D01*
X35449D01*
X35604Y96404D01*
X35806Y96249D01*
Y93200D01*
X35980Y92322D01*
X36478Y91578D01*
X36478Y91578D01*
X36478Y91578D01*
X38241Y89815D01*
X38985Y89318D01*
X39863Y89143D01*
X44193D01*
Y88075D01*
X50917D01*
Y94799D01*
X44193D01*
Y93731D01*
X40813D01*
X40394Y94150D01*
Y96249D01*
X40596Y96404D01*
X41157Y97135D01*
X41510Y97986D01*
X41630Y98900D01*
X41510Y99814D01*
X41157Y100665D01*
X40596Y101396D01*
X40394Y101551D01*
Y102931D01*
X40453D01*
Y108461D01*
X42700D01*
X43480Y108616D01*
X44142Y109058D01*
X44142Y109058D01*
X44142Y109058D01*
X48645Y113561D01*
X52524D01*
X52715Y113099D01*
X47025Y107409D01*
X46900Y107426D01*
X46117Y107323D01*
X45387Y107020D01*
X44760Y106540D01*
X44280Y105913D01*
X43977Y105183D01*
X43874Y104400D01*
X43977Y103617D01*
X44280Y102887D01*
X44760Y102260D01*
X45387Y101779D01*
X46117Y101477D01*
X46900Y101374D01*
X47025Y101391D01*
X50658Y97758D01*
X51320Y97316D01*
X52100Y97161D01*
X56416D01*
Y87100D01*
X56416Y87100D01*
X56416D01*
X56551Y86417D01*
X56938Y85838D01*
X59216Y83561D01*
Y81453D01*
X53531D01*
Y77415D01*
X50336Y74220D01*
X49874Y74411D01*
Y74510D01*
X42874D01*
Y69010D01*
X49874D01*
Y69721D01*
X50760D01*
X51540Y69876D01*
X52202Y70318D01*
X55431Y73547D01*
X59216D01*
Y72312D01*
X59351Y71629D01*
X59738Y71050D01*
X61750Y69038D01*
X62329Y68651D01*
X63012Y68516D01*
X73561D01*
X74716Y67361D01*
Y66484D01*
X74673D01*
Y58973D01*
X80886D01*
Y62727D01*
Y66484D01*
X80843D01*
Y68620D01*
X82539Y70316D01*
X97561D01*
X100538Y67338D01*
X100538Y67338D01*
X100828Y67145D01*
X101117Y66952D01*
X101800Y66816D01*
X101800Y66816D01*
X108600D01*
X109283Y66952D01*
X109862Y67338D01*
X113062Y70538D01*
X113062Y70538D01*
X113449Y71117D01*
X113584Y71800D01*
Y77061D01*
X134623D01*
X134691Y76983D01*
X134794Y76200D01*
X135097Y75470D01*
X135577Y74843D01*
X136204Y74362D01*
X136934Y74060D01*
X137717Y73957D01*
X138500Y74060D01*
X139230Y74362D01*
X139857Y74843D01*
X140338Y75470D01*
X140640Y76200D01*
X140743Y76983D01*
X140640Y77766D01*
X140338Y78496D01*
X139857Y79123D01*
X139230Y79603D01*
X139247Y79733D01*
X139583Y79777D01*
X140313Y80080D01*
X140940Y80560D01*
X141420Y81187D01*
X141723Y81917D01*
X141826Y82700D01*
X141723Y83483D01*
X141420Y84213D01*
X140940Y84840D01*
X140313Y85321D01*
X139583Y85623D01*
X138800Y85726D01*
X138017Y85623D01*
X137287Y85321D01*
X136663Y84842D01*
X136180Y84971D01*
X136085Y85201D01*
X137575Y86691D01*
X137700Y86674D01*
X138483Y86777D01*
X139213Y87080D01*
X139840Y87560D01*
X140321Y88187D01*
X140623Y88917D01*
X140726Y89700D01*
X140623Y90483D01*
X140321Y91213D01*
X139840Y91840D01*
X139213Y92321D01*
X138483Y92623D01*
X137700Y92726D01*
X136917Y92623D01*
X136187Y92321D01*
X135560Y91840D01*
X135080Y91213D01*
X134777Y90483D01*
X134674Y89700D01*
X134691Y89574D01*
X133355Y88239D01*
X112945D01*
X105099Y96085D01*
X105300Y96461D01*
X105300Y96461D01*
X107083D01*
X107160Y96360D01*
X107787Y95880D01*
X108517Y95577D01*
X109300Y95474D01*
X110083Y95577D01*
X110813Y95880D01*
X111440Y96360D01*
X111920Y96987D01*
X112223Y97717D01*
X112326Y98500D01*
X112223Y99283D01*
X111920Y100013D01*
X111440Y100640D01*
X110813Y101120D01*
X110083Y101423D01*
X109300Y101526D01*
X108517Y101423D01*
X107787Y101120D01*
X107160Y100640D01*
X107083Y100539D01*
X106145D01*
X85642Y121042D01*
X84980Y121484D01*
X84200Y121639D01*
X64208D01*
X62226Y121900D01*
X62123Y122683D01*
X61821Y123413D01*
X61340Y124040D01*
X60713Y124521D01*
X59983Y124823D01*
X59200Y124926D01*
D02*
G37*
G36*
X10968Y114353D02*
X8750D01*
Y111150D01*
X10968D01*
Y114353D01*
D02*
G37*
G36*
X7250D02*
X5032D01*
Y111150D01*
X7250D01*
Y114353D01*
D02*
G37*
G36*
X30256Y134043D02*
X22744D01*
Y124957D01*
X23951D01*
Y121627D01*
X23443Y120965D01*
X23090Y120114D01*
X22970Y119200D01*
X23090Y118286D01*
X23443Y117435D01*
X24004Y116704D01*
X24735Y116143D01*
X25586Y115790D01*
X26500Y115670D01*
X27414Y115790D01*
X28265Y116143D01*
X28996Y116704D01*
X29557Y117435D01*
X29910Y118286D01*
X30030Y119200D01*
X29910Y120114D01*
X29557Y120965D01*
X29049Y121627D01*
Y124957D01*
X30256D01*
Y134043D01*
D02*
G37*
G36*
X40453Y117868D02*
X37250D01*
Y115650D01*
X40453D01*
Y117868D01*
D02*
G37*
G36*
X35750D02*
X32547D01*
Y115650D01*
X35750D01*
Y117868D01*
D02*
G37*
G36*
X119750Y107984D02*
X119314Y107926D01*
X118209Y107469D01*
X117260Y106740D01*
X116531Y105791D01*
X116074Y104686D01*
X116016Y104250D01*
X119750D01*
Y107984D01*
D02*
G37*
G36*
X148453Y103469D02*
X145250D01*
Y101250D01*
X148453D01*
Y103469D01*
D02*
G37*
G36*
X143750D02*
X140547D01*
Y101250D01*
X143750D01*
Y103469D01*
D02*
G37*
G36*
X10968Y109650D02*
X8750D01*
Y106447D01*
X10968D01*
Y109650D01*
D02*
G37*
G36*
X7250D02*
X5032D01*
Y106447D01*
X7250D01*
Y109650D01*
D02*
G37*
G36*
X121250Y107984D02*
Y104250D01*
X124984D01*
X124926Y104686D01*
X124469Y105791D01*
X123740Y106740D01*
X122791Y107469D01*
X121686Y107926D01*
X121250Y107984D01*
D02*
G37*
G36*
X20453Y96469D02*
X17250D01*
Y94250D01*
X20453D01*
Y96469D01*
D02*
G37*
G36*
X5050Y71931D02*
Y69250D01*
X7732D01*
X7710Y69414D01*
X7357Y70265D01*
X6796Y70996D01*
X6065Y71557D01*
X5214Y71910D01*
X5050Y71931D01*
D02*
G37*
G36*
X3550D02*
X3386Y71910D01*
X2535Y71557D01*
X1804Y70996D01*
X1243Y70265D01*
X890Y69414D01*
X869Y69250D01*
X3550D01*
Y71931D01*
D02*
G37*
G36*
X42000Y70770D02*
X39250D01*
Y68770D01*
X42000D01*
Y70770D01*
D02*
G37*
G36*
X191381Y82750D02*
X187250D01*
Y78619D01*
X187789Y78690D01*
X188990Y79188D01*
X190021Y79979D01*
X190813Y81010D01*
X191310Y82211D01*
X191381Y82750D01*
D02*
G37*
G36*
X185750D02*
X181619D01*
X181690Y82211D01*
X182187Y81010D01*
X182979Y79979D01*
X184010Y79188D01*
X185211Y78690D01*
X185750Y78619D01*
Y82750D01*
D02*
G37*
G36*
X20453Y87468D02*
X12547D01*
Y81532D01*
X20453D01*
Y82461D01*
X24445D01*
X24636Y81999D01*
X24378Y81740D01*
X23880Y80996D01*
X23706Y80118D01*
Y78369D01*
X22047D01*
Y72431D01*
X29953D01*
Y73461D01*
X35000D01*
Y72750D01*
X42000D01*
Y78250D01*
X35000D01*
Y77539D01*
X29953D01*
Y78369D01*
X28294D01*
Y79168D01*
X29327Y80201D01*
X32807D01*
Y86925D01*
X26083D01*
Y86539D01*
X20453D01*
Y87468D01*
D02*
G37*
G36*
X90450Y68331D02*
X90286Y68310D01*
X89435Y67957D01*
X88704Y67396D01*
X88143Y66665D01*
X87790Y65814D01*
X87769Y65650D01*
X90450D01*
Y68331D01*
D02*
G37*
G36*
X42000Y67270D02*
X39250D01*
Y65270D01*
X42000D01*
Y67270D01*
D02*
G37*
G36*
X37750D02*
X35000D01*
Y65270D01*
X37750D01*
Y67270D01*
D02*
G37*
G36*
Y70770D02*
X35000D01*
Y68770D01*
X37750D01*
Y70770D01*
D02*
G37*
G36*
X130700Y75030D02*
X129786Y74910D01*
X128935Y74557D01*
X128204Y73996D01*
X127643Y73265D01*
X127290Y72414D01*
X127170Y71500D01*
X127290Y70586D01*
X127643Y69735D01*
X128204Y69004D01*
X128935Y68443D01*
X129786Y68090D01*
X130700Y67970D01*
X131614Y68090D01*
X132465Y68443D01*
X133196Y69004D01*
X133757Y69735D01*
X134110Y70586D01*
X134230Y71500D01*
X134110Y72414D01*
X133757Y73265D01*
X133196Y73996D01*
X132465Y74557D01*
X131614Y74910D01*
X130700Y75030D01*
D02*
G37*
G36*
X91950Y68331D02*
Y65650D01*
X94631D01*
X94610Y65814D01*
X94257Y66665D01*
X93696Y67396D01*
X92965Y67957D01*
X92114Y68310D01*
X91950Y68331D01*
D02*
G37*
G36*
X50917Y86925D02*
X44193D01*
Y80201D01*
X50917D01*
Y86925D01*
D02*
G37*
G36*
X154832Y93150D02*
X152150D01*
Y90469D01*
X152314Y90490D01*
X153165Y90843D01*
X153896Y91404D01*
X154457Y92135D01*
X154810Y92986D01*
X154832Y93150D01*
D02*
G37*
G36*
X150650D02*
X147968D01*
X147990Y92986D01*
X148343Y92135D01*
X148904Y91404D01*
X149635Y90843D01*
X150486Y90490D01*
X150650Y90469D01*
Y93150D01*
D02*
G37*
G36*
X32807Y94799D02*
X26083D01*
Y88075D01*
X32807D01*
Y94799D01*
D02*
G37*
G36*
X15750Y96469D02*
X12547D01*
Y94250D01*
X15750D01*
Y96469D01*
D02*
G37*
G36*
X20453Y92750D02*
X17250D01*
Y90531D01*
X20453D01*
Y92750D01*
D02*
G37*
G36*
X15750D02*
X12547D01*
Y90531D01*
X15750D01*
Y92750D01*
D02*
G37*
G36*
X185750Y88381D02*
X185211Y88310D01*
X184010Y87813D01*
X182979Y87021D01*
X182187Y85990D01*
X181690Y84789D01*
X181619Y84250D01*
X185750D01*
Y88381D01*
D02*
G37*
G36*
X41532Y83750D02*
X38850D01*
Y81068D01*
X39014Y81090D01*
X39865Y81443D01*
X40596Y82004D01*
X41157Y82735D01*
X41510Y83586D01*
X41532Y83750D01*
D02*
G37*
G36*
X37350D02*
X34668D01*
X34690Y83586D01*
X35043Y82735D01*
X35604Y82004D01*
X36335Y81443D01*
X37186Y81090D01*
X37350Y81068D01*
Y83750D01*
D02*
G37*
G36*
X38850Y87932D02*
Y85250D01*
X41532D01*
X41510Y85414D01*
X41157Y86265D01*
X40596Y86996D01*
X39865Y87557D01*
X39014Y87910D01*
X38850Y87932D01*
D02*
G37*
G36*
X37350D02*
X37186Y87910D01*
X36335Y87557D01*
X35604Y86996D01*
X35043Y86265D01*
X34690Y85414D01*
X34668Y85250D01*
X37350D01*
Y87932D01*
D02*
G37*
G36*
X187250Y88381D02*
Y84250D01*
X191381D01*
X191310Y84789D01*
X190813Y85990D01*
X190021Y87021D01*
X188990Y87813D01*
X187789Y88310D01*
X187250Y88381D01*
D02*
G37*
G36*
X126350Y250081D02*
X125811Y250010D01*
X124610Y249513D01*
X123579Y248721D01*
X122787Y247690D01*
X122290Y246489D01*
X122219Y245950D01*
X126350D01*
Y250081D01*
D02*
G37*
G36*
X385550Y347232D02*
Y344550D01*
X388231D01*
X388210Y344714D01*
X387857Y345565D01*
X387296Y346296D01*
X386565Y346857D01*
X385714Y347210D01*
X385550Y347232D01*
D02*
G37*
G36*
X384050D02*
X383886Y347210D01*
X383035Y346857D01*
X382304Y346296D01*
X381743Y345565D01*
X381390Y344714D01*
X381368Y344550D01*
X384050D01*
Y347232D01*
D02*
G37*
G36*
X345650D02*
Y344550D01*
X348331D01*
X348310Y344714D01*
X347957Y345565D01*
X347396Y346296D01*
X346665Y346857D01*
X345814Y347210D01*
X345650Y347232D01*
D02*
G37*
G36*
X239650Y349750D02*
X236968D01*
X236990Y349586D01*
X237343Y348735D01*
X237904Y348004D01*
X238635Y347443D01*
X239486Y347090D01*
X239650Y347069D01*
Y349750D01*
D02*
G37*
G36*
X296168Y348153D02*
X293950D01*
Y344950D01*
X296168D01*
Y348153D01*
D02*
G37*
G36*
X292450D02*
X290231D01*
Y344950D01*
X292450D01*
Y348153D01*
D02*
G37*
G36*
X121250Y344284D02*
Y340550D01*
X124984D01*
X124926Y340986D01*
X124469Y342091D01*
X123740Y343040D01*
X122791Y343769D01*
X121686Y344226D01*
X121250Y344284D01*
D02*
G37*
G36*
X119750D02*
X119314Y344226D01*
X118209Y343769D01*
X117260Y343040D01*
X116531Y342091D01*
X116074Y340986D01*
X116016Y340550D01*
X119750D01*
Y344284D01*
D02*
G37*
G36*
X388231Y343050D02*
X385550D01*
Y340369D01*
X385714Y340390D01*
X386565Y340743D01*
X387296Y341304D01*
X387857Y342035D01*
X388210Y342886D01*
X388231Y343050D01*
D02*
G37*
G36*
X344150Y347232D02*
X343986Y347210D01*
X343135Y346857D01*
X342404Y346296D01*
X341843Y345565D01*
X341490Y344714D01*
X341469Y344550D01*
X344150D01*
Y347232D01*
D02*
G37*
G36*
X10968Y345950D02*
X8750D01*
Y342747D01*
X10968D01*
Y345950D01*
D02*
G37*
G36*
X7250D02*
X5032D01*
Y342747D01*
X7250D01*
Y345950D01*
D02*
G37*
G36*
X243831Y349750D02*
X241150D01*
Y347069D01*
X241314Y347090D01*
X242165Y347443D01*
X242896Y348004D01*
X243457Y348735D01*
X243810Y349586D01*
X243831Y349750D01*
D02*
G37*
G36*
X299050Y354532D02*
X298886Y354510D01*
X298035Y354157D01*
X297304Y353596D01*
X296743Y352865D01*
X296390Y352014D01*
X296369Y351850D01*
X299050D01*
Y354532D01*
D02*
G37*
G36*
X241150Y353931D02*
Y351250D01*
X243831D01*
X243810Y351414D01*
X243457Y352265D01*
X242896Y352996D01*
X242165Y353557D01*
X241314Y353910D01*
X241150Y353931D01*
D02*
G37*
G36*
X239650D02*
X239486Y353910D01*
X238635Y353557D01*
X237904Y352996D01*
X237343Y352265D01*
X236990Y351414D01*
X236968Y351250D01*
X239650D01*
Y353931D01*
D02*
G37*
G36*
X267632Y354550D02*
X264950D01*
Y351869D01*
X265114Y351890D01*
X265965Y352243D01*
X266696Y352804D01*
X267257Y353535D01*
X267610Y354386D01*
X267632Y354550D01*
D02*
G37*
G36*
X263450D02*
X260769D01*
X260790Y354386D01*
X261143Y353535D01*
X261704Y352804D01*
X262435Y352243D01*
X263286Y351890D01*
X263450Y351869D01*
Y354550D01*
D02*
G37*
G36*
X300550Y354532D02*
Y351850D01*
X303232D01*
X303210Y352014D01*
X302857Y352865D01*
X302296Y353596D01*
X301565Y354157D01*
X300714Y354510D01*
X300550Y354532D01*
D02*
G37*
G36*
X10968Y350653D02*
X8750D01*
Y347450D01*
X10968D01*
Y350653D01*
D02*
G37*
G36*
X7250D02*
X5032D01*
Y347450D01*
X7250D01*
Y350653D01*
D02*
G37*
G36*
X328000Y357180D02*
X326711Y357010D01*
X325510Y356512D01*
X324479Y355721D01*
X323688Y354690D01*
X323190Y353489D01*
X323020Y352200D01*
X323190Y350911D01*
X323688Y349710D01*
X324479Y348679D01*
X325510Y347887D01*
X326711Y347390D01*
X328000Y347220D01*
X329289Y347390D01*
X330490Y347887D01*
X331521Y348679D01*
X332312Y349710D01*
X332810Y350911D01*
X332980Y352200D01*
X332810Y353489D01*
X332312Y354690D01*
X331521Y355721D01*
X330490Y356512D01*
X329289Y357010D01*
X328000Y357180D01*
D02*
G37*
G36*
X59200Y361226D02*
X58417Y361123D01*
X57687Y360821D01*
X57060Y360340D01*
X56580Y359713D01*
X56277Y358983D01*
X56174Y358200D01*
X56277Y357417D01*
X56580Y356687D01*
X57060Y356060D01*
X57687Y355579D01*
X58417Y355277D01*
X59200Y355174D01*
X59325Y355191D01*
X60058Y354458D01*
X60119Y354418D01*
X59973Y353939D01*
X47800D01*
X47020Y353784D01*
X46358Y353342D01*
X41855Y348839D01*
X40453D01*
Y350450D01*
X32547D01*
Y348839D01*
X30453D01*
Y349768D01*
X22547D01*
Y348839D01*
X19969D01*
Y350653D01*
X19039D01*
Y352832D01*
X20953D01*
Y358769D01*
X13047D01*
Y352832D01*
X14961D01*
Y350653D01*
X14031D01*
Y342747D01*
X19969D01*
Y344761D01*
X22547D01*
Y343831D01*
X30453D01*
Y344761D01*
X32547D01*
Y339231D01*
X35806D01*
Y337851D01*
X35604Y337696D01*
X35449Y337494D01*
X31250D01*
X30453Y338292D01*
Y340769D01*
X22547D01*
Y334832D01*
X27424D01*
X28678Y333578D01*
X29422Y333081D01*
X30300Y332906D01*
X35449D01*
X35604Y332704D01*
X35806Y332549D01*
Y329500D01*
X35980Y328622D01*
X36478Y327878D01*
X36478Y327878D01*
X36478Y327878D01*
X38241Y326115D01*
X38985Y325618D01*
X39863Y325443D01*
X44193D01*
Y324375D01*
X50917D01*
Y331099D01*
X44193D01*
Y330031D01*
X40813D01*
X40394Y330450D01*
Y332549D01*
X40596Y332704D01*
X41157Y333435D01*
X41510Y334286D01*
X41630Y335200D01*
X41510Y336114D01*
X41157Y336965D01*
X40596Y337696D01*
X40394Y337851D01*
Y339231D01*
X40453D01*
Y344761D01*
X42700D01*
X43480Y344916D01*
X44142Y345358D01*
X44142Y345358D01*
X44142Y345358D01*
X48645Y349861D01*
X52524D01*
X52715Y349399D01*
X47025Y343709D01*
X46900Y343726D01*
X46117Y343623D01*
X45387Y343320D01*
X44760Y342840D01*
X44280Y342213D01*
X43977Y341483D01*
X43874Y340700D01*
X43977Y339917D01*
X44280Y339187D01*
X44760Y338560D01*
X45387Y338080D01*
X46117Y337777D01*
X46900Y337674D01*
X47025Y337691D01*
X50658Y334058D01*
X51320Y333616D01*
X52100Y333461D01*
X56416D01*
Y323400D01*
X56416Y323400D01*
X56416D01*
X56551Y322717D01*
X56938Y322138D01*
X59216Y319861D01*
Y317753D01*
X53531D01*
Y313715D01*
X50336Y310520D01*
X49874Y310711D01*
Y310810D01*
X42874D01*
Y305310D01*
X49874D01*
Y306021D01*
X50760D01*
X51540Y306176D01*
X52202Y306618D01*
X55431Y309847D01*
X59216D01*
Y308612D01*
X59351Y307929D01*
X59738Y307350D01*
X61750Y305338D01*
X62329Y304952D01*
X63012Y304816D01*
X73561D01*
X74716Y303661D01*
Y302784D01*
X74673D01*
Y295272D01*
X80886D01*
Y299027D01*
Y302784D01*
X80843D01*
Y304920D01*
X82539Y306616D01*
X97561D01*
X100538Y303638D01*
X100538Y303638D01*
X100828Y303445D01*
X101117Y303252D01*
X101800Y303116D01*
X101800Y303116D01*
X108600D01*
X109283Y303252D01*
X109862Y303638D01*
X113062Y306838D01*
X113062Y306838D01*
X113449Y307417D01*
X113584Y308100D01*
Y313361D01*
X134623D01*
X134691Y313283D01*
X134794Y312500D01*
X135097Y311770D01*
X135577Y311143D01*
X136204Y310662D01*
X136934Y310360D01*
X137717Y310257D01*
X138500Y310360D01*
X139230Y310662D01*
X139857Y311143D01*
X140338Y311770D01*
X140640Y312500D01*
X140743Y313283D01*
X140640Y314066D01*
X140338Y314796D01*
X139857Y315423D01*
X139230Y315903D01*
X139247Y316033D01*
X139583Y316077D01*
X140313Y316379D01*
X140940Y316860D01*
X141420Y317487D01*
X141723Y318217D01*
X141826Y319000D01*
X141723Y319783D01*
X141420Y320513D01*
X140940Y321140D01*
X140313Y321620D01*
X139583Y321923D01*
X138800Y322026D01*
X138017Y321923D01*
X137287Y321620D01*
X136663Y321142D01*
X136180Y321271D01*
X136085Y321501D01*
X137575Y322991D01*
X137700Y322974D01*
X138483Y323077D01*
X139213Y323379D01*
X139840Y323860D01*
X140321Y324487D01*
X140623Y325217D01*
X140726Y326000D01*
X140623Y326783D01*
X140321Y327513D01*
X139840Y328140D01*
X139213Y328621D01*
X138483Y328923D01*
X137700Y329026D01*
X136917Y328923D01*
X136187Y328621D01*
X135560Y328140D01*
X135080Y327513D01*
X134777Y326783D01*
X134674Y326000D01*
X134691Y325874D01*
X133355Y324539D01*
X112945D01*
X105099Y332385D01*
X105300Y332761D01*
X105300Y332761D01*
X107083D01*
X107160Y332660D01*
X107787Y332179D01*
X108517Y331877D01*
X109300Y331774D01*
X110083Y331877D01*
X110813Y332179D01*
X111440Y332660D01*
X111920Y333287D01*
X112223Y334017D01*
X112326Y334800D01*
X112223Y335583D01*
X111920Y336313D01*
X111440Y336940D01*
X110813Y337421D01*
X110083Y337723D01*
X109300Y337826D01*
X108517Y337723D01*
X107787Y337421D01*
X107160Y336940D01*
X107083Y336839D01*
X106145D01*
X85642Y357342D01*
X84980Y357784D01*
X84200Y357939D01*
X64208D01*
X62226Y358200D01*
X62123Y358983D01*
X61821Y359713D01*
X61340Y360340D01*
X60713Y360821D01*
X59983Y361123D01*
X59200Y361226D01*
D02*
G37*
G36*
X303232Y350350D02*
X300550D01*
Y347669D01*
X300714Y347690D01*
X301565Y348043D01*
X302296Y348604D01*
X302857Y349335D01*
X303210Y350186D01*
X303232Y350350D01*
D02*
G37*
G36*
X299050D02*
X296369D01*
X296390Y350186D01*
X296743Y349335D01*
X297304Y348604D01*
X298035Y348043D01*
X298886Y347690D01*
X299050Y347669D01*
Y350350D01*
D02*
G37*
G36*
X384050Y343050D02*
X381368D01*
X381390Y342886D01*
X381743Y342035D01*
X382304Y341304D01*
X383035Y340743D01*
X383886Y340390D01*
X384050Y340369D01*
Y343050D01*
D02*
G37*
G36*
X3550Y336050D02*
X869D01*
X890Y335886D01*
X1243Y335035D01*
X1804Y334304D01*
X2535Y333743D01*
X3386Y333390D01*
X3550Y333368D01*
Y336050D01*
D02*
G37*
G36*
X187732Y335995D02*
X183250D01*
Y333245D01*
X187732D01*
Y335995D01*
D02*
G37*
G36*
X152150Y333631D02*
Y330950D01*
X154832D01*
X154810Y331114D01*
X154457Y331965D01*
X153896Y332696D01*
X153165Y333257D01*
X152314Y333610D01*
X152150Y333631D01*
D02*
G37*
G36*
X148453Y336050D02*
X145250D01*
Y333832D01*
X148453D01*
Y336050D01*
D02*
G37*
G36*
X143750D02*
X140547D01*
Y333832D01*
X143750D01*
Y336050D01*
D02*
G37*
G36*
X7732D02*
X5050D01*
Y333368D01*
X5214Y333390D01*
X6065Y333743D01*
X6796Y334304D01*
X7357Y335035D01*
X7710Y335886D01*
X7732Y336050D01*
D02*
G37*
G36*
X385550Y331681D02*
Y327550D01*
X389681D01*
X389610Y328089D01*
X389112Y329290D01*
X388321Y330321D01*
X387290Y331113D01*
X386089Y331610D01*
X385550Y331681D01*
D02*
G37*
G36*
X384050D02*
X383511Y331610D01*
X382310Y331113D01*
X381279Y330321D01*
X380487Y329290D01*
X379990Y328089D01*
X379919Y327550D01*
X384050D01*
Y331681D01*
D02*
G37*
G36*
X322200Y333930D02*
X321286Y333810D01*
X320435Y333457D01*
X319704Y332896D01*
X319143Y332165D01*
X318790Y331314D01*
X318670Y330400D01*
X318790Y329486D01*
X319143Y328635D01*
X319704Y327904D01*
X320435Y327343D01*
X321286Y326990D01*
X322200Y326870D01*
X323114Y326990D01*
X323965Y327343D01*
X324696Y327904D01*
X325257Y328635D01*
X325610Y329486D01*
X325730Y330400D01*
X325610Y331314D01*
X325257Y332165D01*
X324696Y332896D01*
X323965Y333457D01*
X323114Y333810D01*
X322200Y333930D01*
D02*
G37*
G36*
X150650Y333631D02*
X150486Y333610D01*
X149635Y333257D01*
X148904Y332696D01*
X148343Y331965D01*
X147990Y331114D01*
X147968Y330950D01*
X150650D01*
Y333631D01*
D02*
G37*
G36*
X20453Y332769D02*
X17250D01*
Y330550D01*
X20453D01*
Y332769D01*
D02*
G37*
G36*
X15750D02*
X12547D01*
Y330550D01*
X15750D01*
Y332769D01*
D02*
G37*
G36*
X130500Y344383D02*
X129314Y344226D01*
X128209Y343769D01*
X127260Y343040D01*
X126531Y342091D01*
X126074Y340986D01*
X125917Y339800D01*
X126074Y338614D01*
X126531Y337509D01*
X127260Y336560D01*
X128209Y335831D01*
X129314Y335374D01*
X130500Y335217D01*
X131686Y335374D01*
X132791Y335831D01*
X133740Y336560D01*
X134469Y337509D01*
X134926Y338614D01*
X135082Y339800D01*
X134926Y340986D01*
X134469Y342091D01*
X133740Y343040D01*
X132791Y343769D01*
X131686Y344226D01*
X130500Y344383D01*
D02*
G37*
G36*
X292450Y343450D02*
X290231D01*
Y340247D01*
X292450D01*
Y343450D01*
D02*
G37*
G36*
X148453Y339769D02*
X145250D01*
Y337550D01*
X148453D01*
Y339769D01*
D02*
G37*
G36*
X143750D02*
X140547D01*
Y337550D01*
X143750D01*
Y339769D01*
D02*
G37*
G36*
X348331Y343050D02*
X345650D01*
Y340369D01*
X345814Y340390D01*
X346665Y340743D01*
X347396Y341304D01*
X347957Y342035D01*
X348310Y342886D01*
X348331Y343050D01*
D02*
G37*
G36*
X344150D02*
X341469D01*
X341490Y342886D01*
X341843Y342035D01*
X342404Y341304D01*
X343135Y340743D01*
X343986Y340390D01*
X344150Y340369D01*
Y343050D01*
D02*
G37*
G36*
X296168Y343450D02*
X293950D01*
Y340247D01*
X296168D01*
Y343450D01*
D02*
G37*
G36*
X311000Y341526D02*
X310217Y341423D01*
X309487Y341121D01*
X308860Y340640D01*
X308380Y340013D01*
X308077Y339283D01*
X307974Y338500D01*
X308077Y337717D01*
X308380Y336987D01*
X308858Y336363D01*
X308729Y335880D01*
X308499Y335785D01*
X307009Y337275D01*
X307026Y337400D01*
X306923Y338183D01*
X306621Y338913D01*
X306140Y339540D01*
X305513Y340020D01*
X304783Y340323D01*
X304000Y340426D01*
X303217Y340323D01*
X302487Y340020D01*
X301860Y339540D01*
X301379Y338913D01*
X301077Y338183D01*
X300974Y337400D01*
X301077Y336617D01*
X301379Y335887D01*
X301860Y335260D01*
X302487Y334780D01*
X303217Y334477D01*
X304000Y334374D01*
X304125Y334391D01*
X305461Y333055D01*
Y312645D01*
X297615Y304799D01*
X297239Y305000D01*
X297239Y305000D01*
Y306783D01*
X297340Y306860D01*
X297820Y307487D01*
X298123Y308217D01*
X298226Y309000D01*
X298123Y309783D01*
X297820Y310513D01*
X297340Y311140D01*
X296713Y311620D01*
X295983Y311923D01*
X295200Y312026D01*
X294417Y311923D01*
X293687Y311620D01*
X293060Y311140D01*
X292580Y310513D01*
X292277Y309783D01*
X292174Y309000D01*
X292277Y308217D01*
X292580Y307487D01*
X293060Y306860D01*
X293161Y306783D01*
Y305845D01*
X272658Y285342D01*
X272216Y284680D01*
X272061Y283900D01*
Y263908D01*
X271800Y261926D01*
X271017Y261823D01*
X270287Y261521D01*
X269660Y261040D01*
X269180Y260413D01*
X268877Y259683D01*
X268774Y258900D01*
X268877Y258117D01*
X269180Y257387D01*
X269660Y256760D01*
X270287Y256279D01*
X271017Y255977D01*
X271800Y255874D01*
X272583Y255977D01*
X273313Y256279D01*
X273940Y256760D01*
X274420Y257387D01*
X274723Y258117D01*
X274826Y258900D01*
X274809Y259026D01*
X275542Y259758D01*
X275582Y259819D01*
X276061Y259673D01*
Y247500D01*
X276216Y246720D01*
X276658Y246058D01*
X281161Y241555D01*
Y240153D01*
X279550D01*
Y232247D01*
X281161D01*
Y230153D01*
X280231D01*
Y222247D01*
X281161D01*
Y219669D01*
X279347D01*
Y218739D01*
X277168D01*
Y220653D01*
X271232D01*
Y212747D01*
X277168D01*
Y214661D01*
X279347D01*
Y213732D01*
X287253D01*
Y219669D01*
X285239D01*
Y222247D01*
X286169D01*
Y230153D01*
X285239D01*
Y232247D01*
X290769D01*
Y235506D01*
X292149D01*
X292304Y235304D01*
X292506Y235149D01*
Y230950D01*
X291708Y230153D01*
X289231D01*
Y222247D01*
X295168D01*
Y227124D01*
X296422Y228378D01*
X296919Y229122D01*
X297094Y230000D01*
Y235149D01*
X297296Y235304D01*
X297451Y235506D01*
X300500D01*
X301378Y235681D01*
X302122Y236178D01*
X302122Y236178D01*
X302122Y236178D01*
X303885Y237941D01*
X304382Y238685D01*
X304557Y239563D01*
Y243893D01*
X305625D01*
Y250617D01*
X298901D01*
Y243893D01*
X299969D01*
Y240513D01*
X299550Y240094D01*
X297451D01*
X297296Y240296D01*
X296565Y240857D01*
X295714Y241210D01*
X294800Y241330D01*
X293886Y241210D01*
X293035Y240857D01*
X292304Y240296D01*
X292149Y240094D01*
X290769D01*
Y240153D01*
X285239D01*
Y242400D01*
X285084Y243180D01*
X284642Y243842D01*
X284642Y243842D01*
X284642Y243842D01*
X280139Y248345D01*
Y252224D01*
X280601Y252415D01*
X286291Y246726D01*
X286274Y246600D01*
X286377Y245817D01*
X286680Y245087D01*
X287160Y244460D01*
X287787Y243980D01*
X288517Y243677D01*
X289300Y243574D01*
X290083Y243677D01*
X290813Y243980D01*
X291440Y244460D01*
X291920Y245087D01*
X292223Y245817D01*
X292326Y246600D01*
X292309Y246726D01*
X295942Y250358D01*
X296384Y251020D01*
X296539Y251800D01*
Y256116D01*
X306600D01*
X306600Y256116D01*
Y256116D01*
X307283Y256252D01*
X307862Y256638D01*
X310139Y258916D01*
X312247D01*
Y253232D01*
X316285D01*
X319480Y250036D01*
X319289Y249574D01*
X319190D01*
Y242574D01*
X324690D01*
Y249574D01*
X323979D01*
Y250460D01*
X323824Y251240D01*
X323382Y251902D01*
X320153Y255131D01*
Y258916D01*
X321388D01*
X322071Y259051D01*
X322650Y259438D01*
X324662Y261450D01*
X325048Y262029D01*
X325184Y262712D01*
Y273261D01*
X326339Y274416D01*
X327216D01*
Y274373D01*
X334728D01*
Y280586D01*
X327216D01*
Y280543D01*
X325080D01*
X323384Y282239D01*
Y297261D01*
X326362Y300238D01*
X326362Y300238D01*
X326555Y300528D01*
X326748Y300817D01*
X326884Y301500D01*
X326884Y301500D01*
Y308300D01*
X326748Y308983D01*
X326362Y309562D01*
X323162Y312762D01*
X323162Y312762D01*
X322583Y313148D01*
X321900Y313284D01*
X316639D01*
Y334323D01*
X316717Y334391D01*
X317500Y334494D01*
X318230Y334797D01*
X318857Y335278D01*
X319338Y335904D01*
X319640Y336634D01*
X319743Y337417D01*
X319640Y338200D01*
X319338Y338930D01*
X318857Y339557D01*
X318230Y340038D01*
X317500Y340340D01*
X316717Y340443D01*
X315934Y340340D01*
X315204Y340038D01*
X314578Y339557D01*
X314097Y338930D01*
X313967Y338947D01*
X313923Y339283D01*
X313620Y340013D01*
X313140Y340640D01*
X312513Y341121D01*
X311783Y341423D01*
X311000Y341526D01*
D02*
G37*
G36*
X124984Y339050D02*
X121250D01*
Y335316D01*
X121686Y335374D01*
X122791Y335831D01*
X123740Y336560D01*
X124469Y337509D01*
X124926Y338614D01*
X124984Y339050D01*
D02*
G37*
G36*
X119750D02*
X116016D01*
X116074Y338614D01*
X116531Y337509D01*
X117260Y336560D01*
X118209Y335831D01*
X119314Y335374D01*
X119750Y335316D01*
Y339050D01*
D02*
G37*
G36*
X5050Y340231D02*
Y337550D01*
X7732D01*
X7710Y337714D01*
X7357Y338565D01*
X6796Y339296D01*
X6065Y339857D01*
X5214Y340210D01*
X5050Y340231D01*
D02*
G37*
G36*
X3550D02*
X3386Y340210D01*
X2535Y339857D01*
X1804Y339296D01*
X1243Y338565D01*
X890Y337714D01*
X869Y337550D01*
X3550D01*
Y340231D01*
D02*
G37*
G36*
X187732Y340245D02*
X183250D01*
Y337495D01*
X187732D01*
Y340245D01*
D02*
G37*
G36*
X62568Y385453D02*
X60350D01*
Y382250D01*
X62568D01*
Y385453D01*
D02*
G37*
G36*
X58850D02*
X56631D01*
Y382250D01*
X58850D01*
Y385453D01*
D02*
G37*
G36*
X42568D02*
X40350D01*
Y382250D01*
X42568D01*
Y385453D01*
D02*
G37*
G36*
X374950Y389081D02*
Y384950D01*
X379081D01*
X379010Y385489D01*
X378513Y386690D01*
X377721Y387721D01*
X376690Y388512D01*
X375489Y389010D01*
X374950Y389081D01*
D02*
G37*
G36*
X296755Y387432D02*
X294005D01*
Y382950D01*
X296755D01*
Y387432D01*
D02*
G37*
G36*
X292505D02*
X289755D01*
Y382950D01*
X292505D01*
Y387432D01*
D02*
G37*
G36*
X170937Y387574D02*
X161063D01*
Y381626D01*
X155806D01*
X155765Y381657D01*
X154914Y382010D01*
X154000Y382130D01*
X153086Y382010D01*
X152235Y381657D01*
X151504Y381096D01*
X150943Y380365D01*
X150590Y379514D01*
X150470Y378600D01*
X150590Y377686D01*
X150943Y376835D01*
X151504Y376104D01*
X152235Y375543D01*
X153086Y375190D01*
X154000Y375070D01*
X154914Y375190D01*
X155765Y375543D01*
X155806Y375574D01*
X161063D01*
Y369826D01*
X170937D01*
Y369826D01*
X171095Y369826D01*
X179474Y361447D01*
Y358355D01*
X177554D01*
X177554Y358355D01*
Y358355D01*
X177268Y358355D01*
X177200Y358423D01*
Y360800D01*
X160200D01*
Y354300D01*
X151803D01*
Y348094D01*
X148453D01*
Y348768D01*
X140547D01*
Y342831D01*
X148453D01*
Y343506D01*
X151803D01*
Y337300D01*
X160200D01*
Y330800D01*
X177200D01*
Y333245D01*
X177200D01*
X177268D01*
X177554Y333245D01*
X177554Y333245D01*
Y333245D01*
X181750D01*
Y336744D01*
Y340245D01*
X177554D01*
X177554Y340245D01*
Y340245D01*
X177268Y340245D01*
X177200Y340313D01*
Y342300D01*
X177268D01*
Y342300D01*
X187732D01*
Y349300D01*
X177268D01*
D01*
X177268D01*
X177200Y349368D01*
Y351287D01*
X177268Y351355D01*
X177554Y351355D01*
X177554Y351355D01*
Y351355D01*
X187732D01*
Y358355D01*
X185526D01*
Y362700D01*
X185423Y363483D01*
X185209Y363999D01*
X185120Y364213D01*
X184640Y364840D01*
X174340Y375140D01*
X173713Y375621D01*
X173499Y375709D01*
X172983Y375923D01*
X172200Y376026D01*
X170937D01*
Y387574D01*
D02*
G37*
G36*
X315081Y385450D02*
X310950D01*
Y381319D01*
X311489Y381390D01*
X312690Y381888D01*
X313721Y382679D01*
X314512Y383710D01*
X315010Y384911D01*
X315081Y385450D01*
D02*
G37*
G36*
X309450D02*
X305319D01*
X305390Y384911D01*
X305888Y383710D01*
X306679Y382679D01*
X307710Y381888D01*
X308911Y381390D01*
X309450Y381319D01*
Y385450D01*
D02*
G37*
G36*
X38850Y385453D02*
X36632D01*
Y382250D01*
X38850D01*
Y385453D01*
D02*
G37*
G36*
X14881Y385950D02*
X10750D01*
Y381819D01*
X11289Y381890D01*
X12490Y382387D01*
X13521Y383179D01*
X14312Y384210D01*
X14810Y385411D01*
X14881Y385950D01*
D02*
G37*
G36*
X9250D02*
X5119D01*
X5190Y385411D01*
X5688Y384210D01*
X6479Y383179D01*
X7510Y382387D01*
X8711Y381890D01*
X9250Y381819D01*
Y385950D01*
D02*
G37*
G36*
X364200Y389180D02*
X362911Y389010D01*
X361710Y388512D01*
X360679Y387721D01*
X359888Y386690D01*
X359450Y385633D01*
X358950D01*
X358512Y386690D01*
X357721Y387721D01*
X356690Y388512D01*
X355489Y389010D01*
X354200Y389180D01*
X352911Y389010D01*
X351710Y388512D01*
X350679Y387721D01*
X349887Y386690D01*
X349450Y385633D01*
X348950D01*
X348513Y386690D01*
X347721Y387721D01*
X346690Y388512D01*
X345489Y389010D01*
X344200Y389180D01*
X342911Y389010D01*
X341710Y388512D01*
X340679Y387721D01*
X339887Y386690D01*
X339390Y385489D01*
X339220Y384200D01*
X339390Y382911D01*
X339887Y381710D01*
X340679Y380679D01*
X341710Y379888D01*
X341906Y379806D01*
Y374593D01*
X341710Y374513D01*
X340679Y373721D01*
X339887Y372690D01*
X339390Y371489D01*
X339220Y370200D01*
X339390Y368911D01*
X339887Y367710D01*
X340679Y366679D01*
X341710Y365887D01*
X342911Y365390D01*
X344200Y365220D01*
X345489Y365390D01*
X346690Y365887D01*
X347721Y366679D01*
X348513Y367710D01*
X348950Y368766D01*
X349450D01*
X349887Y367710D01*
X350679Y366679D01*
X351710Y365887D01*
X352911Y365390D01*
X354200Y365220D01*
X355489Y365390D01*
X356690Y365887D01*
X357721Y366679D01*
X358512Y367710D01*
X358950Y368766D01*
X359450D01*
X359888Y367710D01*
X360679Y366679D01*
X361710Y365887D01*
X362911Y365390D01*
X364200Y365220D01*
X365489Y365390D01*
X366690Y365887D01*
X367721Y366679D01*
X368513Y367710D01*
X368950Y368766D01*
X369450D01*
X369887Y367710D01*
X370679Y366679D01*
X371710Y365887D01*
X372911Y365390D01*
X373450Y365319D01*
Y370201D01*
X374199D01*
Y370950D01*
X379081D01*
X379010Y371489D01*
X378513Y372690D01*
X377721Y373721D01*
X376690Y374513D01*
X376494Y374593D01*
Y379806D01*
X376690Y379888D01*
X377721Y380679D01*
X378513Y381710D01*
X379010Y382911D01*
X379081Y383450D01*
X374199D01*
Y384199D01*
X373450D01*
Y389081D01*
X372911Y389010D01*
X371710Y388512D01*
X370679Y387721D01*
X369887Y386690D01*
X369450Y385633D01*
X368950D01*
X368513Y386690D01*
X367721Y387721D01*
X366690Y388512D01*
X365489Y389010D01*
X364200Y389180D01*
D02*
G37*
G36*
X53150Y393032D02*
X52986Y393010D01*
X52135Y392657D01*
X51404Y392096D01*
X50843Y391365D01*
X50490Y390514D01*
X50468Y390350D01*
X53150D01*
Y393032D01*
D02*
G37*
G36*
X10750Y391581D02*
Y387450D01*
X14881D01*
X14810Y387989D01*
X14312Y389190D01*
X13521Y390221D01*
X12490Y391013D01*
X11289Y391510D01*
X10750Y391581D01*
D02*
G37*
G36*
X9250D02*
X8711Y391510D01*
X7510Y391013D01*
X6479Y390221D01*
X5688Y389190D01*
X5190Y387989D01*
X5119Y387450D01*
X9250D01*
Y391581D01*
D02*
G37*
G36*
X151550Y393032D02*
Y390350D01*
X154232D01*
X154210Y390514D01*
X153857Y391365D01*
X153296Y392096D01*
X152565Y392657D01*
X151714Y393010D01*
X151550Y393032D01*
D02*
G37*
G36*
X150050D02*
X149886Y393010D01*
X149035Y392657D01*
X148304Y392096D01*
X147743Y391365D01*
X147390Y390514D01*
X147369Y390350D01*
X150050D01*
Y393032D01*
D02*
G37*
G36*
X54650D02*
Y390350D01*
X57332D01*
X57310Y390514D01*
X56957Y391365D01*
X56396Y392096D01*
X55665Y392657D01*
X54814Y393010D01*
X54650Y393032D01*
D02*
G37*
G36*
X150050Y388850D02*
X147369D01*
X147390Y388686D01*
X147743Y387835D01*
X148304Y387104D01*
X149035Y386543D01*
X149886Y386190D01*
X150050Y386169D01*
Y388850D01*
D02*
G37*
G36*
X57332D02*
X54650D01*
Y386169D01*
X54814Y386190D01*
X55665Y386543D01*
X56396Y387104D01*
X56957Y387835D01*
X57310Y388686D01*
X57332Y388850D01*
D02*
G37*
G36*
X53150D02*
X50468D01*
X50490Y388686D01*
X50843Y387835D01*
X51404Y387104D01*
X52135Y386543D01*
X52986Y386190D01*
X53150Y386169D01*
Y388850D01*
D02*
G37*
G36*
X310950Y391081D02*
Y386950D01*
X315081D01*
X315010Y387489D01*
X314512Y388690D01*
X313721Y389721D01*
X312690Y390512D01*
X311489Y391010D01*
X310950Y391081D01*
D02*
G37*
G36*
X309450D02*
X308911Y391010D01*
X307710Y390512D01*
X306679Y389721D01*
X305888Y388690D01*
X305390Y387489D01*
X305319Y386950D01*
X309450D01*
Y391081D01*
D02*
G37*
G36*
X154232Y388850D02*
X151550D01*
Y386169D01*
X151714Y386190D01*
X152565Y386543D01*
X153296Y387104D01*
X153857Y387835D01*
X154210Y388686D01*
X154232Y388850D01*
D02*
G37*
G36*
X141803Y387574D02*
X131929D01*
Y378180D01*
X129012D01*
Y380091D01*
X115988D01*
Y370217D01*
X129012D01*
Y372128D01*
X131929D01*
Y369826D01*
X141803D01*
Y387574D01*
D02*
G37*
G36*
X154850Y365050D02*
X152169D01*
X152190Y364886D01*
X152543Y364035D01*
X153104Y363304D01*
X153835Y362743D01*
X154686Y362390D01*
X154850Y362368D01*
Y365050D01*
D02*
G37*
G36*
X44823D02*
X41817D01*
Y361257D01*
X44823D01*
Y365050D01*
D02*
G37*
G36*
X40317D02*
X37311D01*
Y361257D01*
X40317D01*
Y365050D01*
D02*
G37*
G36*
X3550Y368050D02*
X869D01*
X890Y367886D01*
X1243Y367035D01*
X1804Y366304D01*
X2535Y365743D01*
X3386Y365390D01*
X3550Y365369D01*
Y368050D01*
D02*
G37*
G36*
X379081Y369450D02*
X374950D01*
Y365319D01*
X375489Y365390D01*
X376690Y365887D01*
X377721Y366679D01*
X378513Y367710D01*
X379010Y368911D01*
X379081Y369450D01*
D02*
G37*
G36*
X159031Y365050D02*
X156350D01*
Y362368D01*
X156514Y362390D01*
X157365Y362743D01*
X158096Y363304D01*
X158657Y364035D01*
X159010Y364886D01*
X159031Y365050D01*
D02*
G37*
G36*
X30256Y370343D02*
X22744D01*
Y361257D01*
X23951D01*
Y357927D01*
X23443Y357265D01*
X23090Y356414D01*
X22970Y355500D01*
X23090Y354586D01*
X23443Y353735D01*
X24004Y353004D01*
X24735Y352443D01*
X25586Y352090D01*
X26500Y351970D01*
X27414Y352090D01*
X28265Y352443D01*
X28996Y353004D01*
X29557Y353735D01*
X29910Y354586D01*
X30030Y355500D01*
X29910Y356414D01*
X29557Y357265D01*
X29049Y357927D01*
Y361257D01*
X30256D01*
Y370343D01*
D02*
G37*
G36*
X40453Y354169D02*
X37250D01*
Y351950D01*
X40453D01*
Y354169D01*
D02*
G37*
G36*
X35750D02*
X32547D01*
Y351950D01*
X35750D01*
Y354169D01*
D02*
G37*
G36*
X328000Y391180D02*
X326711Y391010D01*
X325510Y390512D01*
X324479Y389721D01*
X323688Y388690D01*
X323190Y387489D01*
X323020Y386200D01*
X323190Y384911D01*
X323688Y383710D01*
X324479Y382679D01*
X325510Y381888D01*
X326711Y381390D01*
X328000Y381220D01*
X328619Y381302D01*
X331174Y378747D01*
Y364500D01*
X331277Y363717D01*
X331579Y362987D01*
X332060Y362360D01*
X337160Y357260D01*
X337787Y356780D01*
X338001Y356691D01*
X338517Y356477D01*
X339300Y356374D01*
X380700D01*
X381483Y356477D01*
X381999Y356691D01*
X382213Y356780D01*
X382840Y357260D01*
X386340Y360760D01*
X386821Y361387D01*
X386972Y361752D01*
X387123Y362117D01*
X387135Y362208D01*
X387226Y362900D01*
X387226Y362900D01*
Y366299D01*
X387721Y366679D01*
X388512Y367710D01*
X389010Y368911D01*
X389180Y370200D01*
X389010Y371489D01*
X388512Y372690D01*
X387721Y373721D01*
X387226Y374101D01*
Y380299D01*
X387721Y380679D01*
X388512Y381710D01*
X389010Y382911D01*
X389180Y384200D01*
X389010Y385489D01*
X388512Y386690D01*
X387721Y387721D01*
X386690Y388512D01*
X385489Y389010D01*
X384200Y389180D01*
X382911Y389010D01*
X381710Y388512D01*
X380679Y387721D01*
X379888Y386690D01*
X379390Y385489D01*
X379220Y384200D01*
X379390Y382911D01*
X379888Y381710D01*
X380679Y380679D01*
X381174Y380299D01*
Y374101D01*
X380679Y373721D01*
X379888Y372690D01*
X379390Y371489D01*
X379220Y370200D01*
X379390Y368911D01*
X379888Y367710D01*
X380679Y366679D01*
X381174Y366299D01*
Y364153D01*
X379447Y362426D01*
X340553D01*
X337226Y365753D01*
Y380000D01*
X337123Y380783D01*
X336909Y381299D01*
X336821Y381513D01*
X336340Y382140D01*
X332898Y385581D01*
X332980Y386200D01*
X332810Y387489D01*
X332312Y388690D01*
X331521Y389721D01*
X330490Y390512D01*
X329289Y391010D01*
X328000Y391180D01*
D02*
G37*
G36*
X264950Y358732D02*
Y356050D01*
X267632D01*
X267610Y356214D01*
X267257Y357065D01*
X266696Y357796D01*
X265965Y358357D01*
X265114Y358710D01*
X264950Y358732D01*
D02*
G37*
G36*
X263450D02*
X263286Y358710D01*
X262435Y358357D01*
X261704Y357796D01*
X261143Y357065D01*
X260790Y356214D01*
X260769Y356050D01*
X263450D01*
Y358732D01*
D02*
G37*
G36*
X7732Y368050D02*
X5050D01*
Y365369D01*
X5214Y365390D01*
X6065Y365743D01*
X6796Y366304D01*
X7357Y367035D01*
X7710Y367886D01*
X7732Y368050D01*
D02*
G37*
G36*
X182300Y391643D02*
X180555Y391471D01*
X178878Y390962D01*
X177331Y390136D01*
X175976Y389024D01*
X174864Y387668D01*
X174038Y386122D01*
X173529Y384445D01*
X173357Y382700D01*
X173529Y380955D01*
X174038Y379278D01*
X174864Y377731D01*
X175976Y376376D01*
X177331Y375264D01*
X178878Y374438D01*
X180555Y373929D01*
X182300Y373757D01*
X184045Y373929D01*
X185722Y374438D01*
X187268Y375264D01*
X188624Y376376D01*
X189736Y377731D01*
X190562Y379278D01*
X191071Y380955D01*
X191243Y382700D01*
X191071Y384445D01*
X190562Y386122D01*
X189736Y387668D01*
X188624Y389024D01*
X187268Y390136D01*
X185722Y390962D01*
X184045Y391471D01*
X182300Y391643D01*
D02*
G37*
G36*
X247300Y390943D02*
X245555Y390771D01*
X243878Y390262D01*
X242332Y389436D01*
X240976Y388324D01*
X239864Y386968D01*
X239038Y385422D01*
X238529Y383745D01*
X238357Y382000D01*
X238529Y380255D01*
X239038Y378578D01*
X239864Y377031D01*
X240976Y375676D01*
X242332Y374564D01*
X243878Y373738D01*
X245555Y373229D01*
X247300Y373057D01*
X249045Y373229D01*
X250722Y373738D01*
X252269Y374564D01*
X253624Y375676D01*
X254736Y377031D01*
X255562Y378578D01*
X256071Y380255D01*
X256243Y382000D01*
X256071Y383745D01*
X255562Y385422D01*
X254736Y386968D01*
X253624Y388324D01*
X252269Y389436D01*
X250722Y390262D01*
X249045Y390771D01*
X247300Y390943D01*
D02*
G37*
G36*
X5050Y372232D02*
Y369550D01*
X7732D01*
X7710Y369714D01*
X7357Y370565D01*
X6796Y371296D01*
X6065Y371857D01*
X5214Y372210D01*
X5050Y372232D01*
D02*
G37*
G36*
X42568Y380750D02*
X40350D01*
Y377547D01*
X42568D01*
Y380750D01*
D02*
G37*
G36*
X38850D02*
X36632D01*
Y377547D01*
X38850D01*
Y380750D01*
D02*
G37*
G36*
X287700Y387432D02*
X280700D01*
Y376968D01*
D01*
Y376968D01*
X280632Y376900D01*
X278713D01*
X278645Y376968D01*
X278645Y377254D01*
X278645Y377254D01*
X278645D01*
Y387432D01*
X271645D01*
Y385226D01*
X267300D01*
X266517Y385123D01*
X266001Y384909D01*
X265787Y384821D01*
X265160Y384340D01*
X254860Y374040D01*
X254380Y373413D01*
X254291Y373199D01*
X254077Y372683D01*
X253974Y371900D01*
Y370637D01*
X242426D01*
Y360763D01*
X248374D01*
Y355506D01*
X248343Y355465D01*
X247990Y354614D01*
X247870Y353700D01*
X247990Y352786D01*
X248343Y351935D01*
X248904Y351204D01*
X249635Y350643D01*
X250486Y350290D01*
X251400Y350170D01*
X252314Y350290D01*
X253165Y350643D01*
X253896Y351204D01*
X254457Y351935D01*
X254810Y352786D01*
X254930Y353700D01*
X254810Y354614D01*
X254457Y355465D01*
X254426Y355506D01*
Y360763D01*
X260174D01*
Y370637D01*
X260174D01*
X260174Y370795D01*
X268553Y379174D01*
X271645D01*
Y377254D01*
X271645Y377254D01*
X271645D01*
X271645Y376968D01*
X271577Y376900D01*
X269200D01*
Y359900D01*
X275700D01*
Y351503D01*
X281906D01*
Y348153D01*
X281231D01*
Y340247D01*
X287169D01*
Y348153D01*
X286494D01*
Y351503D01*
X292700D01*
Y359900D01*
X299200D01*
Y376900D01*
X296755D01*
Y376900D01*
Y376968D01*
X296755Y377254D01*
X296755Y377254D01*
X296755D01*
Y381450D01*
X289755D01*
Y377254D01*
X289755Y377254D01*
X289755D01*
X289755Y376968D01*
X289687Y376900D01*
X287700D01*
Y376968D01*
X287700D01*
Y387432D01*
D02*
G37*
G36*
X154850Y369232D02*
X154686Y369210D01*
X153835Y368857D01*
X153104Y368296D01*
X152543Y367565D01*
X152190Y366714D01*
X152169Y366550D01*
X154850D01*
Y369232D01*
D02*
G37*
G36*
X44823Y370343D02*
X41817D01*
Y366550D01*
X44823D01*
Y370343D01*
D02*
G37*
G36*
X40317D02*
X37311D01*
Y366550D01*
X40317D01*
Y370343D01*
D02*
G37*
G36*
X3550Y372232D02*
X3386Y372210D01*
X2535Y371857D01*
X1804Y371296D01*
X1243Y370565D01*
X890Y369714D01*
X869Y369550D01*
X3550D01*
Y372232D01*
D02*
G37*
G36*
X20953Y367769D02*
X13047D01*
Y366839D01*
X11400D01*
X11400Y366839D01*
X10620Y366684D01*
X9958Y366242D01*
X6558Y362842D01*
X6116Y362180D01*
X5961Y361400D01*
Y359417D01*
X5860Y359340D01*
X5379Y358713D01*
X5077Y357983D01*
X4974Y357200D01*
X5077Y356417D01*
X5379Y355687D01*
X5860Y355060D01*
X6487Y354579D01*
X7217Y354277D01*
X8000Y354174D01*
X8783Y354277D01*
X9513Y354579D01*
X10140Y355060D01*
X10621Y355687D01*
X10923Y356417D01*
X11026Y357200D01*
X10923Y357983D01*
X10621Y358713D01*
X10140Y359340D01*
X10039Y359417D01*
Y360555D01*
X12245Y362761D01*
X13047D01*
Y361831D01*
X20953D01*
Y367769D01*
D02*
G37*
G36*
X156350Y369232D02*
Y366550D01*
X159031D01*
X159010Y366714D01*
X158657Y367565D01*
X158096Y368296D01*
X157365Y368857D01*
X156514Y369210D01*
X156350Y369232D01*
D02*
G37*
G36*
X147531Y284350D02*
X144850D01*
Y281668D01*
X145014Y281690D01*
X145865Y282043D01*
X146596Y282604D01*
X147157Y283335D01*
X147510Y284186D01*
X147531Y284350D01*
D02*
G37*
G36*
X143350D02*
X140668D01*
X140690Y284186D01*
X141043Y283335D01*
X141604Y282604D01*
X142335Y282043D01*
X143186Y281690D01*
X143350Y281668D01*
Y284350D01*
D02*
G37*
G36*
X47689Y284343D02*
X44683D01*
Y280550D01*
X47689D01*
Y284343D01*
D02*
G37*
G36*
X334728Y285704D02*
X331722D01*
Y284627D01*
X334728D01*
Y285704D01*
D02*
G37*
G36*
X330222D02*
X327216D01*
Y284627D01*
X330222D01*
Y285704D01*
D02*
G37*
G36*
X334728Y283127D02*
X327216D01*
Y282068D01*
X334728D01*
Y283127D01*
D02*
G37*
G36*
X108332Y278750D02*
X105650D01*
Y276068D01*
X105814Y276090D01*
X106665Y276443D01*
X107396Y277004D01*
X107957Y277735D01*
X108310Y278586D01*
X108332Y278750D01*
D02*
G37*
G36*
X104150D02*
X101469D01*
X101490Y278586D01*
X101843Y277735D01*
X102404Y277004D01*
X103135Y276443D01*
X103986Y276090D01*
X104150Y276068D01*
Y278750D01*
D02*
G37*
G36*
X47689Y279050D02*
X44683D01*
Y275257D01*
X47689D01*
Y279050D01*
D02*
G37*
G36*
X43183Y284343D02*
X40177D01*
Y280550D01*
X43183D01*
Y284343D01*
D02*
G37*
G36*
X105650Y282931D02*
Y280250D01*
X108332D01*
X108310Y280414D01*
X107957Y281265D01*
X107396Y281996D01*
X106665Y282557D01*
X105814Y282910D01*
X105650Y282931D01*
D02*
G37*
G36*
X104150D02*
X103986Y282910D01*
X103135Y282557D01*
X102404Y281996D01*
X101843Y281265D01*
X101490Y280414D01*
X101469Y280250D01*
X104150D01*
Y282931D01*
D02*
G37*
G36*
X143350Y288531D02*
X143186Y288510D01*
X142335Y288157D01*
X141604Y287596D01*
X141043Y286865D01*
X140690Y286014D01*
X140668Y285850D01*
X143350D01*
Y288531D01*
D02*
G37*
G36*
X29953Y305668D02*
X22047D01*
Y299731D01*
X23961D01*
Y296917D01*
X23860Y296840D01*
X23380Y296213D01*
X23077Y295483D01*
X22974Y294700D01*
X23077Y293917D01*
X23380Y293187D01*
X23860Y292560D01*
X24487Y292079D01*
X25217Y291777D01*
X26000Y291674D01*
X26783Y291777D01*
X27513Y292079D01*
X28140Y292560D01*
X28620Y293187D01*
X28923Y293917D01*
X29026Y294700D01*
X28923Y295483D01*
X28620Y296213D01*
X28140Y296840D01*
X28039Y296917D01*
Y299731D01*
X29953D01*
Y305668D01*
D02*
G37*
G36*
X329550Y294332D02*
Y291650D01*
X332231D01*
X332210Y291814D01*
X331857Y292665D01*
X331296Y293396D01*
X330565Y293957D01*
X329714Y294310D01*
X329550Y294332D01*
D02*
G37*
G36*
X328050D02*
X327886Y294310D01*
X327035Y293957D01*
X326304Y293396D01*
X325743Y292665D01*
X325390Y291814D01*
X325368Y291650D01*
X328050D01*
Y294332D01*
D02*
G37*
G36*
X83427Y302784D02*
X82368D01*
Y299027D01*
Y295272D01*
X83427D01*
Y299027D01*
Y302784D01*
D02*
G37*
G36*
X52250Y296632D02*
Y293950D01*
X54931D01*
X54910Y294114D01*
X54557Y294965D01*
X53996Y295696D01*
X53265Y296257D01*
X52414Y296610D01*
X52250Y296632D01*
D02*
G37*
G36*
X50750D02*
X50586Y296610D01*
X49735Y296257D01*
X49004Y295696D01*
X48443Y294965D01*
X48090Y294114D01*
X48068Y293950D01*
X50750D01*
Y296632D01*
D02*
G37*
G36*
X332231Y290150D02*
X329550D01*
Y287469D01*
X329714Y287490D01*
X330565Y287843D01*
X331296Y288404D01*
X331857Y289135D01*
X332210Y289986D01*
X332231Y290150D01*
D02*
G37*
G36*
X328050D02*
X325368D01*
X325390Y289986D01*
X325743Y289135D01*
X326304Y288404D01*
X327035Y287843D01*
X327886Y287490D01*
X328050Y287469D01*
Y290150D01*
D02*
G37*
G36*
X144850Y288531D02*
Y285850D01*
X147531D01*
X147510Y286014D01*
X147157Y286865D01*
X146596Y287596D01*
X145865Y288157D01*
X145014Y288510D01*
X144850Y288531D01*
D02*
G37*
G36*
X54931Y292450D02*
X52250D01*
Y289769D01*
X52414Y289790D01*
X53265Y290143D01*
X53996Y290704D01*
X54557Y291435D01*
X54910Y292286D01*
X54931Y292450D01*
D02*
G37*
G36*
X50750D02*
X48068D01*
X48090Y292286D01*
X48443Y291435D01*
X49004Y290704D01*
X49735Y290143D01*
X50586Y289790D01*
X50750Y289769D01*
Y292450D01*
D02*
G37*
G36*
X184500Y290780D02*
X183211Y290610D01*
X182010Y290112D01*
X180979Y289321D01*
X180187Y288290D01*
X180106Y288094D01*
X174893D01*
X174812Y288290D01*
X174021Y289321D01*
X172990Y290112D01*
X171789Y290610D01*
X170500Y290780D01*
X169211Y290610D01*
X168010Y290112D01*
X166979Y289321D01*
X166188Y288290D01*
X165690Y287089D01*
X165520Y285800D01*
X165690Y284511D01*
X166188Y283310D01*
X166979Y282279D01*
X168010Y281487D01*
X169067Y281050D01*
Y280550D01*
X168010Y280113D01*
X166979Y279321D01*
X166188Y278290D01*
X165690Y277089D01*
X165520Y275800D01*
X165690Y274511D01*
X166188Y273310D01*
X166979Y272279D01*
X168010Y271487D01*
X169067Y271050D01*
Y270550D01*
X168010Y270112D01*
X166979Y269321D01*
X166188Y268290D01*
X165690Y267089D01*
X165520Y265800D01*
X165690Y264511D01*
X166188Y263310D01*
X166979Y262279D01*
X168010Y261488D01*
X169067Y261050D01*
Y260550D01*
X168010Y260113D01*
X166979Y259321D01*
X166188Y258290D01*
X165690Y257089D01*
X165619Y256550D01*
X170501D01*
Y255801D01*
X171250D01*
Y250919D01*
X171789Y250990D01*
X172990Y251487D01*
X174021Y252279D01*
X174812Y253310D01*
X174893Y253506D01*
X180106D01*
X180187Y253310D01*
X180979Y252279D01*
X182010Y251487D01*
X183211Y250990D01*
X183750Y250919D01*
Y255801D01*
X184499D01*
Y256550D01*
X189381D01*
X189310Y257089D01*
X188812Y258290D01*
X188021Y259321D01*
X186990Y260113D01*
X185933Y260550D01*
Y261050D01*
X186990Y261488D01*
X188021Y262279D01*
X188812Y263310D01*
X189310Y264511D01*
X189480Y265800D01*
X189310Y267089D01*
X188812Y268290D01*
X188021Y269321D01*
X186990Y270112D01*
X185933Y270550D01*
Y271050D01*
X186990Y271487D01*
X188021Y272279D01*
X188812Y273310D01*
X189310Y274511D01*
X189480Y275800D01*
X189310Y277089D01*
X188812Y278290D01*
X188021Y279321D01*
X186990Y280113D01*
X185933Y280550D01*
Y281050D01*
X186990Y281487D01*
X188021Y282279D01*
X188812Y283310D01*
X189310Y284511D01*
X189480Y285800D01*
X189310Y287089D01*
X188812Y288290D01*
X188021Y289321D01*
X186990Y290112D01*
X185789Y290610D01*
X184500Y290780D01*
D02*
G37*
G36*
X43183Y279050D02*
X40177D01*
Y275257D01*
X43183D01*
Y279050D01*
D02*
G37*
G36*
X243831Y252850D02*
X241150D01*
Y250168D01*
X241314Y250190D01*
X242165Y250543D01*
X242896Y251104D01*
X243457Y251835D01*
X243810Y252686D01*
X243831Y252850D01*
D02*
G37*
G36*
X239650D02*
X236968D01*
X236990Y252686D01*
X237343Y251835D01*
X237904Y251104D01*
X238635Y250543D01*
X239486Y250190D01*
X239650Y250168D01*
Y252850D01*
D02*
G37*
G36*
X340231Y250450D02*
X337550D01*
Y247768D01*
X337714Y247790D01*
X338565Y248143D01*
X339296Y248704D01*
X339857Y249435D01*
X340210Y250286D01*
X340231Y250450D01*
D02*
G37*
G36*
X385450Y254136D02*
X385156Y254097D01*
X384183Y253694D01*
X383347Y253053D01*
X382706Y252217D01*
X382303Y251244D01*
X382264Y250950D01*
X385450D01*
Y254136D01*
D02*
G37*
G36*
X189381Y255050D02*
X185250D01*
Y250919D01*
X185789Y250990D01*
X186990Y251487D01*
X188021Y252279D01*
X188812Y253310D01*
X189310Y254511D01*
X189381Y255050D01*
D02*
G37*
G36*
X169750D02*
X165619D01*
X165690Y254511D01*
X166188Y253310D01*
X166979Y252279D01*
X168010Y251487D01*
X169211Y250990D01*
X169750Y250919D01*
Y255050D01*
D02*
G37*
G36*
X144850Y248632D02*
Y245950D01*
X147531D01*
X147510Y246114D01*
X147157Y246965D01*
X146596Y247696D01*
X145865Y248257D01*
X145014Y248610D01*
X144850Y248632D01*
D02*
G37*
G36*
X143350D02*
X143186Y248610D01*
X142335Y248257D01*
X141604Y247696D01*
X141043Y246965D01*
X140690Y246114D01*
X140668Y245950D01*
X143350D01*
Y248632D01*
D02*
G37*
G36*
X127850Y250081D02*
Y245950D01*
X131981D01*
X131910Y246489D01*
X131412Y247690D01*
X130621Y248721D01*
X129590Y249513D01*
X128389Y250010D01*
X127850Y250081D01*
D02*
G37*
G36*
X336050Y250450D02*
X333368D01*
X333390Y250286D01*
X333743Y249435D01*
X334304Y248704D01*
X335035Y248143D01*
X335886Y247790D01*
X336050Y247768D01*
Y250450D01*
D02*
G37*
G36*
X390136Y249450D02*
X386950D01*
Y246264D01*
X387244Y246303D01*
X388217Y246706D01*
X389053Y247347D01*
X389694Y248183D01*
X390097Y249156D01*
X390136Y249450D01*
D02*
G37*
G36*
X385450D02*
X382264D01*
X382303Y249156D01*
X382706Y248183D01*
X383347Y247347D01*
X384183Y246706D01*
X385156Y246303D01*
X385450Y246264D01*
Y249450D01*
D02*
G37*
G36*
X386950Y254136D02*
Y250950D01*
X390136D01*
X390097Y251244D01*
X389694Y252217D01*
X389053Y253053D01*
X388217Y253694D01*
X387244Y254097D01*
X386950Y254136D01*
D02*
G37*
G36*
X107468Y261050D02*
X105250D01*
Y257847D01*
X107468D01*
Y261050D01*
D02*
G37*
G36*
X103750D02*
X101532D01*
Y257847D01*
X103750D01*
Y261050D01*
D02*
G37*
G36*
X8500Y280780D02*
X7211Y280610D01*
X6010Y280113D01*
X4979Y279321D01*
X4188Y278290D01*
X3690Y277089D01*
X3520Y275800D01*
X3690Y274511D01*
X4188Y273310D01*
X4979Y272279D01*
X6010Y271487D01*
X7067Y271050D01*
Y270550D01*
X6010Y270112D01*
X4979Y269321D01*
X4188Y268290D01*
X3690Y267089D01*
X3520Y265800D01*
X3690Y264511D01*
X4188Y263310D01*
X4979Y262279D01*
X6010Y261488D01*
X7067Y261050D01*
Y260550D01*
X6010Y260113D01*
X4979Y259321D01*
X4188Y258290D01*
X3690Y257089D01*
X3619Y256550D01*
X13381D01*
X13310Y257089D01*
X12812Y258290D01*
X12021Y259321D01*
X10990Y260113D01*
X9933Y260550D01*
Y261050D01*
X10990Y261488D01*
X12021Y262279D01*
X12812Y263310D01*
X13310Y264511D01*
X13480Y265800D01*
X13310Y267089D01*
X12812Y268290D01*
X12021Y269321D01*
X10990Y270112D01*
X9933Y270550D01*
Y271050D01*
X10990Y271487D01*
X12021Y272279D01*
X12812Y273310D01*
X13310Y274511D01*
X13480Y275800D01*
X13310Y277089D01*
X12812Y278290D01*
X12021Y279321D01*
X10990Y280113D01*
X9789Y280610D01*
X8500Y280780D01*
D02*
G37*
G36*
X107468Y265753D02*
X105250D01*
Y262550D01*
X107468D01*
Y265753D01*
D02*
G37*
G36*
X103750D02*
X101532D01*
Y262550D01*
X103750D01*
Y265753D01*
D02*
G37*
G36*
X247750Y262268D02*
X244547D01*
Y260050D01*
X247750D01*
Y262268D01*
D02*
G37*
G36*
X239650Y257031D02*
X239486Y257010D01*
X238635Y256657D01*
X237904Y256096D01*
X237343Y255365D01*
X236990Y254514D01*
X236968Y254350D01*
X239650D01*
Y257031D01*
D02*
G37*
G36*
X337550Y254631D02*
Y251950D01*
X340231D01*
X340210Y252114D01*
X339857Y252965D01*
X339296Y253696D01*
X338565Y254257D01*
X337714Y254610D01*
X337550Y254631D01*
D02*
G37*
G36*
X336050D02*
X335886Y254610D01*
X335035Y254257D01*
X334304Y253696D01*
X333743Y252965D01*
X333390Y252114D01*
X333368Y251950D01*
X336050D01*
Y254631D01*
D02*
G37*
G36*
X247750Y258550D02*
X244547D01*
Y256331D01*
X247750D01*
Y258550D01*
D02*
G37*
G36*
X373500Y264234D02*
X372456Y264097D01*
X371483Y263694D01*
X370647Y263053D01*
X370006Y262217D01*
X369603Y261244D01*
X369465Y260200D01*
X369603Y259156D01*
X370006Y258183D01*
X370647Y257347D01*
X371483Y256706D01*
X372456Y256303D01*
X373500Y256166D01*
X374121Y256247D01*
X391074D01*
Y264153D01*
X374121D01*
X373500Y264234D01*
D02*
G37*
G36*
X241150Y257031D02*
Y254350D01*
X243831D01*
X243810Y254514D01*
X243457Y255365D01*
X242896Y256096D01*
X242165Y256657D01*
X241314Y257010D01*
X241150Y257031D01*
D02*
G37*
G36*
X50917Y323225D02*
X44193D01*
Y316501D01*
X50917D01*
Y323225D01*
D02*
G37*
G36*
X294684Y319450D02*
X290950D01*
Y315716D01*
X291386Y315774D01*
X292491Y316231D01*
X293440Y316960D01*
X294169Y317909D01*
X294626Y319014D01*
X294684Y319450D01*
D02*
G37*
G36*
X289450D02*
X285716D01*
X285774Y319014D01*
X286231Y317909D01*
X286960Y316960D01*
X287909Y316231D01*
X289014Y315774D01*
X289450Y315716D01*
Y319450D01*
D02*
G37*
G36*
X185750Y324681D02*
X185211Y324610D01*
X184010Y324113D01*
X182979Y323321D01*
X182187Y322290D01*
X181690Y321089D01*
X181619Y320550D01*
X185750D01*
Y324681D01*
D02*
G37*
G36*
X41532Y320050D02*
X38850D01*
Y317369D01*
X39014Y317390D01*
X39865Y317743D01*
X40596Y318304D01*
X41157Y319035D01*
X41510Y319886D01*
X41532Y320050D01*
D02*
G37*
G36*
X37350D02*
X34668D01*
X34690Y319886D01*
X35043Y319035D01*
X35604Y318304D01*
X36335Y317743D01*
X37186Y317390D01*
X37350Y317369D01*
Y320050D01*
D02*
G37*
G36*
X20453Y323768D02*
X12547D01*
Y317831D01*
X20453D01*
Y318761D01*
X24445D01*
X24636Y318299D01*
X24378Y318040D01*
X23880Y317296D01*
X23706Y316418D01*
Y314668D01*
X22047D01*
Y308732D01*
X29953D01*
Y309761D01*
X35000D01*
Y309050D01*
X42000D01*
Y314550D01*
X35000D01*
Y313839D01*
X29953D01*
Y314668D01*
X28294D01*
Y315468D01*
X29327Y316501D01*
X32807D01*
Y323225D01*
X26083D01*
Y322839D01*
X20453D01*
Y323768D01*
D02*
G37*
G36*
X5050Y308231D02*
Y305550D01*
X7732D01*
X7710Y305714D01*
X7357Y306565D01*
X6796Y307296D01*
X6065Y307857D01*
X5214Y308210D01*
X5050Y308231D01*
D02*
G37*
G36*
X3550D02*
X3386Y308210D01*
X2535Y307857D01*
X1804Y307296D01*
X1243Y306565D01*
X890Y305714D01*
X869Y305550D01*
X3550D01*
Y308231D01*
D02*
G37*
G36*
X260174Y341503D02*
X242426D01*
Y331629D01*
X251820D01*
Y328712D01*
X249909D01*
Y315688D01*
X259783D01*
Y328712D01*
X257872D01*
Y331629D01*
X260174D01*
Y341503D01*
D02*
G37*
G36*
X191381Y319050D02*
X187250D01*
Y314919D01*
X187789Y314990D01*
X188990Y315488D01*
X190021Y316279D01*
X190813Y317310D01*
X191310Y318511D01*
X191381Y319050D01*
D02*
G37*
G36*
X185750D02*
X181619D01*
X181690Y318511D01*
X182187Y317310D01*
X182979Y316279D01*
X184010Y315488D01*
X185211Y314990D01*
X185750Y314919D01*
Y319050D01*
D02*
G37*
G36*
X187250Y324681D02*
Y320550D01*
X191381D01*
X191310Y321089D01*
X190813Y322290D01*
X190021Y323321D01*
X188990Y324113D01*
X187789Y324610D01*
X187250Y324681D01*
D02*
G37*
G36*
X150650Y329450D02*
X147968D01*
X147990Y329286D01*
X148343Y328435D01*
X148904Y327704D01*
X149635Y327143D01*
X150486Y326790D01*
X150650Y326768D01*
Y329450D01*
D02*
G37*
G36*
X290200Y334783D02*
X289014Y334626D01*
X287909Y334169D01*
X286960Y333440D01*
X286231Y332491D01*
X285774Y331386D01*
X285617Y330200D01*
X285774Y329014D01*
X286231Y327909D01*
X286960Y326960D01*
X287909Y326231D01*
X289014Y325774D01*
X290200Y325618D01*
X291386Y325774D01*
X292491Y326231D01*
X293440Y326960D01*
X294169Y327909D01*
X294626Y329014D01*
X294782Y330200D01*
X294626Y331386D01*
X294169Y332491D01*
X293440Y333440D01*
X292491Y334169D01*
X291386Y334626D01*
X290200Y334783D01*
D02*
G37*
G36*
X32807Y331099D02*
X26083D01*
Y324375D01*
X32807D01*
Y331099D01*
D02*
G37*
G36*
X20453Y329050D02*
X17250D01*
Y326832D01*
X20453D01*
Y329050D01*
D02*
G37*
G36*
X15750D02*
X12547D01*
Y326832D01*
X15750D01*
Y329050D01*
D02*
G37*
G36*
X154832Y329450D02*
X152150D01*
Y326768D01*
X152314Y326790D01*
X153165Y327143D01*
X153896Y327704D01*
X154457Y328435D01*
X154810Y329286D01*
X154832Y329450D01*
D02*
G37*
G36*
X37350Y324232D02*
X37186Y324210D01*
X36335Y323857D01*
X35604Y323296D01*
X35043Y322565D01*
X34690Y321714D01*
X34668Y321550D01*
X37350D01*
Y324232D01*
D02*
G37*
G36*
X290950Y324684D02*
Y320950D01*
X294684D01*
X294626Y321386D01*
X294169Y322491D01*
X293440Y323440D01*
X292491Y324169D01*
X291386Y324626D01*
X290950Y324684D01*
D02*
G37*
G36*
X289450D02*
X289014Y324626D01*
X287909Y324169D01*
X286960Y323440D01*
X286231Y322491D01*
X285774Y321386D01*
X285716Y320950D01*
X289450D01*
Y324684D01*
D02*
G37*
G36*
X389681Y326050D02*
X385550D01*
Y321919D01*
X386089Y321990D01*
X387290Y322487D01*
X388321Y323279D01*
X389112Y324310D01*
X389610Y325511D01*
X389681Y326050D01*
D02*
G37*
G36*
X384050D02*
X379919D01*
X379990Y325511D01*
X380487Y324310D01*
X381279Y323279D01*
X382310Y322487D01*
X383511Y321990D01*
X384050Y321919D01*
Y326050D01*
D02*
G37*
G36*
X38850Y324232D02*
Y321550D01*
X41532D01*
X41510Y321714D01*
X41157Y322565D01*
X40596Y323296D01*
X39865Y323857D01*
X39014Y324210D01*
X38850Y324232D01*
D02*
G37*
G36*
X351250Y308032D02*
Y305350D01*
X353931D01*
X353910Y305514D01*
X353557Y306365D01*
X352996Y307096D01*
X352265Y307657D01*
X351414Y308010D01*
X351250Y308032D01*
D02*
G37*
G36*
X349750Y303850D02*
X347069D01*
X347090Y303686D01*
X347443Y302835D01*
X348004Y302104D01*
X348735Y301543D01*
X349586Y301190D01*
X349750Y301168D01*
Y303850D01*
D02*
G37*
G36*
X86004Y302784D02*
X84927D01*
Y299778D01*
X86004D01*
Y302784D01*
D02*
G37*
G36*
X94631Y300450D02*
X91950D01*
Y297768D01*
X92114Y297790D01*
X92965Y298143D01*
X93696Y298704D01*
X94257Y299435D01*
X94610Y300286D01*
X94631Y300450D01*
D02*
G37*
G36*
X372153Y303450D02*
X368950D01*
Y301232D01*
X372153D01*
Y303450D01*
D02*
G37*
G36*
X367450D02*
X364247D01*
Y301232D01*
X367450D01*
Y303450D01*
D02*
G37*
G36*
X353931Y303850D02*
X351250D01*
Y301168D01*
X351414Y301190D01*
X352265Y301543D01*
X352996Y302104D01*
X353557Y302835D01*
X353910Y303686D01*
X353931Y303850D01*
D02*
G37*
G36*
X152500Y306980D02*
X151211Y306810D01*
X150010Y306312D01*
X148979Y305521D01*
X148187Y304490D01*
X147690Y303289D01*
X147520Y302000D01*
X147690Y300711D01*
X148187Y299510D01*
X148979Y298479D01*
X150010Y297688D01*
X151211Y297190D01*
X152500Y297020D01*
X153789Y297190D01*
X154990Y297688D01*
X156021Y298479D01*
X156813Y299510D01*
X157310Y300711D01*
X157480Y302000D01*
X157310Y303289D01*
X156813Y304490D01*
X156021Y305521D01*
X154990Y306312D01*
X153789Y306810D01*
X152500Y306980D01*
D02*
G37*
G36*
X138500D02*
X137211Y306810D01*
X136010Y306312D01*
X134979Y305521D01*
X134187Y304490D01*
X133690Y303289D01*
X133520Y302000D01*
X133690Y300711D01*
X133877Y300261D01*
X130455Y296839D01*
X110617D01*
X110540Y296940D01*
X109913Y297421D01*
X109183Y297723D01*
X108400Y297826D01*
X107617Y297723D01*
X106887Y297421D01*
X106260Y296940D01*
X105780Y296313D01*
X105477Y295583D01*
X105374Y294800D01*
X105477Y294017D01*
X105780Y293287D01*
X106260Y292660D01*
X106887Y292179D01*
X107617Y291877D01*
X108400Y291774D01*
X109183Y291877D01*
X109913Y292179D01*
X110540Y292660D01*
X110617Y292761D01*
X131300D01*
X132080Y292916D01*
X132742Y293358D01*
X132742Y293358D01*
X132742Y293358D01*
X136761Y297377D01*
X137211Y297190D01*
X138500Y297020D01*
X139789Y297190D01*
X140990Y297688D01*
X142021Y298479D01*
X142813Y299510D01*
X143310Y300711D01*
X143480Y302000D01*
X143310Y303289D01*
X142813Y304490D01*
X142021Y305521D01*
X140990Y306312D01*
X139789Y306810D01*
X138500Y306980D01*
D02*
G37*
G36*
X86004Y298278D02*
X84927D01*
Y295272D01*
X86004D01*
Y298278D01*
D02*
G37*
G36*
X90450Y300450D02*
X87769D01*
X87790Y300286D01*
X88143Y299435D01*
X88704Y298704D01*
X89435Y298143D01*
X90286Y297790D01*
X90450Y297768D01*
Y300450D01*
D02*
G37*
G36*
X384800Y320980D02*
X383511Y320810D01*
X382310Y320312D01*
X381279Y319521D01*
X380487Y318490D01*
X379990Y317289D01*
X379820Y316000D01*
X379990Y314711D01*
X380487Y313510D01*
X381279Y312479D01*
X382310Y311687D01*
X382761Y311501D01*
Y304153D01*
X377232D01*
Y300115D01*
X374355Y297239D01*
X372153D01*
Y298168D01*
X364247D01*
Y295131D01*
X361526Y292409D01*
X361400Y292426D01*
X360617Y292323D01*
X359887Y292021D01*
X359260Y291540D01*
X358780Y290913D01*
X358477Y290183D01*
X358374Y289400D01*
X358477Y288617D01*
X358780Y287887D01*
X359260Y287260D01*
X359616Y286988D01*
Y281539D01*
X358620Y280543D01*
X357956D01*
Y285704D01*
X350444D01*
Y283102D01*
X348475D01*
X348140Y283540D01*
X347513Y284020D01*
X346783Y284323D01*
X346000Y284426D01*
X345217Y284323D01*
X344487Y284020D01*
X343860Y283540D01*
X343379Y282913D01*
X343077Y282183D01*
X342974Y281400D01*
X343077Y280617D01*
X343379Y279887D01*
X343860Y279260D01*
X344487Y278780D01*
X345217Y278477D01*
X346000Y278374D01*
X346783Y278477D01*
X347513Y278780D01*
X348140Y279260D01*
X348349Y279534D01*
X350444D01*
Y274373D01*
X352261D01*
Y271645D01*
X348758Y268142D01*
X348316Y267480D01*
X348161Y266700D01*
Y263272D01*
X347699Y263080D01*
X344717Y266063D01*
X344710Y266114D01*
X344357Y266965D01*
X343796Y267696D01*
X343065Y268257D01*
X342214Y268610D01*
X341300Y268730D01*
X340386Y268610D01*
X339535Y268257D01*
X338804Y267696D01*
X338243Y266965D01*
X337890Y266114D01*
X337770Y265200D01*
X337890Y264286D01*
X338243Y263435D01*
X338804Y262704D01*
X339535Y262143D01*
X340386Y261790D01*
X340437Y261783D01*
X345657Y256564D01*
Y254444D01*
X350712D01*
X353278Y251878D01*
X354022Y251380D01*
X354900Y251206D01*
X364350D01*
X369906Y245650D01*
Y243538D01*
X369580Y243113D01*
X369277Y242383D01*
X369174Y241600D01*
X369277Y240817D01*
X369580Y240087D01*
X370060Y239460D01*
X370687Y238980D01*
X371417Y238677D01*
X372200Y238574D01*
X372983Y238677D01*
X373713Y238980D01*
X374340Y239460D01*
X374820Y240087D01*
X375123Y240817D01*
X375226Y241600D01*
X375123Y242383D01*
X374820Y243113D01*
X374494Y243538D01*
Y246600D01*
X374320Y247478D01*
X373822Y248222D01*
X373822Y248222D01*
X373822Y248222D01*
X367194Y254850D01*
Y261850D01*
X373250Y267906D01*
X382918D01*
X383347Y267347D01*
X384183Y266706D01*
X385156Y266303D01*
X386200Y266165D01*
X387244Y266303D01*
X388217Y266706D01*
X389053Y267347D01*
X389694Y268183D01*
X390097Y269156D01*
X390234Y270200D01*
X390143Y270898D01*
X391122Y271878D01*
X391619Y272622D01*
X391794Y273500D01*
Y296247D01*
X392168D01*
Y304153D01*
X386839D01*
Y311501D01*
X387290Y311687D01*
X388321Y312479D01*
X389112Y313510D01*
X389610Y314711D01*
X389780Y316000D01*
X389610Y317289D01*
X389112Y318490D01*
X388321Y319521D01*
X387290Y320312D01*
X386089Y320810D01*
X384800Y320980D01*
D02*
G37*
G36*
X186500Y306980D02*
X185211Y306810D01*
X184010Y306312D01*
X182979Y305521D01*
X182187Y304490D01*
X181690Y303289D01*
X181520Y302000D01*
X181602Y301381D01*
X179047Y298826D01*
X164800D01*
X164017Y298723D01*
X163287Y298421D01*
X162660Y297940D01*
X157560Y292840D01*
X157080Y292213D01*
X156991Y291999D01*
X156777Y291483D01*
X156674Y290700D01*
Y249300D01*
X156777Y248517D01*
X156991Y248001D01*
X157080Y247787D01*
X157560Y247160D01*
X161060Y243660D01*
X161687Y243179D01*
X162052Y243028D01*
X162417Y242877D01*
X162508Y242865D01*
X163200Y242774D01*
X163200Y242774D01*
X166599D01*
X166979Y242279D01*
X168010Y241488D01*
X169211Y240990D01*
X170500Y240820D01*
X171789Y240990D01*
X172990Y241488D01*
X174021Y242279D01*
X174401Y242774D01*
X180599D01*
X180979Y242279D01*
X182010Y241488D01*
X183211Y240990D01*
X184500Y240820D01*
X185789Y240990D01*
X186990Y241488D01*
X188021Y242279D01*
X188812Y243310D01*
X189310Y244511D01*
X189480Y245800D01*
X189310Y247089D01*
X188812Y248290D01*
X188021Y249321D01*
X186990Y250113D01*
X185789Y250610D01*
X184500Y250780D01*
X183211Y250610D01*
X182010Y250113D01*
X180979Y249321D01*
X180599Y248826D01*
X174401D01*
X174021Y249321D01*
X172990Y250113D01*
X171789Y250610D01*
X170500Y250780D01*
X169211Y250610D01*
X168010Y250113D01*
X166979Y249321D01*
X166599Y248826D01*
X164453D01*
X162726Y250553D01*
Y289447D01*
X166053Y292774D01*
X180300D01*
X181083Y292877D01*
X181599Y293091D01*
X181813Y293179D01*
X182440Y293660D01*
X185881Y297102D01*
X186500Y297020D01*
X187789Y297190D01*
X188990Y297688D01*
X190021Y298479D01*
X190813Y299510D01*
X191310Y300711D01*
X191480Y302000D01*
X191310Y303289D01*
X190813Y304490D01*
X190021Y305521D01*
X188990Y306312D01*
X187789Y306810D01*
X186500Y306980D01*
D02*
G37*
G36*
X3550Y304050D02*
X869D01*
X890Y303886D01*
X1243Y303035D01*
X1804Y302304D01*
X2535Y301743D01*
X3386Y301390D01*
X3550Y301368D01*
Y304050D01*
D02*
G37*
G36*
X37750Y307070D02*
X35000D01*
Y305070D01*
X37750D01*
Y307070D01*
D02*
G37*
G36*
X372153Y307169D02*
X368950D01*
Y304950D01*
X372153D01*
Y307169D01*
D02*
G37*
G36*
X367450D02*
X364247D01*
Y304950D01*
X367450D01*
Y307169D01*
D02*
G37*
G36*
X349750Y308032D02*
X349586Y308010D01*
X348735Y307657D01*
X348004Y307096D01*
X347443Y306365D01*
X347090Y305514D01*
X347069Y305350D01*
X349750D01*
Y308032D01*
D02*
G37*
G36*
X328000Y343180D02*
X326711Y343010D01*
X325510Y342512D01*
X324479Y341721D01*
X323688Y340690D01*
X323190Y339489D01*
X323020Y338200D01*
X323190Y336911D01*
X323688Y335710D01*
X324479Y334679D01*
X325510Y333888D01*
X326711Y333390D01*
X328000Y333220D01*
X329289Y333390D01*
X329739Y333577D01*
X333161Y330155D01*
Y310317D01*
X333060Y310240D01*
X332579Y309613D01*
X332277Y308883D01*
X332174Y308100D01*
X332277Y307317D01*
X332579Y306587D01*
X333060Y305960D01*
X333687Y305480D01*
X334417Y305177D01*
X335200Y305074D01*
X335983Y305177D01*
X336713Y305480D01*
X337340Y305960D01*
X337821Y306587D01*
X338123Y307317D01*
X338226Y308100D01*
X338123Y308883D01*
X337821Y309613D01*
X337340Y310240D01*
X337239Y310317D01*
Y331000D01*
X337084Y331780D01*
X336642Y332442D01*
X336642Y332442D01*
X336642Y332442D01*
X332623Y336461D01*
X332810Y336911D01*
X332980Y338200D01*
X332810Y339489D01*
X332312Y340690D01*
X331521Y341721D01*
X330490Y342512D01*
X329289Y343010D01*
X328000Y343180D01*
D02*
G37*
G36*
X42000Y307070D02*
X39250D01*
Y305070D01*
X42000D01*
Y307070D01*
D02*
G37*
G36*
Y303570D02*
X39250D01*
Y301570D01*
X42000D01*
Y303570D01*
D02*
G37*
G36*
X37750D02*
X35000D01*
Y301570D01*
X37750D01*
Y303570D01*
D02*
G37*
G36*
X7732Y304050D02*
X5050D01*
Y301368D01*
X5214Y301390D01*
X6065Y301743D01*
X6796Y302304D01*
X7357Y303035D01*
X7710Y303886D01*
X7732Y304050D01*
D02*
G37*
G36*
X130700Y311330D02*
X129786Y311210D01*
X128935Y310857D01*
X128204Y310296D01*
X127643Y309565D01*
X127290Y308714D01*
X127170Y307800D01*
X127290Y306886D01*
X127643Y306035D01*
X128204Y305304D01*
X128935Y304743D01*
X129786Y304390D01*
X130700Y304270D01*
X131614Y304390D01*
X132465Y304743D01*
X133196Y305304D01*
X133757Y306035D01*
X134110Y306886D01*
X134230Y307800D01*
X134110Y308714D01*
X133757Y309565D01*
X133196Y310296D01*
X132465Y310857D01*
X131614Y311210D01*
X130700Y311330D01*
D02*
G37*
G36*
X91950Y304631D02*
Y301950D01*
X94631D01*
X94610Y302114D01*
X94257Y302965D01*
X93696Y303696D01*
X92965Y304257D01*
X92114Y304610D01*
X91950Y304631D01*
D02*
G37*
G36*
X90450D02*
X90286Y304610D01*
X89435Y304257D01*
X88704Y303696D01*
X88143Y302965D01*
X87790Y302114D01*
X87769Y301950D01*
X90450D01*
Y304631D01*
D02*
G37*
%LPD*%
D10*
X86882Y372700D02*
D03*
X97118D02*
D03*
X94559D02*
D03*
X89441D02*
D03*
X92000D02*
D03*
X86882Y136400D02*
D03*
X97118D02*
D03*
X94559D02*
D03*
X89441D02*
D03*
X92000D02*
D03*
D11*
X95543Y385692D02*
D03*
X88457D02*
D03*
X95543Y149392D02*
D03*
X88457D02*
D03*
D12*
X84177Y299028D02*
D03*
X81618D02*
D03*
X79059D02*
D03*
X76500D02*
D03*
X84177Y275800D02*
D03*
X81618D02*
D03*
X79059D02*
D03*
X76500D02*
D03*
X84177Y62728D02*
D03*
X81618D02*
D03*
X79059D02*
D03*
X76500D02*
D03*
X84177Y39500D02*
D03*
X81618D02*
D03*
X79059D02*
D03*
X76500D02*
D03*
D13*
X41067Y365800D02*
D03*
X26500D02*
D03*
X368200Y280200D02*
D03*
X382767D02*
D03*
X58500Y43500D02*
D03*
X43933D02*
D03*
X41067Y129500D02*
D03*
X26500D02*
D03*
X58500Y279800D02*
D03*
X43933D02*
D03*
D14*
X38500Y311800D02*
D03*
Y304320D02*
D03*
X46374Y308060D02*
D03*
X38500Y75500D02*
D03*
Y68020D02*
D03*
X46374Y71760D02*
D03*
D15*
X157303Y345800D02*
D03*
Y109500D02*
D03*
D16*
X182500Y354855D02*
D03*
Y345800D02*
D03*
Y336745D02*
D03*
Y118555D02*
D03*
Y109500D02*
D03*
Y100445D02*
D03*
D17*
X168700Y345800D02*
D03*
Y109500D02*
D03*
D18*
X136866Y378700D02*
D03*
X166000D02*
D03*
X136866Y142400D02*
D03*
X166000D02*
D03*
D19*
X60500Y247800D02*
D03*
Y11500D02*
D03*
D20*
X373310Y7523D02*
D03*
Y10082D02*
D03*
Y12641D02*
D03*
Y15200D02*
D03*
X355200Y7523D02*
D03*
Y10082D02*
D03*
Y12641D02*
D03*
Y15200D02*
D03*
X373310Y109023D02*
D03*
Y111582D02*
D03*
Y114141D02*
D03*
Y116700D02*
D03*
X355200Y109023D02*
D03*
Y111582D02*
D03*
Y114141D02*
D03*
Y116700D02*
D03*
X305910Y109023D02*
D03*
Y111582D02*
D03*
Y114141D02*
D03*
Y116700D02*
D03*
X287800Y109023D02*
D03*
Y111582D02*
D03*
Y114141D02*
D03*
Y116700D02*
D03*
X237910Y109023D02*
D03*
Y111582D02*
D03*
Y114141D02*
D03*
Y116700D02*
D03*
X219800Y109023D02*
D03*
Y111582D02*
D03*
Y114141D02*
D03*
Y116700D02*
D03*
X237910Y7523D02*
D03*
Y10082D02*
D03*
Y12641D02*
D03*
Y15200D02*
D03*
X219800Y7523D02*
D03*
Y10082D02*
D03*
Y12641D02*
D03*
Y15200D02*
D03*
X305910Y7523D02*
D03*
Y10082D02*
D03*
Y12641D02*
D03*
Y15200D02*
D03*
X287800Y7523D02*
D03*
Y10082D02*
D03*
Y12641D02*
D03*
Y15200D02*
D03*
D21*
X80500Y261800D02*
D03*
Y247233D02*
D03*
X354200Y125500D02*
D03*
Y140067D02*
D03*
X286800Y125500D02*
D03*
Y140067D02*
D03*
X218800Y125500D02*
D03*
Y140067D02*
D03*
Y24000D02*
D03*
Y38567D02*
D03*
X286800Y24000D02*
D03*
Y38567D02*
D03*
X354200Y24000D02*
D03*
Y38567D02*
D03*
X350200Y258200D02*
D03*
Y243633D02*
D03*
X264200Y240767D02*
D03*
Y226200D02*
D03*
X80500Y25500D02*
D03*
Y10933D02*
D03*
D22*
X122500Y375154D02*
D03*
Y359800D02*
D03*
Y138854D02*
D03*
Y123500D02*
D03*
D23*
X367400Y65900D02*
D03*
X362282D02*
D03*
X367400Y167400D02*
D03*
X362282D02*
D03*
X367400Y156873D02*
D03*
X362282D02*
D03*
X367400Y148600D02*
D03*
X362282D02*
D03*
X300000Y167400D02*
D03*
X294882D02*
D03*
X300000Y156873D02*
D03*
X294882D02*
D03*
X300000Y148600D02*
D03*
X294882D02*
D03*
X232000Y167400D02*
D03*
X226882D02*
D03*
X232000Y156873D02*
D03*
X226882D02*
D03*
X232000Y148600D02*
D03*
X226882D02*
D03*
X232000Y47100D02*
D03*
X226882D02*
D03*
X232000Y55373D02*
D03*
X226882D02*
D03*
X232000Y65900D02*
D03*
X226882D02*
D03*
X300000Y47100D02*
D03*
X294882D02*
D03*
X300000Y55373D02*
D03*
X294882D02*
D03*
X300000Y65900D02*
D03*
X294882D02*
D03*
X367400Y47100D02*
D03*
X362282D02*
D03*
X367400Y55373D02*
D03*
X362282D02*
D03*
D24*
X29445Y319863D02*
D03*
X47555D02*
D03*
Y327737D02*
D03*
X29445D02*
D03*
Y83563D02*
D03*
X47555D02*
D03*
Y91437D02*
D03*
X29445D02*
D03*
D25*
X389100Y167400D02*
D03*
X380100D02*
D03*
X389100Y156900D02*
D03*
X380100D02*
D03*
X389100Y148600D02*
D03*
X380100D02*
D03*
X321700Y167400D02*
D03*
X312700D02*
D03*
X321700Y156900D02*
D03*
X312700D02*
D03*
X321700Y148600D02*
D03*
X312700D02*
D03*
X253700Y167400D02*
D03*
X244700D02*
D03*
X253700Y156900D02*
D03*
X244700D02*
D03*
X253700Y148600D02*
D03*
X244700D02*
D03*
X253700Y47100D02*
D03*
X244700D02*
D03*
X253700Y55400D02*
D03*
X244700D02*
D03*
X253700Y65900D02*
D03*
X244700D02*
D03*
X321700Y47100D02*
D03*
X312700D02*
D03*
X321700Y55400D02*
D03*
X312700D02*
D03*
X321700Y65900D02*
D03*
X312700D02*
D03*
X389100Y47100D02*
D03*
X380100D02*
D03*
X389100Y55400D02*
D03*
X380100D02*
D03*
X389100Y65900D02*
D03*
X380100D02*
D03*
X265200Y216700D02*
D03*
X274200D02*
D03*
X287800Y236200D02*
D03*
X278800D02*
D03*
X389200Y300200D02*
D03*
X380200D02*
D03*
X302300Y265700D02*
D03*
X293300D02*
D03*
X302300Y275700D02*
D03*
X293300D02*
D03*
X292200Y226200D02*
D03*
X283200D02*
D03*
X309200Y216200D02*
D03*
X300200D02*
D03*
X318300Y225700D02*
D03*
X327300D02*
D03*
X293200Y344200D02*
D03*
X284200D02*
D03*
X68600Y145200D02*
D03*
X59600D02*
D03*
X17000Y110400D02*
D03*
X8000D02*
D03*
X48600Y145200D02*
D03*
X39600D02*
D03*
X95500Y25500D02*
D03*
X104500D02*
D03*
X65500Y77500D02*
D03*
X56500D02*
D03*
X68600Y381500D02*
D03*
X59600D02*
D03*
X17000Y346700D02*
D03*
X8000D02*
D03*
X48600Y381500D02*
D03*
X39600D02*
D03*
X95500Y261800D02*
D03*
X104500D02*
D03*
X65500Y313800D02*
D03*
X56500D02*
D03*
D26*
X364200Y136000D02*
D03*
Y127000D02*
D03*
X296800Y136000D02*
D03*
Y127000D02*
D03*
X228800Y136000D02*
D03*
Y127000D02*
D03*
Y34500D02*
D03*
Y25500D02*
D03*
X296800Y34500D02*
D03*
Y25500D02*
D03*
X364200Y34500D02*
D03*
Y25500D02*
D03*
X248500Y268300D02*
D03*
Y259300D02*
D03*
X283300Y216700D02*
D03*
Y207700D02*
D03*
X248500Y248300D02*
D03*
Y239300D02*
D03*
X368200Y295200D02*
D03*
Y304200D02*
D03*
X316200Y265200D02*
D03*
Y256200D02*
D03*
X17000Y128500D02*
D03*
Y119500D02*
D03*
X36500Y105900D02*
D03*
Y114900D02*
D03*
X100500Y4500D02*
D03*
Y13500D02*
D03*
X66000Y91400D02*
D03*
Y100400D02*
D03*
X76000Y91400D02*
D03*
Y100400D02*
D03*
X26500Y101500D02*
D03*
Y110500D02*
D03*
X16500Y84500D02*
D03*
Y93500D02*
D03*
X26000Y75400D02*
D03*
Y66400D02*
D03*
X144500Y100500D02*
D03*
Y109500D02*
D03*
X17000Y364800D02*
D03*
Y355800D02*
D03*
X36500Y342200D02*
D03*
Y351200D02*
D03*
X100500Y240800D02*
D03*
Y249800D02*
D03*
X66000Y327700D02*
D03*
Y336700D02*
D03*
X76000Y327700D02*
D03*
Y336700D02*
D03*
X26500Y337800D02*
D03*
Y346800D02*
D03*
X16500Y320800D02*
D03*
Y329800D02*
D03*
X26000Y311700D02*
D03*
Y302700D02*
D03*
X144500Y336800D02*
D03*
Y345800D02*
D03*
D27*
X251300Y336566D02*
D03*
Y365700D02*
D03*
D28*
X318200Y238200D02*
D03*
X325680D02*
D03*
X321940Y246074D02*
D03*
D29*
X382200Y260200D02*
D03*
D30*
X254846Y322200D02*
D03*
X270200D02*
D03*
D31*
X310137Y229145D02*
D03*
Y247255D02*
D03*
X302263D02*
D03*
Y229145D02*
D03*
D32*
X330972Y283877D02*
D03*
Y281318D02*
D03*
Y278759D02*
D03*
Y276200D02*
D03*
X354200Y283877D02*
D03*
Y281318D02*
D03*
Y278759D02*
D03*
Y276200D02*
D03*
D33*
X257300Y286582D02*
D03*
Y296818D02*
D03*
Y294259D02*
D03*
Y289141D02*
D03*
Y291700D02*
D03*
D34*
X244308Y295243D02*
D03*
Y288157D02*
D03*
D35*
X284200Y357003D02*
D03*
D36*
X275145Y382200D02*
D03*
X284200D02*
D03*
X293255D02*
D03*
D37*
X284200Y368400D02*
D03*
D38*
X182500Y354855D02*
Y362700D01*
X172200Y373000D02*
X182500Y362700D01*
X168000Y373000D02*
X172200D01*
X180300Y295800D02*
X186500Y302000D01*
X164800Y295800D02*
X180300D01*
X159700Y290700D02*
X164800Y295800D01*
X159700Y249300D02*
Y290700D01*
X168700Y345800D02*
X182500D01*
X168700D02*
X174000Y340500D01*
X163200Y245800D02*
X184500D01*
X159700Y249300D02*
X163200Y245800D01*
X80500Y247233D02*
X80533Y247200D01*
X58500Y281700D02*
X65500Y288700D01*
X122500Y375154D02*
X133320D01*
X165900Y378600D02*
X166000Y378700D01*
X164000Y376700D02*
X165900Y378600D01*
X154000D02*
X165900D01*
X182500Y118555D02*
Y126400D01*
X172200Y136700D02*
X182500Y126400D01*
X168000Y136700D02*
X172200D01*
X180300Y59500D02*
X186500Y65700D01*
X164800Y59500D02*
X180300D01*
X159700Y54400D02*
X164800Y59500D01*
X159700Y13000D02*
Y54400D01*
X168700Y109500D02*
X182500D01*
X168700D02*
X174000Y104200D01*
X163200Y9500D02*
X184500D01*
X159700Y13000D02*
X163200Y9500D01*
X80500Y10933D02*
X80533Y10900D01*
X58500Y45400D02*
X65500Y52400D01*
X122500Y138854D02*
X133320D01*
X165900Y142300D02*
X166000Y142400D01*
X164000Y140400D02*
X165900Y142300D01*
X154000D02*
X165900D01*
X267300Y382200D02*
X275145D01*
X257000Y371900D02*
X267300Y382200D01*
X257000Y367700D02*
Y371900D01*
X328000Y386200D02*
X334200Y380000D01*
Y364500D02*
Y380000D01*
Y364500D02*
X339300Y359400D01*
X380700D01*
X284200Y368400D02*
Y382200D01*
Y368400D02*
X289500Y373700D01*
X384200Y362900D02*
Y384200D01*
X380700Y359400D02*
X384200Y362900D01*
X382767Y280200D02*
X382800Y280233D01*
X341300Y265200D02*
X348300Y258200D01*
X254846Y322200D02*
Y333020D01*
X251300Y365700D02*
X251400Y365600D01*
X253300Y363700D01*
X251400Y353700D02*
Y365600D01*
D39*
X86882Y372700D02*
Y384117D01*
Y136400D02*
Y147817D01*
X245883Y286582D02*
X257300D01*
D40*
X80500Y261800D02*
X87000D01*
X89900Y258900D01*
Y251600D02*
Y258900D01*
X135600Y315400D02*
X137717Y313283D01*
X108200Y315400D02*
X135600D01*
X79400Y344200D02*
X108200Y315400D01*
X131300Y294800D02*
X138500Y302000D01*
X108400Y294800D02*
X131300D01*
X134200Y322500D02*
X137700Y326000D01*
X112100Y322500D02*
X134200D01*
X110000Y319000D02*
X138800D01*
X81000Y348000D02*
X110000Y319000D01*
X82700Y351900D02*
X112100Y322500D01*
X11400Y364800D02*
X17000D01*
X8000Y361400D02*
X11400Y364800D01*
X71100Y275700D02*
X75700D01*
X16500Y320800D02*
X28508D01*
X50760Y308060D02*
X56500Y313800D01*
X46374Y308060D02*
X50760D01*
X95500Y254800D02*
Y261800D01*
Y254800D02*
X100500Y249800D01*
X89700Y268600D02*
X95500Y262800D01*
X81618Y283918D02*
X81700Y284000D01*
X80533Y247200D02*
X87500D01*
X58500Y279800D02*
X67000D01*
X71100Y275700D01*
X105300Y334800D02*
X109300D01*
X84200Y355900D02*
X105300Y334800D01*
X61500Y355900D02*
X84200D01*
X47800Y351900D02*
X82700D01*
X54200Y348000D02*
X81000D01*
X76000Y344200D02*
X79400D01*
X46900Y340700D02*
X54200Y348000D01*
X42700Y346800D02*
X47800Y351900D01*
X59200Y358200D02*
X61500Y355900D01*
X26500Y346800D02*
X42700D01*
X17100D02*
X26500D01*
X26000Y311700D02*
X26100Y311800D01*
X38500D01*
X101000Y358000D02*
X106400D01*
X97118Y361882D02*
X101000Y358000D01*
X97118Y361882D02*
Y372700D01*
X17000Y346700D02*
Y355800D01*
X58200Y335500D02*
X59400Y336700D01*
X52100Y335500D02*
X58200D01*
X46900Y340700D02*
X52100Y335500D01*
X76000Y336700D02*
Y344200D01*
X57400D02*
X76000D01*
X59400Y336700D02*
X66000D01*
X53900Y340700D02*
X57400Y344200D01*
X25945Y311645D02*
X26000Y311700D01*
Y294700D02*
Y302700D01*
X8000Y357200D02*
Y361400D01*
X89900Y251600D02*
X96300Y245200D01*
X115600D01*
X80500Y25500D02*
X87000D01*
X89900Y22600D01*
Y15300D02*
Y22600D01*
X135600Y79100D02*
X137717Y76983D01*
X108200Y79100D02*
X135600D01*
X79400Y107900D02*
X108200Y79100D01*
X131300Y58500D02*
X138500Y65700D01*
X108400Y58500D02*
X131300D01*
X134200Y86200D02*
X137700Y89700D01*
X112100Y86200D02*
X134200D01*
X110000Y82700D02*
X138800D01*
X81000Y111700D02*
X110000Y82700D01*
X82700Y115600D02*
X112100Y86200D01*
X11400Y128500D02*
X17000D01*
X8000Y125100D02*
X11400Y128500D01*
X71100Y39400D02*
X75700D01*
X16500Y84500D02*
X28508D01*
X50760Y71760D02*
X56500Y77500D01*
X46374Y71760D02*
X50760D01*
X95500Y18500D02*
Y25500D01*
Y18500D02*
X100500Y13500D01*
X89700Y32300D02*
X95500Y26500D01*
X81618Y47618D02*
X81700Y47700D01*
X80533Y10900D02*
X87500D01*
X58500Y43500D02*
X67000D01*
X71100Y39400D01*
X105300Y98500D02*
X109300D01*
X84200Y119600D02*
X105300Y98500D01*
X61500Y119600D02*
X84200D01*
X47800Y115600D02*
X82700D01*
X54200Y111700D02*
X81000D01*
X76000Y107900D02*
X79400D01*
X46900Y104400D02*
X54200Y111700D01*
X42700Y110500D02*
X47800Y115600D01*
X59200Y121900D02*
X61500Y119600D01*
X26500Y110500D02*
X42700D01*
X17100D02*
X26500D01*
X26000Y75400D02*
X26100Y75500D01*
X38500D01*
X101000Y121700D02*
X106400D01*
X97118Y125582D02*
X101000Y121700D01*
X97118Y125582D02*
Y136400D01*
X17000Y110400D02*
Y119500D01*
X58200Y99200D02*
X59400Y100400D01*
X52100Y99200D02*
X58200D01*
X46900Y104400D02*
X52100Y99200D01*
X76000Y100400D02*
Y107900D01*
X57400D02*
X76000D01*
X59400Y100400D02*
X66000D01*
X53900Y104400D02*
X57400Y107900D01*
X25945Y75345D02*
X26000Y75400D01*
Y58400D02*
Y66400D01*
X8000Y120900D02*
Y125100D01*
X89900Y15300D02*
X96300Y8900D01*
X115600D01*
X368200Y280200D02*
Y286700D01*
X371100Y289600D01*
X378400D01*
X314600Y335300D02*
X316717Y337417D01*
X314600Y307900D02*
Y335300D01*
X285800Y279100D02*
X314600Y307900D01*
X328000Y338200D02*
X335200Y331000D01*
Y308100D02*
Y331000D01*
X304000Y337400D02*
X307500Y333900D01*
Y311800D02*
Y333900D01*
X311000Y309700D02*
Y338500D01*
X282000Y280700D02*
X311000Y309700D01*
X278100Y282400D02*
X307500Y311800D01*
X265200Y211100D02*
Y216700D01*
Y211100D02*
X268600Y207700D01*
X354300Y270800D02*
Y275400D01*
X309200Y216200D02*
Y228208D01*
X316200Y256200D02*
X321940Y250460D01*
Y246074D02*
Y250460D01*
X368200Y295200D02*
X375200D01*
X380200Y300200D01*
X361400Y289400D02*
X367200Y295200D01*
X346000Y281400D02*
X346082Y281318D01*
X382800Y280233D02*
Y287200D01*
X350200Y258200D02*
Y266700D01*
X354300Y270800D01*
X295200Y305000D02*
Y309000D01*
X274100Y283900D02*
X295200Y305000D01*
X274100Y261200D02*
Y283900D01*
X278100Y247500D02*
Y282400D01*
X282000Y253900D02*
Y280700D01*
X285800Y275700D02*
Y279100D01*
X282000Y253900D02*
X289300Y246600D01*
X278100Y247500D02*
X283200Y242400D01*
X271800Y258900D02*
X274100Y261200D01*
X283200Y226200D02*
Y242400D01*
Y216800D02*
Y226200D01*
X318200Y225800D02*
X318300Y225700D01*
X318200Y225800D02*
Y238200D01*
X272000Y300700D02*
Y306100D01*
X268118Y296818D02*
X272000Y300700D01*
X257300Y296818D02*
X268118D01*
X274200Y216700D02*
X283300D01*
X293300Y259100D02*
X294500Y257900D01*
Y251800D02*
Y257900D01*
X289300Y246600D02*
X294500Y251800D01*
X285800Y275700D02*
X293300D01*
X285800Y257100D02*
Y275700D01*
X293300Y259100D02*
Y265700D01*
X285800Y257100D02*
X289300Y253600D01*
X318300Y225700D02*
X318355Y225645D01*
X327300Y225700D02*
X335300D01*
X268600Y207700D02*
X272800D01*
X378400Y289600D02*
X384800Y296000D01*
Y315300D01*
X360407Y63932D02*
X362376Y65900D01*
X360407Y49042D02*
X362349Y47100D01*
X354000Y48700D02*
Y52600D01*
X356773Y55373D01*
X360407D01*
X375000Y73100D02*
X382100D01*
X373400Y71500D02*
X375000Y73100D01*
X367494Y55373D02*
X380073D01*
X373400Y55473D02*
Y59800D01*
Y65900D02*
Y71500D01*
Y65900D02*
X380100D01*
X360407Y55373D02*
Y63932D01*
Y49042D02*
Y55373D01*
X367494Y65900D02*
X373400D01*
X367467Y47100D02*
X380000D01*
X355700Y25500D02*
X364200D01*
X358267Y34500D02*
X364200D01*
X354200Y38567D02*
X358267Y34500D01*
X293007Y63932D02*
X294976Y65900D01*
X293007Y49042D02*
X294949Y47100D01*
X286600Y48700D02*
Y52600D01*
X289373Y55373D01*
X293007D01*
X307600Y73100D02*
X314700D01*
X306000Y71500D02*
X307600Y73100D01*
X300094Y55373D02*
X312673D01*
X306000Y55473D02*
Y59800D01*
Y65900D02*
Y71500D01*
Y65900D02*
X312700D01*
X293007Y55373D02*
Y63932D01*
Y49042D02*
Y55373D01*
X300094Y65900D02*
X306000D01*
X300067Y47100D02*
X312600D01*
X288300Y25500D02*
X296800D01*
X290867Y34500D02*
X296800D01*
X286800Y38567D02*
X290867Y34500D01*
X225007Y63932D02*
X226976Y65900D01*
X225007Y49042D02*
X226949Y47100D01*
X218600Y48700D02*
Y52600D01*
X221373Y55373D01*
X225007D01*
X239600Y73100D02*
X246700D01*
X238000Y71500D02*
X239600Y73100D01*
X232094Y55373D02*
X244673D01*
X238000Y55473D02*
Y59800D01*
Y65900D02*
Y71500D01*
Y65900D02*
X244700D01*
X225007Y55373D02*
Y63932D01*
Y49042D02*
Y55373D01*
X232094Y65900D02*
X238000D01*
X232067Y47100D02*
X244600D01*
X220300Y25500D02*
X228800D01*
X222867Y34500D02*
X228800D01*
X218800Y38567D02*
X222867Y34500D01*
X218800Y140067D02*
X222867Y136000D01*
X228800D01*
X220300Y127000D02*
X228800D01*
X232067Y148600D02*
X244600D01*
X232094Y167400D02*
X238000D01*
X225007Y150542D02*
Y156873D01*
Y165431D01*
X238000Y167400D02*
X244700D01*
X238000D02*
Y173000D01*
Y156973D02*
Y161300D01*
X232094Y156873D02*
X244673D01*
X238000Y173000D02*
X239600Y174600D01*
X246700D01*
X221373Y156873D02*
X225007D01*
X218600Y154100D02*
X221373Y156873D01*
X218600Y150200D02*
Y154100D01*
X225007Y150542D02*
X226949Y148600D01*
X225007Y165431D02*
X226976Y167400D01*
X286800Y140067D02*
X290867Y136000D01*
X296800D01*
X288300Y127000D02*
X296800D01*
X300067Y148600D02*
X312600D01*
X300094Y167400D02*
X306000D01*
X293007Y150542D02*
Y156873D01*
Y165431D01*
X306000Y167400D02*
X312700D01*
X306000D02*
Y173000D01*
Y156973D02*
Y161300D01*
X300094Y156873D02*
X312673D01*
X306000Y173000D02*
X307600Y174600D01*
X314700D01*
X289373Y156873D02*
X293007D01*
X286600Y154100D02*
X289373Y156873D01*
X286600Y150200D02*
Y154100D01*
X293007Y150542D02*
X294949Y148600D01*
X293007Y165431D02*
X294976Y167400D01*
X354200Y140067D02*
X358267Y136000D01*
X364200D01*
X355700Y127000D02*
X364200D01*
X367467Y148600D02*
X380000D01*
X367494Y167400D02*
X373400D01*
X360407Y150542D02*
Y156873D01*
Y165431D01*
X373400Y167400D02*
X380100D01*
X373400D02*
Y173000D01*
Y156973D02*
Y161300D01*
X367494Y156873D02*
X380073D01*
X373400Y173000D02*
X375000Y174600D01*
X382100D01*
X356773Y156873D02*
X360407D01*
X354000Y154100D02*
X356773Y156873D01*
X354000Y150200D02*
Y154100D01*
X360407Y150542D02*
X362349Y148600D01*
X360407Y165431D02*
X362376Y167400D01*
D41*
X76500Y299028D02*
Y304400D01*
X74300Y306600D02*
X76500Y304400D01*
X63012Y306600D02*
X74300D01*
X61000Y308612D02*
Y320600D01*
Y308612D02*
X63012Y306600D01*
X81800Y308400D02*
X98300D01*
X79059Y305659D02*
X81800Y308400D01*
X79059Y299028D02*
Y305659D01*
X101800Y304900D02*
X108600D01*
X98300Y308400D02*
X101800Y304900D01*
X111800Y308100D02*
Y315400D01*
X108600Y304900D02*
X111800Y308100D01*
X95500Y261800D02*
Y262800D01*
X81618Y275800D02*
Y283918D01*
X79059Y270641D02*
Y275800D01*
Y270641D02*
X81100Y268600D01*
X89700D01*
X58200Y323400D02*
Y335500D01*
Y323400D02*
X61000Y320600D01*
X76500Y62728D02*
Y68100D01*
X74300Y70300D02*
X76500Y68100D01*
X63012Y70300D02*
X74300D01*
X61000Y72312D02*
Y84300D01*
Y72312D02*
X63012Y70300D01*
X81800Y72100D02*
X98300D01*
X79059Y69359D02*
X81800Y72100D01*
X79059Y62728D02*
Y69359D01*
X101800Y68600D02*
X108600D01*
X98300Y72100D02*
X101800Y68600D01*
X111800Y71800D02*
Y79100D01*
X108600Y68600D02*
X111800Y71800D01*
X95500Y25500D02*
Y26500D01*
X81618Y39500D02*
Y47618D01*
X79059Y34341D02*
Y39500D01*
Y34341D02*
X81100Y32300D01*
X89700D01*
X58200Y87100D02*
Y99200D01*
Y87100D02*
X61000Y84300D01*
X325600Y276200D02*
X330972D01*
X323400Y274000D02*
X325600Y276200D01*
X323400Y262712D02*
Y274000D01*
X309400Y260700D02*
X321388D01*
X323400Y262712D01*
X321600Y281500D02*
Y298000D01*
Y281500D02*
X324341Y278759D01*
X330972D01*
X325100Y301500D02*
Y308300D01*
X321600Y298000D02*
X325100Y301500D01*
X314600Y311500D02*
X321900D01*
X325100Y308300D01*
X367200Y295200D02*
X368200D01*
X346082Y281318D02*
X354200D01*
Y278759D02*
X359359D01*
X361400Y280800D01*
Y289400D01*
X294500Y257900D02*
X306600D01*
X309400Y260700D01*
X350300Y62600D02*
X353800D01*
X348000Y60300D02*
X350300Y62600D01*
X348000Y17419D02*
Y60300D01*
X344600Y62800D02*
X355100Y73300D01*
X359000D01*
X350200Y15200D02*
X355200D01*
X345718Y10082D02*
X355200D01*
X341200Y14600D02*
Y65900D01*
X352923Y7523D02*
X355200D01*
X377818Y10082D02*
X381900Y6000D01*
X373310Y10082D02*
X377818D01*
X384059Y12641D02*
X385900Y10800D01*
X373310Y12641D02*
X384059D01*
X346200Y70900D02*
Y80500D01*
X341200Y65900D02*
X346200Y70900D01*
X365977Y7523D02*
X373310D01*
X359000Y73300D02*
X366200Y80500D01*
X341200Y14600D02*
X345718Y10082D01*
X348000Y17419D02*
X350062Y15356D01*
X348059Y12641D02*
X355200D01*
X344600Y16100D02*
X348059Y12641D01*
X344600Y16100D02*
Y62800D01*
X349500Y4100D02*
X352923Y7523D01*
X343500Y4100D02*
X349500D01*
X364100Y9400D02*
X365977Y7523D01*
X367467Y43767D02*
Y47100D01*
X364100Y9400D02*
Y20000D01*
Y40400D02*
X367467Y43767D01*
X282900Y62600D02*
X286400D01*
X280600Y60300D02*
X282900Y62600D01*
X280600Y17419D02*
Y60300D01*
X277200Y62800D02*
X287700Y73300D01*
X291600D01*
X282800Y15200D02*
X287800D01*
X278318Y10082D02*
X287800D01*
X273800Y14600D02*
Y65900D01*
X285523Y7523D02*
X287800D01*
X310418Y10082D02*
X314500Y6000D01*
X305910Y10082D02*
X310418D01*
X316659Y12641D02*
X318500Y10800D01*
X305910Y12641D02*
X316659D01*
X278800Y70900D02*
Y80500D01*
X273800Y65900D02*
X278800Y70900D01*
X298577Y7523D02*
X305910D01*
X291600Y73300D02*
X298800Y80500D01*
X273800Y14600D02*
X278318Y10082D01*
X280600Y17419D02*
X282663Y15356D01*
X280659Y12641D02*
X287800D01*
X277200Y16100D02*
X280659Y12641D01*
X277200Y16100D02*
Y62800D01*
X282100Y4100D02*
X285523Y7523D01*
X276100Y4100D02*
X282100D01*
X296700Y9400D02*
X298577Y7523D01*
X300067Y43767D02*
Y47100D01*
X296700Y9400D02*
Y20000D01*
Y40400D02*
X300067Y43767D01*
X214900Y62600D02*
X218400D01*
X212600Y60300D02*
X214900Y62600D01*
X212600Y17419D02*
Y60300D01*
X209200Y62800D02*
X219700Y73300D01*
X223600D01*
X214800Y15200D02*
X219800D01*
X210318Y10082D02*
X219800D01*
X205800Y14600D02*
Y65900D01*
X217523Y7523D02*
X219800D01*
X242418Y10082D02*
X246500Y6000D01*
X237910Y10082D02*
X242418D01*
X248659Y12641D02*
X250500Y10800D01*
X237910Y12641D02*
X248659D01*
X210800Y70900D02*
Y80500D01*
X205800Y65900D02*
X210800Y70900D01*
X230577Y7523D02*
X237910D01*
X223600Y73300D02*
X230800Y80500D01*
X205800Y14600D02*
X210318Y10082D01*
X212600Y17419D02*
X214663Y15356D01*
X212659Y12641D02*
X219800D01*
X209200Y16100D02*
X212659Y12641D01*
X209200Y16100D02*
Y62800D01*
X214100Y4100D02*
X217523Y7523D01*
X208100Y4100D02*
X214100D01*
X228700Y9400D02*
X230577Y7523D01*
X232067Y43767D02*
Y47100D01*
X228700Y9400D02*
Y20000D01*
Y40400D02*
X232067Y43767D01*
X228700Y141900D02*
X232067Y145267D01*
X228700Y110900D02*
Y121500D01*
X232067Y145267D02*
Y148600D01*
X228700Y110900D02*
X230577Y109023D01*
X208100Y105600D02*
X214100D01*
X217523Y109023D01*
X209200Y117600D02*
Y164300D01*
Y117600D02*
X212659Y114141D01*
X219800D01*
X212600Y118919D02*
X214663Y116856D01*
X205800Y116100D02*
X210318Y111582D01*
X223600Y174800D02*
X230800Y182000D01*
X230577Y109023D02*
X237910D01*
X205800Y167400D02*
X210800Y172400D01*
Y182000D01*
X237910Y114141D02*
X248659D01*
X250500Y112300D01*
X237910Y111582D02*
X242418D01*
X246500Y107500D01*
X217523Y109023D02*
X219800D01*
X205800Y116100D02*
Y167400D01*
X210318Y111582D02*
X219800D01*
X214800Y116700D02*
X219800D01*
X219700Y174800D02*
X223600D01*
X209200Y164300D02*
X219700Y174800D01*
X212600Y118919D02*
Y161800D01*
X214900Y164100D01*
X218400D01*
X296700Y141900D02*
X300067Y145267D01*
X296700Y110900D02*
Y121500D01*
X300067Y145267D02*
Y148600D01*
X296700Y110900D02*
X298577Y109023D01*
X276100Y105600D02*
X282100D01*
X285523Y109023D01*
X277200Y117600D02*
Y164300D01*
Y117600D02*
X280659Y114141D01*
X287800D01*
X280600Y118919D02*
X282663Y116856D01*
X273800Y116100D02*
X278318Y111582D01*
X291600Y174800D02*
X298800Y182000D01*
X298577Y109023D02*
X305910D01*
X273800Y167400D02*
X278800Y172400D01*
Y182000D01*
X305910Y114141D02*
X316659D01*
X318500Y112300D01*
X305910Y111582D02*
X310418D01*
X314500Y107500D01*
X285523Y109023D02*
X287800D01*
X273800Y116100D02*
Y167400D01*
X278318Y111582D02*
X287800D01*
X282800Y116700D02*
X287800D01*
X287700Y174800D02*
X291600D01*
X277200Y164300D02*
X287700Y174800D01*
X280600Y118919D02*
Y161800D01*
X282900Y164100D01*
X286400D01*
X364100Y141900D02*
X367467Y145267D01*
X364100Y110900D02*
Y121500D01*
X367467Y145267D02*
Y148600D01*
X364100Y110900D02*
X365977Y109023D01*
X343500Y105600D02*
X349500D01*
X352923Y109023D01*
X344600Y117600D02*
Y164300D01*
Y117600D02*
X348059Y114141D01*
X355200D01*
X348000Y118919D02*
X350062Y116856D01*
X341200Y116100D02*
X345718Y111582D01*
X359000Y174800D02*
X366200Y182000D01*
X365977Y109023D02*
X373310D01*
X341200Y167400D02*
X346200Y172400D01*
Y182000D01*
X373310Y114141D02*
X384059D01*
X385900Y112300D01*
X373310Y111582D02*
X377818D01*
X381900Y107500D01*
X352923Y109023D02*
X355200D01*
X341200Y116100D02*
Y167400D01*
X345718Y111582D02*
X355200D01*
X350200Y116700D02*
X355200D01*
X355100Y174800D02*
X359000D01*
X344600Y164300D02*
X355100Y174800D01*
X348000Y118919D02*
Y161800D01*
X350300Y164100D01*
X353800D01*
D42*
X53800Y265100D02*
X63100D01*
X70500Y257700D01*
X66300Y374800D02*
X68600Y377100D01*
X50400Y374800D02*
X66300D01*
X48600Y376600D02*
X50400Y374800D01*
X68600Y377100D02*
Y381500D01*
X48600Y376600D02*
Y380500D01*
X26000Y316418D02*
X29445Y319863D01*
X26000Y311700D02*
Y316418D01*
X38100Y329500D02*
Y335200D01*
Y329500D02*
X39863Y327737D01*
X47555D01*
X73800Y240500D02*
X98100D01*
X70500Y243800D02*
X73800Y240500D01*
X53800Y275100D02*
X58500Y279800D01*
X73700Y261800D02*
X80500D01*
X65600Y269900D02*
X73700Y261800D01*
X58800Y269900D02*
X65600D01*
X70500Y243800D02*
Y257700D01*
X114500Y387800D02*
X120500D01*
X112000Y385300D02*
X114500Y387800D01*
X112000Y363600D02*
Y385300D01*
X144500Y345800D02*
X157303D01*
X170500Y255800D02*
X184500D01*
X170500Y265800D02*
X184500D01*
X170500Y275800D02*
X184500D01*
X30300Y335200D02*
X38100D01*
X27700Y337800D02*
X30300Y335200D01*
X26500Y337800D02*
X27700D01*
X82900Y327700D02*
X85700Y330500D01*
X170500Y285800D02*
X184500D01*
X77017Y385417D02*
X81272D01*
X73100Y381500D02*
X77017Y385417D01*
X68600Y381500D02*
X73100D01*
X120700Y358000D02*
X122500Y359800D01*
X106400Y358000D02*
X120700D01*
X76000Y327700D02*
X82900D01*
X38100Y335200D02*
Y341600D01*
X106400Y358000D02*
X112000Y363600D01*
X66000Y327700D02*
X76000D01*
X41900Y257800D02*
X46900D01*
X53800Y264700D01*
Y275100D01*
Y28800D02*
X63100D01*
X70500Y21400D01*
X66300Y138500D02*
X68600Y140800D01*
X50400Y138500D02*
X66300D01*
X48600Y140300D02*
X50400Y138500D01*
X68600Y140800D02*
Y145200D01*
X48600Y140300D02*
Y144200D01*
X26000Y80118D02*
X29445Y83563D01*
X26000Y75400D02*
Y80118D01*
X38100Y93200D02*
Y98900D01*
Y93200D02*
X39863Y91437D01*
X47555D01*
X73800Y4200D02*
X98100D01*
X70500Y7500D02*
X73800Y4200D01*
X53800Y38800D02*
X58500Y43500D01*
X73700Y25500D02*
X80500D01*
X65600Y33600D02*
X73700Y25500D01*
X58800Y33600D02*
X65600D01*
X70500Y7500D02*
Y21400D01*
X114500Y151500D02*
X120500D01*
X112000Y149000D02*
X114500Y151500D01*
X112000Y127300D02*
Y149000D01*
X144500Y109500D02*
X157303D01*
X170500Y19500D02*
X184500D01*
X170500Y29500D02*
X184500D01*
X170500Y39500D02*
X184500D01*
X30300Y98900D02*
X38100D01*
X27700Y101500D02*
X30300Y98900D01*
X26500Y101500D02*
X27700D01*
X82900Y91400D02*
X85700Y94200D01*
X170500Y49500D02*
X184500D01*
X77017Y149117D02*
X81272D01*
X73100Y145200D02*
X77017Y149117D01*
X68600Y145200D02*
X73100D01*
X120700Y121700D02*
X122500Y123500D01*
X106400Y121700D02*
X120700D01*
X76000Y91400D02*
X82900D01*
X38100Y98900D02*
Y105300D01*
X106400Y121700D02*
X112000Y127300D01*
X66000Y91400D02*
X76000D01*
X41900Y21500D02*
X46900D01*
X53800Y28400D01*
Y38800D01*
X364900Y253500D02*
Y262800D01*
X372300Y270200D01*
X252900Y268300D02*
X255200Y266000D01*
Y250100D02*
Y266000D01*
X253400Y248300D02*
X255200Y250100D01*
X248500Y268300D02*
X252900D01*
X249500Y248300D02*
X253400D01*
X310137Y229145D02*
X313582Y225700D01*
X318300D01*
X294800Y237800D02*
X300500D01*
X302263Y239563D01*
Y247255D01*
X389500Y273500D02*
Y297800D01*
X386200Y270200D02*
X389500Y273500D01*
X350200Y258200D02*
X354900Y253500D01*
X368200Y273400D02*
Y280200D01*
X360100Y265300D02*
X368200Y273400D01*
X360100Y258500D02*
Y265300D01*
X372300Y270200D02*
X386200D01*
X242200Y314200D02*
Y320200D01*
Y314200D02*
X244700Y311700D01*
X266400D01*
X284200Y344200D02*
Y357003D01*
X374200Y370200D02*
Y384200D01*
X364200Y370200D02*
Y384200D01*
X354200Y370200D02*
Y384200D01*
X294800Y230000D02*
Y237800D01*
X292200Y227400D02*
X294800Y230000D01*
X292200Y226200D02*
Y227400D01*
X299500Y285400D02*
X302300Y282600D01*
X344200Y370200D02*
Y384200D01*
X244584Y276716D02*
Y280972D01*
Y276716D02*
X248500Y272800D01*
Y268300D02*
Y272800D01*
X270200Y322200D02*
X272000Y320400D01*
Y306100D02*
Y320400D01*
X302300Y275700D02*
Y282600D01*
X288400Y237800D02*
X294800D01*
X266400Y311700D02*
X272000Y306100D01*
X302300Y265700D02*
Y275700D01*
X372200Y241600D02*
Y246600D01*
X365300Y253500D02*
X372200Y246600D01*
X354900Y253500D02*
X365300D01*
X389000Y45700D02*
Y47100D01*
X386200Y75100D02*
Y80500D01*
Y75100D02*
X389100Y72200D01*
Y65900D02*
Y72200D01*
Y47100D02*
Y55400D01*
Y65900D01*
X377800Y40200D02*
X383200D01*
X389100Y46100D01*
X354000Y38767D02*
Y48700D01*
X371900Y34300D02*
X377800Y40200D01*
X354200Y24000D02*
X355700Y25500D01*
X371900Y16000D02*
Y34300D01*
X364200Y25500D02*
X371700D01*
X321600Y45700D02*
Y47100D01*
X318800Y75100D02*
Y80500D01*
Y75100D02*
X321700Y72200D01*
Y65900D02*
Y72200D01*
Y47100D02*
Y55400D01*
Y65900D01*
X310400Y40200D02*
X315800D01*
X321700Y46100D01*
X286600Y38767D02*
Y48700D01*
X304500Y34300D02*
X310400Y40200D01*
X286800Y24000D02*
X288300Y25500D01*
X304500Y16000D02*
Y34300D01*
X296800Y25500D02*
X304300D01*
X253600Y45700D02*
Y47100D01*
X250800Y75100D02*
Y80500D01*
Y75100D02*
X253700Y72200D01*
Y65900D02*
Y72200D01*
Y47100D02*
Y55400D01*
Y65900D01*
X242400Y40200D02*
X247800D01*
X253700Y46100D01*
X218600Y38767D02*
Y48700D01*
X236500Y34300D02*
X242400Y40200D01*
X218800Y24000D02*
X220300Y25500D01*
X236500Y16000D02*
Y34300D01*
X228800Y25500D02*
X236300D01*
X228800Y127000D02*
X236300D01*
X236500Y117500D02*
Y135800D01*
X218800Y125500D02*
X220300Y127000D01*
X236500Y135800D02*
X242400Y141700D01*
X218600Y140267D02*
Y150200D01*
X247800Y141700D02*
X253700Y147600D01*
X242400Y141700D02*
X247800D01*
X253700Y156900D02*
Y167400D01*
Y148600D02*
Y156900D01*
Y167400D02*
Y173700D01*
X250800Y176600D02*
X253700Y173700D01*
X250800Y176600D02*
Y182000D01*
X253600Y147200D02*
Y148600D01*
X296800Y127000D02*
X304300D01*
X304500Y117500D02*
Y135800D01*
X286800Y125500D02*
X288300Y127000D01*
X304500Y135800D02*
X310400Y141700D01*
X286600Y140267D02*
Y150200D01*
X315800Y141700D02*
X321700Y147600D01*
X310400Y141700D02*
X315800D01*
X321700Y156900D02*
Y167400D01*
Y148600D02*
Y156900D01*
Y167400D02*
Y173700D01*
X318800Y176600D02*
X321700Y173700D01*
X318800Y176600D02*
Y182000D01*
X321600Y147200D02*
Y148600D01*
X364200Y127000D02*
X371700D01*
X371900Y117500D02*
Y135800D01*
X354200Y125500D02*
X355700Y127000D01*
X371900Y135800D02*
X377800Y141700D01*
X354000Y140267D02*
Y150200D01*
X383200Y141700D02*
X389100Y147600D01*
X377800Y141700D02*
X383200D01*
X389100Y156900D02*
Y167400D01*
Y148600D02*
Y156900D01*
Y167400D02*
Y173700D01*
X386200Y176600D02*
X389100Y173700D01*
X386200Y176600D02*
Y182000D01*
X389000Y147200D02*
Y148600D01*
D43*
X101500Y313800D02*
X105500Y309800D01*
X26500Y355500D02*
Y365800D01*
X65500Y313800D02*
X101500D01*
Y77500D02*
X105500Y73500D01*
X26500Y119200D02*
Y129500D01*
X65500Y77500D02*
X101500D01*
X316200Y301200D02*
X320200Y305200D01*
X264200Y226200D02*
X274500D01*
X316200Y265200D02*
Y301200D01*
D44*
X17000Y346700D02*
X17100Y346800D01*
X133320Y375154D02*
X136866Y378700D01*
X166000D02*
X166209Y378490D01*
X48600Y381500D02*
Y382500D01*
Y380500D02*
Y381500D01*
X17000Y110400D02*
X17100Y110500D01*
X133320Y138854D02*
X136866Y142400D01*
X166000D02*
X166209Y142191D01*
X48600Y145200D02*
Y146200D01*
Y144200D02*
Y145200D01*
X283200Y216800D02*
X283300Y216700D01*
X251300Y336566D02*
X254846Y333020D01*
X251300Y365700D02*
X251509Y365910D01*
X247500Y248300D02*
X248500D01*
X249500D01*
X0Y0D02*
Y393701D01*
Y0D02*
X393701D01*
Y393701D01*
X0D02*
X393701D01*
X194000Y236300D02*
Y393700D01*
X0D02*
X194000D01*
X0Y236300D02*
X194000D01*
X0D02*
Y393700D01*
X194000Y0D02*
Y157400D01*
X0D02*
X194000D01*
X0Y0D02*
X194000D01*
X0D02*
Y157400D01*
X236300Y393700D02*
X393700D01*
X236300Y199700D02*
Y393700D01*
X393700Y199700D02*
Y393700D01*
X236300Y199700D02*
X393700D01*
X338700Y0D02*
Y87500D01*
Y0D02*
X393700D01*
X338700Y87500D02*
X393700D01*
Y0D02*
Y87500D01*
X271300Y0D02*
Y87500D01*
Y0D02*
X326300D01*
X271300Y87500D02*
X326300D01*
Y0D02*
Y87500D01*
X203300Y0D02*
Y87500D01*
Y0D02*
X258300D01*
X203300Y87500D02*
X258300D01*
Y0D02*
Y87500D01*
Y101500D02*
Y189000D01*
X203300D02*
X258300D01*
X203300Y101500D02*
X258300D01*
X203300D02*
Y189000D01*
X326300Y101500D02*
Y189000D01*
X271300D02*
X326300D01*
X271300Y101500D02*
X326300D01*
X271300D02*
Y189000D01*
X393700Y101500D02*
Y189000D01*
X338700D02*
X393700D01*
X338700Y101500D02*
X393700D01*
X338700D02*
Y189000D01*
D45*
X88457Y385692D02*
X95543D01*
X88457Y149392D02*
X95543D01*
X244308Y288157D02*
Y295243D01*
D46*
X91450Y379450D02*
D03*
Y143150D02*
D03*
D47*
X82950Y298900D02*
D03*
Y62600D02*
D03*
D48*
X91650Y392000D02*
D03*
Y155700D02*
D03*
D49*
X250550Y291150D02*
D03*
D50*
X331100Y282650D02*
D03*
D51*
X238000Y291350D02*
D03*
D52*
X364300Y8800D02*
D03*
X296900D02*
D03*
X228900D02*
D03*
Y110300D02*
D03*
X296900D02*
D03*
X364300D02*
D03*
D53*
X81272Y385417D02*
D03*
X102728D02*
D03*
X81272Y149117D02*
D03*
X102728D02*
D03*
D54*
X101547Y373487D02*
D03*
X82453D02*
D03*
X101547Y137187D02*
D03*
X82453D02*
D03*
D55*
X120500Y387800D02*
D03*
X138500Y302000D02*
D03*
X186500D02*
D03*
X116300Y245200D02*
D03*
X127100D02*
D03*
X170500Y285800D02*
D03*
Y245800D02*
D03*
Y255800D02*
D03*
Y265800D02*
D03*
Y275800D02*
D03*
X346200Y80500D02*
D03*
X386200D02*
D03*
X376200D02*
D03*
X366200D02*
D03*
X356200D02*
D03*
X8500Y245800D02*
D03*
Y255800D02*
D03*
Y265800D02*
D03*
Y275800D02*
D03*
X346200Y182000D02*
D03*
X386200D02*
D03*
X376200D02*
D03*
X366200D02*
D03*
X356200D02*
D03*
X278800D02*
D03*
X318800D02*
D03*
X308800D02*
D03*
X298800D02*
D03*
X288800D02*
D03*
X210800D02*
D03*
X250800D02*
D03*
X240800D02*
D03*
X230800D02*
D03*
X220800D02*
D03*
X210800Y80500D02*
D03*
X250800D02*
D03*
X240800D02*
D03*
X230800D02*
D03*
X220800D02*
D03*
X278800D02*
D03*
X318800D02*
D03*
X308800D02*
D03*
X298800D02*
D03*
X288800D02*
D03*
X344200Y384200D02*
D03*
X384200D02*
D03*
X374200D02*
D03*
X364200D02*
D03*
X354200D02*
D03*
X384200Y208200D02*
D03*
X374200D02*
D03*
X364200D02*
D03*
X354200D02*
D03*
X384800Y316000D02*
D03*
Y326800D02*
D03*
X243300Y209700D02*
D03*
X310200Y386200D02*
D03*
X242200Y320200D02*
D03*
X328000Y352200D02*
D03*
Y338200D02*
D03*
Y386200D02*
D03*
X344200Y370200D02*
D03*
X384200D02*
D03*
X374200D02*
D03*
X364200D02*
D03*
X354200D02*
D03*
X184500Y49500D02*
D03*
Y9500D02*
D03*
Y19500D02*
D03*
Y29500D02*
D03*
Y39500D02*
D03*
X8500Y9500D02*
D03*
Y19500D02*
D03*
Y29500D02*
D03*
Y39500D02*
D03*
X116300Y8900D02*
D03*
X127100D02*
D03*
X10000Y150400D02*
D03*
X186500Y83500D02*
D03*
X120500Y151500D02*
D03*
X152500Y65700D02*
D03*
X138500D02*
D03*
X186500D02*
D03*
X170500Y49500D02*
D03*
Y9500D02*
D03*
Y19500D02*
D03*
Y29500D02*
D03*
Y39500D02*
D03*
X184500Y285800D02*
D03*
Y245800D02*
D03*
Y255800D02*
D03*
Y265800D02*
D03*
Y275800D02*
D03*
X10000Y386700D02*
D03*
X186500Y319800D02*
D03*
X152500Y302000D02*
D03*
D56*
X120500Y339800D02*
D03*
X130500D02*
D03*
X290200Y320200D02*
D03*
Y330200D02*
D03*
X120500Y103500D02*
D03*
X130500D02*
D03*
D57*
X244584Y280972D02*
D03*
Y302428D02*
D03*
D58*
X256513Y301247D02*
D03*
Y282153D02*
D03*
D59*
X182300Y382700D02*
D03*
X28500Y249800D02*
D03*
X182300Y146400D02*
D03*
X28500Y13500D02*
D03*
X247300Y382000D02*
D03*
X380200Y228200D02*
D03*
X383800Y29000D02*
D03*
X316400D02*
D03*
X248400D02*
D03*
Y130500D02*
D03*
X316400D02*
D03*
X383800D02*
D03*
D60*
X170295Y357611D02*
D03*
X173051Y345800D02*
D03*
X166752Y339501D02*
D03*
X170295Y333989D02*
D03*
X166752Y345800D02*
D03*
X173051Y339501D02*
D03*
X166752Y352099D02*
D03*
X173051D02*
D03*
X272389Y369995D02*
D03*
X284200Y372751D02*
D03*
X290499Y366452D02*
D03*
X296011Y369995D02*
D03*
X284200Y366452D02*
D03*
X290499Y372751D02*
D03*
X277901Y366452D02*
D03*
Y372751D02*
D03*
X170295Y121311D02*
D03*
X173051Y109500D02*
D03*
X166752Y103201D02*
D03*
X170295Y97689D02*
D03*
X166752Y109500D02*
D03*
X173051Y103201D02*
D03*
X166752Y115799D02*
D03*
X173051D02*
D03*
D61*
X108400Y294800D02*
D03*
X137717Y313283D02*
D03*
X138800Y319000D02*
D03*
X137700Y326000D02*
D03*
X81700Y284000D02*
D03*
X89700Y268600D02*
D03*
X87500Y247200D02*
D03*
X58800Y269900D02*
D03*
X109300Y334800D02*
D03*
X41900Y257800D02*
D03*
X46900Y340700D02*
D03*
X59200Y358200D02*
D03*
X26000Y294700D02*
D03*
X53900Y340700D02*
D03*
X8000Y357200D02*
D03*
X108400Y58500D02*
D03*
X137717Y76983D02*
D03*
X138800Y82700D02*
D03*
X137700Y89700D02*
D03*
X81700Y47700D02*
D03*
X89700Y32300D02*
D03*
X87500Y10900D02*
D03*
X58800Y33600D02*
D03*
X109300Y98500D02*
D03*
X41900Y21500D02*
D03*
X46900Y104400D02*
D03*
X59200Y121900D02*
D03*
X26000Y58400D02*
D03*
X53900Y104400D02*
D03*
X8000Y120900D02*
D03*
X335200Y308100D02*
D03*
X316717Y337417D02*
D03*
X311000Y338500D02*
D03*
X304000Y337400D02*
D03*
X346000Y281400D02*
D03*
X361400Y289400D02*
D03*
X382800Y287200D02*
D03*
X360100Y258500D02*
D03*
X295200Y309000D02*
D03*
X372200Y241600D02*
D03*
X289300Y246600D02*
D03*
X271800Y258900D02*
D03*
X335300Y225700D02*
D03*
X289300Y253600D02*
D03*
X272800Y207700D02*
D03*
X353800Y62600D02*
D03*
X382100Y73100D02*
D03*
X373400Y59800D02*
D03*
X385900Y10800D02*
D03*
X381900Y6000D02*
D03*
X364100Y40400D02*
D03*
Y20000D02*
D03*
Y3900D02*
D03*
X286400Y62600D02*
D03*
X314700Y73100D02*
D03*
X306000Y59800D02*
D03*
X318500Y10800D02*
D03*
X314500Y6000D02*
D03*
X296700Y40400D02*
D03*
Y20000D02*
D03*
Y3900D02*
D03*
X218400Y62600D02*
D03*
X246700Y73100D02*
D03*
X238000Y59800D02*
D03*
X250500Y10800D02*
D03*
X246500Y6000D02*
D03*
X228700Y40400D02*
D03*
Y20000D02*
D03*
Y3900D02*
D03*
Y105400D02*
D03*
Y121500D02*
D03*
Y141900D02*
D03*
X246500Y107500D02*
D03*
X250500Y112300D02*
D03*
X238000Y161300D02*
D03*
X246700Y174600D02*
D03*
X218400Y164100D02*
D03*
X296700Y105400D02*
D03*
Y121500D02*
D03*
Y141900D02*
D03*
X314500Y107500D02*
D03*
X318500Y112300D02*
D03*
X306000Y161300D02*
D03*
X314700Y174600D02*
D03*
X286400Y164100D02*
D03*
X364100Y105400D02*
D03*
Y121500D02*
D03*
Y141900D02*
D03*
X381900Y107500D02*
D03*
X385900Y112300D02*
D03*
X373400Y161300D02*
D03*
X382100Y174600D02*
D03*
X353800Y164100D02*
D03*
D62*
X105500Y309800D02*
D03*
X130700Y307800D02*
D03*
X91200Y301200D02*
D03*
X104900Y279500D02*
D03*
X65500Y288700D02*
D03*
X26500Y355500D02*
D03*
X85700Y330500D02*
D03*
X155600Y365800D02*
D03*
X154000Y378600D02*
D03*
X38100Y335200D02*
D03*
X106400Y358000D02*
D03*
X144100Y245200D02*
D03*
X151400Y330200D02*
D03*
X144100Y285100D02*
D03*
X4300Y368800D02*
D03*
Y336800D02*
D03*
Y304800D02*
D03*
X38100Y320800D02*
D03*
X53900Y389600D02*
D03*
X150800D02*
D03*
X51500Y293200D02*
D03*
X105500Y73500D02*
D03*
X130700Y71500D02*
D03*
X91200Y64900D02*
D03*
X104900Y43200D02*
D03*
X65500Y52400D02*
D03*
X26500Y119200D02*
D03*
X85700Y94200D02*
D03*
X155600Y129500D02*
D03*
X154000Y142300D02*
D03*
X38100Y98900D02*
D03*
X106400Y121700D02*
D03*
X144100Y8900D02*
D03*
X151400Y93900D02*
D03*
X144100Y48800D02*
D03*
X4300Y132500D02*
D03*
Y100500D02*
D03*
Y68500D02*
D03*
X38100Y84500D02*
D03*
X53900Y153300D02*
D03*
X150800D02*
D03*
X51500Y56900D02*
D03*
X320200Y305200D02*
D03*
X322200Y330400D02*
D03*
X328800Y290900D02*
D03*
X350500Y304600D02*
D03*
X341300Y265200D02*
D03*
X274500Y226200D02*
D03*
X299500Y285400D02*
D03*
X264200Y355300D02*
D03*
X251400Y353700D02*
D03*
X294800Y237800D02*
D03*
X272000Y306100D02*
D03*
X384800Y343800D02*
D03*
X299800Y351100D02*
D03*
X344900Y343800D02*
D03*
X261200Y204000D02*
D03*
X293200D02*
D03*
X325200D02*
D03*
X309200Y237800D02*
D03*
X240400Y253600D02*
D03*
Y350500D02*
D03*
X336800Y251200D02*
D03*
X354000Y48700D02*
D03*
X343500Y4100D02*
D03*
X286600Y48700D02*
D03*
X276100Y4100D02*
D03*
X218600Y48700D02*
D03*
X208100Y4100D02*
D03*
Y105600D02*
D03*
X218600Y150200D02*
D03*
X276100Y105600D02*
D03*
X286600Y150200D02*
D03*
X343500Y105600D02*
D03*
X354000Y150200D02*
D03*
D63*
X70500Y243800D02*
D03*
X50500D02*
D03*
X60500Y256500D02*
D03*
X70500Y7500D02*
D03*
X50500D02*
D03*
X60500Y20200D02*
D03*
X386200Y270200D02*
D03*
Y250200D02*
D03*
X373500Y260200D02*
D03*
M02*
