M48
;Layer_Color=9474304
;FILE_FORMAT=2:5
INCH,LZ
;TYPE=PLATED
T5F00S00C0.03150
T7F00S00C0.03937
%
G90
G05
T05
G00X0196553Y0328675
M15
G01Y03271
M16
G00X0215647Y0328675
M15
G01Y03271
M16
G00X0379325Y0387553
M15
G01X03809
M16
G00X0379325Y0406647
M15
G01X03809
M16
G00X0215647Y0478675
M15
G01Y04771
M16
G00X0196553Y0478675
M15
G01Y04771
M16
T07
G00X0195372Y0340801
M15
G01Y0338832
M16
G00X0216828Y0340801
M15
G01Y0338832
M16
G00X0367199Y0386372
M15
G01X0369168
M16
G00X0367199Y0407828
M15
G01X0369168
M16
G00X0216828Y0490801
M15
G01Y0488832
M16
G00X0195372Y0490801
M15
G01Y0488832
M16
M17
M30
