%FSLAX23Y23*%
%MOIN*%
G70*
G01*
G75*
G04 Layer_Physical_Order=1*
G04 Layer_Color=255*
%ADD10R,0.079X0.150*%
%ADD11R,0.039X0.059*%
%ADD12R,0.063X0.055*%
%ADD13R,0.094X0.063*%
%ADD14R,0.059X0.039*%
%ADD15R,0.079X0.157*%
%ADD16R,0.100X0.200*%
%ADD17R,0.050X0.035*%
%ADD18R,0.110X0.079*%
%ADD19R,0.100X0.030*%
%ADD20R,0.017X0.066*%
%ADD21R,0.055X0.071*%
%ADD22R,0.090X0.150*%
%ADD23R,0.085X0.050*%
%ADD24R,0.150X0.079*%
%ADD25R,0.071X0.055*%
%ADD26R,0.063X0.094*%
%ADD27R,0.200X0.100*%
%ADD28R,0.079X0.110*%
%ADD29R,0.030X0.100*%
%ADD30R,0.026X0.042*%
%ADD31R,0.066X0.017*%
%ADD32R,0.150X0.090*%
%ADD33R,0.050X0.085*%
%ADD34C,0.025*%
%ADD35C,0.030*%
%ADD36C,0.040*%
%ADD37C,0.015*%
%ADD38C,0.020*%
%ADD39C,0.035*%
%ADD40C,0.050*%
%ADD41C,0.055*%
%ADD42C,0.010*%
%ADD43C,0.045*%
%ADD44C,0.060*%
%ADD45R,0.151X0.305*%
%ADD46R,0.035X0.075*%
%ADD47R,0.065X0.080*%
%ADD48R,0.280X0.151*%
%ADD49R,0.052X0.100*%
%ADD50R,0.094X0.047*%
%ADD51R,0.120X0.040*%
%ADD52R,0.035X0.045*%
%ADD53R,0.085X0.065*%
%ADD54R,0.064X0.076*%
%ADD55R,0.044X0.080*%
%ADD56C,0.079*%
%ADD57C,0.100*%
%ADD58C,0.138*%
%ADD59C,0.040*%
%ADD60C,0.050*%
%ADD61C,0.070*%
D10*
X3394Y800D02*
D03*
X3630D02*
D03*
X1494D02*
D03*
X1730D02*
D03*
D11*
X3540Y635D02*
D03*
X3630D02*
D03*
X2465Y890D02*
D03*
X2375D02*
D03*
X2365Y405D02*
D03*
X2275D02*
D03*
X2472Y475D02*
D03*
X2562D02*
D03*
X2745Y840D02*
D03*
X2655D02*
D03*
X3464Y590D02*
D03*
X3374D02*
D03*
X2365Y295D02*
D03*
X2455D02*
D03*
X465D02*
D03*
X555D02*
D03*
X1564Y590D02*
D03*
X1474D02*
D03*
X845Y840D02*
D03*
X755D02*
D03*
X572Y475D02*
D03*
X662D02*
D03*
X465Y405D02*
D03*
X375D02*
D03*
X565Y890D02*
D03*
X475D02*
D03*
X1640Y635D02*
D03*
X1730D02*
D03*
X3545Y2345D02*
D03*
X3455D02*
D03*
X3528Y2665D02*
D03*
X3618D02*
D03*
X2555Y3470D02*
D03*
X2645D02*
D03*
X2928Y3351D02*
D03*
X3018D02*
D03*
X3248Y2985D02*
D03*
X3158D02*
D03*
X3445D02*
D03*
X3355D02*
D03*
X3400Y3065D02*
D03*
X3490D02*
D03*
X2395Y3495D02*
D03*
X2485D02*
D03*
X3670Y3350D02*
D03*
X3760D02*
D03*
X2988Y2706D02*
D03*
X2898D02*
D03*
X3593Y2951D02*
D03*
X3683D02*
D03*
X2713Y3101D02*
D03*
X2803D02*
D03*
X758D02*
D03*
X848D02*
D03*
X1638Y2951D02*
D03*
X1728D02*
D03*
X1033Y2706D02*
D03*
X943D02*
D03*
X1715Y3350D02*
D03*
X1805D02*
D03*
X440Y3495D02*
D03*
X530D02*
D03*
X1445Y3065D02*
D03*
X1535D02*
D03*
X1490Y2985D02*
D03*
X1400D02*
D03*
X1293D02*
D03*
X1203D02*
D03*
X973Y3351D02*
D03*
X1063D02*
D03*
X600Y3470D02*
D03*
X690D02*
D03*
X1573Y2665D02*
D03*
X1663D02*
D03*
X1590Y2345D02*
D03*
X1500D02*
D03*
D12*
X3460Y1712D02*
D03*
Y1570D02*
D03*
X1560Y1712D02*
D03*
Y1570D02*
D03*
X2823Y3008D02*
D03*
Y2866D02*
D03*
X868Y3008D02*
D03*
Y2866D02*
D03*
D13*
X2865Y1710D02*
D03*
Y1545D02*
D03*
X965Y1710D02*
D03*
Y1545D02*
D03*
D14*
X2595Y1605D02*
D03*
Y1695D02*
D03*
X2730Y1710D02*
D03*
Y1620D02*
D03*
X2710Y610D02*
D03*
Y700D02*
D03*
X2810Y515D02*
D03*
Y425D02*
D03*
X3035Y730D02*
D03*
Y640D02*
D03*
X2930Y730D02*
D03*
Y640D02*
D03*
X2625Y1440D02*
D03*
Y1530D02*
D03*
X2590Y1050D02*
D03*
Y1140D02*
D03*
X690Y1050D02*
D03*
Y1140D02*
D03*
X725Y1440D02*
D03*
Y1530D02*
D03*
X1030Y730D02*
D03*
Y640D02*
D03*
X1135Y730D02*
D03*
Y640D02*
D03*
X910Y515D02*
D03*
Y425D02*
D03*
X810Y610D02*
D03*
Y700D02*
D03*
X830Y1710D02*
D03*
Y1620D02*
D03*
X695Y1605D02*
D03*
Y1695D02*
D03*
X3015Y2525D02*
D03*
Y2615D02*
D03*
X3303Y3161D02*
D03*
Y3071D02*
D03*
X3535Y2793D02*
D03*
Y2883D02*
D03*
X3415Y3340D02*
D03*
Y3250D02*
D03*
X3303Y3340D02*
D03*
Y3250D02*
D03*
X2535Y3055D02*
D03*
Y2965D02*
D03*
X580Y3055D02*
D03*
Y2965D02*
D03*
X1348Y3340D02*
D03*
Y3250D02*
D03*
X1460Y3340D02*
D03*
Y3250D02*
D03*
X1580Y2793D02*
D03*
Y2883D02*
D03*
X1348Y3161D02*
D03*
Y3071D02*
D03*
X1060Y2525D02*
D03*
Y2615D02*
D03*
D15*
X3636Y1065D02*
D03*
X3345D02*
D03*
X1736D02*
D03*
X1445D02*
D03*
X2692Y2331D02*
D03*
X2983D02*
D03*
X737D02*
D03*
X1028D02*
D03*
D16*
X2835Y1307D02*
D03*
Y1043D02*
D03*
X935Y1307D02*
D03*
Y1043D02*
D03*
D17*
X2555Y1310D02*
D03*
Y1235D02*
D03*
X2634Y1273D02*
D03*
X655Y1310D02*
D03*
Y1235D02*
D03*
X734Y1273D02*
D03*
X2698Y2928D02*
D03*
Y3003D02*
D03*
X2619Y2965D02*
D03*
X743Y2928D02*
D03*
Y3003D02*
D03*
X664Y2965D02*
D03*
D18*
X3590Y1336D02*
D03*
Y1490D02*
D03*
X1690Y1336D02*
D03*
Y1490D02*
D03*
D19*
X2365Y750D02*
D03*
Y700D02*
D03*
Y650D02*
D03*
Y600D02*
D03*
X2570Y650D02*
D03*
Y700D02*
D03*
Y600D02*
D03*
Y750D02*
D03*
X465D02*
D03*
Y700D02*
D03*
Y650D02*
D03*
Y600D02*
D03*
X670Y650D02*
D03*
Y700D02*
D03*
Y600D02*
D03*
Y750D02*
D03*
D20*
X3445Y480D02*
D03*
X3419D02*
D03*
X3394D02*
D03*
X3368D02*
D03*
X3445Y299D02*
D03*
X3419D02*
D03*
X3394D02*
D03*
X3368D02*
D03*
X1545Y480D02*
D03*
X1519D02*
D03*
X1494D02*
D03*
X1468D02*
D03*
X1545Y299D02*
D03*
X1519D02*
D03*
X1494D02*
D03*
X1468D02*
D03*
D21*
X2550Y295D02*
D03*
X2696D02*
D03*
X650D02*
D03*
X796D02*
D03*
D22*
X3412Y1377D02*
D03*
X1512D02*
D03*
D23*
X3160Y1287D02*
D03*
Y1377D02*
D03*
Y1467D02*
D03*
X1260Y1287D02*
D03*
Y1377D02*
D03*
Y1467D02*
D03*
D24*
X3153Y2260D02*
D03*
Y2496D02*
D03*
X1198Y2260D02*
D03*
Y2496D02*
D03*
D25*
X3355Y2505D02*
D03*
Y2359D02*
D03*
X3788Y2646D02*
D03*
Y2500D02*
D03*
X1833Y2646D02*
D03*
Y2500D02*
D03*
X1400Y2505D02*
D03*
Y2359D02*
D03*
D26*
X2878Y3471D02*
D03*
X3043D02*
D03*
X923D02*
D03*
X1088D02*
D03*
D27*
X2403Y3225D02*
D03*
X2667D02*
D03*
X448D02*
D03*
X712D02*
D03*
D28*
X2572Y2251D02*
D03*
X2418D02*
D03*
X617D02*
D03*
X463D02*
D03*
D29*
X3305Y2640D02*
D03*
X3355D02*
D03*
X3405D02*
D03*
X3455D02*
D03*
X3405Y2845D02*
D03*
X3355D02*
D03*
X3455D02*
D03*
X3305D02*
D03*
X1350Y2640D02*
D03*
X1400D02*
D03*
X1450D02*
D03*
X1500D02*
D03*
X1450Y2845D02*
D03*
X1400D02*
D03*
X1500D02*
D03*
X1350D02*
D03*
D30*
X3618Y2483D02*
D03*
X3580Y2585D02*
D03*
X3618D02*
D03*
X3655D02*
D03*
Y2483D02*
D03*
X3580D02*
D03*
X1663D02*
D03*
X1625Y2585D02*
D03*
X1663D02*
D03*
X1700D02*
D03*
Y2483D02*
D03*
X1625D02*
D03*
D31*
X3755Y3105D02*
D03*
Y3131D02*
D03*
Y3156D02*
D03*
Y3182D02*
D03*
X3574Y3105D02*
D03*
Y3131D02*
D03*
Y3156D02*
D03*
Y3182D02*
D03*
X1800Y3105D02*
D03*
Y3131D02*
D03*
Y3156D02*
D03*
Y3182D02*
D03*
X1619Y3105D02*
D03*
Y3131D02*
D03*
Y3156D02*
D03*
Y3182D02*
D03*
D32*
X2203Y2678D02*
D03*
X248D02*
D03*
D33*
X2293Y2426D02*
D03*
X2203D02*
D03*
X2113D02*
D03*
X338D02*
D03*
X248D02*
D03*
X158D02*
D03*
D34*
X2595Y1530D02*
Y1605D01*
X2190Y405D02*
X2275D01*
X2355Y965D02*
Y1125D01*
X2305Y1175D02*
X2355Y1125D01*
X2655Y1355D02*
X2795D01*
X2625Y1385D02*
X2655Y1355D01*
X2625Y1385D02*
Y1440D01*
X3394Y800D02*
X3510D01*
X3540Y770D01*
Y635D02*
Y770D01*
X3035Y730D02*
Y810D01*
X2200Y1660D02*
X2395D01*
X2865Y1545D02*
Y1595D01*
X2840Y1620D02*
X2865Y1595D01*
X2730Y1620D02*
X2840D01*
X2930Y730D02*
X3035D01*
X3394Y800D02*
X3395Y799D01*
X2395Y1660D02*
X2430Y1695D01*
X2595D01*
X2720Y1620D02*
X2730D01*
X2645Y1695D02*
X2720Y1620D01*
X2595Y1695D02*
X2645D01*
X2730Y1710D02*
X2865D01*
X2450Y1605D02*
X2595D01*
X2320Y1475D02*
X2450Y1605D01*
X2890Y1690D02*
X2925Y1655D01*
X3005D01*
X3040Y1395D02*
Y1465D01*
X3075Y1500D01*
Y1630D01*
X3050Y1655D02*
X3075Y1630D01*
X3005Y1655D02*
X3050D01*
X2170Y1175D02*
X2305D01*
X2170Y1475D02*
X2320D01*
X2295Y1275D02*
X2500Y1480D01*
X2170Y1275D02*
X2295D01*
X2315Y1375D02*
X2470Y1530D01*
X2170Y1375D02*
X2315D01*
X270D02*
X415D01*
X570Y1530D01*
X270Y1275D02*
X395D01*
X600Y1480D01*
X270Y1475D02*
X420D01*
X270Y1175D02*
X405D01*
X1105Y1655D02*
X1150D01*
X1175Y1630D01*
Y1500D02*
Y1630D01*
X1140Y1465D02*
X1175Y1500D01*
X1140Y1395D02*
Y1465D01*
X1025Y1655D02*
X1105D01*
X990Y1690D02*
X1025Y1655D01*
X420Y1475D02*
X550Y1605D01*
X695D01*
X830Y1710D02*
X965D01*
X695Y1695D02*
X745D01*
X820Y1620D01*
X830D01*
X530Y1695D02*
X695D01*
X495Y1660D02*
X530Y1695D01*
X1494Y800D02*
X1495Y799D01*
X1030Y730D02*
X1135D01*
X830Y1620D02*
X940D01*
X965Y1595D01*
Y1545D02*
Y1595D01*
X300Y1660D02*
X495D01*
X1135Y730D02*
Y810D01*
X1640Y635D02*
Y770D01*
X1610Y800D02*
X1640Y770D01*
X1494Y800D02*
X1610D01*
X725Y1385D02*
Y1440D01*
Y1385D02*
X755Y1355D01*
X895D01*
X405Y1175D02*
X455Y1125D01*
Y965D02*
Y1125D01*
X290Y405D02*
X375D01*
X695Y1530D02*
Y1605D01*
X743Y3003D02*
X845D01*
X1269Y3407D02*
X1336Y3340D01*
X1597Y2951D02*
X1638D01*
X498Y3346D02*
X530Y3378D01*
Y3495D01*
X1088Y3391D02*
Y3471D01*
X1063Y3366D02*
X1088Y3391D01*
X1063Y3351D02*
Y3366D01*
X1400Y2359D02*
X1472Y2431D01*
X1573Y2587D02*
Y2665D01*
X1587Y2689D02*
X1638Y2740D01*
X1211Y2845D02*
X1350D01*
X1500Y2514D02*
X1571Y2585D01*
X1638Y2740D02*
Y2933D01*
X1409Y2514D02*
X1500D01*
X1563Y2985D02*
X1597Y2951D01*
X690Y3470D02*
Y3595D01*
X1169Y2887D02*
X1211Y2845D01*
X3124Y2887D02*
X3166Y2845D01*
X2645Y3470D02*
Y3595D01*
X3518Y2985D02*
X3552Y2951D01*
X3364Y2514D02*
X3455D01*
X3593Y2740D02*
Y2933D01*
X3455Y2514D02*
X3526Y2585D01*
X3166Y2845D02*
X3305D01*
X3542Y2689D02*
X3593Y2740D01*
X3528Y2587D02*
Y2665D01*
X3355Y2359D02*
X3427Y2431D01*
X3018Y3351D02*
Y3366D01*
X3043Y3391D01*
Y3471D01*
X2485Y3378D02*
Y3495D01*
X2453Y3346D02*
X2485Y3378D01*
X3552Y2951D02*
X3593D01*
X3224Y3407D02*
X3291Y3340D01*
X2698Y3003D02*
X2800D01*
D35*
X3345Y1515D02*
Y1550D01*
X3365Y1570D01*
X3460D01*
X2590Y1050D02*
X2828D01*
X2235Y890D02*
X2375D01*
X2170Y955D02*
X2235Y890D01*
X2170Y955D02*
Y1075D01*
X3535Y490D02*
Y524D01*
X3469Y590D02*
X3535Y524D01*
X2485Y1155D02*
X2555Y1225D01*
X2634Y1184D02*
Y1273D01*
X2590Y1140D02*
X2634Y1184D01*
X690Y1140D02*
X734Y1184D01*
Y1273D01*
X585Y1155D02*
X655Y1225D01*
X1569Y590D02*
X1635Y524D01*
Y490D02*
Y524D01*
X270Y955D02*
Y1075D01*
Y955D02*
X335Y890D01*
X475D01*
X690Y1050D02*
X928D01*
X1465Y1570D02*
X1560D01*
X1445Y1550D02*
X1465Y1570D01*
X1445Y1515D02*
Y1550D01*
X936Y3444D02*
X973Y3406D01*
Y3351D02*
Y3406D01*
X2928Y3351D02*
Y3406D01*
X2891Y3444D02*
X2928Y3406D01*
D36*
X3405Y1670D02*
X3450Y1715D01*
X3320Y1670D02*
X3405D01*
X3160Y1377D02*
X3264D01*
X1260D02*
X1364D01*
X1420Y1670D02*
X1505D01*
X1550Y1715D01*
X1819Y2646D02*
X1825D01*
X1833D01*
X1088Y3471D02*
Y3595D01*
X248Y2426D02*
Y2530D01*
X1106Y2887D02*
X1169D01*
X985Y3008D02*
X1106Y2887D01*
X868Y3008D02*
X985D01*
X2823D02*
X2940D01*
X3061Y2887D01*
X3124D01*
X2203Y2426D02*
Y2530D01*
X3043Y3471D02*
Y3595D01*
X3780Y2646D02*
X3788D01*
X3774D02*
X3780D01*
D37*
X2625Y1530D02*
X2715D01*
X2595D02*
X2625D01*
X3305Y665D02*
X3390D01*
X2940Y1480D02*
X2960Y1500D01*
X2765Y1480D02*
X2940D01*
X2715Y1530D02*
X2765Y1480D01*
X2810Y515D02*
Y615D01*
X2770Y655D02*
X2810Y615D01*
X2570Y495D02*
X2647Y572D01*
X3535Y360D02*
Y490D01*
X3474Y299D02*
X3535Y360D01*
X3445Y299D02*
X3474D01*
X3505Y250D02*
X3600D01*
X3455Y200D02*
X3505Y250D01*
X3400Y200D02*
X3455D01*
X3368Y232D02*
X3400Y200D01*
X3368Y232D02*
Y299D01*
X3305Y480D02*
X3365D01*
X3374Y551D02*
Y590D01*
Y551D02*
X3394Y531D01*
Y480D02*
Y531D01*
X3390Y665D02*
X3419Y636D01*
Y480D02*
Y636D01*
X3200Y430D02*
X3245Y385D01*
X3420D01*
X3445Y410D01*
Y480D01*
X2960Y1500D02*
Y1540D01*
X3000Y1580D01*
X2495Y1310D02*
X2555D01*
X2475Y1290D02*
X2495Y1310D01*
X2475Y1230D02*
Y1290D01*
X2570Y650D02*
X2647D01*
Y572D02*
Y650D01*
X2666D01*
X2671Y655D01*
X2770D01*
X771D02*
X870D01*
X766Y650D02*
X771Y655D01*
X747Y650D02*
X766D01*
X747Y572D02*
Y650D01*
X670D02*
X747D01*
X575Y1230D02*
Y1290D01*
X595Y1310D01*
X655D01*
X1060Y1540D02*
X1100Y1580D01*
X1060Y1500D02*
Y1540D01*
X1545Y410D02*
Y480D01*
X1520Y385D02*
X1545Y410D01*
X1345Y385D02*
X1520D01*
X1300Y430D02*
X1345Y385D01*
X1519Y480D02*
Y636D01*
X1490Y665D02*
X1519Y636D01*
X1494Y480D02*
Y531D01*
X1474Y551D02*
X1494Y531D01*
X1474Y551D02*
Y590D01*
X1405Y480D02*
X1465D01*
X1468Y232D02*
Y299D01*
Y232D02*
X1500Y200D01*
X1555D01*
X1605Y250D01*
X1700D01*
X1545Y299D02*
X1574D01*
X1635Y360D01*
Y490D01*
X670Y495D02*
X747Y572D01*
X870Y655D02*
X910Y615D01*
Y515D02*
Y615D01*
X815Y1530D02*
X865Y1480D01*
X1040D01*
X1060Y1500D01*
X1405Y665D02*
X1490D01*
X695Y1530D02*
X725D01*
X815D01*
X1498Y3160D02*
X1520Y3182D01*
X1523Y3400D02*
Y3443D01*
Y3400D02*
X1553Y3370D01*
Y3331D02*
Y3370D01*
X1517Y3295D02*
X1553Y3331D01*
X1622Y3460D02*
X1719D01*
X1760Y3419D01*
Y3299D02*
Y3419D01*
X1740Y2783D02*
X1808Y2851D01*
X1740Y2731D02*
Y2783D01*
Y2731D02*
X1825Y2646D01*
X1684Y2731D02*
X1770Y2645D01*
Y2565D02*
Y2645D01*
Y2565D02*
X1811Y2524D01*
X1684Y2731D02*
Y2999D01*
X1700Y2585D02*
X1748Y2537D01*
Y2354D02*
Y2537D01*
X1512Y2715D02*
X1533Y2736D01*
X1459Y2715D02*
X1512D01*
X1450Y2706D02*
X1459Y2715D01*
X1450Y2640D02*
Y2706D01*
X1700Y2378D02*
Y2483D01*
X1479Y2431D02*
X1529D01*
X1549Y2451D01*
X1663Y2585D02*
Y2665D01*
X1469Y2345D02*
X1500D01*
X1455Y2359D02*
X1469Y2345D01*
X1400Y2359D02*
X1455D01*
X1500Y2514D02*
Y2640D01*
X1663Y2547D02*
Y2585D01*
X1400Y2779D02*
Y2845D01*
X1663Y2420D02*
Y2483D01*
X1588Y2430D02*
Y2474D01*
X1597Y2483D01*
X1625D01*
X1371Y2750D02*
X1400Y2779D01*
X1546Y2799D02*
X1580D01*
X1532Y2813D02*
X1546Y2799D01*
X1509Y2813D02*
X1532D01*
X1536Y2922D02*
X1569Y2889D01*
X1450Y2845D02*
Y2922D01*
X1536D01*
X1400Y2640D02*
Y2712D01*
X1435Y2747D01*
X1476D01*
X1500Y2771D01*
Y2845D01*
X1800Y3156D02*
X1854D01*
X1870Y3172D01*
X1800Y3131D02*
X1848D01*
X1816Y3037D02*
X1860Y3081D01*
Y3119D01*
X1848Y3131D02*
X1860Y3119D01*
X1870Y3172D02*
Y3325D01*
X1845Y3350D02*
X1870Y3325D01*
X1805Y3350D02*
X1845D01*
X1520Y3182D02*
X1619D01*
Y3131D02*
Y3156D01*
Y3182D01*
X1535Y3065D02*
X1592D01*
X1673Y3010D02*
X1684Y2999D01*
X1621Y3010D02*
X1673D01*
X1606Y3025D02*
X1621Y3010D01*
X1606Y3025D02*
Y3051D01*
X1592Y3065D02*
X1606Y3051D01*
X1619Y3082D02*
X1647Y3054D01*
X1619Y3082D02*
Y3104D01*
X1740Y3105D02*
X1800D01*
X1740Y3029D02*
Y3105D01*
Y3279D01*
X1760Y3299D01*
X1450Y2922D02*
Y2941D01*
X1445Y2946D02*
X1450Y2941D01*
X1445Y2946D02*
Y3065D01*
X1590Y2345D02*
X1672D01*
X1685Y2332D01*
X1726D01*
X1748Y2354D01*
X1642Y2399D02*
X1663Y2420D01*
X1549Y2451D02*
Y2495D01*
X1650Y2534D02*
X1663Y2547D01*
X1588Y2534D02*
X1650D01*
X1549Y2495D02*
X1588Y2534D01*
X1350Y2563D02*
Y2640D01*
X1330Y2327D02*
Y2543D01*
X1350Y2563D01*
X1372Y2285D02*
X1569D01*
X1330Y2327D02*
X1372Y2285D01*
X1569D02*
X1590Y2306D01*
Y2345D01*
X1366Y3259D02*
X1402Y3295D01*
X1517D01*
X3357D02*
X3472D01*
X3321Y3259D02*
X3357Y3295D01*
X3545Y2306D02*
Y2345D01*
X3524Y2285D02*
X3545Y2306D01*
X3285Y2327D02*
X3327Y2285D01*
X3524D01*
X3285Y2543D02*
X3305Y2563D01*
X3285Y2327D02*
Y2543D01*
X3305Y2563D02*
Y2640D01*
X3504Y2495D02*
X3543Y2534D01*
X3605D01*
X3618Y2547D01*
X3504Y2451D02*
Y2495D01*
X3597Y2399D02*
X3618Y2420D01*
X3681Y2332D02*
X3703Y2354D01*
X3640Y2332D02*
X3681D01*
X3627Y2345D02*
X3640Y2332D01*
X3545Y2345D02*
X3627D01*
X3400Y2946D02*
Y3065D01*
Y2946D02*
X3405Y2941D01*
Y2922D02*
Y2941D01*
X3695Y3279D02*
X3715Y3299D01*
X3695Y3105D02*
Y3279D01*
Y3029D02*
Y3105D01*
X3755D01*
X3574Y3082D02*
Y3104D01*
Y3082D02*
X3602Y3054D01*
X3547Y3065D02*
X3561Y3051D01*
Y3025D02*
Y3051D01*
Y3025D02*
X3576Y3010D01*
X3628D01*
X3639Y2999D01*
X3490Y3065D02*
X3547D01*
X3574Y3156D02*
Y3182D01*
Y3131D02*
Y3156D01*
X3475Y3182D02*
X3574D01*
X3760Y3350D02*
X3800D01*
X3825Y3325D01*
Y3172D02*
Y3325D01*
X3803Y3131D02*
X3815Y3119D01*
Y3081D02*
Y3119D01*
X3771Y3037D02*
X3815Y3081D01*
X3755Y3131D02*
X3803D01*
X3809Y3156D02*
X3825Y3172D01*
X3755Y3156D02*
X3809D01*
X3455Y2771D02*
Y2845D01*
X3431Y2747D02*
X3455Y2771D01*
X3390Y2747D02*
X3431D01*
X3355Y2712D02*
X3390Y2747D01*
X3355Y2640D02*
Y2712D01*
X3405Y2922D02*
X3491D01*
X3405Y2845D02*
Y2922D01*
X3491D02*
X3524Y2889D01*
X3464Y2813D02*
X3487D01*
X3501Y2799D01*
X3535D01*
X3326Y2750D02*
X3355Y2779D01*
X3552Y2483D02*
X3580D01*
X3543Y2474D02*
X3552Y2483D01*
X3543Y2430D02*
Y2474D01*
X3618Y2420D02*
Y2483D01*
X3355Y2779D02*
Y2845D01*
X3618Y2547D02*
Y2585D01*
X3455Y2514D02*
Y2640D01*
X3355Y2359D02*
X3410D01*
X3424Y2345D01*
X3455D01*
X3618Y2585D02*
Y2665D01*
X3484Y2431D02*
X3504Y2451D01*
X3434Y2431D02*
X3484D01*
X3655Y2378D02*
Y2483D01*
X3405Y2640D02*
Y2706D01*
X3414Y2715D01*
X3467D01*
X3488Y2736D01*
X3703Y2354D02*
Y2537D01*
X3655Y2585D02*
X3703Y2537D01*
X3639Y2731D02*
Y2999D01*
X3725Y2565D02*
X3766Y2524D01*
X3725Y2565D02*
Y2645D01*
X3639Y2731D02*
X3725Y2645D01*
X3695Y2731D02*
X3780Y2646D01*
X3695Y2731D02*
Y2783D01*
X3763Y2851D01*
X3715Y3299D02*
Y3419D01*
X3674Y3460D02*
X3715Y3419D01*
X3577Y3460D02*
X3674D01*
X3472Y3295D02*
X3508Y3331D01*
Y3370D01*
X3478Y3400D02*
X3508Y3370D01*
X3478Y3400D02*
Y3443D01*
X3453Y3160D02*
X3475Y3182D01*
D38*
X3305Y665D02*
Y830D01*
Y560D02*
Y665D01*
X2365Y700D02*
X2472D01*
Y758D01*
Y475D02*
Y700D01*
X2825Y300D02*
X2900D01*
X2730Y205D02*
X2825Y300D01*
X2585Y205D02*
X2730D01*
X2550Y240D02*
Y295D01*
Y240D02*
X2585Y205D01*
X2696Y295D02*
Y371D01*
X2455Y295D02*
X2550D01*
X2280Y770D02*
Y815D01*
Y770D02*
X2300Y750D01*
X2365D01*
X2465Y890D02*
X2560D01*
X2465Y840D02*
X2490Y815D01*
X2465Y840D02*
Y890D01*
X2420Y810D02*
X2472Y758D01*
X2420Y810D02*
Y1320D01*
X2340Y750D02*
X2365D01*
X2560Y890D02*
X2580Y910D01*
X2605Y840D02*
X2655D01*
X2570Y805D02*
X2605Y840D01*
X2570Y750D02*
Y805D01*
X2710Y790D02*
X2745Y825D01*
X2900Y300D02*
X2975Y225D01*
X2710Y700D02*
Y790D01*
X2580Y910D02*
X3130D01*
X2420Y1320D02*
X2460Y1360D01*
X2505D01*
X2550Y1405D01*
Y1455D01*
X2580Y1485D01*
X2685D01*
X2730Y1440D01*
X2985D01*
X2750Y425D02*
X2810D01*
X2696Y371D02*
X2750Y425D01*
X2365Y405D02*
X2635D01*
X2710Y480D01*
Y540D01*
X2365Y295D02*
Y405D01*
X2477Y600D02*
X2570D01*
X2365Y405D02*
Y600D01*
X3394Y299D02*
X3416D01*
X3370D02*
X3394D01*
X2710Y540D02*
Y610D01*
X2930Y550D02*
Y640D01*
Y550D02*
X3050Y430D01*
X3200D01*
X3070Y530D02*
X3200D01*
X3035Y565D02*
X3070Y530D01*
X3035Y565D02*
Y640D01*
X3045Y630D01*
X2285Y650D02*
X2365D01*
X2220Y715D02*
X2285Y650D01*
X3200Y530D02*
X3275D01*
X3305Y560D01*
X2990Y1145D02*
X3305Y830D01*
X2570Y700D02*
X2710D01*
X670D02*
X810D01*
X1090Y1145D02*
X1405Y830D01*
X1375Y530D02*
X1405Y560D01*
X1300Y530D02*
X1375D01*
X320Y715D02*
X385Y650D01*
X465D01*
X1135Y640D02*
X1145Y630D01*
X1135Y565D02*
Y640D01*
Y565D02*
X1170Y530D01*
X1300D01*
X1150Y430D02*
X1300D01*
X1030Y550D02*
X1150Y430D01*
X1030Y550D02*
Y640D01*
X810Y540D02*
Y610D01*
X1470Y299D02*
X1494D01*
X1516D01*
X465Y405D02*
Y600D01*
X577D02*
X670D01*
X465Y295D02*
Y405D01*
X810Y480D02*
Y540D01*
X735Y405D02*
X810Y480D01*
X465Y405D02*
X735D01*
X796Y371D02*
X850Y425D01*
X910D01*
X830Y1440D02*
X1085D01*
X785Y1485D02*
X830Y1440D01*
X680Y1485D02*
X785D01*
X650Y1455D02*
X680Y1485D01*
X650Y1405D02*
Y1455D01*
X605Y1360D02*
X650Y1405D01*
X560Y1360D02*
X605D01*
X520Y1320D02*
X560Y1360D01*
X680Y910D02*
X1230D01*
X810Y700D02*
Y790D01*
X1000Y300D02*
X1075Y225D01*
X810Y790D02*
X845Y825D01*
X670Y750D02*
Y805D01*
X705Y840D01*
X755D01*
X660Y890D02*
X680Y910D01*
X440Y750D02*
X465D01*
X520Y810D02*
Y1320D01*
Y810D02*
X572Y758D01*
X565Y840D02*
Y890D01*
Y840D02*
X590Y815D01*
X565Y890D02*
X660D01*
X400Y750D02*
X465D01*
X380Y770D02*
X400Y750D01*
X380Y770D02*
Y815D01*
X555Y295D02*
X650D01*
X796D02*
Y371D01*
X650Y240D02*
X685Y205D01*
X650Y240D02*
Y295D01*
X685Y205D02*
X830D01*
X925Y300D01*
X1000D01*
X572Y475D02*
Y700D01*
Y758D01*
X465Y700D02*
X572D01*
X1405Y560D02*
Y665D01*
Y830D01*
X1336Y3340D02*
X1348D01*
X580Y3055D02*
Y3104D01*
X1808Y2851D02*
Y2918D01*
X1781Y2945D02*
X1808Y2918D01*
X848Y3236D02*
Y3238D01*
X508Y2926D02*
Y2966D01*
Y2926D02*
X533Y2901D01*
X1571Y2585D02*
X1625D01*
X1400Y2845D02*
Y2985D01*
X1490D02*
X1563D01*
X1740Y2945D02*
X1781D01*
X580Y2965D02*
X653D01*
X440Y3233D02*
Y3495D01*
X1348Y3340D02*
X1460D01*
X1348Y3160D02*
X1498D01*
X1811Y3188D02*
Y3258D01*
X1647Y3054D02*
X1695Y3102D01*
Y3272D01*
X1715Y3292D01*
Y3350D01*
X1460Y3250D02*
X1622D01*
X542Y3482D02*
X587D01*
X1348Y2988D02*
Y3071D01*
X1293Y2985D02*
X1400D01*
X1169Y2887D02*
Y2943D01*
X1198Y2972D01*
X828Y2591D02*
Y2676D01*
X858Y2706D01*
X943D01*
X1033D02*
Y2817D01*
X1058Y2466D02*
Y2525D01*
X1028Y2436D02*
X1058Y2466D01*
X1028Y2331D02*
Y2436D01*
X533Y2901D02*
X708D01*
X728Y2921D01*
X1125Y3196D02*
X1221Y3100D01*
X888Y3196D02*
X1125D01*
X848Y3236D02*
X888Y3196D01*
X903Y3101D02*
X938Y3136D01*
X848Y3101D02*
X903D01*
X723D02*
X758D01*
X688Y3066D02*
X723Y3101D01*
X663Y3066D02*
X688D01*
X1085Y2621D02*
X1158D01*
X712Y3158D02*
Y3225D01*
X686Y3132D02*
X712Y3158D01*
X608Y3132D02*
X686D01*
X580Y3104D02*
X608Y3132D01*
X2535Y3104D02*
X2563Y3132D01*
X2641D01*
X2667Y3158D01*
Y3225D01*
X3040Y2621D02*
X3113D01*
X2618Y3066D02*
X2643D01*
X2678Y3101D01*
X2713D01*
X2803D02*
X2858D01*
X2893Y3136D01*
X2803Y3236D02*
X2843Y3196D01*
X3080D01*
X3176Y3100D01*
X2663Y2901D02*
X2683Y2921D01*
X2488Y2901D02*
X2663D01*
X2983Y2331D02*
Y2436D01*
X3013Y2466D01*
Y2525D01*
X2988Y2706D02*
Y2817D01*
X2813Y2706D02*
X2898D01*
X2783Y2676D02*
X2813Y2706D01*
X2783Y2591D02*
Y2676D01*
X3124Y2943D02*
X3153Y2972D01*
X3124Y2887D02*
Y2943D01*
X3248Y2985D02*
X3355D01*
X3303Y2988D02*
Y3071D01*
X2497Y3482D02*
X2542D01*
X3415Y3250D02*
X3577D01*
X3670Y3292D02*
Y3350D01*
X3650Y3272D02*
X3670Y3292D01*
X3650Y3102D02*
Y3272D01*
X3602Y3054D02*
X3650Y3102D01*
X3766Y3188D02*
Y3258D01*
X3303Y3160D02*
X3453D01*
X3303Y3340D02*
X3415D01*
X2395Y3233D02*
Y3495D01*
X2535Y2965D02*
X2608D01*
X3695Y2945D02*
X3736D01*
X3445Y2985D02*
X3518D01*
X3355Y2845D02*
Y2985D01*
X3526Y2585D02*
X3580D01*
X2463Y2926D02*
X2488Y2901D01*
X2463Y2926D02*
Y2966D01*
X2803Y3236D02*
Y3238D01*
X3736Y2945D02*
X3763Y2918D01*
Y2851D02*
Y2918D01*
X2535Y3055D02*
Y3104D01*
X3291Y3340D02*
X3303D01*
D39*
X3600Y250D02*
Y420D01*
X3630Y450D01*
Y635D01*
Y800D01*
X1730Y635D02*
Y800D01*
Y450D02*
Y635D01*
X1700Y420D02*
X1730Y450D01*
X1700Y250D02*
Y420D01*
D40*
X2860Y815D02*
X3115D01*
X3200Y730D01*
X2805Y760D02*
X2860Y815D01*
X3394Y800D02*
Y911D01*
X3344Y961D02*
X3394Y911D01*
X2865Y1377D02*
X3160D01*
X3230Y1065D02*
X3345D01*
X3344Y961D02*
Y1064D01*
X3160Y1135D02*
X3230Y1065D01*
X3160Y1135D02*
Y1287D01*
X3636Y1065D02*
Y1209D01*
X3590Y1255D02*
X3636Y1209D01*
X3590Y1255D02*
Y1336D01*
X3230Y1670D02*
X3320D01*
X3160Y1600D02*
X3230Y1670D01*
X3590Y1490D02*
Y1670D01*
X3160Y1467D02*
Y1600D01*
X1260Y1467D02*
Y1600D01*
X1690Y1490D02*
Y1670D01*
X1260Y1600D02*
X1330Y1670D01*
X1420D01*
X1690Y1255D02*
Y1336D01*
Y1255D02*
X1736Y1209D01*
Y1065D02*
Y1209D01*
X1260Y1135D02*
Y1287D01*
Y1135D02*
X1330Y1065D01*
X1444Y961D02*
Y1064D01*
X1330Y1065D02*
X1445D01*
X965Y1377D02*
X1260D01*
X1444Y961D02*
X1494Y911D01*
Y800D02*
Y911D01*
X905Y760D02*
X960Y815D01*
X1215D02*
X1300Y730D01*
X960Y815D02*
X1215D01*
X1118Y3256D02*
X1269Y3407D01*
X1322Y3460D01*
X690Y3595D02*
X1845D01*
X793Y3341D02*
X923Y3471D01*
X718Y3341D02*
X793D01*
X248Y2678D02*
X285D01*
X448Y2906D02*
Y3225D01*
X479D01*
X595Y3341D01*
X718D01*
X386Y3595D02*
X690D01*
X356Y3565D02*
X386Y3595D01*
X202Y3565D02*
X356D01*
X1033Y2817D02*
X1034Y2818D01*
X843Y3366D02*
X953Y3256D01*
X1118D01*
X648Y2281D02*
X698D01*
X536Y2818D02*
X1034D01*
X1198Y2496D02*
Y2581D01*
X1158Y2621D02*
X1198Y2581D01*
X1179Y2705D02*
X1244D01*
X1066Y2818D02*
X1179Y2705D01*
X1034Y2818D02*
X1066D01*
X512Y2842D02*
X536Y2818D01*
X448Y2906D02*
X512Y2842D01*
X479D02*
X512D01*
X2434D02*
X2467D01*
X2403Y2906D02*
X2467Y2842D01*
X2491Y2818D01*
X2989D02*
X3021D01*
X3134Y2705D01*
X3199D01*
X3113Y2621D02*
X3153Y2581D01*
Y2496D02*
Y2581D01*
X2491Y2818D02*
X2989D01*
X2603Y2281D02*
X2653D01*
X2908Y3256D02*
X3073D01*
X2798Y3366D02*
X2908Y3256D01*
X2988Y2817D02*
X2989Y2818D01*
X2157Y3565D02*
X2311D01*
X2341Y3595D01*
X2645D01*
X2550Y3341D02*
X2673D01*
X2434Y3225D02*
X2550Y3341D01*
X2403Y3225D02*
X2434D01*
X2403Y2906D02*
Y3225D01*
X2203Y2678D02*
X2240D01*
X2673Y3341D02*
X2748D01*
X2878Y3471D01*
X2645Y3595D02*
X3800D01*
X3224Y3407D02*
X3277Y3460D01*
X3073Y3256D02*
X3224Y3407D01*
D41*
X356Y2426D02*
X593D01*
X323Y2251D02*
X463D01*
X593Y2426D02*
X638Y2471D01*
X803D01*
X943Y2331D01*
X1028D01*
X1093D01*
X1156Y2269D01*
X3048Y2331D02*
X3111Y2269D01*
X2983Y2331D02*
X3048D01*
X2898D02*
X2983D01*
X2758Y2471D02*
X2898Y2331D01*
X2593Y2471D02*
X2758D01*
X2548Y2426D02*
X2593Y2471D01*
X2278Y2251D02*
X2418D01*
X2308Y2426D02*
X2548D01*
D42*
X167Y2251D02*
X188Y2272D01*
X1472Y2431D02*
X1479D01*
X1663Y2665D02*
X1663Y2665D01*
X595Y2263D02*
X606Y2252D01*
X1400Y2505D02*
X1409Y2514D01*
X1569Y2889D02*
X1580D01*
X1643Y2399D02*
X1649Y2405D01*
X3598Y2399D02*
X3604Y2405D01*
X3524Y2889D02*
X3535D01*
X3355Y2505D02*
X3364Y2514D01*
X2550Y2263D02*
X2561Y2252D01*
X3618Y2665D02*
X3618Y2665D01*
X3427Y2431D02*
X3434D01*
X2122Y2251D02*
X2143Y2272D01*
X2100Y150D02*
Y1760D01*
X3700D01*
X2100Y150D02*
X3700D01*
Y1760D01*
X1800Y150D02*
Y1760D01*
X200Y150D02*
X1800D01*
X200Y1760D02*
X1800D01*
X200Y150D02*
Y1760D01*
X3937Y0D02*
Y3937D01*
X0D02*
X3937D01*
X0Y0D02*
Y3937D01*
Y0D02*
X3937D01*
X100Y2165D02*
X1910D01*
X100D02*
Y3665D01*
X1910Y2165D02*
Y3665D01*
X100D02*
X1910D01*
X2055D02*
X3865D01*
Y2165D02*
Y3665D01*
X2055Y2165D02*
Y3665D01*
Y2165D02*
X3865D01*
D43*
X158Y2281D02*
Y2426D01*
X2113Y2281D02*
Y2426D01*
D44*
X296Y2658D02*
X479Y2842D01*
X2250Y2658D02*
X2434Y2842D01*
D45*
X3309Y1378D02*
D03*
X1408D02*
D03*
D46*
X941Y3313D02*
D03*
X2895D02*
D03*
D47*
X896Y3381D02*
D03*
X2851D02*
D03*
D48*
X248Y2575D02*
D03*
X2203D02*
D03*
D49*
X449Y2863D02*
D03*
X2404D02*
D03*
D50*
X495Y2816D02*
D03*
X2450D02*
D03*
D51*
X838Y3336D02*
D03*
X2793D02*
D03*
D52*
X905Y3329D02*
D03*
X2861D02*
D03*
D53*
X915Y3404D02*
D03*
X2871D02*
D03*
D54*
X935Y3374D02*
D03*
X2890D02*
D03*
D55*
X945Y3296D02*
D03*
X2900D02*
D03*
D56*
X2170Y1175D02*
D03*
Y1275D02*
D03*
Y1375D02*
D03*
Y1475D02*
D03*
Y1075D02*
D03*
X3200Y430D02*
D03*
Y530D02*
D03*
Y630D02*
D03*
Y730D02*
D03*
X2975Y225D02*
D03*
X2875D02*
D03*
X1075D02*
D03*
X975D02*
D03*
X1300Y430D02*
D03*
Y530D02*
D03*
Y630D02*
D03*
Y730D02*
D03*
X270Y1175D02*
D03*
Y1275D02*
D03*
Y1375D02*
D03*
Y1475D02*
D03*
Y1075D02*
D03*
X2783Y2591D02*
D03*
X2683D02*
D03*
X2583D02*
D03*
X2483D02*
D03*
X2883D02*
D03*
X3577Y3460D02*
D03*
X3477D02*
D03*
X3377D02*
D03*
X3277D02*
D03*
X3763Y2851D02*
D03*
Y2751D02*
D03*
X1808Y2851D02*
D03*
Y2751D02*
D03*
X1622Y3460D02*
D03*
X1522D02*
D03*
X1422D02*
D03*
X1322D02*
D03*
X828Y2591D02*
D03*
X728D02*
D03*
X628D02*
D03*
X528D02*
D03*
X928D02*
D03*
D57*
X3590Y1670D02*
D03*
X3320D02*
D03*
X1420D02*
D03*
X1690D02*
D03*
X2278Y2251D02*
D03*
X2122D02*
D03*
X167D02*
D03*
X323D02*
D03*
D58*
X2200Y1660D02*
D03*
X3600Y250D02*
D03*
X1700D02*
D03*
X300Y1660D02*
D03*
X202Y3565D02*
D03*
X1810Y2270D02*
D03*
X3765D02*
D03*
X2157Y3565D02*
D03*
D59*
X2280Y815D02*
D03*
X2490D02*
D03*
X2570Y805D02*
D03*
X2985Y1440D02*
D03*
X3305Y480D02*
D03*
X2990Y1145D02*
D03*
X2355Y965D02*
D03*
X3000Y1580D02*
D03*
X2500Y1480D02*
D03*
X2470Y1530D02*
D03*
X2475Y1230D02*
D03*
X3264Y1475D02*
D03*
X2220Y715D02*
D03*
X3344Y1475D02*
D03*
X3304Y1425D02*
D03*
X3264Y1377D02*
D03*
X3344D02*
D03*
X3304Y1325D02*
D03*
X3264Y1275D02*
D03*
X3344D02*
D03*
X1444D02*
D03*
X1364D02*
D03*
X1404Y1325D02*
D03*
X1444Y1377D02*
D03*
X1364D02*
D03*
X1404Y1425D02*
D03*
X1444Y1475D02*
D03*
X320Y715D02*
D03*
X1364Y1475D02*
D03*
X575Y1230D02*
D03*
X570Y1530D02*
D03*
X600Y1480D02*
D03*
X1100Y1580D02*
D03*
X455Y965D02*
D03*
X1090Y1145D02*
D03*
X1405Y480D02*
D03*
X1085Y1440D02*
D03*
X670Y805D02*
D03*
X590Y815D02*
D03*
X380D02*
D03*
X848Y3236D02*
D03*
X498Y3346D02*
D03*
X1221Y3100D02*
D03*
X1533Y2736D02*
D03*
X1700Y2378D02*
D03*
X508Y2966D02*
D03*
X150Y2530D02*
D03*
Y2610D02*
D03*
X200Y2570D02*
D03*
X248Y2530D02*
D03*
Y2610D02*
D03*
X300Y2570D02*
D03*
X350Y2530D02*
D03*
Y2610D02*
D03*
X1588Y2430D02*
D03*
X1371Y2750D02*
D03*
X1740Y3029D02*
D03*
X1816Y3037D02*
D03*
X1563Y2985D02*
D03*
X1647Y3054D02*
D03*
X1642Y2399D02*
D03*
X938Y3136D02*
D03*
X663Y3066D02*
D03*
X2618D02*
D03*
X2893Y3136D02*
D03*
X3597Y2399D02*
D03*
X3602Y3054D02*
D03*
X3518Y2985D02*
D03*
X3771Y3037D02*
D03*
X3695Y3029D02*
D03*
X3326Y2750D02*
D03*
X3543Y2430D02*
D03*
X2305Y2610D02*
D03*
Y2530D02*
D03*
X2255Y2570D02*
D03*
X2203Y2610D02*
D03*
Y2530D02*
D03*
X2155Y2570D02*
D03*
X2105Y2610D02*
D03*
Y2530D02*
D03*
X2463Y2966D02*
D03*
X3655Y2378D02*
D03*
X3488Y2736D02*
D03*
X3176Y3100D02*
D03*
X2453Y3346D02*
D03*
X2803Y3236D02*
D03*
D60*
X3130Y910D02*
D03*
X3535Y490D02*
D03*
X2710Y540D02*
D03*
X3005Y1655D02*
D03*
X2485Y1155D02*
D03*
X2190Y405D02*
D03*
X290D02*
D03*
X585Y1155D02*
D03*
X1105Y1655D02*
D03*
X810Y540D02*
D03*
X1635Y490D02*
D03*
X1230Y910D02*
D03*
X1169Y2887D02*
D03*
X1500Y2514D02*
D03*
X1479Y2431D02*
D03*
X1498Y3160D02*
D03*
X1622Y3250D02*
D03*
X3577D02*
D03*
X3453Y3160D02*
D03*
X3434Y2431D02*
D03*
X3455Y2514D02*
D03*
X3124Y2887D02*
D03*
D61*
X2805Y760D02*
D03*
X905D02*
D03*
X1244Y2705D02*
D03*
X718Y3341D02*
D03*
X1811Y3258D02*
D03*
X1845Y3595D02*
D03*
X1158Y2621D02*
D03*
X3113D02*
D03*
X3800Y3595D02*
D03*
X3766Y3258D02*
D03*
X2673Y3341D02*
D03*
X3199Y2705D02*
D03*
M02*
