M48
;Layer_Color=9474304
;FILE_FORMAT=2:3
INCH,LZ
;TYPE=PLATED
T1F00S00C0.018
T2F00S00C0.020
T3F00S00C0.028
T4F00S00C0.031
T5F00S00C0.040
T6F00S00C0.102
%
T01
X03305Y0048
X03535Y0049
X0313Y0091
X03264Y01275
X03344
X03304Y01325
X03264Y01377
X03344
X03304Y01425
X03264Y01475
X03344
X02985Y0144
X03Y0158
X03005Y01655
X0299Y01145
X02485Y01155
X02475Y0123
X025Y0148
X0247Y0153
X02355Y00965
X0228Y00815
X0222Y00715
X0219Y00405
X01635Y0049
X0271Y0054
X0257Y00805
X0249Y00815
X0123Y0091
X0109Y01145
X01085Y0144
X011Y0158
X01105Y01655
X01364Y01475
X01444
X01404Y01425
X01444Y01377
X01364
X01404Y01325
X01444Y01275
X01364
X00575Y0123
X00585Y01155
X00455Y00965
X0038Y00815
X0032Y00715
X0029Y00405
X0081Y0054
X0067Y00805
X0059Y00815
X006Y0148
X0057Y0153
X01405Y0048
X01371Y0275
X01533Y02736
X01498Y0316
X01221Y031
X01169Y02887
X00938Y03136
X00663Y03066
X00508Y02966
X0035Y0261
Y0253
X003Y0257
X00248Y0253
Y0261
X002Y0257
X0015Y0253
Y0261
X01588Y0243
X01642Y02399
X017Y02378
X02105Y0253
Y0261
X02155Y0257
X02203Y0261
Y0253
X02255Y0257
X02305Y0261
Y0253
X02463Y02966
X02618Y03066
X02893Y03136
X01816Y03037
X0174Y03029
X01647Y03054
X01563Y02985
X03124Y02887
X03176Y031
X03453Y0316
X03518Y02985
X03602Y03054
X03695Y03029
X03771Y03037
X03488Y02736
X03326Y0275
X03543Y0243
X03597Y02399
X03655Y02378
X03577Y0325
X02803Y03236
X02453Y03346
X01622Y0325
X00848Y03236
X00498Y03346
T02
X01479Y02431
X015Y02514
X03455
X03434Y02431
T03
X02805Y0076
X00905
X01158Y02621
X01244Y02705
X03113Y02621
X03199Y02705
X03766Y03258
X038Y03595
X02673Y03341
X01811Y03258
X01845Y03595
X00718Y03341
T04
X032Y0043
Y0053
Y0063
Y0073
X02975Y00225
X02875
X0217Y01075
Y01175
Y01275
Y01375
Y01475
X013Y0073
Y0063
Y0053
Y0043
X01075Y00225
X00975
X0027Y01075
Y01175
Y01275
Y01375
Y01475
X00528Y02591
X00628
X00728
X00828
X00928
X01808Y02751
Y02851
X02483Y02591
X02583
X02683
X02783
X02883
X03763Y02751
Y02851
X03577Y0346
X03477
X03377
X03277
X01622
X01522
X01422
X01322
T05
X00167Y02251
X00323
X0142Y0167
X0169
X02122Y02251
X02278
X0332Y0167
X0359
T06
X036Y0025
X017
X022Y0166
X003
X0181Y0227
X03765
X02157Y03565
X00202
M30
