M48
;Layer_Color=9474304
;FILE_FORMAT=2:5
INCH,LZ
;TYPE=PLATED
T1F00S00C0.01800
T2F00S00C0.02000
T3F00S00C0.02800
T4F00S00C0.03150
T5F00S00C0.04000
T6F00S00C0.10236
%
T01
X00767Y-00006
X00759Y0007
X00784Y00163
X00715Y00247
X0089Y00312
X0098Y00188
X0083Y00589
X00866Y00872
X00966Y00962
X00796Y01147
X00617Y00641
X0048Y00439
X00466Y00277
X0016Y00222
X00129Y00168
X00108Y0011
X0026Y0146
X0034
X003Y0151
X0034Y01562
X0026
X003Y0161
X0034Y0166
X0026
X00696Y01302
X01076Y01312
T02
X00161Y00331
X00244Y0031
T03
X00988Y-00001
X01325Y-00035
X01071Y01092
X00351Y00652
X00435Y00566
T04
X0119Y00188
Y00288
Y00388
Y00488
X00581Y00002
X00481
X00321Y00882
Y00982
Y01082
Y01182
Y01282
T05
X-00019Y01487
Y01643
T06
X0Y0
X01295Y01608
M30
