%FSLAX25Y25*%
%MOIN*%
G70*
G01*
G75*
G04 Layer_Color=8421504*
%ADD10R,0.06299X0.13386*%
%ADD11R,0.01772X0.06299*%
%ADD12R,0.05512X0.01654*%
%ADD13R,0.04724X0.04724*%
%ADD14R,0.09000X0.15000*%
%ADD15R,0.08465X0.05000*%
%ADD16R,0.05906X0.03937*%
%ADD17R,0.03937X0.05906*%
%ADD18R,0.07874X0.11024*%
%ADD19R,0.05906X0.15748*%
%ADD20R,0.03500X0.05000*%
%ADD21R,0.07874X0.15748*%
%ADD22R,0.06299X0.09449*%
%ADD23R,0.05512X0.07087*%
%ADD24R,0.13386X0.06299*%
%ADD25R,0.06299X0.01772*%
%ADD26R,0.01654X0.05512*%
%ADD27R,0.04724X0.04724*%
%ADD28R,0.15000X0.09000*%
%ADD29R,0.05000X0.08465*%
%ADD30R,0.11024X0.07874*%
%ADD31R,0.15748X0.05906*%
%ADD32R,0.05000X0.03500*%
%ADD33R,0.15748X0.07874*%
%ADD34R,0.09449X0.06299*%
%ADD35R,0.07087X0.05512*%
%ADD36R,0.06600X0.01700*%
%ADD37R,0.15000X0.28000*%
%ADD38R,0.28000X0.15000*%
%ADD39R,0.03300X0.03150*%
%ADD40C,0.02500*%
%ADD41C,0.02000*%
%ADD42C,0.03000*%
%ADD43C,0.01500*%
%ADD44C,0.04000*%
%ADD45C,0.01000*%
%ADD46C,0.01800*%
%ADD47C,0.05000*%
%ADD48R,0.01600X0.04800*%
%ADD49R,0.34200X0.03200*%
%ADD50R,0.04800X0.01600*%
%ADD51R,0.03200X0.34200*%
%ADD52R,0.14413X0.28346*%
%ADD53R,0.28346X0.14413*%
%ADD54R,0.27700X0.02100*%
%ADD55R,0.01900X0.03800*%
%ADD56R,0.35700X0.03400*%
%ADD57R,0.02100X0.27700*%
%ADD58R,0.03800X0.01900*%
%ADD59R,0.03400X0.35700*%
%ADD60R,0.08200X0.15600*%
%ADD61C,0.15800*%
%ADD62R,0.05118X0.07874*%
%ADD63R,0.05512X0.07874*%
%ADD64C,0.07874*%
%ADD65R,0.07874X0.05118*%
%ADD66R,0.07874X0.05512*%
%ADD67C,0.07087*%
%ADD68C,0.05000*%
%ADD69C,0.04000*%
%ADD70C,0.06000*%
%ADD71C,0.03937*%
%ADD72R,0.04724X0.11024*%
%ADD73R,0.09449X0.04724*%
%ADD74R,0.03000X0.10000*%
%ADD75R,0.10000X0.20000*%
%ADD76R,0.06299X0.05512*%
%ADD77R,0.09843X0.14961*%
%ADD78R,0.11024X0.04724*%
%ADD79R,0.04724X0.09449*%
%ADD80R,0.10000X0.03000*%
%ADD81R,0.20000X0.10000*%
%ADD82R,0.05512X0.06299*%
%ADD83R,0.14961X0.09843*%
%ADD84R,0.03150X0.04724*%
%ADD85R,0.26000X0.28400*%
%ADD86R,0.28400X0.26000*%
%ADD87C,0.03500*%
%ADD88R,0.26400X0.28346*%
%ADD89R,0.28346X0.26400*%
%ADD90R,0.21028X0.12517*%
%ADD91R,0.12517X0.21028*%
%ADD92R,0.20200X0.15600*%
%ADD93C,0.00200*%
%ADD94C,0.00591*%
%ADD95C,0.00394*%
%ADD96C,0.00787*%
%ADD97C,0.00500*%
%ADD98C,0.00050*%
%ADD99C,0.00800*%
%ADD100R,0.02300X0.06299*%
%ADD101R,0.06299X0.02300*%
%ADD102R,0.12100X0.11300*%
%ADD103R,0.06299X0.02100*%
%ADD104R,0.11300X0.12100*%
%ADD105R,0.02100X0.06299*%
D10*
X387057Y-240408D02*
D03*
X394143D02*
D03*
X387057Y-390408D02*
D03*
X394143D02*
D03*
X88457Y385692D02*
D03*
X95543D02*
D03*
X88457Y149392D02*
D03*
X95543D02*
D03*
D11*
X390600Y-253400D02*
D03*
X388041D02*
D03*
X393159D02*
D03*
X395718D02*
D03*
X385482D02*
D03*
X390600Y-403400D02*
D03*
X388041D02*
D03*
X393159D02*
D03*
X395718D02*
D03*
X385482D02*
D03*
X92000Y372700D02*
D03*
X89441D02*
D03*
X94559D02*
D03*
X97118D02*
D03*
X86882D02*
D03*
X92000Y136400D02*
D03*
X89441D02*
D03*
X94559D02*
D03*
X97118D02*
D03*
X86882D02*
D03*
D12*
X396600Y-329400D02*
D03*
Y-331959D02*
D03*
Y-334518D02*
D03*
Y-337077D02*
D03*
X419828Y-329400D02*
D03*
Y-331959D02*
D03*
Y-334518D02*
D03*
Y-337077D02*
D03*
X396600Y-479400D02*
D03*
Y-481959D02*
D03*
Y-484518D02*
D03*
Y-487077D02*
D03*
X419828Y-479400D02*
D03*
Y-481959D02*
D03*
Y-484518D02*
D03*
Y-487077D02*
D03*
X354200Y276200D02*
D03*
Y278759D02*
D03*
Y281318D02*
D03*
Y283877D02*
D03*
X330972Y276200D02*
D03*
Y278759D02*
D03*
Y281318D02*
D03*
Y283877D02*
D03*
D13*
X306663Y-314455D02*
D03*
Y-296345D02*
D03*
X314537D02*
D03*
Y-314455D02*
D03*
X306663Y-464455D02*
D03*
Y-446345D02*
D03*
X314537D02*
D03*
Y-464455D02*
D03*
X302263Y229145D02*
D03*
Y247255D02*
D03*
X310137D02*
D03*
Y229145D02*
D03*
D14*
X437403Y-279400D02*
D03*
Y-429400D02*
D03*
X157303Y345800D02*
D03*
Y109500D02*
D03*
D15*
X462600Y-270345D02*
D03*
Y-279400D02*
D03*
Y-288455D02*
D03*
Y-420345D02*
D03*
Y-429400D02*
D03*
Y-438455D02*
D03*
X182500Y336745D02*
D03*
Y345800D02*
D03*
Y354855D02*
D03*
Y100445D02*
D03*
Y109500D02*
D03*
Y118555D02*
D03*
D16*
X324600Y-323400D02*
D03*
Y-314400D02*
D03*
X336600Y-275400D02*
D03*
Y-284400D02*
D03*
X374600Y-289400D02*
D03*
Y-298400D02*
D03*
X364600Y-289400D02*
D03*
Y-298400D02*
D03*
X326600Y-275400D02*
D03*
Y-284400D02*
D03*
X438600Y-343400D02*
D03*
Y-334400D02*
D03*
Y-493400D02*
D03*
Y-484400D02*
D03*
X326600Y-425400D02*
D03*
Y-434400D02*
D03*
X364600Y-439400D02*
D03*
Y-448400D02*
D03*
X374600Y-439400D02*
D03*
Y-448400D02*
D03*
X336600Y-425400D02*
D03*
Y-434400D02*
D03*
X324600Y-473400D02*
D03*
Y-464400D02*
D03*
X615400Y-403400D02*
D03*
Y-394400D02*
D03*
X619400Y-363400D02*
D03*
Y-354400D02*
D03*
X551400Y-387400D02*
D03*
Y-378400D02*
D03*
X591400Y-417400D02*
D03*
Y-408400D02*
D03*
X551400Y-367400D02*
D03*
Y-358400D02*
D03*
X571400Y-405400D02*
D03*
Y-414400D02*
D03*
X626400Y-301400D02*
D03*
Y-310400D02*
D03*
X575400Y-239400D02*
D03*
Y-248400D02*
D03*
X144500Y345800D02*
D03*
Y336800D02*
D03*
X26000Y302700D02*
D03*
Y311700D02*
D03*
X16500Y329800D02*
D03*
Y320800D02*
D03*
X26500Y346800D02*
D03*
Y337800D02*
D03*
X76000Y336700D02*
D03*
Y327700D02*
D03*
X66000Y336700D02*
D03*
Y327700D02*
D03*
X100500Y249800D02*
D03*
Y240800D02*
D03*
X36500Y351200D02*
D03*
Y342200D02*
D03*
X17000Y355800D02*
D03*
Y364800D02*
D03*
X144500Y109500D02*
D03*
Y100500D02*
D03*
X26000Y66400D02*
D03*
Y75400D02*
D03*
X16500Y93500D02*
D03*
Y84500D02*
D03*
X26500Y110500D02*
D03*
Y101500D02*
D03*
X76000Y100400D02*
D03*
Y91400D02*
D03*
X66000Y100400D02*
D03*
Y91400D02*
D03*
X100500Y13500D02*
D03*
Y4500D02*
D03*
X36500Y114900D02*
D03*
Y105900D02*
D03*
X17000Y119500D02*
D03*
Y128500D02*
D03*
X316200Y256200D02*
D03*
Y265200D02*
D03*
X368200Y304200D02*
D03*
Y295200D02*
D03*
X248500Y239300D02*
D03*
Y248300D02*
D03*
X283300Y207700D02*
D03*
Y216700D02*
D03*
X248500Y259300D02*
D03*
Y268300D02*
D03*
X364200Y25500D02*
D03*
Y34500D02*
D03*
X296800Y25500D02*
D03*
Y34500D02*
D03*
X228800Y25500D02*
D03*
Y34500D02*
D03*
Y127000D02*
D03*
Y136000D02*
D03*
X296800Y127000D02*
D03*
Y136000D02*
D03*
X364200Y127000D02*
D03*
Y136000D02*
D03*
D17*
X320600Y-303400D02*
D03*
X329600D02*
D03*
X360600Y-307400D02*
D03*
X369600D02*
D03*
X336600Y-239400D02*
D03*
X345600D02*
D03*
X306600Y-279400D02*
D03*
X315600D02*
D03*
X356600Y-239400D02*
D03*
X365600D02*
D03*
X318600Y-259400D02*
D03*
X309600D02*
D03*
X422600Y-314400D02*
D03*
X413600D02*
D03*
X484600Y-263400D02*
D03*
X475600D02*
D03*
X484600Y-413400D02*
D03*
X475600D02*
D03*
X422600Y-464400D02*
D03*
X413600D02*
D03*
X318600Y-409400D02*
D03*
X309600D02*
D03*
X356600Y-389400D02*
D03*
X365600D02*
D03*
X306600Y-429400D02*
D03*
X315600D02*
D03*
X336600Y-389400D02*
D03*
X345600D02*
D03*
X360600Y-457400D02*
D03*
X369600D02*
D03*
X320600Y-453400D02*
D03*
X329600D02*
D03*
X635400Y-399400D02*
D03*
X626400D02*
D03*
X587400Y-387400D02*
D03*
X596400D02*
D03*
X601400Y-349400D02*
D03*
X610400D02*
D03*
X601400Y-359400D02*
D03*
X610400D02*
D03*
X587400Y-397400D02*
D03*
X596400D02*
D03*
X655400Y-285400D02*
D03*
X646400D02*
D03*
X345500Y-602500D02*
D03*
X354500D02*
D03*
X345500Y-578500D02*
D03*
X354500D02*
D03*
X345500Y-590500D02*
D03*
X354500D02*
D03*
X413500D02*
D03*
X422500D02*
D03*
X413500Y-578500D02*
D03*
X422500D02*
D03*
X413500Y-602500D02*
D03*
X422500D02*
D03*
X549500D02*
D03*
X558500D02*
D03*
X549500Y-578500D02*
D03*
X558500D02*
D03*
X549500Y-590500D02*
D03*
X558500D02*
D03*
X481500D02*
D03*
X490500D02*
D03*
X481500Y-578500D02*
D03*
X490500D02*
D03*
X481500Y-602500D02*
D03*
X490500D02*
D03*
X616500Y-590500D02*
D03*
X625500D02*
D03*
X616500Y-578500D02*
D03*
X625500D02*
D03*
X616500Y-602500D02*
D03*
X625500D02*
D03*
X665000Y-511000D02*
D03*
X674000D02*
D03*
X665000Y-487000D02*
D03*
X674000D02*
D03*
X665000Y-499000D02*
D03*
X674000D02*
D03*
X537500Y-511000D02*
D03*
X546500D02*
D03*
X537500Y-487000D02*
D03*
X546500D02*
D03*
X537500Y-499000D02*
D03*
X546500D02*
D03*
X601500D02*
D03*
X610500D02*
D03*
X601500Y-487000D02*
D03*
X610500D02*
D03*
X601500Y-511000D02*
D03*
X610500D02*
D03*
X56500Y313800D02*
D03*
X65500D02*
D03*
X104500Y261800D02*
D03*
X95500D02*
D03*
X39600Y381500D02*
D03*
X48600D02*
D03*
X8000Y346700D02*
D03*
X17000D02*
D03*
X59600Y381500D02*
D03*
X68600D02*
D03*
X56500Y77500D02*
D03*
X65500D02*
D03*
X104500Y25500D02*
D03*
X95500D02*
D03*
X39600Y145200D02*
D03*
X48600D02*
D03*
X8000Y110400D02*
D03*
X17000D02*
D03*
X59600Y145200D02*
D03*
X68600D02*
D03*
X284200Y344200D02*
D03*
X293200D02*
D03*
X327300Y225700D02*
D03*
X318300D02*
D03*
X300200Y216200D02*
D03*
X309200D02*
D03*
X283200Y226200D02*
D03*
X292200D02*
D03*
X293300Y275700D02*
D03*
X302300D02*
D03*
X293300Y265700D02*
D03*
X302300D02*
D03*
X380200Y300200D02*
D03*
X389200D02*
D03*
X278800Y236200D02*
D03*
X287800D02*
D03*
X274200Y216700D02*
D03*
X265200D02*
D03*
X380100Y65900D02*
D03*
X389100D02*
D03*
X380100Y55400D02*
D03*
X389100D02*
D03*
X380100Y47100D02*
D03*
X389100D02*
D03*
X312700Y65900D02*
D03*
X321700D02*
D03*
X312700Y55400D02*
D03*
X321700D02*
D03*
X312700Y47100D02*
D03*
X321700D02*
D03*
X244700Y65900D02*
D03*
X253700D02*
D03*
X244700Y55400D02*
D03*
X253700D02*
D03*
X244700Y47100D02*
D03*
X253700D02*
D03*
X244700Y148600D02*
D03*
X253700D02*
D03*
X244700Y156900D02*
D03*
X253700D02*
D03*
X244700Y167400D02*
D03*
X253700D02*
D03*
X312700Y148600D02*
D03*
X321700D02*
D03*
X312700Y156900D02*
D03*
X321700D02*
D03*
X312700Y167400D02*
D03*
X321700D02*
D03*
X380100Y148600D02*
D03*
X389100D02*
D03*
X380100Y156900D02*
D03*
X389100D02*
D03*
X380100Y167400D02*
D03*
X389100D02*
D03*
D18*
X410600Y-251400D02*
D03*
X425954D02*
D03*
X410600Y-401400D02*
D03*
X425954D02*
D03*
X270200Y322200D02*
D03*
X254846D02*
D03*
D19*
X378600Y-355400D02*
D03*
Y-505400D02*
D03*
X60500Y247800D02*
D03*
Y11500D02*
D03*
D20*
X340340Y-297526D02*
D03*
X344080Y-305400D02*
D03*
X336600D02*
D03*
X340340Y-447526D02*
D03*
X344080Y-455400D02*
D03*
X336600D02*
D03*
X321940Y246074D02*
D03*
X325680Y238200D02*
D03*
X318200D02*
D03*
D21*
X464600Y-247400D02*
D03*
X435466D02*
D03*
X464600Y-397400D02*
D03*
X435466D02*
D03*
X166000Y378700D02*
D03*
X136866D02*
D03*
X166000Y142400D02*
D03*
X136866D02*
D03*
D22*
X328065Y-263400D02*
D03*
X344600D02*
D03*
X328065Y-413400D02*
D03*
X344600D02*
D03*
D23*
X370033Y-323400D02*
D03*
X384600D02*
D03*
X370033Y-473400D02*
D03*
X384600D02*
D03*
X26500Y365800D02*
D03*
X41067D02*
D03*
X43933Y279800D02*
D03*
X58500D02*
D03*
X26500Y129500D02*
D03*
X41067D02*
D03*
X43933Y43500D02*
D03*
X58500D02*
D03*
X382767Y280200D02*
D03*
X368200D02*
D03*
D24*
X552408Y-336943D02*
D03*
Y-329857D02*
D03*
X244308Y288157D02*
D03*
Y295243D02*
D03*
D25*
X565400Y-333400D02*
D03*
Y-335959D02*
D03*
Y-330841D02*
D03*
Y-328282D02*
D03*
Y-338518D02*
D03*
X257300Y291700D02*
D03*
Y289141D02*
D03*
Y294259D02*
D03*
Y296818D02*
D03*
Y286582D02*
D03*
D26*
X641400Y-327400D02*
D03*
X643959D02*
D03*
X646518D02*
D03*
X649077D02*
D03*
X641400Y-304172D02*
D03*
X643959D02*
D03*
X646518D02*
D03*
X649077D02*
D03*
X76500Y275800D02*
D03*
X79059D02*
D03*
X81618D02*
D03*
X84177D02*
D03*
X76500Y299028D02*
D03*
X79059D02*
D03*
X81618D02*
D03*
X84177D02*
D03*
X76500Y39500D02*
D03*
X79059D02*
D03*
X81618D02*
D03*
X84177D02*
D03*
X76500Y62728D02*
D03*
X79059D02*
D03*
X81618D02*
D03*
X84177D02*
D03*
D27*
X626455Y-417337D02*
D03*
X608345D02*
D03*
Y-409463D02*
D03*
X626455D02*
D03*
X29445Y327737D02*
D03*
X47555D02*
D03*
Y319863D02*
D03*
X29445D02*
D03*
Y91437D02*
D03*
X47555D02*
D03*
Y83563D02*
D03*
X29445D02*
D03*
D28*
X591400Y-286597D02*
D03*
X284200Y357003D02*
D03*
D29*
X582345Y-261400D02*
D03*
X591400D02*
D03*
X600455D02*
D03*
X293255Y382200D02*
D03*
X284200D02*
D03*
X275145D02*
D03*
D30*
X563400Y-313400D02*
D03*
Y-298046D02*
D03*
X122500Y359800D02*
D03*
Y375154D02*
D03*
Y123500D02*
D03*
Y138854D02*
D03*
D31*
X667400Y-345400D02*
D03*
X382200Y260200D02*
D03*
D32*
X609526Y-383660D02*
D03*
X617400Y-379920D02*
D03*
Y-387400D02*
D03*
X46374Y308060D02*
D03*
X38500Y304320D02*
D03*
Y311800D02*
D03*
X46374Y71760D02*
D03*
X38500Y68020D02*
D03*
Y75500D02*
D03*
D33*
X559400Y-259400D02*
D03*
Y-288534D02*
D03*
X251300Y365700D02*
D03*
Y336566D02*
D03*
D34*
X575400Y-395935D02*
D03*
Y-379400D02*
D03*
D35*
X635400Y-353967D02*
D03*
Y-339400D02*
D03*
X80500Y247233D02*
D03*
Y261800D02*
D03*
Y10933D02*
D03*
Y25500D02*
D03*
X264200Y226200D02*
D03*
Y240767D02*
D03*
X350200Y243633D02*
D03*
Y258200D02*
D03*
X354200Y38567D02*
D03*
Y24000D02*
D03*
X286800Y38567D02*
D03*
Y24000D02*
D03*
X218800Y38567D02*
D03*
Y24000D02*
D03*
Y140067D02*
D03*
Y125500D02*
D03*
X286800Y140067D02*
D03*
Y125500D02*
D03*
X354200Y140067D02*
D03*
Y125500D02*
D03*
D36*
X324500Y-561000D02*
D03*
Y-563559D02*
D03*
Y-566118D02*
D03*
Y-568677D02*
D03*
X342610Y-561000D02*
D03*
Y-563559D02*
D03*
Y-566118D02*
D03*
Y-568677D02*
D03*
X392500Y-561000D02*
D03*
Y-563559D02*
D03*
Y-566118D02*
D03*
Y-568677D02*
D03*
X410610Y-561000D02*
D03*
Y-563559D02*
D03*
Y-566118D02*
D03*
Y-568677D02*
D03*
X528500Y-561000D02*
D03*
Y-563559D02*
D03*
Y-566118D02*
D03*
Y-568677D02*
D03*
X546610Y-561000D02*
D03*
Y-563559D02*
D03*
Y-566118D02*
D03*
Y-568677D02*
D03*
X460500Y-561000D02*
D03*
Y-563559D02*
D03*
Y-566118D02*
D03*
Y-568677D02*
D03*
X478610Y-561000D02*
D03*
Y-563559D02*
D03*
Y-566118D02*
D03*
Y-568677D02*
D03*
X595500Y-561000D02*
D03*
Y-563559D02*
D03*
Y-566118D02*
D03*
Y-568677D02*
D03*
X613610Y-561000D02*
D03*
Y-563559D02*
D03*
Y-566118D02*
D03*
Y-568677D02*
D03*
X644000Y-469500D02*
D03*
Y-472059D02*
D03*
Y-474618D02*
D03*
Y-477177D02*
D03*
X662110Y-469500D02*
D03*
Y-472059D02*
D03*
Y-474618D02*
D03*
Y-477177D02*
D03*
X516500Y-469500D02*
D03*
Y-472059D02*
D03*
Y-474618D02*
D03*
Y-477177D02*
D03*
X534610Y-469500D02*
D03*
Y-472059D02*
D03*
Y-474618D02*
D03*
Y-477177D02*
D03*
X580500Y-469500D02*
D03*
Y-472059D02*
D03*
Y-474618D02*
D03*
Y-477177D02*
D03*
X598610Y-469500D02*
D03*
Y-472059D02*
D03*
Y-474618D02*
D03*
Y-477177D02*
D03*
X355200Y15200D02*
D03*
Y12641D02*
D03*
Y10082D02*
D03*
Y7523D02*
D03*
X373310Y15200D02*
D03*
Y12641D02*
D03*
Y10082D02*
D03*
Y7523D02*
D03*
X287800Y15200D02*
D03*
Y12641D02*
D03*
Y10082D02*
D03*
Y7523D02*
D03*
X305910Y15200D02*
D03*
Y12641D02*
D03*
Y10082D02*
D03*
Y7523D02*
D03*
X219800Y15200D02*
D03*
Y12641D02*
D03*
Y10082D02*
D03*
Y7523D02*
D03*
X237910Y15200D02*
D03*
Y12641D02*
D03*
Y10082D02*
D03*
Y7523D02*
D03*
X219800Y116700D02*
D03*
Y114141D02*
D03*
Y111582D02*
D03*
Y109023D02*
D03*
X237910Y116700D02*
D03*
Y114141D02*
D03*
Y111582D02*
D03*
Y109023D02*
D03*
X287800Y116700D02*
D03*
Y114141D02*
D03*
Y111582D02*
D03*
Y109023D02*
D03*
X305910Y116700D02*
D03*
Y114141D02*
D03*
Y111582D02*
D03*
Y109023D02*
D03*
X355200Y116700D02*
D03*
Y114141D02*
D03*
Y111582D02*
D03*
Y109023D02*
D03*
X373310Y116700D02*
D03*
Y114141D02*
D03*
Y111582D02*
D03*
Y109023D02*
D03*
D37*
X168700Y345800D02*
D03*
Y109500D02*
D03*
D38*
X284200Y368400D02*
D03*
D39*
X362282Y65900D02*
D03*
X367400D02*
D03*
X362282Y55373D02*
D03*
X367400D02*
D03*
X362282Y47100D02*
D03*
X367400D02*
D03*
X294882Y65900D02*
D03*
X300000D02*
D03*
X294882Y55373D02*
D03*
X300000D02*
D03*
X294882Y47100D02*
D03*
X300000D02*
D03*
X226882Y65900D02*
D03*
X232000D02*
D03*
X226882Y55373D02*
D03*
X232000D02*
D03*
X226882Y47100D02*
D03*
X232000D02*
D03*
X226882Y148600D02*
D03*
X232000D02*
D03*
X226882Y156873D02*
D03*
X232000D02*
D03*
X226882Y167400D02*
D03*
X232000D02*
D03*
X294882Y148600D02*
D03*
X300000D02*
D03*
X294882Y156873D02*
D03*
X300000D02*
D03*
X294882Y167400D02*
D03*
X300000D02*
D03*
X362282Y148600D02*
D03*
X367400D02*
D03*
X362282Y156873D02*
D03*
X367400D02*
D03*
X362282Y167400D02*
D03*
X367400D02*
D03*
D45*
X294500Y-620500D02*
Y-226500D01*
Y-620500D02*
X688500D01*
Y-226500D01*
X294500D02*
X688500D01*
X492600Y-368400D02*
Y-232400D01*
X298600D02*
X492600D01*
X298600Y-368400D02*
X492600D01*
X298600D02*
Y-232400D01*
Y-518400D02*
Y-382400D01*
Y-518400D02*
X492600D01*
X298600Y-382400D02*
X492600D01*
Y-518400D02*
Y-382400D01*
X544400Y-231400D02*
X680400D01*
X544400Y-425400D02*
Y-231400D01*
X680400Y-425400D02*
Y-231400D01*
X544400Y-425400D02*
X680400D01*
X304500Y-534000D02*
X364500D01*
X304500Y-612000D02*
Y-534000D01*
Y-612000D02*
X364500D01*
Y-534000D01*
X432500Y-612000D02*
Y-534000D01*
X372500Y-612000D02*
X432500D01*
X372500D02*
Y-534000D01*
X432500D01*
X508500D02*
X568500D01*
X508500Y-612000D02*
Y-534000D01*
Y-612000D02*
X568500D01*
Y-534000D01*
X500500Y-612000D02*
Y-534000D01*
X440500Y-612000D02*
X500500D01*
X440500D02*
Y-534000D01*
X500500D01*
X635500Y-612000D02*
Y-534000D01*
X575500Y-612000D02*
X635500D01*
X575500D02*
Y-534000D01*
X635500D01*
X624000Y-442500D02*
X684000D01*
X624000Y-520500D02*
Y-442500D01*
Y-520500D02*
X684000D01*
Y-442500D01*
X496500D02*
X556500D01*
X496500Y-520500D02*
Y-442500D01*
Y-520500D02*
X556500D01*
Y-442500D01*
X620500Y-520500D02*
Y-442500D01*
X560500Y-520500D02*
X620500D01*
X560500D02*
Y-442500D01*
X620500D01*
X0Y0D02*
Y393701D01*
Y0D02*
X393701D01*
Y393701D01*
X0D02*
X393701D01*
X194000Y236300D02*
Y393700D01*
X0D02*
X194000D01*
X0Y236300D02*
X194000D01*
X0D02*
Y393700D01*
X194000Y0D02*
Y157400D01*
X0D02*
X194000D01*
X0Y0D02*
X194000D01*
X0D02*
Y157400D01*
X236300Y393700D02*
X393700D01*
X236300Y199700D02*
Y393700D01*
X393700Y199700D02*
Y393700D01*
X236300Y199700D02*
X393700D01*
X338700Y0D02*
Y87500D01*
Y0D02*
X393700D01*
X338700Y87500D02*
X393700D01*
Y0D02*
Y87500D01*
X271300Y0D02*
Y87500D01*
Y0D02*
X326300D01*
X271300Y87500D02*
X326300D01*
Y0D02*
Y87500D01*
X203300Y0D02*
Y87500D01*
Y0D02*
X258300D01*
X203300Y87500D02*
X258300D01*
Y0D02*
Y87500D01*
Y101500D02*
Y189000D01*
X203300D02*
X258300D01*
X203300Y101500D02*
X258300D01*
X203300D02*
Y189000D01*
X326300Y101500D02*
Y189000D01*
X271300D02*
X326300D01*
X271300Y101500D02*
X326300D01*
X271300D02*
Y189000D01*
X393700Y101500D02*
Y189000D01*
X338700D02*
X393700D01*
X338700Y101500D02*
X393700D01*
X338700D02*
Y189000D01*
M02*
