%FSLAX25Y25*%
%MOIN*%
G70*
G01*
G75*
G04 Layer_Color=16711935*
%ADD10R,0.06299X0.13386*%
%ADD11R,0.01772X0.06299*%
%ADD12R,0.05512X0.01654*%
%ADD13R,0.04724X0.04724*%
%ADD14R,0.09000X0.15000*%
%ADD15R,0.08465X0.05000*%
%ADD16R,0.05906X0.03937*%
%ADD17R,0.03937X0.05906*%
%ADD18R,0.07874X0.11024*%
%ADD19R,0.05906X0.15748*%
%ADD20R,0.03500X0.05000*%
%ADD21R,0.07874X0.15748*%
%ADD22R,0.06299X0.09449*%
%ADD23R,0.05512X0.07087*%
%ADD24R,0.13386X0.06299*%
%ADD25R,0.06299X0.01772*%
%ADD26R,0.01654X0.05512*%
%ADD27R,0.04724X0.04724*%
%ADD28R,0.15000X0.09000*%
%ADD29R,0.05000X0.08465*%
%ADD30R,0.11024X0.07874*%
%ADD31R,0.15748X0.05906*%
%ADD32R,0.05000X0.03500*%
%ADD33R,0.15748X0.07874*%
%ADD34R,0.09449X0.06299*%
%ADD35R,0.07087X0.05512*%
%ADD36R,0.06600X0.01700*%
%ADD37R,0.15000X0.28000*%
%ADD38R,0.28000X0.15000*%
%ADD39R,0.03300X0.03150*%
%ADD40C,0.02500*%
%ADD41C,0.02000*%
%ADD42C,0.03000*%
%ADD43C,0.01500*%
%ADD44C,0.04000*%
%ADD45C,0.01000*%
%ADD46C,0.01800*%
%ADD47C,0.05000*%
%ADD48R,0.01600X0.04800*%
%ADD49R,0.34200X0.03200*%
%ADD50R,0.04800X0.01600*%
%ADD51R,0.03200X0.34200*%
%ADD52R,0.14413X0.28346*%
%ADD53R,0.28346X0.14413*%
%ADD54R,0.27700X0.02100*%
%ADD55R,0.01900X0.03800*%
%ADD56R,0.35700X0.03400*%
%ADD57R,0.02100X0.27700*%
%ADD58R,0.03800X0.01900*%
%ADD59R,0.03400X0.35700*%
%ADD60R,0.08200X0.15600*%
%ADD61C,0.15800*%
%ADD62R,0.05118X0.07874*%
%ADD63R,0.05512X0.07874*%
%ADD64C,0.07874*%
%ADD65R,0.07874X0.05118*%
%ADD66R,0.07874X0.05512*%
%ADD67C,0.07087*%
%ADD68C,0.05000*%
%ADD69C,0.04000*%
%ADD70C,0.06000*%
%ADD71C,0.03937*%
%ADD72R,0.04724X0.11024*%
%ADD73R,0.09449X0.04724*%
%ADD74R,0.03000X0.10000*%
%ADD75R,0.10000X0.20000*%
%ADD76R,0.06299X0.05512*%
%ADD77R,0.09843X0.14961*%
%ADD78R,0.11024X0.04724*%
%ADD79R,0.04724X0.09449*%
%ADD80R,0.10000X0.03000*%
%ADD81R,0.20000X0.10000*%
%ADD82R,0.05512X0.06299*%
%ADD83R,0.14961X0.09843*%
%ADD84R,0.03150X0.04724*%
%ADD85R,0.26000X0.28400*%
%ADD86R,0.28400X0.26000*%
%ADD87C,0.03500*%
%ADD88R,0.26400X0.28346*%
%ADD89R,0.28346X0.26400*%
%ADD90R,0.21028X0.12517*%
%ADD91R,0.12517X0.21028*%
%ADD92R,0.20200X0.15600*%
%ADD93C,0.00200*%
%ADD94C,0.00591*%
%ADD95C,0.00394*%
%ADD96C,0.00787*%
%ADD97C,0.00500*%
%ADD98C,0.00050*%
%ADD99C,0.00800*%
%ADD100R,0.02300X0.06299*%
%ADD101R,0.06299X0.02300*%
%ADD102R,0.12100X0.11300*%
%ADD103R,0.06299X0.02100*%
%ADD104R,0.11300X0.12100*%
%ADD105R,0.02100X0.06299*%
%ADD106R,0.07099X0.14186*%
%ADD107R,0.02572X0.07099*%
%ADD108R,0.06312X0.02454*%
%ADD109R,0.05524X0.05524*%
%ADD110R,0.09800X0.15800*%
%ADD111R,0.09265X0.05800*%
%ADD112R,0.06706X0.04737*%
%ADD113R,0.04737X0.06706*%
%ADD114R,0.08674X0.11824*%
%ADD115R,0.06706X0.16548*%
%ADD116R,0.04300X0.05800*%
%ADD117R,0.08674X0.16548*%
%ADD118R,0.07099X0.10249*%
%ADD119R,0.06312X0.07887*%
%ADD120R,0.14186X0.07099*%
%ADD121R,0.07099X0.02572*%
%ADD122R,0.02454X0.06312*%
%ADD123R,0.05524X0.05524*%
%ADD124R,0.15800X0.09800*%
%ADD125R,0.05800X0.09265*%
%ADD126R,0.11824X0.08674*%
%ADD127R,0.16548X0.06706*%
%ADD128R,0.05800X0.04300*%
%ADD129R,0.16548X0.08674*%
%ADD130R,0.10249X0.07099*%
%ADD131R,0.07887X0.06312*%
%ADD132R,0.07400X0.02500*%
%ADD133R,0.15800X0.28800*%
%ADD134R,0.28800X0.15800*%
%ADD135R,0.04100X0.03950*%
%ADD136C,0.16600*%
%ADD137R,0.05918X0.08674*%
%ADD138R,0.06312X0.08674*%
%ADD139C,0.08674*%
%ADD140R,0.08674X0.05918*%
%ADD141R,0.08674X0.06312*%
%ADD142C,0.07887*%
%ADD143C,0.05800*%
%ADD144C,0.04800*%
%ADD145C,0.06800*%
%ADD146C,0.04737*%
%ADD147R,0.05524X0.11824*%
%ADD148R,0.10249X0.05524*%
%ADD149R,0.03800X0.10800*%
%ADD150R,0.10800X0.20800*%
%ADD151R,0.07099X0.06312*%
%ADD152R,0.10642X0.15761*%
%ADD153R,0.11824X0.05524*%
%ADD154R,0.05524X0.10249*%
%ADD155R,0.10800X0.03800*%
%ADD156R,0.20800X0.10800*%
%ADD157R,0.06312X0.07099*%
%ADD158R,0.15761X0.10642*%
%ADD159R,0.03950X0.05524*%
%ADD160R,0.26800X0.29200*%
%ADD161R,0.29200X0.26800*%
%ADD162C,0.00300*%
%ADD163C,0.01181*%
%ADD164C,0.01969*%
%ADD165R,0.06000X0.16929*%
%ADD166R,0.02100X0.06299*%
%ADD167R,0.16929X0.06000*%
D45*
X294500Y-620500D02*
Y-226500D01*
Y-620500D02*
X688500D01*
Y-226500D01*
X294500D02*
X688500D01*
X492600Y-368400D02*
Y-232400D01*
X298600D02*
X492600D01*
X298600Y-368400D02*
X492600D01*
X298600D02*
Y-232400D01*
Y-518400D02*
Y-382400D01*
Y-518400D02*
X492600D01*
X298600Y-382400D02*
X492600D01*
Y-518400D02*
Y-382400D01*
X544400Y-231400D02*
X680400D01*
X544400Y-425400D02*
Y-231400D01*
X680400Y-425400D02*
Y-231400D01*
X544400Y-425400D02*
X680400D01*
X304500Y-534000D02*
X364500D01*
X304500Y-612000D02*
Y-534000D01*
Y-612000D02*
X364500D01*
Y-534000D01*
X432500Y-612000D02*
Y-534000D01*
X372500Y-612000D02*
X432500D01*
X372500D02*
Y-534000D01*
X432500D01*
X508500D02*
X568500D01*
X508500Y-612000D02*
Y-534000D01*
Y-612000D02*
X568500D01*
Y-534000D01*
X500500Y-612000D02*
Y-534000D01*
X440500Y-612000D02*
X500500D01*
X440500D02*
Y-534000D01*
X500500D01*
X635500Y-612000D02*
Y-534000D01*
X575500Y-612000D02*
X635500D01*
X575500D02*
Y-534000D01*
X635500D01*
X624000Y-442500D02*
X684000D01*
X624000Y-520500D02*
Y-442500D01*
Y-520500D02*
X684000D01*
Y-442500D01*
X496500D02*
X556500D01*
X496500Y-520500D02*
Y-442500D01*
Y-520500D02*
X556500D01*
Y-442500D01*
X620500Y-520500D02*
Y-442500D01*
X560500Y-520500D02*
X620500D01*
X560500D02*
Y-442500D01*
X620500D01*
X0Y0D02*
Y393701D01*
Y0D02*
X393701D01*
Y393701D01*
X0D02*
X393701D01*
X194000Y236300D02*
Y393700D01*
X0D02*
X194000D01*
X0Y236300D02*
X194000D01*
X0D02*
Y393700D01*
X194000Y0D02*
Y157400D01*
X0D02*
X194000D01*
X0Y0D02*
X194000D01*
X0D02*
Y157400D01*
X236300Y393700D02*
X393700D01*
X236300Y199700D02*
Y393700D01*
X393700Y199700D02*
Y393700D01*
X236300Y199700D02*
X393700D01*
X338700Y0D02*
Y87500D01*
Y0D02*
X393700D01*
X338700Y87500D02*
X393700D01*
Y0D02*
Y87500D01*
X271300Y0D02*
Y87500D01*
Y0D02*
X326300D01*
X271300Y87500D02*
X326300D01*
Y0D02*
Y87500D01*
X203300Y0D02*
Y87500D01*
Y0D02*
X258300D01*
X203300Y87500D02*
X258300D01*
Y0D02*
Y87500D01*
Y101500D02*
Y189000D01*
X203300D02*
X258300D01*
X203300Y101500D02*
X258300D01*
X203300D02*
Y189000D01*
X326300Y101500D02*
Y189000D01*
X271300D02*
X326300D01*
X271300Y101500D02*
X326300D01*
X271300D02*
Y189000D01*
X393700Y101500D02*
Y189000D01*
X338700D02*
X393700D01*
X338700Y101500D02*
X393700D01*
X338700D02*
Y189000D01*
M02*
