%FSLAX25Y25*%
%MOIN*%
G70*
G01*
G75*
G04 Layer_Color=32896*
%ADD10R,0.01772X0.06299*%
%ADD11R,0.06299X0.13386*%
%ADD12R,0.01654X0.05512*%
%ADD13R,0.05512X0.07087*%
%ADD14R,0.05000X0.03500*%
%ADD15R,0.09000X0.15000*%
%ADD16R,0.08465X0.05000*%
%ADD17R,0.15000X0.28000*%
%ADD18R,0.07874X0.15748*%
%ADD19R,0.05906X0.15748*%
%ADD20R,0.06600X0.01700*%
%ADD21R,0.07087X0.05512*%
%ADD22R,0.11024X0.07874*%
%ADD23R,0.03300X0.03150*%
%ADD24R,0.04724X0.04724*%
%ADD25R,0.03937X0.05906*%
%ADD26R,0.05906X0.03937*%
%ADD27R,0.15748X0.07874*%
%ADD28R,0.03500X0.05000*%
%ADD29R,0.15748X0.05906*%
%ADD30R,0.07874X0.11024*%
%ADD31R,0.04724X0.04724*%
%ADD32R,0.05512X0.01654*%
%ADD33R,0.06299X0.01772*%
%ADD34R,0.13386X0.06299*%
%ADD35R,0.15000X0.09000*%
%ADD36R,0.05000X0.08465*%
%ADD37R,0.28000X0.15000*%
%ADD38C,0.04000*%
%ADD39C,0.01800*%
%ADD40C,0.02000*%
%ADD41C,0.01500*%
%ADD42C,0.02500*%
%ADD43C,0.03000*%
%ADD44C,0.01000*%
%ADD45C,0.05000*%
%ADD46R,0.27700X0.02100*%
%ADD47R,0.01900X0.03800*%
%ADD48R,0.35700X0.03400*%
%ADD49R,0.02100X0.27700*%
%ADD50R,0.03800X0.01900*%
%ADD51R,0.03400X0.35700*%
%ADD52R,0.08200X0.15600*%
%ADD53R,0.05512X0.07874*%
%ADD54R,0.05118X0.07874*%
%ADD55C,0.07874*%
%ADD56C,0.07087*%
%ADD57R,0.07874X0.05512*%
%ADD58R,0.07874X0.05118*%
%ADD59C,0.15800*%
%ADD60C,0.03937*%
%ADD61C,0.04000*%
%ADD62C,0.05000*%
%ADD63C,0.06000*%
%ADD64R,0.26000X0.28400*%
%ADD65R,0.03000X0.10000*%
%ADD66R,0.10000X0.20000*%
%ADD67R,0.09449X0.04724*%
%ADD68R,0.04724X0.11024*%
%ADD69R,0.09843X0.14961*%
%ADD70R,0.14961X0.09843*%
%ADD71R,0.20000X0.10000*%
%ADD72R,0.10000X0.03000*%
%ADD73R,0.04724X0.09449*%
%ADD74R,0.11024X0.04724*%
%ADD75R,0.28400X0.26000*%
%ADD76C,0.03500*%
%ADD77R,0.21028X0.12517*%
%ADD78R,0.12517X0.21028*%
%ADD79R,0.20200X0.15600*%
%ADD80C,0.00200*%
%ADD81C,0.00394*%
%ADD82C,0.00591*%
%ADD83C,0.00787*%
%ADD84C,0.00500*%
%ADD85C,0.00050*%
%ADD86C,0.00800*%
%ADD87R,0.02300X0.06299*%
%ADD88R,0.12100X0.11300*%
%ADD89R,0.06299X0.02100*%
%ADD90R,0.06299X0.02300*%
%ADD91R,0.02100X0.06299*%
%ADD92R,0.11300X0.12100*%
%ADD93R,0.02572X0.07099*%
%ADD94R,0.07099X0.14186*%
%ADD95R,0.02454X0.06312*%
%ADD96R,0.06312X0.07887*%
%ADD97R,0.05800X0.04300*%
%ADD98R,0.09800X0.15800*%
%ADD99R,0.09265X0.05800*%
%ADD100R,0.15800X0.28800*%
%ADD101R,0.08674X0.16548*%
%ADD102R,0.06706X0.16548*%
%ADD103R,0.07400X0.02500*%
%ADD104R,0.07887X0.06312*%
%ADD105R,0.11824X0.08674*%
%ADD106R,0.04100X0.03950*%
%ADD107R,0.05524X0.05524*%
%ADD108R,0.04737X0.06706*%
%ADD109R,0.06706X0.04737*%
%ADD110R,0.16548X0.08674*%
%ADD111R,0.04300X0.05800*%
%ADD112R,0.16548X0.06706*%
%ADD113R,0.08674X0.11824*%
%ADD114R,0.05524X0.05524*%
%ADD115R,0.06312X0.02454*%
%ADD116R,0.07099X0.02572*%
%ADD117R,0.14186X0.07099*%
%ADD118R,0.15800X0.09800*%
%ADD119R,0.05800X0.09265*%
%ADD120R,0.28800X0.15800*%
%ADD121R,0.06312X0.08674*%
%ADD122R,0.05918X0.08674*%
%ADD123C,0.08674*%
%ADD124C,0.07887*%
%ADD125R,0.08674X0.06312*%
%ADD126R,0.08674X0.05918*%
%ADD127C,0.16600*%
%ADD128C,0.04737*%
%ADD129C,0.04800*%
%ADD130C,0.05800*%
%ADD131C,0.06800*%
%ADD132R,0.26800X0.29200*%
%ADD133R,0.03800X0.10800*%
%ADD134R,0.10800X0.20800*%
%ADD135R,0.10249X0.05524*%
%ADD136R,0.05524X0.11824*%
%ADD137R,0.10642X0.15761*%
%ADD138R,0.15761X0.10642*%
%ADD139R,0.20800X0.10800*%
%ADD140R,0.10800X0.03800*%
%ADD141R,0.05524X0.10249*%
%ADD142R,0.11824X0.05524*%
%ADD143R,0.29200X0.26800*%
%ADD144C,0.00300*%
%ADD145C,0.01969*%
%ADD146C,0.01181*%
%ADD147R,0.06000X0.16929*%
%ADD148R,0.16929X0.06000*%
D44*
X105842Y317314D02*
G03*
X108205Y319676I0J2362D01*
G01*
Y341724D02*
G03*
X105842Y344086I-2362J0D01*
G01*
X83795Y319676D02*
G03*
X86158Y317314I2362J0D01*
G01*
Y344086D02*
G03*
X83795Y341724I0J-2362D01*
G01*
X137902Y339800D02*
G03*
X137902Y339800I-12402J0D01*
G01*
X302602Y325200D02*
G03*
X302602Y325200I-12402J0D01*
G01*
X312686Y305542D02*
G03*
X310324Y307905I-2362J0D01*
G01*
X288276D02*
G03*
X285914Y305542I0J-2362D01*
G01*
X310324Y283495D02*
G03*
X312686Y285858I0J2362D01*
G01*
X285914D02*
G03*
X288276Y283495I2362J0D01*
G01*
X137902Y103500D02*
G03*
X137902Y103500I-12402J0D01*
G01*
X105842Y81014D02*
G03*
X108205Y83376I0J2362D01*
G01*
Y105424D02*
G03*
X105842Y107786I-2362J0D01*
G01*
X83795Y83376D02*
G03*
X86158Y81014I2362J0D01*
G01*
Y107786D02*
G03*
X83795Y105424I0J-2362D01*
G01*
X38846Y232052D02*
X82153D01*
X125100Y242700D02*
X125600Y243200D01*
X83795Y319676D02*
Y341724D01*
X108205Y319676D02*
Y341724D01*
X86158Y317314D02*
X105842D01*
X86158Y344086D02*
X105842D01*
X73024Y305708D02*
Y368700D01*
X-21465D02*
X73024D01*
X-21465Y305708D02*
X73024D01*
X-21465D02*
Y368700D01*
X135819Y368235D02*
Y385165D01*
X164559Y368235D02*
Y385165D01*
X135819Y368235D02*
X164559D01*
X135819Y385165D02*
X164559D01*
X38846Y-4248D02*
X82153D01*
X244835Y335519D02*
X261765D01*
X244835Y364259D02*
X261765D01*
Y335519D02*
Y364259D01*
X244835Y335519D02*
Y364259D01*
X288276Y283495D02*
X310324D01*
X288276Y307905D02*
X310324D01*
X312686Y285858D02*
Y305542D01*
X285914Y285858D02*
Y305542D01*
X386800Y325300D02*
X387300Y324800D01*
X397948Y238546D02*
Y281854D01*
X261300Y272724D02*
X324292D01*
X135819Y131935D02*
Y148865D01*
X164559Y131935D02*
Y148865D01*
X135819Y131935D02*
X164559D01*
X135819Y148865D02*
X164559D01*
X83795Y83376D02*
Y105424D01*
X108205Y83376D02*
Y105424D01*
X86158Y81014D02*
X105842D01*
X86158Y107786D02*
X105842D01*
X125100Y6400D02*
X125600Y6900D01*
X73024Y69408D02*
Y132400D01*
X-21465D02*
X73024D01*
X-21465Y69408D02*
X73024D01*
X-21465D02*
Y132400D01*
X67118Y383598D02*
Y377600D01*
X65119Y379599D01*
X63119Y377600D01*
Y383598D01*
X61120Y377600D02*
X59121D01*
X60120D01*
Y381599D01*
X61120D01*
X56122Y380599D02*
X52123D01*
X46125Y383598D02*
X50124D01*
Y380599D01*
X48124D01*
X50124D01*
Y377600D01*
X44126D02*
X42126D01*
X43126D01*
Y381599D01*
X44126D01*
X39127Y377600D02*
X37128D01*
X38127D01*
Y383598D01*
X39127Y382598D01*
X130400Y320398D02*
Y314400D01*
X126401D01*
X121403D02*
X123402D01*
X124402Y315400D01*
Y317399D01*
X123402Y318399D01*
X121403D01*
X120403Y317399D01*
Y316399D01*
X124402D01*
X114405Y320398D02*
Y314400D01*
X117404D01*
X118404Y315400D01*
Y317399D01*
X117404Y318399D01*
X114405D01*
X112406Y314400D02*
X110406D01*
X111406D01*
Y320398D01*
X112406Y319398D01*
X175601Y369098D02*
X176601Y370098D01*
X178600D01*
X179600Y369098D01*
Y365100D01*
X178600Y364100D01*
X176601D01*
X175601Y365100D01*
X173602Y364100D02*
X171603D01*
X172602D01*
Y370098D01*
X173602Y369098D01*
X67118Y147298D02*
Y141300D01*
X65119Y143299D01*
X63119Y141300D01*
Y147298D01*
X61120Y141300D02*
X59121D01*
X60120D01*
Y145299D01*
X61120D01*
X56122Y144299D02*
X52123D01*
X46125Y147298D02*
X50124D01*
Y144299D01*
X48124D01*
X50124D01*
Y141300D01*
X44126D02*
X42126D01*
X43126D01*
Y145299D01*
X44126D01*
X39127Y141300D02*
X37128D01*
X38127D01*
Y147298D01*
X39127Y146298D01*
X130400Y84098D02*
Y78100D01*
X126401D01*
X121403D02*
X123402D01*
X124402Y79100D01*
Y81099D01*
X123402Y82099D01*
X121403D01*
X120403Y81099D01*
Y80099D01*
X124402D01*
X114405Y84098D02*
Y78100D01*
X117404D01*
X118404Y79100D01*
Y81099D01*
X117404Y82099D01*
X114405D01*
X112406Y78100D02*
X110406D01*
X111406D01*
Y84098D01*
X112406Y83098D01*
X175601Y132798D02*
X176601Y133798D01*
X178600D01*
X179600Y132798D01*
Y128800D01*
X178600Y127800D01*
X176601D01*
X175601Y128800D01*
X173602Y127800D02*
X171603D01*
X172602D01*
Y133798D01*
X173602Y132798D01*
X246402Y266818D02*
X252400D01*
X250401Y264819D01*
X252400Y262819D01*
X246402D01*
X252400Y260820D02*
Y258821D01*
Y259820D01*
X248401D01*
Y260820D01*
X249401Y255822D02*
Y251823D01*
X246402Y245825D02*
Y249824D01*
X249401D01*
Y247824D01*
Y249824D01*
X252400D01*
Y243826D02*
Y241826D01*
Y242826D01*
X248401D01*
Y243826D01*
X252400Y238827D02*
Y236828D01*
Y237827D01*
X246402D01*
X247402Y238827D01*
X253400Y233829D02*
Y229830D01*
X247402Y227831D02*
X246402Y226831D01*
Y224832D01*
X247402Y223832D01*
X248401D01*
X249401Y224832D01*
Y225831D01*
Y224832D01*
X250401Y223832D01*
X251400D01*
X252400Y224832D01*
Y226831D01*
X251400Y227831D01*
X309602Y330100D02*
X315600D01*
Y326101D01*
Y321103D02*
Y323102D01*
X314600Y324102D01*
X312601D01*
X311601Y323102D01*
Y321103D01*
X312601Y320103D01*
X313601D01*
Y324102D01*
X309602Y314105D02*
X315600D01*
Y317104D01*
X314600Y318104D01*
X312601D01*
X311601Y317104D01*
Y314105D01*
X315600Y312106D02*
Y310106D01*
Y311106D01*
X309602D01*
X310602Y312106D01*
X260902Y375301D02*
X259902Y376301D01*
Y378300D01*
X260902Y379300D01*
X264900D01*
X265900Y378300D01*
Y376301D01*
X264900Y375301D01*
X265900Y373302D02*
Y371303D01*
Y372302D01*
X259902D01*
X260902Y373302D01*
X18251Y346302D02*
X13300D01*
Y354300D01*
X18251D01*
X13300Y350110D02*
X16347D01*
X24917Y347444D02*
X24155Y346683D01*
X23012Y346302D01*
X21489D01*
X20346Y346683D01*
X19584Y347444D01*
Y348206D01*
X19965Y348968D01*
X20346Y349349D01*
X21108Y349730D01*
X23393Y350491D01*
X24155Y350872D01*
X24536Y351253D01*
X24917Y352015D01*
Y353157D01*
X24155Y353919D01*
X23012Y354300D01*
X21489D01*
X20346Y353919D01*
X19584Y353157D01*
X26707Y350491D02*
X30134D01*
X31277Y350110D01*
X31658Y349730D01*
X32039Y348968D01*
Y347825D01*
X31658Y347063D01*
X31277Y346683D01*
X30134Y346302D01*
X26707D01*
Y354300D01*
X33829Y350872D02*
X40685D01*
X43046Y347825D02*
X43808Y347444D01*
X44950Y346302D01*
Y354300D01*
X49292Y348206D02*
Y347825D01*
X49673Y347063D01*
X50054Y346683D01*
X50816Y346302D01*
X52339D01*
X53101Y346683D01*
X53482Y347063D01*
X53863Y347825D01*
Y348587D01*
X53482Y349349D01*
X52720Y350491D01*
X48911Y354300D01*
X54244D01*
X60985Y346302D02*
X56034D01*
Y354300D01*
X60985D01*
X56034Y350110D02*
X59081D01*
X17000Y317702D02*
X19380Y327700D01*
X21761Y317702D02*
X19380Y327700D01*
X21761Y317702D02*
X24141Y327700D01*
X26522Y317702D02*
X24141Y327700D01*
X29474Y317702D02*
X29950Y318178D01*
X30426Y317702D01*
X29950Y317226D01*
X29474Y317702D01*
X29950Y321035D02*
Y327700D01*
X32187Y323415D02*
X40757D01*
X43709Y317702D02*
Y327700D01*
Y317702D02*
X49898D01*
X43709Y322463D02*
X47517D01*
X51992Y317702D02*
X52469Y318178D01*
X52945Y317702D01*
X52469Y317226D01*
X51992Y317702D01*
X52469Y321035D02*
Y327700D01*
X129500Y332801D02*
X133499D01*
X131499Y330802D02*
Y334800D01*
X297199Y329200D02*
Y333199D01*
X299198Y331199D02*
X295200D01*
X283698Y217951D02*
Y213000D01*
X275700D01*
Y217951D01*
X279890Y213000D02*
Y216047D01*
X282556Y224617D02*
X283317Y223855D01*
X283698Y222712D01*
Y221189D01*
X283317Y220046D01*
X282556Y219284D01*
X281794D01*
X281032Y219665D01*
X280651Y220046D01*
X280270Y220808D01*
X279509Y223093D01*
X279128Y223855D01*
X278747Y224236D01*
X277985Y224617D01*
X276843D01*
X276081Y223855D01*
X275700Y222712D01*
Y221189D01*
X276081Y220046D01*
X276843Y219284D01*
X279509Y226407D02*
Y229835D01*
X279890Y230977D01*
X280270Y231358D01*
X281032Y231739D01*
X282175D01*
X282937Y231358D01*
X283317Y230977D01*
X283698Y229835D01*
Y226407D01*
X275700D01*
X279128Y233529D02*
Y240385D01*
X282175Y242746D02*
X282556Y243508D01*
X283698Y244650D01*
X275700D01*
X281794Y248992D02*
X282175D01*
X282937Y249373D01*
X283317Y249754D01*
X283698Y250516D01*
Y252039D01*
X283317Y252801D01*
X282937Y253182D01*
X282175Y253563D01*
X281413D01*
X280651Y253182D01*
X279509Y252420D01*
X275700Y248611D01*
Y253944D01*
X283698Y260685D02*
Y255734D01*
X275700D01*
Y260685D01*
X279890Y255734D02*
Y258781D01*
X312298Y216700D02*
X302300Y219080D01*
X312298Y221461D02*
X302300Y219080D01*
X312298Y221461D02*
X302300Y223841D01*
X312298Y226222D02*
X302300Y223841D01*
X312298Y229173D02*
X311822Y229650D01*
X312298Y230126D01*
X312774Y229650D01*
X312298Y229173D01*
X308965Y229650D02*
X302300D01*
X306585Y231887D02*
Y240457D01*
X312298Y243409D02*
X302300D01*
X312298D02*
Y249598D01*
X307537Y243409D02*
Y247217D01*
X312298Y251693D02*
X311822Y252169D01*
X312298Y252645D01*
X312774Y252169D01*
X312298Y251693D01*
X308965Y252169D02*
X302300D01*
X129500Y96501D02*
X133499D01*
X131499Y94502D02*
Y98500D01*
X18251Y110002D02*
X13300D01*
Y118000D01*
X18251D01*
X13300Y113810D02*
X16347D01*
X24917Y111144D02*
X24155Y110383D01*
X23012Y110002D01*
X21489D01*
X20346Y110383D01*
X19584Y111144D01*
Y111906D01*
X19965Y112668D01*
X20346Y113049D01*
X21108Y113429D01*
X23393Y114191D01*
X24155Y114572D01*
X24536Y114953D01*
X24917Y115715D01*
Y116857D01*
X24155Y117619D01*
X23012Y118000D01*
X21489D01*
X20346Y117619D01*
X19584Y116857D01*
X26707Y114191D02*
X30134D01*
X31277Y113810D01*
X31658Y113429D01*
X32039Y112668D01*
Y111525D01*
X31658Y110764D01*
X31277Y110383D01*
X30134Y110002D01*
X26707D01*
Y118000D01*
X33829Y114572D02*
X40685D01*
X43046Y111525D02*
X43808Y111144D01*
X44950Y110002D01*
Y118000D01*
X49292Y111906D02*
Y111525D01*
X49673Y110764D01*
X50054Y110383D01*
X50816Y110002D01*
X52339D01*
X53101Y110383D01*
X53482Y110764D01*
X53863Y111525D01*
Y112287D01*
X53482Y113049D01*
X52720Y114191D01*
X48911Y118000D01*
X54244D01*
X60985Y110002D02*
X56034D01*
Y118000D01*
X60985D01*
X56034Y113810D02*
X59081D01*
X17000Y81402D02*
X19380Y91400D01*
X21761Y81402D02*
X19380Y91400D01*
X21761Y81402D02*
X24141Y91400D01*
X26522Y81402D02*
X24141Y91400D01*
X29474Y81402D02*
X29950Y81878D01*
X30426Y81402D01*
X29950Y80926D01*
X29474Y81402D01*
X29950Y84735D02*
Y91400D01*
X32187Y87115D02*
X40757D01*
X43709Y81402D02*
Y91400D01*
Y81402D02*
X49898D01*
X43709Y86163D02*
X47517D01*
X51992Y81402D02*
X52469Y81878D01*
X52945Y81402D01*
X52469Y80926D01*
X51992Y81402D01*
X52469Y84735D02*
Y91400D01*
X0Y0D02*
Y393701D01*
Y0D02*
X393701D01*
Y393701D01*
X0D02*
X393701D01*
X194000Y236300D02*
Y393700D01*
X0D02*
X194000D01*
X0Y236300D02*
X194000D01*
X0D02*
Y393700D01*
X194000Y0D02*
Y157400D01*
X0D02*
X194000D01*
X0Y0D02*
X194000D01*
X0D02*
Y157400D01*
X236300Y393700D02*
X393700D01*
X236300Y199700D02*
Y393700D01*
X393700Y199700D02*
Y393700D01*
X236300Y199700D02*
X393700D01*
X338700Y0D02*
Y87500D01*
Y0D02*
X393700D01*
X338700Y87500D02*
X393700D01*
Y0D02*
Y87500D01*
X271300Y0D02*
Y87500D01*
Y0D02*
X326300D01*
X271300Y87500D02*
X326300D01*
Y0D02*
Y87500D01*
X203300Y0D02*
Y87500D01*
Y0D02*
X258300D01*
X203300Y87500D02*
X258300D01*
Y0D02*
Y87500D01*
Y101500D02*
Y189000D01*
X203300D02*
X258300D01*
X203300Y101500D02*
X258300D01*
X203300D02*
Y189000D01*
X326300Y101500D02*
Y189000D01*
X271300D02*
X326300D01*
X271300Y101500D02*
X326300D01*
X271300D02*
Y189000D01*
X393700Y101500D02*
Y189000D01*
X338700D02*
X393700D01*
X338700Y101500D02*
X393700D01*
X338700D02*
Y189000D01*
D80*
X111177Y269300D02*
X130862D01*
X360700Y310877D02*
Y330562D01*
X111177Y33000D02*
X130862D01*
D81*
X105842Y330700D02*
G03*
X105842Y330700I-9843J0D01*
G01*
X106630Y341330D02*
G03*
X106630Y341330I-1181J0D01*
G01*
Y320070D02*
G03*
X106630Y320070I-1181J0D01*
G01*
X87732D02*
G03*
X87732Y320070I-1181J0D01*
G01*
Y341330D02*
G03*
X87732Y341330I-1181J0D01*
G01*
X107024Y330700D02*
G03*
X107024Y330700I-11024J0D01*
G01*
X309142Y295700D02*
G03*
X309142Y295700I-9843J0D01*
G01*
X289851Y305149D02*
G03*
X289851Y305149I-1181J0D01*
G01*
X311111D02*
G03*
X311111Y305149I-1181J0D01*
G01*
Y286251D02*
G03*
X311111Y286251I-1181J0D01*
G01*
X289851D02*
G03*
X289851Y286251I-1181J0D01*
G01*
X310324Y295700D02*
G03*
X310324Y295700I-11024J0D01*
G01*
X105842Y94400D02*
G03*
X105842Y94400I-9843J0D01*
G01*
X106630Y105030D02*
G03*
X106630Y105030I-1181J0D01*
G01*
Y83770D02*
G03*
X106630Y83770I-1181J0D01*
G01*
X87732D02*
G03*
X87732Y83770I-1181J0D01*
G01*
Y105030D02*
G03*
X87732Y105030I-1181J0D01*
G01*
X107024Y94400D02*
G03*
X107024Y94400I-11024J0D01*
G01*
X71681Y232052D02*
Y250162D01*
X69319D02*
X71681D01*
X69319Y232052D02*
Y250162D01*
X59319Y232052D02*
Y250162D01*
X61681D01*
Y232052D02*
Y250162D01*
X49319Y232052D02*
Y250162D01*
X51681D01*
Y232052D02*
Y250162D01*
X116116Y237326D02*
X118084D01*
X126116D02*
X128084D01*
X116116Y241263D02*
X118084D01*
X116116Y237326D02*
Y241263D01*
X118084Y237326D02*
Y241263D01*
X126116D02*
X128084D01*
X126116Y237326D02*
Y241263D01*
X128084Y237326D02*
Y241263D01*
X4126Y308857D02*
Y317519D01*
X8850D01*
Y308857D02*
Y317519D01*
X4126Y308857D02*
X8850D01*
X162000Y370401D02*
X164362D01*
X162000D02*
Y382999D01*
X164559D01*
X135819D02*
X138378D01*
Y370401D02*
Y382999D01*
X135819Y370401D02*
X138378D01*
X71681Y-4248D02*
Y13862D01*
X69319D02*
X71681D01*
X69319Y-4248D02*
Y13862D01*
X59319Y-4248D02*
Y13862D01*
X61681D01*
Y-4248D02*
Y13862D01*
X49319Y-4248D02*
Y13862D01*
X51681D01*
Y-4248D02*
Y13862D01*
X259599Y361700D02*
Y364062D01*
X247001Y361700D02*
X259599D01*
X247001D02*
Y364259D01*
Y335519D02*
Y338078D01*
X259599D01*
Y335519D02*
Y338078D01*
X392674Y315816D02*
Y317784D01*
Y325816D02*
Y327784D01*
X388737Y315816D02*
Y317784D01*
Y315816D02*
X392674D01*
X388737Y317784D02*
X392674D01*
X388737Y325816D02*
Y327784D01*
Y325816D02*
X392674D01*
X388737Y327784D02*
X392674D01*
X379838Y271381D02*
X397948D01*
X379838Y269019D02*
Y271381D01*
Y269019D02*
X397948D01*
X379838Y259019D02*
X397948D01*
X379838D02*
Y261381D01*
X397948D01*
X379838Y249019D02*
X397948D01*
X379838D02*
Y251381D01*
X397948D01*
X312481Y203826D02*
X321143D01*
X312481D02*
Y208550D01*
X321143D01*
Y203826D02*
Y208550D01*
X162000Y134101D02*
X164362D01*
X162000D02*
Y146699D01*
X164559D01*
X135819D02*
X138378D01*
Y134101D02*
Y146699D01*
X135819Y134101D02*
X138378D01*
X116116Y1026D02*
X118084D01*
X126116D02*
X128084D01*
X116116Y4963D02*
X118084D01*
X116116Y1026D02*
Y4963D01*
X118084Y1026D02*
Y4963D01*
X126116D02*
X128084D01*
X126116Y1026D02*
Y4963D01*
X128084Y1026D02*
Y4963D01*
X4126Y72557D02*
Y81219D01*
X8850D01*
Y72557D02*
Y81219D01*
X4126Y72557D02*
X8850D01*
D84*
X111000Y267800D02*
X131000D01*
Y283900D01*
X111000D02*
X131000D01*
X111000Y267800D02*
Y283900D01*
X98559Y326763D02*
Y334637D01*
X93441Y326763D02*
X98559D01*
X93441D02*
Y334637D01*
X98559D01*
X97181Y328338D02*
X98559D01*
X97181D02*
Y330306D01*
X98559D01*
X93441D02*
X94819D01*
Y328338D02*
Y330306D01*
X93441Y328338D02*
X94819D01*
X48039Y284300D02*
X52961D01*
X48039Y276426D02*
Y284300D01*
Y276426D02*
X52961D01*
Y284300D01*
X274661Y339826D02*
Y347700D01*
X269739Y339826D02*
X274661D01*
X269739D02*
Y347700D01*
X274661D01*
X337500Y296661D02*
X345374D01*
Y291739D02*
Y296661D01*
X337500Y291739D02*
X345374D01*
X337500D02*
Y296661D01*
X358826Y299739D02*
X366700D01*
X358826D02*
Y304661D01*
X366700D01*
Y299739D02*
Y304661D01*
X327739Y319200D02*
Y327074D01*
X332661D01*
Y319200D02*
Y327074D01*
X327739Y319200D02*
X332661D01*
X295363Y298259D02*
X303237D01*
Y293141D02*
Y298259D01*
X295363Y293141D02*
X303237D01*
X295363D02*
Y298259D01*
X301662Y296881D02*
Y298259D01*
X299694Y296881D02*
X301662D01*
X299694D02*
Y298259D01*
Y293141D02*
Y294519D01*
X301662D01*
Y293141D02*
Y294519D01*
X357826Y339739D02*
X365700D01*
X357826D02*
Y344661D01*
X365700D01*
Y339739D02*
Y344661D01*
X377826Y297739D02*
X385700D01*
X377826D02*
Y302661D01*
X385700D01*
Y297739D02*
Y302661D01*
X361739Y220700D02*
Y228574D01*
X366661D01*
Y220700D02*
Y228574D01*
X361739Y220700D02*
X366661D01*
Y236826D02*
Y244700D01*
X361739Y236826D02*
X366661D01*
X361739D02*
Y244700D01*
X366661D01*
X362200Y310700D02*
Y330700D01*
X346100D02*
X362200D01*
X346100Y310700D02*
Y330700D01*
Y310700D02*
X362200D01*
X365700Y349739D02*
Y354661D01*
X357826D02*
X365700D01*
X357826Y349739D02*
Y354661D01*
Y349739D02*
X365700D01*
X345700Y232839D02*
Y237761D01*
Y232839D02*
X353574D01*
Y237761D01*
X345700D02*
X353574D01*
X345700Y247739D02*
Y252661D01*
Y247739D02*
X353574D01*
Y252661D01*
X345700D02*
X353574D01*
X140126Y119039D02*
X148000D01*
X140126D02*
Y123961D01*
X148000D01*
Y119039D02*
Y123961D01*
X96961Y48326D02*
Y56200D01*
X92039Y48326D02*
X96961D01*
X92039D02*
Y56200D01*
X96961D01*
X100039Y27000D02*
Y34874D01*
X104961D01*
Y27000D02*
Y34874D01*
X100039Y27000D02*
X104961D01*
X119500Y65961D02*
X127374D01*
Y61039D02*
Y65961D01*
X119500Y61039D02*
X127374D01*
X119500D02*
Y65961D01*
X98559Y90463D02*
Y98337D01*
X93441Y90463D02*
X98559D01*
X93441D02*
Y98337D01*
X98559D01*
X97181Y92038D02*
X98559D01*
X97181D02*
Y94006D01*
X98559D01*
X93441D02*
X94819D01*
Y92038D02*
Y94006D01*
X93441Y92038D02*
X94819D01*
X140039Y28000D02*
Y35874D01*
X144961D01*
Y28000D02*
Y35874D01*
X140039Y28000D02*
X144961D01*
X98039Y8000D02*
Y15874D01*
X102961D01*
Y8000D02*
Y15874D01*
X98039Y8000D02*
X102961D01*
X21000Y31961D02*
X28874D01*
Y27039D02*
Y31961D01*
X21000Y27039D02*
X28874D01*
X21000D02*
Y31961D01*
X37126Y27039D02*
X45000D01*
X37126D02*
Y31961D01*
X45000D01*
Y27039D02*
Y31961D01*
X111000Y31500D02*
X131000D01*
Y47600D01*
X111000D02*
X131000D01*
X111000Y31500D02*
Y47600D01*
X150039Y28000D02*
X154961D01*
Y35874D01*
X150039D02*
X154961D01*
X150039Y28000D02*
Y35874D01*
X33139Y48000D02*
X38061D01*
X33139Y40126D02*
Y48000D01*
Y40126D02*
X38061D01*
Y48000D01*
X48039D02*
X52961D01*
X48039Y40126D02*
Y48000D01*
Y40126D02*
X52961D01*
Y48000D01*
X140126Y355339D02*
X148000D01*
X140126D02*
Y360261D01*
X148000D01*
Y355339D02*
Y360261D01*
X96961Y284626D02*
Y292500D01*
X92039Y284626D02*
X96961D01*
X92039D02*
Y292500D01*
X96961D01*
X100039Y263300D02*
Y271174D01*
X104961D01*
Y263300D02*
Y271174D01*
X100039Y263300D02*
X104961D01*
X119500Y302261D02*
X127374D01*
Y297339D02*
Y302261D01*
X119500Y297339D02*
X127374D01*
X119500D02*
Y302261D01*
X140039Y264300D02*
Y272174D01*
X144961D01*
Y264300D02*
Y272174D01*
X140039Y264300D02*
X144961D01*
X98039Y244300D02*
Y252174D01*
X102961D01*
Y244300D02*
Y252174D01*
X98039Y244300D02*
X102961D01*
X21000Y268261D02*
X28874D01*
Y263339D02*
Y268261D01*
X21000Y263339D02*
X28874D01*
X21000D02*
Y268261D01*
X37126Y263339D02*
X45000D01*
X37126D02*
Y268261D01*
X45000D01*
Y263339D02*
Y268261D01*
X150039Y264300D02*
X154961D01*
Y272174D01*
X150039D02*
X154961D01*
X150039Y264300D02*
Y272174D01*
X33139Y284300D02*
X38061D01*
X33139Y276426D02*
Y284300D01*
Y276426D02*
X38061D01*
Y284300D01*
X66200Y280000D02*
Y283999D01*
X64201D01*
X63534Y283332D01*
Y281999D01*
X64201Y281333D01*
X66200D01*
X64867D02*
X63534Y280000D01*
X59535D02*
X62201D01*
X59535Y282666D01*
Y283332D01*
X60202Y283999D01*
X61535D01*
X62201Y283332D01*
X58203D02*
X57536Y283999D01*
X56203D01*
X55537Y283332D01*
Y280666D01*
X56203Y280000D01*
X57536D01*
X58203Y280666D01*
Y283332D01*
X39600Y288500D02*
Y292499D01*
X37601D01*
X36934Y291832D01*
Y290499D01*
X37601Y289833D01*
X39600D01*
X38267D02*
X36934Y288500D01*
X35601D02*
X34268D01*
X34935D01*
Y292499D01*
X35601Y291832D01*
X29603Y292499D02*
X32269D01*
Y290499D01*
X30936Y291166D01*
X30270D01*
X29603Y290499D01*
Y289166D01*
X30270Y288500D01*
X31603D01*
X32269Y289166D01*
X155734Y258932D02*
X156401Y259599D01*
X157734D01*
X158400Y258932D01*
Y256266D01*
X157734Y255600D01*
X156401D01*
X155734Y256266D01*
X154401Y255600D02*
X153068D01*
X153735D01*
Y259599D01*
X154401Y258932D01*
X151069D02*
X150403Y259599D01*
X149070D01*
X148403Y258932D01*
Y258266D01*
X149070Y257599D01*
X149736D01*
X149070D01*
X148403Y256933D01*
Y256266D01*
X149070Y255600D01*
X150403D01*
X151069Y256266D01*
X58800Y261200D02*
Y265199D01*
X56801D01*
X56134Y264532D01*
Y263199D01*
X56801Y262533D01*
X58800D01*
X57467D02*
X56134Y261200D01*
X54801D02*
X53468D01*
X54135D01*
Y265199D01*
X54801Y264532D01*
X51469D02*
X50803Y265199D01*
X49470D01*
X48803Y264532D01*
Y263866D01*
X49470Y263199D01*
X48803Y262533D01*
Y261866D01*
X49470Y261200D01*
X50803D01*
X51469Y261866D01*
Y262533D01*
X50803Y263199D01*
X51469Y263866D01*
Y264532D01*
X50803Y263199D02*
X49470D01*
X30100Y270300D02*
Y274299D01*
X28101D01*
X27434Y273632D01*
Y272299D01*
X28101Y271633D01*
X30100D01*
X28767D02*
X27434Y270300D01*
X26101D02*
X24768D01*
X25435D01*
Y274299D01*
X26101Y273632D01*
X20103Y274299D02*
X21436Y273632D01*
X22769Y272299D01*
Y270966D01*
X22103Y270300D01*
X20770D01*
X20103Y270966D01*
Y271633D01*
X20770Y272299D01*
X22769D01*
X95700Y252300D02*
Y256299D01*
X93701D01*
X93034Y255632D01*
Y254299D01*
X93701Y253633D01*
X95700D01*
X94367D02*
X93034Y252300D01*
X91701Y256299D02*
X89035D01*
Y255632D01*
X91701Y252966D01*
Y252300D01*
X144400Y255600D02*
Y259599D01*
X142401D01*
X141734Y258932D01*
Y257599D01*
X142401Y256933D01*
X144400D01*
X143067D02*
X141734Y255600D01*
X138402D02*
Y259599D01*
X140401Y257599D01*
X137735D01*
X118634Y308032D02*
X119301Y308699D01*
X120633D01*
X121300Y308032D01*
Y305366D01*
X120633Y304700D01*
X119301D01*
X118634Y305366D01*
X117301Y308032D02*
X116635Y308699D01*
X115302D01*
X114636Y308032D01*
Y307366D01*
X115302Y306699D01*
X114636Y306033D01*
Y305366D01*
X115302Y304700D01*
X116635D01*
X117301Y305366D01*
Y306033D01*
X116635Y306699D01*
X117301Y307366D01*
Y308032D01*
X116635Y306699D02*
X115302D01*
X94734Y275932D02*
X95401Y276599D01*
X96734D01*
X97400Y275932D01*
Y273266D01*
X96734Y272600D01*
X95401D01*
X94734Y273266D01*
X90736Y276599D02*
X92068Y275932D01*
X93401Y274599D01*
Y273266D01*
X92735Y272600D01*
X91402D01*
X90736Y273266D01*
Y273933D01*
X91402Y274599D01*
X93401D01*
X102632Y288566D02*
X103299Y287899D01*
Y286566D01*
X102632Y285900D01*
X99966D01*
X99300Y286566D01*
Y287899D01*
X99966Y288566D01*
X99300Y291898D02*
X103299D01*
X101299Y289899D01*
Y292565D01*
X111434Y352532D02*
X112101Y353199D01*
X113434D01*
X114100Y352532D01*
Y349866D01*
X113434Y349200D01*
X112101D01*
X111434Y349866D01*
X110101Y352532D02*
X109435Y353199D01*
X108102D01*
X107436Y352532D01*
Y351866D01*
X108102Y351199D01*
X108768D01*
X108102D01*
X107436Y350533D01*
Y349866D01*
X108102Y349200D01*
X109435D01*
X110101Y349866D01*
X148834Y351132D02*
X149501Y351799D01*
X150833D01*
X151500Y351132D01*
Y348466D01*
X150833Y347800D01*
X149501D01*
X148834Y348466D01*
X144835Y347800D02*
X147501D01*
X144835Y350466D01*
Y351132D01*
X145502Y351799D01*
X146835D01*
X147501Y351132D01*
X66200Y43700D02*
Y47699D01*
X64201D01*
X63534Y47032D01*
Y45699D01*
X64201Y45033D01*
X66200D01*
X64867D02*
X63534Y43700D01*
X59535D02*
X62201D01*
X59535Y46366D01*
Y47032D01*
X60202Y47699D01*
X61535D01*
X62201Y47032D01*
X58203D02*
X57536Y47699D01*
X56203D01*
X55537Y47032D01*
Y44366D01*
X56203Y43700D01*
X57536D01*
X58203Y44366D01*
Y47032D01*
X39600Y52200D02*
Y56199D01*
X37601D01*
X36934Y55532D01*
Y54199D01*
X37601Y53533D01*
X39600D01*
X38267D02*
X36934Y52200D01*
X35601D02*
X34268D01*
X34935D01*
Y56199D01*
X35601Y55532D01*
X29603Y56199D02*
X32269D01*
Y54199D01*
X30936Y54866D01*
X30270D01*
X29603Y54199D01*
Y52866D01*
X30270Y52200D01*
X31603D01*
X32269Y52866D01*
X155734Y22632D02*
X156401Y23299D01*
X157734D01*
X158400Y22632D01*
Y19966D01*
X157734Y19300D01*
X156401D01*
X155734Y19966D01*
X154401Y19300D02*
X153068D01*
X153735D01*
Y23299D01*
X154401Y22632D01*
X151069D02*
X150403Y23299D01*
X149070D01*
X148403Y22632D01*
Y21966D01*
X149070Y21299D01*
X149736D01*
X149070D01*
X148403Y20633D01*
Y19966D01*
X149070Y19300D01*
X150403D01*
X151069Y19966D01*
X58800Y24900D02*
Y28899D01*
X56801D01*
X56134Y28232D01*
Y26899D01*
X56801Y26233D01*
X58800D01*
X57467D02*
X56134Y24900D01*
X54801D02*
X53468D01*
X54135D01*
Y28899D01*
X54801Y28232D01*
X51469D02*
X50803Y28899D01*
X49470D01*
X48803Y28232D01*
Y27566D01*
X49470Y26899D01*
X48803Y26233D01*
Y25567D01*
X49470Y24900D01*
X50803D01*
X51469Y25567D01*
Y26233D01*
X50803Y26899D01*
X51469Y27566D01*
Y28232D01*
X50803Y26899D02*
X49470D01*
X30100Y34000D02*
Y37999D01*
X28101D01*
X27434Y37332D01*
Y35999D01*
X28101Y35333D01*
X30100D01*
X28767D02*
X27434Y34000D01*
X26101D02*
X24768D01*
X25435D01*
Y37999D01*
X26101Y37332D01*
X20103Y37999D02*
X21436Y37332D01*
X22769Y35999D01*
Y34666D01*
X22103Y34000D01*
X20770D01*
X20103Y34666D01*
Y35333D01*
X20770Y35999D01*
X22769D01*
X95700Y16000D02*
Y19999D01*
X93701D01*
X93034Y19332D01*
Y17999D01*
X93701Y17333D01*
X95700D01*
X94367D02*
X93034Y16000D01*
X91701Y19999D02*
X89035D01*
Y19332D01*
X91701Y16667D01*
Y16000D01*
X144400Y19300D02*
Y23299D01*
X142401D01*
X141734Y22632D01*
Y21299D01*
X142401Y20633D01*
X144400D01*
X143067D02*
X141734Y19300D01*
X138402D02*
Y23299D01*
X140401Y21299D01*
X137735D01*
X118634Y71732D02*
X119301Y72399D01*
X120633D01*
X121300Y71732D01*
Y69066D01*
X120633Y68400D01*
X119301D01*
X118634Y69066D01*
X117301Y71732D02*
X116635Y72399D01*
X115302D01*
X114636Y71732D01*
Y71066D01*
X115302Y70399D01*
X114636Y69733D01*
Y69066D01*
X115302Y68400D01*
X116635D01*
X117301Y69066D01*
Y69733D01*
X116635Y70399D01*
X117301Y71066D01*
Y71732D01*
X116635Y70399D02*
X115302D01*
X94734Y39632D02*
X95401Y40299D01*
X96734D01*
X97400Y39632D01*
Y36966D01*
X96734Y36300D01*
X95401D01*
X94734Y36966D01*
X90736Y40299D02*
X92068Y39632D01*
X93401Y38299D01*
Y36966D01*
X92735Y36300D01*
X91402D01*
X90736Y36966D01*
Y37633D01*
X91402Y38299D01*
X93401D01*
X102632Y52266D02*
X103299Y51599D01*
Y50266D01*
X102632Y49600D01*
X99966D01*
X99300Y50266D01*
Y51599D01*
X99966Y52266D01*
X99300Y55598D02*
X103299D01*
X101299Y53599D01*
Y56265D01*
X111434Y116232D02*
X112101Y116899D01*
X113434D01*
X114100Y116232D01*
Y113567D01*
X113434Y112900D01*
X112101D01*
X111434Y113567D01*
X110101Y116232D02*
X109435Y116899D01*
X108102D01*
X107436Y116232D01*
Y115566D01*
X108102Y114899D01*
X108768D01*
X108102D01*
X107436Y114233D01*
Y113567D01*
X108102Y112900D01*
X109435D01*
X110101Y113567D01*
X148834Y114832D02*
X149501Y115499D01*
X150833D01*
X151500Y114832D01*
Y112167D01*
X150833Y111500D01*
X149501D01*
X148834Y112167D01*
X144835Y111500D02*
X147501D01*
X144835Y114166D01*
Y114832D01*
X145502Y115499D01*
X146835D01*
X147501Y114832D01*
X350000Y265900D02*
X346001D01*
Y263901D01*
X346668Y263234D01*
X348001D01*
X348667Y263901D01*
Y265900D01*
Y264567D02*
X350000Y263234D01*
Y259236D02*
Y261901D01*
X347334Y259236D01*
X346668D01*
X346001Y259902D01*
Y261235D01*
X346668Y261901D01*
Y257903D02*
X346001Y257236D01*
Y255903D01*
X346668Y255237D01*
X349334D01*
X350000Y255903D01*
Y257236D01*
X349334Y257903D01*
X346668D01*
X341500Y239300D02*
X337501D01*
Y237301D01*
X338168Y236634D01*
X339501D01*
X340167Y237301D01*
Y239300D01*
Y237967D02*
X341500Y236634D01*
Y235301D02*
Y233968D01*
Y234635D01*
X337501D01*
X338168Y235301D01*
X337501Y229303D02*
Y231969D01*
X339501D01*
X338834Y230636D01*
Y229970D01*
X339501Y229303D01*
X340834D01*
X341500Y229970D01*
Y231303D01*
X340834Y231969D01*
X371068Y355434D02*
X370401Y356101D01*
Y357434D01*
X371068Y358100D01*
X373734D01*
X374400Y357434D01*
Y356101D01*
X373734Y355434D01*
X374400Y354101D02*
Y352768D01*
Y353435D01*
X370401D01*
X371068Y354101D01*
Y350769D02*
X370401Y350103D01*
Y348770D01*
X371068Y348103D01*
X371734D01*
X372401Y348770D01*
Y349436D01*
Y348770D01*
X373067Y348103D01*
X373734D01*
X374400Y348770D01*
Y350103D01*
X373734Y350769D01*
X368800Y258500D02*
X364801D01*
Y256501D01*
X365468Y255834D01*
X366801D01*
X367467Y256501D01*
Y258500D01*
Y257167D02*
X368800Y255834D01*
Y254501D02*
Y253168D01*
Y253835D01*
X364801D01*
X365468Y254501D01*
Y251169D02*
X364801Y250503D01*
Y249170D01*
X365468Y248503D01*
X366134D01*
X366801Y249170D01*
X367467Y248503D01*
X368134D01*
X368800Y249170D01*
Y250503D01*
X368134Y251169D01*
X367467D01*
X366801Y250503D01*
X366134Y251169D01*
X365468D01*
X366801Y250503D02*
Y249170D01*
X359700Y229800D02*
X355701D01*
Y227801D01*
X356368Y227134D01*
X357701D01*
X358367Y227801D01*
Y229800D01*
Y228467D02*
X359700Y227134D01*
Y225801D02*
Y224468D01*
Y225135D01*
X355701D01*
X356368Y225801D01*
X355701Y219803D02*
X356368Y221136D01*
X357701Y222469D01*
X359034D01*
X359700Y221803D01*
Y220470D01*
X359034Y219803D01*
X358367D01*
X357701Y220470D01*
Y222469D01*
X377700Y295400D02*
X373701D01*
Y293401D01*
X374368Y292734D01*
X375701D01*
X376367Y293401D01*
Y295400D01*
Y294067D02*
X377700Y292734D01*
X373701Y291401D02*
Y288736D01*
X374368D01*
X377034Y291401D01*
X377700D01*
X374400Y344100D02*
X370401D01*
Y342101D01*
X371068Y341434D01*
X372401D01*
X373067Y342101D01*
Y344100D01*
Y342767D02*
X374400Y341434D01*
Y338102D02*
X370401D01*
X372401Y340101D01*
Y337436D01*
X321968Y318334D02*
X321301Y319001D01*
Y320334D01*
X321968Y321000D01*
X324634D01*
X325300Y320334D01*
Y319001D01*
X324634Y318334D01*
X321968Y317001D02*
X321301Y316335D01*
Y315002D01*
X321968Y314335D01*
X322634D01*
X323301Y315002D01*
X323967Y314335D01*
X324634D01*
X325300Y315002D01*
Y316335D01*
X324634Y317001D01*
X323967D01*
X323301Y316335D01*
X322634Y317001D01*
X321968D01*
X323301Y316335D02*
Y315002D01*
X354068Y294434D02*
X353401Y295101D01*
Y296434D01*
X354068Y297100D01*
X356734D01*
X357400Y296434D01*
Y295101D01*
X356734Y294434D01*
X353401Y290436D02*
X354068Y291768D01*
X355401Y293101D01*
X356734D01*
X357400Y292435D01*
Y291102D01*
X356734Y290436D01*
X356067D01*
X355401Y291102D01*
Y293101D01*
X341434Y302332D02*
X342101Y302999D01*
X343434D01*
X344100Y302332D01*
Y299666D01*
X343434Y299000D01*
X342101D01*
X341434Y299666D01*
X338102Y299000D02*
Y302999D01*
X340101Y300999D01*
X337436D01*
X277468Y311134D02*
X276801Y311801D01*
Y313134D01*
X277468Y313800D01*
X280134D01*
X280800Y313134D01*
Y311801D01*
X280134Y311134D01*
X277468Y309801D02*
X276801Y309135D01*
Y307802D01*
X277468Y307136D01*
X278134D01*
X278801Y307802D01*
Y308468D01*
Y307802D01*
X279467Y307136D01*
X280134D01*
X280800Y307802D01*
Y309135D01*
X280134Y309801D01*
X278868Y348534D02*
X278201Y349201D01*
Y350534D01*
X278868Y351200D01*
X281534D01*
X282200Y350534D01*
Y349201D01*
X281534Y348534D01*
X282200Y344535D02*
Y347201D01*
X279534Y344535D01*
X278868D01*
X278201Y345202D01*
Y346535D01*
X278868Y347201D01*
D86*
X122400Y278698D02*
Y274533D01*
X121567Y273700D01*
X119901D01*
X119068Y274533D01*
Y278698D01*
X117402Y273700D02*
X115735D01*
X116569D01*
Y278698D01*
X117402Y277865D01*
X91400Y238300D02*
Y243298D01*
X88901D01*
X88068Y242465D01*
Y240799D01*
X88901Y239966D01*
X91400D01*
X86402Y243298D02*
X84736D01*
X85569D01*
Y238300D01*
X86402D01*
X84736D01*
X82236D02*
Y243298D01*
X79737D01*
X78904Y242465D01*
Y240799D01*
X79737Y239966D01*
X82236D01*
X80570D02*
X78904Y238300D01*
X77238D02*
X75572D01*
X76405D01*
Y243298D01*
X77238Y242465D01*
X157900Y237500D02*
Y242498D01*
X156234Y240832D01*
X154568Y242498D01*
Y237500D01*
X152902D02*
X151235D01*
X152069D01*
Y240832D01*
X152902D01*
X145404D02*
X147903D01*
X148736Y239999D01*
Y238333D01*
X147903Y237500D01*
X145404D01*
X143738Y240832D02*
Y237500D01*
Y239166D01*
X142905Y239999D01*
X142072Y240832D01*
X141239D01*
X137907Y237500D02*
X136240D01*
X135407Y238333D01*
Y239999D01*
X136240Y240832D01*
X137907D01*
X138740Y239999D01*
Y238333D01*
X137907Y237500D01*
X133741D02*
X132075D01*
X132908D01*
Y242498D01*
X133741Y241665D01*
X122400Y42398D02*
Y38233D01*
X121567Y37400D01*
X119901D01*
X119068Y38233D01*
Y42398D01*
X117402Y37400D02*
X115735D01*
X116569D01*
Y42398D01*
X117402Y41565D01*
X157900Y1200D02*
Y6198D01*
X156234Y4532D01*
X154568Y6198D01*
Y1200D01*
X152902D02*
X151235D01*
X152069D01*
Y4532D01*
X152902D01*
X145404D02*
X147903D01*
X148736Y3699D01*
Y2033D01*
X147903Y1200D01*
X145404D01*
X143738Y4532D02*
Y1200D01*
Y2866D01*
X142905Y3699D01*
X142072Y4532D01*
X141239D01*
X137907Y1200D02*
X136240D01*
X135407Y2033D01*
Y3699D01*
X136240Y4532D01*
X137907D01*
X138740Y3699D01*
Y2033D01*
X137907Y1200D01*
X133741D02*
X132075D01*
X132908D01*
Y6198D01*
X133741Y5365D01*
X351302Y322100D02*
X355467D01*
X356300Y321267D01*
Y319601D01*
X355467Y318768D01*
X351302D01*
X356300Y317102D02*
Y315436D01*
Y316269D01*
X351302D01*
X352135Y317102D01*
X391700Y291100D02*
X386702D01*
Y288601D01*
X387535Y287768D01*
X389201D01*
X390034Y288601D01*
Y291100D01*
X386702Y286102D02*
Y284436D01*
Y285269D01*
X391700D01*
Y286102D01*
Y284436D01*
Y281936D02*
X386702D01*
Y279437D01*
X387535Y278604D01*
X389201D01*
X390034Y279437D01*
Y281936D01*
Y280270D02*
X391700Y278604D01*
Y276938D02*
Y275272D01*
Y276105D01*
X386702D01*
X387535Y276938D01*
X392500Y357600D02*
X387502D01*
X389168Y355934D01*
X387502Y354268D01*
X392500D01*
Y352602D02*
Y350936D01*
Y351769D01*
X389168D01*
Y352602D01*
Y345104D02*
Y347603D01*
X390001Y348436D01*
X391667D01*
X392500Y347603D01*
Y345104D01*
X389168Y343438D02*
X392500D01*
X390834D01*
X390001Y342605D01*
X389168Y341772D01*
Y340939D01*
X392500Y337607D02*
Y335940D01*
X391667Y335107D01*
X390001D01*
X389168Y335940D01*
Y337607D01*
X390001Y338439D01*
X391667D01*
X392500Y337607D01*
Y333441D02*
Y331775D01*
Y332608D01*
X387502D01*
X388335Y333441D01*
X91400Y2000D02*
Y6998D01*
X88901D01*
X88068Y6165D01*
Y4499D01*
X88901Y3666D01*
X91400D01*
X86402Y6998D02*
X84736D01*
X85569D01*
Y2000D01*
X86402D01*
X84736D01*
X82236D02*
Y6998D01*
X79737D01*
X78904Y6165D01*
Y4499D01*
X79737Y3666D01*
X82236D01*
X80570D02*
X78904Y2000D01*
X77238D02*
X75572D01*
X76405D01*
Y6998D01*
X77238Y6165D01*
D144*
X130135Y273448D02*
G03*
X130135Y273448I-1438J0D01*
G01*
X357990Y328397D02*
G03*
X357990Y328397I-1438J0D01*
G01*
X130135Y37148D02*
G03*
X130135Y37148I-1438J0D01*
G01*
D145*
X-16346Y313582D02*
Y329330D01*
X189D01*
Y336417D01*
X6095Y322500D02*
Y357676D01*
X-16346Y336417D02*
X189D01*
X-16346D02*
Y343503D01*
X189D01*
Y350590D01*
X-16346D02*
X189D01*
X-16346D02*
Y357676D01*
X12000D01*
X-16346Y77282D02*
Y93030D01*
X189D01*
Y100117D01*
X6095Y86200D02*
Y121376D01*
X-16346Y100117D02*
X189D01*
X-16346D02*
Y107203D01*
X189D01*
Y114290D01*
X-16346D02*
X189D01*
X-16346D02*
Y121376D01*
X12000D01*
D146*
Y360826D02*
X67118D01*
X12000Y313582D02*
X67118D01*
X12000D02*
Y360826D01*
X67118Y313582D02*
Y360826D01*
X269174Y211700D02*
Y266818D01*
X316418Y211700D02*
Y266818D01*
X269174Y211700D02*
X316418D01*
X269174Y266818D02*
X316418D01*
X12000Y124526D02*
X67118D01*
X12000Y77282D02*
X67118D01*
X12000D02*
Y124526D01*
X67118Y77282D02*
Y124526D01*
D147*
X142772Y376703D02*
D03*
Y140403D02*
D03*
D148*
X253296Y342472D02*
D03*
M02*
