%FSLAX25Y25*%
%MOIN*%
G70*
G01*
G75*
G04 Layer_Color=16711935*
%ADD10R,0.06299X0.13386*%
%ADD11R,0.01772X0.06299*%
%ADD12R,0.05512X0.01654*%
%ADD13R,0.04724X0.04724*%
%ADD14R,0.09000X0.15000*%
%ADD15R,0.08465X0.05000*%
%ADD16R,0.05906X0.03937*%
%ADD17R,0.03937X0.05906*%
%ADD18R,0.07874X0.11024*%
%ADD19R,0.05906X0.15748*%
%ADD20R,0.03500X0.05000*%
%ADD21R,0.07874X0.15748*%
%ADD22R,0.06299X0.09449*%
%ADD23R,0.05512X0.07087*%
%ADD24R,0.13386X0.06299*%
%ADD25R,0.06299X0.01772*%
%ADD26R,0.01654X0.05512*%
%ADD27R,0.04724X0.04724*%
%ADD28R,0.15000X0.09000*%
%ADD29R,0.05000X0.08465*%
%ADD30R,0.11024X0.07874*%
%ADD31R,0.15748X0.05906*%
%ADD32R,0.05000X0.03500*%
%ADD33R,0.15748X0.07874*%
%ADD34R,0.09449X0.06299*%
%ADD35R,0.07087X0.05512*%
%ADD36R,0.06600X0.01700*%
%ADD37R,0.15000X0.28000*%
%ADD38R,0.28000X0.15000*%
%ADD39R,0.03300X0.03150*%
%ADD40C,0.02500*%
%ADD41C,0.02000*%
%ADD42C,0.03000*%
%ADD43C,0.01500*%
%ADD44C,0.04000*%
%ADD45C,0.01000*%
%ADD46C,0.01800*%
%ADD47C,0.05000*%
%ADD48R,0.01600X0.04800*%
%ADD49R,0.34200X0.03200*%
%ADD50R,0.04800X0.01600*%
%ADD51R,0.03200X0.34200*%
%ADD52R,0.14413X0.28346*%
%ADD53R,0.28346X0.14413*%
%ADD54R,0.27700X0.02100*%
%ADD55R,0.01900X0.03800*%
%ADD56R,0.35700X0.03400*%
%ADD57R,0.02100X0.27700*%
%ADD58R,0.03800X0.01900*%
%ADD59R,0.03400X0.35700*%
%ADD60R,0.08200X0.15600*%
%ADD61C,0.15800*%
%ADD62R,0.05118X0.07874*%
%ADD63R,0.05512X0.07874*%
%ADD64C,0.07874*%
%ADD65R,0.07874X0.05118*%
%ADD66R,0.07874X0.05512*%
%ADD67C,0.07087*%
%ADD68C,0.05000*%
%ADD69C,0.04000*%
%ADD70C,0.06000*%
%ADD71C,0.03937*%
%ADD72R,0.04724X0.11024*%
%ADD73R,0.09449X0.04724*%
%ADD74R,0.03000X0.10000*%
%ADD75R,0.10000X0.20000*%
%ADD76R,0.06299X0.05512*%
%ADD77R,0.09843X0.14961*%
%ADD78R,0.11024X0.04724*%
%ADD79R,0.04724X0.09449*%
%ADD80R,0.10000X0.03000*%
%ADD81R,0.20000X0.10000*%
%ADD82R,0.05512X0.06299*%
%ADD83R,0.14961X0.09843*%
%ADD84R,0.03150X0.04724*%
%ADD85R,0.26000X0.28400*%
%ADD86R,0.28400X0.26000*%
%ADD87C,0.03500*%
%ADD88R,0.26400X0.28346*%
%ADD89R,0.28346X0.26400*%
%ADD90R,0.21028X0.12517*%
%ADD91R,0.12517X0.21028*%
%ADD92R,0.20200X0.15600*%
%ADD93C,0.00200*%
%ADD94C,0.00591*%
%ADD95C,0.00394*%
%ADD96C,0.00787*%
%ADD97C,0.00500*%
%ADD98C,0.00050*%
%ADD99C,0.00800*%
%ADD100R,0.02300X0.06299*%
%ADD101R,0.06299X0.02300*%
%ADD102R,0.12100X0.11300*%
%ADD103R,0.06299X0.02100*%
%ADD104R,0.11300X0.12100*%
%ADD105R,0.02100X0.06299*%
%ADD106R,0.07099X0.14186*%
%ADD107R,0.02572X0.07099*%
%ADD108R,0.06312X0.02454*%
%ADD109R,0.05524X0.05524*%
%ADD110R,0.09800X0.15800*%
%ADD111R,0.09265X0.05800*%
%ADD112R,0.06706X0.04737*%
%ADD113R,0.04737X0.06706*%
%ADD114R,0.08674X0.11824*%
%ADD115R,0.06706X0.16548*%
%ADD116R,0.04300X0.05800*%
%ADD117R,0.08674X0.16548*%
%ADD118R,0.07099X0.10249*%
%ADD119R,0.06312X0.07887*%
%ADD120R,0.14186X0.07099*%
%ADD121R,0.07099X0.02572*%
%ADD122R,0.02454X0.06312*%
%ADD123R,0.05524X0.05524*%
%ADD124R,0.15800X0.09800*%
%ADD125R,0.05800X0.09265*%
%ADD126R,0.11824X0.08674*%
%ADD127R,0.16548X0.06706*%
%ADD128R,0.05800X0.04300*%
%ADD129R,0.16548X0.08674*%
%ADD130R,0.10249X0.07099*%
%ADD131R,0.07887X0.06312*%
%ADD132R,0.07400X0.02500*%
%ADD133R,0.15800X0.28800*%
%ADD134R,0.28800X0.15800*%
%ADD135R,0.04100X0.03950*%
%ADD136C,0.16600*%
%ADD137R,0.05918X0.08674*%
%ADD138R,0.06312X0.08674*%
%ADD139C,0.08674*%
%ADD140R,0.08674X0.05918*%
%ADD141R,0.08674X0.06312*%
%ADD142C,0.07887*%
%ADD143C,0.05800*%
%ADD144C,0.04800*%
%ADD145C,0.06800*%
%ADD146C,0.04737*%
%ADD147R,0.05524X0.11824*%
%ADD148R,0.10249X0.05524*%
%ADD149R,0.03800X0.10800*%
%ADD150R,0.10800X0.20800*%
%ADD151R,0.07099X0.06312*%
%ADD152R,0.10642X0.15761*%
%ADD153R,0.11824X0.05524*%
%ADD154R,0.05524X0.10249*%
%ADD155R,0.10800X0.03800*%
%ADD156R,0.20800X0.10800*%
%ADD157R,0.06312X0.07099*%
%ADD158R,0.15761X0.10642*%
%ADD159R,0.03950X0.05524*%
%ADD160R,0.26800X0.29200*%
%ADD161R,0.29200X0.26800*%
D45*
X294500Y-620500D02*
Y-226500D01*
Y-620500D02*
X688500D01*
Y-226500D01*
X294500D02*
X688500D01*
X492600Y-368400D02*
Y-232400D01*
X298600D02*
X492600D01*
X298600Y-368400D02*
X492600D01*
X298600D02*
Y-232400D01*
Y-518400D02*
Y-382400D01*
Y-518400D02*
X492600D01*
X298600Y-382400D02*
X492600D01*
Y-518400D02*
Y-382400D01*
X544400Y-231400D02*
X680400D01*
X544400Y-425400D02*
Y-231400D01*
X680400Y-425400D02*
Y-231400D01*
X544400Y-425400D02*
X680400D01*
X304500Y-534000D02*
X364500D01*
X304500Y-612000D02*
Y-534000D01*
Y-612000D02*
X364500D01*
Y-534000D01*
X432500Y-612000D02*
Y-534000D01*
X372500Y-612000D02*
X432500D01*
X372500D02*
Y-534000D01*
X432500D01*
X508500D02*
X568500D01*
X508500Y-612000D02*
Y-534000D01*
Y-612000D02*
X568500D01*
Y-534000D01*
X500500Y-612000D02*
Y-534000D01*
X440500Y-612000D02*
X500500D01*
X440500D02*
Y-534000D01*
X500500D01*
X635500Y-612000D02*
Y-534000D01*
X575500Y-612000D02*
X635500D01*
X575500D02*
Y-534000D01*
X635500D01*
X624000Y-442500D02*
X684000D01*
X624000Y-520500D02*
Y-442500D01*
Y-520500D02*
X684000D01*
Y-442500D01*
X496500D02*
X556500D01*
X496500Y-520500D02*
Y-442500D01*
Y-520500D02*
X556500D01*
Y-442500D01*
X620500Y-520500D02*
Y-442500D01*
X560500Y-520500D02*
X620500D01*
X560500D02*
Y-442500D01*
X620500D01*
X0Y0D02*
Y393701D01*
Y0D02*
X393701D01*
Y393701D01*
X0D02*
X393701D01*
X194000Y236300D02*
Y393700D01*
X0D02*
X194000D01*
X0Y236300D02*
X194000D01*
X0D02*
Y393700D01*
X194000Y0D02*
Y157400D01*
X0D02*
X194000D01*
X0Y0D02*
X194000D01*
X0D02*
Y157400D01*
X236300Y393700D02*
X393700D01*
X236300Y199700D02*
Y393700D01*
X393700Y199700D02*
Y393700D01*
X236300Y199700D02*
X393700D01*
X338700Y0D02*
Y87500D01*
Y0D02*
X393700D01*
X338700Y87500D02*
X393700D01*
Y0D02*
Y87500D01*
X271300Y0D02*
Y87500D01*
Y0D02*
X326300D01*
X271300Y87500D02*
X326300D01*
Y0D02*
Y87500D01*
X203300Y0D02*
Y87500D01*
Y0D02*
X258300D01*
X203300Y87500D02*
X258300D01*
Y0D02*
Y87500D01*
Y101500D02*
Y189000D01*
X203300D02*
X258300D01*
X203300Y101500D02*
X258300D01*
X203300D02*
Y189000D01*
X326300Y101500D02*
Y189000D01*
X271300D02*
X326300D01*
X271300Y101500D02*
X326300D01*
X271300D02*
Y189000D01*
X393700Y101500D02*
Y189000D01*
X338700D02*
X393700D01*
X338700Y101500D02*
X393700D01*
X338700D02*
Y189000D01*
D112*
X406268Y-355368D02*
D03*
Y-346368D02*
D03*
Y-505368D02*
D03*
Y-496368D02*
D03*
X651368Y-351732D02*
D03*
Y-342732D02*
D03*
X649368Y-302232D02*
D03*
Y-293232D02*
D03*
X661368Y-293732D02*
D03*
Y-302732D02*
D03*
X661400Y-269400D02*
D03*
Y-278400D02*
D03*
X649368Y-284732D02*
D03*
Y-275732D02*
D03*
X588500Y-306400D02*
D03*
Y-297400D02*
D03*
X50500Y275800D02*
D03*
Y284800D02*
D03*
X35600Y275800D02*
D03*
Y284800D02*
D03*
X152500Y272800D02*
D03*
Y263800D02*
D03*
X100500Y243800D02*
D03*
Y252800D02*
D03*
X142500Y263800D02*
D03*
Y272800D02*
D03*
X102500Y262800D02*
D03*
Y271800D02*
D03*
X94500Y293000D02*
D03*
Y284000D02*
D03*
X50500Y39500D02*
D03*
Y48500D02*
D03*
X35600Y39500D02*
D03*
Y48500D02*
D03*
X152500Y36500D02*
D03*
Y27500D02*
D03*
X100500Y7500D02*
D03*
Y16500D02*
D03*
X142500Y27500D02*
D03*
Y36500D02*
D03*
X102500Y26500D02*
D03*
Y35500D02*
D03*
X94500Y56700D02*
D03*
Y47700D02*
D03*
X364200Y245200D02*
D03*
Y236200D02*
D03*
Y220200D02*
D03*
Y229200D02*
D03*
X330200Y318700D02*
D03*
Y327700D02*
D03*
X272200Y348200D02*
D03*
Y339200D02*
D03*
D113*
X372268Y-339368D02*
D03*
X381268D02*
D03*
X421768Y-337368D02*
D03*
X430768D02*
D03*
X430268Y-349368D02*
D03*
X421268D02*
D03*
X454600Y-349400D02*
D03*
X445600D02*
D03*
X439268Y-337368D02*
D03*
X448268D02*
D03*
X417600Y-276500D02*
D03*
X426600D02*
D03*
X417600Y-426500D02*
D03*
X426600D02*
D03*
X439268Y-487368D02*
D03*
X448268D02*
D03*
X454600Y-499400D02*
D03*
X445600D02*
D03*
X430268Y-499368D02*
D03*
X421268D02*
D03*
X421768Y-487368D02*
D03*
X430768D02*
D03*
X372268Y-489368D02*
D03*
X381268D02*
D03*
X667368Y-317732D02*
D03*
X658368D02*
D03*
X45500Y265800D02*
D03*
X36500D02*
D03*
X20500D02*
D03*
X29500D02*
D03*
X119000Y299800D02*
D03*
X128000D02*
D03*
X148500Y357800D02*
D03*
X139500D02*
D03*
X45500Y29500D02*
D03*
X36500D02*
D03*
X20500D02*
D03*
X29500D02*
D03*
X119000Y63500D02*
D03*
X128000D02*
D03*
X148500Y121500D02*
D03*
X139500D02*
D03*
X354200Y250200D02*
D03*
X345200D02*
D03*
X354200Y235300D02*
D03*
X345200D02*
D03*
X357200Y352200D02*
D03*
X366200D02*
D03*
X386200Y300200D02*
D03*
X377200D02*
D03*
X366200Y342200D02*
D03*
X357200D02*
D03*
X367200Y302200D02*
D03*
X358200D02*
D03*
X337000Y294200D02*
D03*
X346000D02*
D03*
D115*
X388600Y-355400D02*
D03*
X368600D02*
D03*
X388600Y-505400D02*
D03*
X368600D02*
D03*
X70500Y247800D02*
D03*
X50500D02*
D03*
X70500Y11500D02*
D03*
X50500D02*
D03*
D119*
X410835Y-337368D02*
D03*
X396268D02*
D03*
X410835Y-487368D02*
D03*
X396268D02*
D03*
X335933Y-563500D02*
D03*
X350500D02*
D03*
X403933D02*
D03*
X418500D02*
D03*
X539933D02*
D03*
X554500D02*
D03*
X471933D02*
D03*
X486500D02*
D03*
X606933D02*
D03*
X621500D02*
D03*
X655433Y-472000D02*
D03*
X670000D02*
D03*
X527933D02*
D03*
X542500D02*
D03*
X591933D02*
D03*
X606500D02*
D03*
D127*
X667400Y-335400D02*
D03*
Y-355400D02*
D03*
X382200Y270200D02*
D03*
Y250200D02*
D03*
D131*
X649368Y-313165D02*
D03*
Y-327732D02*
D03*
D136*
X480900Y-243400D02*
D03*
X309600Y-357400D02*
D03*
Y-507400D02*
D03*
X480900Y-393400D02*
D03*
X555400Y-243100D02*
D03*
X669400Y-414400D02*
D03*
X182300Y382700D02*
D03*
X28500Y249800D02*
D03*
X182300Y146400D02*
D03*
X28500Y13500D02*
D03*
X247300Y382000D02*
D03*
X380200Y228200D02*
D03*
X383800Y29000D02*
D03*
X316400D02*
D03*
X248400D02*
D03*
Y130500D02*
D03*
X316400D02*
D03*
X383800D02*
D03*
D137*
X381053Y-252613D02*
D03*
X400147D02*
D03*
X381053Y-402613D02*
D03*
X400147D02*
D03*
X82453Y373487D02*
D03*
X101547D02*
D03*
X82453Y137187D02*
D03*
X101547D02*
D03*
D138*
X401328Y-240684D02*
D03*
X379872D02*
D03*
X401328Y-390684D02*
D03*
X379872D02*
D03*
X102728Y385417D02*
D03*
X81272D02*
D03*
X102728Y149117D02*
D03*
X81272D02*
D03*
D139*
X484600Y-290100D02*
D03*
X446600Y-361400D02*
D03*
X480532Y-361432D02*
D03*
X414600Y-239400D02*
D03*
X484600Y-275400D02*
D03*
X308600Y-239400D02*
D03*
X430600Y-361400D02*
D03*
X420600D02*
D03*
X328600Y-343400D02*
D03*
X338600D02*
D03*
X348600D02*
D03*
X358600D02*
D03*
X472600Y-315400D02*
D03*
Y-325400D02*
D03*
Y-335400D02*
D03*
Y-345400D02*
D03*
Y-305400D02*
D03*
Y-465400D02*
D03*
Y-475400D02*
D03*
Y-485400D02*
D03*
Y-495400D02*
D03*
Y-455400D02*
D03*
X328600Y-493400D02*
D03*
X338600D02*
D03*
X348600D02*
D03*
X358600D02*
D03*
X430600Y-511400D02*
D03*
X420600D02*
D03*
X308600Y-389400D02*
D03*
X484600Y-425400D02*
D03*
X414600Y-389400D02*
D03*
X480532Y-511432D02*
D03*
X446600Y-511400D02*
D03*
X484600Y-440100D02*
D03*
X602100Y-239400D02*
D03*
X673400Y-277400D02*
D03*
X673432Y-243468D02*
D03*
X551400Y-309400D02*
D03*
X587400Y-239400D02*
D03*
X551400Y-415400D02*
D03*
X673400Y-293400D02*
D03*
Y-303400D02*
D03*
X655400Y-395400D02*
D03*
Y-385400D02*
D03*
Y-375400D02*
D03*
Y-365400D02*
D03*
X627400Y-251400D02*
D03*
X637400D02*
D03*
X647400D02*
D03*
X657400D02*
D03*
X617400D02*
D03*
X314500Y-544000D02*
D03*
X354500D02*
D03*
X344500D02*
D03*
X334500D02*
D03*
X324500D02*
D03*
X382500D02*
D03*
X422500D02*
D03*
X412500D02*
D03*
X402500D02*
D03*
X392500D02*
D03*
X518500D02*
D03*
X558500D02*
D03*
X548500D02*
D03*
X538500D02*
D03*
X528500D02*
D03*
X450500D02*
D03*
X490500D02*
D03*
X480500D02*
D03*
X470500D02*
D03*
X460500D02*
D03*
X585500D02*
D03*
X625500D02*
D03*
X615500D02*
D03*
X605500D02*
D03*
X595500D02*
D03*
X634000Y-452500D02*
D03*
X674000D02*
D03*
X664000D02*
D03*
X654000D02*
D03*
X644000D02*
D03*
X506500D02*
D03*
X546500D02*
D03*
X536500D02*
D03*
X526500D02*
D03*
X516500D02*
D03*
X570500D02*
D03*
X610500D02*
D03*
X600500D02*
D03*
X590500D02*
D03*
X580500D02*
D03*
X170500Y275800D02*
D03*
Y265800D02*
D03*
Y255800D02*
D03*
Y245800D02*
D03*
Y285800D02*
D03*
X186500Y302000D02*
D03*
X138500D02*
D03*
X152500D02*
D03*
X120500Y387800D02*
D03*
X186500Y319800D02*
D03*
X10000Y386700D02*
D03*
X127100Y245200D02*
D03*
X116300D02*
D03*
X8500Y275800D02*
D03*
Y265800D02*
D03*
Y255800D02*
D03*
Y245800D02*
D03*
X184500Y275800D02*
D03*
Y265800D02*
D03*
Y255800D02*
D03*
Y245800D02*
D03*
Y285800D02*
D03*
X170500Y39500D02*
D03*
Y29500D02*
D03*
Y19500D02*
D03*
Y9500D02*
D03*
Y49500D02*
D03*
X186500Y65700D02*
D03*
X138500D02*
D03*
X152500D02*
D03*
X120500Y151500D02*
D03*
X186500Y83500D02*
D03*
X10000Y150400D02*
D03*
X127100Y8900D02*
D03*
X116300D02*
D03*
X8500Y39500D02*
D03*
Y29500D02*
D03*
Y19500D02*
D03*
Y9500D02*
D03*
X184500Y39500D02*
D03*
Y29500D02*
D03*
Y19500D02*
D03*
Y9500D02*
D03*
Y49500D02*
D03*
X354200Y370200D02*
D03*
X364200D02*
D03*
X374200D02*
D03*
X384200D02*
D03*
X344200D02*
D03*
X328000Y386200D02*
D03*
Y338200D02*
D03*
Y352200D02*
D03*
X242200Y320200D02*
D03*
X310200Y386200D02*
D03*
X243300Y209700D02*
D03*
X384800Y326800D02*
D03*
Y316000D02*
D03*
X354200Y208200D02*
D03*
X364200D02*
D03*
X374200D02*
D03*
X384200D02*
D03*
X354200Y384200D02*
D03*
X364200D02*
D03*
X374200D02*
D03*
X384200D02*
D03*
X344200D02*
D03*
X356200Y80500D02*
D03*
X366200D02*
D03*
X376200D02*
D03*
X386200D02*
D03*
X346200D02*
D03*
X288800D02*
D03*
X298800D02*
D03*
X308800D02*
D03*
X318800D02*
D03*
X278800D02*
D03*
X220800D02*
D03*
X230800D02*
D03*
X240800D02*
D03*
X250800D02*
D03*
X210800D02*
D03*
X220800Y182000D02*
D03*
X230800D02*
D03*
X240800D02*
D03*
X250800D02*
D03*
X210800D02*
D03*
X288800D02*
D03*
X298800D02*
D03*
X308800D02*
D03*
X318800D02*
D03*
X278800D02*
D03*
X356200D02*
D03*
X366200D02*
D03*
X376200D02*
D03*
X386200D02*
D03*
X346200D02*
D03*
D140*
X564613Y-342947D02*
D03*
Y-323853D02*
D03*
X256513Y282153D02*
D03*
Y301247D02*
D03*
D141*
X552683Y-322672D02*
D03*
Y-344128D02*
D03*
X244584Y302428D02*
D03*
Y280972D02*
D03*
D142*
X130500Y339800D02*
D03*
X120500D02*
D03*
X130500Y103500D02*
D03*
X120500D02*
D03*
X290200Y330200D02*
D03*
Y320200D02*
D03*
D143*
X357900Y-331000D02*
D03*
X450300Y-327900D02*
D03*
X408200Y-276500D02*
D03*
X384100Y-313900D02*
D03*
X452600Y-247500D02*
D03*
X336700Y-290900D02*
D03*
X405000Y-268100D02*
D03*
X319900Y-244100D02*
D03*
Y-394100D02*
D03*
X405000Y-418100D02*
D03*
X336700Y-440900D02*
D03*
X452600Y-397500D02*
D03*
X384100Y-463900D02*
D03*
X408200Y-426500D02*
D03*
X450300Y-477900D02*
D03*
X357900Y-481000D02*
D03*
X643000Y-366100D02*
D03*
X639900Y-273700D02*
D03*
X588500Y-315800D02*
D03*
X625900Y-339900D02*
D03*
X559500Y-271400D02*
D03*
X602900Y-387300D02*
D03*
X580100Y-319000D02*
D03*
X556100Y-404100D02*
D03*
X309900Y-568700D02*
D03*
X377900D02*
D03*
X513900D02*
D03*
X445900D02*
D03*
X580900D02*
D03*
X629400Y-477200D02*
D03*
X501900D02*
D03*
X565900D02*
D03*
X105500Y309800D02*
D03*
X130700Y307800D02*
D03*
X91200Y301200D02*
D03*
X104900Y279500D02*
D03*
X65500Y288700D02*
D03*
X26500Y355500D02*
D03*
X85700Y330500D02*
D03*
X155600Y365800D02*
D03*
X154000Y378600D02*
D03*
X38100Y335200D02*
D03*
X106400Y358000D02*
D03*
X144100Y245200D02*
D03*
X151400Y330200D02*
D03*
X144100Y285100D02*
D03*
X4300Y368800D02*
D03*
Y336800D02*
D03*
Y304800D02*
D03*
X38100Y320800D02*
D03*
X53900Y389600D02*
D03*
X150800D02*
D03*
X51500Y293200D02*
D03*
X105500Y73500D02*
D03*
X130700Y71500D02*
D03*
X91200Y64900D02*
D03*
X104900Y43200D02*
D03*
X65500Y52400D02*
D03*
X26500Y119200D02*
D03*
X85700Y94200D02*
D03*
X155600Y129500D02*
D03*
X154000Y142300D02*
D03*
X38100Y98900D02*
D03*
X106400Y121700D02*
D03*
X144100Y8900D02*
D03*
X151400Y93900D02*
D03*
X144100Y48800D02*
D03*
X4300Y132500D02*
D03*
Y100500D02*
D03*
Y68500D02*
D03*
X38100Y84500D02*
D03*
X53900Y153300D02*
D03*
X150800D02*
D03*
X51500Y56900D02*
D03*
X320200Y305200D02*
D03*
X322200Y330400D02*
D03*
X328800Y290900D02*
D03*
X350500Y304600D02*
D03*
X341300Y265200D02*
D03*
X274500Y226200D02*
D03*
X299500Y285400D02*
D03*
X264200Y355300D02*
D03*
X251400Y353700D02*
D03*
X294800Y237800D02*
D03*
X272000Y306100D02*
D03*
X384800Y343800D02*
D03*
X299800Y351100D02*
D03*
X344900Y343800D02*
D03*
X261200Y204000D02*
D03*
X293200D02*
D03*
X325200D02*
D03*
X309200Y237800D02*
D03*
X240400Y253600D02*
D03*
Y350500D02*
D03*
X336800Y251200D02*
D03*
X354000Y48700D02*
D03*
X343500Y4100D02*
D03*
X286600Y48700D02*
D03*
X276100Y4100D02*
D03*
X218600Y48700D02*
D03*
X208100Y4100D02*
D03*
Y105600D02*
D03*
X218600Y150200D02*
D03*
X276100Y105600D02*
D03*
X286600Y150200D02*
D03*
X343500Y105600D02*
D03*
X354000Y150200D02*
D03*
D144*
X353800Y-311500D02*
D03*
X389800Y-331900D02*
D03*
X399200Y-346500D02*
D03*
X416200Y-344100D02*
D03*
X405800Y-313800D02*
D03*
X345500Y-285400D02*
D03*
X420000Y-285500D02*
D03*
X357800Y-267900D02*
D03*
X324600Y-331400D02*
D03*
X352500Y-285400D02*
D03*
X306600Y-268900D02*
D03*
X438100Y-349400D02*
D03*
X441200Y-309800D02*
D03*
X413300Y-353100D02*
D03*
Y-503100D02*
D03*
X441200Y-459800D02*
D03*
X438100Y-499400D02*
D03*
X306600Y-418900D02*
D03*
X352500Y-435400D02*
D03*
X324600Y-481400D02*
D03*
X357800Y-417900D02*
D03*
X420000Y-435500D02*
D03*
X345500Y-435400D02*
D03*
X405800Y-463800D02*
D03*
X416200Y-494100D02*
D03*
X399200Y-496500D02*
D03*
X389800Y-481900D02*
D03*
X353800Y-461500D02*
D03*
X623500Y-370200D02*
D03*
X643900Y-334200D02*
D03*
X658500Y-324800D02*
D03*
X656100Y-307800D02*
D03*
X625800Y-318200D02*
D03*
X597400Y-378500D02*
D03*
X597500Y-304000D02*
D03*
X579900Y-366200D02*
D03*
X643400Y-399400D02*
D03*
X597400Y-371500D02*
D03*
X580900Y-417400D02*
D03*
X661400Y-285900D02*
D03*
X621800Y-282800D02*
D03*
X665100Y-310700D02*
D03*
X338500Y-576000D02*
D03*
X326500Y-580200D02*
D03*
X337000Y-584000D02*
D03*
Y-596500D02*
D03*
X405000D02*
D03*
Y-584000D02*
D03*
X394500Y-580200D02*
D03*
X406500Y-576000D02*
D03*
X542500D02*
D03*
X530500Y-580200D02*
D03*
X541000Y-584000D02*
D03*
Y-596500D02*
D03*
X473000D02*
D03*
Y-584000D02*
D03*
X462500Y-580200D02*
D03*
X474500Y-576000D02*
D03*
X608000Y-596500D02*
D03*
Y-584000D02*
D03*
X597500Y-580200D02*
D03*
X609500Y-576000D02*
D03*
X658000Y-484500D02*
D03*
X646000Y-488700D02*
D03*
X656500Y-492500D02*
D03*
Y-505000D02*
D03*
X530500Y-484500D02*
D03*
X518500Y-488700D02*
D03*
X529000Y-492500D02*
D03*
Y-505000D02*
D03*
X593000D02*
D03*
Y-492500D02*
D03*
X582500Y-488700D02*
D03*
X594500Y-484500D02*
D03*
X108400Y294800D02*
D03*
X137717Y313283D02*
D03*
X138800Y319000D02*
D03*
X137700Y326000D02*
D03*
X81700Y284000D02*
D03*
X89700Y268600D02*
D03*
X87500Y247200D02*
D03*
X58800Y269900D02*
D03*
X109300Y334800D02*
D03*
X41900Y257800D02*
D03*
X46900Y340700D02*
D03*
X59200Y358200D02*
D03*
X26000Y294700D02*
D03*
X53900Y340700D02*
D03*
X8000Y357200D02*
D03*
X108400Y58500D02*
D03*
X137717Y76983D02*
D03*
X138800Y82700D02*
D03*
X137700Y89700D02*
D03*
X81700Y47700D02*
D03*
X89700Y32300D02*
D03*
X87500Y10900D02*
D03*
X58800Y33600D02*
D03*
X109300Y98500D02*
D03*
X41900Y21500D02*
D03*
X46900Y104400D02*
D03*
X59200Y121900D02*
D03*
X26000Y58400D02*
D03*
X53900Y104400D02*
D03*
X8000Y120900D02*
D03*
X335200Y308100D02*
D03*
X316717Y337417D02*
D03*
X311000Y338500D02*
D03*
X304000Y337400D02*
D03*
X346000Y281400D02*
D03*
X361400Y289400D02*
D03*
X382800Y287200D02*
D03*
X360100Y258500D02*
D03*
X295200Y309000D02*
D03*
X372200Y241600D02*
D03*
X289300Y246600D02*
D03*
X271800Y258900D02*
D03*
X335300Y225700D02*
D03*
X289300Y253600D02*
D03*
X272800Y207700D02*
D03*
X353800Y62600D02*
D03*
X382100Y73100D02*
D03*
X373400Y59800D02*
D03*
X385900Y10800D02*
D03*
X381900Y6000D02*
D03*
X364100Y40400D02*
D03*
Y20000D02*
D03*
Y3900D02*
D03*
X286400Y62600D02*
D03*
X314700Y73100D02*
D03*
X306000Y59800D02*
D03*
X318500Y10800D02*
D03*
X314500Y6000D02*
D03*
X296700Y40400D02*
D03*
Y20000D02*
D03*
Y3900D02*
D03*
X218400Y62600D02*
D03*
X246700Y73100D02*
D03*
X238000Y59800D02*
D03*
X250500Y10800D02*
D03*
X246500Y6000D02*
D03*
X228700Y40400D02*
D03*
Y20000D02*
D03*
Y3900D02*
D03*
Y105400D02*
D03*
Y121500D02*
D03*
Y141900D02*
D03*
X246500Y107500D02*
D03*
X250500Y112300D02*
D03*
X238000Y161300D02*
D03*
X246700Y174600D02*
D03*
X218400Y164100D02*
D03*
X296700Y105400D02*
D03*
Y121500D02*
D03*
Y141900D02*
D03*
X314500Y107500D02*
D03*
X318500Y112300D02*
D03*
X306000Y161300D02*
D03*
X314700Y174600D02*
D03*
X286400Y164100D02*
D03*
X364100Y105400D02*
D03*
Y121500D02*
D03*
Y141900D02*
D03*
X381900Y107500D02*
D03*
X385900Y112300D02*
D03*
X373400Y161300D02*
D03*
X382100Y174600D02*
D03*
X353800Y164100D02*
D03*
D145*
X378600Y-349400D02*
D03*
X368600Y-361000D02*
D03*
X388800D02*
D03*
Y-511000D02*
D03*
X368600D02*
D03*
X378600Y-499400D02*
D03*
X661400Y-345400D02*
D03*
X673000Y-355400D02*
D03*
Y-335200D02*
D03*
X70500Y243800D02*
D03*
X50500D02*
D03*
X60500Y256500D02*
D03*
X70500Y7500D02*
D03*
X50500D02*
D03*
X60500Y20200D02*
D03*
X386200Y270200D02*
D03*
Y250200D02*
D03*
X373500Y260200D02*
D03*
D146*
X450395Y-267589D02*
D03*
X453151Y-279400D02*
D03*
X446852Y-285699D02*
D03*
X450395Y-291211D02*
D03*
X446852Y-279400D02*
D03*
X453151Y-285699D02*
D03*
X446852Y-273101D02*
D03*
X453151D02*
D03*
X450395Y-417589D02*
D03*
X453151Y-429400D02*
D03*
X446852Y-435699D02*
D03*
X450395Y-441211D02*
D03*
X446852Y-429400D02*
D03*
X453151Y-435699D02*
D03*
X446852Y-423101D02*
D03*
X453151D02*
D03*
X579589Y-273605D02*
D03*
X591400Y-270849D02*
D03*
X597699Y-277148D02*
D03*
X603211Y-273605D02*
D03*
X591400Y-277148D02*
D03*
X597699Y-270849D02*
D03*
X585101Y-277148D02*
D03*
Y-270849D02*
D03*
X173051Y352099D02*
D03*
X166752D02*
D03*
X173051Y339501D02*
D03*
X166752Y345800D02*
D03*
X170295Y333989D02*
D03*
X166752Y339501D02*
D03*
X173051Y345800D02*
D03*
X170295Y357611D02*
D03*
X173051Y115799D02*
D03*
X166752D02*
D03*
X173051Y103201D02*
D03*
X166752Y109500D02*
D03*
X170295Y97689D02*
D03*
X166752Y103201D02*
D03*
X173051Y109500D02*
D03*
X170295Y121311D02*
D03*
X277901Y372751D02*
D03*
Y366452D02*
D03*
X290499Y372751D02*
D03*
X284200Y366452D02*
D03*
X296011Y369995D02*
D03*
X290499Y366452D02*
D03*
X284200Y372751D02*
D03*
X272389Y369995D02*
D03*
D147*
X365718Y-321180D02*
D03*
X357844D02*
D03*
X349970D02*
D03*
X342096D02*
D03*
X334222D02*
D03*
X326348D02*
D03*
X318474D02*
D03*
X310600D02*
D03*
Y-256613D02*
D03*
X318474D02*
D03*
X326348D02*
D03*
X334222D02*
D03*
X342096D02*
D03*
X349970D02*
D03*
X357844D02*
D03*
X365718D02*
D03*
Y-471179D02*
D03*
X357844D02*
D03*
X349970D02*
D03*
X342096D02*
D03*
X334222D02*
D03*
X326348D02*
D03*
X318474D02*
D03*
X310600D02*
D03*
Y-406613D02*
D03*
X318474D02*
D03*
X326348D02*
D03*
X334222D02*
D03*
X342096D02*
D03*
X349970D02*
D03*
X357844D02*
D03*
X365718D02*
D03*
X67118Y304921D02*
D03*
X59244D02*
D03*
X51370D02*
D03*
X43496D02*
D03*
X35622D02*
D03*
X27748D02*
D03*
X19874D02*
D03*
X12000D02*
D03*
Y369487D02*
D03*
X19874D02*
D03*
X27748D02*
D03*
X35622D02*
D03*
X43496D02*
D03*
X51370D02*
D03*
X59244D02*
D03*
X67118D02*
D03*
Y68621D02*
D03*
X59244D02*
D03*
X51370D02*
D03*
X43496D02*
D03*
X35622D02*
D03*
X27748D02*
D03*
X19874D02*
D03*
X12000D02*
D03*
Y133187D02*
D03*
X19874D02*
D03*
X27748D02*
D03*
X35622D02*
D03*
X43496D02*
D03*
X51370D02*
D03*
X59244D02*
D03*
X67118D02*
D03*
D148*
X373592Y-269211D02*
D03*
Y-277085D02*
D03*
Y-284959D02*
D03*
Y-292833D02*
D03*
Y-300707D02*
D03*
Y-308581D02*
D03*
Y-419211D02*
D03*
Y-427085D02*
D03*
Y-434959D02*
D03*
Y-442833D02*
D03*
Y-450707D02*
D03*
Y-458581D02*
D03*
X74992Y356889D02*
D03*
Y349015D02*
D03*
Y341141D02*
D03*
Y333267D02*
D03*
Y325393D02*
D03*
Y317519D02*
D03*
Y120589D02*
D03*
Y112715D02*
D03*
Y104841D02*
D03*
Y96967D02*
D03*
Y89093D02*
D03*
Y81219D02*
D03*
D149*
X413600Y-317400D02*
D03*
X428600D02*
D03*
X418600D02*
D03*
X423600D02*
D03*
X428600Y-296900D02*
D03*
X423600D02*
D03*
X418600D02*
D03*
X413600D02*
D03*
Y-467400D02*
D03*
X428600D02*
D03*
X418600D02*
D03*
X423600D02*
D03*
X428600Y-446900D02*
D03*
X423600D02*
D03*
X418600D02*
D03*
X413600D02*
D03*
X113500Y265800D02*
D03*
X128500D02*
D03*
X118500D02*
D03*
X123500D02*
D03*
X128500Y286300D02*
D03*
X123500D02*
D03*
X118500D02*
D03*
X113500D02*
D03*
Y29500D02*
D03*
X128500D02*
D03*
X118500D02*
D03*
X123500D02*
D03*
X128500Y50000D02*
D03*
X123500D02*
D03*
X118500D02*
D03*
X113500D02*
D03*
D150*
X394600Y-308600D02*
D03*
Y-282200D02*
D03*
Y-458600D02*
D03*
Y-432200D02*
D03*
X96000Y317500D02*
D03*
Y343900D02*
D03*
Y81200D02*
D03*
Y107600D02*
D03*
D151*
X450600Y-303400D02*
D03*
Y-317573D02*
D03*
Y-453400D02*
D03*
Y-467573D02*
D03*
D152*
X462569Y-249400D02*
D03*
X435009D02*
D03*
X462569Y-399400D02*
D03*
X435009D02*
D03*
X163969Y376700D02*
D03*
X136409D02*
D03*
X163969Y140400D02*
D03*
X136409D02*
D03*
D153*
X633180Y-358282D02*
D03*
Y-366156D02*
D03*
Y-374030D02*
D03*
Y-381904D02*
D03*
Y-389778D02*
D03*
Y-397652D02*
D03*
Y-405526D02*
D03*
Y-413400D02*
D03*
X568613D02*
D03*
Y-405526D02*
D03*
Y-397652D02*
D03*
Y-389778D02*
D03*
Y-381904D02*
D03*
Y-374030D02*
D03*
Y-366156D02*
D03*
Y-358282D02*
D03*
X325079Y266818D02*
D03*
Y258944D02*
D03*
Y251070D02*
D03*
Y243196D02*
D03*
Y235322D02*
D03*
Y227448D02*
D03*
Y219574D02*
D03*
Y211700D02*
D03*
X260513D02*
D03*
Y219574D02*
D03*
Y227448D02*
D03*
Y235322D02*
D03*
Y243196D02*
D03*
Y251070D02*
D03*
Y258944D02*
D03*
Y266818D02*
D03*
D154*
X581211Y-350408D02*
D03*
X589085D02*
D03*
X596959D02*
D03*
X604833D02*
D03*
X612707D02*
D03*
X620581D02*
D03*
X273111Y274692D02*
D03*
X280985D02*
D03*
X288859D02*
D03*
X296733D02*
D03*
X304607D02*
D03*
X312481D02*
D03*
D155*
X629400Y-310400D02*
D03*
Y-295400D02*
D03*
Y-305400D02*
D03*
Y-300400D02*
D03*
X608900Y-295400D02*
D03*
Y-300400D02*
D03*
Y-305400D02*
D03*
Y-310400D02*
D03*
X364200Y313200D02*
D03*
Y328200D02*
D03*
Y318200D02*
D03*
Y323200D02*
D03*
X343700Y328200D02*
D03*
Y323200D02*
D03*
Y318200D02*
D03*
Y313200D02*
D03*
D156*
X620600Y-329400D02*
D03*
X594200D02*
D03*
X312500Y295700D02*
D03*
X286100D02*
D03*
D157*
X615400Y-273400D02*
D03*
X629573D02*
D03*
D158*
X561400Y-261432D02*
D03*
Y-288990D02*
D03*
X253300Y363668D02*
D03*
Y336109D02*
D03*
D159*
X316894Y-580173D02*
D03*
X309807D02*
D03*
X316894Y-591173D02*
D03*
X309807D02*
D03*
X316894Y-602173D02*
D03*
X309807D02*
D03*
X384894D02*
D03*
X377807D02*
D03*
X384894Y-591173D02*
D03*
X377807D02*
D03*
X384894Y-580173D02*
D03*
X377807D02*
D03*
X520894D02*
D03*
X513807D02*
D03*
X520894Y-591173D02*
D03*
X513807D02*
D03*
X520894Y-602173D02*
D03*
X513807D02*
D03*
X452894D02*
D03*
X445807D02*
D03*
X452894Y-591173D02*
D03*
X445807D02*
D03*
X452894Y-580173D02*
D03*
X445807D02*
D03*
X587894Y-602173D02*
D03*
X580807D02*
D03*
X587894Y-591173D02*
D03*
X580807D02*
D03*
X587894Y-580173D02*
D03*
X580807D02*
D03*
X636394Y-488673D02*
D03*
X629307D02*
D03*
X636394Y-499673D02*
D03*
X629307D02*
D03*
X636394Y-510673D02*
D03*
X629307D02*
D03*
X508894Y-488673D02*
D03*
X501807D02*
D03*
X508894Y-499673D02*
D03*
X501807D02*
D03*
X508894Y-510673D02*
D03*
X501807D02*
D03*
X572894D02*
D03*
X565807D02*
D03*
X572894Y-499673D02*
D03*
X565807D02*
D03*
X572894Y-488673D02*
D03*
X565807D02*
D03*
D160*
X170900Y345800D02*
D03*
Y109500D02*
D03*
D161*
X284200Y370600D02*
D03*
M02*
