%FSLAX25Y25*%
%MOIN*%
G70*
G01*
G75*
%ADD10R,0.01772X0.06299*%
%ADD11R,0.06299X0.13386*%
%ADD12R,0.05512X0.01654*%
%ADD13R,0.04724X0.04724*%
%ADD14R,0.08465X0.05000*%
%ADD15R,0.09000X0.15000*%
%ADD16R,0.05906X0.03937*%
%ADD17R,0.03937X0.05906*%
%ADD18R,0.07874X0.11024*%
%ADD19R,0.03500X0.05000*%
%ADD20R,0.07874X0.15748*%
%ADD21R,0.06299X0.09449*%
%ADD22R,0.05512X0.07087*%
%ADD23R,0.05906X0.15748*%
%ADD24R,0.06299X0.01772*%
%ADD25R,0.13386X0.06299*%
%ADD26R,0.01654X0.05512*%
%ADD27R,0.04724X0.04724*%
%ADD28R,0.05000X0.08465*%
%ADD29R,0.15000X0.09000*%
%ADD30R,0.11024X0.07874*%
%ADD31R,0.15748X0.05906*%
%ADD32R,0.05000X0.03500*%
%ADD33R,0.15748X0.07874*%
%ADD34R,0.09449X0.06299*%
%ADD35R,0.07087X0.05512*%
%ADD36R,0.06600X0.01700*%
%ADD37C,0.02500*%
%ADD38C,0.02000*%
%ADD39C,0.03000*%
%ADD40C,0.01500*%
%ADD41C,0.04000*%
%ADD42C,0.01000*%
%ADD43C,0.01800*%
%ADD44R,0.01600X0.04800*%
%ADD45R,0.34200X0.03200*%
%ADD46R,0.14413X0.28346*%
%ADD47R,0.04800X0.01600*%
%ADD48R,0.03200X0.34200*%
%ADD49R,0.28346X0.14413*%
%ADD50C,0.15800*%
%ADD51R,0.05512X0.07874*%
%ADD52R,0.05118X0.07874*%
%ADD53C,0.07874*%
%ADD54R,0.07874X0.05512*%
%ADD55R,0.07874X0.05118*%
%ADD56C,0.05000*%
%ADD57C,0.04000*%
%ADD58C,0.06000*%
%ADD59C,0.03937*%
%ADD60R,0.09449X0.04724*%
%ADD61R,0.04724X0.11024*%
%ADD62R,0.03000X0.10000*%
%ADD63R,0.10000X0.20000*%
%ADD64R,0.06299X0.05512*%
%ADD65R,0.09843X0.14961*%
%ADD66R,0.04724X0.09449*%
%ADD67R,0.11024X0.04724*%
%ADD68R,0.10000X0.03000*%
%ADD69R,0.20000X0.10000*%
%ADD70R,0.05512X0.06299*%
%ADD71R,0.14961X0.09843*%
%ADD72R,0.03150X0.04724*%
%ADD73C,0.03500*%
%ADD74R,0.26400X0.28346*%
%ADD75R,0.28346X0.26400*%
%ADD76C,0.00200*%
%ADD77C,0.00591*%
%ADD78C,0.00394*%
%ADD79C,0.00787*%
%ADD80C,0.00500*%
%ADD81C,0.00050*%
%ADD82C,0.00800*%
%ADD83R,0.02300X0.06299*%
%ADD84R,0.06299X0.02300*%
D42*
X253328Y497667D02*
G03*
X250966Y495305I0J-2362D01*
G01*
X280100Y495305D02*
G03*
X277738Y497667I-2362J0D01*
G01*
Y468533D02*
G03*
X280100Y470895I0J2362D01*
G01*
X250966Y470895D02*
G03*
X253328Y468533I2362J0D01*
G01*
X253328Y347667D02*
G03*
X250966Y345305I0J-2362D01*
G01*
X280100Y345305D02*
G03*
X277738Y347667I-2362J0D01*
G01*
Y318533D02*
G03*
X280100Y320895I0J2362D01*
G01*
X250966Y320895D02*
G03*
X253328Y318533I2362J0D01*
G01*
X360333Y444328D02*
G03*
X362695Y441966I2362J0D01*
G01*
X362695Y471100D02*
G03*
X360333Y468738I0J-2362D01*
G01*
X389467D02*
G03*
X387105Y471100I-2362J0D01*
G01*
X387105Y441966D02*
G03*
X389467Y444328I0J2362D01*
G01*
X240005Y474157D02*
Y484000D01*
X227406Y474157D02*
X240005D01*
X227406D02*
Y484000D01*
X240005D01*
X250966Y470895D02*
Y495305D01*
X253328Y497667D02*
X277738D01*
X280100Y470895D02*
Y495305D01*
X253328Y468533D02*
X277738D01*
X169100Y382200D02*
X169200Y382100D01*
X169100Y382200D02*
Y392100D01*
X159100Y382100D02*
Y392100D01*
X149100Y382100D02*
Y392100D01*
X139100Y382100D02*
Y392100D01*
Y382100D02*
X179100D01*
Y392100D01*
X139100D02*
X179100D01*
X283100Y420100D02*
X293100D01*
X283100Y380100D02*
Y430100D01*
X293100D01*
Y380100D02*
Y430100D01*
X283100Y380100D02*
X293100D01*
X283100Y390100D02*
X293100D01*
X283100Y400100D02*
X293100D01*
X283100Y410100D02*
X293000D01*
X293100Y410200D01*
X144914Y461400D02*
X158694D01*
Y472817D01*
X144914D02*
X158694D01*
X144914Y461400D02*
Y472817D01*
X155994Y461400D02*
Y472717D01*
X186320Y403900D02*
X198919D01*
Y410199D01*
X186320D02*
X198919D01*
X186320Y403900D02*
Y410199D01*
Y253900D02*
X198919D01*
Y260199D01*
X186320D02*
X198919D01*
X186320Y253900D02*
Y260199D01*
X144914Y311400D02*
X158694D01*
Y322817D01*
X144914D02*
X158694D01*
X144914Y311400D02*
Y322817D01*
X155994Y311400D02*
Y322717D01*
X283100Y270100D02*
X293100D01*
X283100Y230100D02*
Y280100D01*
X293100D01*
Y230100D02*
Y280100D01*
X283100Y230100D02*
X293100D01*
X283100Y240100D02*
X293100D01*
X283100Y250100D02*
X293100D01*
X283100Y260100D02*
X293000D01*
X293100Y260200D01*
X169100Y232200D02*
X169200Y232100D01*
X169100Y232200D02*
Y242100D01*
X159100Y232100D02*
Y242100D01*
X149100Y232100D02*
Y242100D01*
X139100Y232100D02*
Y242100D01*
Y232100D02*
X179100D01*
Y242100D01*
X139100D02*
X179100D01*
X250966Y320895D02*
Y345305D01*
X253328Y347667D02*
X277738D01*
X280100Y320895D02*
Y345305D01*
X253328Y318533D02*
X277738D01*
X240005Y324158D02*
Y334000D01*
X227406Y324158D02*
X240005D01*
X227406D02*
Y334000D01*
X240005D01*
X374000Y431005D02*
X383842D01*
Y418406D02*
Y431005D01*
X374000Y418406D02*
X383842D01*
X374000D02*
Y431005D01*
X362695Y441966D02*
X387105D01*
X360333Y444328D02*
Y468738D01*
X362695Y471100D02*
X387105D01*
X389467Y444328D02*
Y468738D01*
X475800Y360100D02*
X475900Y360200D01*
X465900Y360100D02*
X475800D01*
X465900Y350100D02*
X475900D01*
X465900Y340100D02*
X475900D01*
X465900Y330100D02*
X475900D01*
Y370100D01*
X465900D02*
X475900D01*
X465900Y330100D02*
Y370100D01*
X437900Y474100D02*
Y484100D01*
X427900Y474100D02*
X477900D01*
X427900D02*
Y484100D01*
X477900D01*
Y474100D02*
Y484100D01*
X467900Y474100D02*
Y484100D01*
X457900Y474100D02*
Y484100D01*
X447900Y474100D02*
Y484000D01*
X447800Y484100D02*
X447900Y484000D01*
X396600Y335914D02*
Y349694D01*
X385183D02*
X396600D01*
X385183Y335914D02*
Y349694D01*
Y335914D02*
X396600D01*
X385283Y346994D02*
X396600D01*
X454100Y377321D02*
Y389919D01*
X447801D02*
X454100D01*
X447801Y377321D02*
Y389919D01*
Y377321D02*
X454100D01*
X144900Y191500D02*
X145000Y191400D01*
Y181500D02*
Y191400D01*
X155000Y181500D02*
Y191500D01*
X165000Y181500D02*
Y191500D01*
X175000Y181500D02*
Y191500D01*
X125000D02*
X175000D01*
X125000Y181500D02*
Y191500D01*
Y181500D02*
X175000D01*
X135000D02*
Y191500D01*
X212900D02*
X213000Y191400D01*
Y181500D02*
Y191400D01*
X223000Y181500D02*
Y191500D01*
X233000Y181500D02*
Y191500D01*
X243000Y181500D02*
Y191500D01*
X193000D02*
X243000D01*
X193000Y181500D02*
Y191500D01*
Y181500D02*
X243000D01*
X203000D02*
Y191500D01*
X348900D02*
X349000Y191400D01*
Y181500D02*
Y191400D01*
X359000Y181500D02*
Y191500D01*
X369000Y181500D02*
Y191500D01*
X379000Y181500D02*
Y191500D01*
X329000D02*
X379000D01*
X329000Y181500D02*
Y191500D01*
Y181500D02*
X379000D01*
X339000D02*
Y191500D01*
X280900D02*
X281000Y191400D01*
Y181500D02*
Y191400D01*
X291000Y181500D02*
Y191500D01*
X301000Y181500D02*
Y191500D01*
X311000Y181500D02*
Y191500D01*
X261000D02*
X311000D01*
X261000Y181500D02*
Y191500D01*
Y181500D02*
X311000D01*
X271000D02*
Y191500D01*
X415900D02*
X416000Y191400D01*
Y181500D02*
Y191400D01*
X426000Y181500D02*
Y191500D01*
X436000Y181500D02*
Y191500D01*
X446000Y181500D02*
Y191500D01*
X396000D02*
X446000D01*
X396000Y181500D02*
Y191500D01*
Y181500D02*
X446000D01*
X406000D02*
Y191500D01*
X464400Y283000D02*
X464500Y282900D01*
Y273000D02*
Y282900D01*
X474500Y273000D02*
Y283000D01*
X484500Y273000D02*
Y283000D01*
X494500Y273000D02*
Y283000D01*
X444500D02*
X494500D01*
X444500Y273000D02*
Y283000D01*
Y273000D02*
X494500D01*
X454500D02*
Y283000D01*
X336900D02*
X337000Y282900D01*
Y273000D02*
Y282900D01*
X347000Y273000D02*
Y283000D01*
X357000Y273000D02*
Y283000D01*
X367000Y273000D02*
Y283000D01*
X317000D02*
X367000D01*
X317000Y273000D02*
Y283000D01*
Y273000D02*
X367000D01*
X327000D02*
Y283000D01*
X400900D02*
X401000Y282900D01*
Y273000D02*
Y282900D01*
X411000Y273000D02*
Y283000D01*
X421000Y273000D02*
Y283000D01*
X431000Y273000D02*
Y283000D01*
X381000D02*
X431000D01*
X381000Y273000D02*
Y283000D01*
Y273000D02*
X431000D01*
X391000D02*
Y283000D01*
X256300Y485798D02*
Y479800D01*
X260299D01*
X262298D02*
X264297D01*
X263298D01*
Y485798D01*
X262298Y484798D01*
X296502Y407299D02*
X295502Y406299D01*
Y404300D01*
X296502Y403300D01*
X300500D01*
X301500Y404300D01*
Y406299D01*
X300500Y407299D01*
X301500Y409298D02*
X295502D01*
X301500Y413297D01*
X295502D01*
X296502Y415296D02*
X295502Y416296D01*
Y418295D01*
X296502Y419295D01*
X297501D01*
X298501Y418295D01*
Y417296D01*
Y418295D01*
X299501Y419295D01*
X300500D01*
X301500Y418295D01*
Y416296D01*
X300500Y415296D01*
X296502Y257299D02*
X295502Y256299D01*
Y254300D01*
X296502Y253300D01*
X300500D01*
X301500Y254300D01*
Y256299D01*
X300500Y257299D01*
X301500Y259298D02*
X295502D01*
X301500Y263297D01*
X295502D01*
X296502Y265296D02*
X295502Y266296D01*
Y268295D01*
X296502Y269295D01*
X297501D01*
X298501Y268295D01*
Y267296D01*
Y268295D01*
X299501Y269295D01*
X300500D01*
X301500Y268295D01*
Y266296D01*
X300500Y265296D01*
X256300Y335798D02*
Y329800D01*
X260299D01*
X262298D02*
X264297D01*
X263298D01*
Y335798D01*
X262298Y334798D01*
X372202Y447300D02*
X378200D01*
Y451299D01*
Y453298D02*
Y455297D01*
Y454298D01*
X372202D01*
X373202Y453298D01*
X450701Y487502D02*
X451701Y486502D01*
X453700D01*
X454700Y487502D01*
Y491500D01*
X453700Y492500D01*
X451701D01*
X450701Y491500D01*
X448702Y492500D02*
Y486502D01*
X444703Y492500D01*
Y486502D01*
X442704Y487502D02*
X441704Y486502D01*
X439705D01*
X438705Y487502D01*
Y488501D01*
X439705Y489501D01*
X440704D01*
X439705D01*
X438705Y490501D01*
Y491500D01*
X439705Y492500D01*
X441704D01*
X442704Y491500D01*
X110000Y110000D02*
Y504000D01*
Y110000D02*
X504000D01*
Y504000D01*
X110000D02*
X504000D01*
X308100Y362100D02*
Y498100D01*
X114100D02*
X308100D01*
X114100Y362100D02*
X308100D01*
X114100D02*
Y498100D01*
Y212100D02*
Y348100D01*
Y212100D02*
X308100D01*
X114100Y348100D02*
X308100D01*
Y212100D02*
Y348100D01*
X359900Y499100D02*
X495900D01*
X359900Y305100D02*
Y499100D01*
X495900Y305100D02*
Y499100D01*
X359900Y305100D02*
X495900D01*
X120000Y196500D02*
X180000D01*
X120000Y118500D02*
Y196500D01*
Y118500D02*
X180000D01*
Y196500D01*
X248000Y118500D02*
Y196500D01*
X188000Y118500D02*
X248000D01*
X188000D02*
Y196500D01*
X248000D01*
X324000D02*
X384000D01*
X324000Y118500D02*
Y196500D01*
Y118500D02*
X384000D01*
Y196500D01*
X316000Y118500D02*
Y196500D01*
X256000Y118500D02*
X316000D01*
X256000D02*
Y196500D01*
X316000D01*
X451000Y118500D02*
Y196500D01*
X391000Y118500D02*
X451000D01*
X391000D02*
Y196500D01*
X451000D01*
X439500Y288000D02*
X499500D01*
X439500Y210000D02*
Y288000D01*
Y210000D02*
X499500D01*
Y288000D01*
X312000D02*
X372000D01*
X312000Y210000D02*
Y288000D01*
Y210000D02*
X372000D01*
Y288000D01*
X436000Y210000D02*
Y288000D01*
X376000Y210000D02*
X436000D01*
X376000D02*
Y288000D01*
X436000D01*
D76*
X217987Y401500D02*
G03*
X217987Y401500I-1000J0D01*
G01*
Y251500D02*
G03*
X217987Y251500I-1000J0D01*
G01*
X457500Y407987D02*
G03*
X457500Y407987I-1000J0D01*
G01*
X145887Y169900D02*
G03*
X145887Y169900I-1000J0D01*
G01*
X213887D02*
G03*
X213887Y169900I-1000J0D01*
G01*
X349887D02*
G03*
X349887Y169900I-1000J0D01*
G01*
X281887D02*
G03*
X281887Y169900I-1000J0D01*
G01*
X416887D02*
G03*
X416887Y169900I-1000J0D01*
G01*
X465387Y261400D02*
G03*
X465387Y261400I-1000J0D01*
G01*
X337887D02*
G03*
X337887Y261400I-1000J0D01*
G01*
X401887D02*
G03*
X401887Y261400I-1000J0D01*
G01*
X149639Y431911D02*
X162139D01*
X149639Y426281D02*
Y431911D01*
Y426281D02*
X162139D01*
Y431911D01*
X149639Y281911D02*
X162139D01*
X149639Y276281D02*
Y281911D01*
Y276281D02*
X162139D01*
Y281911D01*
X426089Y340639D02*
Y353139D01*
Y340639D02*
X431719D01*
Y353139D01*
X426089D02*
X431719D01*
D77*
X130029Y425100D02*
G03*
X130029Y425100I-3929J0D01*
G01*
Y275100D02*
G03*
X130029Y275100I-3929J0D01*
G01*
X436829Y317100D02*
G03*
X436829Y317100I-3929J0D01*
G01*
D78*
X278132Y483100D02*
G03*
X278132Y483100I-12598J0D01*
G01*
X276950D02*
G03*
X276950Y483100I-11417J0D01*
G01*
X278132Y333100D02*
G03*
X278132Y333100I-12598J0D01*
G01*
X276950D02*
G03*
X276950Y333100I-11417J0D01*
G01*
X387498Y456533D02*
G03*
X387498Y456533I-12598J0D01*
G01*
X386317D02*
G03*
X386317Y456533I-11417J0D01*
G01*
X210037Y488124D02*
X213974D01*
X210037D02*
Y494423D01*
X213974D01*
Y488124D02*
Y494423D01*
X190746Y501194D02*
X192500Y498478D01*
X219800D02*
X221454Y501194D01*
X189958Y500722D02*
X190746Y501194D01*
X221454D02*
X222242Y500722D01*
X189958D02*
X191336Y498478D01*
X194200D02*
Y500919D01*
X194289D02*
X217911D01*
Y498478D02*
Y500919D01*
X220864Y498478D02*
X222242Y500722D01*
X211218Y477100D02*
Y479462D01*
X200982D02*
X211218D01*
X200982Y477100D02*
Y479462D01*
X202163Y488124D02*
Y494423D01*
X198226D02*
X202163D01*
X198226Y488124D02*
Y494423D01*
Y488124D02*
X202163D01*
X120588Y433368D02*
X131612D01*
Y416832D02*
Y433368D01*
X120588Y416832D02*
X131612D01*
X120588D02*
Y433368D01*
X121376Y415651D02*
Y416832D01*
Y415651D02*
X123344D01*
Y416832D01*
X130824Y415651D02*
Y416832D01*
X128856Y415651D02*
X130824D01*
X128856D02*
Y416832D01*
X123344Y433368D02*
Y434549D01*
X121376D02*
X123344D01*
X121376Y433368D02*
Y434549D01*
X130824Y433368D02*
Y434549D01*
X128856D02*
X130824D01*
X128856Y433368D02*
Y434549D01*
X120588Y283368D02*
X131612D01*
Y266832D02*
Y283368D01*
X120588Y266832D02*
X131612D01*
X120588D02*
Y283368D01*
X121376Y265651D02*
Y266832D01*
Y265651D02*
X123344D01*
Y266832D01*
X130824Y265651D02*
Y266832D01*
X128856Y265651D02*
X130824D01*
X128856D02*
Y266832D01*
X123344Y283368D02*
Y284549D01*
X121376D02*
X123344D01*
X121376Y283368D02*
Y284549D01*
X130824Y283368D02*
Y284549D01*
X128856D02*
X130824D01*
X128856Y283368D02*
Y284549D01*
X210037Y338124D02*
X213974D01*
X210037D02*
Y344423D01*
X213974D01*
Y338124D02*
Y344423D01*
X190746Y351195D02*
X192500Y348478D01*
X219800D02*
X221454Y351195D01*
X189958Y350722D02*
X190746Y351195D01*
X221454D02*
X222242Y350722D01*
X189958D02*
X191336Y348478D01*
X194200D02*
Y350919D01*
X194289D02*
X217911D01*
Y348478D02*
Y350919D01*
X220864Y348478D02*
X222242Y350722D01*
X211218Y327100D02*
Y329462D01*
X200982D02*
X211218D01*
X200982Y327100D02*
Y329462D01*
X202163Y338124D02*
Y344423D01*
X198226D02*
X202163D01*
X198226Y338124D02*
Y344423D01*
Y338124D02*
X202163D01*
X369876Y401037D02*
Y404974D01*
X363577Y401037D02*
X369876D01*
X363577D02*
Y404974D01*
X369876D01*
X356805Y381746D02*
X359522Y383500D01*
X356805Y412454D02*
X359522Y410800D01*
X356805Y381746D02*
X357278Y380958D01*
X356805Y412454D02*
X357278Y413242D01*
Y380958D02*
X359522Y382336D01*
X357081Y385200D02*
X359522D01*
X357081Y385289D02*
Y408911D01*
X359522D01*
X357278Y413242D02*
X359522Y411864D01*
X378538Y402218D02*
X380900D01*
X378538Y391982D02*
Y402218D01*
Y391982D02*
X380900D01*
X363577Y393163D02*
X369876D01*
X363577Y389226D02*
Y393163D01*
Y389226D02*
X369876D01*
Y393163D01*
X424632Y311588D02*
Y322612D01*
X441168D01*
Y311588D02*
Y322612D01*
X424632Y311588D02*
X441168D01*
Y312376D02*
X442349D01*
Y314344D01*
X441168D02*
X442349D01*
X441168Y321824D02*
X442349D01*
Y319856D02*
Y321824D01*
X441168Y319856D02*
X442349D01*
X423451Y314344D02*
X424632D01*
X423451Y312376D02*
Y314344D01*
Y312376D02*
X424632D01*
X423451Y321824D02*
X424632D01*
X423451Y319856D02*
Y321824D01*
Y319856D02*
X424632D01*
D79*
X191336Y477100D02*
X220864D01*
X191336D02*
Y498478D01*
X220864Y477100D02*
Y498478D01*
X191336D02*
X220864D01*
X258415Y438108D02*
X272391D01*
X258415D02*
Y464092D01*
X272391D01*
Y438108D02*
Y464092D01*
X258415Y288108D02*
X272391D01*
X258415D02*
Y314092D01*
X272391D01*
Y288108D02*
Y314092D01*
X191336Y327100D02*
X220864D01*
X191336D02*
Y348478D01*
X220864Y327100D02*
Y348478D01*
X191336D02*
X220864D01*
X380900Y382336D02*
Y411864D01*
X359522Y382336D02*
X380900D01*
X359522Y411864D02*
X380900D01*
X359522Y382336D02*
Y411864D01*
X419892Y449415D02*
Y463391D01*
X393908Y449415D02*
X419892D01*
X393908D02*
Y463391D01*
X419892D01*
D80*
X214856Y391200D02*
Y403400D01*
X232572D01*
X214856Y391200D02*
X232572D01*
Y403400D01*
X142561Y407600D02*
Y415474D01*
X137639D02*
X142561D01*
X137639Y407600D02*
Y415474D01*
Y407600D02*
X142561D01*
X136600Y424639D02*
X144474D01*
Y429561D01*
X136600D02*
X144474D01*
X136600Y424639D02*
Y429561D01*
X176600Y420639D02*
X184474D01*
Y425561D01*
X176600D02*
X184474D01*
X176600Y420639D02*
Y425561D01*
X149639Y446726D02*
Y454600D01*
Y446726D02*
X154561D01*
Y454600D01*
X149639D02*
X154561D01*
X187639Y432726D02*
Y440600D01*
Y432726D02*
X192561D01*
Y440600D01*
X187639D02*
X192561D01*
X177639Y432726D02*
Y440600D01*
Y432726D02*
X182561D01*
Y440600D01*
X177639D02*
X182561D01*
X152600Y488639D02*
X160474D01*
Y493561D01*
X152600D02*
X160474D01*
X152600Y488639D02*
Y493561D01*
X139639Y446726D02*
Y454600D01*
Y446726D02*
X144561D01*
Y454600D01*
X139639D02*
X144561D01*
X122600Y448639D02*
X130474D01*
Y453561D01*
X122600D02*
X130474D01*
X122600Y448639D02*
Y453561D01*
X172600Y488639D02*
X180474D01*
Y493561D01*
X172600D02*
X180474D01*
X172600Y488639D02*
Y493561D01*
X125726Y473561D02*
X133600D01*
X125726Y468639D02*
Y473561D01*
Y468639D02*
X133600D01*
Y473561D01*
X256561Y387600D02*
Y395474D01*
X251639D02*
X256561D01*
X251639Y387600D02*
Y395474D01*
Y387600D02*
X256561D01*
X229726Y418561D02*
X237600D01*
X229726Y413639D02*
Y418561D01*
Y413639D02*
X237600D01*
Y418561D01*
X291726Y469561D02*
X299600D01*
X291726Y464639D02*
Y469561D01*
Y464639D02*
X299600D01*
Y469561D01*
X291726Y319561D02*
X299600D01*
X291726Y314639D02*
Y319561D01*
Y314639D02*
X299600D01*
Y319561D01*
X229726Y268561D02*
X237600D01*
X229726Y263639D02*
Y268561D01*
Y263639D02*
X237600D01*
Y268561D01*
X256561Y237600D02*
Y245474D01*
X251639D02*
X256561D01*
X251639Y237600D02*
Y245474D01*
Y237600D02*
X256561D01*
X125726Y323561D02*
X133600D01*
X125726Y318639D02*
Y323561D01*
Y318639D02*
X133600D01*
Y323561D01*
X172600Y338639D02*
X180474D01*
Y343561D01*
X172600D02*
X180474D01*
X172600Y338639D02*
Y343561D01*
X122600Y298639D02*
X130474D01*
Y303561D01*
X122600D02*
X130474D01*
X122600Y298639D02*
Y303561D01*
X139639Y296726D02*
Y304600D01*
Y296726D02*
X144561D01*
Y304600D01*
X139639D02*
X144561D01*
X152600Y338639D02*
X160474D01*
Y343561D01*
X152600D02*
X160474D01*
X152600Y338639D02*
Y343561D01*
X177639Y282726D02*
Y290600D01*
Y282726D02*
X182561D01*
Y290600D01*
X177639D02*
X182561D01*
X187639Y282726D02*
Y290600D01*
Y282726D02*
X192561D01*
Y290600D01*
X187639D02*
X192561D01*
X149639Y296726D02*
Y304600D01*
Y296726D02*
X154561D01*
Y304600D01*
X149639D02*
X154561D01*
X176600Y270639D02*
X184474D01*
Y275561D01*
X176600D02*
X184474D01*
X176600Y270639D02*
Y275561D01*
X136600Y274639D02*
X144474D01*
Y279561D01*
X136600D02*
X144474D01*
X136600Y274639D02*
Y279561D01*
X142561Y257600D02*
Y265474D01*
X137639D02*
X142561D01*
X137639Y257600D02*
Y265474D01*
Y257600D02*
X142561D01*
X214856Y241200D02*
Y253400D01*
X232572D01*
X214856Y241200D02*
X232572D01*
Y253400D01*
X454600Y405856D02*
X466800D01*
X454600D02*
Y423572D01*
X466800Y405856D02*
Y423572D01*
X454600D02*
X466800D01*
X442526Y333561D02*
X450400D01*
X442526Y328639D02*
Y333561D01*
Y328639D02*
X450400D01*
Y333561D01*
X433361Y327600D02*
Y335474D01*
X428439D02*
X433361D01*
X428439Y327600D02*
Y335474D01*
Y327600D02*
X433361D01*
X437361Y367600D02*
Y375474D01*
X432439D02*
X437361D01*
X432439Y367600D02*
Y375474D01*
Y367600D02*
X437361D01*
X403400Y340639D02*
X411274D01*
Y345561D01*
X403400D02*
X411274D01*
X403400Y340639D02*
Y345561D01*
X417400Y378639D02*
X425274D01*
Y383561D01*
X417400D02*
X425274D01*
X417400Y378639D02*
Y383561D01*
Y368639D02*
X425274D01*
Y373561D01*
X417400D02*
X425274D01*
X417400Y368639D02*
Y373561D01*
X369361Y343600D02*
Y351474D01*
X364439D02*
X369361D01*
X364439Y343600D02*
Y351474D01*
Y343600D02*
X369361D01*
X403400Y330639D02*
X411274D01*
Y335561D01*
X403400D02*
X411274D01*
X403400Y330639D02*
Y335561D01*
X409361Y313600D02*
Y321474D01*
X404439D02*
X409361D01*
X404439Y313600D02*
Y321474D01*
Y313600D02*
X409361D01*
X369361Y363600D02*
Y371474D01*
X364439D02*
X369361D01*
X364439Y363600D02*
Y371474D01*
Y363600D02*
X369361D01*
X384439Y316726D02*
Y324600D01*
Y316726D02*
X389361D01*
Y324600D01*
X384439D02*
X389361D01*
X462526Y447561D02*
X470400D01*
X462526Y442639D02*
Y447561D01*
Y442639D02*
X470400D01*
Y447561D01*
X439439Y420726D02*
Y428600D01*
Y420726D02*
X444361D01*
Y428600D01*
X439439D02*
X444361D01*
X388439Y482726D02*
Y490600D01*
Y482726D02*
X393361D01*
Y490600D01*
X388439D02*
X393361D01*
X142887Y159600D02*
Y171800D01*
X155087D01*
X142887Y159600D02*
X155087D01*
Y171800D01*
X161500Y125539D02*
X169374D01*
Y130461D01*
X161500D02*
X169374D01*
X161500Y125539D02*
Y130461D01*
Y149539D02*
X169374D01*
Y154461D01*
X161500D02*
X169374D01*
X161500Y149539D02*
Y154461D01*
Y137539D02*
X169374D01*
Y142461D01*
X161500D02*
X169374D01*
X161500Y137539D02*
Y142461D01*
X229500Y137539D02*
X237374D01*
Y142461D01*
X229500D02*
X237374D01*
X229500Y137539D02*
Y142461D01*
Y149539D02*
X237374D01*
Y154461D01*
X229500D02*
X237374D01*
X229500Y149539D02*
Y154461D01*
Y125539D02*
X237374D01*
Y130461D01*
X229500D02*
X237374D01*
X229500Y125539D02*
Y130461D01*
X210887Y159600D02*
Y171800D01*
X223087D01*
X210887Y159600D02*
X223087D01*
Y171800D01*
X346887Y159600D02*
Y171800D01*
X359087D01*
X346887Y159600D02*
X359087D01*
Y171800D01*
X365500Y125539D02*
X373374D01*
Y130461D01*
X365500D02*
X373374D01*
X365500Y125539D02*
Y130461D01*
Y149539D02*
X373374D01*
Y154461D01*
X365500D02*
X373374D01*
X365500Y149539D02*
Y154461D01*
Y137539D02*
X373374D01*
Y142461D01*
X365500D02*
X373374D01*
X365500Y137539D02*
Y142461D01*
X297500Y137539D02*
X305374D01*
Y142461D01*
X297500D02*
X305374D01*
X297500Y137539D02*
Y142461D01*
Y149539D02*
X305374D01*
Y154461D01*
X297500D02*
X305374D01*
X297500Y149539D02*
Y154461D01*
Y125539D02*
X305374D01*
Y130461D01*
X297500D02*
X305374D01*
X297500Y125539D02*
Y130461D01*
X278887Y159600D02*
Y171800D01*
X291087D01*
X278887Y159600D02*
X291087D01*
Y171800D01*
X432500Y137539D02*
X440374D01*
Y142461D01*
X432500D02*
X440374D01*
X432500Y137539D02*
Y142461D01*
Y149539D02*
X440374D01*
Y154461D01*
X432500D02*
X440374D01*
X432500Y149539D02*
Y154461D01*
Y125539D02*
X440374D01*
Y130461D01*
X432500D02*
X440374D01*
X432500Y125539D02*
Y130461D01*
X413887Y159600D02*
Y171800D01*
X426087D01*
X413887Y159600D02*
X426087D01*
Y171800D01*
X462387Y251100D02*
Y263300D01*
X474587D01*
X462387Y251100D02*
X474587D01*
Y263300D01*
X481000Y217039D02*
X488874D01*
Y221961D01*
X481000D02*
X488874D01*
X481000Y217039D02*
Y221961D01*
Y241039D02*
X488874D01*
Y245961D01*
X481000D02*
X488874D01*
X481000Y241039D02*
Y245961D01*
Y229039D02*
X488874D01*
Y233961D01*
X481000D02*
X488874D01*
X481000Y229039D02*
Y233961D01*
X334887Y251100D02*
Y263300D01*
X347087D01*
X334887Y251100D02*
X347087D01*
Y263300D01*
X353500Y217039D02*
X361374D01*
Y221961D01*
X353500D02*
X361374D01*
X353500Y217039D02*
Y221961D01*
Y241039D02*
X361374D01*
Y245961D01*
X353500D02*
X361374D01*
X353500Y241039D02*
Y245961D01*
Y229039D02*
X361374D01*
Y233961D01*
X353500D02*
X361374D01*
X353500Y229039D02*
Y233961D01*
X417500Y229039D02*
X425374D01*
Y233961D01*
X417500D02*
X425374D01*
X417500Y229039D02*
Y233961D01*
Y241039D02*
X425374D01*
Y245961D01*
X417500D02*
X425374D01*
X417500Y241039D02*
Y245961D01*
Y217039D02*
X425374D01*
Y221961D01*
X417500D02*
X425374D01*
X417500Y217039D02*
Y221961D01*
X398887Y251100D02*
Y263300D01*
X411087D01*
X398887Y251100D02*
X411087D01*
Y263300D01*
X121866Y410132D02*
X121199Y410799D01*
X119867D01*
X119200Y410132D01*
Y409466D01*
X119867Y408799D01*
X121199D01*
X121866Y408133D01*
Y407466D01*
X121199Y406800D01*
X119867D01*
X119200Y407466D01*
X123199Y410799D02*
Y406800D01*
X124532Y408133D01*
X125865Y406800D01*
Y410799D01*
X127197Y406800D02*
X128530D01*
X127864D01*
Y410799D01*
X127197Y410132D01*
X145000Y405000D02*
Y408999D01*
X146999D01*
X147666Y408332D01*
Y406999D01*
X146999Y406333D01*
X145000D01*
X146333D02*
X147666Y405000D01*
X148999D02*
X150332D01*
X149665D01*
Y408999D01*
X148999Y408332D01*
X152331Y405666D02*
X152997Y405000D01*
X154330D01*
X154997Y405666D01*
Y408332D01*
X154330Y408999D01*
X152997D01*
X152331Y408332D01*
Y407666D01*
X152997Y406999D01*
X154997D01*
X134600Y431500D02*
Y435499D01*
X136599D01*
X137266Y434832D01*
Y433499D01*
X136599Y432833D01*
X134600D01*
X135933D02*
X137266Y431500D01*
X138599D02*
X139932D01*
X139265D01*
Y435499D01*
X138599Y434832D01*
X141931Y435499D02*
X144597D01*
Y434832D01*
X141931Y432166D01*
Y431500D01*
X175100Y414600D02*
Y418599D01*
X177099D01*
X177766Y417932D01*
Y416599D01*
X177099Y415933D01*
X175100D01*
X176433D02*
X177766Y414600D01*
X179099D02*
X180432D01*
X179765D01*
Y418599D01*
X179099Y417932D01*
X184430Y414600D02*
Y418599D01*
X182431Y416599D01*
X185097D01*
X157100Y454100D02*
Y458099D01*
X159099D01*
X159766Y457432D01*
Y456099D01*
X159099Y455433D01*
X157100D01*
X158433D02*
X159766Y454100D01*
X161099D02*
X162432D01*
X161765D01*
Y458099D01*
X161099Y457432D01*
X164431Y454100D02*
X165764D01*
X165097D01*
Y458099D01*
X164431Y457432D01*
X225100Y467600D02*
Y471599D01*
X227099D01*
X227766Y470932D01*
Y469599D01*
X227099Y468933D01*
X225100D01*
X226433D02*
X227766Y467600D01*
X229099D02*
X230432D01*
X229765D01*
Y471599D01*
X229099Y470932D01*
X232431D02*
X233097Y471599D01*
X234430D01*
X235097Y470932D01*
Y468266D01*
X234430Y467600D01*
X233097D01*
X232431Y468266D01*
Y470932D01*
X186700Y445900D02*
Y449899D01*
X188699D01*
X189366Y449232D01*
Y447899D01*
X188699Y447233D01*
X186700D01*
X188033D02*
X189366Y445900D01*
X190699Y446566D02*
X191365Y445900D01*
X192698D01*
X193365Y446566D01*
Y449232D01*
X192698Y449899D01*
X191365D01*
X190699Y449232D01*
Y448566D01*
X191365Y447899D01*
X193365D01*
X173100Y444800D02*
Y448799D01*
X175099D01*
X175766Y448132D01*
Y446799D01*
X175099Y446133D01*
X173100D01*
X174433D02*
X175766Y444800D01*
X177099Y448132D02*
X177765Y448799D01*
X179098D01*
X179764Y448132D01*
Y447466D01*
X179098Y446799D01*
X179764Y446133D01*
Y445466D01*
X179098Y444800D01*
X177765D01*
X177099Y445466D01*
Y446133D01*
X177765Y446799D01*
X177099Y447466D01*
Y448132D01*
X177765Y446799D02*
X179098D01*
X154500Y482000D02*
Y485999D01*
X156499D01*
X157166Y485332D01*
Y483999D01*
X156499Y483333D01*
X154500D01*
X155833D02*
X157166Y482000D01*
X158499D02*
X159832D01*
X159165D01*
Y485999D01*
X158499Y485332D01*
X285000Y444500D02*
Y448499D01*
X286999D01*
X287666Y447832D01*
Y446499D01*
X286999Y445833D01*
X285000D01*
X288999Y448499D02*
X291665D01*
X290332D01*
Y444500D01*
X295663Y448499D02*
X294330Y447832D01*
X292997Y446499D01*
Y445166D01*
X293664Y444500D01*
X294997D01*
X295663Y445166D01*
Y445833D01*
X294997Y446499D01*
X292997D01*
X260300Y375000D02*
Y378999D01*
X262299D01*
X262966Y378332D01*
Y376999D01*
X262299Y376333D01*
X260300D01*
X264299Y378999D02*
X266965D01*
X265632D01*
Y375000D01*
X270963Y378999D02*
X268297D01*
Y376999D01*
X269630Y377666D01*
X270297D01*
X270963Y376999D01*
Y375666D01*
X270297Y375000D01*
X268964D01*
X268297Y375666D01*
X295400Y375000D02*
Y378999D01*
X297399D01*
X298066Y378332D01*
Y376999D01*
X297399Y376333D01*
X295400D01*
X299399Y378999D02*
X302064D01*
X300732D01*
Y375000D01*
X305397D02*
Y378999D01*
X303397Y376999D01*
X306063D01*
X235600Y492400D02*
Y496399D01*
X237599D01*
X238266Y495732D01*
Y494399D01*
X237599Y493733D01*
X235600D01*
X239599Y496399D02*
X242265D01*
X240932D01*
Y492400D01*
X243597Y495732D02*
X244264Y496399D01*
X245597D01*
X246263Y495732D01*
Y495066D01*
X245597Y494399D01*
X244930D01*
X245597D01*
X246263Y493733D01*
Y493066D01*
X245597Y492400D01*
X244264D01*
X243597Y493066D01*
X285000Y458500D02*
Y462499D01*
X286999D01*
X287666Y461832D01*
Y460499D01*
X286999Y459833D01*
X285000D01*
X288999Y462499D02*
X291665D01*
X290332D01*
Y458500D01*
X295663D02*
X292997D01*
X295663Y461166D01*
Y461832D01*
X294997Y462499D01*
X293664D01*
X292997Y461832D01*
X130000Y492500D02*
Y496499D01*
X131999D01*
X132666Y495832D01*
Y494499D01*
X131999Y493833D01*
X130000D01*
X133999Y496499D02*
X136664D01*
X135332D01*
Y492500D01*
X137997D02*
X139330D01*
X138664D01*
Y496499D01*
X137997Y495832D01*
X160500Y434900D02*
Y438899D01*
X161833Y437566D01*
X163166Y438899D01*
Y434900D01*
X164499D02*
X165832D01*
X165165D01*
Y438899D01*
X164499Y438232D01*
X130866Y460832D02*
X130199Y461499D01*
X128867D01*
X128200Y460832D01*
Y458166D01*
X128867Y457500D01*
X130199D01*
X130866Y458166D01*
X132199Y457500D02*
X133532D01*
X132865D01*
Y461499D01*
X132199Y460832D01*
X138197Y457500D02*
X135531D01*
X138197Y460166D01*
Y460832D01*
X137530Y461499D01*
X136197D01*
X135531Y460832D01*
X123266Y445232D02*
X122599Y445899D01*
X121266D01*
X120600Y445232D01*
Y442566D01*
X121266Y441900D01*
X122599D01*
X123266Y442566D01*
X124599Y441900D02*
X125932D01*
X125265D01*
Y445899D01*
X124599Y445232D01*
X127931Y441900D02*
X129264D01*
X128597D01*
Y445899D01*
X127931Y445232D01*
X174466Y485232D02*
X173799Y485899D01*
X172467D01*
X171800Y485232D01*
Y482566D01*
X172467Y481900D01*
X173799D01*
X174466Y482566D01*
X175799Y481900D02*
X177132D01*
X176465D01*
Y485899D01*
X175799Y485232D01*
X179131D02*
X179797Y485899D01*
X181130D01*
X181797Y485232D01*
Y482566D01*
X181130Y481900D01*
X179797D01*
X179131Y482566D01*
Y485232D01*
X120066Y479132D02*
X119399Y479799D01*
X118067D01*
X117400Y479132D01*
Y476466D01*
X118067Y475800D01*
X119399D01*
X120066Y476466D01*
X121399D02*
X122065Y475800D01*
X123398D01*
X124065Y476466D01*
Y479132D01*
X123398Y479799D01*
X122065D01*
X121399Y479132D01*
Y478466D01*
X122065Y477799D01*
X124065D01*
X146032Y479365D02*
X145199Y480198D01*
X143533D01*
X142700Y479365D01*
Y476033D01*
X143533Y475200D01*
X145199D01*
X146032Y476033D01*
X147698Y480198D02*
X151031D01*
Y479365D01*
X147698Y476033D01*
Y475200D01*
X252066Y403632D02*
X251399Y404299D01*
X250066D01*
X249400Y403632D01*
Y400966D01*
X250066Y400300D01*
X251399D01*
X252066Y400966D01*
X256065Y404299D02*
X254732Y403632D01*
X253399Y402299D01*
Y400966D01*
X254065Y400300D01*
X255398D01*
X256065Y400966D01*
Y401633D01*
X255398Y402299D01*
X253399D01*
X190666Y415532D02*
X189999Y416199D01*
X188666D01*
X188000Y415532D01*
Y412866D01*
X188666Y412200D01*
X189999D01*
X190666Y412866D01*
X194665Y416199D02*
X191999D01*
Y414199D01*
X193332Y414866D01*
X193998D01*
X194665Y414199D01*
Y412866D01*
X193998Y412200D01*
X192665D01*
X191999Y412866D01*
X233566Y423732D02*
X232899Y424399D01*
X231566D01*
X230900Y423732D01*
Y421066D01*
X231566Y420400D01*
X232899D01*
X233566Y421066D01*
X236898Y420400D02*
Y424399D01*
X234899Y422399D01*
X237564D01*
X294666Y475132D02*
X293999Y475799D01*
X292666D01*
X292000Y475132D01*
Y472466D01*
X292666Y471800D01*
X293999D01*
X294666Y472466D01*
X298664Y471800D02*
X295999D01*
X298664Y474466D01*
Y475132D01*
X297998Y475799D01*
X296665D01*
X295999Y475132D01*
X294666Y325132D02*
X293999Y325799D01*
X292666D01*
X292000Y325132D01*
Y322466D01*
X292666Y321800D01*
X293999D01*
X294666Y322466D01*
X298664Y321800D02*
X295999D01*
X298664Y324466D01*
Y325132D01*
X297998Y325799D01*
X296665D01*
X295999Y325132D01*
X233566Y273732D02*
X232899Y274399D01*
X231566D01*
X230900Y273732D01*
Y271066D01*
X231566Y270400D01*
X232899D01*
X233566Y271066D01*
X236898Y270400D02*
Y274399D01*
X234899Y272399D01*
X237564D01*
X190666Y265532D02*
X189999Y266199D01*
X188666D01*
X188000Y265532D01*
Y262866D01*
X188666Y262200D01*
X189999D01*
X190666Y262866D01*
X194665Y266199D02*
X191999D01*
Y264199D01*
X193332Y264866D01*
X193998D01*
X194665Y264199D01*
Y262866D01*
X193998Y262200D01*
X192665D01*
X191999Y262866D01*
X252066Y253632D02*
X251399Y254299D01*
X250066D01*
X249400Y253632D01*
Y250966D01*
X250066Y250300D01*
X251399D01*
X252066Y250966D01*
X256065Y254299D02*
X254732Y253632D01*
X253399Y252299D01*
Y250966D01*
X254065Y250300D01*
X255398D01*
X256065Y250966D01*
Y251633D01*
X255398Y252299D01*
X253399D01*
X146032Y329365D02*
X145199Y330198D01*
X143533D01*
X142700Y329365D01*
Y326033D01*
X143533Y325200D01*
X145199D01*
X146032Y326033D01*
X147698Y330198D02*
X151031D01*
Y329365D01*
X147698Y326033D01*
Y325200D01*
X120066Y329132D02*
X119399Y329799D01*
X118067D01*
X117400Y329132D01*
Y326466D01*
X118067Y325800D01*
X119399D01*
X120066Y326466D01*
X121399D02*
X122065Y325800D01*
X123398D01*
X124065Y326466D01*
Y329132D01*
X123398Y329799D01*
X122065D01*
X121399Y329132D01*
Y328466D01*
X122065Y327799D01*
X124065D01*
X174466Y335232D02*
X173799Y335899D01*
X172467D01*
X171800Y335232D01*
Y332566D01*
X172467Y331900D01*
X173799D01*
X174466Y332566D01*
X175799Y331900D02*
X177132D01*
X176465D01*
Y335899D01*
X175799Y335232D01*
X179131D02*
X179797Y335899D01*
X181130D01*
X181797Y335232D01*
Y332566D01*
X181130Y331900D01*
X179797D01*
X179131Y332566D01*
Y335232D01*
X123266Y295232D02*
X122599Y295899D01*
X121266D01*
X120600Y295232D01*
Y292566D01*
X121266Y291900D01*
X122599D01*
X123266Y292566D01*
X124599Y291900D02*
X125932D01*
X125265D01*
Y295899D01*
X124599Y295232D01*
X127931Y291900D02*
X129264D01*
X128597D01*
Y295899D01*
X127931Y295232D01*
X130866Y310832D02*
X130199Y311499D01*
X128867D01*
X128200Y310832D01*
Y308166D01*
X128867Y307500D01*
X130199D01*
X130866Y308166D01*
X132199Y307500D02*
X133532D01*
X132865D01*
Y311499D01*
X132199Y310832D01*
X138197Y307500D02*
X135531D01*
X138197Y310166D01*
Y310832D01*
X137530Y311499D01*
X136197D01*
X135531Y310832D01*
X160500Y284900D02*
Y288899D01*
X161833Y287566D01*
X163166Y288899D01*
Y284900D01*
X164499D02*
X165832D01*
X165165D01*
Y288899D01*
X164499Y288232D01*
X130000Y342500D02*
Y346499D01*
X131999D01*
X132666Y345832D01*
Y344499D01*
X131999Y343833D01*
X130000D01*
X133999Y346499D02*
X136664D01*
X135332D01*
Y342500D01*
X137997D02*
X139330D01*
X138664D01*
Y346499D01*
X137997Y345832D01*
X285000Y308500D02*
Y312499D01*
X286999D01*
X287666Y311832D01*
Y310499D01*
X286999Y309833D01*
X285000D01*
X288999Y312499D02*
X291665D01*
X290332D01*
Y308500D01*
X295663D02*
X292997D01*
X295663Y311166D01*
Y311832D01*
X294997Y312499D01*
X293664D01*
X292997Y311832D01*
X235600Y342400D02*
Y346399D01*
X237599D01*
X238266Y345732D01*
Y344399D01*
X237599Y343733D01*
X235600D01*
X239599Y346399D02*
X242265D01*
X240932D01*
Y342400D01*
X243597Y345732D02*
X244264Y346399D01*
X245597D01*
X246263Y345732D01*
Y345066D01*
X245597Y344399D01*
X244930D01*
X245597D01*
X246263Y343733D01*
Y343066D01*
X245597Y342400D01*
X244264D01*
X243597Y343066D01*
X295400Y225000D02*
Y228999D01*
X297399D01*
X298066Y228332D01*
Y226999D01*
X297399Y226333D01*
X295400D01*
X299399Y228999D02*
X302064D01*
X300732D01*
Y225000D01*
X305397D02*
Y228999D01*
X303397Y226999D01*
X306063D01*
X260300Y225000D02*
Y228999D01*
X262299D01*
X262966Y228332D01*
Y226999D01*
X262299Y226333D01*
X260300D01*
X264299Y228999D02*
X266965D01*
X265632D01*
Y225000D01*
X270963Y228999D02*
X268297D01*
Y226999D01*
X269630Y227666D01*
X270297D01*
X270963Y226999D01*
Y225666D01*
X270297Y225000D01*
X268964D01*
X268297Y225666D01*
X285000Y294500D02*
Y298499D01*
X286999D01*
X287666Y297832D01*
Y296499D01*
X286999Y295833D01*
X285000D01*
X288999Y298499D02*
X291665D01*
X290332D01*
Y294500D01*
X295663Y298499D02*
X294330Y297832D01*
X292997Y296499D01*
Y295166D01*
X293664Y294500D01*
X294997D01*
X295663Y295166D01*
Y295833D01*
X294997Y296499D01*
X292997D01*
X154500Y332000D02*
Y335999D01*
X156499D01*
X157166Y335332D01*
Y333999D01*
X156499Y333333D01*
X154500D01*
X155833D02*
X157166Y332000D01*
X158499D02*
X159832D01*
X159165D01*
Y335999D01*
X158499Y335332D01*
X173100Y294800D02*
Y298799D01*
X175099D01*
X175766Y298132D01*
Y296799D01*
X175099Y296133D01*
X173100D01*
X174433D02*
X175766Y294800D01*
X177099Y298132D02*
X177765Y298799D01*
X179098D01*
X179764Y298132D01*
Y297466D01*
X179098Y296799D01*
X179764Y296133D01*
Y295466D01*
X179098Y294800D01*
X177765D01*
X177099Y295466D01*
Y296133D01*
X177765Y296799D01*
X177099Y297466D01*
Y298132D01*
X177765Y296799D02*
X179098D01*
X186700Y295900D02*
Y299899D01*
X188699D01*
X189366Y299232D01*
Y297899D01*
X188699Y297233D01*
X186700D01*
X188033D02*
X189366Y295900D01*
X190699Y296566D02*
X191365Y295900D01*
X192698D01*
X193365Y296566D01*
Y299232D01*
X192698Y299899D01*
X191365D01*
X190699Y299232D01*
Y298566D01*
X191365Y297899D01*
X193365D01*
X225100Y317600D02*
Y321599D01*
X227099D01*
X227766Y320932D01*
Y319599D01*
X227099Y318933D01*
X225100D01*
X226433D02*
X227766Y317600D01*
X229099D02*
X230432D01*
X229765D01*
Y321599D01*
X229099Y320932D01*
X232431D02*
X233097Y321599D01*
X234430D01*
X235097Y320932D01*
Y318266D01*
X234430Y317600D01*
X233097D01*
X232431Y318266D01*
Y320932D01*
X157100Y304100D02*
Y308099D01*
X159099D01*
X159766Y307432D01*
Y306099D01*
X159099Y305433D01*
X157100D01*
X158433D02*
X159766Y304100D01*
X161099D02*
X162432D01*
X161765D01*
Y308099D01*
X161099Y307432D01*
X164431Y304100D02*
X165764D01*
X165097D01*
Y308099D01*
X164431Y307432D01*
X175100Y264600D02*
Y268599D01*
X177099D01*
X177766Y267932D01*
Y266599D01*
X177099Y265933D01*
X175100D01*
X176433D02*
X177766Y264600D01*
X179099D02*
X180432D01*
X179765D01*
Y268599D01*
X179099Y267932D01*
X184430Y264600D02*
Y268599D01*
X182431Y266599D01*
X185097D01*
X134600Y281500D02*
Y285499D01*
X136599D01*
X137266Y284832D01*
Y283499D01*
X136599Y282833D01*
X134600D01*
X135933D02*
X137266Y281500D01*
X138599D02*
X139932D01*
X139265D01*
Y285499D01*
X138599Y284832D01*
X141931Y285499D02*
X144597D01*
Y284832D01*
X141931Y282166D01*
Y281500D01*
X145000Y255000D02*
Y258999D01*
X146999D01*
X147666Y258332D01*
Y256999D01*
X146999Y256333D01*
X145000D01*
X146333D02*
X147666Y255000D01*
X148999D02*
X150332D01*
X149665D01*
Y258999D01*
X148999Y258332D01*
X152331Y255666D02*
X152997Y255000D01*
X154330D01*
X154997Y255666D01*
Y258332D01*
X154330Y258999D01*
X152997D01*
X152331Y258332D01*
Y257666D01*
X152997Y256999D01*
X154997D01*
X121866Y260132D02*
X121199Y260799D01*
X119867D01*
X119200Y260132D01*
Y259466D01*
X119867Y258799D01*
X121199D01*
X121866Y258133D01*
Y257466D01*
X121199Y256800D01*
X119867D01*
X119200Y257466D01*
X123199Y260799D02*
Y256800D01*
X124532Y258133D01*
X125865Y256800D01*
Y260799D01*
X127197Y256800D02*
X128530D01*
X127864D01*
Y260799D01*
X127197Y260132D01*
X447868Y312866D02*
X447201Y312199D01*
Y310866D01*
X447868Y310200D01*
X448534D01*
X449201Y310866D01*
Y312199D01*
X449867Y312866D01*
X450534D01*
X451200Y312199D01*
Y310866D01*
X450534Y310200D01*
X447201Y314199D02*
X451200D01*
X449867Y315532D01*
X451200Y316864D01*
X447201D01*
X451200Y318197D02*
Y319530D01*
Y318864D01*
X447201D01*
X447868Y318197D01*
X453000Y336000D02*
X449001D01*
Y337999D01*
X449668Y338666D01*
X451001D01*
X451667Y337999D01*
Y336000D01*
Y337333D02*
X453000Y338666D01*
Y339999D02*
Y341332D01*
Y340665D01*
X449001D01*
X449668Y339999D01*
X452334Y343331D02*
X453000Y343997D01*
Y345330D01*
X452334Y345997D01*
X449668D01*
X449001Y345330D01*
Y343997D01*
X449668Y343331D01*
X450334D01*
X451001Y343997D01*
Y345997D01*
X426500Y325600D02*
X422501D01*
Y327599D01*
X423168Y328266D01*
X424501D01*
X425167Y327599D01*
Y325600D01*
Y326933D02*
X426500Y328266D01*
Y329599D02*
Y330932D01*
Y330265D01*
X422501D01*
X423168Y329599D01*
X422501Y332931D02*
Y335597D01*
X423168D01*
X425834Y332931D01*
X426500D01*
X443400Y366100D02*
X439401D01*
Y368099D01*
X440068Y368766D01*
X441401D01*
X442067Y368099D01*
Y366100D01*
Y367433D02*
X443400Y368766D01*
Y370099D02*
Y371432D01*
Y370765D01*
X439401D01*
X440068Y370099D01*
X443400Y375430D02*
X439401D01*
X441401Y373431D01*
Y376097D01*
X403900Y348100D02*
X399901D01*
Y350099D01*
X400568Y350766D01*
X401901D01*
X402567Y350099D01*
Y348100D01*
Y349433D02*
X403900Y350766D01*
Y352099D02*
Y353432D01*
Y352765D01*
X399901D01*
X400568Y352099D01*
X403900Y355431D02*
Y356764D01*
Y356097D01*
X399901D01*
X400568Y355431D01*
X390400Y416100D02*
X386401D01*
Y418099D01*
X387068Y418766D01*
X388401D01*
X389067Y418099D01*
Y416100D01*
Y417433D02*
X390400Y418766D01*
Y420099D02*
Y421432D01*
Y420765D01*
X386401D01*
X387068Y420099D01*
Y423431D02*
X386401Y424097D01*
Y425430D01*
X387068Y426097D01*
X389734D01*
X390400Y425430D01*
Y424097D01*
X389734Y423431D01*
X387068D01*
X412100Y377700D02*
X408101D01*
Y379699D01*
X408768Y380366D01*
X410101D01*
X410767Y379699D01*
Y377700D01*
Y379033D02*
X412100Y380366D01*
X411434Y381699D02*
X412100Y382365D01*
Y383698D01*
X411434Y384365D01*
X408768D01*
X408101Y383698D01*
Y382365D01*
X408768Y381699D01*
X409434D01*
X410101Y382365D01*
Y384365D01*
X413200Y364100D02*
X409201D01*
Y366099D01*
X409868Y366766D01*
X411201D01*
X411867Y366099D01*
Y364100D01*
Y365433D02*
X413200Y366766D01*
X409868Y368099D02*
X409201Y368765D01*
Y370098D01*
X409868Y370764D01*
X410534D01*
X411201Y370098D01*
X411867Y370764D01*
X412534D01*
X413200Y370098D01*
Y368765D01*
X412534Y368099D01*
X411867D01*
X411201Y368765D01*
X410534Y368099D01*
X409868D01*
X411201Y368765D02*
Y370098D01*
X376000Y345500D02*
X372001D01*
Y347499D01*
X372668Y348166D01*
X374001D01*
X374667Y347499D01*
Y345500D01*
Y346833D02*
X376000Y348166D01*
Y349499D02*
Y350832D01*
Y350165D01*
X372001D01*
X372668Y349499D01*
X413500Y476000D02*
X409501D01*
Y477999D01*
X410168Y478666D01*
X411501D01*
X412167Y477999D01*
Y476000D01*
X409501Y479999D02*
Y482664D01*
Y481332D01*
X413500D01*
X409501Y486663D02*
X410168Y485330D01*
X411501Y483997D01*
X412834D01*
X413500Y484664D01*
Y485997D01*
X412834Y486663D01*
X412167D01*
X411501Y485997D01*
Y483997D01*
X483000Y451300D02*
X479001D01*
Y453299D01*
X479668Y453966D01*
X481001D01*
X481667Y453299D01*
Y451300D01*
X479001Y455299D02*
Y457965D01*
Y456632D01*
X483000D01*
X479001Y461963D02*
Y459297D01*
X481001D01*
X480334Y460630D01*
Y461297D01*
X481001Y461963D01*
X482334D01*
X483000Y461297D01*
Y459964D01*
X482334Y459297D01*
X483000Y486400D02*
X479001D01*
Y488399D01*
X479668Y489066D01*
X481001D01*
X481667Y488399D01*
Y486400D01*
X479001Y490399D02*
Y493064D01*
Y491732D01*
X483000D01*
Y496397D02*
X479001D01*
X481001Y494397D01*
Y497063D01*
X365600Y426600D02*
X361601D01*
Y428599D01*
X362268Y429266D01*
X363601D01*
X364267Y428599D01*
Y426600D01*
X361601Y430599D02*
Y433264D01*
Y431932D01*
X365600D01*
X362268Y434597D02*
X361601Y435264D01*
Y436597D01*
X362268Y437263D01*
X362934D01*
X363601Y436597D01*
Y435930D01*
Y436597D01*
X364267Y437263D01*
X364934D01*
X365600Y436597D01*
Y435264D01*
X364934Y434597D01*
X399500Y476000D02*
X395501D01*
Y477999D01*
X396168Y478666D01*
X397501D01*
X398167Y477999D01*
Y476000D01*
X395501Y479999D02*
Y482664D01*
Y481332D01*
X399500D01*
Y486663D02*
Y483997D01*
X396834Y486663D01*
X396168D01*
X395501Y485997D01*
Y484664D01*
X396168Y483997D01*
X365500Y321000D02*
X361501D01*
Y322999D01*
X362168Y323666D01*
X363501D01*
X364167Y322999D01*
Y321000D01*
X361501Y324999D02*
Y327664D01*
Y326332D01*
X365500D01*
Y328997D02*
Y330330D01*
Y329664D01*
X361501D01*
X362168Y328997D01*
X423100Y351500D02*
X419101D01*
X420434Y352833D01*
X419101Y354166D01*
X423100D01*
Y355499D02*
Y356832D01*
Y356165D01*
X419101D01*
X419768Y355499D01*
X397168Y321866D02*
X396501Y321199D01*
Y319866D01*
X397168Y319200D01*
X399834D01*
X400500Y319866D01*
Y321199D01*
X399834Y321866D01*
X400500Y323199D02*
Y324532D01*
Y323865D01*
X396501D01*
X397168Y323199D01*
X400500Y329197D02*
Y326531D01*
X397834Y329197D01*
X397168D01*
X396501Y328530D01*
Y327197D01*
X397168Y326531D01*
X412768Y314266D02*
X412101Y313599D01*
Y312266D01*
X412768Y311600D01*
X415434D01*
X416100Y312266D01*
Y313599D01*
X415434Y314266D01*
X416100Y315599D02*
Y316932D01*
Y316265D01*
X412101D01*
X412768Y315599D01*
X416100Y318931D02*
Y320264D01*
Y319597D01*
X412101D01*
X412768Y318931D01*
X372768Y365466D02*
X372101Y364799D01*
Y363466D01*
X372768Y362800D01*
X375434D01*
X376100Y363466D01*
Y364799D01*
X375434Y365466D01*
X376100Y366799D02*
Y368132D01*
Y367465D01*
X372101D01*
X372768Y366799D01*
Y370131D02*
X372101Y370797D01*
Y372130D01*
X372768Y372797D01*
X375434D01*
X376100Y372130D01*
Y370797D01*
X375434Y370131D01*
X372768D01*
X378868Y311066D02*
X378201Y310399D01*
Y309066D01*
X378868Y308400D01*
X381534D01*
X382200Y309066D01*
Y310399D01*
X381534Y311066D01*
Y312399D02*
X382200Y313065D01*
Y314398D01*
X381534Y315065D01*
X378868D01*
X378201Y314398D01*
Y313065D01*
X378868Y312399D01*
X379534D01*
X380201Y313065D01*
Y315065D01*
X378635Y337032D02*
X377802Y336199D01*
Y334533D01*
X378635Y333700D01*
X381967D01*
X382800Y334533D01*
Y336199D01*
X381967Y337032D01*
X377802Y338698D02*
Y342031D01*
X378635D01*
X381967Y338698D01*
X382800D01*
X383633Y343697D02*
Y347029D01*
X382800Y348695D02*
Y350361D01*
Y349528D01*
X377802D01*
X378635Y348695D01*
X454368Y443066D02*
X453701Y442399D01*
Y441066D01*
X454368Y440400D01*
X457034D01*
X457700Y441066D01*
Y442399D01*
X457034Y443066D01*
X453701Y447064D02*
X454368Y445732D01*
X455701Y444399D01*
X457034D01*
X457700Y445065D01*
Y446398D01*
X457034Y447064D01*
X456367D01*
X455701Y446398D01*
Y444399D01*
X442468Y381666D02*
X441801Y380999D01*
Y379666D01*
X442468Y379000D01*
X445134D01*
X445800Y379666D01*
Y380999D01*
X445134Y381666D01*
X441801Y385665D02*
Y382999D01*
X443801D01*
X443134Y384332D01*
Y384998D01*
X443801Y385665D01*
X445134D01*
X445800Y384998D01*
Y383665D01*
X445134Y382999D01*
X434268Y424566D02*
X433601Y423899D01*
Y422566D01*
X434268Y421900D01*
X436934D01*
X437600Y422566D01*
Y423899D01*
X436934Y424566D01*
X437600Y427898D02*
X433601D01*
X435601Y425899D01*
Y428565D01*
X382868Y485666D02*
X382201Y484999D01*
Y483666D01*
X382868Y483000D01*
X385534D01*
X386200Y483666D01*
Y484999D01*
X385534Y485666D01*
X386200Y489665D02*
Y486999D01*
X383534Y489665D01*
X382868D01*
X382201Y488998D01*
Y487665D01*
X382868Y486999D01*
D81*
X150131Y426281D02*
Y431911D01*
X149639Y429037D02*
X162139D01*
X150131Y276281D02*
Y281911D01*
X149639Y279037D02*
X162139D01*
X426089Y341131D02*
X431719D01*
X428963Y340639D02*
Y353139D01*
D82*
X202732Y468665D02*
X201899Y469498D01*
X200233D01*
X199400Y468665D01*
Y465333D01*
X200233Y464500D01*
X201899D01*
X202732Y465333D01*
X204398Y464500D02*
Y469498D01*
X207731Y464500D01*
Y469498D01*
X209397Y464500D02*
X211063D01*
X210230D01*
Y469498D01*
X209397Y468665D01*
X213900Y410398D02*
Y406233D01*
X214733Y405400D01*
X216399D01*
X217232Y406233D01*
Y410398D01*
X218898Y409565D02*
X219731Y410398D01*
X221398D01*
X222231Y409565D01*
Y408732D01*
X221398Y407899D01*
X220565D01*
X221398D01*
X222231Y407066D01*
Y406233D01*
X221398Y405400D01*
X219731D01*
X218898Y406233D01*
X228900Y452200D02*
Y457198D01*
X231399D01*
X232232Y456365D01*
Y454699D01*
X231399Y453866D01*
X228900D01*
X230566D02*
X232232Y452200D01*
X236398D02*
X234731D01*
X233898Y453033D01*
Y454699D01*
X234731Y455532D01*
X236398D01*
X237231Y454699D01*
Y453866D01*
X233898D01*
X240563Y450534D02*
X241396D01*
X242229Y451367D01*
Y455532D01*
X239730D01*
X238897Y454699D01*
Y453033D01*
X239730Y452200D01*
X242229D01*
X243895D02*
X245561D01*
X244728D01*
Y457198D01*
X243895Y456365D01*
X142232Y379565D02*
X141399Y380398D01*
X139733D01*
X138900Y379565D01*
Y376233D01*
X139733Y375400D01*
X141399D01*
X142232Y376233D01*
X143898Y375400D02*
Y380398D01*
X147231Y375400D01*
Y380398D01*
X151396Y375400D02*
Y380398D01*
X148897Y377899D01*
X152229D01*
X142232Y229565D02*
X141399Y230398D01*
X139733D01*
X138900Y229565D01*
Y226233D01*
X139733Y225400D01*
X141399D01*
X142232Y226233D01*
X143898Y225400D02*
Y230398D01*
X147231Y225400D01*
Y230398D01*
X151396Y225400D02*
Y230398D01*
X148897Y227899D01*
X152229D01*
X228900Y302200D02*
Y307198D01*
X231399D01*
X232232Y306365D01*
Y304699D01*
X231399Y303866D01*
X228900D01*
X230566D02*
X232232Y302200D01*
X236398D02*
X234731D01*
X233898Y303033D01*
Y304699D01*
X234731Y305532D01*
X236398D01*
X237231Y304699D01*
Y303866D01*
X233898D01*
X240563Y300534D02*
X241396D01*
X242229Y301367D01*
Y305532D01*
X239730D01*
X238897Y304699D01*
Y303033D01*
X239730Y302200D01*
X242229D01*
X243895D02*
X245561D01*
X244728D01*
Y307198D01*
X243895Y306365D01*
X213900Y260398D02*
Y256233D01*
X214733Y255400D01*
X216399D01*
X217232Y256233D01*
Y260398D01*
X218898Y259565D02*
X219731Y260398D01*
X221398D01*
X222231Y259565D01*
Y258732D01*
X221398Y257899D01*
X220565D01*
X221398D01*
X222231Y257066D01*
Y256233D01*
X221398Y255400D01*
X219731D01*
X218898Y256233D01*
X202732Y318665D02*
X201899Y319498D01*
X200233D01*
X199400Y318665D01*
Y315333D01*
X200233Y314500D01*
X201899D01*
X202732Y315333D01*
X204398Y314500D02*
Y319498D01*
X207731Y314500D01*
Y319498D01*
X209397Y314500D02*
X211063D01*
X210230D01*
Y319498D01*
X209397Y318665D01*
X389335Y393732D02*
X388502Y392899D01*
Y391233D01*
X389335Y390400D01*
X392667D01*
X393500Y391233D01*
Y392899D01*
X392667Y393732D01*
X393500Y395398D02*
X388502D01*
X393500Y398731D01*
X388502D01*
X393500Y400397D02*
Y402063D01*
Y401230D01*
X388502D01*
X389335Y400397D01*
X447602Y404900D02*
X451767D01*
X452600Y405733D01*
Y407399D01*
X451767Y408232D01*
X447602D01*
X448435Y409898D02*
X447602Y410731D01*
Y412398D01*
X448435Y413231D01*
X449268D01*
X450101Y412398D01*
Y411564D01*
Y412398D01*
X450934Y413231D01*
X451767D01*
X452600Y412398D01*
Y410731D01*
X451767Y409898D01*
X405800Y419900D02*
X400802D01*
Y422399D01*
X401635Y423232D01*
X403301D01*
X404134Y422399D01*
Y419900D01*
Y421566D02*
X405800Y423232D01*
Y427398D02*
Y425731D01*
X404967Y424898D01*
X403301D01*
X402468Y425731D01*
Y427398D01*
X403301Y428231D01*
X404134D01*
Y424898D01*
X407466Y431563D02*
Y432396D01*
X406633Y433229D01*
X402468D01*
Y430730D01*
X403301Y429897D01*
X404967D01*
X405800Y430730D01*
Y433229D01*
Y434895D02*
Y436561D01*
Y435728D01*
X400802D01*
X401635Y434895D01*
X478435Y333232D02*
X477602Y332399D01*
Y330733D01*
X478435Y329900D01*
X481767D01*
X482600Y330733D01*
Y332399D01*
X481767Y333232D01*
X482600Y334898D02*
X477602D01*
X482600Y338231D01*
X477602D01*
X482600Y342396D02*
X477602D01*
X480101Y339897D01*
Y343229D01*
X147825Y161823D02*
X151990D01*
X152823Y162656D01*
Y164322D01*
X151990Y165155D01*
X147825D01*
X152823Y169320D02*
X147825D01*
X150324Y166821D01*
Y170153D01*
X178000Y122500D02*
X173002D01*
Y124999D01*
X173835Y125832D01*
X175501D01*
X176334Y124999D01*
Y122500D01*
Y124166D02*
X178000Y125832D01*
X173835Y127498D02*
X173002Y128331D01*
Y129998D01*
X173835Y130831D01*
X174668D01*
X175501Y129998D01*
Y129165D01*
Y129998D01*
X176334Y130831D01*
X177167D01*
X178000Y129998D01*
Y128331D01*
X177167Y127498D01*
X178000Y149000D02*
X173002D01*
Y151499D01*
X173835Y152332D01*
X175501D01*
X176334Y151499D01*
Y149000D01*
Y150666D02*
X178000Y152332D01*
Y157331D02*
Y153998D01*
X174668Y157331D01*
X173835D01*
X173002Y156498D01*
Y154831D01*
X173835Y153998D01*
X178000Y136500D02*
X173002D01*
Y138999D01*
X173835Y139832D01*
X175501D01*
X176334Y138999D01*
Y136500D01*
Y138166D02*
X178000Y139832D01*
Y141498D02*
Y143165D01*
Y142331D01*
X173002D01*
X173835Y141498D01*
X132668Y174335D02*
X133501Y173502D01*
X135167D01*
X136000Y174335D01*
Y177667D01*
X135167Y178500D01*
X133501D01*
X132668Y177667D01*
X131002Y178500D02*
Y173502D01*
X127669Y178500D01*
Y173502D01*
X126003Y178500D02*
X124337D01*
X125170D01*
Y173502D01*
X126003Y174335D01*
X200668D02*
X201501Y173502D01*
X203167D01*
X204000Y174335D01*
Y177667D01*
X203167Y178500D01*
X201501D01*
X200668Y177667D01*
X199002Y178500D02*
Y173502D01*
X195669Y178500D01*
Y173502D01*
X194003Y178500D02*
X192337D01*
X193170D01*
Y173502D01*
X194003Y174335D01*
X246000Y136500D02*
X241002D01*
Y138999D01*
X241835Y139832D01*
X243501D01*
X244334Y138999D01*
Y136500D01*
Y138166D02*
X246000Y139832D01*
Y141498D02*
Y143165D01*
Y142331D01*
X241002D01*
X241835Y141498D01*
X246000Y149000D02*
X241002D01*
Y151499D01*
X241835Y152332D01*
X243501D01*
X244334Y151499D01*
Y149000D01*
Y150666D02*
X246000Y152332D01*
Y157331D02*
Y153998D01*
X242668Y157331D01*
X241835D01*
X241002Y156498D01*
Y154831D01*
X241835Y153998D01*
X246000Y122500D02*
X241002D01*
Y124999D01*
X241835Y125832D01*
X243501D01*
X244334Y124999D01*
Y122500D01*
Y124166D02*
X246000Y125832D01*
X241835Y127498D02*
X241002Y128331D01*
Y129998D01*
X241835Y130831D01*
X242668D01*
X243501Y129998D01*
Y129165D01*
Y129998D01*
X244334Y130831D01*
X245167D01*
X246000Y129998D01*
Y128331D01*
X245167Y127498D01*
X215824Y161823D02*
X219990D01*
X220823Y162656D01*
Y164322D01*
X219990Y165155D01*
X215824D01*
X220823Y169320D02*
X215824D01*
X218324Y166821D01*
Y170153D01*
X351824Y161823D02*
X355990D01*
X356823Y162656D01*
Y164322D01*
X355990Y165155D01*
X351824D01*
X356823Y169320D02*
X351824D01*
X354324Y166821D01*
Y170153D01*
X382000Y122500D02*
X377002D01*
Y124999D01*
X377835Y125832D01*
X379501D01*
X380334Y124999D01*
Y122500D01*
Y124166D02*
X382000Y125832D01*
X377835Y127498D02*
X377002Y128331D01*
Y129998D01*
X377835Y130831D01*
X378668D01*
X379501Y129998D01*
Y129165D01*
Y129998D01*
X380334Y130831D01*
X381167D01*
X382000Y129998D01*
Y128331D01*
X381167Y127498D01*
X382000Y149000D02*
X377002D01*
Y151499D01*
X377835Y152332D01*
X379501D01*
X380334Y151499D01*
Y149000D01*
Y150666D02*
X382000Y152332D01*
Y157331D02*
Y153998D01*
X378668Y157331D01*
X377835D01*
X377002Y156498D01*
Y154831D01*
X377835Y153998D01*
X382000Y136500D02*
X377002D01*
Y138999D01*
X377835Y139832D01*
X379501D01*
X380334Y138999D01*
Y136500D01*
Y138166D02*
X382000Y139832D01*
Y141498D02*
Y143165D01*
Y142331D01*
X377002D01*
X377835Y141498D01*
X336668Y174335D02*
X337501Y173502D01*
X339167D01*
X340000Y174335D01*
Y177667D01*
X339167Y178500D01*
X337501D01*
X336668Y177667D01*
X335002Y178500D02*
Y173502D01*
X331669Y178500D01*
Y173502D01*
X330003Y178500D02*
X328337D01*
X329170D01*
Y173502D01*
X330003Y174335D01*
X268668D02*
X269501Y173502D01*
X271167D01*
X272000Y174335D01*
Y177667D01*
X271167Y178500D01*
X269501D01*
X268668Y177667D01*
X267002Y178500D02*
Y173502D01*
X263669Y178500D01*
Y173502D01*
X262003Y178500D02*
X260337D01*
X261170D01*
Y173502D01*
X262003Y174335D01*
X314000Y136500D02*
X309002D01*
Y138999D01*
X309835Y139832D01*
X311501D01*
X312334Y138999D01*
Y136500D01*
Y138166D02*
X314000Y139832D01*
Y141498D02*
Y143165D01*
Y142331D01*
X309002D01*
X309835Y141498D01*
X314000Y149000D02*
X309002D01*
Y151499D01*
X309835Y152332D01*
X311501D01*
X312334Y151499D01*
Y149000D01*
Y150666D02*
X314000Y152332D01*
Y157331D02*
Y153998D01*
X310668Y157331D01*
X309835D01*
X309002Y156498D01*
Y154831D01*
X309835Y153998D01*
X314000Y122500D02*
X309002D01*
Y124999D01*
X309835Y125832D01*
X311501D01*
X312334Y124999D01*
Y122500D01*
Y124166D02*
X314000Y125832D01*
X309835Y127498D02*
X309002Y128331D01*
Y129998D01*
X309835Y130831D01*
X310668D01*
X311501Y129998D01*
Y129165D01*
Y129998D01*
X312334Y130831D01*
X313167D01*
X314000Y129998D01*
Y128331D01*
X313167Y127498D01*
X283824Y161823D02*
X287990D01*
X288823Y162656D01*
Y164322D01*
X287990Y165155D01*
X283824D01*
X288823Y169320D02*
X283824D01*
X286324Y166821D01*
Y170153D01*
X403668Y174335D02*
X404501Y173502D01*
X406167D01*
X407000Y174335D01*
Y177667D01*
X406167Y178500D01*
X404501D01*
X403668Y177667D01*
X402002Y178500D02*
Y173502D01*
X398669Y178500D01*
Y173502D01*
X397003Y178500D02*
X395337D01*
X396170D01*
Y173502D01*
X397003Y174335D01*
X449000Y136500D02*
X444002D01*
Y138999D01*
X444835Y139832D01*
X446501D01*
X447334Y138999D01*
Y136500D01*
Y138166D02*
X449000Y139832D01*
Y141498D02*
Y143165D01*
Y142331D01*
X444002D01*
X444835Y141498D01*
X449000Y149000D02*
X444002D01*
Y151499D01*
X444835Y152332D01*
X446501D01*
X447334Y151499D01*
Y149000D01*
Y150666D02*
X449000Y152332D01*
Y157331D02*
Y153998D01*
X445668Y157331D01*
X444835D01*
X444002Y156498D01*
Y154831D01*
X444835Y153998D01*
X449000Y122500D02*
X444002D01*
Y124999D01*
X444835Y125832D01*
X446501D01*
X447334Y124999D01*
Y122500D01*
Y124166D02*
X449000Y125832D01*
X444835Y127498D02*
X444002Y128331D01*
Y129998D01*
X444835Y130831D01*
X445668D01*
X446501Y129998D01*
Y129165D01*
Y129998D01*
X447334Y130831D01*
X448167D01*
X449000Y129998D01*
Y128331D01*
X448167Y127498D01*
X418824Y161823D02*
X422990D01*
X423823Y162656D01*
Y164322D01*
X422990Y165155D01*
X418824D01*
X423823Y169320D02*
X418824D01*
X421324Y166821D01*
Y170153D01*
X467324Y253323D02*
X471490D01*
X472323Y254156D01*
Y255822D01*
X471490Y256655D01*
X467324D01*
X472323Y260820D02*
X467324D01*
X469824Y258321D01*
Y261653D01*
X497500Y214000D02*
X492502D01*
Y216499D01*
X493335Y217332D01*
X495001D01*
X495834Y216499D01*
Y214000D01*
Y215666D02*
X497500Y217332D01*
X493335Y218998D02*
X492502Y219831D01*
Y221498D01*
X493335Y222331D01*
X494168D01*
X495001Y221498D01*
Y220665D01*
Y221498D01*
X495834Y222331D01*
X496667D01*
X497500Y221498D01*
Y219831D01*
X496667Y218998D01*
X497500Y240500D02*
X492502D01*
Y242999D01*
X493335Y243832D01*
X495001D01*
X495834Y242999D01*
Y240500D01*
Y242166D02*
X497500Y243832D01*
Y248831D02*
Y245498D01*
X494168Y248831D01*
X493335D01*
X492502Y247998D01*
Y246331D01*
X493335Y245498D01*
X497500Y228000D02*
X492502D01*
Y230499D01*
X493335Y231332D01*
X495001D01*
X495834Y230499D01*
Y228000D01*
Y229666D02*
X497500Y231332D01*
Y232998D02*
Y234665D01*
Y233831D01*
X492502D01*
X493335Y232998D01*
X453668Y265335D02*
X454501Y264502D01*
X456167D01*
X457000Y265335D01*
Y268667D01*
X456167Y269500D01*
X454501D01*
X453668Y268667D01*
X452002Y269500D02*
Y264502D01*
X448669Y269500D01*
Y264502D01*
X447003Y269500D02*
X445337D01*
X446170D01*
Y264502D01*
X447003Y265335D01*
X339824Y253323D02*
X343990D01*
X344823Y254156D01*
Y255822D01*
X343990Y256655D01*
X339824D01*
X344823Y260820D02*
X339824D01*
X342324Y258321D01*
Y261653D01*
X370000Y214000D02*
X365002D01*
Y216499D01*
X365835Y217332D01*
X367501D01*
X368334Y216499D01*
Y214000D01*
Y215666D02*
X370000Y217332D01*
X365835Y218998D02*
X365002Y219831D01*
Y221498D01*
X365835Y222331D01*
X366668D01*
X367501Y221498D01*
Y220665D01*
Y221498D01*
X368334Y222331D01*
X369167D01*
X370000Y221498D01*
Y219831D01*
X369167Y218998D01*
X370000Y240500D02*
X365002D01*
Y242999D01*
X365835Y243832D01*
X367501D01*
X368334Y242999D01*
Y240500D01*
Y242166D02*
X370000Y243832D01*
Y248831D02*
Y245498D01*
X366668Y248831D01*
X365835D01*
X365002Y247998D01*
Y246331D01*
X365835Y245498D01*
X370000Y228000D02*
X365002D01*
Y230499D01*
X365835Y231332D01*
X367501D01*
X368334Y230499D01*
Y228000D01*
Y229666D02*
X370000Y231332D01*
Y232998D02*
Y234665D01*
Y233831D01*
X365002D01*
X365835Y232998D01*
X324668Y265835D02*
X325501Y265002D01*
X327167D01*
X328000Y265835D01*
Y269167D01*
X327167Y270000D01*
X325501D01*
X324668Y269167D01*
X323002Y270000D02*
Y265002D01*
X319669Y270000D01*
Y265002D01*
X318003Y270000D02*
X316337D01*
X317170D01*
Y265002D01*
X318003Y265835D01*
X388668D02*
X389501Y265002D01*
X391167D01*
X392000Y265835D01*
Y269167D01*
X391167Y270000D01*
X389501D01*
X388668Y269167D01*
X387002Y270000D02*
Y265002D01*
X383669Y270000D01*
Y265002D01*
X382003Y270000D02*
X380337D01*
X381170D01*
Y265002D01*
X382003Y265835D01*
X434000Y228000D02*
X429002D01*
Y230499D01*
X429835Y231332D01*
X431501D01*
X432334Y230499D01*
Y228000D01*
Y229666D02*
X434000Y231332D01*
Y232998D02*
Y234665D01*
Y233831D01*
X429002D01*
X429835Y232998D01*
X434000Y240500D02*
X429002D01*
Y242999D01*
X429835Y243832D01*
X431501D01*
X432334Y242999D01*
Y240500D01*
Y242166D02*
X434000Y243832D01*
Y248831D02*
Y245498D01*
X430668Y248831D01*
X429835D01*
X429002Y247998D01*
Y246331D01*
X429835Y245498D01*
X434000Y214000D02*
X429002D01*
Y216499D01*
X429835Y217332D01*
X431501D01*
X432334Y216499D01*
Y214000D01*
Y215666D02*
X434000Y217332D01*
X429835Y218998D02*
X429002Y219831D01*
Y221498D01*
X429835Y222331D01*
X430668D01*
X431501Y221498D01*
Y220665D01*
Y221498D01*
X432334Y222331D01*
X433167D01*
X434000Y221498D01*
Y219831D01*
X433167Y218998D01*
X403824Y253323D02*
X407990D01*
X408823Y254156D01*
Y255822D01*
X407990Y256655D01*
X403824D01*
X408823Y260820D02*
X403824D01*
X406324Y258321D01*
Y261653D01*
D83*
X196150Y407050D02*
D03*
Y257050D02*
D03*
D84*
X450950Y387150D02*
D03*
M02*
