M48
;Layer_Color=9474304
;FILE_FORMAT=2:5
INCH,LZ
;TYPE=PLATED
T1F00S00C0.01575
T2F00S00C0.01800
T3F00S00C0.02400
T4F00S00C0.03150
T6F00S00C0.03200
T8F00S00C0.04331
T9F00S00C0.12200
%
T01
X0265895Y0289289
X0268651Y0294801
X0262352
Y03011
Y0307399
X0268651
Y03011
X0265895Y0312911
Y0439289
X0268651Y0444801
X0262352
Y04511
Y0457399
X0268651
Y04511
X0265895Y0462911
X0395089Y0456895
X0400601Y0459651
Y0453352
X04069
X0413199
Y0459651
X04069
X0418711Y0456895
T02
X01525Y0134
Y01465
X0154Y01545
X0142Y01503
X021
X02205Y01465
X0222Y01545
X02205Y0134
X02885
Y01465
X029Y01545
X0278Y01503
X0346
X03565Y01465
X0358Y01545
X03565Y0134
X04235
Y01465
X0425Y01545
X0413Y01503
X0472Y02255
Y0238
X04735Y0246
X04615Y02418
X041Y0246
X04085Y0238
Y02255
X0398Y02418
X0346Y0246
X03445Y0238
Y02255
X0334Y02418
X02536Y02311
X02317Y02364
X02288Y02274
X02147Y0234
X02053Y02486
X02213Y02667
X02567Y02707
X02355Y0295
X0168Y02951
X0161
X01693Y0269
X01401Y02491
X01221Y03116
X01401Y03991
X01221Y04616
X01733Y04626
X0168Y04451
X0161
X01693Y0419
X02213Y04167
X02053Y03986
X02147Y0384
X02317Y03864
X02288Y03774
X02536Y03811
X02567Y04207
X02355Y0445
X01733Y03126
X03964Y03131
X03954Y03643
X04129Y0359
Y0352
X0439Y03603
X04589Y03311
X04594Y03963
X04413Y04123
X04373Y04477
X0413Y04265
X04716Y04227
X04806Y04198
X0474Y04057
X04769Y04446
T03
X03294Y01618
X03964
X03814Y02533
X04449
X03174
X02658Y02526
X01996Y02666
X01734Y02495
X02237Y0304
X02205Y03124
X01934Y01618
X02614
X01254
X01522Y02896
X01354Y03364
X01522Y04396
X01734Y03995
X01996Y04166
X02237Y0454
X02205Y04624
X02658Y04026
X02681Y0333
X03716Y03264
X04184Y03432
X04585Y03644
X04414Y03906
X0404Y04147
X03956Y04115
X0375Y04591
X04554Y04568
X02681Y0483
X01354Y04864
T04
X04695Y0278
X04795
X04895
X04595
X04495
X0426
X0416
X0406
X0396
X0386
X0362
X0352
X0342
X0332
X0322
X0334Y01865
X0344
X0354
X0364
X0374
X0401
X0411
X0421
X0431
X0441
X0306
X0296
X0286
X0276
X0266
X0238
X0228
X0218
X0208
X0198
X017
X016
X01641Y02371
X01741
X02361Y02191
X02461
X02881Y02351
Y02451
Y02551
Y02651
Y02751
X01541Y02371
X01441
X014Y01865
X015
X013
X01441Y03871
X01541
X01641
X01741
X02361Y03691
X02461
X02881Y03851
Y03951
Y04051
Y04151
Y04251
X04889Y04271
Y04371
X04709Y03651
Y03551
Y03451
Y03351
X04729Y04791
X04629
X04529
X04429
X04329
T06
X01841Y02195
X02043
X01941Y02311
X01841Y03695
X02043
X01941Y03811
X04769Y03851
X04885Y03751
Y03953
T08
X02621Y02191
X0296032Y0219068
X03001Y02904
Y03051
X01241Y03411
X02301
X02621Y03691
X0296032Y0369068
X03001Y04404
Y04551
X03669Y04211
Y03151
X04889Y04531
X0488932Y0487032
X04176Y04911
X04029
X02301
X01241
T09
X01251Y02231
Y03731
X02964Y03371
X04849Y03161
X03709Y04874
X02964Y04871
M30
