%FSLAX25Y25*%
%MOIN*%
G70*
G01*
G75*
G04 Layer_Color=16711935*
%ADD10R,0.01772X0.06299*%
%ADD11R,0.06299X0.13386*%
%ADD12R,0.05512X0.01654*%
%ADD13R,0.04724X0.04724*%
%ADD14R,0.08465X0.05000*%
%ADD15R,0.09000X0.15000*%
%ADD16R,0.05906X0.03937*%
%ADD17R,0.03937X0.05906*%
%ADD18R,0.07874X0.11024*%
%ADD19R,0.03500X0.05000*%
%ADD20R,0.07874X0.15748*%
%ADD21R,0.06299X0.09449*%
%ADD22R,0.05512X0.07087*%
%ADD23R,0.05906X0.15748*%
%ADD24R,0.06299X0.01772*%
%ADD25R,0.13386X0.06299*%
%ADD26R,0.01654X0.05512*%
%ADD27R,0.04724X0.04724*%
%ADD28R,0.05000X0.08465*%
%ADD29R,0.15000X0.09000*%
%ADD30R,0.11024X0.07874*%
%ADD31R,0.15748X0.05906*%
%ADD32R,0.05000X0.03500*%
%ADD33R,0.15748X0.07874*%
%ADD34R,0.09449X0.06299*%
%ADD35R,0.07087X0.05512*%
%ADD36R,0.06600X0.01700*%
%ADD37C,0.02500*%
%ADD38C,0.02000*%
%ADD39C,0.03000*%
%ADD40C,0.01500*%
%ADD41C,0.04000*%
%ADD42C,0.01000*%
%ADD43C,0.01800*%
%ADD44R,0.01600X0.04800*%
%ADD45R,0.34200X0.03200*%
%ADD46R,0.14413X0.28346*%
%ADD47R,0.04800X0.01600*%
%ADD48R,0.03200X0.34200*%
%ADD49R,0.28346X0.14413*%
%ADD50C,0.15800*%
%ADD51R,0.05512X0.07874*%
%ADD52R,0.05118X0.07874*%
%ADD53C,0.07874*%
%ADD54R,0.07874X0.05512*%
%ADD55R,0.07874X0.05118*%
%ADD56C,0.05000*%
%ADD57C,0.04000*%
%ADD58C,0.06000*%
%ADD59C,0.03937*%
%ADD60R,0.09449X0.04724*%
%ADD61R,0.04724X0.11024*%
%ADD62R,0.03000X0.10000*%
%ADD63R,0.10000X0.20000*%
%ADD64R,0.06299X0.05512*%
%ADD65R,0.09843X0.14961*%
%ADD66R,0.04724X0.09449*%
%ADD67R,0.11024X0.04724*%
%ADD68R,0.10000X0.03000*%
%ADD69R,0.20000X0.10000*%
%ADD70R,0.05512X0.06299*%
%ADD71R,0.14961X0.09843*%
%ADD72R,0.03150X0.04724*%
%ADD73C,0.03500*%
%ADD74R,0.26400X0.28346*%
%ADD75R,0.28346X0.26400*%
%ADD76C,0.00200*%
%ADD77C,0.00591*%
%ADD78C,0.00394*%
%ADD79C,0.00787*%
%ADD80C,0.00500*%
%ADD81C,0.00050*%
%ADD82C,0.00800*%
%ADD83R,0.02300X0.06299*%
%ADD84R,0.06299X0.02300*%
%ADD85R,0.02572X0.07099*%
%ADD86R,0.07099X0.14186*%
%ADD87R,0.06312X0.02454*%
%ADD88R,0.05524X0.05524*%
%ADD89R,0.09265X0.05800*%
%ADD90R,0.09800X0.15800*%
%ADD91R,0.06706X0.04737*%
%ADD92R,0.04737X0.06706*%
%ADD93R,0.08674X0.11824*%
%ADD94R,0.04300X0.05800*%
%ADD95R,0.08674X0.16548*%
%ADD96R,0.07099X0.10249*%
%ADD97R,0.06312X0.07887*%
%ADD98R,0.06706X0.16548*%
%ADD99R,0.07099X0.02572*%
%ADD100R,0.14186X0.07099*%
%ADD101R,0.02454X0.06312*%
%ADD102R,0.05524X0.05524*%
%ADD103R,0.05800X0.09265*%
%ADD104R,0.15800X0.09800*%
%ADD105R,0.11824X0.08674*%
%ADD106R,0.16548X0.06706*%
%ADD107R,0.05800X0.04300*%
%ADD108R,0.16548X0.08674*%
%ADD109R,0.10249X0.07099*%
%ADD110R,0.07887X0.06312*%
%ADD111R,0.07400X0.02500*%
%ADD112C,0.16600*%
%ADD113R,0.06312X0.08674*%
%ADD114R,0.05918X0.08674*%
%ADD115C,0.08674*%
%ADD116R,0.08674X0.06312*%
%ADD117R,0.08674X0.05918*%
%ADD118C,0.05800*%
%ADD119C,0.04800*%
%ADD120C,0.06800*%
%ADD121C,0.04737*%
%ADD122R,0.10249X0.05524*%
%ADD123R,0.05524X0.11824*%
%ADD124R,0.03800X0.10800*%
%ADD125R,0.10800X0.20800*%
%ADD126R,0.07099X0.06312*%
%ADD127R,0.10642X0.15761*%
%ADD128R,0.05524X0.10249*%
%ADD129R,0.11824X0.05524*%
%ADD130R,0.10800X0.03800*%
%ADD131R,0.20800X0.10800*%
%ADD132R,0.06312X0.07099*%
%ADD133R,0.15761X0.10642*%
%ADD134R,0.03950X0.05524*%
D42*
X110000Y110000D02*
Y504000D01*
Y110000D02*
X504000D01*
Y504000D01*
X110000D02*
X504000D01*
X308100Y362100D02*
Y498100D01*
X114100D02*
X308100D01*
X114100Y362100D02*
X308100D01*
X114100D02*
Y498100D01*
Y212100D02*
Y348100D01*
Y212100D02*
X308100D01*
X114100Y348100D02*
X308100D01*
Y212100D02*
Y348100D01*
X359900Y499100D02*
X495900D01*
X359900Y305100D02*
Y499100D01*
X495900Y305100D02*
Y499100D01*
X359900Y305100D02*
X495900D01*
X120000Y196500D02*
X180000D01*
X120000Y118500D02*
Y196500D01*
Y118500D02*
X180000D01*
Y196500D01*
X248000Y118500D02*
Y196500D01*
X188000Y118500D02*
X248000D01*
X188000D02*
Y196500D01*
X248000D01*
X324000D02*
X384000D01*
X324000Y118500D02*
Y196500D01*
Y118500D02*
X384000D01*
Y196500D01*
X316000Y118500D02*
Y196500D01*
X256000Y118500D02*
X316000D01*
X256000D02*
Y196500D01*
X316000D01*
X451000Y118500D02*
Y196500D01*
X391000Y118500D02*
X451000D01*
X391000D02*
Y196500D01*
X451000D01*
X439500Y288000D02*
X499500D01*
X439500Y210000D02*
Y288000D01*
Y210000D02*
X499500D01*
Y288000D01*
X312000D02*
X372000D01*
X312000Y210000D02*
Y288000D01*
Y210000D02*
X372000D01*
Y288000D01*
X436000Y210000D02*
Y288000D01*
X376000Y210000D02*
X436000D01*
X376000D02*
Y288000D01*
X436000D01*
D91*
X221768Y384132D02*
D03*
Y375132D02*
D03*
Y234132D02*
D03*
Y225132D02*
D03*
X466868Y387768D02*
D03*
Y378768D02*
D03*
X464868Y437268D02*
D03*
Y428268D02*
D03*
X476868Y427768D02*
D03*
Y436768D02*
D03*
X476900Y452100D02*
D03*
Y461100D02*
D03*
X464868Y454768D02*
D03*
Y445768D02*
D03*
X404000Y433100D02*
D03*
Y424100D02*
D03*
D92*
X196768Y391132D02*
D03*
X187768D02*
D03*
X246268Y393132D02*
D03*
X237268D02*
D03*
X236768Y381132D02*
D03*
X245768D02*
D03*
X261100Y381100D02*
D03*
X270100D02*
D03*
X263768Y393132D02*
D03*
X254768D02*
D03*
X242100Y454000D02*
D03*
X233100D02*
D03*
X242100Y304000D02*
D03*
X233100D02*
D03*
X263768Y243132D02*
D03*
X254768D02*
D03*
X261100Y231100D02*
D03*
X270100D02*
D03*
X236768Y231132D02*
D03*
X245768D02*
D03*
X246268Y243132D02*
D03*
X237268D02*
D03*
X196768Y241132D02*
D03*
X187768D02*
D03*
X473868Y412768D02*
D03*
X482868D02*
D03*
D97*
X211768Y393132D02*
D03*
X226335D02*
D03*
X211768Y243132D02*
D03*
X226335D02*
D03*
X166000Y167000D02*
D03*
X151433D02*
D03*
X234000D02*
D03*
X219433D02*
D03*
X370000D02*
D03*
X355433D02*
D03*
X302000D02*
D03*
X287433D02*
D03*
X437000D02*
D03*
X422433D02*
D03*
X485500Y258500D02*
D03*
X470933D02*
D03*
X358000D02*
D03*
X343433D02*
D03*
X422000D02*
D03*
X407433D02*
D03*
D98*
X184100Y375100D02*
D03*
X204100D02*
D03*
X184100Y225100D02*
D03*
X204100D02*
D03*
D106*
X482900Y375100D02*
D03*
Y395100D02*
D03*
D110*
X464868Y402768D02*
D03*
Y417335D02*
D03*
D112*
X296400Y487100D02*
D03*
X125100Y373100D02*
D03*
Y223100D02*
D03*
X296400Y337100D02*
D03*
X370900Y487400D02*
D03*
X484900Y316100D02*
D03*
D113*
X195372Y489817D02*
D03*
X216828D02*
D03*
X195372Y339816D02*
D03*
X216828D02*
D03*
D114*
X215647Y477887D02*
D03*
X196553D02*
D03*
X215647Y327887D02*
D03*
X196553D02*
D03*
D115*
X300100Y440400D02*
D03*
X262100Y369100D02*
D03*
X296032Y369068D02*
D03*
X230100Y491100D02*
D03*
X300100Y455100D02*
D03*
X124100Y491100D02*
D03*
X236100Y369100D02*
D03*
X246100D02*
D03*
X174100Y387100D02*
D03*
X164100D02*
D03*
X154100D02*
D03*
X144100D02*
D03*
X288100Y425100D02*
D03*
Y385100D02*
D03*
Y395100D02*
D03*
Y405100D02*
D03*
Y415100D02*
D03*
Y275100D02*
D03*
Y235100D02*
D03*
Y245100D02*
D03*
Y255100D02*
D03*
Y265100D02*
D03*
X174100Y237100D02*
D03*
X164100D02*
D03*
X154100D02*
D03*
X144100D02*
D03*
X236100Y219100D02*
D03*
X246100D02*
D03*
X124100Y341100D02*
D03*
X300100Y305100D02*
D03*
X230100Y341100D02*
D03*
X296032Y219068D02*
D03*
X262100Y219100D02*
D03*
X300100Y290400D02*
D03*
X417600Y491100D02*
D03*
X488900Y453100D02*
D03*
X488932Y487032D02*
D03*
X366900Y421100D02*
D03*
X402900Y491100D02*
D03*
X366900Y315100D02*
D03*
X488900Y427100D02*
D03*
Y437100D02*
D03*
X470900Y365100D02*
D03*
Y355100D02*
D03*
Y345100D02*
D03*
Y335100D02*
D03*
X432900Y479100D02*
D03*
X472900D02*
D03*
X462900D02*
D03*
X452900D02*
D03*
X442900D02*
D03*
X140000Y186500D02*
D03*
X150000D02*
D03*
X160000D02*
D03*
X170000D02*
D03*
X130000D02*
D03*
X208000D02*
D03*
X218000D02*
D03*
X228000D02*
D03*
X238000D02*
D03*
X198000D02*
D03*
X344000D02*
D03*
X354000D02*
D03*
X364000D02*
D03*
X374000D02*
D03*
X334000D02*
D03*
X276000D02*
D03*
X286000D02*
D03*
X296000D02*
D03*
X306000D02*
D03*
X266000D02*
D03*
X411000D02*
D03*
X421000D02*
D03*
X431000D02*
D03*
X441000D02*
D03*
X401000D02*
D03*
X459500Y278000D02*
D03*
X469500D02*
D03*
X479500D02*
D03*
X489500D02*
D03*
X449500D02*
D03*
X332000D02*
D03*
X342000D02*
D03*
X352000D02*
D03*
X362000D02*
D03*
X322000D02*
D03*
X396000D02*
D03*
X406000D02*
D03*
X416000D02*
D03*
X426000D02*
D03*
X386000D02*
D03*
D116*
X368183Y386372D02*
D03*
Y407828D02*
D03*
D117*
X380113Y406647D02*
D03*
Y387553D02*
D03*
D118*
X173400Y399500D02*
D03*
X265800Y402600D02*
D03*
X223700Y454000D02*
D03*
X199600Y416600D02*
D03*
X268100Y483000D02*
D03*
X152200Y439600D02*
D03*
X220500Y462400D02*
D03*
X135400Y486400D02*
D03*
Y336400D02*
D03*
X220500Y312400D02*
D03*
X152200Y289600D02*
D03*
X268100Y333000D02*
D03*
X199600Y266600D02*
D03*
X223700Y304000D02*
D03*
X265800Y252600D02*
D03*
X173400Y249500D02*
D03*
X458500Y364400D02*
D03*
X455400Y456800D02*
D03*
X404000Y414700D02*
D03*
X441400Y390600D02*
D03*
X375000Y459100D02*
D03*
X418400Y343200D02*
D03*
X395600Y411500D02*
D03*
X371600Y326400D02*
D03*
X125400Y161800D02*
D03*
X193400D02*
D03*
X329400D02*
D03*
X261400D02*
D03*
X396400D02*
D03*
X444900Y253300D02*
D03*
X317400D02*
D03*
X381400D02*
D03*
D119*
X169300Y419000D02*
D03*
X205300Y398600D02*
D03*
X214700Y384000D02*
D03*
X231700Y386400D02*
D03*
X221300Y416700D02*
D03*
X161000Y445100D02*
D03*
X235500Y445000D02*
D03*
X173300Y462600D02*
D03*
X140100Y399100D02*
D03*
X168000Y445100D02*
D03*
X122100Y461600D02*
D03*
X253600Y381100D02*
D03*
X256700Y420700D02*
D03*
X228800Y377400D02*
D03*
Y227400D02*
D03*
X256700Y270700D02*
D03*
X253600Y231100D02*
D03*
X122100Y311600D02*
D03*
X168000Y295100D02*
D03*
X140100Y249100D02*
D03*
X173300Y312600D02*
D03*
X235500Y295000D02*
D03*
X161000Y295100D02*
D03*
X221300Y266700D02*
D03*
X231700Y236400D02*
D03*
X214700Y234000D02*
D03*
X205300Y248600D02*
D03*
X169300Y269000D02*
D03*
X439000Y360300D02*
D03*
X459400Y396300D02*
D03*
X474000Y405700D02*
D03*
X471600Y422700D02*
D03*
X441300Y412300D02*
D03*
X412900Y352000D02*
D03*
X413000Y426500D02*
D03*
X395400Y364300D02*
D03*
X458900Y331100D02*
D03*
X412900Y359000D02*
D03*
X396400Y313100D02*
D03*
X476900Y444600D02*
D03*
X437300Y447700D02*
D03*
X480600Y419800D02*
D03*
X154000Y154500D02*
D03*
X142000Y150300D02*
D03*
X152500Y146500D02*
D03*
Y134000D02*
D03*
X220500D02*
D03*
Y146500D02*
D03*
X210000Y150300D02*
D03*
X222000Y154500D02*
D03*
X358000D02*
D03*
X346000Y150300D02*
D03*
X356500Y146500D02*
D03*
Y134000D02*
D03*
X288500D02*
D03*
Y146500D02*
D03*
X278000Y150300D02*
D03*
X290000Y154500D02*
D03*
X423500Y134000D02*
D03*
Y146500D02*
D03*
X413000Y150300D02*
D03*
X425000Y154500D02*
D03*
X473500Y246000D02*
D03*
X461500Y241800D02*
D03*
X472000Y238000D02*
D03*
Y225500D02*
D03*
X346000Y246000D02*
D03*
X334000Y241800D02*
D03*
X344500Y238000D02*
D03*
Y225500D02*
D03*
X408500D02*
D03*
Y238000D02*
D03*
X398000Y241800D02*
D03*
X410000Y246000D02*
D03*
D120*
X194100Y381100D02*
D03*
X184100Y369500D02*
D03*
X204300D02*
D03*
Y219500D02*
D03*
X184100D02*
D03*
X194100Y231100D02*
D03*
X476900Y385100D02*
D03*
X488500Y375100D02*
D03*
Y395300D02*
D03*
D121*
X268651Y457399D02*
D03*
X262352D02*
D03*
X268651Y444801D02*
D03*
X262352Y451100D02*
D03*
X265895Y439289D02*
D03*
X262352Y444801D02*
D03*
X268651Y451100D02*
D03*
X265895Y462911D02*
D03*
X268651Y307399D02*
D03*
X262352D02*
D03*
X268651Y294801D02*
D03*
X262352Y301100D02*
D03*
X265895Y289289D02*
D03*
X262352Y294801D02*
D03*
X268651Y301100D02*
D03*
X265895Y312911D02*
D03*
X400601Y459651D02*
D03*
Y453352D02*
D03*
X413199Y459651D02*
D03*
X406900Y453352D02*
D03*
X418711Y456895D02*
D03*
X413199Y453352D02*
D03*
X406900Y459651D02*
D03*
X395089Y456895D02*
D03*
D122*
X189092Y421919D02*
D03*
Y429793D02*
D03*
Y437667D02*
D03*
Y445541D02*
D03*
Y453415D02*
D03*
Y461289D02*
D03*
Y271919D02*
D03*
Y279793D02*
D03*
Y287667D02*
D03*
Y295541D02*
D03*
Y303415D02*
D03*
Y311289D02*
D03*
D123*
X181218Y473887D02*
D03*
X173344D02*
D03*
X165470D02*
D03*
X157596D02*
D03*
X149722D02*
D03*
X141848D02*
D03*
X133974D02*
D03*
X126100D02*
D03*
Y409320D02*
D03*
X133974D02*
D03*
X141848D02*
D03*
X149722D02*
D03*
X157596D02*
D03*
X165470D02*
D03*
X173344D02*
D03*
X181218D02*
D03*
Y323887D02*
D03*
X173344D02*
D03*
X165470D02*
D03*
X157596D02*
D03*
X149722D02*
D03*
X141848D02*
D03*
X133974D02*
D03*
X126100D02*
D03*
Y259320D02*
D03*
X133974D02*
D03*
X141848D02*
D03*
X149722D02*
D03*
X157596D02*
D03*
X165470D02*
D03*
X173344D02*
D03*
X181218D02*
D03*
D124*
X229100Y433600D02*
D03*
X234100D02*
D03*
X239100D02*
D03*
X244100D02*
D03*
X239100Y413100D02*
D03*
X234100D02*
D03*
X244100D02*
D03*
X229100D02*
D03*
Y283600D02*
D03*
X234100D02*
D03*
X239100D02*
D03*
X244100D02*
D03*
X239100Y263100D02*
D03*
X234100D02*
D03*
X244100D02*
D03*
X229100D02*
D03*
D125*
X210100Y448300D02*
D03*
Y421900D02*
D03*
Y298300D02*
D03*
Y271900D02*
D03*
D126*
X266100Y412927D02*
D03*
Y427100D02*
D03*
Y262927D02*
D03*
Y277100D02*
D03*
D127*
X250510Y481100D02*
D03*
X278068D02*
D03*
X250510Y331100D02*
D03*
X278068D02*
D03*
D128*
X436081Y380092D02*
D03*
X428207D02*
D03*
X420333D02*
D03*
X412459D02*
D03*
X404585D02*
D03*
X396711D02*
D03*
D129*
X384113Y372218D02*
D03*
Y364344D02*
D03*
Y356470D02*
D03*
Y348596D02*
D03*
Y340722D02*
D03*
Y332848D02*
D03*
Y324974D02*
D03*
Y317100D02*
D03*
X448679D02*
D03*
Y324974D02*
D03*
Y332848D02*
D03*
Y340722D02*
D03*
Y348596D02*
D03*
Y356470D02*
D03*
Y364344D02*
D03*
Y372218D02*
D03*
D130*
X424400Y420100D02*
D03*
Y425100D02*
D03*
Y430100D02*
D03*
Y435100D02*
D03*
X444900Y430100D02*
D03*
Y425100D02*
D03*
Y435100D02*
D03*
Y420100D02*
D03*
D131*
X409700Y401100D02*
D03*
X436100D02*
D03*
D132*
X445073Y457100D02*
D03*
X430900D02*
D03*
D133*
X376900Y441509D02*
D03*
Y469068D02*
D03*
D134*
X125307Y150327D02*
D03*
X132394D02*
D03*
X125307Y139327D02*
D03*
X132394D02*
D03*
X125307Y128327D02*
D03*
X132394D02*
D03*
X193307D02*
D03*
X200394D02*
D03*
X193307Y139327D02*
D03*
X200394D02*
D03*
X193307Y150327D02*
D03*
X200394D02*
D03*
X329307D02*
D03*
X336394D02*
D03*
X329307Y139327D02*
D03*
X336394D02*
D03*
X329307Y128327D02*
D03*
X336394D02*
D03*
X261307D02*
D03*
X268394D02*
D03*
X261307Y139327D02*
D03*
X268394D02*
D03*
X261307Y150327D02*
D03*
X268394D02*
D03*
X396307Y128327D02*
D03*
X403394D02*
D03*
X396307Y139327D02*
D03*
X403394D02*
D03*
X396307Y150327D02*
D03*
X403394D02*
D03*
X444807Y241827D02*
D03*
X451894D02*
D03*
X444807Y230827D02*
D03*
X451894D02*
D03*
X444807Y219827D02*
D03*
X451894D02*
D03*
X317307Y241827D02*
D03*
X324394D02*
D03*
X317307Y230827D02*
D03*
X324394D02*
D03*
X317307Y219827D02*
D03*
X324394D02*
D03*
X381307D02*
D03*
X388394D02*
D03*
X381307Y230827D02*
D03*
X388394D02*
D03*
X381307Y241827D02*
D03*
X388394D02*
D03*
M02*
