M48
;Layer_Color=9474304
;FILE_FORMAT=2:5
INCH,LZ
;TYPE=PLATED
T6F00S00C0.03150
T8F00S00C0.03937
%
G90
G05
T06
G00X0381053Y-0401825
M15
G01Y-04034
M16
G00X0400147Y-0401825
M15
G01Y-04034
M16
G00X0400147Y-0251825
M15
G01Y-02534
M16
G00X0381053Y-0251825
M15
G01Y-02534
M16
G00X0563825Y-0323853
M15
G01X05654
M16
G00X0563825Y-0342947
M15
G01X05654
M16
G00X0101547Y0137975
M15
G01Y01364
M16
G00X0082453Y0137975
M15
G01Y01364
M16
G00X0255725Y0282153
M15
G01X02573
M16
G00X0255725Y0301247
M15
G01X02573
M16
G00X0101547Y0374275
M15
G01Y03727
M16
G00X0082453Y0374275
M15
G01Y03727
M16
T08
G00X0379872Y-0389699
M15
G01Y-0391668
M16
G00X0401328Y-0389699
M15
G01Y-0391668
M16
G00X0401328Y-0239699
M15
G01Y-0241668
M16
G00X0379872Y-0239699
M15
G01Y-0241668
M16
G00X0551699Y-0322672
M15
G01X0553668
M16
G00X0551699Y-0344128
M15
G01X0553668
M16
G00X0102728Y0150101
M15
G01Y0148132
M16
G00X0081272Y0150101
M15
G01Y0148132
M16
G00X0243599Y0280972
M15
G01X0245568
M16
G00X0243599Y0302428
M15
G01X0245568
M16
G00X0102728Y0386401
M15
G01Y0384432
M16
G00X0081272Y0386401
M15
G01Y0384432
M16
M17
M30
