%FSLAX23Y23*%
%MOIN*%
G70*
G01*
G75*
%ADD10R,0.079X0.150*%
%ADD11R,0.039X0.059*%
%ADD12R,0.063X0.055*%
%ADD13R,0.094X0.063*%
%ADD14R,0.059X0.039*%
%ADD15R,0.079X0.157*%
%ADD16R,0.100X0.200*%
%ADD17R,0.050X0.035*%
%ADD18R,0.110X0.079*%
%ADD19R,0.100X0.030*%
%ADD20R,0.017X0.066*%
%ADD21R,0.055X0.071*%
%ADD22R,0.090X0.150*%
%ADD23R,0.085X0.050*%
%ADD24R,0.150X0.079*%
%ADD25R,0.071X0.055*%
%ADD26R,0.063X0.094*%
%ADD27R,0.200X0.100*%
%ADD28R,0.079X0.110*%
%ADD29R,0.030X0.100*%
%ADD30R,0.026X0.042*%
%ADD31R,0.066X0.017*%
%ADD32R,0.150X0.090*%
%ADD33R,0.050X0.085*%
%ADD34C,0.025*%
%ADD35C,0.030*%
%ADD36C,0.040*%
%ADD37C,0.015*%
%ADD38C,0.020*%
%ADD39C,0.035*%
%ADD40C,0.050*%
%ADD41C,0.055*%
%ADD42C,0.010*%
%ADD43C,0.045*%
%ADD44C,0.060*%
%ADD45R,0.151X0.305*%
%ADD46R,0.035X0.075*%
%ADD47R,0.065X0.080*%
%ADD48R,0.280X0.151*%
%ADD49R,0.052X0.100*%
%ADD50R,0.094X0.047*%
%ADD51R,0.120X0.040*%
%ADD52R,0.035X0.045*%
%ADD53R,0.085X0.065*%
%ADD54R,0.064X0.076*%
%ADD55R,0.044X0.080*%
%ADD56C,0.079*%
%ADD57C,0.100*%
%ADD58C,0.138*%
%ADD59C,0.040*%
%ADD60C,0.050*%
%ADD61C,0.070*%
%ADD62R,0.030X0.070*%
%ADD63R,0.070X0.030*%
%ADD64R,0.094X0.047*%
%ADD65R,0.047X0.110*%
%ADD66R,0.205X0.305*%
%ADD67R,0.290X0.235*%
%ADD68C,0.004*%
%ADD69C,0.003*%
%ADD70C,0.002*%
%ADD71C,0.002*%
%ADD72C,0.005*%
%ADD73C,0.001*%
%ADD74C,0.008*%
%ADD75C,0.008*%
%ADD76R,0.060X0.169*%
%ADD77R,0.063X0.021*%
%ADD78R,0.021X0.063*%
%ADD79R,0.169X0.060*%
%ADD80R,0.063X0.023*%
%ADD81R,0.087X0.158*%
%ADD82R,0.047X0.067*%
%ADD83R,0.071X0.063*%
%ADD84R,0.102X0.071*%
%ADD85R,0.067X0.047*%
%ADD86R,0.087X0.165*%
%ADD87R,0.108X0.208*%
%ADD88R,0.058X0.043*%
%ADD89R,0.118X0.087*%
%ADD90R,0.108X0.038*%
%ADD91R,0.025X0.074*%
%ADD92R,0.063X0.079*%
%ADD93R,0.098X0.158*%
%ADD94R,0.093X0.058*%
%ADD95R,0.160X0.089*%
%ADD96R,0.069X0.049*%
%ADD97R,0.073X0.065*%
%ADD98R,0.049X0.069*%
%ADD99R,0.081X0.065*%
%ADD100R,0.073X0.104*%
%ADD101R,0.089X0.167*%
%ADD102R,0.210X0.110*%
%ADD103R,0.060X0.045*%
%ADD104R,0.089X0.120*%
%ADD105R,0.040X0.110*%
%ADD106R,0.036X0.052*%
%ADD107R,0.076X0.027*%
%ADD108R,0.160X0.100*%
%ADD109R,0.060X0.095*%
%ADD110C,0.087*%
%ADD111C,0.108*%
%ADD112C,0.146*%
%ADD113C,0.148*%
%ADD114C,0.089*%
%ADD115C,0.110*%
%ADD116C,0.048*%
%ADD117C,0.058*%
%ADD118C,0.078*%
%ADD119C,0.060*%
%ADD120C,0.080*%
%ADD121R,0.038X0.078*%
%ADD122R,0.078X0.038*%
%ADD123R,0.104X0.057*%
%ADD124R,0.057X0.120*%
%ADD125C,0.020*%
%ADD126C,0.012*%
%ADD127R,0.020X0.210*%
%ADD128R,0.166X0.020*%
%ADD129R,0.019X0.096*%
%ADD130R,0.096X0.019*%
%ADD131R,0.019X0.181*%
D42*
X2100Y150D02*
Y1760D01*
X3700D01*
X2100Y150D02*
X3700D01*
Y1760D01*
X1800Y150D02*
Y1760D01*
X200Y150D02*
X1800D01*
X200Y1760D02*
X1800D01*
X200Y150D02*
Y1760D01*
X3937Y0D02*
Y3937D01*
X0D02*
X3937D01*
X0Y0D02*
Y3937D01*
Y0D02*
X3937D01*
X100Y2165D02*
X1910D01*
X100D02*
Y3665D01*
X1910Y2165D02*
Y3665D01*
X100D02*
X1910D01*
X2055D02*
X3865D01*
Y2165D02*
Y3665D01*
X2055Y2165D02*
Y3665D01*
Y2165D02*
X3865D01*
D73*
X2154Y1175D02*
X2186D01*
X2170Y1159D02*
Y1191D01*
X2154Y1275D02*
X2186D01*
X2170Y1259D02*
Y1291D01*
X2154Y1375D02*
X2186D01*
X2170Y1359D02*
Y1391D01*
X2154Y1475D02*
X2186D01*
X2170Y1459D02*
Y1491D01*
X2154Y1075D02*
X2186D01*
X2170Y1059D02*
Y1091D01*
X3184Y430D02*
X3216D01*
X3200Y414D02*
Y446D01*
X3184Y530D02*
X3216D01*
X3200Y514D02*
Y546D01*
X3184Y630D02*
X3216D01*
X3200Y614D02*
Y646D01*
X3184Y730D02*
X3216D01*
X3200Y714D02*
Y746D01*
X3570Y1670D02*
X3610D01*
X3590Y1650D02*
Y1690D01*
X3300Y1670D02*
X3340D01*
X3320Y1650D02*
Y1690D01*
X2959Y225D02*
X2991D01*
X2975Y209D02*
Y241D01*
X2859Y225D02*
X2891D01*
X2875Y209D02*
Y241D01*
X2149Y1660D02*
X2251D01*
X2200Y1609D02*
Y1711D01*
X3549Y250D02*
X3651D01*
X3600Y199D02*
Y301D01*
X1059Y225D02*
X1091D01*
X1075Y209D02*
Y241D01*
X959Y225D02*
X991D01*
X975Y209D02*
Y241D01*
X1400Y1670D02*
X1440D01*
X1420Y1650D02*
Y1690D01*
X1670Y1670D02*
X1710D01*
X1690Y1650D02*
Y1690D01*
X1284Y430D02*
X1316D01*
X1300Y414D02*
Y446D01*
X1284Y530D02*
X1316D01*
X1300Y514D02*
Y546D01*
X1284Y630D02*
X1316D01*
X1300Y614D02*
Y646D01*
X1284Y730D02*
X1316D01*
X1300Y714D02*
Y746D01*
X254Y1175D02*
X286D01*
X270Y1159D02*
Y1191D01*
X254Y1275D02*
X286D01*
X270Y1259D02*
Y1291D01*
X254Y1375D02*
X286D01*
X270Y1359D02*
Y1391D01*
X254Y1475D02*
X286D01*
X270Y1459D02*
Y1491D01*
X254Y1075D02*
X286D01*
X270Y1059D02*
Y1091D01*
X1649Y250D02*
X1751D01*
X1700Y199D02*
Y301D01*
X249Y1660D02*
X351D01*
X300Y1609D02*
Y1711D01*
X151Y3565D02*
X253D01*
X202Y3514D02*
Y3616D01*
X1759Y2270D02*
X1861D01*
X1810Y2219D02*
Y2321D01*
X3714Y2270D02*
X3816D01*
X3765Y2219D02*
Y2321D01*
X2106Y3565D02*
X2208D01*
X2157Y3514D02*
Y3616D01*
X2767Y2591D02*
X2799D01*
X2783Y2575D02*
Y2607D01*
X2667Y2591D02*
X2699D01*
X2683Y2575D02*
Y2607D01*
X2567Y2591D02*
X2599D01*
X2583Y2575D02*
Y2607D01*
X2467Y2591D02*
X2499D01*
X2483Y2575D02*
Y2607D01*
X2867Y2591D02*
X2899D01*
X2883Y2575D02*
Y2607D01*
X3561Y3460D02*
X3593D01*
X3577Y3444D02*
Y3476D01*
X3461Y3460D02*
X3493D01*
X3477Y3444D02*
Y3476D01*
X3361Y3460D02*
X3393D01*
X3377Y3444D02*
Y3476D01*
X3261Y3460D02*
X3293D01*
X3277Y3444D02*
Y3476D01*
X2258Y2251D02*
X2298D01*
X2278Y2231D02*
Y2271D01*
X2102Y2251D02*
X2142D01*
X2122Y2231D02*
Y2271D01*
X3747Y2851D02*
X3779D01*
X3763Y2835D02*
Y2867D01*
X3747Y2751D02*
X3779D01*
X3763Y2735D02*
Y2767D01*
X1792Y2851D02*
X1824D01*
X1808Y2835D02*
Y2867D01*
X1792Y2751D02*
X1824D01*
X1808Y2735D02*
Y2767D01*
X147Y2251D02*
X187D01*
X167Y2231D02*
Y2271D01*
X303Y2251D02*
X343D01*
X323Y2231D02*
Y2271D01*
X1606Y3460D02*
X1638D01*
X1622Y3444D02*
Y3476D01*
X1506Y3460D02*
X1538D01*
X1522Y3444D02*
Y3476D01*
X1406Y3460D02*
X1438D01*
X1422Y3444D02*
Y3476D01*
X1306Y3460D02*
X1338D01*
X1322Y3444D02*
Y3476D01*
X812Y2591D02*
X844D01*
X828Y2575D02*
Y2607D01*
X712Y2591D02*
X744D01*
X728Y2575D02*
Y2607D01*
X612Y2591D02*
X644D01*
X628Y2575D02*
Y2607D01*
X512Y2591D02*
X544D01*
X528Y2575D02*
Y2607D01*
X912Y2591D02*
X944D01*
X928Y2575D02*
Y2607D01*
X2271Y815D02*
X2289D01*
X2280Y806D02*
Y824D01*
X2481Y815D02*
X2499D01*
X2490Y806D02*
Y824D01*
X2561Y805D02*
X2579D01*
X2570Y796D02*
Y814D01*
X2976Y1440D02*
X2994D01*
X2985Y1431D02*
Y1449D01*
X3121Y910D02*
X3139D01*
X3130Y901D02*
Y919D01*
X3526Y490D02*
X3544D01*
X3535Y481D02*
Y499D01*
X3296Y480D02*
X3314D01*
X3305Y471D02*
Y489D01*
X2701Y540D02*
X2719D01*
X2710Y531D02*
Y549D01*
X2981Y1145D02*
X2999D01*
X2990Y1136D02*
Y1154D01*
X2996Y1655D02*
X3014D01*
X3005Y1646D02*
Y1664D01*
X2476Y1155D02*
X2494D01*
X2485Y1146D02*
Y1164D01*
X2346Y965D02*
X2364D01*
X2355Y956D02*
Y974D01*
X2991Y1580D02*
X3009D01*
X3000Y1571D02*
Y1589D01*
X2491Y1480D02*
X2509D01*
X2500Y1471D02*
Y1489D01*
X2461Y1530D02*
X2479D01*
X2470Y1521D02*
Y1539D01*
X2466Y1230D02*
X2484D01*
X2475Y1221D02*
Y1239D01*
X3255Y1475D02*
X3273D01*
X3264Y1466D02*
Y1484D01*
X2211Y715D02*
X2229D01*
X2220Y706D02*
Y724D01*
X3335Y1475D02*
X3353D01*
X3344Y1466D02*
Y1484D01*
X3295Y1425D02*
X3313D01*
X3304Y1416D02*
Y1434D01*
X3255Y1377D02*
X3273D01*
X3264Y1368D02*
Y1386D01*
X3335Y1377D02*
X3353D01*
X3344Y1368D02*
Y1386D01*
X3295Y1325D02*
X3313D01*
X3304Y1316D02*
Y1334D01*
X3255Y1275D02*
X3273D01*
X3264Y1266D02*
Y1284D01*
X3335Y1275D02*
X3353D01*
X3344Y1266D02*
Y1284D01*
X2791Y760D02*
X2819D01*
X2805Y746D02*
Y774D01*
X2181Y405D02*
X2199D01*
X2190Y396D02*
Y414D01*
X281Y405D02*
X299D01*
X290Y396D02*
Y414D01*
X891Y760D02*
X919D01*
X905Y746D02*
Y774D01*
X1435Y1275D02*
X1453D01*
X1444Y1266D02*
Y1284D01*
X1355Y1275D02*
X1373D01*
X1364Y1266D02*
Y1284D01*
X1395Y1325D02*
X1413D01*
X1404Y1316D02*
Y1334D01*
X1435Y1377D02*
X1453D01*
X1444Y1368D02*
Y1386D01*
X1355Y1377D02*
X1373D01*
X1364Y1368D02*
Y1386D01*
X1395Y1425D02*
X1413D01*
X1404Y1416D02*
Y1434D01*
X1435Y1475D02*
X1453D01*
X1444Y1466D02*
Y1484D01*
X311Y715D02*
X329D01*
X320Y706D02*
Y724D01*
X1355Y1475D02*
X1373D01*
X1364Y1466D02*
Y1484D01*
X566Y1230D02*
X584D01*
X575Y1221D02*
Y1239D01*
X561Y1530D02*
X579D01*
X570Y1521D02*
Y1539D01*
X591Y1480D02*
X609D01*
X600Y1471D02*
Y1489D01*
X1091Y1580D02*
X1109D01*
X1100Y1571D02*
Y1589D01*
X446Y965D02*
X464D01*
X455Y956D02*
Y974D01*
X576Y1155D02*
X594D01*
X585Y1146D02*
Y1164D01*
X1096Y1655D02*
X1114D01*
X1105Y1646D02*
Y1664D01*
X1081Y1145D02*
X1099D01*
X1090Y1136D02*
Y1154D01*
X801Y540D02*
X819D01*
X810Y531D02*
Y549D01*
X1396Y480D02*
X1414D01*
X1405Y471D02*
Y489D01*
X1626Y490D02*
X1644D01*
X1635Y481D02*
Y499D01*
X1221Y910D02*
X1239D01*
X1230Y901D02*
Y919D01*
X1076Y1440D02*
X1094D01*
X1085Y1431D02*
Y1449D01*
X661Y805D02*
X679D01*
X670Y796D02*
Y814D01*
X581Y815D02*
X599D01*
X590Y806D02*
Y824D01*
X371Y815D02*
X389D01*
X380Y806D02*
Y824D01*
X839Y3236D02*
X857D01*
X848Y3227D02*
Y3245D01*
X1160Y2887D02*
X1178D01*
X1169Y2878D02*
Y2896D01*
X489Y3346D02*
X507D01*
X498Y3337D02*
Y3355D01*
X1212Y3100D02*
X1230D01*
X1221Y3091D02*
Y3109D01*
X1524Y2736D02*
X1542D01*
X1533Y2727D02*
Y2745D01*
X1691Y2378D02*
X1709D01*
X1700Y2369D02*
Y2387D01*
X499Y2966D02*
X517D01*
X508Y2957D02*
Y2975D01*
X141Y2530D02*
X159D01*
X150Y2521D02*
Y2539D01*
X141Y2610D02*
X159D01*
X150Y2601D02*
Y2619D01*
X191Y2570D02*
X209D01*
X200Y2561D02*
Y2579D01*
X239Y2530D02*
X257D01*
X248Y2521D02*
Y2539D01*
X239Y2610D02*
X257D01*
X248Y2601D02*
Y2619D01*
X291Y2570D02*
X309D01*
X300Y2561D02*
Y2579D01*
X341Y2530D02*
X359D01*
X350Y2521D02*
Y2539D01*
X341Y2610D02*
X359D01*
X350Y2601D02*
Y2619D01*
X1230Y2705D02*
X1258D01*
X1244Y2691D02*
Y2719D01*
X1490Y2514D02*
X1510D01*
X1500Y2504D02*
Y2524D01*
X1469Y2431D02*
X1489D01*
X1479Y2421D02*
Y2441D01*
X1579Y2430D02*
X1597D01*
X1588Y2421D02*
Y2439D01*
X1362Y2750D02*
X1380D01*
X1371Y2741D02*
Y2759D01*
X1731Y3029D02*
X1749D01*
X1740Y3020D02*
Y3038D01*
X1807Y3037D02*
X1825D01*
X1816Y3028D02*
Y3046D01*
X704Y3341D02*
X732D01*
X718Y3327D02*
Y3355D01*
X1797Y3258D02*
X1825D01*
X1811Y3244D02*
Y3272D01*
X1831Y3595D02*
X1859D01*
X1845Y3581D02*
Y3609D01*
X1489Y3160D02*
X1507D01*
X1498Y3151D02*
Y3169D01*
X1554Y2985D02*
X1572D01*
X1563Y2976D02*
Y2994D01*
X1638Y3054D02*
X1656D01*
X1647Y3045D02*
Y3063D01*
X1613Y3250D02*
X1631D01*
X1622Y3241D02*
Y3259D01*
X1633Y2399D02*
X1651D01*
X1642Y2390D02*
Y2408D01*
X1144Y2621D02*
X1172D01*
X1158Y2607D02*
Y2635D01*
X929Y3136D02*
X947D01*
X938Y3127D02*
Y3145D01*
X654Y3066D02*
X672D01*
X663Y3057D02*
Y3075D01*
X2609Y3066D02*
X2627D01*
X2618Y3057D02*
Y3075D01*
X2884Y3136D02*
X2902D01*
X2893Y3127D02*
Y3145D01*
X3099Y2621D02*
X3127D01*
X3113Y2607D02*
Y2635D01*
X3588Y2399D02*
X3606D01*
X3597Y2390D02*
Y2408D01*
X3568Y3250D02*
X3586D01*
X3577Y3241D02*
Y3259D01*
X3593Y3054D02*
X3611D01*
X3602Y3045D02*
Y3063D01*
X3509Y2985D02*
X3527D01*
X3518Y2976D02*
Y2994D01*
X3444Y3160D02*
X3462D01*
X3453Y3151D02*
Y3169D01*
X3786Y3595D02*
X3814D01*
X3800Y3581D02*
Y3609D01*
X3752Y3258D02*
X3780D01*
X3766Y3244D02*
Y3272D01*
X2659Y3341D02*
X2687D01*
X2673Y3327D02*
Y3355D01*
X3762Y3037D02*
X3780D01*
X3771Y3028D02*
Y3046D01*
X3686Y3029D02*
X3704D01*
X3695Y3020D02*
Y3038D01*
X3317Y2750D02*
X3335D01*
X3326Y2741D02*
Y2759D01*
X3534Y2430D02*
X3552D01*
X3543Y2421D02*
Y2439D01*
X3424Y2431D02*
X3444D01*
X3434Y2421D02*
Y2441D01*
X3445Y2514D02*
X3465D01*
X3455Y2504D02*
Y2524D01*
X3185Y2705D02*
X3213D01*
X3199Y2691D02*
Y2719D01*
X2296Y2610D02*
X2314D01*
X2305Y2601D02*
Y2619D01*
X2296Y2530D02*
X2314D01*
X2305Y2521D02*
Y2539D01*
X2246Y2570D02*
X2264D01*
X2255Y2561D02*
Y2579D01*
X2194Y2610D02*
X2212D01*
X2203Y2601D02*
Y2619D01*
X2194Y2530D02*
X2212D01*
X2203Y2521D02*
Y2539D01*
X2146Y2570D02*
X2164D01*
X2155Y2561D02*
Y2579D01*
X2096Y2610D02*
X2114D01*
X2105Y2601D02*
Y2619D01*
X2096Y2530D02*
X2114D01*
X2105Y2521D02*
Y2539D01*
X2454Y2966D02*
X2472D01*
X2463Y2957D02*
Y2975D01*
X3646Y2378D02*
X3664D01*
X3655Y2369D02*
Y2387D01*
X3479Y2736D02*
X3497D01*
X3488Y2727D02*
Y2745D01*
X3167Y3100D02*
X3185D01*
X3176Y3091D02*
Y3109D01*
X2444Y3346D02*
X2462D01*
X2453Y3337D02*
Y3355D01*
X3115Y2887D02*
X3133D01*
X3124Y2878D02*
Y2896D01*
X2794Y3236D02*
X2812D01*
X2803Y3227D02*
Y3245D01*
M02*
