%FSLAX23Y23*%
%MOIN*%
G70*
G01*
G75*
G04 Layer_Color=8421504*
%ADD10R,0.079X0.150*%
%ADD11R,0.039X0.059*%
%ADD12R,0.063X0.055*%
%ADD13R,0.094X0.063*%
%ADD14R,0.059X0.039*%
%ADD15R,0.079X0.157*%
%ADD16R,0.100X0.200*%
%ADD17R,0.050X0.035*%
%ADD18R,0.110X0.079*%
%ADD19R,0.100X0.030*%
%ADD20R,0.017X0.066*%
%ADD21R,0.055X0.071*%
%ADD22R,0.090X0.150*%
%ADD23R,0.085X0.050*%
%ADD24R,0.150X0.079*%
%ADD25R,0.071X0.055*%
%ADD26R,0.063X0.094*%
%ADD27R,0.200X0.100*%
%ADD28R,0.079X0.110*%
%ADD29R,0.030X0.100*%
%ADD30R,0.026X0.042*%
%ADD31R,0.066X0.017*%
%ADD32R,0.150X0.090*%
%ADD33R,0.050X0.085*%
%ADD34C,0.025*%
%ADD35C,0.030*%
%ADD36C,0.040*%
%ADD37C,0.015*%
%ADD38C,0.020*%
%ADD39C,0.035*%
%ADD40C,0.050*%
%ADD41C,0.055*%
%ADD42C,0.010*%
%ADD43C,0.045*%
%ADD44C,0.060*%
%ADD45R,0.151X0.305*%
%ADD46R,0.035X0.075*%
%ADD47R,0.065X0.080*%
%ADD48R,0.280X0.151*%
%ADD49R,0.052X0.100*%
%ADD50R,0.094X0.047*%
%ADD51R,0.120X0.040*%
%ADD52R,0.035X0.045*%
%ADD53R,0.085X0.065*%
%ADD54R,0.064X0.076*%
%ADD55R,0.044X0.080*%
%ADD56C,0.079*%
%ADD57C,0.100*%
%ADD58C,0.138*%
%ADD59C,0.040*%
%ADD60C,0.050*%
%ADD61C,0.070*%
%ADD62R,0.030X0.070*%
%ADD63R,0.070X0.030*%
%ADD64R,0.094X0.047*%
%ADD65R,0.047X0.110*%
%ADD66R,0.205X0.305*%
%ADD67R,0.290X0.235*%
%ADD68C,0.004*%
%ADD69C,0.003*%
%ADD70C,0.002*%
%ADD71C,0.002*%
%ADD72C,0.005*%
%ADD73C,0.001*%
%ADD74C,0.008*%
%ADD75C,0.008*%
%ADD76R,0.060X0.169*%
%ADD77R,0.063X0.021*%
%ADD78R,0.021X0.063*%
%ADD79R,0.169X0.060*%
%ADD80R,0.063X0.023*%
D10*
X3394Y800D02*
D03*
X3630D02*
D03*
X1494D02*
D03*
X1730D02*
D03*
D11*
X3540Y635D02*
D03*
X3630D02*
D03*
X2465Y890D02*
D03*
X2375D02*
D03*
X2365Y405D02*
D03*
X2275D02*
D03*
X2472Y475D02*
D03*
X2562D02*
D03*
X2745Y840D02*
D03*
X2655D02*
D03*
X3464Y590D02*
D03*
X3374D02*
D03*
X2365Y295D02*
D03*
X2455D02*
D03*
X465D02*
D03*
X555D02*
D03*
X1564Y590D02*
D03*
X1474D02*
D03*
X845Y840D02*
D03*
X755D02*
D03*
X572Y475D02*
D03*
X662D02*
D03*
X465Y405D02*
D03*
X375D02*
D03*
X565Y890D02*
D03*
X475D02*
D03*
X1640Y635D02*
D03*
X1730D02*
D03*
X3545Y2345D02*
D03*
X3455D02*
D03*
X3528Y2665D02*
D03*
X3618D02*
D03*
X2555Y3470D02*
D03*
X2645D02*
D03*
X2928Y3351D02*
D03*
X3018D02*
D03*
X3248Y2985D02*
D03*
X3158D02*
D03*
X3445D02*
D03*
X3355D02*
D03*
X3400Y3065D02*
D03*
X3490D02*
D03*
X2395Y3495D02*
D03*
X2485D02*
D03*
X3670Y3350D02*
D03*
X3760D02*
D03*
X2988Y2706D02*
D03*
X2898D02*
D03*
X3593Y2951D02*
D03*
X3683D02*
D03*
X2713Y3101D02*
D03*
X2803D02*
D03*
X758D02*
D03*
X848D02*
D03*
X1638Y2951D02*
D03*
X1728D02*
D03*
X1033Y2706D02*
D03*
X943D02*
D03*
X1715Y3350D02*
D03*
X1805D02*
D03*
X440Y3495D02*
D03*
X530D02*
D03*
X1445Y3065D02*
D03*
X1535D02*
D03*
X1490Y2985D02*
D03*
X1400D02*
D03*
X1293D02*
D03*
X1203D02*
D03*
X973Y3351D02*
D03*
X1063D02*
D03*
X600Y3470D02*
D03*
X690D02*
D03*
X1573Y2665D02*
D03*
X1663D02*
D03*
X1590Y2345D02*
D03*
X1500D02*
D03*
D12*
X3460Y1712D02*
D03*
Y1570D02*
D03*
X1560Y1712D02*
D03*
Y1570D02*
D03*
X2823Y3008D02*
D03*
Y2866D02*
D03*
X868Y3008D02*
D03*
Y2866D02*
D03*
D13*
X2865Y1710D02*
D03*
Y1545D02*
D03*
X965Y1710D02*
D03*
Y1545D02*
D03*
D14*
X2595Y1605D02*
D03*
Y1695D02*
D03*
X2730Y1710D02*
D03*
Y1620D02*
D03*
X2710Y610D02*
D03*
Y700D02*
D03*
X2810Y515D02*
D03*
Y425D02*
D03*
X3035Y730D02*
D03*
Y640D02*
D03*
X2930Y730D02*
D03*
Y640D02*
D03*
X2625Y1440D02*
D03*
Y1530D02*
D03*
X2590Y1050D02*
D03*
Y1140D02*
D03*
X690Y1050D02*
D03*
Y1140D02*
D03*
X725Y1440D02*
D03*
Y1530D02*
D03*
X1030Y730D02*
D03*
Y640D02*
D03*
X1135Y730D02*
D03*
Y640D02*
D03*
X910Y515D02*
D03*
Y425D02*
D03*
X810Y610D02*
D03*
Y700D02*
D03*
X830Y1710D02*
D03*
Y1620D02*
D03*
X695Y1605D02*
D03*
Y1695D02*
D03*
X3015Y2525D02*
D03*
Y2615D02*
D03*
X3303Y3161D02*
D03*
Y3071D02*
D03*
X3535Y2793D02*
D03*
Y2883D02*
D03*
X3415Y3340D02*
D03*
Y3250D02*
D03*
X3303Y3340D02*
D03*
Y3250D02*
D03*
X2535Y3055D02*
D03*
Y2965D02*
D03*
X580Y3055D02*
D03*
Y2965D02*
D03*
X1348Y3340D02*
D03*
Y3250D02*
D03*
X1460Y3340D02*
D03*
Y3250D02*
D03*
X1580Y2793D02*
D03*
Y2883D02*
D03*
X1348Y3161D02*
D03*
Y3071D02*
D03*
X1060Y2525D02*
D03*
Y2615D02*
D03*
D15*
X3636Y1065D02*
D03*
X3345D02*
D03*
X1736D02*
D03*
X1445D02*
D03*
X2692Y2331D02*
D03*
X2983D02*
D03*
X737D02*
D03*
X1028D02*
D03*
D16*
X2835Y1307D02*
D03*
Y1043D02*
D03*
X935Y1307D02*
D03*
Y1043D02*
D03*
D17*
X2555Y1310D02*
D03*
Y1235D02*
D03*
X2634Y1273D02*
D03*
X655Y1310D02*
D03*
Y1235D02*
D03*
X734Y1273D02*
D03*
X2698Y2928D02*
D03*
Y3003D02*
D03*
X2619Y2965D02*
D03*
X743Y2928D02*
D03*
Y3003D02*
D03*
X664Y2965D02*
D03*
D18*
X3590Y1336D02*
D03*
Y1490D02*
D03*
X1690Y1336D02*
D03*
Y1490D02*
D03*
D19*
X2365Y750D02*
D03*
Y700D02*
D03*
Y650D02*
D03*
Y600D02*
D03*
X2570Y650D02*
D03*
Y700D02*
D03*
Y600D02*
D03*
Y750D02*
D03*
X465D02*
D03*
Y700D02*
D03*
Y650D02*
D03*
Y600D02*
D03*
X670Y650D02*
D03*
Y700D02*
D03*
Y600D02*
D03*
Y750D02*
D03*
D20*
X3445Y480D02*
D03*
X3419D02*
D03*
X3394D02*
D03*
X3368D02*
D03*
X3445Y299D02*
D03*
X3419D02*
D03*
X3394D02*
D03*
X3368D02*
D03*
X1545Y480D02*
D03*
X1519D02*
D03*
X1494D02*
D03*
X1468D02*
D03*
X1545Y299D02*
D03*
X1519D02*
D03*
X1494D02*
D03*
X1468D02*
D03*
D21*
X2550Y295D02*
D03*
X2696D02*
D03*
X650D02*
D03*
X796D02*
D03*
D22*
X3412Y1377D02*
D03*
X1512D02*
D03*
D23*
X3160Y1287D02*
D03*
Y1377D02*
D03*
Y1467D02*
D03*
X1260Y1287D02*
D03*
Y1377D02*
D03*
Y1467D02*
D03*
D24*
X3153Y2260D02*
D03*
Y2496D02*
D03*
X1198Y2260D02*
D03*
Y2496D02*
D03*
D25*
X3355Y2505D02*
D03*
Y2359D02*
D03*
X3788Y2646D02*
D03*
Y2500D02*
D03*
X1833Y2646D02*
D03*
Y2500D02*
D03*
X1400Y2505D02*
D03*
Y2359D02*
D03*
D26*
X2878Y3471D02*
D03*
X3043D02*
D03*
X923D02*
D03*
X1088D02*
D03*
D27*
X2403Y3225D02*
D03*
X2667D02*
D03*
X448D02*
D03*
X712D02*
D03*
D28*
X2572Y2251D02*
D03*
X2418D02*
D03*
X617D02*
D03*
X463D02*
D03*
D29*
X3305Y2640D02*
D03*
X3355D02*
D03*
X3405D02*
D03*
X3455D02*
D03*
X3405Y2845D02*
D03*
X3355D02*
D03*
X3455D02*
D03*
X3305D02*
D03*
X1350Y2640D02*
D03*
X1400D02*
D03*
X1450D02*
D03*
X1500D02*
D03*
X1450Y2845D02*
D03*
X1400D02*
D03*
X1500D02*
D03*
X1350D02*
D03*
D30*
X3618Y2483D02*
D03*
X3580Y2585D02*
D03*
X3618D02*
D03*
X3655D02*
D03*
Y2483D02*
D03*
X3580D02*
D03*
X1663D02*
D03*
X1625Y2585D02*
D03*
X1663D02*
D03*
X1700D02*
D03*
Y2483D02*
D03*
X1625D02*
D03*
D31*
X3755Y3105D02*
D03*
Y3131D02*
D03*
Y3156D02*
D03*
Y3182D02*
D03*
X3574Y3105D02*
D03*
Y3131D02*
D03*
Y3156D02*
D03*
Y3182D02*
D03*
X1800Y3105D02*
D03*
Y3131D02*
D03*
Y3156D02*
D03*
Y3182D02*
D03*
X1619Y3105D02*
D03*
Y3131D02*
D03*
Y3156D02*
D03*
Y3182D02*
D03*
D32*
X2203Y2678D02*
D03*
X248D02*
D03*
D33*
X2293Y2426D02*
D03*
X2203D02*
D03*
X2113D02*
D03*
X338D02*
D03*
X248D02*
D03*
X158D02*
D03*
D42*
X2100Y150D02*
Y1760D01*
X3700D01*
X2100Y150D02*
X3700D01*
Y1760D01*
X1800Y150D02*
Y1760D01*
X200Y150D02*
X1800D01*
X200Y1760D02*
X1800D01*
X200Y150D02*
Y1760D01*
X3937Y0D02*
Y3937D01*
X0D02*
X3937D01*
X0Y0D02*
Y3937D01*
Y0D02*
X3937D01*
X100Y2165D02*
X1910D01*
X100D02*
Y3665D01*
X1910Y2165D02*
Y3665D01*
X100D02*
X1910D01*
X2055D02*
X3865D01*
Y2165D02*
Y3665D01*
X2055Y2165D02*
Y3665D01*
Y2165D02*
X3865D01*
M02*
