%FSLAX23Y23*%
%MOIN*%
G70*
G01*
G75*
G04 Layer_Color=128*
%ADD10R,0.079X0.150*%
%ADD11R,0.039X0.059*%
%ADD12R,0.063X0.055*%
%ADD13R,0.094X0.063*%
%ADD14R,0.059X0.039*%
%ADD15R,0.079X0.157*%
%ADD16R,0.100X0.200*%
%ADD17R,0.050X0.035*%
%ADD18R,0.110X0.079*%
%ADD19R,0.100X0.030*%
%ADD20R,0.017X0.066*%
%ADD21R,0.055X0.071*%
%ADD22R,0.090X0.150*%
%ADD23R,0.085X0.050*%
%ADD24R,0.150X0.079*%
%ADD25R,0.071X0.055*%
%ADD26R,0.063X0.094*%
%ADD27R,0.200X0.100*%
%ADD28R,0.079X0.110*%
%ADD29R,0.030X0.100*%
%ADD30R,0.026X0.042*%
%ADD31R,0.066X0.017*%
%ADD32R,0.150X0.090*%
%ADD33R,0.050X0.085*%
%ADD34C,0.025*%
%ADD35C,0.030*%
%ADD36C,0.040*%
%ADD37C,0.015*%
%ADD38C,0.020*%
%ADD39C,0.035*%
%ADD40C,0.050*%
%ADD41C,0.055*%
%ADD42C,0.010*%
%ADD43C,0.045*%
%ADD44C,0.060*%
%ADD45R,0.151X0.305*%
%ADD46R,0.035X0.075*%
%ADD47R,0.065X0.080*%
%ADD48R,0.280X0.151*%
%ADD49R,0.052X0.100*%
%ADD50R,0.094X0.047*%
%ADD51R,0.120X0.040*%
%ADD52R,0.035X0.045*%
%ADD53R,0.085X0.065*%
%ADD54R,0.064X0.076*%
%ADD55R,0.044X0.080*%
%ADD56C,0.079*%
%ADD57C,0.100*%
%ADD58C,0.138*%
%ADD59C,0.040*%
%ADD60C,0.050*%
%ADD61C,0.070*%
%ADD62R,0.030X0.070*%
%ADD63R,0.070X0.030*%
%ADD64R,0.094X0.047*%
%ADD65R,0.047X0.110*%
%ADD66R,0.205X0.305*%
%ADD67R,0.290X0.235*%
%ADD68C,0.004*%
%ADD69C,0.003*%
%ADD70C,0.002*%
%ADD71C,0.002*%
%ADD72C,0.005*%
%ADD73C,0.001*%
%ADD74C,0.008*%
%ADD75C,0.008*%
%ADD76R,0.060X0.169*%
%ADD77R,0.063X0.021*%
%ADD78R,0.021X0.063*%
%ADD79R,0.169X0.060*%
%ADD80R,0.063X0.023*%
%ADD81R,0.087X0.158*%
%ADD82R,0.047X0.067*%
%ADD83R,0.071X0.063*%
%ADD84R,0.102X0.071*%
%ADD85R,0.067X0.047*%
%ADD86R,0.087X0.165*%
%ADD87R,0.108X0.208*%
%ADD88R,0.058X0.043*%
%ADD89R,0.118X0.087*%
%ADD90R,0.108X0.038*%
%ADD91R,0.025X0.074*%
%ADD92R,0.063X0.079*%
%ADD93R,0.098X0.158*%
%ADD94R,0.093X0.058*%
%ADD95R,0.160X0.089*%
%ADD96R,0.069X0.049*%
%ADD97R,0.073X0.065*%
%ADD98R,0.049X0.069*%
%ADD99R,0.081X0.065*%
%ADD100R,0.073X0.104*%
%ADD101R,0.089X0.167*%
%ADD102R,0.210X0.110*%
%ADD103R,0.060X0.045*%
%ADD104R,0.089X0.120*%
%ADD105R,0.040X0.110*%
%ADD106R,0.036X0.052*%
%ADD107R,0.076X0.027*%
%ADD108R,0.160X0.100*%
%ADD109R,0.060X0.095*%
%ADD110C,0.087*%
%ADD111C,0.108*%
%ADD112C,0.146*%
%ADD113C,0.148*%
%ADD114C,0.089*%
%ADD115C,0.110*%
%ADD116C,0.048*%
%ADD117C,0.058*%
%ADD118C,0.078*%
%ADD119C,0.060*%
%ADD120C,0.080*%
%ADD121R,0.038X0.078*%
%ADD122R,0.078X0.038*%
%ADD123R,0.104X0.057*%
%ADD124R,0.057X0.120*%
D14*
X3013Y2776D02*
D03*
Y2686D02*
D03*
X1058Y2776D02*
D03*
Y2686D02*
D03*
D42*
X2100Y150D02*
Y1760D01*
X3700D01*
X2100Y150D02*
X3700D01*
Y1760D01*
X1800Y150D02*
Y1760D01*
X200Y150D02*
X1800D01*
X200Y1760D02*
X1800D01*
X200Y150D02*
Y1760D01*
X3937Y0D02*
Y3937D01*
X0D02*
X3937D01*
X0Y0D02*
Y3937D01*
Y0D02*
X3937D01*
X100Y2165D02*
X1910D01*
X100D02*
Y3665D01*
X1910Y2165D02*
Y3665D01*
X100D02*
X1910D01*
X2055D02*
X3865D01*
Y2165D02*
Y3665D01*
X2055Y2165D02*
Y3665D01*
Y2165D02*
X3865D01*
D62*
X2515Y968D02*
D03*
X2565D02*
D03*
X2615D02*
D03*
X2665D02*
D03*
X2715D02*
D03*
X2765D02*
D03*
X2815D02*
D03*
X2865D02*
D03*
X2915D02*
D03*
X2965D02*
D03*
X615D02*
D03*
X665D02*
D03*
X715D02*
D03*
X765D02*
D03*
X815D02*
D03*
X865D02*
D03*
X915D02*
D03*
X965D02*
D03*
X1015D02*
D03*
X1065D02*
D03*
D63*
X2385Y1530D02*
D03*
Y1580D02*
D03*
Y1480D02*
D03*
Y1430D02*
D03*
Y1630D02*
D03*
Y1680D02*
D03*
Y1330D02*
D03*
Y1380D02*
D03*
Y1280D02*
D03*
Y1230D02*
D03*
Y1030D02*
D03*
Y1080D02*
D03*
Y1180D02*
D03*
Y1130D02*
D03*
X3095D02*
D03*
Y1180D02*
D03*
Y1080D02*
D03*
Y1030D02*
D03*
Y1230D02*
D03*
Y1280D02*
D03*
Y1380D02*
D03*
Y1330D02*
D03*
Y1680D02*
D03*
Y1630D02*
D03*
Y1430D02*
D03*
Y1480D02*
D03*
Y1580D02*
D03*
Y1530D02*
D03*
X485D02*
D03*
Y1580D02*
D03*
Y1480D02*
D03*
Y1430D02*
D03*
Y1630D02*
D03*
Y1680D02*
D03*
Y1330D02*
D03*
Y1380D02*
D03*
Y1280D02*
D03*
Y1230D02*
D03*
Y1030D02*
D03*
Y1080D02*
D03*
Y1180D02*
D03*
Y1130D02*
D03*
X1195D02*
D03*
Y1180D02*
D03*
Y1080D02*
D03*
Y1030D02*
D03*
Y1230D02*
D03*
Y1280D02*
D03*
Y1380D02*
D03*
Y1330D02*
D03*
Y1680D02*
D03*
Y1630D02*
D03*
Y1430D02*
D03*
Y1480D02*
D03*
Y1580D02*
D03*
Y1530D02*
D03*
D64*
X2988Y2939D02*
D03*
Y3018D02*
D03*
Y3097D02*
D03*
Y3175D02*
D03*
Y3254D02*
D03*
Y3333D02*
D03*
X1033Y2939D02*
D03*
Y3018D02*
D03*
Y3097D02*
D03*
Y3175D02*
D03*
Y3254D02*
D03*
Y3333D02*
D03*
D65*
X2909Y3459D02*
D03*
X2830D02*
D03*
X2752D02*
D03*
X2673D02*
D03*
X2594D02*
D03*
X2515D02*
D03*
X2437D02*
D03*
X2358D02*
D03*
Y2813D02*
D03*
X2437D02*
D03*
X2515D02*
D03*
X2594D02*
D03*
X2673D02*
D03*
X2752D02*
D03*
X2830D02*
D03*
X2909D02*
D03*
X954Y3459D02*
D03*
X875D02*
D03*
X797D02*
D03*
X718D02*
D03*
X639D02*
D03*
X560D02*
D03*
X482D02*
D03*
X403D02*
D03*
Y2813D02*
D03*
X482D02*
D03*
X560D02*
D03*
X639D02*
D03*
X718D02*
D03*
X797D02*
D03*
X875D02*
D03*
X954D02*
D03*
M02*
