%FSLAX25Y25*%
%MOIN*%
G70*
G01*
G75*
%ADD10R,0.05906X0.03937*%
%ADD11R,0.03937X0.05906*%
%ADD12R,0.11024X0.07874*%
%ADD13R,0.05512X0.07087*%
%ADD14R,0.07874X0.14961*%
%ADD15R,0.10000X0.20000*%
%ADD16R,0.01700X0.06600*%
%ADD17R,0.15748X0.07874*%
%ADD18R,0.10000X0.03000*%
%ADD19R,0.09000X0.15000*%
%ADD20R,0.08465X0.05000*%
%ADD21R,0.03500X0.05000*%
%ADD22R,0.04200X0.02600*%
%ADD23R,0.05512X0.06299*%
%ADD24R,0.09449X0.06299*%
%ADD25C,0.02000*%
%ADD26C,0.05000*%
%ADD27C,0.06000*%
%ADD28C,0.04500*%
%ADD29C,0.05500*%
%ADD30C,0.01500*%
%ADD31C,0.03000*%
%ADD32C,0.04000*%
%ADD33C,0.02500*%
%ADD34C,0.01000*%
%ADD35R,0.08000X0.04428*%
%ADD36R,0.07572X0.06428*%
%ADD37R,0.06500X0.08500*%
%ADD38R,0.04500X0.03500*%
%ADD39R,0.04000X0.12000*%
%ADD40R,0.04700X0.09400*%
%ADD41R,0.10000X0.05200*%
%ADD42R,0.15100X0.28000*%
%ADD43R,0.08000X0.06500*%
%ADD44R,0.07500X0.03500*%
%ADD45C,0.07874*%
%ADD46C,0.13780*%
%ADD47C,0.10000*%
%ADD48C,0.04000*%
%ADD49C,0.07000*%
%ADD50C,0.05000*%
%ADD51R,0.04724X0.09449*%
%ADD52R,0.11024X0.04724*%
%ADD53R,0.23500X0.29000*%
%ADD54C,0.00394*%
%ADD55C,0.00200*%
%ADD56C,0.00300*%
%ADD57C,0.00197*%
%ADD58C,0.00500*%
%ADD59C,0.00787*%
%ADD60C,0.00050*%
%ADD61C,0.00800*%
%ADD62R,0.02100X0.06299*%
%ADD63R,0.06000X0.16929*%
%ADD64R,0.02100X0.06299*%
%ADD65R,0.02300X0.06299*%
D34*
X83295Y111976D02*
G03*
X85658Y109614I2362J0D01*
G01*
Y136386D02*
G03*
X83295Y134024I0J-2362D01*
G01*
X105342Y109614D02*
G03*
X107705Y111976I0J2362D01*
G01*
Y134024D02*
G03*
X105342Y136386I-2362J0D01*
G01*
X20667Y104972D02*
G03*
X18305Y107334I-2362J0D01*
G01*
X18305Y78200D02*
G03*
X20667Y80562I0J2362D01*
G01*
X-8467D02*
G03*
X-6105Y78200I2362J0D01*
G01*
X-6105Y107334D02*
G03*
X-8467Y104972I0J-2362D01*
G01*
X27100Y103100D02*
X27200Y103200D01*
X37100D01*
X27100Y113200D02*
X37100D01*
X27100Y123200D02*
X37100D01*
X27100Y133200D02*
X37100D01*
X27100Y83200D02*
Y133200D01*
Y83200D02*
X37100D01*
Y133200D01*
X27100Y93200D02*
X37100D01*
X114000Y23700D02*
X114100Y23800D01*
X124000D01*
X114000Y33800D02*
X124000D01*
X114000Y43800D02*
X124000D01*
X114000Y53800D02*
X124000D01*
X114000Y13800D02*
Y53800D01*
Y13800D02*
X124000D01*
Y53800D01*
X-6842Y120795D02*
X3000D01*
X-6842D02*
Y133394D01*
X3000D01*
Y120795D02*
Y133394D01*
X23821Y-5500D02*
X36419D01*
Y799D01*
X23821D02*
X36419D01*
X23821Y-5500D02*
Y799D01*
X-3581Y52735D02*
Y69665D01*
X25159Y52735D02*
Y69665D01*
X-3581D02*
X25159D01*
X-3581Y52735D02*
X25159D01*
X107705Y111976D02*
Y134024D01*
X83295Y111976D02*
Y134024D01*
X85658Y109614D02*
X105342D01*
X85658Y136386D02*
X105342D01*
X49600Y-1800D02*
X50100Y-2300D01*
X-6105Y107334D02*
X18305D01*
X20667Y80562D02*
Y104972D01*
X-6105Y78200D02*
X18305D01*
X-8467Y80562D02*
Y104972D01*
X60387Y91050D02*
X72986D01*
X60387Y97350D02*
X72986D01*
Y91050D02*
Y97350D01*
X60387Y91050D02*
Y97350D01*
X9720Y37800D02*
X22319D01*
Y44099D01*
X9720D02*
X22319D01*
X9720Y37800D02*
Y44099D01*
X125800Y73514D02*
Y87294D01*
X114383D02*
X125800D01*
X114383Y73514D02*
Y87294D01*
Y73514D02*
X125800D01*
X114483Y84594D02*
X125800D01*
X30100Y55698D02*
Y50700D01*
X31100Y49700D01*
X33099D01*
X34099Y50700D01*
Y55698D01*
X36098Y49700D02*
X38097D01*
X37098D01*
Y55698D01*
X36098Y54698D01*
X5600Y118698D02*
Y113700D01*
X8932D01*
X10598D02*
X12264D01*
X11431D01*
Y118698D01*
X10598Y117865D01*
X117099Y9998D02*
X116099Y10998D01*
X114100D01*
X113100Y9998D01*
Y6000D01*
X114100Y5000D01*
X116099D01*
X117099Y6000D01*
X119098Y5000D02*
Y10998D01*
X123097Y5000D01*
Y10998D01*
X128095Y5000D02*
Y10998D01*
X125096Y7999D01*
X129095D01*
X19602Y116699D02*
X18602Y115699D01*
Y113700D01*
X19602Y112700D01*
X23600D01*
X24600Y113700D01*
Y115699D01*
X23600Y116699D01*
X24600Y118698D02*
X18602D01*
X24600Y122697D01*
X18602D01*
X19602Y124696D02*
X18602Y125696D01*
Y127695D01*
X19602Y128695D01*
X20601D01*
X21601Y127695D01*
Y126696D01*
Y127695D01*
X22601Y128695D01*
X23600D01*
X24600Y127695D01*
Y125696D01*
X23600Y124696D01*
X122699Y66298D02*
X121699Y67298D01*
X119700D01*
X118700Y66298D01*
Y62300D01*
X119700Y61300D01*
X121699D01*
X122699Y62300D01*
X124698Y67298D02*
X128697D01*
Y66298D01*
X124698Y62300D01*
Y61300D01*
X14099Y63198D02*
X13099Y64198D01*
X11100D01*
X10100Y63198D01*
Y59200D01*
X11100Y58200D01*
X13099D01*
X14099Y59200D01*
X16098Y58200D02*
X18097D01*
X17098D01*
Y64198D01*
X16098Y63198D01*
X139500Y-10000D02*
Y171000D01*
X-10500Y-10000D02*
X139500D01*
X-10500Y171000D02*
X139500D01*
X-10500Y-10000D02*
Y171000D01*
D54*
X105342Y123000D02*
G03*
X105342Y123000I-9843J0D01*
G01*
X87232Y133630D02*
G03*
X87232Y133630I-1181J0D01*
G01*
Y112370D02*
G03*
X87232Y112370I-1181J0D01*
G01*
X106130D02*
G03*
X106130Y112370I-1181J0D01*
G01*
Y133630D02*
G03*
X106130Y133630I-1181J0D01*
G01*
X106524Y123000D02*
G03*
X106524Y123000I-11024J0D01*
G01*
X18698Y92767D02*
G03*
X18698Y92767I-12598J0D01*
G01*
X17517D02*
G03*
X17517Y92767I-11417J0D01*
G01*
X22600Y67499D02*
X24962D01*
X22600Y54901D02*
Y67499D01*
Y54901D02*
X25159D01*
X-3581D02*
X-1022D01*
Y67499D01*
X-3581D02*
X-1022D01*
X57116Y-7674D02*
X59084D01*
X47116D02*
X49084D01*
X57116Y-3737D02*
X59084D01*
Y-7674D02*
Y-3737D01*
X57116Y-7674D02*
Y-3737D01*
X47116D02*
X49084D01*
Y-7674D02*
Y-3737D01*
X47116Y-7674D02*
Y-3737D01*
D55*
X84100Y5887D02*
G03*
X84100Y5887I-1000J0D01*
G01*
X54000Y28638D02*
Y48323D01*
X63339Y113511D02*
X75839D01*
X63339Y107881D02*
Y113511D01*
Y107881D02*
X75839D01*
Y113511D01*
D56*
X51290Y30803D02*
G03*
X51290Y30803I-1438J0D01*
G01*
D57*
X28475Y10900D02*
G03*
X28475Y10900I-394J0D01*
G01*
D58*
X80639Y104700D02*
X85561D01*
Y96826D02*
Y104700D01*
X80639Y96826D02*
X85561D01*
X80639D02*
Y104700D01*
X5039Y22626D02*
Y30500D01*
Y22626D02*
X9961D01*
Y30500D01*
X5039D02*
X9961D01*
X80600Y43739D02*
X88474D01*
Y48661D01*
X80600D02*
X88474D01*
X80600Y43739D02*
Y48661D01*
X41961Y15200D02*
Y23074D01*
X37039D02*
X41961D01*
X37039Y15200D02*
Y23074D01*
Y15200D02*
X41961D01*
X122461Y112500D02*
Y120374D01*
X117539D02*
X122461D01*
X117539Y112500D02*
Y120374D01*
Y112500D02*
X122461D01*
X110561Y75200D02*
Y83074D01*
X105639D02*
X110561D01*
X105639Y75200D02*
Y83074D01*
Y75200D02*
X110561D01*
X52926Y25461D02*
X60800D01*
X52926Y20539D02*
Y25461D01*
Y20539D02*
X60800D01*
Y25461D01*
X69039Y52326D02*
Y60200D01*
Y52326D02*
X73961D01*
Y60200D01*
X69039D02*
X73961D01*
X69039Y32626D02*
Y40500D01*
Y32626D02*
X73961D01*
Y40500D01*
X69039D02*
X73961D01*
X81961Y28000D02*
Y35874D01*
X77039D02*
X81961D01*
X77039Y28000D02*
Y35874D01*
Y28000D02*
X81961D01*
X98500Y32539D02*
X106374D01*
Y37461D01*
X98500D02*
X106374D01*
X98500Y32539D02*
Y37461D01*
Y43739D02*
X106374D01*
Y48661D01*
X98500D02*
X106374D01*
X98500Y43739D02*
Y48661D01*
X124961Y128500D02*
Y136374D01*
X120039D02*
X124961D01*
X120039Y128500D02*
Y136374D01*
Y128500D02*
X124961D01*
X110461Y1000D02*
Y8874D01*
X105539D02*
X110461D01*
X105539Y1000D02*
Y8874D01*
Y1000D02*
X110461D01*
X70000Y120539D02*
X77874D01*
Y125461D01*
X70000D02*
X77874D01*
X70000Y120539D02*
Y125461D01*
X41139Y78326D02*
Y86200D01*
Y78326D02*
X46061D01*
Y86200D01*
X41139D02*
X46061D01*
X70561Y8700D02*
Y16574D01*
X65639D02*
X70561D01*
X65639Y8700D02*
Y16574D01*
Y8700D02*
X70561D01*
X23726Y77661D02*
X31600D01*
X23726Y72739D02*
Y77661D01*
Y72739D02*
X31600D01*
Y77661D01*
X92941Y119063D02*
Y126937D01*
Y119063D02*
X98059D01*
Y126937D01*
X92941D02*
X98059D01*
X92941Y120638D02*
X94319D01*
Y122606D01*
X92941D02*
X94319D01*
X96681D02*
X98059D01*
X96681Y120638D02*
Y122606D01*
Y120638D02*
X98059D01*
X81200Y16087D02*
X93400D01*
Y3887D02*
Y16087D01*
X81200Y3887D02*
Y16087D01*
Y3887D02*
X93400D01*
X55500Y28500D02*
Y48500D01*
X39400Y28500D02*
X55500D01*
X39400D02*
Y48500D01*
X55500D01*
X23232Y9031D02*
Y20449D01*
Y9031D02*
X29630D01*
Y20449D01*
X23232D02*
X29630D01*
D59*
X21309Y143153D02*
Y169137D01*
Y143153D02*
X35285D01*
Y169137D01*
X21309D02*
X35285D01*
X-1851Y28136D02*
X-2639Y28923D01*
X-4213D01*
X-5000Y28136D01*
Y24987D01*
X-4213Y24200D01*
X-2639D01*
X-1851Y24987D01*
X2084Y24200D02*
Y28923D01*
X-277Y26561D01*
X2871D01*
D60*
X63832Y107881D02*
Y113511D01*
X63339Y110637D02*
X75839D01*
D61*
X78600Y78700D02*
Y83499D01*
X80999D01*
X81799Y82699D01*
Y81099D01*
X80999Y80300D01*
X78600D01*
X80199D02*
X81799Y78700D01*
X83398D02*
X84998D01*
X84198D01*
Y83499D01*
X83398Y82699D01*
X87397Y83499D02*
X90596D01*
Y82699D01*
X87397Y79500D01*
Y78700D01*
X48300Y156900D02*
Y161698D01*
X50699D01*
X51499Y160899D01*
Y159299D01*
X50699Y158500D01*
X48300D01*
X49900D02*
X51499Y156900D01*
X55498D02*
X53898D01*
X53098Y157700D01*
Y159299D01*
X53898Y160099D01*
X55498D01*
X56297Y159299D01*
Y158500D01*
X53098D01*
X59496Y155300D02*
X60296D01*
X61096Y156100D01*
Y160099D01*
X58697D01*
X57897Y159299D01*
Y157700D01*
X58697Y156900D01*
X61096D01*
X62695D02*
X64295D01*
X63495D01*
Y161698D01*
X62695Y160899D01*
X63100Y-7900D02*
Y-3101D01*
X64700Y-4701D01*
X66299Y-3101D01*
Y-7900D01*
X67898D02*
X69498D01*
X68698D01*
Y-4701D01*
X67898D01*
X75096D02*
X72697D01*
X71897Y-5501D01*
Y-7100D01*
X72697Y-7900D01*
X75096D01*
X76696Y-4701D02*
Y-7900D01*
Y-6301D01*
X77495Y-5501D01*
X78295Y-4701D01*
X79095D01*
X82294Y-7900D02*
X83893D01*
X84693Y-7100D01*
Y-5501D01*
X83893Y-4701D01*
X82294D01*
X81494Y-5501D01*
Y-7100D01*
X82294Y-7900D01*
X86292D02*
X87892D01*
X87092D01*
Y-3101D01*
X86292Y-3901D01*
X33699Y6699D02*
X32899Y7498D01*
X31300D01*
X30500Y6699D01*
Y3500D01*
X31300Y2700D01*
X32899D01*
X33699Y3500D01*
X35298Y2700D02*
X36898D01*
X36098D01*
Y7498D01*
X35298Y6699D01*
X42496Y7498D02*
X39297D01*
Y5099D01*
X40897Y5899D01*
X41696D01*
X42496Y5099D01*
Y3500D01*
X41696Y2700D01*
X40097D01*
X39297Y3500D01*
X95000Y12498D02*
Y8500D01*
X95800Y7700D01*
X97399D01*
X98199Y8500D01*
Y12498D01*
X102198Y7700D02*
Y12498D01*
X99799Y10099D01*
X102997D01*
X14100Y8098D02*
Y4100D01*
X14900Y3300D01*
X16499D01*
X17299Y4100D01*
Y8098D01*
X22097Y3300D02*
X18898D01*
X22097Y6499D01*
Y7299D01*
X21298Y8098D01*
X19698D01*
X18898Y7299D01*
X51300Y7000D02*
Y11798D01*
X53699D01*
X54499Y10999D01*
Y9399D01*
X53699Y8600D01*
X51300D01*
X52899D02*
X54499Y7000D01*
X56099D02*
X57698D01*
X56898D01*
Y11798D01*
X56099Y10999D01*
X60097D02*
X60897Y11798D01*
X62496D01*
X63296Y10999D01*
Y10199D01*
X62496Y9399D01*
X63296Y8600D01*
Y7800D01*
X62496Y7000D01*
X60897D01*
X60097Y7800D01*
Y8600D01*
X60897Y9399D01*
X60097Y10199D01*
Y10999D01*
X60897Y9399D02*
X62496D01*
X45600Y68700D02*
Y73498D01*
X47999D01*
X48799Y72699D01*
Y71099D01*
X47999Y70300D01*
X45600D01*
X47199D02*
X48799Y68700D01*
X50398D02*
X51998D01*
X51198D01*
Y73498D01*
X50398Y72699D01*
X57596Y73498D02*
X55997Y72699D01*
X54397Y71099D01*
Y69500D01*
X55197Y68700D01*
X56796D01*
X57596Y69500D01*
Y70300D01*
X56796Y71099D01*
X54397D01*
X53400Y120400D02*
Y125198D01*
X55799D01*
X56599Y124399D01*
Y122799D01*
X55799Y122000D01*
X53400D01*
X55000D02*
X56599Y120400D01*
X58198D02*
X59798D01*
X58998D01*
Y125198D01*
X58198Y124399D01*
X64596Y120400D02*
Y125198D01*
X62197Y122799D01*
X65396D01*
X112200Y-5600D02*
Y-802D01*
X114599D01*
X115399Y-1601D01*
Y-3201D01*
X114599Y-4000D01*
X112200D01*
X113800D02*
X115399Y-5600D01*
X116999D02*
X118598D01*
X117798D01*
Y-802D01*
X116999Y-1601D01*
X120997D02*
X121797Y-802D01*
X123396D01*
X124196Y-1601D01*
Y-2401D01*
X123396Y-3201D01*
X122597D01*
X123396D01*
X124196Y-4000D01*
Y-4800D01*
X123396Y-5600D01*
X121797D01*
X120997Y-4800D01*
X127100Y134700D02*
Y139498D01*
X129499D01*
X130299Y138699D01*
Y137099D01*
X129499Y136300D01*
X127100D01*
X128700D02*
X130299Y134700D01*
X131898D02*
X133498D01*
X132698D01*
Y139498D01*
X131898Y138699D01*
X135897Y134700D02*
X137497D01*
X136697D01*
Y139498D01*
X135897Y138699D01*
X5600Y131700D02*
Y136498D01*
X7999D01*
X8799Y135699D01*
Y134099D01*
X7999Y133300D01*
X5600D01*
X7199D02*
X8799Y131700D01*
X10398D02*
X11998D01*
X11198D01*
Y136498D01*
X10398Y135699D01*
X14397D02*
X15197Y136498D01*
X16796D01*
X17596Y135699D01*
Y132500D01*
X16796Y131700D01*
X15197D01*
X14397Y132500D01*
Y135699D01*
X98800Y50600D02*
Y55398D01*
X101199D01*
X101999Y54599D01*
Y52999D01*
X101199Y52200D01*
X98800D01*
X100399D02*
X101999Y50600D01*
X103598Y51400D02*
X104398Y50600D01*
X105998D01*
X106797Y51400D01*
Y54599D01*
X105998Y55398D01*
X104398D01*
X103598Y54599D01*
Y53799D01*
X104398Y52999D01*
X106797D01*
X99300Y25200D02*
Y29998D01*
X101699D01*
X102499Y29199D01*
Y27599D01*
X101699Y26799D01*
X99300D01*
X100900D02*
X102499Y25200D01*
X104098Y29199D02*
X104898Y29998D01*
X106498D01*
X107297Y29199D01*
Y28399D01*
X106498Y27599D01*
X107297Y26799D01*
Y26000D01*
X106498Y25200D01*
X104898D01*
X104098Y26000D01*
Y26799D01*
X104898Y27599D01*
X104098Y28399D01*
Y29199D01*
X104898Y27599D02*
X106498D01*
X84200Y32600D02*
Y37398D01*
X86599D01*
X87399Y36599D01*
Y34999D01*
X86599Y34200D01*
X84200D01*
X85799D02*
X87399Y32600D01*
X88999Y37398D02*
X92197D01*
Y36599D01*
X88999Y33400D01*
Y32600D01*
X64000Y43900D02*
Y48698D01*
X66399D01*
X67199Y47899D01*
Y46299D01*
X66399Y45500D01*
X64000D01*
X65600D02*
X67199Y43900D01*
X71997Y48698D02*
X70398Y47899D01*
X68799Y46299D01*
Y44700D01*
X69598Y43900D01*
X71198D01*
X71997Y44700D01*
Y45500D01*
X71198Y46299D01*
X68799D01*
X69800Y63900D02*
Y68699D01*
X72199D01*
X72999Y67899D01*
Y66299D01*
X72199Y65500D01*
X69800D01*
X71399D02*
X72999Y63900D01*
X77797Y68699D02*
X74598D01*
Y66299D01*
X76198Y67099D01*
X76998D01*
X77797Y66299D01*
Y64700D01*
X76998Y63900D01*
X75398D01*
X74598Y64700D01*
X46200Y14200D02*
Y18998D01*
X48599D01*
X49399Y18199D01*
Y16599D01*
X48599Y15800D01*
X46200D01*
X47800D02*
X49399Y14200D01*
X53398D02*
Y18998D01*
X50999Y16599D01*
X54197D01*
X9600Y156200D02*
X4802D01*
Y158599D01*
X5601Y159399D01*
X7201D01*
X8000Y158599D01*
Y156200D01*
X4802Y160998D02*
Y164197D01*
Y162598D01*
X9600D01*
Y168996D02*
Y165797D01*
X6401Y168996D01*
X5601D01*
X4802Y168196D01*
Y166597D01*
X5601Y165797D01*
X9600Y142200D02*
X4802D01*
Y144599D01*
X5601Y145399D01*
X7201D01*
X8000Y144599D01*
Y142200D01*
X4802Y146999D02*
Y150197D01*
Y148598D01*
X9600D01*
Y151797D02*
Y153396D01*
Y152597D01*
X4802D01*
X5601Y151797D01*
X54600Y108600D02*
Y113399D01*
X56200Y111799D01*
X57799Y113399D01*
Y108600D01*
X59399D02*
X60998D01*
X60198D01*
Y113399D01*
X59399Y112599D01*
X65000Y138498D02*
Y133700D01*
X68199D01*
X72198D02*
X70598D01*
X69798Y134500D01*
Y136099D01*
X70598Y136899D01*
X72198D01*
X72997Y136099D01*
Y135300D01*
X69798D01*
X77796Y138498D02*
Y133700D01*
X75397D01*
X74597Y134500D01*
Y136099D01*
X75397Y136899D01*
X77796D01*
X79395Y133700D02*
X80995D01*
X80195D01*
Y138498D01*
X79395Y137699D01*
X100299Y70199D02*
X99499Y70999D01*
X97900D01*
X97100Y70199D01*
Y67000D01*
X97900Y66200D01*
X99499D01*
X100299Y67000D01*
X101899Y66200D02*
X103498D01*
X102698D01*
Y70999D01*
X101899Y70199D01*
X109096Y66200D02*
X105897D01*
X109096Y69399D01*
Y70199D01*
X108296Y70999D01*
X106697D01*
X105897Y70199D01*
X128799Y117999D02*
X127999Y118798D01*
X126400D01*
X125600Y117999D01*
Y114800D01*
X126400Y114000D01*
X127999D01*
X128799Y114800D01*
X130398D02*
X131198Y114000D01*
X132798D01*
X133597Y114800D01*
Y117999D01*
X132798Y118798D01*
X131198D01*
X130398Y117999D01*
Y117199D01*
X131198Y116399D01*
X133597D01*
X30699Y27799D02*
X29899Y28598D01*
X28300D01*
X27500Y27799D01*
Y24600D01*
X28300Y23800D01*
X29899D01*
X30699Y24600D01*
X32298Y27799D02*
X33098Y28598D01*
X34698D01*
X35497Y27799D01*
Y26999D01*
X34698Y26199D01*
X35497Y25400D01*
Y24600D01*
X34698Y23800D01*
X33098D01*
X32298Y24600D01*
Y25400D01*
X33098Y26199D01*
X32298Y26999D01*
Y27799D01*
X33098Y26199D02*
X34698D01*
X83299Y54299D02*
X82499Y55098D01*
X80900D01*
X80100Y54299D01*
Y51100D01*
X80900Y50300D01*
X82499D01*
X83299Y51100D01*
X88097Y55098D02*
X86498Y54299D01*
X84899Y52699D01*
Y51100D01*
X85698Y50300D01*
X87298D01*
X88097Y51100D01*
Y51899D01*
X87298Y52699D01*
X84899D01*
X-1701Y42699D02*
X-2501Y43499D01*
X-4100D01*
X-4900Y42699D01*
Y39500D01*
X-4100Y38700D01*
X-2501D01*
X-1701Y39500D01*
X3097Y43499D02*
X-102D01*
Y41099D01*
X1498Y41899D01*
X2298D01*
X3097Y41099D01*
Y39500D01*
X2298Y38700D01*
X698D01*
X-102Y39500D01*
X65999Y87799D02*
X65199Y88599D01*
X63600D01*
X62800Y87799D01*
Y84600D01*
X63600Y83800D01*
X65199D01*
X65999Y84600D01*
X67598Y87799D02*
X68398Y88599D01*
X69998D01*
X70797Y87799D01*
Y86999D01*
X69998Y86199D01*
X69198D01*
X69998D01*
X70797Y85400D01*
Y84600D01*
X69998Y83800D01*
X68398D01*
X67598Y84600D01*
X22101Y82399D02*
X21302Y81599D01*
Y80000D01*
X22101Y79200D01*
X25300D01*
X26100Y80000D01*
Y81599D01*
X25300Y82399D01*
X26100Y87197D02*
Y83999D01*
X22901Y87197D01*
X22101D01*
X21302Y86398D01*
Y84798D01*
X22101Y83999D01*
D62*
X33150Y-2350D02*
D03*
D63*
X3387Y61200D02*
D03*
D64*
X62944Y94227D02*
D03*
D65*
X19550Y40950D02*
D03*
M02*
