%FSLAX25Y25*%
%MOIN*%
G70*
G01*
G75*
G04 Layer_Color=32896*
%ADD10R,0.05906X0.03937*%
%ADD11R,0.03937X0.05906*%
%ADD12R,0.11024X0.07874*%
%ADD13R,0.05512X0.07087*%
%ADD14R,0.07874X0.14961*%
%ADD15R,0.10000X0.20000*%
%ADD16R,0.01700X0.06600*%
%ADD17R,0.15748X0.07874*%
%ADD18R,0.10000X0.03000*%
%ADD19R,0.09000X0.15000*%
%ADD20R,0.08465X0.05000*%
%ADD21R,0.03500X0.05000*%
%ADD22R,0.04200X0.02600*%
%ADD23R,0.05512X0.06299*%
%ADD24R,0.09449X0.06299*%
%ADD25C,0.02000*%
%ADD26C,0.05000*%
%ADD27C,0.06000*%
%ADD28C,0.04500*%
%ADD29C,0.05500*%
%ADD30C,0.01500*%
%ADD31C,0.03000*%
%ADD32C,0.04000*%
%ADD33C,0.02500*%
%ADD34C,0.01000*%
%ADD35R,0.08000X0.04428*%
%ADD36R,0.07572X0.06428*%
%ADD37R,0.06500X0.08500*%
%ADD38R,0.04500X0.03500*%
%ADD39R,0.04000X0.12000*%
%ADD40R,0.04700X0.09400*%
%ADD41R,0.10000X0.05200*%
%ADD42R,0.15100X0.28000*%
%ADD43R,0.08000X0.06500*%
%ADD44R,0.07500X0.03500*%
%ADD45C,0.07874*%
%ADD46C,0.13780*%
%ADD47C,0.10000*%
%ADD48C,0.04000*%
%ADD49C,0.07000*%
%ADD50C,0.05000*%
%ADD51R,0.04724X0.09449*%
%ADD52R,0.11024X0.04724*%
%ADD53R,0.23500X0.29000*%
%ADD54C,0.00394*%
%ADD55C,0.00200*%
%ADD56C,0.00300*%
%ADD57C,0.00197*%
%ADD58C,0.00500*%
%ADD59C,0.00787*%
%ADD60C,0.00050*%
%ADD61C,0.00800*%
%ADD62R,0.02100X0.06299*%
%ADD63R,0.06000X0.16929*%
%ADD64R,0.02100X0.06299*%
%ADD65R,0.02300X0.06299*%
%ADD66R,0.06906X0.04937*%
%ADD67R,0.04937X0.06906*%
%ADD68R,0.12024X0.08874*%
%ADD69R,0.06512X0.08087*%
%ADD70R,0.08874X0.15961*%
%ADD71R,0.11000X0.21000*%
%ADD72R,0.02700X0.07600*%
%ADD73R,0.16748X0.08874*%
%ADD74R,0.11000X0.04000*%
%ADD75R,0.10000X0.16000*%
%ADD76R,0.09465X0.06000*%
%ADD77R,0.04500X0.06000*%
%ADD78R,0.05200X0.03600*%
%ADD79R,0.06512X0.07299*%
%ADD80R,0.10449X0.07299*%
%ADD81C,0.08874*%
%ADD82C,0.14779*%
%ADD83C,0.11000*%
%ADD84C,0.08000*%
%ADD85C,0.06000*%
%ADD86R,0.05724X0.10449*%
%ADD87R,0.12024X0.05724*%
%ADD88C,0.01969*%
%ADD89C,0.01181*%
D34*
X55108Y79676D02*
X118100D01*
Y174165D01*
X55108Y79676D02*
Y174165D01*
X118100D01*
X45100Y124698D02*
Y118700D01*
X43101Y120699D01*
X41101Y118700D01*
Y124698D01*
X39102Y118700D02*
X37103D01*
X38102D01*
Y122699D01*
X39102D01*
X34104Y121699D02*
X30105D01*
X24107Y124698D02*
X28106D01*
Y121699D01*
X26106D01*
X28106D01*
Y118700D01*
X22107D02*
X20108D01*
X21108D01*
Y122699D01*
X22107D01*
X17109Y118700D02*
X15110D01*
X16109D01*
Y124698D01*
X17109Y123698D01*
X98528Y131327D02*
Y136200D01*
X106400D01*
Y131327D01*
X102276Y136200D02*
Y133201D01*
X99652Y124766D02*
X98902Y125516D01*
X98528Y126641D01*
Y128140D01*
X98902Y129265D01*
X99652Y130015D01*
X100402D01*
X101152Y129640D01*
X101527Y129265D01*
X101901Y128515D01*
X102651Y126266D01*
X103026Y125516D01*
X103401Y125141D01*
X104151Y124766D01*
X105275D01*
X106025Y125516D01*
X106400Y126641D01*
Y128140D01*
X106025Y129265D01*
X105275Y130015D01*
X102651Y123004D02*
Y119631D01*
X102276Y118506D01*
X101901Y118131D01*
X101152Y117756D01*
X100027D01*
X99277Y118131D01*
X98902Y118506D01*
X98528Y119631D01*
Y123004D01*
X106400D01*
X103026Y115994D02*
Y109247D01*
X100027Y106922D02*
X99652Y106173D01*
X98528Y105048D01*
X106400D01*
X100402Y100775D02*
X100027D01*
X99277Y100400D01*
X98902Y100025D01*
X98528Y99275D01*
Y97776D01*
X98902Y97026D01*
X99277Y96651D01*
X100027Y96276D01*
X100777D01*
X101527Y96651D01*
X102651Y97401D01*
X106400Y101149D01*
Y95901D01*
X98528Y89266D02*
Y94139D01*
X106400D01*
Y89266D01*
X102276Y94139D02*
Y91140D01*
X66192Y134600D02*
X78000Y131788D01*
X66192Y128977D02*
X78000Y131788D01*
X66192Y128977D02*
X78000Y126165D01*
X66192Y123354D02*
X78000Y126165D01*
X66192Y119868D02*
X66754Y119305D01*
X66192Y118743D01*
X65629Y119305D01*
X66192Y119868D01*
X70128Y119305D02*
X78000D01*
X72939Y116662D02*
Y106541D01*
X66192Y103054D02*
X78000D01*
X66192D02*
Y95744D01*
X71815Y103054D02*
Y98556D01*
X66192Y93270D02*
X66754Y92708D01*
X66192Y92146D01*
X65629Y92708D01*
X66192Y93270D01*
X70128Y92708D02*
X78000D01*
X139500Y-10000D02*
Y171000D01*
X-10500Y-10000D02*
X139500D01*
X-10500Y171000D02*
X139500D01*
X-10500Y-10000D02*
Y171000D01*
D54*
X58258Y148574D02*
X66919D01*
Y143850D02*
Y148574D01*
X58258Y143850D02*
X66919D01*
X58258D02*
Y148574D01*
D58*
X50100Y72739D02*
Y77661D01*
X42226D02*
X50100D01*
X42226Y72739D02*
Y77661D01*
Y72739D02*
X50100D01*
D61*
X54600Y63700D02*
Y68498D01*
X52201D01*
X51401Y67699D01*
Y66099D01*
X52201Y65299D01*
X54600D01*
X53000D02*
X51401Y63700D01*
X49801D02*
X48202D01*
X49002D01*
Y68498D01*
X49801Y67699D01*
X45803Y64500D02*
X45003Y63700D01*
X43404D01*
X42604Y64500D01*
Y67699D01*
X43404Y68498D01*
X45003D01*
X45803Y67699D01*
Y66899D01*
X45003Y66099D01*
X42604D01*
D88*
X62982Y169046D02*
X78730D01*
Y152511D02*
Y169046D01*
Y152511D02*
X85817D01*
X71900Y146606D02*
X107076D01*
X85817Y152511D02*
Y169046D01*
X92903D01*
Y152511D02*
Y169046D01*
Y152511D02*
X99990D01*
Y169046D01*
X107076D01*
Y140700D02*
Y169046D01*
D89*
X110226Y85582D02*
Y140700D01*
X62982Y85582D02*
Y140700D01*
X110226D01*
X62982Y85582D02*
X110226D01*
M02*
