M48
; DRILL file {KiCad 5.1.8-1.fc31} date Wed Feb 10 10:52:08 2021
; FORMAT={-:-/ absolute / metric / decimal}
; #@! TF.CreationDate,2021-02-10T10:52:08+01:00
; #@! TF.GenerationSoftware,Kicad,Pcbnew,5.1.8-1.fc31
FMAT,2
METRIC
T1C0.400
T2C0.600
T3C0.800
T4C1.000
T5C3.200
T6C0.800
%
G90
G05
T1
X26.162Y-47.371
X26.162Y-48.514
X26.162Y-49.657
X29.083Y-118.491
X29.21Y-116.84
X30.988Y-118.491
X31.369Y-91.694
X31.496Y-124.46
X32.258Y-90.932
X32.512Y-98.679
X32.512Y-107.315
X33.274Y-32.766
X33.274Y-56.642
X33.274Y-59.436
X33.401Y-117.729
X33.401Y-119.761
X33.519Y-122.555
X34.925Y-94.234
X34.925Y-96.139
X34.925Y-105.283
X35.579Y-104.466
X35.933Y-46.347
X35.941Y-48.387
X35.941Y-50.927
X35.941Y-52.832
X36.341Y-91.081
X37.446Y-97.028
X37.465Y-113.57
X37.719Y-101.727
X38.189Y-103.505
X38.843Y-90.931
X38.843Y-108.585
X39.243Y-26.289
X39.243Y-30.861
X39.751Y-124.46
X40.386Y-90.405
X40.62Y-104.491
X41.148Y-105.283
X41.275Y-28.575
X41.275Y-30.861
X41.275Y-32.861
X41.275Y-35.433
X41.783Y-89.535
X41.91Y-49.403
X41.91Y-53.28
X42.164Y-124.46
X42.529Y-117.729
X42.545Y-119.761
X43.053Y-50.927
X43.103Y-113.576
X43.18Y-53.28
X43.688Y-112.395
X44.196Y-122.174
X44.45Y-46.482
X46.055Y-114.687
X46.952Y-91.898
X47.498Y-26.289
X47.498Y-90.57
X48.387Y-91.44
X49.403Y-107.315
X49.911Y-26.289
X50.419Y-124.46
X50.927Y-43.434
X51.943Y-59.309
X52.832Y-60.179
X52.832Y-124.46
X53.378Y-58.851
X54.275Y-36.062
X55.88Y-104.267
X56.134Y-28.575
X56.642Y-38.354
X57.15Y-97.469
X57.227Y-37.173
X57.277Y-99.822
X57.785Y-30.988
X57.801Y-33.02
X58.166Y-26.289
X58.42Y-97.469
X58.42Y-101.346
X58.547Y-61.214
X59.055Y-115.316
X59.055Y-117.888
X59.055Y-119.888
X59.055Y-122.174
X59.182Y-45.466
X59.71Y-46.258
X59.944Y-60.344
X60.579Y-26.289
X61.087Y-119.888
X61.087Y-124.46
X61.487Y-42.164
X61.487Y-59.818
X62.141Y-47.244
X62.611Y-49.022
X62.865Y-37.179
X62.884Y-53.721
X63.989Y-59.668
X64.389Y-97.917
X64.389Y-99.822
X64.389Y-102.362
X64.397Y-104.402
X64.751Y-46.283
X65.405Y-45.466
X65.405Y-54.61
X65.405Y-56.515
X66.811Y-28.194
X66.929Y-30.988
X66.929Y-33.02
X67.056Y-91.313
X67.056Y-94.107
X67.056Y-117.983
X67.818Y-43.434
X67.818Y-52.07
X68.072Y-59.817
X68.834Y-26.289
X68.961Y-59.055
X69.342Y-32.258
X71.12Y-33.909
X71.247Y-32.258
X74.168Y-101.092
X74.168Y-102.235
X74.168Y-103.378
X76.581Y-47.371
X76.581Y-48.514
X76.581Y-49.657
X79.502Y-118.491
X79.629Y-116.84
X81.407Y-118.491
X81.788Y-91.694
X81.915Y-124.46
X82.677Y-90.932
X82.931Y-98.679
X82.931Y-107.315
X83.693Y-32.766
X83.693Y-56.642
X83.693Y-59.436
X83.82Y-117.729
X83.82Y-119.761
X83.938Y-122.555
X85.344Y-94.234
X85.344Y-96.139
X85.344Y-105.283
X85.998Y-104.466
X86.352Y-46.347
X86.36Y-48.387
X86.36Y-50.927
X86.36Y-52.832
X86.76Y-91.081
X87.865Y-97.028
X87.884Y-113.57
X88.138Y-101.727
X88.608Y-103.505
X89.262Y-90.931
X89.262Y-108.585
X89.662Y-26.289
X89.662Y-30.861
X90.17Y-124.46
X90.805Y-90.405
X91.039Y-104.491
X91.567Y-105.283
X91.694Y-28.575
X91.694Y-30.861
X91.694Y-32.861
X91.694Y-35.433
X92.202Y-89.535
X92.329Y-49.403
X92.329Y-53.28
X92.583Y-124.46
X92.948Y-117.729
X92.964Y-119.761
X93.472Y-50.927
X93.522Y-113.576
X93.599Y-53.28
X94.107Y-112.395
X94.615Y-122.174
X94.869Y-46.482
X96.474Y-114.687
X97.371Y-91.898
X97.917Y-26.289
X97.917Y-90.57
X98.806Y-91.44
X99.822Y-107.315
X100.33Y-26.289
X100.838Y-124.46
X101.346Y-43.434
X102.362Y-59.309
X103.251Y-60.179
X103.251Y-124.46
X103.797Y-58.851
X104.694Y-36.062
X106.299Y-104.267
X106.553Y-28.575
X107.061Y-38.354
X107.569Y-97.469
X107.646Y-37.173
X107.696Y-99.822
X108.204Y-30.988
X108.22Y-33.02
X108.585Y-26.289
X108.839Y-97.469
X108.839Y-101.346
X108.966Y-61.214
X109.474Y-115.316
X109.474Y-117.888
X109.474Y-119.888
X109.474Y-122.174
X109.601Y-45.466
X110.129Y-46.258
X110.363Y-60.344
X110.998Y-26.289
X111.506Y-119.888
X111.506Y-124.46
X111.906Y-42.164
X111.906Y-59.818
X112.56Y-47.244
X113.03Y-49.022
X113.284Y-37.179
X113.303Y-53.721
X114.408Y-59.668
X114.808Y-97.917
X114.808Y-99.822
X114.808Y-102.362
X114.816Y-104.402
X115.17Y-46.283
X115.824Y-45.466
X115.824Y-54.61
X115.824Y-56.515
X117.23Y-28.194
X117.348Y-30.988
X117.348Y-33.02
X117.475Y-91.313
X117.475Y-94.107
X117.475Y-117.983
X118.237Y-43.434
X118.237Y-52.07
X118.491Y-59.817
X119.253Y-26.289
X119.38Y-59.055
X119.761Y-32.258
X121.539Y-33.909
X121.666Y-32.258
X124.587Y-101.092
X124.587Y-102.235
X124.587Y-103.378
T2
X26.162Y-28.448
X26.162Y-79.121
X26.924Y-26.924
X26.924Y-30.226
X26.924Y-77.343
X26.924Y-80.645
X27.178Y-65.151
X27.94Y-68.961
X27.94Y-71.501
X27.99Y-70.231
X28.702Y-26.162
X28.702Y-30.988
X28.702Y-76.581
X28.702Y-81.661
X29.083Y-62.738
X29.591Y-37.465
X30.226Y-26.924
X30.226Y-30.226
X30.48Y-68.199
X30.48Y-70.231
X30.48Y-72.009
X30.48Y-77.343
X30.48Y-80.645
X30.988Y-28.702
X30.988Y-115.57
X30.988Y-121.412
X31.242Y-79.121
X31.369Y-106.299
X32.004Y-68.199
X32.004Y-70.231
X32.004Y-72.009
X33.274Y-34.766
X34.036Y-65.024
X34.29Y-70.231
X34.671Y-79.629
X34.671Y-83.439
X34.798Y-42.164
X37.465Y-115.57
X37.592Y-57.912
X37.719Y-122.047
X39.37Y-115.57
X44.45Y-52.578
X44.45Y-62.738
X45.212Y-37.465
X45.593Y-28.575
X46.736Y-71.12
X53.594Y-79.629
X54.737Y-122.174
X55.118Y-113.284
X55.88Y-88.011
X55.88Y-98.171
X60.96Y-35.179
X62.611Y-28.702
X62.738Y-92.837
X62.865Y-35.179
X65.532Y-108.585
X65.659Y-67.31
X65.659Y-71.12
X66.04Y-80.518
X66.294Y-85.725
X67.056Y-115.983
X68.326Y-78.74
X68.326Y-80.518
X68.326Y-82.55
X68.961Y-44.45
X69.088Y-71.628
X69.342Y-29.337
X69.342Y-35.179
X69.342Y-122.047
X69.85Y-70.104
X69.85Y-73.406
X69.85Y-78.74
X69.85Y-80.518
X69.85Y-82.55
X70.104Y-120.523
X70.104Y-123.825
X70.739Y-113.284
X71.247Y-88.011
X71.628Y-69.088
X71.628Y-74.168
X71.628Y-119.761
X71.628Y-124.587
X72.34Y-80.518
X72.39Y-79.248
X72.39Y-81.788
X73.152Y-85.598
X73.406Y-70.104
X73.406Y-73.406
X73.406Y-120.523
X73.406Y-123.825
X74.168Y-71.628
X74.168Y-122.301
X76.581Y-28.448
X76.581Y-79.121
X77.343Y-26.924
X77.343Y-30.226
X77.343Y-77.343
X77.343Y-80.645
X77.597Y-65.151
X78.359Y-68.961
X78.359Y-71.501
X78.409Y-70.231
X79.121Y-26.162
X79.121Y-30.988
X79.121Y-76.581
X79.121Y-81.661
X79.502Y-62.738
X80.01Y-37.465
X80.645Y-26.924
X80.645Y-30.226
X80.899Y-68.199
X80.899Y-70.231
X80.899Y-72.009
X80.899Y-77.343
X80.899Y-80.645
X81.407Y-28.702
X81.407Y-115.57
X81.407Y-121.412
X81.661Y-79.121
X81.788Y-106.299
X82.423Y-68.199
X82.423Y-70.231
X82.423Y-72.009
X83.693Y-34.766
X84.455Y-65.024
X84.709Y-70.231
X85.09Y-79.629
X85.09Y-83.439
X85.217Y-42.164
X87.884Y-115.57
X88.011Y-57.912
X88.138Y-122.047
X89.789Y-115.57
X94.869Y-52.578
X94.869Y-62.738
X95.631Y-37.465
X96.012Y-28.575
X97.155Y-71.12
X104.013Y-79.629
X105.156Y-122.174
X105.537Y-113.284
X106.299Y-88.011
X106.299Y-98.171
X111.379Y-35.179
X113.03Y-28.702
X113.157Y-92.837
X113.284Y-35.179
X115.951Y-108.585
X116.078Y-67.31
X116.078Y-71.12
X116.459Y-80.518
X116.713Y-85.725
X117.475Y-115.983
X118.745Y-78.74
X118.745Y-80.518
X118.745Y-82.55
X119.38Y-44.45
X119.507Y-71.628
X119.761Y-29.337
X119.761Y-35.179
X119.761Y-122.047
X120.269Y-70.104
X120.269Y-73.406
X120.269Y-78.74
X120.269Y-80.518
X120.269Y-82.55
X120.523Y-120.523
X120.523Y-123.825
X121.158Y-113.284
X121.666Y-88.011
X122.047Y-69.088
X122.047Y-74.168
X122.047Y-119.761
X122.047Y-124.587
X122.759Y-80.518
X122.809Y-79.248
X122.809Y-81.788
X123.571Y-85.598
X123.825Y-70.104
X123.825Y-73.406
X123.825Y-120.523
X123.825Y-123.825
X124.587Y-71.628
X124.587Y-122.301
T3
X90.297Y-69.342
X90.297Y-71.842
X60.452Y-78.907
X60.452Y-81.407
X110.871Y-78.907
X110.871Y-81.407
X39.878Y-69.342
X39.878Y-71.842
T4
X47.244Y-33.147
X49.784Y-33.147
X52.324Y-33.147
X54.864Y-33.147
X30.226Y-93.599
X30.226Y-96.139
X30.226Y-98.679
X30.226Y-101.219
X30.226Y-103.759
X56.642Y-49.022
X70.104Y-46.99
X70.104Y-49.53
X70.104Y-52.07
X70.104Y-54.61
X70.104Y-57.15
X43.688Y-101.727
X77.597Y-37.592
X77.597Y-40.132
X77.597Y-42.672
X77.597Y-45.212
X80.645Y-93.599
X80.645Y-96.139
X80.645Y-98.679
X80.645Y-101.219
X80.645Y-103.759
X94.234Y-96.901
X88.011Y-39.624
X88.011Y-65.024
X90.551Y-39.624
X90.551Y-65.024
X93.091Y-39.624
X93.091Y-65.024
X95.631Y-39.624
X95.631Y-65.024
X98.171Y-39.624
X98.171Y-65.024
X100.711Y-39.624
X100.711Y-65.024
X103.251Y-39.624
X103.251Y-65.024
X105.791Y-39.624
X105.791Y-65.024
X108.331Y-39.624
X108.331Y-65.024
X110.871Y-39.624
X110.871Y-65.024
X113.411Y-39.624
X113.411Y-65.024
X115.951Y-39.624
X115.951Y-65.024
X118.491Y-39.624
X118.491Y-65.024
X121.031Y-39.624
X121.031Y-65.024
X123.571Y-39.624
X123.571Y-65.024
X53.34Y-47.244
X103.759Y-51.816
X46.99Y-103.505
X97.663Y-33.147
X100.203Y-33.147
X102.743Y-33.147
X105.283Y-33.147
X103.759Y-47.244
X97.409Y-98.933
X48.26Y-108.585
X50.8Y-108.585
X53.34Y-108.585
X27.178Y-37.592
X27.178Y-40.132
X27.178Y-42.672
X27.178Y-45.212
X97.155Y-73.152
X99.695Y-73.152
X102.235Y-73.152
X104.775Y-73.152
X107.315Y-73.152
X43.434Y-77.597
X45.974Y-77.597
X48.514Y-77.597
X51.054Y-77.597
X53.594Y-77.597
X119.507Y-92.837
X119.507Y-95.377
X119.507Y-97.917
X119.507Y-100.457
X119.507Y-102.997
X119.507Y-105.537
X81.661Y-45.212
X81.661Y-47.752
X81.661Y-50.292
X81.661Y-52.832
X81.661Y-55.372
X81.661Y-57.912
X31.242Y-45.212
X31.242Y-47.752
X31.242Y-50.292
X31.242Y-52.832
X31.242Y-55.372
X31.242Y-57.912
X123.571Y-89.027
X123.571Y-91.567
X123.571Y-94.107
X123.571Y-96.647
X123.571Y-99.187
X97.409Y-103.505
X43.815Y-96.901
X37.592Y-39.624
X37.592Y-65.024
X40.132Y-39.624
X40.132Y-65.024
X42.672Y-39.624
X42.672Y-65.024
X45.212Y-39.624
X45.212Y-65.024
X47.752Y-39.624
X47.752Y-65.024
X50.292Y-39.624
X50.292Y-65.024
X52.832Y-39.624
X52.832Y-65.024
X55.372Y-39.624
X55.372Y-65.024
X57.912Y-39.624
X57.912Y-65.024
X60.452Y-39.624
X60.452Y-65.024
X62.992Y-39.624
X62.992Y-65.024
X65.532Y-39.624
X65.532Y-65.024
X68.072Y-39.624
X68.072Y-65.024
X70.612Y-39.624
X70.612Y-65.024
X73.152Y-39.624
X73.152Y-65.024
X56.515Y-53.848
X46.99Y-42.164
X49.53Y-42.164
X52.07Y-42.164
X97.409Y-42.164
X99.949Y-42.164
X102.489Y-42.164
X27.178Y-85.725
X27.178Y-111.125
X29.718Y-85.725
X29.718Y-111.125
X32.258Y-85.725
X32.258Y-111.125
X34.798Y-85.725
X34.798Y-111.125
X37.338Y-85.725
X37.338Y-111.125
X39.878Y-85.725
X39.878Y-111.125
X42.418Y-85.725
X42.418Y-111.125
X44.958Y-85.725
X44.958Y-111.125
X47.498Y-85.725
X47.498Y-111.125
X50.038Y-85.725
X50.038Y-111.125
X52.578Y-85.725
X52.578Y-111.125
X55.118Y-85.725
X55.118Y-111.125
X57.658Y-85.725
X57.658Y-111.125
X60.198Y-85.725
X60.198Y-111.125
X62.738Y-85.725
X62.738Y-111.125
X46.736Y-73.152
X49.276Y-73.152
X51.816Y-73.152
X54.356Y-73.152
X56.896Y-73.152
X73.152Y-105.537
X73.152Y-108.077
X73.152Y-110.617
X73.152Y-113.157
X73.152Y-27.178
X73.152Y-29.718
X73.152Y-32.258
X73.152Y-34.798
X77.597Y-85.725
X77.597Y-111.125
X80.137Y-85.725
X80.137Y-111.125
X82.677Y-85.725
X82.677Y-111.125
X85.217Y-85.725
X85.217Y-111.125
X87.757Y-85.725
X87.757Y-111.125
X90.297Y-85.725
X90.297Y-111.125
X92.837Y-85.725
X92.837Y-111.125
X95.377Y-85.725
X95.377Y-111.125
X97.917Y-85.725
X97.917Y-111.125
X100.457Y-85.725
X100.457Y-111.125
X102.997Y-85.725
X102.997Y-111.125
X105.537Y-85.725
X105.537Y-111.125
X108.077Y-85.725
X108.077Y-111.125
X110.617Y-85.725
X110.617Y-111.125
X113.157Y-85.725
X113.157Y-111.125
X53.34Y-51.816
X77.597Y-51.562
X77.597Y-54.102
X77.597Y-56.642
X77.597Y-59.182
X77.597Y-61.722
X69.088Y-92.837
X69.088Y-95.377
X69.088Y-97.917
X69.088Y-100.457
X69.088Y-102.997
X69.088Y-105.537
X77.597Y-115.951
X77.597Y-118.491
X77.597Y-121.031
X77.597Y-123.571
X123.571Y-105.537
X123.571Y-108.077
X123.571Y-110.617
X123.571Y-113.157
X106.934Y-53.848
X95.885Y-117.602
X98.425Y-117.602
X100.965Y-117.602
X103.505Y-117.602
X94.107Y-101.727
X45.466Y-117.602
X48.006Y-117.602
X50.546Y-117.602
X53.086Y-117.602
X98.679Y-108.585
X101.219Y-108.585
X103.759Y-108.585
X120.523Y-46.99
X120.523Y-49.53
X120.523Y-52.07
X120.523Y-54.61
X120.523Y-57.15
X27.178Y-115.951
X27.178Y-118.491
X27.178Y-121.031
X27.178Y-123.571
X46.99Y-98.933
X93.853Y-77.597
X96.393Y-77.597
X98.933Y-77.597
X101.473Y-77.597
X104.013Y-77.597
X123.571Y-27.178
X123.571Y-29.718
X123.571Y-32.258
X123.571Y-34.798
X107.061Y-49.022
X73.152Y-89.027
X73.152Y-91.567
X73.152Y-94.107
X73.152Y-96.647
X73.152Y-99.187
X27.178Y-51.562
X27.178Y-54.102
X27.178Y-56.642
X27.178Y-59.182
X27.178Y-61.722
T5
X122.047Y-71.628
X78.994Y-28.575
X71.628Y-71.628
X71.755Y-122.174
X28.575Y-28.575
X122.174Y-122.174
X28.702Y-79.121
X79.121Y-79.121
T6
X113.98Y-26.627
X116.28Y-26.627
X63.561Y-26.627
X65.861Y-26.627
X84.888Y-124.122
X87.188Y-124.122
X95.497Y-124.122
X97.797Y-124.122
X42.284Y-26.627
X44.584Y-26.627
X52.952Y-26.627
X55.252Y-26.627
X34.469Y-124.122
X36.769Y-124.122
X103.371Y-26.627
X105.671Y-26.627
X106.165Y-124.122
X108.465Y-124.122
X55.746Y-124.122
X58.046Y-124.122
X45.078Y-124.122
X47.378Y-124.122
X92.703Y-26.627
X95.003Y-26.627
T0
M30
