G04 #@! TF.GenerationSoftware,KiCad,Pcbnew,5.1.9-1.fc33*
G04 #@! TF.CreationDate,2021-04-02T23:42:05+02:00*
G04 #@! TF.ProjectId,neOSensorv5_panelized,6e654f53-656e-4736-9f72-76355f70616e,rev?*
G04 #@! TF.SameCoordinates,Original*
G04 #@! TF.FileFunction,Soldermask,Bot*
G04 #@! TF.FilePolarity,Negative*
%FSLAX46Y46*%
G04 Gerber Fmt 4.6, Leading zero omitted, Abs format (unit mm)*
G04 Created by KiCad (PCBNEW 5.1.9-1.fc33) date 2021-04-02 23:42:05*
%MOMM*%
%LPD*%
G01*
G04 APERTURE LIST*
%ADD10C,0.100000*%
%ADD11R,1.200000X2.000000*%
%ADD12R,1.270000X1.524000*%
%ADD13R,2.000000X0.800000*%
%ADD14R,1.700000X1.700000*%
%ADD15O,1.700000X1.700000*%
%ADD16C,2.000000*%
%ADD17R,0.800000X1.900000*%
%ADD18C,1.700000*%
%ADD19R,1.600000X1.600000*%
%ADD20C,1.600000*%
%ADD21C,6.400000*%
G04 APERTURE END LIST*
D10*
G36*
X73660000Y-84074000D02*
G01*
X64770000Y-84074000D01*
X64770000Y-76962000D01*
X73660000Y-76962000D01*
X73660000Y-84074000D01*
G37*
X73660000Y-84074000D02*
X64770000Y-84074000D01*
X64770000Y-76962000D01*
X73660000Y-76962000D01*
X73660000Y-84074000D01*
G36*
X124079000Y-84074000D02*
G01*
X115189000Y-84074000D01*
X115189000Y-76962000D01*
X124079000Y-76962000D01*
X124079000Y-84074000D01*
G37*
X124079000Y-84074000D02*
X115189000Y-84074000D01*
X115189000Y-76962000D01*
X124079000Y-76962000D01*
X124079000Y-84074000D01*
G36*
X85979000Y-73787000D02*
G01*
X77089000Y-73787000D01*
X77089000Y-66675000D01*
X85979000Y-66675000D01*
X85979000Y-73787000D01*
G37*
X85979000Y-73787000D02*
X77089000Y-73787000D01*
X77089000Y-66675000D01*
X85979000Y-66675000D01*
X85979000Y-73787000D01*
G36*
X35560000Y-73787000D02*
G01*
X26670000Y-73787000D01*
X26670000Y-66675000D01*
X35560000Y-66675000D01*
X35560000Y-73787000D01*
G37*
X35560000Y-73787000D02*
X26670000Y-73787000D01*
X26670000Y-66675000D01*
X35560000Y-66675000D01*
X35560000Y-73787000D01*
G04 #@! TO.C,R13*
G36*
G01*
X67005000Y-101911999D02*
X67005000Y-102812001D01*
G75*
G02*
X66755001Y-103062000I-249999J0D01*
G01*
X66054999Y-103062000D01*
G75*
G02*
X65805000Y-102812001I0J249999D01*
G01*
X65805000Y-101911999D01*
G75*
G02*
X66054999Y-101662000I249999J0D01*
G01*
X66755001Y-101662000D01*
G75*
G02*
X67005000Y-101911999I0J-249999D01*
G01*
G37*
G36*
G01*
X65005000Y-101911999D02*
X65005000Y-102812001D01*
G75*
G02*
X64755001Y-103062000I-249999J0D01*
G01*
X64054999Y-103062000D01*
G75*
G02*
X63805000Y-102812001I0J249999D01*
G01*
X63805000Y-101911999D01*
G75*
G02*
X64054999Y-101662000I249999J0D01*
G01*
X64755001Y-101662000D01*
G75*
G02*
X65005000Y-101911999I0J-249999D01*
G01*
G37*
G04 #@! TD*
G04 #@! TO.C,R2*
G36*
G01*
X61655000Y-119437999D02*
X61655000Y-120338001D01*
G75*
G02*
X61405001Y-120588000I-249999J0D01*
G01*
X60704999Y-120588000D01*
G75*
G02*
X60455000Y-120338001I0J249999D01*
G01*
X60455000Y-119437999D01*
G75*
G02*
X60704999Y-119188000I249999J0D01*
G01*
X61405001Y-119188000D01*
G75*
G02*
X61655000Y-119437999I0J-249999D01*
G01*
G37*
G36*
G01*
X59655000Y-119437999D02*
X59655000Y-120338001D01*
G75*
G02*
X59405001Y-120588000I-249999J0D01*
G01*
X58704999Y-120588000D01*
G75*
G02*
X58455000Y-120338001I0J249999D01*
G01*
X58455000Y-119437999D01*
G75*
G02*
X58704999Y-119188000I249999J0D01*
G01*
X59405001Y-119188000D01*
G75*
G02*
X59655000Y-119437999I0J-249999D01*
G01*
G37*
G04 #@! TD*
D11*
G04 #@! TO.C,SW1*
X58996000Y-122155000D03*
X54796000Y-122155000D03*
D12*
X61087000Y-124460000D03*
D13*
X60706000Y-124841000D03*
D12*
X52832000Y-124460000D03*
D13*
X53213000Y-124841000D03*
G04 #@! TD*
D14*
G04 #@! TO.C,J4*
X53594000Y-77597000D03*
D15*
X51054000Y-77597000D03*
X48514000Y-77597000D03*
X45974000Y-77597000D03*
X43434000Y-77597000D03*
G04 #@! TD*
D14*
G04 #@! TO.C,J5*
X30226000Y-103759000D03*
D15*
X30226000Y-101219000D03*
X30226000Y-98679000D03*
X30226000Y-96139000D03*
X30226000Y-93599000D03*
G04 #@! TD*
D16*
G04 #@! TO.C,TP4*
X46990000Y-98933000D03*
G04 #@! TD*
G04 #@! TO.C,U5*
G36*
G01*
X51920000Y-96481500D02*
X52220000Y-96481500D01*
G75*
G02*
X52370000Y-96631500I0J-150000D01*
G01*
X52370000Y-98306500D01*
G75*
G02*
X52220000Y-98456500I-150000J0D01*
G01*
X51920000Y-98456500D01*
G75*
G02*
X51770000Y-98306500I0J150000D01*
G01*
X51770000Y-96631500D01*
G75*
G02*
X51920000Y-96481500I150000J0D01*
G01*
G37*
G36*
G01*
X53190000Y-96481500D02*
X53490000Y-96481500D01*
G75*
G02*
X53640000Y-96631500I0J-150000D01*
G01*
X53640000Y-98306500D01*
G75*
G02*
X53490000Y-98456500I-150000J0D01*
G01*
X53190000Y-98456500D01*
G75*
G02*
X53040000Y-98306500I0J150000D01*
G01*
X53040000Y-96631500D01*
G75*
G02*
X53190000Y-96481500I150000J0D01*
G01*
G37*
G36*
G01*
X54460000Y-96481500D02*
X54760000Y-96481500D01*
G75*
G02*
X54910000Y-96631500I0J-150000D01*
G01*
X54910000Y-98306500D01*
G75*
G02*
X54760000Y-98456500I-150000J0D01*
G01*
X54460000Y-98456500D01*
G75*
G02*
X54310000Y-98306500I0J150000D01*
G01*
X54310000Y-96631500D01*
G75*
G02*
X54460000Y-96481500I150000J0D01*
G01*
G37*
G36*
G01*
X55730000Y-96481500D02*
X56030000Y-96481500D01*
G75*
G02*
X56180000Y-96631500I0J-150000D01*
G01*
X56180000Y-98306500D01*
G75*
G02*
X56030000Y-98456500I-150000J0D01*
G01*
X55730000Y-98456500D01*
G75*
G02*
X55580000Y-98306500I0J150000D01*
G01*
X55580000Y-96631500D01*
G75*
G02*
X55730000Y-96481500I150000J0D01*
G01*
G37*
G36*
G01*
X57000000Y-96481500D02*
X57300000Y-96481500D01*
G75*
G02*
X57450000Y-96631500I0J-150000D01*
G01*
X57450000Y-98306500D01*
G75*
G02*
X57300000Y-98456500I-150000J0D01*
G01*
X57000000Y-98456500D01*
G75*
G02*
X56850000Y-98306500I0J150000D01*
G01*
X56850000Y-96631500D01*
G75*
G02*
X57000000Y-96481500I150000J0D01*
G01*
G37*
G36*
G01*
X58270000Y-96481500D02*
X58570000Y-96481500D01*
G75*
G02*
X58720000Y-96631500I0J-150000D01*
G01*
X58720000Y-98306500D01*
G75*
G02*
X58570000Y-98456500I-150000J0D01*
G01*
X58270000Y-98456500D01*
G75*
G02*
X58120000Y-98306500I0J150000D01*
G01*
X58120000Y-96631500D01*
G75*
G02*
X58270000Y-96481500I150000J0D01*
G01*
G37*
G36*
G01*
X59540000Y-96481500D02*
X59840000Y-96481500D01*
G75*
G02*
X59990000Y-96631500I0J-150000D01*
G01*
X59990000Y-98306500D01*
G75*
G02*
X59840000Y-98456500I-150000J0D01*
G01*
X59540000Y-98456500D01*
G75*
G02*
X59390000Y-98306500I0J150000D01*
G01*
X59390000Y-96631500D01*
G75*
G02*
X59540000Y-96481500I150000J0D01*
G01*
G37*
G36*
G01*
X59540000Y-103406500D02*
X59840000Y-103406500D01*
G75*
G02*
X59990000Y-103556500I0J-150000D01*
G01*
X59990000Y-105231500D01*
G75*
G02*
X59840000Y-105381500I-150000J0D01*
G01*
X59540000Y-105381500D01*
G75*
G02*
X59390000Y-105231500I0J150000D01*
G01*
X59390000Y-103556500D01*
G75*
G02*
X59540000Y-103406500I150000J0D01*
G01*
G37*
G36*
G01*
X58270000Y-103406500D02*
X58570000Y-103406500D01*
G75*
G02*
X58720000Y-103556500I0J-150000D01*
G01*
X58720000Y-105231500D01*
G75*
G02*
X58570000Y-105381500I-150000J0D01*
G01*
X58270000Y-105381500D01*
G75*
G02*
X58120000Y-105231500I0J150000D01*
G01*
X58120000Y-103556500D01*
G75*
G02*
X58270000Y-103406500I150000J0D01*
G01*
G37*
G36*
G01*
X57000000Y-103406500D02*
X57300000Y-103406500D01*
G75*
G02*
X57450000Y-103556500I0J-150000D01*
G01*
X57450000Y-105231500D01*
G75*
G02*
X57300000Y-105381500I-150000J0D01*
G01*
X57000000Y-105381500D01*
G75*
G02*
X56850000Y-105231500I0J150000D01*
G01*
X56850000Y-103556500D01*
G75*
G02*
X57000000Y-103406500I150000J0D01*
G01*
G37*
G36*
G01*
X55730000Y-103406500D02*
X56030000Y-103406500D01*
G75*
G02*
X56180000Y-103556500I0J-150000D01*
G01*
X56180000Y-105231500D01*
G75*
G02*
X56030000Y-105381500I-150000J0D01*
G01*
X55730000Y-105381500D01*
G75*
G02*
X55580000Y-105231500I0J150000D01*
G01*
X55580000Y-103556500D01*
G75*
G02*
X55730000Y-103406500I150000J0D01*
G01*
G37*
G36*
G01*
X54460000Y-103406500D02*
X54760000Y-103406500D01*
G75*
G02*
X54910000Y-103556500I0J-150000D01*
G01*
X54910000Y-105231500D01*
G75*
G02*
X54760000Y-105381500I-150000J0D01*
G01*
X54460000Y-105381500D01*
G75*
G02*
X54310000Y-105231500I0J150000D01*
G01*
X54310000Y-103556500D01*
G75*
G02*
X54460000Y-103406500I150000J0D01*
G01*
G37*
G36*
G01*
X53190000Y-103406500D02*
X53490000Y-103406500D01*
G75*
G02*
X53640000Y-103556500I0J-150000D01*
G01*
X53640000Y-105231500D01*
G75*
G02*
X53490000Y-105381500I-150000J0D01*
G01*
X53190000Y-105381500D01*
G75*
G02*
X53040000Y-105231500I0J150000D01*
G01*
X53040000Y-103556500D01*
G75*
G02*
X53190000Y-103406500I150000J0D01*
G01*
G37*
G36*
G01*
X51920000Y-103406500D02*
X52220000Y-103406500D01*
G75*
G02*
X52370000Y-103556500I0J-150000D01*
G01*
X52370000Y-105231500D01*
G75*
G02*
X52220000Y-105381500I-150000J0D01*
G01*
X51920000Y-105381500D01*
G75*
G02*
X51770000Y-105231500I0J150000D01*
G01*
X51770000Y-103556500D01*
G75*
G02*
X51920000Y-103406500I150000J0D01*
G01*
G37*
G04 #@! TD*
D17*
G04 #@! TO.C,Q1*
X62992000Y-116967000D03*
X64892000Y-116967000D03*
X63942000Y-119967000D03*
G04 #@! TD*
D16*
G04 #@! TO.C,TP5*
X43688000Y-101727000D03*
G04 #@! TD*
D14*
G04 #@! TO.C,J6*
X69088000Y-92837000D03*
D15*
X69088000Y-95377000D03*
X69088000Y-97917000D03*
X69088000Y-100457000D03*
X69088000Y-102997000D03*
X69088000Y-105537000D03*
G04 #@! TD*
D14*
G04 #@! TO.C,J3*
X73152000Y-99187000D03*
D15*
X73152000Y-96647000D03*
X73152000Y-94107000D03*
X73152000Y-91567000D03*
X73152000Y-89027000D03*
G04 #@! TD*
G04 #@! TO.C,R5*
G36*
G01*
X32309000Y-96589001D02*
X32309000Y-95688999D01*
G75*
G02*
X32558999Y-95439000I249999J0D01*
G01*
X33259001Y-95439000D01*
G75*
G02*
X33509000Y-95688999I0J-249999D01*
G01*
X33509000Y-96589001D01*
G75*
G02*
X33259001Y-96839000I-249999J0D01*
G01*
X32558999Y-96839000D01*
G75*
G02*
X32309000Y-96589001I0J249999D01*
G01*
G37*
G36*
G01*
X34309000Y-96589001D02*
X34309000Y-95688999D01*
G75*
G02*
X34558999Y-95439000I249999J0D01*
G01*
X35259001Y-95439000D01*
G75*
G02*
X35509000Y-95688999I0J-249999D01*
G01*
X35509000Y-96589001D01*
G75*
G02*
X35259001Y-96839000I-249999J0D01*
G01*
X34558999Y-96839000D01*
G75*
G02*
X34309000Y-96589001I0J249999D01*
G01*
G37*
G04 #@! TD*
D16*
G04 #@! TO.C,TP6*
X46990000Y-103505000D03*
G04 #@! TD*
D14*
G04 #@! TO.C,U2*
X53086000Y-117602000D03*
D18*
X50546000Y-117602000D03*
X48006000Y-117602000D03*
X45466000Y-117602000D03*
G04 #@! TD*
G04 #@! TO.C,R1*
G36*
G01*
X67506001Y-118583000D02*
X66605999Y-118583000D01*
G75*
G02*
X66356000Y-118333001I0J249999D01*
G01*
X66356000Y-117632999D01*
G75*
G02*
X66605999Y-117383000I249999J0D01*
G01*
X67506001Y-117383000D01*
G75*
G02*
X67756000Y-117632999I0J-249999D01*
G01*
X67756000Y-118333001D01*
G75*
G02*
X67506001Y-118583000I-249999J0D01*
G01*
G37*
G36*
G01*
X67506001Y-116583000D02*
X66605999Y-116583000D01*
G75*
G02*
X66356000Y-116333001I0J249999D01*
G01*
X66356000Y-115632999D01*
G75*
G02*
X66605999Y-115383000I249999J0D01*
G01*
X67506001Y-115383000D01*
G75*
G02*
X67756000Y-115632999I0J-249999D01*
G01*
X67756000Y-116333001D01*
G75*
G02*
X67506001Y-116583000I-249999J0D01*
G01*
G37*
G04 #@! TD*
G04 #@! TO.C,R18*
G36*
G01*
X67005000Y-99371999D02*
X67005000Y-100272001D01*
G75*
G02*
X66755001Y-100522000I-249999J0D01*
G01*
X66054999Y-100522000D01*
G75*
G02*
X65805000Y-100272001I0J249999D01*
G01*
X65805000Y-99371999D01*
G75*
G02*
X66054999Y-99122000I249999J0D01*
G01*
X66755001Y-99122000D01*
G75*
G02*
X67005000Y-99371999I0J-249999D01*
G01*
G37*
G36*
G01*
X65005000Y-99371999D02*
X65005000Y-100272001D01*
G75*
G02*
X64755001Y-100522000I-249999J0D01*
G01*
X64054999Y-100522000D01*
G75*
G02*
X63805000Y-100272001I0J249999D01*
G01*
X63805000Y-99371999D01*
G75*
G02*
X64054999Y-99122000I249999J0D01*
G01*
X64755001Y-99122000D01*
G75*
G02*
X65005000Y-99371999I0J-249999D01*
G01*
G37*
G04 #@! TD*
D16*
G04 #@! TO.C,TP3*
X43815000Y-96901000D03*
G04 #@! TD*
D19*
G04 #@! TO.C,C2*
X60452000Y-81407000D03*
D20*
X60452000Y-78907000D03*
G04 #@! TD*
D14*
G04 #@! TO.C,J2*
X27178000Y-123571000D03*
D15*
X27178000Y-121031000D03*
X27178000Y-118491000D03*
X27178000Y-115951000D03*
G04 #@! TD*
D21*
G04 #@! TO.C,H2*
X28702000Y-79121000D03*
G04 #@! TD*
D14*
G04 #@! TO.C,U1*
X53340000Y-108585000D03*
D18*
X50800000Y-108585000D03*
X48260000Y-108585000D03*
G04 #@! TD*
G04 #@! TO.C,C5*
G36*
G01*
X32950999Y-117129000D02*
X33851001Y-117129000D01*
G75*
G02*
X34101000Y-117378999I0J-249999D01*
G01*
X34101000Y-118079001D01*
G75*
G02*
X33851001Y-118329000I-249999J0D01*
G01*
X32950999Y-118329000D01*
G75*
G02*
X32701000Y-118079001I0J249999D01*
G01*
X32701000Y-117378999D01*
G75*
G02*
X32950999Y-117129000I249999J0D01*
G01*
G37*
G36*
G01*
X32950999Y-119129000D02*
X33851001Y-119129000D01*
G75*
G02*
X34101000Y-119378999I0J-249999D01*
G01*
X34101000Y-120079001D01*
G75*
G02*
X33851001Y-120329000I-249999J0D01*
G01*
X32950999Y-120329000D01*
G75*
G02*
X32701000Y-120079001I0J249999D01*
G01*
X32701000Y-119378999D01*
G75*
G02*
X32950999Y-119129000I249999J0D01*
G01*
G37*
G04 #@! TD*
G04 #@! TO.C,R15*
G36*
G01*
X67005000Y-97466999D02*
X67005000Y-98367001D01*
G75*
G02*
X66755001Y-98617000I-249999J0D01*
G01*
X66054999Y-98617000D01*
G75*
G02*
X65805000Y-98367001I0J249999D01*
G01*
X65805000Y-97466999D01*
G75*
G02*
X66054999Y-97217000I249999J0D01*
G01*
X66755001Y-97217000D01*
G75*
G02*
X67005000Y-97466999I0J-249999D01*
G01*
G37*
G36*
G01*
X65005000Y-97466999D02*
X65005000Y-98367001D01*
G75*
G02*
X64755001Y-98617000I-249999J0D01*
G01*
X64054999Y-98617000D01*
G75*
G02*
X63805000Y-98367001I0J249999D01*
G01*
X63805000Y-97466999D01*
G75*
G02*
X64054999Y-97217000I249999J0D01*
G01*
X64755001Y-97217000D01*
G75*
G02*
X65005000Y-97466999I0J-249999D01*
G01*
G37*
G04 #@! TD*
D11*
G04 #@! TO.C,SW2*
X48328000Y-122155000D03*
X44128000Y-122155000D03*
D12*
X50419000Y-124460000D03*
D13*
X50038000Y-124841000D03*
D12*
X42164000Y-124460000D03*
D13*
X42545000Y-124841000D03*
G04 #@! TD*
D11*
G04 #@! TO.C,SW3*
X37719000Y-122155000D03*
X33519000Y-122155000D03*
D12*
X39810000Y-124460000D03*
D13*
X39429000Y-124841000D03*
D12*
X31555000Y-124460000D03*
D13*
X31936000Y-124841000D03*
G04 #@! TD*
G04 #@! TO.C,R14*
G36*
G01*
X67005000Y-103943999D02*
X67005000Y-104844001D01*
G75*
G02*
X66755001Y-105094000I-249999J0D01*
G01*
X66054999Y-105094000D01*
G75*
G02*
X65805000Y-104844001I0J249999D01*
G01*
X65805000Y-103943999D01*
G75*
G02*
X66054999Y-103694000I249999J0D01*
G01*
X66755001Y-103694000D01*
G75*
G02*
X67005000Y-103943999I0J-249999D01*
G01*
G37*
G36*
G01*
X65005000Y-103943999D02*
X65005000Y-104844001D01*
G75*
G02*
X64755001Y-105094000I-249999J0D01*
G01*
X64054999Y-105094000D01*
G75*
G02*
X63805000Y-104844001I0J249999D01*
G01*
X63805000Y-103943999D01*
G75*
G02*
X64054999Y-103694000I249999J0D01*
G01*
X64755001Y-103694000D01*
G75*
G02*
X65005000Y-103943999I0J-249999D01*
G01*
G37*
G04 #@! TD*
G04 #@! TO.C,R7*
G36*
G01*
X42995001Y-120361000D02*
X42094999Y-120361000D01*
G75*
G02*
X41845000Y-120111001I0J249999D01*
G01*
X41845000Y-119410999D01*
G75*
G02*
X42094999Y-119161000I249999J0D01*
G01*
X42995001Y-119161000D01*
G75*
G02*
X43245000Y-119410999I0J-249999D01*
G01*
X43245000Y-120111001D01*
G75*
G02*
X42995001Y-120361000I-249999J0D01*
G01*
G37*
G36*
G01*
X42995001Y-118361000D02*
X42094999Y-118361000D01*
G75*
G02*
X41845000Y-118111001I0J249999D01*
G01*
X41845000Y-117410999D01*
G75*
G02*
X42094999Y-117161000I249999J0D01*
G01*
X42995001Y-117161000D01*
G75*
G02*
X43245000Y-117410999I0J-249999D01*
G01*
X43245000Y-118111001D01*
G75*
G02*
X42995001Y-118361000I-249999J0D01*
G01*
G37*
G04 #@! TD*
D14*
G04 #@! TO.C,J1*
X73152000Y-105537000D03*
D15*
X73152000Y-108077000D03*
X73152000Y-110617000D03*
X73152000Y-113157000D03*
G04 #@! TD*
D14*
G04 #@! TO.C,U3*
X62738000Y-111125000D03*
D18*
X60198000Y-111125000D03*
X57658000Y-111125000D03*
X55118000Y-111125000D03*
X52578000Y-111125000D03*
X50038000Y-111125000D03*
X47498000Y-111125000D03*
X44958000Y-111125000D03*
X42418000Y-111125000D03*
X39878000Y-111125000D03*
X37338000Y-111125000D03*
X34798000Y-111125000D03*
X32258000Y-111125000D03*
X29718000Y-111125000D03*
X27178000Y-111125000D03*
X27178000Y-85725000D03*
X29718000Y-85725000D03*
X32258000Y-85725000D03*
X34798000Y-85725000D03*
X37338000Y-85725000D03*
X39878000Y-85725000D03*
X42418000Y-85725000D03*
X44958000Y-85725000D03*
X47498000Y-85725000D03*
X50038000Y-85725000D03*
X52578000Y-85725000D03*
X55118000Y-85725000D03*
X57658000Y-85725000D03*
X60198000Y-85725000D03*
X62738000Y-85725000D03*
G04 #@! TD*
G04 #@! TO.C,R4*
G36*
G01*
X28483000Y-118941001D02*
X28483000Y-118040999D01*
G75*
G02*
X28732999Y-117791000I249999J0D01*
G01*
X29433001Y-117791000D01*
G75*
G02*
X29683000Y-118040999I0J-249999D01*
G01*
X29683000Y-118941001D01*
G75*
G02*
X29433001Y-119191000I-249999J0D01*
G01*
X28732999Y-119191000D01*
G75*
G02*
X28483000Y-118941001I0J249999D01*
G01*
G37*
G36*
G01*
X30483000Y-118941001D02*
X30483000Y-118040999D01*
G75*
G02*
X30732999Y-117791000I249999J0D01*
G01*
X31433001Y-117791000D01*
G75*
G02*
X31683000Y-118040999I0J-249999D01*
G01*
X31683000Y-118941001D01*
G75*
G02*
X31433001Y-119191000I-249999J0D01*
G01*
X30732999Y-119191000D01*
G75*
G02*
X30483000Y-118941001I0J249999D01*
G01*
G37*
G04 #@! TD*
D21*
G04 #@! TO.C,H1*
X71755000Y-122174000D03*
G04 #@! TD*
D18*
G04 #@! TO.C,U1*
X98679000Y-108585000D03*
X101219000Y-108585000D03*
D14*
X103759000Y-108585000D03*
G04 #@! TD*
G04 #@! TO.C,C5*
G36*
G01*
X83369999Y-119129000D02*
X84270001Y-119129000D01*
G75*
G02*
X84520000Y-119378999I0J-249999D01*
G01*
X84520000Y-120079001D01*
G75*
G02*
X84270001Y-120329000I-249999J0D01*
G01*
X83369999Y-120329000D01*
G75*
G02*
X83120000Y-120079001I0J249999D01*
G01*
X83120000Y-119378999D01*
G75*
G02*
X83369999Y-119129000I249999J0D01*
G01*
G37*
G36*
G01*
X83369999Y-117129000D02*
X84270001Y-117129000D01*
G75*
G02*
X84520000Y-117378999I0J-249999D01*
G01*
X84520000Y-118079001D01*
G75*
G02*
X84270001Y-118329000I-249999J0D01*
G01*
X83369999Y-118329000D01*
G75*
G02*
X83120000Y-118079001I0J249999D01*
G01*
X83120000Y-117378999D01*
G75*
G02*
X83369999Y-117129000I249999J0D01*
G01*
G37*
G04 #@! TD*
G04 #@! TO.C,U5*
G36*
G01*
X102339000Y-103406500D02*
X102639000Y-103406500D01*
G75*
G02*
X102789000Y-103556500I0J-150000D01*
G01*
X102789000Y-105231500D01*
G75*
G02*
X102639000Y-105381500I-150000J0D01*
G01*
X102339000Y-105381500D01*
G75*
G02*
X102189000Y-105231500I0J150000D01*
G01*
X102189000Y-103556500D01*
G75*
G02*
X102339000Y-103406500I150000J0D01*
G01*
G37*
G36*
G01*
X103609000Y-103406500D02*
X103909000Y-103406500D01*
G75*
G02*
X104059000Y-103556500I0J-150000D01*
G01*
X104059000Y-105231500D01*
G75*
G02*
X103909000Y-105381500I-150000J0D01*
G01*
X103609000Y-105381500D01*
G75*
G02*
X103459000Y-105231500I0J150000D01*
G01*
X103459000Y-103556500D01*
G75*
G02*
X103609000Y-103406500I150000J0D01*
G01*
G37*
G36*
G01*
X104879000Y-103406500D02*
X105179000Y-103406500D01*
G75*
G02*
X105329000Y-103556500I0J-150000D01*
G01*
X105329000Y-105231500D01*
G75*
G02*
X105179000Y-105381500I-150000J0D01*
G01*
X104879000Y-105381500D01*
G75*
G02*
X104729000Y-105231500I0J150000D01*
G01*
X104729000Y-103556500D01*
G75*
G02*
X104879000Y-103406500I150000J0D01*
G01*
G37*
G36*
G01*
X106149000Y-103406500D02*
X106449000Y-103406500D01*
G75*
G02*
X106599000Y-103556500I0J-150000D01*
G01*
X106599000Y-105231500D01*
G75*
G02*
X106449000Y-105381500I-150000J0D01*
G01*
X106149000Y-105381500D01*
G75*
G02*
X105999000Y-105231500I0J150000D01*
G01*
X105999000Y-103556500D01*
G75*
G02*
X106149000Y-103406500I150000J0D01*
G01*
G37*
G36*
G01*
X107419000Y-103406500D02*
X107719000Y-103406500D01*
G75*
G02*
X107869000Y-103556500I0J-150000D01*
G01*
X107869000Y-105231500D01*
G75*
G02*
X107719000Y-105381500I-150000J0D01*
G01*
X107419000Y-105381500D01*
G75*
G02*
X107269000Y-105231500I0J150000D01*
G01*
X107269000Y-103556500D01*
G75*
G02*
X107419000Y-103406500I150000J0D01*
G01*
G37*
G36*
G01*
X108689000Y-103406500D02*
X108989000Y-103406500D01*
G75*
G02*
X109139000Y-103556500I0J-150000D01*
G01*
X109139000Y-105231500D01*
G75*
G02*
X108989000Y-105381500I-150000J0D01*
G01*
X108689000Y-105381500D01*
G75*
G02*
X108539000Y-105231500I0J150000D01*
G01*
X108539000Y-103556500D01*
G75*
G02*
X108689000Y-103406500I150000J0D01*
G01*
G37*
G36*
G01*
X109959000Y-103406500D02*
X110259000Y-103406500D01*
G75*
G02*
X110409000Y-103556500I0J-150000D01*
G01*
X110409000Y-105231500D01*
G75*
G02*
X110259000Y-105381500I-150000J0D01*
G01*
X109959000Y-105381500D01*
G75*
G02*
X109809000Y-105231500I0J150000D01*
G01*
X109809000Y-103556500D01*
G75*
G02*
X109959000Y-103406500I150000J0D01*
G01*
G37*
G36*
G01*
X109959000Y-96481500D02*
X110259000Y-96481500D01*
G75*
G02*
X110409000Y-96631500I0J-150000D01*
G01*
X110409000Y-98306500D01*
G75*
G02*
X110259000Y-98456500I-150000J0D01*
G01*
X109959000Y-98456500D01*
G75*
G02*
X109809000Y-98306500I0J150000D01*
G01*
X109809000Y-96631500D01*
G75*
G02*
X109959000Y-96481500I150000J0D01*
G01*
G37*
G36*
G01*
X108689000Y-96481500D02*
X108989000Y-96481500D01*
G75*
G02*
X109139000Y-96631500I0J-150000D01*
G01*
X109139000Y-98306500D01*
G75*
G02*
X108989000Y-98456500I-150000J0D01*
G01*
X108689000Y-98456500D01*
G75*
G02*
X108539000Y-98306500I0J150000D01*
G01*
X108539000Y-96631500D01*
G75*
G02*
X108689000Y-96481500I150000J0D01*
G01*
G37*
G36*
G01*
X107419000Y-96481500D02*
X107719000Y-96481500D01*
G75*
G02*
X107869000Y-96631500I0J-150000D01*
G01*
X107869000Y-98306500D01*
G75*
G02*
X107719000Y-98456500I-150000J0D01*
G01*
X107419000Y-98456500D01*
G75*
G02*
X107269000Y-98306500I0J150000D01*
G01*
X107269000Y-96631500D01*
G75*
G02*
X107419000Y-96481500I150000J0D01*
G01*
G37*
G36*
G01*
X106149000Y-96481500D02*
X106449000Y-96481500D01*
G75*
G02*
X106599000Y-96631500I0J-150000D01*
G01*
X106599000Y-98306500D01*
G75*
G02*
X106449000Y-98456500I-150000J0D01*
G01*
X106149000Y-98456500D01*
G75*
G02*
X105999000Y-98306500I0J150000D01*
G01*
X105999000Y-96631500D01*
G75*
G02*
X106149000Y-96481500I150000J0D01*
G01*
G37*
G36*
G01*
X104879000Y-96481500D02*
X105179000Y-96481500D01*
G75*
G02*
X105329000Y-96631500I0J-150000D01*
G01*
X105329000Y-98306500D01*
G75*
G02*
X105179000Y-98456500I-150000J0D01*
G01*
X104879000Y-98456500D01*
G75*
G02*
X104729000Y-98306500I0J150000D01*
G01*
X104729000Y-96631500D01*
G75*
G02*
X104879000Y-96481500I150000J0D01*
G01*
G37*
G36*
G01*
X103609000Y-96481500D02*
X103909000Y-96481500D01*
G75*
G02*
X104059000Y-96631500I0J-150000D01*
G01*
X104059000Y-98306500D01*
G75*
G02*
X103909000Y-98456500I-150000J0D01*
G01*
X103609000Y-98456500D01*
G75*
G02*
X103459000Y-98306500I0J150000D01*
G01*
X103459000Y-96631500D01*
G75*
G02*
X103609000Y-96481500I150000J0D01*
G01*
G37*
G36*
G01*
X102339000Y-96481500D02*
X102639000Y-96481500D01*
G75*
G02*
X102789000Y-96631500I0J-150000D01*
G01*
X102789000Y-98306500D01*
G75*
G02*
X102639000Y-98456500I-150000J0D01*
G01*
X102339000Y-98456500D01*
G75*
G02*
X102189000Y-98306500I0J150000D01*
G01*
X102189000Y-96631500D01*
G75*
G02*
X102339000Y-96481500I150000J0D01*
G01*
G37*
G04 #@! TD*
D17*
G04 #@! TO.C,Q1*
X114361000Y-119967000D03*
X115311000Y-116967000D03*
X113411000Y-116967000D03*
G04 #@! TD*
D16*
G04 #@! TO.C,TP5*
X94107000Y-101727000D03*
G04 #@! TD*
G04 #@! TO.C,R5*
G36*
G01*
X84728000Y-96589001D02*
X84728000Y-95688999D01*
G75*
G02*
X84977999Y-95439000I249999J0D01*
G01*
X85678001Y-95439000D01*
G75*
G02*
X85928000Y-95688999I0J-249999D01*
G01*
X85928000Y-96589001D01*
G75*
G02*
X85678001Y-96839000I-249999J0D01*
G01*
X84977999Y-96839000D01*
G75*
G02*
X84728000Y-96589001I0J249999D01*
G01*
G37*
G36*
G01*
X82728000Y-96589001D02*
X82728000Y-95688999D01*
G75*
G02*
X82977999Y-95439000I249999J0D01*
G01*
X83678001Y-95439000D01*
G75*
G02*
X83928000Y-95688999I0J-249999D01*
G01*
X83928000Y-96589001D01*
G75*
G02*
X83678001Y-96839000I-249999J0D01*
G01*
X82977999Y-96839000D01*
G75*
G02*
X82728000Y-96589001I0J249999D01*
G01*
G37*
G04 #@! TD*
D15*
G04 #@! TO.C,J6*
X119507000Y-105537000D03*
X119507000Y-102997000D03*
X119507000Y-100457000D03*
X119507000Y-97917000D03*
X119507000Y-95377000D03*
D14*
X119507000Y-92837000D03*
G04 #@! TD*
D15*
G04 #@! TO.C,J3*
X123571000Y-89027000D03*
X123571000Y-91567000D03*
X123571000Y-94107000D03*
X123571000Y-96647000D03*
D14*
X123571000Y-99187000D03*
G04 #@! TD*
D13*
G04 #@! TO.C,SW2*
X92964000Y-124841000D03*
D12*
X92583000Y-124460000D03*
D13*
X100457000Y-124841000D03*
D12*
X100838000Y-124460000D03*
D11*
X94547000Y-122155000D03*
X98747000Y-122155000D03*
G04 #@! TD*
G04 #@! TO.C,R2*
G36*
G01*
X110074000Y-119437999D02*
X110074000Y-120338001D01*
G75*
G02*
X109824001Y-120588000I-249999J0D01*
G01*
X109123999Y-120588000D01*
G75*
G02*
X108874000Y-120338001I0J249999D01*
G01*
X108874000Y-119437999D01*
G75*
G02*
X109123999Y-119188000I249999J0D01*
G01*
X109824001Y-119188000D01*
G75*
G02*
X110074000Y-119437999I0J-249999D01*
G01*
G37*
G36*
G01*
X112074000Y-119437999D02*
X112074000Y-120338001D01*
G75*
G02*
X111824001Y-120588000I-249999J0D01*
G01*
X111123999Y-120588000D01*
G75*
G02*
X110874000Y-120338001I0J249999D01*
G01*
X110874000Y-119437999D01*
G75*
G02*
X111123999Y-119188000I249999J0D01*
G01*
X111824001Y-119188000D01*
G75*
G02*
X112074000Y-119437999I0J-249999D01*
G01*
G37*
G04 #@! TD*
D16*
G04 #@! TO.C,TP3*
X94234000Y-96901000D03*
G04 #@! TD*
G04 #@! TO.C,R7*
G36*
G01*
X93414001Y-118361000D02*
X92513999Y-118361000D01*
G75*
G02*
X92264000Y-118111001I0J249999D01*
G01*
X92264000Y-117410999D01*
G75*
G02*
X92513999Y-117161000I249999J0D01*
G01*
X93414001Y-117161000D01*
G75*
G02*
X93664000Y-117410999I0J-249999D01*
G01*
X93664000Y-118111001D01*
G75*
G02*
X93414001Y-118361000I-249999J0D01*
G01*
G37*
G36*
G01*
X93414001Y-120361000D02*
X92513999Y-120361000D01*
G75*
G02*
X92264000Y-120111001I0J249999D01*
G01*
X92264000Y-119410999D01*
G75*
G02*
X92513999Y-119161000I249999J0D01*
G01*
X93414001Y-119161000D01*
G75*
G02*
X93664000Y-119410999I0J-249999D01*
G01*
X93664000Y-120111001D01*
G75*
G02*
X93414001Y-120361000I-249999J0D01*
G01*
G37*
G04 #@! TD*
D13*
G04 #@! TO.C,SW3*
X82355000Y-124841000D03*
D12*
X81974000Y-124460000D03*
D13*
X89848000Y-124841000D03*
D12*
X90229000Y-124460000D03*
D11*
X83938000Y-122155000D03*
X88138000Y-122155000D03*
G04 #@! TD*
G04 #@! TO.C,R15*
G36*
G01*
X115424000Y-97466999D02*
X115424000Y-98367001D01*
G75*
G02*
X115174001Y-98617000I-249999J0D01*
G01*
X114473999Y-98617000D01*
G75*
G02*
X114224000Y-98367001I0J249999D01*
G01*
X114224000Y-97466999D01*
G75*
G02*
X114473999Y-97217000I249999J0D01*
G01*
X115174001Y-97217000D01*
G75*
G02*
X115424000Y-97466999I0J-249999D01*
G01*
G37*
G36*
G01*
X117424000Y-97466999D02*
X117424000Y-98367001D01*
G75*
G02*
X117174001Y-98617000I-249999J0D01*
G01*
X116473999Y-98617000D01*
G75*
G02*
X116224000Y-98367001I0J249999D01*
G01*
X116224000Y-97466999D01*
G75*
G02*
X116473999Y-97217000I249999J0D01*
G01*
X117174001Y-97217000D01*
G75*
G02*
X117424000Y-97466999I0J-249999D01*
G01*
G37*
G04 #@! TD*
D16*
G04 #@! TO.C,TP6*
X97409000Y-103505000D03*
G04 #@! TD*
D13*
G04 #@! TO.C,SW1*
X103632000Y-124841000D03*
D12*
X103251000Y-124460000D03*
D13*
X111125000Y-124841000D03*
D12*
X111506000Y-124460000D03*
D11*
X105215000Y-122155000D03*
X109415000Y-122155000D03*
G04 #@! TD*
D15*
G04 #@! TO.C,J1*
X123571000Y-113157000D03*
X123571000Y-110617000D03*
X123571000Y-108077000D03*
D14*
X123571000Y-105537000D03*
G04 #@! TD*
D15*
G04 #@! TO.C,J2*
X77597000Y-115951000D03*
X77597000Y-118491000D03*
X77597000Y-121031000D03*
D14*
X77597000Y-123571000D03*
G04 #@! TD*
G04 #@! TO.C,R18*
G36*
G01*
X115424000Y-99371999D02*
X115424000Y-100272001D01*
G75*
G02*
X115174001Y-100522000I-249999J0D01*
G01*
X114473999Y-100522000D01*
G75*
G02*
X114224000Y-100272001I0J249999D01*
G01*
X114224000Y-99371999D01*
G75*
G02*
X114473999Y-99122000I249999J0D01*
G01*
X115174001Y-99122000D01*
G75*
G02*
X115424000Y-99371999I0J-249999D01*
G01*
G37*
G36*
G01*
X117424000Y-99371999D02*
X117424000Y-100272001D01*
G75*
G02*
X117174001Y-100522000I-249999J0D01*
G01*
X116473999Y-100522000D01*
G75*
G02*
X116224000Y-100272001I0J249999D01*
G01*
X116224000Y-99371999D01*
G75*
G02*
X116473999Y-99122000I249999J0D01*
G01*
X117174001Y-99122000D01*
G75*
G02*
X117424000Y-99371999I0J-249999D01*
G01*
G37*
G04 #@! TD*
D16*
G04 #@! TO.C,TP4*
X97409000Y-98933000D03*
G04 #@! TD*
G04 #@! TO.C,R4*
G36*
G01*
X80902000Y-118941001D02*
X80902000Y-118040999D01*
G75*
G02*
X81151999Y-117791000I249999J0D01*
G01*
X81852001Y-117791000D01*
G75*
G02*
X82102000Y-118040999I0J-249999D01*
G01*
X82102000Y-118941001D01*
G75*
G02*
X81852001Y-119191000I-249999J0D01*
G01*
X81151999Y-119191000D01*
G75*
G02*
X80902000Y-118941001I0J249999D01*
G01*
G37*
G36*
G01*
X78902000Y-118941001D02*
X78902000Y-118040999D01*
G75*
G02*
X79151999Y-117791000I249999J0D01*
G01*
X79852001Y-117791000D01*
G75*
G02*
X80102000Y-118040999I0J-249999D01*
G01*
X80102000Y-118941001D01*
G75*
G02*
X79852001Y-119191000I-249999J0D01*
G01*
X79151999Y-119191000D01*
G75*
G02*
X78902000Y-118941001I0J249999D01*
G01*
G37*
G04 #@! TD*
D20*
G04 #@! TO.C,C2*
X110871000Y-78907000D03*
D19*
X110871000Y-81407000D03*
G04 #@! TD*
D18*
G04 #@! TO.C,U2*
X95885000Y-117602000D03*
X98425000Y-117602000D03*
X100965000Y-117602000D03*
D14*
X103505000Y-117602000D03*
G04 #@! TD*
D15*
G04 #@! TO.C,J4*
X93853000Y-77597000D03*
X96393000Y-77597000D03*
X98933000Y-77597000D03*
X101473000Y-77597000D03*
D14*
X104013000Y-77597000D03*
G04 #@! TD*
G04 #@! TO.C,R1*
G36*
G01*
X117925001Y-116583000D02*
X117024999Y-116583000D01*
G75*
G02*
X116775000Y-116333001I0J249999D01*
G01*
X116775000Y-115632999D01*
G75*
G02*
X117024999Y-115383000I249999J0D01*
G01*
X117925001Y-115383000D01*
G75*
G02*
X118175000Y-115632999I0J-249999D01*
G01*
X118175000Y-116333001D01*
G75*
G02*
X117925001Y-116583000I-249999J0D01*
G01*
G37*
G36*
G01*
X117925001Y-118583000D02*
X117024999Y-118583000D01*
G75*
G02*
X116775000Y-118333001I0J249999D01*
G01*
X116775000Y-117632999D01*
G75*
G02*
X117024999Y-117383000I249999J0D01*
G01*
X117925001Y-117383000D01*
G75*
G02*
X118175000Y-117632999I0J-249999D01*
G01*
X118175000Y-118333001D01*
G75*
G02*
X117925001Y-118583000I-249999J0D01*
G01*
G37*
G04 #@! TD*
G04 #@! TO.C,R14*
G36*
G01*
X115424000Y-103943999D02*
X115424000Y-104844001D01*
G75*
G02*
X115174001Y-105094000I-249999J0D01*
G01*
X114473999Y-105094000D01*
G75*
G02*
X114224000Y-104844001I0J249999D01*
G01*
X114224000Y-103943999D01*
G75*
G02*
X114473999Y-103694000I249999J0D01*
G01*
X115174001Y-103694000D01*
G75*
G02*
X115424000Y-103943999I0J-249999D01*
G01*
G37*
G36*
G01*
X117424000Y-103943999D02*
X117424000Y-104844001D01*
G75*
G02*
X117174001Y-105094000I-249999J0D01*
G01*
X116473999Y-105094000D01*
G75*
G02*
X116224000Y-104844001I0J249999D01*
G01*
X116224000Y-103943999D01*
G75*
G02*
X116473999Y-103694000I249999J0D01*
G01*
X117174001Y-103694000D01*
G75*
G02*
X117424000Y-103943999I0J-249999D01*
G01*
G37*
G04 #@! TD*
D15*
G04 #@! TO.C,J5*
X80645000Y-93599000D03*
X80645000Y-96139000D03*
X80645000Y-98679000D03*
X80645000Y-101219000D03*
D14*
X80645000Y-103759000D03*
G04 #@! TD*
G04 #@! TO.C,R13*
G36*
G01*
X115424000Y-101911999D02*
X115424000Y-102812001D01*
G75*
G02*
X115174001Y-103062000I-249999J0D01*
G01*
X114473999Y-103062000D01*
G75*
G02*
X114224000Y-102812001I0J249999D01*
G01*
X114224000Y-101911999D01*
G75*
G02*
X114473999Y-101662000I249999J0D01*
G01*
X115174001Y-101662000D01*
G75*
G02*
X115424000Y-101911999I0J-249999D01*
G01*
G37*
G36*
G01*
X117424000Y-101911999D02*
X117424000Y-102812001D01*
G75*
G02*
X117174001Y-103062000I-249999J0D01*
G01*
X116473999Y-103062000D01*
G75*
G02*
X116224000Y-102812001I0J249999D01*
G01*
X116224000Y-101911999D01*
G75*
G02*
X116473999Y-101662000I249999J0D01*
G01*
X117174001Y-101662000D01*
G75*
G02*
X117424000Y-101911999I0J-249999D01*
G01*
G37*
G04 #@! TD*
D21*
G04 #@! TO.C,H2*
X79121000Y-79121000D03*
G04 #@! TD*
G04 #@! TO.C,H1*
X122174000Y-122174000D03*
G04 #@! TD*
D18*
G04 #@! TO.C,U3*
X113157000Y-85725000D03*
X110617000Y-85725000D03*
X108077000Y-85725000D03*
X105537000Y-85725000D03*
X102997000Y-85725000D03*
X100457000Y-85725000D03*
X97917000Y-85725000D03*
X95377000Y-85725000D03*
X92837000Y-85725000D03*
X90297000Y-85725000D03*
X87757000Y-85725000D03*
X85217000Y-85725000D03*
X82677000Y-85725000D03*
X80137000Y-85725000D03*
X77597000Y-85725000D03*
X77597000Y-111125000D03*
X80137000Y-111125000D03*
X82677000Y-111125000D03*
X85217000Y-111125000D03*
X87757000Y-111125000D03*
X90297000Y-111125000D03*
X92837000Y-111125000D03*
X95377000Y-111125000D03*
X97917000Y-111125000D03*
X100457000Y-111125000D03*
X102997000Y-111125000D03*
X105537000Y-111125000D03*
X108077000Y-111125000D03*
X110617000Y-111125000D03*
D14*
X113157000Y-111125000D03*
G04 #@! TD*
D11*
G04 #@! TO.C,SW2*
X102421000Y-28594000D03*
X106621000Y-28594000D03*
D12*
X100330000Y-26289000D03*
D13*
X100711000Y-25908000D03*
D12*
X108585000Y-26289000D03*
D13*
X108204000Y-25908000D03*
G04 #@! TD*
D14*
G04 #@! TO.C,J6*
X81661000Y-57912000D03*
D15*
X81661000Y-55372000D03*
X81661000Y-52832000D03*
X81661000Y-50292000D03*
X81661000Y-47752000D03*
X81661000Y-45212000D03*
G04 #@! TD*
D16*
G04 #@! TO.C,TP3*
X106934000Y-53848000D03*
G04 #@! TD*
D11*
G04 #@! TO.C,SW1*
X91753000Y-28594000D03*
X95953000Y-28594000D03*
D12*
X89662000Y-26289000D03*
D13*
X90043000Y-25908000D03*
D12*
X97917000Y-26289000D03*
D13*
X97536000Y-25908000D03*
G04 #@! TD*
G04 #@! TO.C,R18*
G36*
G01*
X83744000Y-51377001D02*
X83744000Y-50476999D01*
G75*
G02*
X83993999Y-50227000I249999J0D01*
G01*
X84694001Y-50227000D01*
G75*
G02*
X84944000Y-50476999I0J-249999D01*
G01*
X84944000Y-51377001D01*
G75*
G02*
X84694001Y-51627000I-249999J0D01*
G01*
X83993999Y-51627000D01*
G75*
G02*
X83744000Y-51377001I0J249999D01*
G01*
G37*
G36*
G01*
X85744000Y-51377001D02*
X85744000Y-50476999D01*
G75*
G02*
X85993999Y-50227000I249999J0D01*
G01*
X86694001Y-50227000D01*
G75*
G02*
X86944000Y-50476999I0J-249999D01*
G01*
X86944000Y-51377001D01*
G75*
G02*
X86694001Y-51627000I-249999J0D01*
G01*
X85993999Y-51627000D01*
G75*
G02*
X85744000Y-51377001I0J249999D01*
G01*
G37*
G04 #@! TD*
G04 #@! TO.C,C5*
G36*
G01*
X117798001Y-33620000D02*
X116897999Y-33620000D01*
G75*
G02*
X116648000Y-33370001I0J249999D01*
G01*
X116648000Y-32669999D01*
G75*
G02*
X116897999Y-32420000I249999J0D01*
G01*
X117798001Y-32420000D01*
G75*
G02*
X118048000Y-32669999I0J-249999D01*
G01*
X118048000Y-33370001D01*
G75*
G02*
X117798001Y-33620000I-249999J0D01*
G01*
G37*
G36*
G01*
X117798001Y-31620000D02*
X116897999Y-31620000D01*
G75*
G02*
X116648000Y-31370001I0J249999D01*
G01*
X116648000Y-30669999D01*
G75*
G02*
X116897999Y-30420000I249999J0D01*
G01*
X117798001Y-30420000D01*
G75*
G02*
X118048000Y-30669999I0J-249999D01*
G01*
X118048000Y-31370001D01*
G75*
G02*
X117798001Y-31620000I-249999J0D01*
G01*
G37*
G04 #@! TD*
D11*
G04 #@! TO.C,SW3*
X113030000Y-28594000D03*
X117230000Y-28594000D03*
D12*
X110939000Y-26289000D03*
D13*
X111320000Y-25908000D03*
D12*
X119194000Y-26289000D03*
D13*
X118813000Y-25908000D03*
G04 #@! TD*
G04 #@! TO.C,R14*
G36*
G01*
X83744000Y-46805001D02*
X83744000Y-45904999D01*
G75*
G02*
X83993999Y-45655000I249999J0D01*
G01*
X84694001Y-45655000D01*
G75*
G02*
X84944000Y-45904999I0J-249999D01*
G01*
X84944000Y-46805001D01*
G75*
G02*
X84694001Y-47055000I-249999J0D01*
G01*
X83993999Y-47055000D01*
G75*
G02*
X83744000Y-46805001I0J249999D01*
G01*
G37*
G36*
G01*
X85744000Y-46805001D02*
X85744000Y-45904999D01*
G75*
G02*
X85993999Y-45655000I249999J0D01*
G01*
X86694001Y-45655000D01*
G75*
G02*
X86944000Y-45904999I0J-249999D01*
G01*
X86944000Y-46805001D01*
G75*
G02*
X86694001Y-47055000I-249999J0D01*
G01*
X85993999Y-47055000D01*
G75*
G02*
X85744000Y-46805001I0J249999D01*
G01*
G37*
G04 #@! TD*
G04 #@! TO.C,R15*
G36*
G01*
X83744000Y-53282001D02*
X83744000Y-52381999D01*
G75*
G02*
X83993999Y-52132000I249999J0D01*
G01*
X84694001Y-52132000D01*
G75*
G02*
X84944000Y-52381999I0J-249999D01*
G01*
X84944000Y-53282001D01*
G75*
G02*
X84694001Y-53532000I-249999J0D01*
G01*
X83993999Y-53532000D01*
G75*
G02*
X83744000Y-53282001I0J249999D01*
G01*
G37*
G36*
G01*
X85744000Y-53282001D02*
X85744000Y-52381999D01*
G75*
G02*
X85993999Y-52132000I249999J0D01*
G01*
X86694001Y-52132000D01*
G75*
G02*
X86944000Y-52381999I0J-249999D01*
G01*
X86944000Y-53282001D01*
G75*
G02*
X86694001Y-53532000I-249999J0D01*
G01*
X85993999Y-53532000D01*
G75*
G02*
X85744000Y-53282001I0J249999D01*
G01*
G37*
G04 #@! TD*
D17*
G04 #@! TO.C,Q1*
X87757000Y-33782000D03*
X85857000Y-33782000D03*
X86807000Y-30782000D03*
G04 #@! TD*
G04 #@! TO.C,R4*
G36*
G01*
X122266000Y-31807999D02*
X122266000Y-32708001D01*
G75*
G02*
X122016001Y-32958000I-249999J0D01*
G01*
X121315999Y-32958000D01*
G75*
G02*
X121066000Y-32708001I0J249999D01*
G01*
X121066000Y-31807999D01*
G75*
G02*
X121315999Y-31558000I249999J0D01*
G01*
X122016001Y-31558000D01*
G75*
G02*
X122266000Y-31807999I0J-249999D01*
G01*
G37*
G36*
G01*
X120266000Y-31807999D02*
X120266000Y-32708001D01*
G75*
G02*
X120016001Y-32958000I-249999J0D01*
G01*
X119315999Y-32958000D01*
G75*
G02*
X119066000Y-32708001I0J249999D01*
G01*
X119066000Y-31807999D01*
G75*
G02*
X119315999Y-31558000I249999J0D01*
G01*
X120016001Y-31558000D01*
G75*
G02*
X120266000Y-31807999I0J-249999D01*
G01*
G37*
G04 #@! TD*
D16*
G04 #@! TO.C,TP4*
X103759000Y-51816000D03*
G04 #@! TD*
G04 #@! TO.C,U5*
G36*
G01*
X98829000Y-54267500D02*
X98529000Y-54267500D01*
G75*
G02*
X98379000Y-54117500I0J150000D01*
G01*
X98379000Y-52442500D01*
G75*
G02*
X98529000Y-52292500I150000J0D01*
G01*
X98829000Y-52292500D01*
G75*
G02*
X98979000Y-52442500I0J-150000D01*
G01*
X98979000Y-54117500D01*
G75*
G02*
X98829000Y-54267500I-150000J0D01*
G01*
G37*
G36*
G01*
X97559000Y-54267500D02*
X97259000Y-54267500D01*
G75*
G02*
X97109000Y-54117500I0J150000D01*
G01*
X97109000Y-52442500D01*
G75*
G02*
X97259000Y-52292500I150000J0D01*
G01*
X97559000Y-52292500D01*
G75*
G02*
X97709000Y-52442500I0J-150000D01*
G01*
X97709000Y-54117500D01*
G75*
G02*
X97559000Y-54267500I-150000J0D01*
G01*
G37*
G36*
G01*
X96289000Y-54267500D02*
X95989000Y-54267500D01*
G75*
G02*
X95839000Y-54117500I0J150000D01*
G01*
X95839000Y-52442500D01*
G75*
G02*
X95989000Y-52292500I150000J0D01*
G01*
X96289000Y-52292500D01*
G75*
G02*
X96439000Y-52442500I0J-150000D01*
G01*
X96439000Y-54117500D01*
G75*
G02*
X96289000Y-54267500I-150000J0D01*
G01*
G37*
G36*
G01*
X95019000Y-54267500D02*
X94719000Y-54267500D01*
G75*
G02*
X94569000Y-54117500I0J150000D01*
G01*
X94569000Y-52442500D01*
G75*
G02*
X94719000Y-52292500I150000J0D01*
G01*
X95019000Y-52292500D01*
G75*
G02*
X95169000Y-52442500I0J-150000D01*
G01*
X95169000Y-54117500D01*
G75*
G02*
X95019000Y-54267500I-150000J0D01*
G01*
G37*
G36*
G01*
X93749000Y-54267500D02*
X93449000Y-54267500D01*
G75*
G02*
X93299000Y-54117500I0J150000D01*
G01*
X93299000Y-52442500D01*
G75*
G02*
X93449000Y-52292500I150000J0D01*
G01*
X93749000Y-52292500D01*
G75*
G02*
X93899000Y-52442500I0J-150000D01*
G01*
X93899000Y-54117500D01*
G75*
G02*
X93749000Y-54267500I-150000J0D01*
G01*
G37*
G36*
G01*
X92479000Y-54267500D02*
X92179000Y-54267500D01*
G75*
G02*
X92029000Y-54117500I0J150000D01*
G01*
X92029000Y-52442500D01*
G75*
G02*
X92179000Y-52292500I150000J0D01*
G01*
X92479000Y-52292500D01*
G75*
G02*
X92629000Y-52442500I0J-150000D01*
G01*
X92629000Y-54117500D01*
G75*
G02*
X92479000Y-54267500I-150000J0D01*
G01*
G37*
G36*
G01*
X91209000Y-54267500D02*
X90909000Y-54267500D01*
G75*
G02*
X90759000Y-54117500I0J150000D01*
G01*
X90759000Y-52442500D01*
G75*
G02*
X90909000Y-52292500I150000J0D01*
G01*
X91209000Y-52292500D01*
G75*
G02*
X91359000Y-52442500I0J-150000D01*
G01*
X91359000Y-54117500D01*
G75*
G02*
X91209000Y-54267500I-150000J0D01*
G01*
G37*
G36*
G01*
X91209000Y-47342500D02*
X90909000Y-47342500D01*
G75*
G02*
X90759000Y-47192500I0J150000D01*
G01*
X90759000Y-45517500D01*
G75*
G02*
X90909000Y-45367500I150000J0D01*
G01*
X91209000Y-45367500D01*
G75*
G02*
X91359000Y-45517500I0J-150000D01*
G01*
X91359000Y-47192500D01*
G75*
G02*
X91209000Y-47342500I-150000J0D01*
G01*
G37*
G36*
G01*
X92479000Y-47342500D02*
X92179000Y-47342500D01*
G75*
G02*
X92029000Y-47192500I0J150000D01*
G01*
X92029000Y-45517500D01*
G75*
G02*
X92179000Y-45367500I150000J0D01*
G01*
X92479000Y-45367500D01*
G75*
G02*
X92629000Y-45517500I0J-150000D01*
G01*
X92629000Y-47192500D01*
G75*
G02*
X92479000Y-47342500I-150000J0D01*
G01*
G37*
G36*
G01*
X93749000Y-47342500D02*
X93449000Y-47342500D01*
G75*
G02*
X93299000Y-47192500I0J150000D01*
G01*
X93299000Y-45517500D01*
G75*
G02*
X93449000Y-45367500I150000J0D01*
G01*
X93749000Y-45367500D01*
G75*
G02*
X93899000Y-45517500I0J-150000D01*
G01*
X93899000Y-47192500D01*
G75*
G02*
X93749000Y-47342500I-150000J0D01*
G01*
G37*
G36*
G01*
X95019000Y-47342500D02*
X94719000Y-47342500D01*
G75*
G02*
X94569000Y-47192500I0J150000D01*
G01*
X94569000Y-45517500D01*
G75*
G02*
X94719000Y-45367500I150000J0D01*
G01*
X95019000Y-45367500D01*
G75*
G02*
X95169000Y-45517500I0J-150000D01*
G01*
X95169000Y-47192500D01*
G75*
G02*
X95019000Y-47342500I-150000J0D01*
G01*
G37*
G36*
G01*
X96289000Y-47342500D02*
X95989000Y-47342500D01*
G75*
G02*
X95839000Y-47192500I0J150000D01*
G01*
X95839000Y-45517500D01*
G75*
G02*
X95989000Y-45367500I150000J0D01*
G01*
X96289000Y-45367500D01*
G75*
G02*
X96439000Y-45517500I0J-150000D01*
G01*
X96439000Y-47192500D01*
G75*
G02*
X96289000Y-47342500I-150000J0D01*
G01*
G37*
G36*
G01*
X97559000Y-47342500D02*
X97259000Y-47342500D01*
G75*
G02*
X97109000Y-47192500I0J150000D01*
G01*
X97109000Y-45517500D01*
G75*
G02*
X97259000Y-45367500I150000J0D01*
G01*
X97559000Y-45367500D01*
G75*
G02*
X97709000Y-45517500I0J-150000D01*
G01*
X97709000Y-47192500D01*
G75*
G02*
X97559000Y-47342500I-150000J0D01*
G01*
G37*
G36*
G01*
X98829000Y-47342500D02*
X98529000Y-47342500D01*
G75*
G02*
X98379000Y-47192500I0J150000D01*
G01*
X98379000Y-45517500D01*
G75*
G02*
X98529000Y-45367500I150000J0D01*
G01*
X98829000Y-45367500D01*
G75*
G02*
X98979000Y-45517500I0J-150000D01*
G01*
X98979000Y-47192500D01*
G75*
G02*
X98829000Y-47342500I-150000J0D01*
G01*
G37*
G04 #@! TD*
G04 #@! TO.C,R7*
G36*
G01*
X107753999Y-30388000D02*
X108654001Y-30388000D01*
G75*
G02*
X108904000Y-30637999I0J-249999D01*
G01*
X108904000Y-31338001D01*
G75*
G02*
X108654001Y-31588000I-249999J0D01*
G01*
X107753999Y-31588000D01*
G75*
G02*
X107504000Y-31338001I0J249999D01*
G01*
X107504000Y-30637999D01*
G75*
G02*
X107753999Y-30388000I249999J0D01*
G01*
G37*
G36*
G01*
X107753999Y-32388000D02*
X108654001Y-32388000D01*
G75*
G02*
X108904000Y-32637999I0J-249999D01*
G01*
X108904000Y-33338001D01*
G75*
G02*
X108654001Y-33588000I-249999J0D01*
G01*
X107753999Y-33588000D01*
G75*
G02*
X107504000Y-33338001I0J249999D01*
G01*
X107504000Y-32637999D01*
G75*
G02*
X107753999Y-32388000I249999J0D01*
G01*
G37*
G04 #@! TD*
G04 #@! TO.C,R13*
G36*
G01*
X83744000Y-48837001D02*
X83744000Y-47936999D01*
G75*
G02*
X83993999Y-47687000I249999J0D01*
G01*
X84694001Y-47687000D01*
G75*
G02*
X84944000Y-47936999I0J-249999D01*
G01*
X84944000Y-48837001D01*
G75*
G02*
X84694001Y-49087000I-249999J0D01*
G01*
X83993999Y-49087000D01*
G75*
G02*
X83744000Y-48837001I0J249999D01*
G01*
G37*
G36*
G01*
X85744000Y-48837001D02*
X85744000Y-47936999D01*
G75*
G02*
X85993999Y-47687000I249999J0D01*
G01*
X86694001Y-47687000D01*
G75*
G02*
X86944000Y-47936999I0J-249999D01*
G01*
X86944000Y-48837001D01*
G75*
G02*
X86694001Y-49087000I-249999J0D01*
G01*
X85993999Y-49087000D01*
G75*
G02*
X85744000Y-48837001I0J249999D01*
G01*
G37*
G04 #@! TD*
D14*
G04 #@! TO.C,U2*
X97663000Y-33147000D03*
D18*
X100203000Y-33147000D03*
X102743000Y-33147000D03*
X105283000Y-33147000D03*
G04 #@! TD*
D19*
G04 #@! TO.C,C2*
X90297000Y-69342000D03*
D20*
X90297000Y-71842000D03*
G04 #@! TD*
D16*
G04 #@! TO.C,TP6*
X103759000Y-47244000D03*
G04 #@! TD*
D14*
G04 #@! TO.C,U3*
X88011000Y-39624000D03*
D18*
X90551000Y-39624000D03*
X93091000Y-39624000D03*
X95631000Y-39624000D03*
X98171000Y-39624000D03*
X100711000Y-39624000D03*
X103251000Y-39624000D03*
X105791000Y-39624000D03*
X108331000Y-39624000D03*
X110871000Y-39624000D03*
X113411000Y-39624000D03*
X115951000Y-39624000D03*
X118491000Y-39624000D03*
X121031000Y-39624000D03*
X123571000Y-39624000D03*
X123571000Y-65024000D03*
X121031000Y-65024000D03*
X118491000Y-65024000D03*
X115951000Y-65024000D03*
X113411000Y-65024000D03*
X110871000Y-65024000D03*
X108331000Y-65024000D03*
X105791000Y-65024000D03*
X103251000Y-65024000D03*
X100711000Y-65024000D03*
X98171000Y-65024000D03*
X95631000Y-65024000D03*
X93091000Y-65024000D03*
X90551000Y-65024000D03*
X88011000Y-65024000D03*
G04 #@! TD*
D14*
G04 #@! TO.C,J1*
X77597000Y-45212000D03*
D15*
X77597000Y-42672000D03*
X77597000Y-40132000D03*
X77597000Y-37592000D03*
G04 #@! TD*
G04 #@! TO.C,R1*
G36*
G01*
X83242999Y-32166000D02*
X84143001Y-32166000D01*
G75*
G02*
X84393000Y-32415999I0J-249999D01*
G01*
X84393000Y-33116001D01*
G75*
G02*
X84143001Y-33366000I-249999J0D01*
G01*
X83242999Y-33366000D01*
G75*
G02*
X82993000Y-33116001I0J249999D01*
G01*
X82993000Y-32415999D01*
G75*
G02*
X83242999Y-32166000I249999J0D01*
G01*
G37*
G36*
G01*
X83242999Y-34166000D02*
X84143001Y-34166000D01*
G75*
G02*
X84393000Y-34415999I0J-249999D01*
G01*
X84393000Y-35116001D01*
G75*
G02*
X84143001Y-35366000I-249999J0D01*
G01*
X83242999Y-35366000D01*
G75*
G02*
X82993000Y-35116001I0J249999D01*
G01*
X82993000Y-34415999D01*
G75*
G02*
X83242999Y-34166000I249999J0D01*
G01*
G37*
G04 #@! TD*
D14*
G04 #@! TO.C,J3*
X77597000Y-51562000D03*
D15*
X77597000Y-54102000D03*
X77597000Y-56642000D03*
X77597000Y-59182000D03*
X77597000Y-61722000D03*
G04 #@! TD*
D14*
G04 #@! TO.C,J2*
X123571000Y-27178000D03*
D15*
X123571000Y-29718000D03*
X123571000Y-32258000D03*
X123571000Y-34798000D03*
G04 #@! TD*
D21*
G04 #@! TO.C,H2*
X122047000Y-71628000D03*
G04 #@! TD*
D14*
G04 #@! TO.C,J4*
X97155000Y-73152000D03*
D15*
X99695000Y-73152000D03*
X102235000Y-73152000D03*
X104775000Y-73152000D03*
X107315000Y-73152000D03*
G04 #@! TD*
D14*
G04 #@! TO.C,J5*
X120523000Y-46990000D03*
D15*
X120523000Y-49530000D03*
X120523000Y-52070000D03*
X120523000Y-54610000D03*
X120523000Y-57150000D03*
G04 #@! TD*
G04 #@! TO.C,R2*
G36*
G01*
X89094000Y-31311001D02*
X89094000Y-30410999D01*
G75*
G02*
X89343999Y-30161000I249999J0D01*
G01*
X90044001Y-30161000D01*
G75*
G02*
X90294000Y-30410999I0J-249999D01*
G01*
X90294000Y-31311001D01*
G75*
G02*
X90044001Y-31561000I-249999J0D01*
G01*
X89343999Y-31561000D01*
G75*
G02*
X89094000Y-31311001I0J249999D01*
G01*
G37*
G36*
G01*
X91094000Y-31311001D02*
X91094000Y-30410999D01*
G75*
G02*
X91343999Y-30161000I249999J0D01*
G01*
X92044001Y-30161000D01*
G75*
G02*
X92294000Y-30410999I0J-249999D01*
G01*
X92294000Y-31311001D01*
G75*
G02*
X92044001Y-31561000I-249999J0D01*
G01*
X91343999Y-31561000D01*
G75*
G02*
X91094000Y-31311001I0J249999D01*
G01*
G37*
G04 #@! TD*
D21*
G04 #@! TO.C,H1*
X78994000Y-28575000D03*
G04 #@! TD*
D16*
G04 #@! TO.C,TP5*
X107061000Y-49022000D03*
G04 #@! TD*
D14*
G04 #@! TO.C,U1*
X97409000Y-42164000D03*
D18*
X99949000Y-42164000D03*
X102489000Y-42164000D03*
G04 #@! TD*
G04 #@! TO.C,R5*
G36*
G01*
X118440000Y-54159999D02*
X118440000Y-55060001D01*
G75*
G02*
X118190001Y-55310000I-249999J0D01*
G01*
X117489999Y-55310000D01*
G75*
G02*
X117240000Y-55060001I0J249999D01*
G01*
X117240000Y-54159999D01*
G75*
G02*
X117489999Y-53910000I249999J0D01*
G01*
X118190001Y-53910000D01*
G75*
G02*
X118440000Y-54159999I0J-249999D01*
G01*
G37*
G36*
G01*
X116440000Y-54159999D02*
X116440000Y-55060001D01*
G75*
G02*
X116190001Y-55310000I-249999J0D01*
G01*
X115489999Y-55310000D01*
G75*
G02*
X115240000Y-55060001I0J249999D01*
G01*
X115240000Y-54159999D01*
G75*
G02*
X115489999Y-53910000I249999J0D01*
G01*
X116190001Y-53910000D01*
G75*
G02*
X116440000Y-54159999I0J-249999D01*
G01*
G37*
G04 #@! TD*
D20*
G04 #@! TO.C,C2*
X39878000Y-71842000D03*
D19*
X39878000Y-69342000D03*
G04 #@! TD*
D17*
G04 #@! TO.C,Q1*
X36388000Y-30782000D03*
X35438000Y-33782000D03*
X37338000Y-33782000D03*
G04 #@! TD*
D18*
G04 #@! TO.C,U1*
X52070000Y-42164000D03*
X49530000Y-42164000D03*
D14*
X46990000Y-42164000D03*
G04 #@! TD*
D18*
G04 #@! TO.C,U2*
X54864000Y-33147000D03*
X52324000Y-33147000D03*
X49784000Y-33147000D03*
D14*
X47244000Y-33147000D03*
G04 #@! TD*
D18*
G04 #@! TO.C,U3*
X37592000Y-65024000D03*
X40132000Y-65024000D03*
X42672000Y-65024000D03*
X45212000Y-65024000D03*
X47752000Y-65024000D03*
X50292000Y-65024000D03*
X52832000Y-65024000D03*
X55372000Y-65024000D03*
X57912000Y-65024000D03*
X60452000Y-65024000D03*
X62992000Y-65024000D03*
X65532000Y-65024000D03*
X68072000Y-65024000D03*
X70612000Y-65024000D03*
X73152000Y-65024000D03*
X73152000Y-39624000D03*
X70612000Y-39624000D03*
X68072000Y-39624000D03*
X65532000Y-39624000D03*
X62992000Y-39624000D03*
X60452000Y-39624000D03*
X57912000Y-39624000D03*
X55372000Y-39624000D03*
X52832000Y-39624000D03*
X50292000Y-39624000D03*
X47752000Y-39624000D03*
X45212000Y-39624000D03*
X42672000Y-39624000D03*
X40132000Y-39624000D03*
D14*
X37592000Y-39624000D03*
G04 #@! TD*
D15*
G04 #@! TO.C,J6*
X31242000Y-45212000D03*
X31242000Y-47752000D03*
X31242000Y-50292000D03*
X31242000Y-52832000D03*
X31242000Y-55372000D03*
D14*
X31242000Y-57912000D03*
G04 #@! TD*
G04 #@! TO.C,U5*
G36*
G01*
X48410000Y-47342500D02*
X48110000Y-47342500D01*
G75*
G02*
X47960000Y-47192500I0J150000D01*
G01*
X47960000Y-45517500D01*
G75*
G02*
X48110000Y-45367500I150000J0D01*
G01*
X48410000Y-45367500D01*
G75*
G02*
X48560000Y-45517500I0J-150000D01*
G01*
X48560000Y-47192500D01*
G75*
G02*
X48410000Y-47342500I-150000J0D01*
G01*
G37*
G36*
G01*
X47140000Y-47342500D02*
X46840000Y-47342500D01*
G75*
G02*
X46690000Y-47192500I0J150000D01*
G01*
X46690000Y-45517500D01*
G75*
G02*
X46840000Y-45367500I150000J0D01*
G01*
X47140000Y-45367500D01*
G75*
G02*
X47290000Y-45517500I0J-150000D01*
G01*
X47290000Y-47192500D01*
G75*
G02*
X47140000Y-47342500I-150000J0D01*
G01*
G37*
G36*
G01*
X45870000Y-47342500D02*
X45570000Y-47342500D01*
G75*
G02*
X45420000Y-47192500I0J150000D01*
G01*
X45420000Y-45517500D01*
G75*
G02*
X45570000Y-45367500I150000J0D01*
G01*
X45870000Y-45367500D01*
G75*
G02*
X46020000Y-45517500I0J-150000D01*
G01*
X46020000Y-47192500D01*
G75*
G02*
X45870000Y-47342500I-150000J0D01*
G01*
G37*
G36*
G01*
X44600000Y-47342500D02*
X44300000Y-47342500D01*
G75*
G02*
X44150000Y-47192500I0J150000D01*
G01*
X44150000Y-45517500D01*
G75*
G02*
X44300000Y-45367500I150000J0D01*
G01*
X44600000Y-45367500D01*
G75*
G02*
X44750000Y-45517500I0J-150000D01*
G01*
X44750000Y-47192500D01*
G75*
G02*
X44600000Y-47342500I-150000J0D01*
G01*
G37*
G36*
G01*
X43330000Y-47342500D02*
X43030000Y-47342500D01*
G75*
G02*
X42880000Y-47192500I0J150000D01*
G01*
X42880000Y-45517500D01*
G75*
G02*
X43030000Y-45367500I150000J0D01*
G01*
X43330000Y-45367500D01*
G75*
G02*
X43480000Y-45517500I0J-150000D01*
G01*
X43480000Y-47192500D01*
G75*
G02*
X43330000Y-47342500I-150000J0D01*
G01*
G37*
G36*
G01*
X42060000Y-47342500D02*
X41760000Y-47342500D01*
G75*
G02*
X41610000Y-47192500I0J150000D01*
G01*
X41610000Y-45517500D01*
G75*
G02*
X41760000Y-45367500I150000J0D01*
G01*
X42060000Y-45367500D01*
G75*
G02*
X42210000Y-45517500I0J-150000D01*
G01*
X42210000Y-47192500D01*
G75*
G02*
X42060000Y-47342500I-150000J0D01*
G01*
G37*
G36*
G01*
X40790000Y-47342500D02*
X40490000Y-47342500D01*
G75*
G02*
X40340000Y-47192500I0J150000D01*
G01*
X40340000Y-45517500D01*
G75*
G02*
X40490000Y-45367500I150000J0D01*
G01*
X40790000Y-45367500D01*
G75*
G02*
X40940000Y-45517500I0J-150000D01*
G01*
X40940000Y-47192500D01*
G75*
G02*
X40790000Y-47342500I-150000J0D01*
G01*
G37*
G36*
G01*
X40790000Y-54267500D02*
X40490000Y-54267500D01*
G75*
G02*
X40340000Y-54117500I0J150000D01*
G01*
X40340000Y-52442500D01*
G75*
G02*
X40490000Y-52292500I150000J0D01*
G01*
X40790000Y-52292500D01*
G75*
G02*
X40940000Y-52442500I0J-150000D01*
G01*
X40940000Y-54117500D01*
G75*
G02*
X40790000Y-54267500I-150000J0D01*
G01*
G37*
G36*
G01*
X42060000Y-54267500D02*
X41760000Y-54267500D01*
G75*
G02*
X41610000Y-54117500I0J150000D01*
G01*
X41610000Y-52442500D01*
G75*
G02*
X41760000Y-52292500I150000J0D01*
G01*
X42060000Y-52292500D01*
G75*
G02*
X42210000Y-52442500I0J-150000D01*
G01*
X42210000Y-54117500D01*
G75*
G02*
X42060000Y-54267500I-150000J0D01*
G01*
G37*
G36*
G01*
X43330000Y-54267500D02*
X43030000Y-54267500D01*
G75*
G02*
X42880000Y-54117500I0J150000D01*
G01*
X42880000Y-52442500D01*
G75*
G02*
X43030000Y-52292500I150000J0D01*
G01*
X43330000Y-52292500D01*
G75*
G02*
X43480000Y-52442500I0J-150000D01*
G01*
X43480000Y-54117500D01*
G75*
G02*
X43330000Y-54267500I-150000J0D01*
G01*
G37*
G36*
G01*
X44600000Y-54267500D02*
X44300000Y-54267500D01*
G75*
G02*
X44150000Y-54117500I0J150000D01*
G01*
X44150000Y-52442500D01*
G75*
G02*
X44300000Y-52292500I150000J0D01*
G01*
X44600000Y-52292500D01*
G75*
G02*
X44750000Y-52442500I0J-150000D01*
G01*
X44750000Y-54117500D01*
G75*
G02*
X44600000Y-54267500I-150000J0D01*
G01*
G37*
G36*
G01*
X45870000Y-54267500D02*
X45570000Y-54267500D01*
G75*
G02*
X45420000Y-54117500I0J150000D01*
G01*
X45420000Y-52442500D01*
G75*
G02*
X45570000Y-52292500I150000J0D01*
G01*
X45870000Y-52292500D01*
G75*
G02*
X46020000Y-52442500I0J-150000D01*
G01*
X46020000Y-54117500D01*
G75*
G02*
X45870000Y-54267500I-150000J0D01*
G01*
G37*
G36*
G01*
X47140000Y-54267500D02*
X46840000Y-54267500D01*
G75*
G02*
X46690000Y-54117500I0J150000D01*
G01*
X46690000Y-52442500D01*
G75*
G02*
X46840000Y-52292500I150000J0D01*
G01*
X47140000Y-52292500D01*
G75*
G02*
X47290000Y-52442500I0J-150000D01*
G01*
X47290000Y-54117500D01*
G75*
G02*
X47140000Y-54267500I-150000J0D01*
G01*
G37*
G36*
G01*
X48410000Y-54267500D02*
X48110000Y-54267500D01*
G75*
G02*
X47960000Y-54117500I0J150000D01*
G01*
X47960000Y-52442500D01*
G75*
G02*
X48110000Y-52292500I150000J0D01*
G01*
X48410000Y-52292500D01*
G75*
G02*
X48560000Y-52442500I0J-150000D01*
G01*
X48560000Y-54117500D01*
G75*
G02*
X48410000Y-54267500I-150000J0D01*
G01*
G37*
G04 #@! TD*
D16*
G04 #@! TO.C,TP6*
X53340000Y-47244000D03*
G04 #@! TD*
G04 #@! TO.C,TP5*
X56642000Y-49022000D03*
G04 #@! TD*
G04 #@! TO.C,TP4*
X53340000Y-51816000D03*
G04 #@! TD*
G04 #@! TO.C,TP3*
X56515000Y-53848000D03*
G04 #@! TD*
D13*
G04 #@! TO.C,SW3*
X68394000Y-25908000D03*
D12*
X68775000Y-26289000D03*
D13*
X60901000Y-25908000D03*
D12*
X60520000Y-26289000D03*
D11*
X66811000Y-28594000D03*
X62611000Y-28594000D03*
G04 #@! TD*
D13*
G04 #@! TO.C,SW2*
X57785000Y-25908000D03*
D12*
X58166000Y-26289000D03*
D13*
X50292000Y-25908000D03*
D12*
X49911000Y-26289000D03*
D11*
X56202000Y-28594000D03*
X52002000Y-28594000D03*
G04 #@! TD*
D13*
G04 #@! TO.C,SW1*
X47117000Y-25908000D03*
D12*
X47498000Y-26289000D03*
D13*
X39624000Y-25908000D03*
D12*
X39243000Y-26289000D03*
D11*
X45534000Y-28594000D03*
X41334000Y-28594000D03*
G04 #@! TD*
G04 #@! TO.C,R18*
G36*
G01*
X35325000Y-51377001D02*
X35325000Y-50476999D01*
G75*
G02*
X35574999Y-50227000I249999J0D01*
G01*
X36275001Y-50227000D01*
G75*
G02*
X36525000Y-50476999I0J-249999D01*
G01*
X36525000Y-51377001D01*
G75*
G02*
X36275001Y-51627000I-249999J0D01*
G01*
X35574999Y-51627000D01*
G75*
G02*
X35325000Y-51377001I0J249999D01*
G01*
G37*
G36*
G01*
X33325000Y-51377001D02*
X33325000Y-50476999D01*
G75*
G02*
X33574999Y-50227000I249999J0D01*
G01*
X34275001Y-50227000D01*
G75*
G02*
X34525000Y-50476999I0J-249999D01*
G01*
X34525000Y-51377001D01*
G75*
G02*
X34275001Y-51627000I-249999J0D01*
G01*
X33574999Y-51627000D01*
G75*
G02*
X33325000Y-51377001I0J249999D01*
G01*
G37*
G04 #@! TD*
G04 #@! TO.C,R15*
G36*
G01*
X35325000Y-53282001D02*
X35325000Y-52381999D01*
G75*
G02*
X35574999Y-52132000I249999J0D01*
G01*
X36275001Y-52132000D01*
G75*
G02*
X36525000Y-52381999I0J-249999D01*
G01*
X36525000Y-53282001D01*
G75*
G02*
X36275001Y-53532000I-249999J0D01*
G01*
X35574999Y-53532000D01*
G75*
G02*
X35325000Y-53282001I0J249999D01*
G01*
G37*
G36*
G01*
X33325000Y-53282001D02*
X33325000Y-52381999D01*
G75*
G02*
X33574999Y-52132000I249999J0D01*
G01*
X34275001Y-52132000D01*
G75*
G02*
X34525000Y-52381999I0J-249999D01*
G01*
X34525000Y-53282001D01*
G75*
G02*
X34275001Y-53532000I-249999J0D01*
G01*
X33574999Y-53532000D01*
G75*
G02*
X33325000Y-53282001I0J249999D01*
G01*
G37*
G04 #@! TD*
G04 #@! TO.C,R14*
G36*
G01*
X35325000Y-46805001D02*
X35325000Y-45904999D01*
G75*
G02*
X35574999Y-45655000I249999J0D01*
G01*
X36275001Y-45655000D01*
G75*
G02*
X36525000Y-45904999I0J-249999D01*
G01*
X36525000Y-46805001D01*
G75*
G02*
X36275001Y-47055000I-249999J0D01*
G01*
X35574999Y-47055000D01*
G75*
G02*
X35325000Y-46805001I0J249999D01*
G01*
G37*
G36*
G01*
X33325000Y-46805001D02*
X33325000Y-45904999D01*
G75*
G02*
X33574999Y-45655000I249999J0D01*
G01*
X34275001Y-45655000D01*
G75*
G02*
X34525000Y-45904999I0J-249999D01*
G01*
X34525000Y-46805001D01*
G75*
G02*
X34275001Y-47055000I-249999J0D01*
G01*
X33574999Y-47055000D01*
G75*
G02*
X33325000Y-46805001I0J249999D01*
G01*
G37*
G04 #@! TD*
G04 #@! TO.C,R13*
G36*
G01*
X35325000Y-48837001D02*
X35325000Y-47936999D01*
G75*
G02*
X35574999Y-47687000I249999J0D01*
G01*
X36275001Y-47687000D01*
G75*
G02*
X36525000Y-47936999I0J-249999D01*
G01*
X36525000Y-48837001D01*
G75*
G02*
X36275001Y-49087000I-249999J0D01*
G01*
X35574999Y-49087000D01*
G75*
G02*
X35325000Y-48837001I0J249999D01*
G01*
G37*
G36*
G01*
X33325000Y-48837001D02*
X33325000Y-47936999D01*
G75*
G02*
X33574999Y-47687000I249999J0D01*
G01*
X34275001Y-47687000D01*
G75*
G02*
X34525000Y-47936999I0J-249999D01*
G01*
X34525000Y-48837001D01*
G75*
G02*
X34275001Y-49087000I-249999J0D01*
G01*
X33574999Y-49087000D01*
G75*
G02*
X33325000Y-48837001I0J249999D01*
G01*
G37*
G04 #@! TD*
G04 #@! TO.C,R7*
G36*
G01*
X57334999Y-32388000D02*
X58235001Y-32388000D01*
G75*
G02*
X58485000Y-32637999I0J-249999D01*
G01*
X58485000Y-33338001D01*
G75*
G02*
X58235001Y-33588000I-249999J0D01*
G01*
X57334999Y-33588000D01*
G75*
G02*
X57085000Y-33338001I0J249999D01*
G01*
X57085000Y-32637999D01*
G75*
G02*
X57334999Y-32388000I249999J0D01*
G01*
G37*
G36*
G01*
X57334999Y-30388000D02*
X58235001Y-30388000D01*
G75*
G02*
X58485000Y-30637999I0J-249999D01*
G01*
X58485000Y-31338001D01*
G75*
G02*
X58235001Y-31588000I-249999J0D01*
G01*
X57334999Y-31588000D01*
G75*
G02*
X57085000Y-31338001I0J249999D01*
G01*
X57085000Y-30637999D01*
G75*
G02*
X57334999Y-30388000I249999J0D01*
G01*
G37*
G04 #@! TD*
G04 #@! TO.C,R5*
G36*
G01*
X66021000Y-54159999D02*
X66021000Y-55060001D01*
G75*
G02*
X65771001Y-55310000I-249999J0D01*
G01*
X65070999Y-55310000D01*
G75*
G02*
X64821000Y-55060001I0J249999D01*
G01*
X64821000Y-54159999D01*
G75*
G02*
X65070999Y-53910000I249999J0D01*
G01*
X65771001Y-53910000D01*
G75*
G02*
X66021000Y-54159999I0J-249999D01*
G01*
G37*
G36*
G01*
X68021000Y-54159999D02*
X68021000Y-55060001D01*
G75*
G02*
X67771001Y-55310000I-249999J0D01*
G01*
X67070999Y-55310000D01*
G75*
G02*
X66821000Y-55060001I0J249999D01*
G01*
X66821000Y-54159999D01*
G75*
G02*
X67070999Y-53910000I249999J0D01*
G01*
X67771001Y-53910000D01*
G75*
G02*
X68021000Y-54159999I0J-249999D01*
G01*
G37*
G04 #@! TD*
G04 #@! TO.C,R4*
G36*
G01*
X69847000Y-31807999D02*
X69847000Y-32708001D01*
G75*
G02*
X69597001Y-32958000I-249999J0D01*
G01*
X68896999Y-32958000D01*
G75*
G02*
X68647000Y-32708001I0J249999D01*
G01*
X68647000Y-31807999D01*
G75*
G02*
X68896999Y-31558000I249999J0D01*
G01*
X69597001Y-31558000D01*
G75*
G02*
X69847000Y-31807999I0J-249999D01*
G01*
G37*
G36*
G01*
X71847000Y-31807999D02*
X71847000Y-32708001D01*
G75*
G02*
X71597001Y-32958000I-249999J0D01*
G01*
X70896999Y-32958000D01*
G75*
G02*
X70647000Y-32708001I0J249999D01*
G01*
X70647000Y-31807999D01*
G75*
G02*
X70896999Y-31558000I249999J0D01*
G01*
X71597001Y-31558000D01*
G75*
G02*
X71847000Y-31807999I0J-249999D01*
G01*
G37*
G04 #@! TD*
G04 #@! TO.C,R2*
G36*
G01*
X40675000Y-31311001D02*
X40675000Y-30410999D01*
G75*
G02*
X40924999Y-30161000I249999J0D01*
G01*
X41625001Y-30161000D01*
G75*
G02*
X41875000Y-30410999I0J-249999D01*
G01*
X41875000Y-31311001D01*
G75*
G02*
X41625001Y-31561000I-249999J0D01*
G01*
X40924999Y-31561000D01*
G75*
G02*
X40675000Y-31311001I0J249999D01*
G01*
G37*
G36*
G01*
X38675000Y-31311001D02*
X38675000Y-30410999D01*
G75*
G02*
X38924999Y-30161000I249999J0D01*
G01*
X39625001Y-30161000D01*
G75*
G02*
X39875000Y-30410999I0J-249999D01*
G01*
X39875000Y-31311001D01*
G75*
G02*
X39625001Y-31561000I-249999J0D01*
G01*
X38924999Y-31561000D01*
G75*
G02*
X38675000Y-31311001I0J249999D01*
G01*
G37*
G04 #@! TD*
G04 #@! TO.C,R1*
G36*
G01*
X32823999Y-34166000D02*
X33724001Y-34166000D01*
G75*
G02*
X33974000Y-34415999I0J-249999D01*
G01*
X33974000Y-35116001D01*
G75*
G02*
X33724001Y-35366000I-249999J0D01*
G01*
X32823999Y-35366000D01*
G75*
G02*
X32574000Y-35116001I0J249999D01*
G01*
X32574000Y-34415999D01*
G75*
G02*
X32823999Y-34166000I249999J0D01*
G01*
G37*
G36*
G01*
X32823999Y-32166000D02*
X33724001Y-32166000D01*
G75*
G02*
X33974000Y-32415999I0J-249999D01*
G01*
X33974000Y-33116001D01*
G75*
G02*
X33724001Y-33366000I-249999J0D01*
G01*
X32823999Y-33366000D01*
G75*
G02*
X32574000Y-33116001I0J249999D01*
G01*
X32574000Y-32415999D01*
G75*
G02*
X32823999Y-32166000I249999J0D01*
G01*
G37*
G04 #@! TD*
D15*
G04 #@! TO.C,J5*
X70104000Y-57150000D03*
X70104000Y-54610000D03*
X70104000Y-52070000D03*
X70104000Y-49530000D03*
D14*
X70104000Y-46990000D03*
G04 #@! TD*
D15*
G04 #@! TO.C,J4*
X56896000Y-73152000D03*
X54356000Y-73152000D03*
X51816000Y-73152000D03*
X49276000Y-73152000D03*
D14*
X46736000Y-73152000D03*
G04 #@! TD*
D15*
G04 #@! TO.C,J3*
X27178000Y-61722000D03*
X27178000Y-59182000D03*
X27178000Y-56642000D03*
X27178000Y-54102000D03*
D14*
X27178000Y-51562000D03*
G04 #@! TD*
D15*
G04 #@! TO.C,J2*
X73152000Y-34798000D03*
X73152000Y-32258000D03*
X73152000Y-29718000D03*
D14*
X73152000Y-27178000D03*
G04 #@! TD*
D15*
G04 #@! TO.C,J1*
X27178000Y-37592000D03*
X27178000Y-40132000D03*
X27178000Y-42672000D03*
D14*
X27178000Y-45212000D03*
G04 #@! TD*
D21*
G04 #@! TO.C,H2*
X71628000Y-71628000D03*
G04 #@! TD*
G04 #@! TO.C,H1*
X28575000Y-28575000D03*
G04 #@! TD*
G04 #@! TO.C,C5*
G36*
G01*
X67379001Y-31620000D02*
X66478999Y-31620000D01*
G75*
G02*
X66229000Y-31370001I0J249999D01*
G01*
X66229000Y-30669999D01*
G75*
G02*
X66478999Y-30420000I249999J0D01*
G01*
X67379001Y-30420000D01*
G75*
G02*
X67629000Y-30669999I0J-249999D01*
G01*
X67629000Y-31370001D01*
G75*
G02*
X67379001Y-31620000I-249999J0D01*
G01*
G37*
G36*
G01*
X67379001Y-33620000D02*
X66478999Y-33620000D01*
G75*
G02*
X66229000Y-33370001I0J249999D01*
G01*
X66229000Y-32669999D01*
G75*
G02*
X66478999Y-32420000I249999J0D01*
G01*
X67379001Y-32420000D01*
G75*
G02*
X67629000Y-32669999I0J-249999D01*
G01*
X67629000Y-33370001D01*
G75*
G02*
X67379001Y-33620000I-249999J0D01*
G01*
G37*
G04 #@! TD*
M02*
