G04 #@! TF.GenerationSoftware,KiCad,Pcbnew,5.1.9-1.fc33*
G04 #@! TF.CreationDate,2021-04-02T23:42:05+02:00*
G04 #@! TF.ProjectId,neOSensorv5_panelized,6e654f53-656e-4736-9f72-76355f70616e,rev?*
G04 #@! TF.SameCoordinates,Original*
G04 #@! TF.FileFunction,Soldermask,Top*
G04 #@! TF.FilePolarity,Negative*
%FSLAX46Y46*%
G04 Gerber Fmt 4.6, Leading zero omitted, Abs format (unit mm)*
G04 Created by KiCad (PCBNEW 5.1.9-1.fc33) date 2021-04-02 23:42:05*
%MOMM*%
%LPD*%
G01*
G04 APERTURE LIST*
%ADD10C,0.100000*%
%ADD11R,1.700000X1.700000*%
%ADD12O,1.700000X1.700000*%
%ADD13C,2.000000*%
%ADD14C,1.700000*%
%ADD15R,2.000000X3.800000*%
%ADD16R,2.000000X1.500000*%
%ADD17R,1.600000X1.600000*%
%ADD18C,1.600000*%
%ADD19C,6.400000*%
G04 APERTURE END LIST*
D10*
G36*
X73533000Y-84074000D02*
G01*
X67564000Y-84074000D01*
X67564000Y-76962000D01*
X73533000Y-76962000D01*
X73533000Y-84074000D01*
G37*
X73533000Y-84074000D02*
X67564000Y-84074000D01*
X67564000Y-76962000D01*
X73533000Y-76962000D01*
X73533000Y-84074000D01*
G36*
X123952000Y-84074000D02*
G01*
X117983000Y-84074000D01*
X117983000Y-76962000D01*
X123952000Y-76962000D01*
X123952000Y-84074000D01*
G37*
X123952000Y-84074000D02*
X117983000Y-84074000D01*
X117983000Y-76962000D01*
X123952000Y-76962000D01*
X123952000Y-84074000D01*
G36*
X83185000Y-73787000D02*
G01*
X77216000Y-73787000D01*
X77216000Y-66675000D01*
X83185000Y-66675000D01*
X83185000Y-73787000D01*
G37*
X83185000Y-73787000D02*
X77216000Y-73787000D01*
X77216000Y-66675000D01*
X83185000Y-66675000D01*
X83185000Y-73787000D01*
G36*
X32766000Y-73787000D02*
G01*
X26797000Y-73787000D01*
X26797000Y-66675000D01*
X32766000Y-66675000D01*
X32766000Y-73787000D01*
G37*
X32766000Y-73787000D02*
X26797000Y-73787000D01*
X26797000Y-66675000D01*
X32766000Y-66675000D01*
X32766000Y-73787000D01*
G04 #@! TO.C,R20*
G36*
G01*
X67005000Y-103943999D02*
X67005000Y-104844001D01*
G75*
G02*
X66755001Y-105094000I-249999J0D01*
G01*
X66054999Y-105094000D01*
G75*
G02*
X65805000Y-104844001I0J249999D01*
G01*
X65805000Y-103943999D01*
G75*
G02*
X66054999Y-103694000I249999J0D01*
G01*
X66755001Y-103694000D01*
G75*
G02*
X67005000Y-103943999I0J-249999D01*
G01*
G37*
G36*
G01*
X65005000Y-103943999D02*
X65005000Y-104844001D01*
G75*
G02*
X64755001Y-105094000I-249999J0D01*
G01*
X64054999Y-105094000D01*
G75*
G02*
X63805000Y-104844001I0J249999D01*
G01*
X63805000Y-103943999D01*
G75*
G02*
X64054999Y-103694000I249999J0D01*
G01*
X64755001Y-103694000D01*
G75*
G02*
X65005000Y-103943999I0J-249999D01*
G01*
G37*
G04 #@! TD*
G04 #@! TO.C,R9*
G36*
G01*
X49962000Y-113988001D02*
X49962000Y-113087999D01*
G75*
G02*
X50211999Y-112838000I249999J0D01*
G01*
X50912001Y-112838000D01*
G75*
G02*
X51162000Y-113087999I0J-249999D01*
G01*
X51162000Y-113988001D01*
G75*
G02*
X50912001Y-114238000I-249999J0D01*
G01*
X50211999Y-114238000D01*
G75*
G02*
X49962000Y-113988001I0J249999D01*
G01*
G37*
G36*
G01*
X51962000Y-113988001D02*
X51962000Y-113087999D01*
G75*
G02*
X52211999Y-112838000I249999J0D01*
G01*
X52912001Y-112838000D01*
G75*
G02*
X53162000Y-113087999I0J-249999D01*
G01*
X53162000Y-113988001D01*
G75*
G02*
X52912001Y-114238000I-249999J0D01*
G01*
X52211999Y-114238000D01*
G75*
G02*
X51962000Y-113988001I0J249999D01*
G01*
G37*
G04 #@! TD*
D11*
G04 #@! TO.C,J4*
X53594000Y-77597000D03*
D12*
X51054000Y-77597000D03*
X48514000Y-77597000D03*
X45974000Y-77597000D03*
X43434000Y-77597000D03*
G04 #@! TD*
D11*
G04 #@! TO.C,J5*
X30226000Y-103759000D03*
D12*
X30226000Y-101219000D03*
X30226000Y-98679000D03*
X30226000Y-96139000D03*
X30226000Y-93599000D03*
G04 #@! TD*
D13*
G04 #@! TO.C,TP4*
X46990000Y-98933000D03*
G04 #@! TD*
G04 #@! TO.C,R10*
G36*
G01*
X39913000Y-120211001D02*
X39913000Y-119310999D01*
G75*
G02*
X40162999Y-119061000I249999J0D01*
G01*
X40863001Y-119061000D01*
G75*
G02*
X41113000Y-119310999I0J-249999D01*
G01*
X41113000Y-120211001D01*
G75*
G02*
X40863001Y-120461000I-249999J0D01*
G01*
X40162999Y-120461000D01*
G75*
G02*
X39913000Y-120211001I0J249999D01*
G01*
G37*
G36*
G01*
X41913000Y-120211001D02*
X41913000Y-119310999D01*
G75*
G02*
X42162999Y-119061000I249999J0D01*
G01*
X42863001Y-119061000D01*
G75*
G02*
X43113000Y-119310999I0J-249999D01*
G01*
X43113000Y-120211001D01*
G75*
G02*
X42863001Y-120461000I-249999J0D01*
G01*
X42162999Y-120461000D01*
G75*
G02*
X41913000Y-120211001I0J249999D01*
G01*
G37*
G04 #@! TD*
G04 #@! TO.C,TP5*
X43688000Y-101727000D03*
G04 #@! TD*
G04 #@! TO.C,D1*
G36*
G01*
X63433000Y-123259001D02*
X63433000Y-122358999D01*
G75*
G02*
X63682999Y-122109000I249999J0D01*
G01*
X64333001Y-122109000D01*
G75*
G02*
X64583000Y-122358999I0J-249999D01*
G01*
X64583000Y-123259001D01*
G75*
G02*
X64333001Y-123509000I-249999J0D01*
G01*
X63682999Y-123509000D01*
G75*
G02*
X63433000Y-123259001I0J249999D01*
G01*
G37*
G36*
G01*
X65483000Y-123259001D02*
X65483000Y-122358999D01*
G75*
G02*
X65732999Y-122109000I249999J0D01*
G01*
X66383001Y-122109000D01*
G75*
G02*
X66633000Y-122358999I0J-249999D01*
G01*
X66633000Y-123259001D01*
G75*
G02*
X66383001Y-123509000I-249999J0D01*
G01*
X65732999Y-123509000D01*
G75*
G02*
X65483000Y-123259001I0J249999D01*
G01*
G37*
G04 #@! TD*
D11*
G04 #@! TO.C,J6*
X69088000Y-92837000D03*
D12*
X69088000Y-95377000D03*
X69088000Y-97917000D03*
X69088000Y-100457000D03*
X69088000Y-102997000D03*
X69088000Y-105537000D03*
G04 #@! TD*
G04 #@! TO.C,R3*
G36*
G01*
X58604999Y-117288000D02*
X59505001Y-117288000D01*
G75*
G02*
X59755000Y-117537999I0J-249999D01*
G01*
X59755000Y-118238001D01*
G75*
G02*
X59505001Y-118488000I-249999J0D01*
G01*
X58604999Y-118488000D01*
G75*
G02*
X58355000Y-118238001I0J249999D01*
G01*
X58355000Y-117537999D01*
G75*
G02*
X58604999Y-117288000I249999J0D01*
G01*
G37*
G36*
G01*
X58604999Y-119288000D02*
X59505001Y-119288000D01*
G75*
G02*
X59755000Y-119537999I0J-249999D01*
G01*
X59755000Y-120238001D01*
G75*
G02*
X59505001Y-120488000I-249999J0D01*
G01*
X58604999Y-120488000D01*
G75*
G02*
X58355000Y-120238001I0J249999D01*
G01*
X58355000Y-119537999D01*
G75*
G02*
X58604999Y-119288000I249999J0D01*
G01*
G37*
G04 #@! TD*
D11*
G04 #@! TO.C,J3*
X73152000Y-99187000D03*
D12*
X73152000Y-96647000D03*
X73152000Y-94107000D03*
X73152000Y-91567000D03*
X73152000Y-89027000D03*
G04 #@! TD*
G04 #@! TO.C,R8*
G36*
G01*
X37014999Y-112970000D02*
X37915001Y-112970000D01*
G75*
G02*
X38165000Y-113219999I0J-249999D01*
G01*
X38165000Y-113920001D01*
G75*
G02*
X37915001Y-114170000I-249999J0D01*
G01*
X37014999Y-114170000D01*
G75*
G02*
X36765000Y-113920001I0J249999D01*
G01*
X36765000Y-113219999D01*
G75*
G02*
X37014999Y-112970000I249999J0D01*
G01*
G37*
G36*
G01*
X37014999Y-114970000D02*
X37915001Y-114970000D01*
G75*
G02*
X38165000Y-115219999I0J-249999D01*
G01*
X38165000Y-115920001D01*
G75*
G02*
X37915001Y-116170000I-249999J0D01*
G01*
X37014999Y-116170000D01*
G75*
G02*
X36765000Y-115920001I0J249999D01*
G01*
X36765000Y-115219999D01*
G75*
G02*
X37014999Y-114970000I249999J0D01*
G01*
G37*
G04 #@! TD*
D13*
G04 #@! TO.C,TP6*
X46990000Y-103505000D03*
G04 #@! TD*
D11*
G04 #@! TO.C,U2*
X53086000Y-117602000D03*
D14*
X50546000Y-117602000D03*
X48006000Y-117602000D03*
X45466000Y-117602000D03*
G04 #@! TD*
G04 #@! TO.C,R12*
G36*
G01*
X32833000Y-120211001D02*
X32833000Y-119310999D01*
G75*
G02*
X33082999Y-119061000I249999J0D01*
G01*
X33783001Y-119061000D01*
G75*
G02*
X34033000Y-119310999I0J-249999D01*
G01*
X34033000Y-120211001D01*
G75*
G02*
X33783001Y-120461000I-249999J0D01*
G01*
X33082999Y-120461000D01*
G75*
G02*
X32833000Y-120211001I0J249999D01*
G01*
G37*
G36*
G01*
X34833000Y-120211001D02*
X34833000Y-119310999D01*
G75*
G02*
X35082999Y-119061000I249999J0D01*
G01*
X35783001Y-119061000D01*
G75*
G02*
X36033000Y-119310999I0J-249999D01*
G01*
X36033000Y-120211001D01*
G75*
G02*
X35783001Y-120461000I-249999J0D01*
G01*
X35082999Y-120461000D01*
G75*
G02*
X34833000Y-120211001I0J249999D01*
G01*
G37*
G04 #@! TD*
G04 #@! TO.C,R17*
G36*
G01*
X66989000Y-101911999D02*
X66989000Y-102812001D01*
G75*
G02*
X66739001Y-103062000I-249999J0D01*
G01*
X66038999Y-103062000D01*
G75*
G02*
X65789000Y-102812001I0J249999D01*
G01*
X65789000Y-101911999D01*
G75*
G02*
X66038999Y-101662000I249999J0D01*
G01*
X66739001Y-101662000D01*
G75*
G02*
X66989000Y-101911999I0J-249999D01*
G01*
G37*
G36*
G01*
X64989000Y-101911999D02*
X64989000Y-102812001D01*
G75*
G02*
X64739001Y-103062000I-249999J0D01*
G01*
X64038999Y-103062000D01*
G75*
G02*
X63789000Y-102812001I0J249999D01*
G01*
X63789000Y-101911999D01*
G75*
G02*
X64038999Y-101662000I249999J0D01*
G01*
X64739001Y-101662000D01*
G75*
G02*
X64989000Y-101911999I0J-249999D01*
G01*
G37*
G04 #@! TD*
G04 #@! TO.C,C1*
G36*
G01*
X67694000Y-86175001D02*
X67694000Y-85274999D01*
G75*
G02*
X67943999Y-85025000I249999J0D01*
G01*
X68644001Y-85025000D01*
G75*
G02*
X68894000Y-85274999I0J-249999D01*
G01*
X68894000Y-86175001D01*
G75*
G02*
X68644001Y-86425000I-249999J0D01*
G01*
X67943999Y-86425000D01*
G75*
G02*
X67694000Y-86175001I0J249999D01*
G01*
G37*
G36*
G01*
X65694000Y-86175001D02*
X65694000Y-85274999D01*
G75*
G02*
X65943999Y-85025000I249999J0D01*
G01*
X66644001Y-85025000D01*
G75*
G02*
X66894000Y-85274999I0J-249999D01*
G01*
X66894000Y-86175001D01*
G75*
G02*
X66644001Y-86425000I-249999J0D01*
G01*
X65943999Y-86425000D01*
G75*
G02*
X65694000Y-86175001I0J249999D01*
G01*
G37*
G04 #@! TD*
D15*
G04 #@! TO.C,U4*
X72340000Y-80518000D03*
D16*
X66040000Y-80518000D03*
X66040000Y-82818000D03*
X66040000Y-78218000D03*
G04 #@! TD*
G04 #@! TO.C,R19*
G36*
G01*
X66989000Y-99371999D02*
X66989000Y-100272001D01*
G75*
G02*
X66739001Y-100522000I-249999J0D01*
G01*
X66038999Y-100522000D01*
G75*
G02*
X65789000Y-100272001I0J249999D01*
G01*
X65789000Y-99371999D01*
G75*
G02*
X66038999Y-99122000I249999J0D01*
G01*
X66739001Y-99122000D01*
G75*
G02*
X66989000Y-99371999I0J-249999D01*
G01*
G37*
G36*
G01*
X64989000Y-99371999D02*
X64989000Y-100272001D01*
G75*
G02*
X64739001Y-100522000I-249999J0D01*
G01*
X64038999Y-100522000D01*
G75*
G02*
X63789000Y-100272001I0J249999D01*
G01*
X63789000Y-99371999D01*
G75*
G02*
X64038999Y-99122000I249999J0D01*
G01*
X64739001Y-99122000D01*
G75*
G02*
X64989000Y-99371999I0J-249999D01*
G01*
G37*
G04 #@! TD*
G04 #@! TO.C,C4*
G36*
G01*
X43129000Y-117278999D02*
X43129000Y-118179001D01*
G75*
G02*
X42879001Y-118429000I-249999J0D01*
G01*
X42178999Y-118429000D01*
G75*
G02*
X41929000Y-118179001I0J249999D01*
G01*
X41929000Y-117278999D01*
G75*
G02*
X42178999Y-117029000I249999J0D01*
G01*
X42879001Y-117029000D01*
G75*
G02*
X43129000Y-117278999I0J-249999D01*
G01*
G37*
G36*
G01*
X41129000Y-117278999D02*
X41129000Y-118179001D01*
G75*
G02*
X40879001Y-118429000I-249999J0D01*
G01*
X40178999Y-118429000D01*
G75*
G02*
X39929000Y-118179001I0J249999D01*
G01*
X39929000Y-117278999D01*
G75*
G02*
X40178999Y-117029000I249999J0D01*
G01*
X40879001Y-117029000D01*
G75*
G02*
X41129000Y-117278999I0J-249999D01*
G01*
G37*
G04 #@! TD*
D13*
G04 #@! TO.C,TP3*
X43815000Y-96901000D03*
G04 #@! TD*
D17*
G04 #@! TO.C,C2*
X60452000Y-81407000D03*
D18*
X60452000Y-78907000D03*
G04 #@! TD*
D11*
G04 #@! TO.C,J2*
X27178000Y-123571000D03*
D12*
X27178000Y-121031000D03*
X27178000Y-118491000D03*
X27178000Y-115951000D03*
G04 #@! TD*
D19*
G04 #@! TO.C,H2*
X28702000Y-79121000D03*
G04 #@! TD*
G04 #@! TO.C,R16*
G36*
G01*
X66989000Y-97466999D02*
X66989000Y-98367001D01*
G75*
G02*
X66739001Y-98617000I-249999J0D01*
G01*
X66038999Y-98617000D01*
G75*
G02*
X65789000Y-98367001I0J249999D01*
G01*
X65789000Y-97466999D01*
G75*
G02*
X66038999Y-97217000I249999J0D01*
G01*
X66739001Y-97217000D01*
G75*
G02*
X66989000Y-97466999I0J-249999D01*
G01*
G37*
G36*
G01*
X64989000Y-97466999D02*
X64989000Y-98367001D01*
G75*
G02*
X64739001Y-98617000I-249999J0D01*
G01*
X64038999Y-98617000D01*
G75*
G02*
X63789000Y-98367001I0J249999D01*
G01*
X63789000Y-97466999D01*
G75*
G02*
X64038999Y-97217000I249999J0D01*
G01*
X64739001Y-97217000D01*
G75*
G02*
X64989000Y-97466999I0J-249999D01*
G01*
G37*
G04 #@! TD*
D11*
G04 #@! TO.C,U1*
X53340000Y-108585000D03*
D14*
X50800000Y-108585000D03*
X48260000Y-108585000D03*
G04 #@! TD*
G04 #@! TO.C,C3*
G36*
G01*
X55429999Y-99381000D02*
X56330001Y-99381000D01*
G75*
G02*
X56580000Y-99630999I0J-249999D01*
G01*
X56580000Y-100331001D01*
G75*
G02*
X56330001Y-100581000I-249999J0D01*
G01*
X55429999Y-100581000D01*
G75*
G02*
X55180000Y-100331001I0J249999D01*
G01*
X55180000Y-99630999D01*
G75*
G02*
X55429999Y-99381000I249999J0D01*
G01*
G37*
G36*
G01*
X55429999Y-101381000D02*
X56330001Y-101381000D01*
G75*
G02*
X56580000Y-101630999I0J-249999D01*
G01*
X56580000Y-102331001D01*
G75*
G02*
X56330001Y-102581000I-249999J0D01*
G01*
X55429999Y-102581000D01*
G75*
G02*
X55180000Y-102331001I0J249999D01*
G01*
X55180000Y-101630999D01*
G75*
G02*
X55429999Y-101381000I249999J0D01*
G01*
G37*
G04 #@! TD*
G04 #@! TO.C,R21*
G36*
G01*
X38919999Y-112970000D02*
X39820001Y-112970000D01*
G75*
G02*
X40070000Y-113219999I0J-249999D01*
G01*
X40070000Y-113920001D01*
G75*
G02*
X39820001Y-114170000I-249999J0D01*
G01*
X38919999Y-114170000D01*
G75*
G02*
X38670000Y-113920001I0J249999D01*
G01*
X38670000Y-113219999D01*
G75*
G02*
X38919999Y-112970000I249999J0D01*
G01*
G37*
G36*
G01*
X38919999Y-114970000D02*
X39820001Y-114970000D01*
G75*
G02*
X40070000Y-115219999I0J-249999D01*
G01*
X40070000Y-115920001D01*
G75*
G02*
X39820001Y-116170000I-249999J0D01*
G01*
X38919999Y-116170000D01*
G75*
G02*
X38670000Y-115920001I0J249999D01*
G01*
X38670000Y-115219999D01*
G75*
G02*
X38919999Y-114970000I249999J0D01*
G01*
G37*
G04 #@! TD*
D11*
G04 #@! TO.C,J1*
X73152000Y-105537000D03*
D12*
X73152000Y-108077000D03*
X73152000Y-110617000D03*
X73152000Y-113157000D03*
G04 #@! TD*
D11*
G04 #@! TO.C,U3*
X62738000Y-111125000D03*
D14*
X60198000Y-111125000D03*
X57658000Y-111125000D03*
X55118000Y-111125000D03*
X52578000Y-111125000D03*
X50038000Y-111125000D03*
X47498000Y-111125000D03*
X44958000Y-111125000D03*
X42418000Y-111125000D03*
X39878000Y-111125000D03*
X37338000Y-111125000D03*
X34798000Y-111125000D03*
X32258000Y-111125000D03*
X29718000Y-111125000D03*
X27178000Y-111125000D03*
X27178000Y-85725000D03*
X29718000Y-85725000D03*
X32258000Y-85725000D03*
X34798000Y-85725000D03*
X37338000Y-85725000D03*
X39878000Y-85725000D03*
X42418000Y-85725000D03*
X44958000Y-85725000D03*
X47498000Y-85725000D03*
X50038000Y-85725000D03*
X52578000Y-85725000D03*
X55118000Y-85725000D03*
X57658000Y-85725000D03*
X60198000Y-85725000D03*
X62738000Y-85725000D03*
G04 #@! TD*
G04 #@! TO.C,R11*
G36*
G01*
X36033000Y-117278999D02*
X36033000Y-118179001D01*
G75*
G02*
X35783001Y-118429000I-249999J0D01*
G01*
X35082999Y-118429000D01*
G75*
G02*
X34833000Y-118179001I0J249999D01*
G01*
X34833000Y-117278999D01*
G75*
G02*
X35082999Y-117029000I249999J0D01*
G01*
X35783001Y-117029000D01*
G75*
G02*
X36033000Y-117278999I0J-249999D01*
G01*
G37*
G36*
G01*
X34033000Y-117278999D02*
X34033000Y-118179001D01*
G75*
G02*
X33783001Y-118429000I-249999J0D01*
G01*
X33082999Y-118429000D01*
G75*
G02*
X32833000Y-118179001I0J249999D01*
G01*
X32833000Y-117278999D01*
G75*
G02*
X33082999Y-117029000I249999J0D01*
G01*
X33783001Y-117029000D01*
G75*
G02*
X34033000Y-117278999I0J-249999D01*
G01*
G37*
G04 #@! TD*
D19*
G04 #@! TO.C,H1*
X71755000Y-122174000D03*
G04 #@! TD*
D14*
G04 #@! TO.C,U1*
X98679000Y-108585000D03*
X101219000Y-108585000D03*
D11*
X103759000Y-108585000D03*
G04 #@! TD*
G04 #@! TO.C,R10*
G36*
G01*
X92332000Y-120211001D02*
X92332000Y-119310999D01*
G75*
G02*
X92581999Y-119061000I249999J0D01*
G01*
X93282001Y-119061000D01*
G75*
G02*
X93532000Y-119310999I0J-249999D01*
G01*
X93532000Y-120211001D01*
G75*
G02*
X93282001Y-120461000I-249999J0D01*
G01*
X92581999Y-120461000D01*
G75*
G02*
X92332000Y-120211001I0J249999D01*
G01*
G37*
G36*
G01*
X90332000Y-120211001D02*
X90332000Y-119310999D01*
G75*
G02*
X90581999Y-119061000I249999J0D01*
G01*
X91282001Y-119061000D01*
G75*
G02*
X91532000Y-119310999I0J-249999D01*
G01*
X91532000Y-120211001D01*
G75*
G02*
X91282001Y-120461000I-249999J0D01*
G01*
X90581999Y-120461000D01*
G75*
G02*
X90332000Y-120211001I0J249999D01*
G01*
G37*
G04 #@! TD*
D13*
G04 #@! TO.C,TP5*
X94107000Y-101727000D03*
G04 #@! TD*
G04 #@! TO.C,R16*
G36*
G01*
X115408000Y-97466999D02*
X115408000Y-98367001D01*
G75*
G02*
X115158001Y-98617000I-249999J0D01*
G01*
X114457999Y-98617000D01*
G75*
G02*
X114208000Y-98367001I0J249999D01*
G01*
X114208000Y-97466999D01*
G75*
G02*
X114457999Y-97217000I249999J0D01*
G01*
X115158001Y-97217000D01*
G75*
G02*
X115408000Y-97466999I0J-249999D01*
G01*
G37*
G36*
G01*
X117408000Y-97466999D02*
X117408000Y-98367001D01*
G75*
G02*
X117158001Y-98617000I-249999J0D01*
G01*
X116457999Y-98617000D01*
G75*
G02*
X116208000Y-98367001I0J249999D01*
G01*
X116208000Y-97466999D01*
G75*
G02*
X116457999Y-97217000I249999J0D01*
G01*
X117158001Y-97217000D01*
G75*
G02*
X117408000Y-97466999I0J-249999D01*
G01*
G37*
G04 #@! TD*
G04 #@! TO.C,R8*
G36*
G01*
X87433999Y-114970000D02*
X88334001Y-114970000D01*
G75*
G02*
X88584000Y-115219999I0J-249999D01*
G01*
X88584000Y-115920001D01*
G75*
G02*
X88334001Y-116170000I-249999J0D01*
G01*
X87433999Y-116170000D01*
G75*
G02*
X87184000Y-115920001I0J249999D01*
G01*
X87184000Y-115219999D01*
G75*
G02*
X87433999Y-114970000I249999J0D01*
G01*
G37*
G36*
G01*
X87433999Y-112970000D02*
X88334001Y-112970000D01*
G75*
G02*
X88584000Y-113219999I0J-249999D01*
G01*
X88584000Y-113920001D01*
G75*
G02*
X88334001Y-114170000I-249999J0D01*
G01*
X87433999Y-114170000D01*
G75*
G02*
X87184000Y-113920001I0J249999D01*
G01*
X87184000Y-113219999D01*
G75*
G02*
X87433999Y-112970000I249999J0D01*
G01*
G37*
G04 #@! TD*
G04 #@! TO.C,D1*
G36*
G01*
X115902000Y-123259001D02*
X115902000Y-122358999D01*
G75*
G02*
X116151999Y-122109000I249999J0D01*
G01*
X116802001Y-122109000D01*
G75*
G02*
X117052000Y-122358999I0J-249999D01*
G01*
X117052000Y-123259001D01*
G75*
G02*
X116802001Y-123509000I-249999J0D01*
G01*
X116151999Y-123509000D01*
G75*
G02*
X115902000Y-123259001I0J249999D01*
G01*
G37*
G36*
G01*
X113852000Y-123259001D02*
X113852000Y-122358999D01*
G75*
G02*
X114101999Y-122109000I249999J0D01*
G01*
X114752001Y-122109000D01*
G75*
G02*
X115002000Y-122358999I0J-249999D01*
G01*
X115002000Y-123259001D01*
G75*
G02*
X114752001Y-123509000I-249999J0D01*
G01*
X114101999Y-123509000D01*
G75*
G02*
X113852000Y-123259001I0J249999D01*
G01*
G37*
G04 #@! TD*
D12*
G04 #@! TO.C,J6*
X119507000Y-105537000D03*
X119507000Y-102997000D03*
X119507000Y-100457000D03*
X119507000Y-97917000D03*
X119507000Y-95377000D03*
D11*
X119507000Y-92837000D03*
G04 #@! TD*
G04 #@! TO.C,R3*
G36*
G01*
X109023999Y-119288000D02*
X109924001Y-119288000D01*
G75*
G02*
X110174000Y-119537999I0J-249999D01*
G01*
X110174000Y-120238001D01*
G75*
G02*
X109924001Y-120488000I-249999J0D01*
G01*
X109023999Y-120488000D01*
G75*
G02*
X108774000Y-120238001I0J249999D01*
G01*
X108774000Y-119537999D01*
G75*
G02*
X109023999Y-119288000I249999J0D01*
G01*
G37*
G36*
G01*
X109023999Y-117288000D02*
X109924001Y-117288000D01*
G75*
G02*
X110174000Y-117537999I0J-249999D01*
G01*
X110174000Y-118238001D01*
G75*
G02*
X109924001Y-118488000I-249999J0D01*
G01*
X109023999Y-118488000D01*
G75*
G02*
X108774000Y-118238001I0J249999D01*
G01*
X108774000Y-117537999D01*
G75*
G02*
X109023999Y-117288000I249999J0D01*
G01*
G37*
G04 #@! TD*
D12*
G04 #@! TO.C,J3*
X123571000Y-89027000D03*
X123571000Y-91567000D03*
X123571000Y-94107000D03*
X123571000Y-96647000D03*
D11*
X123571000Y-99187000D03*
G04 #@! TD*
G04 #@! TO.C,R20*
G36*
G01*
X115424000Y-103943999D02*
X115424000Y-104844001D01*
G75*
G02*
X115174001Y-105094000I-249999J0D01*
G01*
X114473999Y-105094000D01*
G75*
G02*
X114224000Y-104844001I0J249999D01*
G01*
X114224000Y-103943999D01*
G75*
G02*
X114473999Y-103694000I249999J0D01*
G01*
X115174001Y-103694000D01*
G75*
G02*
X115424000Y-103943999I0J-249999D01*
G01*
G37*
G36*
G01*
X117424000Y-103943999D02*
X117424000Y-104844001D01*
G75*
G02*
X117174001Y-105094000I-249999J0D01*
G01*
X116473999Y-105094000D01*
G75*
G02*
X116224000Y-104844001I0J249999D01*
G01*
X116224000Y-103943999D01*
G75*
G02*
X116473999Y-103694000I249999J0D01*
G01*
X117174001Y-103694000D01*
G75*
G02*
X117424000Y-103943999I0J-249999D01*
G01*
G37*
G04 #@! TD*
G04 #@! TO.C,C4*
G36*
G01*
X91548000Y-117278999D02*
X91548000Y-118179001D01*
G75*
G02*
X91298001Y-118429000I-249999J0D01*
G01*
X90597999Y-118429000D01*
G75*
G02*
X90348000Y-118179001I0J249999D01*
G01*
X90348000Y-117278999D01*
G75*
G02*
X90597999Y-117029000I249999J0D01*
G01*
X91298001Y-117029000D01*
G75*
G02*
X91548000Y-117278999I0J-249999D01*
G01*
G37*
G36*
G01*
X93548000Y-117278999D02*
X93548000Y-118179001D01*
G75*
G02*
X93298001Y-118429000I-249999J0D01*
G01*
X92597999Y-118429000D01*
G75*
G02*
X92348000Y-118179001I0J249999D01*
G01*
X92348000Y-117278999D01*
G75*
G02*
X92597999Y-117029000I249999J0D01*
G01*
X93298001Y-117029000D01*
G75*
G02*
X93548000Y-117278999I0J-249999D01*
G01*
G37*
G04 #@! TD*
D13*
G04 #@! TO.C,TP3*
X94234000Y-96901000D03*
G04 #@! TD*
G04 #@! TO.C,R21*
G36*
G01*
X89338999Y-114970000D02*
X90239001Y-114970000D01*
G75*
G02*
X90489000Y-115219999I0J-249999D01*
G01*
X90489000Y-115920001D01*
G75*
G02*
X90239001Y-116170000I-249999J0D01*
G01*
X89338999Y-116170000D01*
G75*
G02*
X89089000Y-115920001I0J249999D01*
G01*
X89089000Y-115219999D01*
G75*
G02*
X89338999Y-114970000I249999J0D01*
G01*
G37*
G36*
G01*
X89338999Y-112970000D02*
X90239001Y-112970000D01*
G75*
G02*
X90489000Y-113219999I0J-249999D01*
G01*
X90489000Y-113920001D01*
G75*
G02*
X90239001Y-114170000I-249999J0D01*
G01*
X89338999Y-114170000D01*
G75*
G02*
X89089000Y-113920001I0J249999D01*
G01*
X89089000Y-113219999D01*
G75*
G02*
X89338999Y-112970000I249999J0D01*
G01*
G37*
G04 #@! TD*
G04 #@! TO.C,C3*
G36*
G01*
X105848999Y-101381000D02*
X106749001Y-101381000D01*
G75*
G02*
X106999000Y-101630999I0J-249999D01*
G01*
X106999000Y-102331001D01*
G75*
G02*
X106749001Y-102581000I-249999J0D01*
G01*
X105848999Y-102581000D01*
G75*
G02*
X105599000Y-102331001I0J249999D01*
G01*
X105599000Y-101630999D01*
G75*
G02*
X105848999Y-101381000I249999J0D01*
G01*
G37*
G36*
G01*
X105848999Y-99381000D02*
X106749001Y-99381000D01*
G75*
G02*
X106999000Y-99630999I0J-249999D01*
G01*
X106999000Y-100331001D01*
G75*
G02*
X106749001Y-100581000I-249999J0D01*
G01*
X105848999Y-100581000D01*
G75*
G02*
X105599000Y-100331001I0J249999D01*
G01*
X105599000Y-99630999D01*
G75*
G02*
X105848999Y-99381000I249999J0D01*
G01*
G37*
G04 #@! TD*
G04 #@! TO.C,R17*
G36*
G01*
X115408000Y-101911999D02*
X115408000Y-102812001D01*
G75*
G02*
X115158001Y-103062000I-249999J0D01*
G01*
X114457999Y-103062000D01*
G75*
G02*
X114208000Y-102812001I0J249999D01*
G01*
X114208000Y-101911999D01*
G75*
G02*
X114457999Y-101662000I249999J0D01*
G01*
X115158001Y-101662000D01*
G75*
G02*
X115408000Y-101911999I0J-249999D01*
G01*
G37*
G36*
G01*
X117408000Y-101911999D02*
X117408000Y-102812001D01*
G75*
G02*
X117158001Y-103062000I-249999J0D01*
G01*
X116457999Y-103062000D01*
G75*
G02*
X116208000Y-102812001I0J249999D01*
G01*
X116208000Y-101911999D01*
G75*
G02*
X116457999Y-101662000I249999J0D01*
G01*
X117158001Y-101662000D01*
G75*
G02*
X117408000Y-101911999I0J-249999D01*
G01*
G37*
G04 #@! TD*
G04 #@! TO.C,R12*
G36*
G01*
X85252000Y-120211001D02*
X85252000Y-119310999D01*
G75*
G02*
X85501999Y-119061000I249999J0D01*
G01*
X86202001Y-119061000D01*
G75*
G02*
X86452000Y-119310999I0J-249999D01*
G01*
X86452000Y-120211001D01*
G75*
G02*
X86202001Y-120461000I-249999J0D01*
G01*
X85501999Y-120461000D01*
G75*
G02*
X85252000Y-120211001I0J249999D01*
G01*
G37*
G36*
G01*
X83252000Y-120211001D02*
X83252000Y-119310999D01*
G75*
G02*
X83501999Y-119061000I249999J0D01*
G01*
X84202001Y-119061000D01*
G75*
G02*
X84452000Y-119310999I0J-249999D01*
G01*
X84452000Y-120211001D01*
G75*
G02*
X84202001Y-120461000I-249999J0D01*
G01*
X83501999Y-120461000D01*
G75*
G02*
X83252000Y-120211001I0J249999D01*
G01*
G37*
G04 #@! TD*
G04 #@! TO.C,TP6*
X97409000Y-103505000D03*
G04 #@! TD*
D12*
G04 #@! TO.C,J1*
X123571000Y-113157000D03*
X123571000Y-110617000D03*
X123571000Y-108077000D03*
D11*
X123571000Y-105537000D03*
G04 #@! TD*
D12*
G04 #@! TO.C,J2*
X77597000Y-115951000D03*
X77597000Y-118491000D03*
X77597000Y-121031000D03*
D11*
X77597000Y-123571000D03*
G04 #@! TD*
G04 #@! TO.C,C1*
G36*
G01*
X116113000Y-86175001D02*
X116113000Y-85274999D01*
G75*
G02*
X116362999Y-85025000I249999J0D01*
G01*
X117063001Y-85025000D01*
G75*
G02*
X117313000Y-85274999I0J-249999D01*
G01*
X117313000Y-86175001D01*
G75*
G02*
X117063001Y-86425000I-249999J0D01*
G01*
X116362999Y-86425000D01*
G75*
G02*
X116113000Y-86175001I0J249999D01*
G01*
G37*
G36*
G01*
X118113000Y-86175001D02*
X118113000Y-85274999D01*
G75*
G02*
X118362999Y-85025000I249999J0D01*
G01*
X119063001Y-85025000D01*
G75*
G02*
X119313000Y-85274999I0J-249999D01*
G01*
X119313000Y-86175001D01*
G75*
G02*
X119063001Y-86425000I-249999J0D01*
G01*
X118362999Y-86425000D01*
G75*
G02*
X118113000Y-86175001I0J249999D01*
G01*
G37*
G04 #@! TD*
G04 #@! TO.C,R9*
G36*
G01*
X102381000Y-113988001D02*
X102381000Y-113087999D01*
G75*
G02*
X102630999Y-112838000I249999J0D01*
G01*
X103331001Y-112838000D01*
G75*
G02*
X103581000Y-113087999I0J-249999D01*
G01*
X103581000Y-113988001D01*
G75*
G02*
X103331001Y-114238000I-249999J0D01*
G01*
X102630999Y-114238000D01*
G75*
G02*
X102381000Y-113988001I0J249999D01*
G01*
G37*
G36*
G01*
X100381000Y-113988001D02*
X100381000Y-113087999D01*
G75*
G02*
X100630999Y-112838000I249999J0D01*
G01*
X101331001Y-112838000D01*
G75*
G02*
X101581000Y-113087999I0J-249999D01*
G01*
X101581000Y-113988001D01*
G75*
G02*
X101331001Y-114238000I-249999J0D01*
G01*
X100630999Y-114238000D01*
G75*
G02*
X100381000Y-113988001I0J249999D01*
G01*
G37*
G04 #@! TD*
D13*
G04 #@! TO.C,TP4*
X97409000Y-98933000D03*
G04 #@! TD*
D18*
G04 #@! TO.C,C2*
X110871000Y-78907000D03*
D17*
X110871000Y-81407000D03*
G04 #@! TD*
D14*
G04 #@! TO.C,U2*
X95885000Y-117602000D03*
X98425000Y-117602000D03*
X100965000Y-117602000D03*
D11*
X103505000Y-117602000D03*
G04 #@! TD*
D12*
G04 #@! TO.C,J4*
X93853000Y-77597000D03*
X96393000Y-77597000D03*
X98933000Y-77597000D03*
X101473000Y-77597000D03*
D11*
X104013000Y-77597000D03*
G04 #@! TD*
D12*
G04 #@! TO.C,J5*
X80645000Y-93599000D03*
X80645000Y-96139000D03*
X80645000Y-98679000D03*
X80645000Y-101219000D03*
D11*
X80645000Y-103759000D03*
G04 #@! TD*
G04 #@! TO.C,R19*
G36*
G01*
X115408000Y-99371999D02*
X115408000Y-100272001D01*
G75*
G02*
X115158001Y-100522000I-249999J0D01*
G01*
X114457999Y-100522000D01*
G75*
G02*
X114208000Y-100272001I0J249999D01*
G01*
X114208000Y-99371999D01*
G75*
G02*
X114457999Y-99122000I249999J0D01*
G01*
X115158001Y-99122000D01*
G75*
G02*
X115408000Y-99371999I0J-249999D01*
G01*
G37*
G36*
G01*
X117408000Y-99371999D02*
X117408000Y-100272001D01*
G75*
G02*
X117158001Y-100522000I-249999J0D01*
G01*
X116457999Y-100522000D01*
G75*
G02*
X116208000Y-100272001I0J249999D01*
G01*
X116208000Y-99371999D01*
G75*
G02*
X116457999Y-99122000I249999J0D01*
G01*
X117158001Y-99122000D01*
G75*
G02*
X117408000Y-99371999I0J-249999D01*
G01*
G37*
G04 #@! TD*
D16*
G04 #@! TO.C,U4*
X116459000Y-78218000D03*
X116459000Y-82818000D03*
X116459000Y-80518000D03*
D15*
X122759000Y-80518000D03*
G04 #@! TD*
D19*
G04 #@! TO.C,H2*
X79121000Y-79121000D03*
G04 #@! TD*
G04 #@! TO.C,R11*
G36*
G01*
X84452000Y-117278999D02*
X84452000Y-118179001D01*
G75*
G02*
X84202001Y-118429000I-249999J0D01*
G01*
X83501999Y-118429000D01*
G75*
G02*
X83252000Y-118179001I0J249999D01*
G01*
X83252000Y-117278999D01*
G75*
G02*
X83501999Y-117029000I249999J0D01*
G01*
X84202001Y-117029000D01*
G75*
G02*
X84452000Y-117278999I0J-249999D01*
G01*
G37*
G36*
G01*
X86452000Y-117278999D02*
X86452000Y-118179001D01*
G75*
G02*
X86202001Y-118429000I-249999J0D01*
G01*
X85501999Y-118429000D01*
G75*
G02*
X85252000Y-118179001I0J249999D01*
G01*
X85252000Y-117278999D01*
G75*
G02*
X85501999Y-117029000I249999J0D01*
G01*
X86202001Y-117029000D01*
G75*
G02*
X86452000Y-117278999I0J-249999D01*
G01*
G37*
G04 #@! TD*
G04 #@! TO.C,H1*
X122174000Y-122174000D03*
G04 #@! TD*
D14*
G04 #@! TO.C,U3*
X113157000Y-85725000D03*
X110617000Y-85725000D03*
X108077000Y-85725000D03*
X105537000Y-85725000D03*
X102997000Y-85725000D03*
X100457000Y-85725000D03*
X97917000Y-85725000D03*
X95377000Y-85725000D03*
X92837000Y-85725000D03*
X90297000Y-85725000D03*
X87757000Y-85725000D03*
X85217000Y-85725000D03*
X82677000Y-85725000D03*
X80137000Y-85725000D03*
X77597000Y-85725000D03*
X77597000Y-111125000D03*
X80137000Y-111125000D03*
X82677000Y-111125000D03*
X85217000Y-111125000D03*
X87757000Y-111125000D03*
X90297000Y-111125000D03*
X92837000Y-111125000D03*
X95377000Y-111125000D03*
X97917000Y-111125000D03*
X100457000Y-111125000D03*
X102997000Y-111125000D03*
X105537000Y-111125000D03*
X108077000Y-111125000D03*
X110617000Y-111125000D03*
D11*
X113157000Y-111125000D03*
G04 #@! TD*
G04 #@! TO.C,J6*
X81661000Y-57912000D03*
D12*
X81661000Y-55372000D03*
X81661000Y-52832000D03*
X81661000Y-50292000D03*
X81661000Y-47752000D03*
X81661000Y-45212000D03*
G04 #@! TD*
D15*
G04 #@! TO.C,U4*
X78409000Y-70231000D03*
D16*
X84709000Y-70231000D03*
X84709000Y-67931000D03*
X84709000Y-72531000D03*
G04 #@! TD*
D13*
G04 #@! TO.C,TP3*
X106934000Y-53848000D03*
G04 #@! TD*
G04 #@! TO.C,D1*
G36*
G01*
X87316000Y-27489999D02*
X87316000Y-28390001D01*
G75*
G02*
X87066001Y-28640000I-249999J0D01*
G01*
X86415999Y-28640000D01*
G75*
G02*
X86166000Y-28390001I0J249999D01*
G01*
X86166000Y-27489999D01*
G75*
G02*
X86415999Y-27240000I249999J0D01*
G01*
X87066001Y-27240000D01*
G75*
G02*
X87316000Y-27489999I0J-249999D01*
G01*
G37*
G36*
G01*
X85266000Y-27489999D02*
X85266000Y-28390001D01*
G75*
G02*
X85016001Y-28640000I-249999J0D01*
G01*
X84365999Y-28640000D01*
G75*
G02*
X84116000Y-28390001I0J249999D01*
G01*
X84116000Y-27489999D01*
G75*
G02*
X84365999Y-27240000I249999J0D01*
G01*
X85016001Y-27240000D01*
G75*
G02*
X85266000Y-27489999I0J-249999D01*
G01*
G37*
G04 #@! TD*
G04 #@! TO.C,R21*
G36*
G01*
X111829001Y-37779000D02*
X110928999Y-37779000D01*
G75*
G02*
X110679000Y-37529001I0J249999D01*
G01*
X110679000Y-36828999D01*
G75*
G02*
X110928999Y-36579000I249999J0D01*
G01*
X111829001Y-36579000D01*
G75*
G02*
X112079000Y-36828999I0J-249999D01*
G01*
X112079000Y-37529001D01*
G75*
G02*
X111829001Y-37779000I-249999J0D01*
G01*
G37*
G36*
G01*
X111829001Y-35779000D02*
X110928999Y-35779000D01*
G75*
G02*
X110679000Y-35529001I0J249999D01*
G01*
X110679000Y-34828999D01*
G75*
G02*
X110928999Y-34579000I249999J0D01*
G01*
X111829001Y-34579000D01*
G75*
G02*
X112079000Y-34828999I0J-249999D01*
G01*
X112079000Y-35529001D01*
G75*
G02*
X111829001Y-35779000I-249999J0D01*
G01*
G37*
G04 #@! TD*
G04 #@! TO.C,R17*
G36*
G01*
X83760000Y-48837001D02*
X83760000Y-47936999D01*
G75*
G02*
X84009999Y-47687000I249999J0D01*
G01*
X84710001Y-47687000D01*
G75*
G02*
X84960000Y-47936999I0J-249999D01*
G01*
X84960000Y-48837001D01*
G75*
G02*
X84710001Y-49087000I-249999J0D01*
G01*
X84009999Y-49087000D01*
G75*
G02*
X83760000Y-48837001I0J249999D01*
G01*
G37*
G36*
G01*
X85760000Y-48837001D02*
X85760000Y-47936999D01*
G75*
G02*
X86009999Y-47687000I249999J0D01*
G01*
X86710001Y-47687000D01*
G75*
G02*
X86960000Y-47936999I0J-249999D01*
G01*
X86960000Y-48837001D01*
G75*
G02*
X86710001Y-49087000I-249999J0D01*
G01*
X86009999Y-49087000D01*
G75*
G02*
X85760000Y-48837001I0J249999D01*
G01*
G37*
G04 #@! TD*
G04 #@! TO.C,C3*
G36*
G01*
X95319001Y-51368000D02*
X94418999Y-51368000D01*
G75*
G02*
X94169000Y-51118001I0J249999D01*
G01*
X94169000Y-50417999D01*
G75*
G02*
X94418999Y-50168000I249999J0D01*
G01*
X95319001Y-50168000D01*
G75*
G02*
X95569000Y-50417999I0J-249999D01*
G01*
X95569000Y-51118001D01*
G75*
G02*
X95319001Y-51368000I-249999J0D01*
G01*
G37*
G36*
G01*
X95319001Y-49368000D02*
X94418999Y-49368000D01*
G75*
G02*
X94169000Y-49118001I0J249999D01*
G01*
X94169000Y-48417999D01*
G75*
G02*
X94418999Y-48168000I249999J0D01*
G01*
X95319001Y-48168000D01*
G75*
G02*
X95569000Y-48417999I0J-249999D01*
G01*
X95569000Y-49118001D01*
G75*
G02*
X95319001Y-49368000I-249999J0D01*
G01*
G37*
G04 #@! TD*
G04 #@! TO.C,R12*
G36*
G01*
X117916000Y-30537999D02*
X117916000Y-31438001D01*
G75*
G02*
X117666001Y-31688000I-249999J0D01*
G01*
X116965999Y-31688000D01*
G75*
G02*
X116716000Y-31438001I0J249999D01*
G01*
X116716000Y-30537999D01*
G75*
G02*
X116965999Y-30288000I249999J0D01*
G01*
X117666001Y-30288000D01*
G75*
G02*
X117916000Y-30537999I0J-249999D01*
G01*
G37*
G36*
G01*
X115916000Y-30537999D02*
X115916000Y-31438001D01*
G75*
G02*
X115666001Y-31688000I-249999J0D01*
G01*
X114965999Y-31688000D01*
G75*
G02*
X114716000Y-31438001I0J249999D01*
G01*
X114716000Y-30537999D01*
G75*
G02*
X114965999Y-30288000I249999J0D01*
G01*
X115666001Y-30288000D01*
G75*
G02*
X115916000Y-30537999I0J-249999D01*
G01*
G37*
G04 #@! TD*
G04 #@! TO.C,TP4*
X103759000Y-51816000D03*
G04 #@! TD*
G04 #@! TO.C,R20*
G36*
G01*
X83744000Y-46805001D02*
X83744000Y-45904999D01*
G75*
G02*
X83993999Y-45655000I249999J0D01*
G01*
X84694001Y-45655000D01*
G75*
G02*
X84944000Y-45904999I0J-249999D01*
G01*
X84944000Y-46805001D01*
G75*
G02*
X84694001Y-47055000I-249999J0D01*
G01*
X83993999Y-47055000D01*
G75*
G02*
X83744000Y-46805001I0J249999D01*
G01*
G37*
G36*
G01*
X85744000Y-46805001D02*
X85744000Y-45904999D01*
G75*
G02*
X85993999Y-45655000I249999J0D01*
G01*
X86694001Y-45655000D01*
G75*
G02*
X86944000Y-45904999I0J-249999D01*
G01*
X86944000Y-46805001D01*
G75*
G02*
X86694001Y-47055000I-249999J0D01*
G01*
X85993999Y-47055000D01*
G75*
G02*
X85744000Y-46805001I0J249999D01*
G01*
G37*
G04 #@! TD*
G04 #@! TO.C,R9*
G36*
G01*
X100787000Y-36760999D02*
X100787000Y-37661001D01*
G75*
G02*
X100537001Y-37911000I-249999J0D01*
G01*
X99836999Y-37911000D01*
G75*
G02*
X99587000Y-37661001I0J249999D01*
G01*
X99587000Y-36760999D01*
G75*
G02*
X99836999Y-36511000I249999J0D01*
G01*
X100537001Y-36511000D01*
G75*
G02*
X100787000Y-36760999I0J-249999D01*
G01*
G37*
G36*
G01*
X98787000Y-36760999D02*
X98787000Y-37661001D01*
G75*
G02*
X98537001Y-37911000I-249999J0D01*
G01*
X97836999Y-37911000D01*
G75*
G02*
X97587000Y-37661001I0J249999D01*
G01*
X97587000Y-36760999D01*
G75*
G02*
X97836999Y-36511000I249999J0D01*
G01*
X98537001Y-36511000D01*
G75*
G02*
X98787000Y-36760999I0J-249999D01*
G01*
G37*
G04 #@! TD*
G04 #@! TO.C,R11*
G36*
G01*
X114716000Y-33470001D02*
X114716000Y-32569999D01*
G75*
G02*
X114965999Y-32320000I249999J0D01*
G01*
X115666001Y-32320000D01*
G75*
G02*
X115916000Y-32569999I0J-249999D01*
G01*
X115916000Y-33470001D01*
G75*
G02*
X115666001Y-33720000I-249999J0D01*
G01*
X114965999Y-33720000D01*
G75*
G02*
X114716000Y-33470001I0J249999D01*
G01*
G37*
G36*
G01*
X116716000Y-33470001D02*
X116716000Y-32569999D01*
G75*
G02*
X116965999Y-32320000I249999J0D01*
G01*
X117666001Y-32320000D01*
G75*
G02*
X117916000Y-32569999I0J-249999D01*
G01*
X117916000Y-33470001D01*
G75*
G02*
X117666001Y-33720000I-249999J0D01*
G01*
X116965999Y-33720000D01*
G75*
G02*
X116716000Y-33470001I0J249999D01*
G01*
G37*
G04 #@! TD*
D11*
G04 #@! TO.C,U2*
X97663000Y-33147000D03*
D14*
X100203000Y-33147000D03*
X102743000Y-33147000D03*
X105283000Y-33147000D03*
G04 #@! TD*
D17*
G04 #@! TO.C,C2*
X90297000Y-69342000D03*
D18*
X90297000Y-71842000D03*
G04 #@! TD*
G04 #@! TO.C,R10*
G36*
G01*
X110836000Y-30537999D02*
X110836000Y-31438001D01*
G75*
G02*
X110586001Y-31688000I-249999J0D01*
G01*
X109885999Y-31688000D01*
G75*
G02*
X109636000Y-31438001I0J249999D01*
G01*
X109636000Y-30537999D01*
G75*
G02*
X109885999Y-30288000I249999J0D01*
G01*
X110586001Y-30288000D01*
G75*
G02*
X110836000Y-30537999I0J-249999D01*
G01*
G37*
G36*
G01*
X108836000Y-30537999D02*
X108836000Y-31438001D01*
G75*
G02*
X108586001Y-31688000I-249999J0D01*
G01*
X107885999Y-31688000D01*
G75*
G02*
X107636000Y-31438001I0J249999D01*
G01*
X107636000Y-30537999D01*
G75*
G02*
X107885999Y-30288000I249999J0D01*
G01*
X108586001Y-30288000D01*
G75*
G02*
X108836000Y-30537999I0J-249999D01*
G01*
G37*
G04 #@! TD*
G04 #@! TO.C,C1*
G36*
G01*
X83055000Y-64573999D02*
X83055000Y-65474001D01*
G75*
G02*
X82805001Y-65724000I-249999J0D01*
G01*
X82104999Y-65724000D01*
G75*
G02*
X81855000Y-65474001I0J249999D01*
G01*
X81855000Y-64573999D01*
G75*
G02*
X82104999Y-64324000I249999J0D01*
G01*
X82805001Y-64324000D01*
G75*
G02*
X83055000Y-64573999I0J-249999D01*
G01*
G37*
G36*
G01*
X85055000Y-64573999D02*
X85055000Y-65474001D01*
G75*
G02*
X84805001Y-65724000I-249999J0D01*
G01*
X84104999Y-65724000D01*
G75*
G02*
X83855000Y-65474001I0J249999D01*
G01*
X83855000Y-64573999D01*
G75*
G02*
X84104999Y-64324000I249999J0D01*
G01*
X84805001Y-64324000D01*
G75*
G02*
X85055000Y-64573999I0J-249999D01*
G01*
G37*
G04 #@! TD*
G04 #@! TO.C,R3*
G36*
G01*
X92144001Y-33461000D02*
X91243999Y-33461000D01*
G75*
G02*
X90994000Y-33211001I0J249999D01*
G01*
X90994000Y-32510999D01*
G75*
G02*
X91243999Y-32261000I249999J0D01*
G01*
X92144001Y-32261000D01*
G75*
G02*
X92394000Y-32510999I0J-249999D01*
G01*
X92394000Y-33211001D01*
G75*
G02*
X92144001Y-33461000I-249999J0D01*
G01*
G37*
G36*
G01*
X92144001Y-31461000D02*
X91243999Y-31461000D01*
G75*
G02*
X90994000Y-31211001I0J249999D01*
G01*
X90994000Y-30510999D01*
G75*
G02*
X91243999Y-30261000I249999J0D01*
G01*
X92144001Y-30261000D01*
G75*
G02*
X92394000Y-30510999I0J-249999D01*
G01*
X92394000Y-31211001D01*
G75*
G02*
X92144001Y-31461000I-249999J0D01*
G01*
G37*
G04 #@! TD*
D13*
G04 #@! TO.C,TP6*
X103759000Y-47244000D03*
G04 #@! TD*
D11*
G04 #@! TO.C,U3*
X88011000Y-39624000D03*
D14*
X90551000Y-39624000D03*
X93091000Y-39624000D03*
X95631000Y-39624000D03*
X98171000Y-39624000D03*
X100711000Y-39624000D03*
X103251000Y-39624000D03*
X105791000Y-39624000D03*
X108331000Y-39624000D03*
X110871000Y-39624000D03*
X113411000Y-39624000D03*
X115951000Y-39624000D03*
X118491000Y-39624000D03*
X121031000Y-39624000D03*
X123571000Y-39624000D03*
X123571000Y-65024000D03*
X121031000Y-65024000D03*
X118491000Y-65024000D03*
X115951000Y-65024000D03*
X113411000Y-65024000D03*
X110871000Y-65024000D03*
X108331000Y-65024000D03*
X105791000Y-65024000D03*
X103251000Y-65024000D03*
X100711000Y-65024000D03*
X98171000Y-65024000D03*
X95631000Y-65024000D03*
X93091000Y-65024000D03*
X90551000Y-65024000D03*
X88011000Y-65024000D03*
G04 #@! TD*
D11*
G04 #@! TO.C,J1*
X77597000Y-45212000D03*
D12*
X77597000Y-42672000D03*
X77597000Y-40132000D03*
X77597000Y-37592000D03*
G04 #@! TD*
G04 #@! TO.C,C4*
G36*
G01*
X107620000Y-33470001D02*
X107620000Y-32569999D01*
G75*
G02*
X107869999Y-32320000I249999J0D01*
G01*
X108570001Y-32320000D01*
G75*
G02*
X108820000Y-32569999I0J-249999D01*
G01*
X108820000Y-33470001D01*
G75*
G02*
X108570001Y-33720000I-249999J0D01*
G01*
X107869999Y-33720000D01*
G75*
G02*
X107620000Y-33470001I0J249999D01*
G01*
G37*
G36*
G01*
X109620000Y-33470001D02*
X109620000Y-32569999D01*
G75*
G02*
X109869999Y-32320000I249999J0D01*
G01*
X110570001Y-32320000D01*
G75*
G02*
X110820000Y-32569999I0J-249999D01*
G01*
X110820000Y-33470001D01*
G75*
G02*
X110570001Y-33720000I-249999J0D01*
G01*
X109869999Y-33720000D01*
G75*
G02*
X109620000Y-33470001I0J249999D01*
G01*
G37*
G04 #@! TD*
D11*
G04 #@! TO.C,J3*
X77597000Y-51562000D03*
D12*
X77597000Y-54102000D03*
X77597000Y-56642000D03*
X77597000Y-59182000D03*
X77597000Y-61722000D03*
G04 #@! TD*
D11*
G04 #@! TO.C,J2*
X123571000Y-27178000D03*
D12*
X123571000Y-29718000D03*
X123571000Y-32258000D03*
X123571000Y-34798000D03*
G04 #@! TD*
D19*
G04 #@! TO.C,H2*
X122047000Y-71628000D03*
G04 #@! TD*
D11*
G04 #@! TO.C,J4*
X97155000Y-73152000D03*
D12*
X99695000Y-73152000D03*
X102235000Y-73152000D03*
X104775000Y-73152000D03*
X107315000Y-73152000D03*
G04 #@! TD*
D11*
G04 #@! TO.C,J5*
X120523000Y-46990000D03*
D12*
X120523000Y-49530000D03*
X120523000Y-52070000D03*
X120523000Y-54610000D03*
X120523000Y-57150000D03*
G04 #@! TD*
D19*
G04 #@! TO.C,H1*
X78994000Y-28575000D03*
G04 #@! TD*
G04 #@! TO.C,R16*
G36*
G01*
X83760000Y-53282001D02*
X83760000Y-52381999D01*
G75*
G02*
X84009999Y-52132000I249999J0D01*
G01*
X84710001Y-52132000D01*
G75*
G02*
X84960000Y-52381999I0J-249999D01*
G01*
X84960000Y-53282001D01*
G75*
G02*
X84710001Y-53532000I-249999J0D01*
G01*
X84009999Y-53532000D01*
G75*
G02*
X83760000Y-53282001I0J249999D01*
G01*
G37*
G36*
G01*
X85760000Y-53282001D02*
X85760000Y-52381999D01*
G75*
G02*
X86009999Y-52132000I249999J0D01*
G01*
X86710001Y-52132000D01*
G75*
G02*
X86960000Y-52381999I0J-249999D01*
G01*
X86960000Y-53282001D01*
G75*
G02*
X86710001Y-53532000I-249999J0D01*
G01*
X86009999Y-53532000D01*
G75*
G02*
X85760000Y-53282001I0J249999D01*
G01*
G37*
G04 #@! TD*
D13*
G04 #@! TO.C,TP5*
X107061000Y-49022000D03*
G04 #@! TD*
G04 #@! TO.C,R8*
G36*
G01*
X113734001Y-37779000D02*
X112833999Y-37779000D01*
G75*
G02*
X112584000Y-37529001I0J249999D01*
G01*
X112584000Y-36828999D01*
G75*
G02*
X112833999Y-36579000I249999J0D01*
G01*
X113734001Y-36579000D01*
G75*
G02*
X113984000Y-36828999I0J-249999D01*
G01*
X113984000Y-37529001D01*
G75*
G02*
X113734001Y-37779000I-249999J0D01*
G01*
G37*
G36*
G01*
X113734001Y-35779000D02*
X112833999Y-35779000D01*
G75*
G02*
X112584000Y-35529001I0J249999D01*
G01*
X112584000Y-34828999D01*
G75*
G02*
X112833999Y-34579000I249999J0D01*
G01*
X113734001Y-34579000D01*
G75*
G02*
X113984000Y-34828999I0J-249999D01*
G01*
X113984000Y-35529001D01*
G75*
G02*
X113734001Y-35779000I-249999J0D01*
G01*
G37*
G04 #@! TD*
G04 #@! TO.C,R19*
G36*
G01*
X83760000Y-51377001D02*
X83760000Y-50476999D01*
G75*
G02*
X84009999Y-50227000I249999J0D01*
G01*
X84710001Y-50227000D01*
G75*
G02*
X84960000Y-50476999I0J-249999D01*
G01*
X84960000Y-51377001D01*
G75*
G02*
X84710001Y-51627000I-249999J0D01*
G01*
X84009999Y-51627000D01*
G75*
G02*
X83760000Y-51377001I0J249999D01*
G01*
G37*
G36*
G01*
X85760000Y-51377001D02*
X85760000Y-50476999D01*
G75*
G02*
X86009999Y-50227000I249999J0D01*
G01*
X86710001Y-50227000D01*
G75*
G02*
X86960000Y-50476999I0J-249999D01*
G01*
X86960000Y-51377001D01*
G75*
G02*
X86710001Y-51627000I-249999J0D01*
G01*
X86009999Y-51627000D01*
G75*
G02*
X85760000Y-51377001I0J249999D01*
G01*
G37*
G04 #@! TD*
D11*
G04 #@! TO.C,U1*
X97409000Y-42164000D03*
D14*
X99949000Y-42164000D03*
X102489000Y-42164000D03*
G04 #@! TD*
D18*
G04 #@! TO.C,C2*
X39878000Y-71842000D03*
D17*
X39878000Y-69342000D03*
G04 #@! TD*
D14*
G04 #@! TO.C,U1*
X52070000Y-42164000D03*
X49530000Y-42164000D03*
D11*
X46990000Y-42164000D03*
G04 #@! TD*
D14*
G04 #@! TO.C,U2*
X54864000Y-33147000D03*
X52324000Y-33147000D03*
X49784000Y-33147000D03*
D11*
X47244000Y-33147000D03*
G04 #@! TD*
D14*
G04 #@! TO.C,U3*
X37592000Y-65024000D03*
X40132000Y-65024000D03*
X42672000Y-65024000D03*
X45212000Y-65024000D03*
X47752000Y-65024000D03*
X50292000Y-65024000D03*
X52832000Y-65024000D03*
X55372000Y-65024000D03*
X57912000Y-65024000D03*
X60452000Y-65024000D03*
X62992000Y-65024000D03*
X65532000Y-65024000D03*
X68072000Y-65024000D03*
X70612000Y-65024000D03*
X73152000Y-65024000D03*
X73152000Y-39624000D03*
X70612000Y-39624000D03*
X68072000Y-39624000D03*
X65532000Y-39624000D03*
X62992000Y-39624000D03*
X60452000Y-39624000D03*
X57912000Y-39624000D03*
X55372000Y-39624000D03*
X52832000Y-39624000D03*
X50292000Y-39624000D03*
X47752000Y-39624000D03*
X45212000Y-39624000D03*
X42672000Y-39624000D03*
X40132000Y-39624000D03*
D11*
X37592000Y-39624000D03*
G04 #@! TD*
D12*
G04 #@! TO.C,J6*
X31242000Y-45212000D03*
X31242000Y-47752000D03*
X31242000Y-50292000D03*
X31242000Y-52832000D03*
X31242000Y-55372000D03*
D11*
X31242000Y-57912000D03*
G04 #@! TD*
D16*
G04 #@! TO.C,U4*
X34290000Y-72531000D03*
X34290000Y-67931000D03*
X34290000Y-70231000D03*
D15*
X27990000Y-70231000D03*
G04 #@! TD*
D13*
G04 #@! TO.C,TP6*
X53340000Y-47244000D03*
G04 #@! TD*
G04 #@! TO.C,TP5*
X56642000Y-49022000D03*
G04 #@! TD*
G04 #@! TO.C,TP4*
X53340000Y-51816000D03*
G04 #@! TD*
G04 #@! TO.C,TP3*
X56515000Y-53848000D03*
G04 #@! TD*
G04 #@! TO.C,R21*
G36*
G01*
X61410001Y-35779000D02*
X60509999Y-35779000D01*
G75*
G02*
X60260000Y-35529001I0J249999D01*
G01*
X60260000Y-34828999D01*
G75*
G02*
X60509999Y-34579000I249999J0D01*
G01*
X61410001Y-34579000D01*
G75*
G02*
X61660000Y-34828999I0J-249999D01*
G01*
X61660000Y-35529001D01*
G75*
G02*
X61410001Y-35779000I-249999J0D01*
G01*
G37*
G36*
G01*
X61410001Y-37779000D02*
X60509999Y-37779000D01*
G75*
G02*
X60260000Y-37529001I0J249999D01*
G01*
X60260000Y-36828999D01*
G75*
G02*
X60509999Y-36579000I249999J0D01*
G01*
X61410001Y-36579000D01*
G75*
G02*
X61660000Y-36828999I0J-249999D01*
G01*
X61660000Y-37529001D01*
G75*
G02*
X61410001Y-37779000I-249999J0D01*
G01*
G37*
G04 #@! TD*
G04 #@! TO.C,R20*
G36*
G01*
X35325000Y-46805001D02*
X35325000Y-45904999D01*
G75*
G02*
X35574999Y-45655000I249999J0D01*
G01*
X36275001Y-45655000D01*
G75*
G02*
X36525000Y-45904999I0J-249999D01*
G01*
X36525000Y-46805001D01*
G75*
G02*
X36275001Y-47055000I-249999J0D01*
G01*
X35574999Y-47055000D01*
G75*
G02*
X35325000Y-46805001I0J249999D01*
G01*
G37*
G36*
G01*
X33325000Y-46805001D02*
X33325000Y-45904999D01*
G75*
G02*
X33574999Y-45655000I249999J0D01*
G01*
X34275001Y-45655000D01*
G75*
G02*
X34525000Y-45904999I0J-249999D01*
G01*
X34525000Y-46805001D01*
G75*
G02*
X34275001Y-47055000I-249999J0D01*
G01*
X33574999Y-47055000D01*
G75*
G02*
X33325000Y-46805001I0J249999D01*
G01*
G37*
G04 #@! TD*
G04 #@! TO.C,R19*
G36*
G01*
X35341000Y-51377001D02*
X35341000Y-50476999D01*
G75*
G02*
X35590999Y-50227000I249999J0D01*
G01*
X36291001Y-50227000D01*
G75*
G02*
X36541000Y-50476999I0J-249999D01*
G01*
X36541000Y-51377001D01*
G75*
G02*
X36291001Y-51627000I-249999J0D01*
G01*
X35590999Y-51627000D01*
G75*
G02*
X35341000Y-51377001I0J249999D01*
G01*
G37*
G36*
G01*
X33341000Y-51377001D02*
X33341000Y-50476999D01*
G75*
G02*
X33590999Y-50227000I249999J0D01*
G01*
X34291001Y-50227000D01*
G75*
G02*
X34541000Y-50476999I0J-249999D01*
G01*
X34541000Y-51377001D01*
G75*
G02*
X34291001Y-51627000I-249999J0D01*
G01*
X33590999Y-51627000D01*
G75*
G02*
X33341000Y-51377001I0J249999D01*
G01*
G37*
G04 #@! TD*
G04 #@! TO.C,R17*
G36*
G01*
X35341000Y-48837001D02*
X35341000Y-47936999D01*
G75*
G02*
X35590999Y-47687000I249999J0D01*
G01*
X36291001Y-47687000D01*
G75*
G02*
X36541000Y-47936999I0J-249999D01*
G01*
X36541000Y-48837001D01*
G75*
G02*
X36291001Y-49087000I-249999J0D01*
G01*
X35590999Y-49087000D01*
G75*
G02*
X35341000Y-48837001I0J249999D01*
G01*
G37*
G36*
G01*
X33341000Y-48837001D02*
X33341000Y-47936999D01*
G75*
G02*
X33590999Y-47687000I249999J0D01*
G01*
X34291001Y-47687000D01*
G75*
G02*
X34541000Y-47936999I0J-249999D01*
G01*
X34541000Y-48837001D01*
G75*
G02*
X34291001Y-49087000I-249999J0D01*
G01*
X33590999Y-49087000D01*
G75*
G02*
X33341000Y-48837001I0J249999D01*
G01*
G37*
G04 #@! TD*
G04 #@! TO.C,R16*
G36*
G01*
X35341000Y-53282001D02*
X35341000Y-52381999D01*
G75*
G02*
X35590999Y-52132000I249999J0D01*
G01*
X36291001Y-52132000D01*
G75*
G02*
X36541000Y-52381999I0J-249999D01*
G01*
X36541000Y-53282001D01*
G75*
G02*
X36291001Y-53532000I-249999J0D01*
G01*
X35590999Y-53532000D01*
G75*
G02*
X35341000Y-53282001I0J249999D01*
G01*
G37*
G36*
G01*
X33341000Y-53282001D02*
X33341000Y-52381999D01*
G75*
G02*
X33590999Y-52132000I249999J0D01*
G01*
X34291001Y-52132000D01*
G75*
G02*
X34541000Y-52381999I0J-249999D01*
G01*
X34541000Y-53282001D01*
G75*
G02*
X34291001Y-53532000I-249999J0D01*
G01*
X33590999Y-53532000D01*
G75*
G02*
X33341000Y-53282001I0J249999D01*
G01*
G37*
G04 #@! TD*
G04 #@! TO.C,R12*
G36*
G01*
X65497000Y-30537999D02*
X65497000Y-31438001D01*
G75*
G02*
X65247001Y-31688000I-249999J0D01*
G01*
X64546999Y-31688000D01*
G75*
G02*
X64297000Y-31438001I0J249999D01*
G01*
X64297000Y-30537999D01*
G75*
G02*
X64546999Y-30288000I249999J0D01*
G01*
X65247001Y-30288000D01*
G75*
G02*
X65497000Y-30537999I0J-249999D01*
G01*
G37*
G36*
G01*
X67497000Y-30537999D02*
X67497000Y-31438001D01*
G75*
G02*
X67247001Y-31688000I-249999J0D01*
G01*
X66546999Y-31688000D01*
G75*
G02*
X66297000Y-31438001I0J249999D01*
G01*
X66297000Y-30537999D01*
G75*
G02*
X66546999Y-30288000I249999J0D01*
G01*
X67247001Y-30288000D01*
G75*
G02*
X67497000Y-30537999I0J-249999D01*
G01*
G37*
G04 #@! TD*
G04 #@! TO.C,R11*
G36*
G01*
X66297000Y-33470001D02*
X66297000Y-32569999D01*
G75*
G02*
X66546999Y-32320000I249999J0D01*
G01*
X67247001Y-32320000D01*
G75*
G02*
X67497000Y-32569999I0J-249999D01*
G01*
X67497000Y-33470001D01*
G75*
G02*
X67247001Y-33720000I-249999J0D01*
G01*
X66546999Y-33720000D01*
G75*
G02*
X66297000Y-33470001I0J249999D01*
G01*
G37*
G36*
G01*
X64297000Y-33470001D02*
X64297000Y-32569999D01*
G75*
G02*
X64546999Y-32320000I249999J0D01*
G01*
X65247001Y-32320000D01*
G75*
G02*
X65497000Y-32569999I0J-249999D01*
G01*
X65497000Y-33470001D01*
G75*
G02*
X65247001Y-33720000I-249999J0D01*
G01*
X64546999Y-33720000D01*
G75*
G02*
X64297000Y-33470001I0J249999D01*
G01*
G37*
G04 #@! TD*
G04 #@! TO.C,R10*
G36*
G01*
X58417000Y-30537999D02*
X58417000Y-31438001D01*
G75*
G02*
X58167001Y-31688000I-249999J0D01*
G01*
X57466999Y-31688000D01*
G75*
G02*
X57217000Y-31438001I0J249999D01*
G01*
X57217000Y-30537999D01*
G75*
G02*
X57466999Y-30288000I249999J0D01*
G01*
X58167001Y-30288000D01*
G75*
G02*
X58417000Y-30537999I0J-249999D01*
G01*
G37*
G36*
G01*
X60417000Y-30537999D02*
X60417000Y-31438001D01*
G75*
G02*
X60167001Y-31688000I-249999J0D01*
G01*
X59466999Y-31688000D01*
G75*
G02*
X59217000Y-31438001I0J249999D01*
G01*
X59217000Y-30537999D01*
G75*
G02*
X59466999Y-30288000I249999J0D01*
G01*
X60167001Y-30288000D01*
G75*
G02*
X60417000Y-30537999I0J-249999D01*
G01*
G37*
G04 #@! TD*
G04 #@! TO.C,R9*
G36*
G01*
X48368000Y-36760999D02*
X48368000Y-37661001D01*
G75*
G02*
X48118001Y-37911000I-249999J0D01*
G01*
X47417999Y-37911000D01*
G75*
G02*
X47168000Y-37661001I0J249999D01*
G01*
X47168000Y-36760999D01*
G75*
G02*
X47417999Y-36511000I249999J0D01*
G01*
X48118001Y-36511000D01*
G75*
G02*
X48368000Y-36760999I0J-249999D01*
G01*
G37*
G36*
G01*
X50368000Y-36760999D02*
X50368000Y-37661001D01*
G75*
G02*
X50118001Y-37911000I-249999J0D01*
G01*
X49417999Y-37911000D01*
G75*
G02*
X49168000Y-37661001I0J249999D01*
G01*
X49168000Y-36760999D01*
G75*
G02*
X49417999Y-36511000I249999J0D01*
G01*
X50118001Y-36511000D01*
G75*
G02*
X50368000Y-36760999I0J-249999D01*
G01*
G37*
G04 #@! TD*
G04 #@! TO.C,R8*
G36*
G01*
X63315001Y-35779000D02*
X62414999Y-35779000D01*
G75*
G02*
X62165000Y-35529001I0J249999D01*
G01*
X62165000Y-34828999D01*
G75*
G02*
X62414999Y-34579000I249999J0D01*
G01*
X63315001Y-34579000D01*
G75*
G02*
X63565000Y-34828999I0J-249999D01*
G01*
X63565000Y-35529001D01*
G75*
G02*
X63315001Y-35779000I-249999J0D01*
G01*
G37*
G36*
G01*
X63315001Y-37779000D02*
X62414999Y-37779000D01*
G75*
G02*
X62165000Y-37529001I0J249999D01*
G01*
X62165000Y-36828999D01*
G75*
G02*
X62414999Y-36579000I249999J0D01*
G01*
X63315001Y-36579000D01*
G75*
G02*
X63565000Y-36828999I0J-249999D01*
G01*
X63565000Y-37529001D01*
G75*
G02*
X63315001Y-37779000I-249999J0D01*
G01*
G37*
G04 #@! TD*
G04 #@! TO.C,R3*
G36*
G01*
X41725001Y-31461000D02*
X40824999Y-31461000D01*
G75*
G02*
X40575000Y-31211001I0J249999D01*
G01*
X40575000Y-30510999D01*
G75*
G02*
X40824999Y-30261000I249999J0D01*
G01*
X41725001Y-30261000D01*
G75*
G02*
X41975000Y-30510999I0J-249999D01*
G01*
X41975000Y-31211001D01*
G75*
G02*
X41725001Y-31461000I-249999J0D01*
G01*
G37*
G36*
G01*
X41725001Y-33461000D02*
X40824999Y-33461000D01*
G75*
G02*
X40575000Y-33211001I0J249999D01*
G01*
X40575000Y-32510999D01*
G75*
G02*
X40824999Y-32261000I249999J0D01*
G01*
X41725001Y-32261000D01*
G75*
G02*
X41975000Y-32510999I0J-249999D01*
G01*
X41975000Y-33211001D01*
G75*
G02*
X41725001Y-33461000I-249999J0D01*
G01*
G37*
G04 #@! TD*
D12*
G04 #@! TO.C,J5*
X70104000Y-57150000D03*
X70104000Y-54610000D03*
X70104000Y-52070000D03*
X70104000Y-49530000D03*
D11*
X70104000Y-46990000D03*
G04 #@! TD*
D12*
G04 #@! TO.C,J4*
X56896000Y-73152000D03*
X54356000Y-73152000D03*
X51816000Y-73152000D03*
X49276000Y-73152000D03*
D11*
X46736000Y-73152000D03*
G04 #@! TD*
D12*
G04 #@! TO.C,J3*
X27178000Y-61722000D03*
X27178000Y-59182000D03*
X27178000Y-56642000D03*
X27178000Y-54102000D03*
D11*
X27178000Y-51562000D03*
G04 #@! TD*
D12*
G04 #@! TO.C,J2*
X73152000Y-34798000D03*
X73152000Y-32258000D03*
X73152000Y-29718000D03*
D11*
X73152000Y-27178000D03*
G04 #@! TD*
D12*
G04 #@! TO.C,J1*
X27178000Y-37592000D03*
X27178000Y-40132000D03*
X27178000Y-42672000D03*
D11*
X27178000Y-45212000D03*
G04 #@! TD*
D19*
G04 #@! TO.C,H2*
X71628000Y-71628000D03*
G04 #@! TD*
G04 #@! TO.C,H1*
X28575000Y-28575000D03*
G04 #@! TD*
G04 #@! TO.C,D1*
G36*
G01*
X34847000Y-27489999D02*
X34847000Y-28390001D01*
G75*
G02*
X34597001Y-28640000I-249999J0D01*
G01*
X33946999Y-28640000D01*
G75*
G02*
X33697000Y-28390001I0J249999D01*
G01*
X33697000Y-27489999D01*
G75*
G02*
X33946999Y-27240000I249999J0D01*
G01*
X34597001Y-27240000D01*
G75*
G02*
X34847000Y-27489999I0J-249999D01*
G01*
G37*
G36*
G01*
X36897000Y-27489999D02*
X36897000Y-28390001D01*
G75*
G02*
X36647001Y-28640000I-249999J0D01*
G01*
X35996999Y-28640000D01*
G75*
G02*
X35747000Y-28390001I0J249999D01*
G01*
X35747000Y-27489999D01*
G75*
G02*
X35996999Y-27240000I249999J0D01*
G01*
X36647001Y-27240000D01*
G75*
G02*
X36897000Y-27489999I0J-249999D01*
G01*
G37*
G04 #@! TD*
G04 #@! TO.C,C4*
G36*
G01*
X59201000Y-33470001D02*
X59201000Y-32569999D01*
G75*
G02*
X59450999Y-32320000I249999J0D01*
G01*
X60151001Y-32320000D01*
G75*
G02*
X60401000Y-32569999I0J-249999D01*
G01*
X60401000Y-33470001D01*
G75*
G02*
X60151001Y-33720000I-249999J0D01*
G01*
X59450999Y-33720000D01*
G75*
G02*
X59201000Y-33470001I0J249999D01*
G01*
G37*
G36*
G01*
X57201000Y-33470001D02*
X57201000Y-32569999D01*
G75*
G02*
X57450999Y-32320000I249999J0D01*
G01*
X58151001Y-32320000D01*
G75*
G02*
X58401000Y-32569999I0J-249999D01*
G01*
X58401000Y-33470001D01*
G75*
G02*
X58151001Y-33720000I-249999J0D01*
G01*
X57450999Y-33720000D01*
G75*
G02*
X57201000Y-33470001I0J249999D01*
G01*
G37*
G04 #@! TD*
G04 #@! TO.C,C3*
G36*
G01*
X44900001Y-49368000D02*
X43999999Y-49368000D01*
G75*
G02*
X43750000Y-49118001I0J249999D01*
G01*
X43750000Y-48417999D01*
G75*
G02*
X43999999Y-48168000I249999J0D01*
G01*
X44900001Y-48168000D01*
G75*
G02*
X45150000Y-48417999I0J-249999D01*
G01*
X45150000Y-49118001D01*
G75*
G02*
X44900001Y-49368000I-249999J0D01*
G01*
G37*
G36*
G01*
X44900001Y-51368000D02*
X43999999Y-51368000D01*
G75*
G02*
X43750000Y-51118001I0J249999D01*
G01*
X43750000Y-50417999D01*
G75*
G02*
X43999999Y-50168000I249999J0D01*
G01*
X44900001Y-50168000D01*
G75*
G02*
X45150000Y-50417999I0J-249999D01*
G01*
X45150000Y-51118001D01*
G75*
G02*
X44900001Y-51368000I-249999J0D01*
G01*
G37*
G04 #@! TD*
G04 #@! TO.C,C1*
G36*
G01*
X34636000Y-64573999D02*
X34636000Y-65474001D01*
G75*
G02*
X34386001Y-65724000I-249999J0D01*
G01*
X33685999Y-65724000D01*
G75*
G02*
X33436000Y-65474001I0J249999D01*
G01*
X33436000Y-64573999D01*
G75*
G02*
X33685999Y-64324000I249999J0D01*
G01*
X34386001Y-64324000D01*
G75*
G02*
X34636000Y-64573999I0J-249999D01*
G01*
G37*
G36*
G01*
X32636000Y-64573999D02*
X32636000Y-65474001D01*
G75*
G02*
X32386001Y-65724000I-249999J0D01*
G01*
X31685999Y-65724000D01*
G75*
G02*
X31436000Y-65474001I0J249999D01*
G01*
X31436000Y-64573999D01*
G75*
G02*
X31685999Y-64324000I249999J0D01*
G01*
X32386001Y-64324000D01*
G75*
G02*
X32636000Y-64573999I0J-249999D01*
G01*
G37*
G04 #@! TD*
M02*
