M48
;DRILL file {KiCad 6.0.0-rc1-unknown-r13609-32d262b0} date Tue Aug 28 00:12:25 2018
;FORMAT={3:3/ absolute / metric / suppress leading zeros}
FMAT,2
METRIC,TZ
T1C0.400
T2C0.550
T3C0.600
T4C0.762
T5C0.800
T6C1.000
T7C3.200
T8C4.000
T9C0.600
T10C0.900
%
G90
G05
M71
T1
X61976Y-39878
X61976Y-76327
X64008Y-46355
X64008Y-82804
X65024Y-126365
X65913Y-59055
X65913Y-95504
X66032Y-55606
X66032Y-92055
X67564Y-36449
X67564Y-72898
X67710Y-126365
X69723Y-62357
X69723Y-98806
X69977Y-56134
X69977Y-92583
X69995Y-42799
X69995Y-79248
X71120Y-110617
X71120Y-113030
X71120Y-115443
X72136Y-42799
X72136Y-46101
X72136Y-49022
X72136Y-79248
X72136Y-82550
X72136Y-85471
X72390Y-110617
X72390Y-113030
X72390Y-115443
X72644Y-66421
X72644Y-102870
X73152Y-49530
X73152Y-51943
X73152Y-85979
X73152Y-88392
X74041Y-42291
X74041Y-56134
X74041Y-78740
X74041Y-92583
X74159Y-50038
X74159Y-86487
X76073Y-56134
X76073Y-92583
X79375Y-53848
X79375Y-61341
X79375Y-90297
X79375Y-97790
X80645Y-126365
X83331Y-126365
X85852Y-54102
X85852Y-90551
X86741Y-110617
X86741Y-113030
X86741Y-115443
X87630Y-55245
X87630Y-91694
X87884Y-49403
X87884Y-85852
X88011Y-110617
X88011Y-113030
X88011Y-115443
X89027Y-64643
X89027Y-101092
X89568Y-56134
X89568Y-92583
X90678Y-59563
X90678Y-96012
X90932Y-52832
X90932Y-89281
X91820Y-59074
X91820Y-95523
X92583Y-55010
X92583Y-91459
X93726Y-56134
X93726Y-92583
X93853Y-57766
X93853Y-60706
X93853Y-94215
X93853Y-97155
X95250Y-38735
X95250Y-41021
X95250Y-57785
X95250Y-75184
X95250Y-77470
X95250Y-94234
X95885Y-39878
X95885Y-56261
X95885Y-76327
X95885Y-92710
X96012Y-63500
X96012Y-99949
X96139Y-60960
X96139Y-97409
X96393Y-126365
X96520Y-38735
X96520Y-41021
X96520Y-75184
X96520Y-77470
X96774Y-42926
X96774Y-79375
X97155Y-39878
X97155Y-76327
X97400Y-63801
X97400Y-100250
X97790Y-38735
X97790Y-41021
X97790Y-75184
X97790Y-77470
X97917Y-36601
X97917Y-42901
X97917Y-73050
X97917Y-79350
X98425Y-39878
X98425Y-53321
X98425Y-76327
X98425Y-89770
X98489Y-57404
X98489Y-93853
X99038Y-42926
X99038Y-79375
X99060Y-38735
X99060Y-41021
X99060Y-75184
X99060Y-77470
X99079Y-126365
X99441Y-53467
X99441Y-57404
X99441Y-89916
X99441Y-93853
X99695Y-39878
X99695Y-76327
X100330Y-38735
X100330Y-41021
X100330Y-75184
X100330Y-77470
X102489Y-110617
X102489Y-113030
X102489Y-115443
X103759Y-110617
X103759Y-113030
X103759Y-115443
X112141Y-126365
X114827Y-126365
X118237Y-110617
X118237Y-113030
X118237Y-115443
X118364Y-62484
X118364Y-64770
X118364Y-98933
X118364Y-101219
X118999Y-63627
X118999Y-100076
X119253Y-50038
X119253Y-86487
X119253Y-46101
X119253Y-82550
X119507Y-110617
X119507Y-113030
X119507Y-115443
X119634Y-62484
X119634Y-64770
X119634Y-98933
X119634Y-101219
X119656Y-60579
X119656Y-97028
X120205Y-46101
X120205Y-82550
X120269Y-50184
X120269Y-86633
X120269Y-63627
X120269Y-100076
X120777Y-60604
X120777Y-66904
X120777Y-97053
X120777Y-103353
X120904Y-64770
X120904Y-101219
X120904Y-62484
X120904Y-98933
X121294Y-39704
X121294Y-76153
X121539Y-63627
X121539Y-100076
X121920Y-60579
X121920Y-97028
X122174Y-62484
X122174Y-64770
X122174Y-98933
X122174Y-101219
X122555Y-42545
X122555Y-78994
X122682Y-40005
X122682Y-76454
X122809Y-47244
X122809Y-63627
X122809Y-83693
X122809Y-100076
X123444Y-45720
X123444Y-82169
X123444Y-62484
X123444Y-64770
X123444Y-98933
X123444Y-101219
X124841Y-42799
X124841Y-45739
X124841Y-79248
X124841Y-82188
X124968Y-47371
X124968Y-83820
X126111Y-48495
X126111Y-84944
X126874Y-44431
X126874Y-80880
X127762Y-50673
X127762Y-87122
X127889Y-126365
X128016Y-43942
X128016Y-80391
X129126Y-47371
X129126Y-83820
X129667Y-38862
X129667Y-75311
X130575Y-126365
X130810Y-54102
X130810Y-90551
X131064Y-48260
X131064Y-84709
X132842Y-49403
X132842Y-85852
X133985Y-110617
X133985Y-113030
X133985Y-115443
X135255Y-110617
X135255Y-113030
X135255Y-115443
X139319Y-42164
X139319Y-49657
X139319Y-78613
X139319Y-86106
X142621Y-47371
X142621Y-83820
X143637Y-126365
X144535Y-53467
X144535Y-89916
X144653Y-47371
X144653Y-83820
X144653Y-61214
X144653Y-97663
X145542Y-51562
X145542Y-53975
X145542Y-88011
X145542Y-90424
X146050Y-37084
X146050Y-73533
X146323Y-126365
X146558Y-54483
X146558Y-57404
X146558Y-60706
X146558Y-90932
X146558Y-93853
X146558Y-97155
X148699Y-60706
X148699Y-97155
X148717Y-47371
X148717Y-83820
X148971Y-41148
X148971Y-77597
X149733Y-110617
X149733Y-113030
X149733Y-115443
X151003Y-110617
X151003Y-113030
X151003Y-115443
X151130Y-67056
X151130Y-103505
X152662Y-47899
X152662Y-84348
X152781Y-44450
X152781Y-80899
X154686Y-57150
X154686Y-93599
X156718Y-63627
X156718Y-100076
T3
X60706Y-111760
X60706Y-113411
X60706Y-115189
X60706Y-117094
X60706Y-119253
X60706Y-122555
X61468Y-110490
X61849Y-112649
X61849Y-114300
X61849Y-116078
X62738Y-118237
X62738Y-123571
X63627Y-34671
X63627Y-71120
X64770Y-119253
X64770Y-122555
X65405Y-120904
X66040Y-42545
X66040Y-78994
X66294Y-110617
X66675Y-68580
X66675Y-105029
X67945Y-47244
X67945Y-83693
X68199Y-110617
X68199Y-114427
X68199Y-117729
X68707Y-119888
X68961Y-122301
X70104Y-118491
X70231Y-123444
X71628Y-34671
X71628Y-71120
X72136Y-123444
X72136Y-125603
X72263Y-118491
X73533Y-119634
X73533Y-122174
X74549Y-68580
X74549Y-105029
X75057Y-49149
X75057Y-85598
X76327Y-115189
X76327Y-119253
X76327Y-111760
X76327Y-113411
X76327Y-117094
X76327Y-122555
X77089Y-110490
X77470Y-112649
X77470Y-114300
X77470Y-116078
X77724Y-59690
X77724Y-96139
X78359Y-123571
X78359Y-118237
X80391Y-119253
X80391Y-122555
X81026Y-120904
X81915Y-110617
X83058Y-48260
X83058Y-50546
X83058Y-84709
X83058Y-86995
X83820Y-110617
X83820Y-114427
X83820Y-117729
X84328Y-119888
X84582Y-122301
X85725Y-118491
X85852Y-123444
X87757Y-123444
X87757Y-47371
X87757Y-83820
X87757Y-125603
X87884Y-118491
X89154Y-119634
X89154Y-122174
X92075Y-115189
X92075Y-119253
X92075Y-111760
X92075Y-113411
X92075Y-117094
X92075Y-122555
X92837Y-110490
X93218Y-112649
X93218Y-114300
X93218Y-116078
X93853Y-51562
X93853Y-88011
X94107Y-123571
X94107Y-118237
X96139Y-119253
X96139Y-122555
X96774Y-120904
X97663Y-110617
X99568Y-110617
X99568Y-114427
X99568Y-117729
X99822Y-65786
X99822Y-102235
X100076Y-119888
X100330Y-122301
X101473Y-118491
X101600Y-123444
X103505Y-123444
X103505Y-125603
X103632Y-118491
X104902Y-119634
X104902Y-122174
X107823Y-115189
X107823Y-119253
X107823Y-111760
X107823Y-113411
X107823Y-117094
X107823Y-122555
X108585Y-110490
X108966Y-112649
X108966Y-114300
X108966Y-116078
X109855Y-123571
X109855Y-118237
X111887Y-119253
X111887Y-122555
X112522Y-120904
X113411Y-110617
X115316Y-110617
X115316Y-114427
X115316Y-117729
X115824Y-119888
X116078Y-122301
X117221Y-118491
X117348Y-123444
X118872Y-37719
X118872Y-74168
X119253Y-123444
X119253Y-125603
X119380Y-118491
X120650Y-119634
X120650Y-122174
X123571Y-115189
X123571Y-119253
X123571Y-111760
X123571Y-113411
X123571Y-117094
X123571Y-122555
X124333Y-110490
X124714Y-112649
X124714Y-114300
X124714Y-116078
X124841Y-51943
X124841Y-88392
X125603Y-123571
X125603Y-118237
X127635Y-119253
X127635Y-122555
X128270Y-120904
X129159Y-110617
X130937Y-56134
X130937Y-92583
X131064Y-110617
X131064Y-114427
X131064Y-117729
X131572Y-119888
X131826Y-122301
X132969Y-118491
X133096Y-123444
X135001Y-123444
X135001Y-125603
X135128Y-118491
X135636Y-52959
X135636Y-55245
X135636Y-89408
X135636Y-91694
X136398Y-119634
X136398Y-122174
X139319Y-115189
X139319Y-119253
X139319Y-111760
X139319Y-113411
X139319Y-117094
X139319Y-122555
X140081Y-110490
X140462Y-112649
X140462Y-114300
X140462Y-116078
X140970Y-43815
X140970Y-80264
X141351Y-123571
X141351Y-118237
X143383Y-119253
X143383Y-122555
X143637Y-54356
X143637Y-90805
X144018Y-120904
X144145Y-34925
X144145Y-71374
X144907Y-110617
X146812Y-110617
X146812Y-114427
X146812Y-117729
X147066Y-68834
X147066Y-105283
X147320Y-119888
X147574Y-122301
X148717Y-118491
X148844Y-123444
X150749Y-123444
X150749Y-56261
X150749Y-92710
X150749Y-125603
X150876Y-118491
X152019Y-34925
X152019Y-71374
X152146Y-119634
X152146Y-122174
X152654Y-60960
X152654Y-97409
X155067Y-68834
X155067Y-105283
T4
X135255Y-71628
X137795Y-74168
X140335Y-71628
X135255Y-35179
X137795Y-37719
X140335Y-35179
X78359Y-68326
X80899Y-65786
X83439Y-68326
X78359Y-104775
X80899Y-102235
X83439Y-104775
T5
X134620Y-57785
X137120Y-57785
X81574Y-82169
X84074Y-82169
X81574Y-45720
X84074Y-45720
X134620Y-94234
X137120Y-94234
T6
X111252Y-50927
X142748Y-67310
X104394Y-80264
X103124Y-93853
X103124Y-96393
X103124Y-98933
X103124Y-101473
X103124Y-104013
X140589Y-129413
X143129Y-129413
X145669Y-129413
X148209Y-129413
X150749Y-129413
X114300Y-59690
X75946Y-72644
X61341Y-35433
X95250Y-67056
X114300Y-96139
X88900Y-66802
X91440Y-66802
X142748Y-103759
X107061Y-57404
X107061Y-59944
X107061Y-62484
X107061Y-65024
X107061Y-67564
X93345Y-129413
X95885Y-129413
X98425Y-129413
X100965Y-129413
X103505Y-129413
X111633Y-72390
X111633Y-74930
X111633Y-77470
X111633Y-80010
X111633Y-82550
X77597Y-129413
X80137Y-129413
X82677Y-129413
X85217Y-129413
X87757Y-129413
X127000Y-56642
X127000Y-59182
X145161Y-80518
X147701Y-80518
X150241Y-80518
X111633Y-35941
X111633Y-38481
X111633Y-41021
X111633Y-43561
X111633Y-46101
X61341Y-71882
X145161Y-44069
X147701Y-44069
X150241Y-44069
X127254Y-36703
X129794Y-36703
X157353Y-104521
X85217Y-56134
X92202Y-77089
X107442Y-89027
X133477Y-47371
X104394Y-43815
X107061Y-93853
X107061Y-96393
X107061Y-98933
X107061Y-101473
X107061Y-104013
X103124Y-57404
X103124Y-59944
X103124Y-62484
X103124Y-65024
X103124Y-67564
X111252Y-87376
X123444Y-72898
X91694Y-80772
X91694Y-83312
X126492Y-99314
X126492Y-62865
X61976Y-129413
X64516Y-129413
X67056Y-129413
X69596Y-129413
X72136Y-129413
X85217Y-92583
X115570Y-72390
X115570Y-74930
X115570Y-77470
X115570Y-80010
X115570Y-82550
X115570Y-35941
X115570Y-38481
X115570Y-41021
X115570Y-43561
X115570Y-46101
X133477Y-83820
X123444Y-36449
X92202Y-40640
X95250Y-103505
X88900Y-103251
X91440Y-103251
X68453Y-59436
X70993Y-59436
X73533Y-59436
X68453Y-95885
X70993Y-95885
X73533Y-95885
X109093Y-129413
X111633Y-129413
X114173Y-129413
X116713Y-129413
X119253Y-129413
X107442Y-52578
X124841Y-129413
X127381Y-129413
X129921Y-129413
X132461Y-129413
X135001Y-129413
X157353Y-68072
X127254Y-73152
X129794Y-73152
X127000Y-93091
X127000Y-95631
X75946Y-36195
X91694Y-44323
X91694Y-46863
T7
X155702Y-73533
X112903Y-102743
X155702Y-37084
X62992Y-66421
X112903Y-66294
X62992Y-102870
X105791Y-37211
X105791Y-73660
T8
X78359Y-120904
X86868Y-120904
X149860Y-120904
X109855Y-120904
X118364Y-120904
X102616Y-120904
X125603Y-120904
X71247Y-120904
X62738Y-120904
X141351Y-120904
X134112Y-120904
X94107Y-120904
T9
X82963Y-38336
X86963Y-38336
X131731Y-101618
X135731Y-101618
X131731Y-65169
X135731Y-65169
X82963Y-74785
X86963Y-74785
T10
X66414Y-71785
X68714Y-71785
X146991Y-35395
X149291Y-35395
X66414Y-35336
X68714Y-35336
X69403Y-68110
X71703Y-68110
X69403Y-104559
X71703Y-104559
X149980Y-68169
X152280Y-68169
X146991Y-71844
X149291Y-71844
X149980Y-104618
X152280Y-104618
T2
X130131Y-99973G85X130131Y-100623
G05
X130131Y-103443G85X130131Y-104093
G05
X137331Y-99973G85X137331Y-100623
G05
X137331Y-103443G85X137331Y-104093
G05
X130131Y-63524G85X130131Y-64174
G05
X130131Y-66994G85X130131Y-67644
G05
X137331Y-63524G85X137331Y-64174
G05
X137331Y-66994G85X137331Y-67644
G05
X81363Y-72960G85X81363Y-72310
G05
X81363Y-76430G85X81363Y-75780
G05
X88563Y-72960G85X88563Y-72310
G05
X88563Y-76430G85X88563Y-75780
G05
X81363Y-36511G85X81363Y-35861
G05
X81363Y-39981G85X81363Y-39331
G05
X88563Y-36511G85X88563Y-35861
G05
X88563Y-39981G85X88563Y-39331
G05
T0
M30
