G04 #@! TF.GenerationSoftware,KiCad,Pcbnew,5.1.8-1.fc31*
G04 #@! TF.CreationDate,2021-06-10T12:46:03+02:00*
G04 #@! TF.ProjectId,LoRaWANV2_panelized,4c6f5261-5741-44e5-9632-5f70616e656c,rev?*
G04 #@! TF.SameCoordinates,Original*
G04 #@! TF.FileFunction,Soldermask,Top*
G04 #@! TF.FilePolarity,Negative*
%FSLAX46Y46*%
G04 Gerber Fmt 4.6, Leading zero omitted, Abs format (unit mm)*
G04 Created by KiCad (PCBNEW 5.1.8-1.fc31) date 2021-06-10 12:46:03*
%MOMM*%
%LPD*%
G01*
G04 APERTURE LIST*
%ADD10C,0.100000*%
%ADD11C,1.626000*%
%ADD12O,1.802000X1.802000*%
%ADD13C,1.802000*%
%ADD14C,6.502000*%
%ADD15C,1.702000*%
G04 APERTURE END LIST*
D10*
G36*
X48895000Y-87376000D02*
G01*
X42799000Y-87376000D01*
X42799000Y-80645000D01*
X48895000Y-80645000D01*
X48895000Y-87376000D01*
G37*
X48895000Y-87376000D02*
X42799000Y-87376000D01*
X42799000Y-80645000D01*
X48895000Y-80645000D01*
X48895000Y-87376000D01*
G36*
X133350000Y-87376000D02*
G01*
X124968000Y-87376000D01*
X124968000Y-80645000D01*
X133350000Y-80645000D01*
X133350000Y-87376000D01*
G37*
X133350000Y-87376000D02*
X124968000Y-87376000D01*
X124968000Y-80645000D01*
X133350000Y-80645000D01*
X133350000Y-87376000D01*
G36*
X133350000Y-95504000D02*
G01*
X127254000Y-95504000D01*
X127254000Y-88773000D01*
X133350000Y-88773000D01*
X133350000Y-95504000D01*
G37*
X133350000Y-95504000D02*
X127254000Y-95504000D01*
X127254000Y-88773000D01*
X133350000Y-88773000D01*
X133350000Y-95504000D01*
G36*
X51181000Y-95504000D02*
G01*
X42799000Y-95504000D01*
X42799000Y-88773000D01*
X51181000Y-88773000D01*
X51181000Y-95504000D01*
G37*
X51181000Y-95504000D02*
X42799000Y-95504000D01*
X42799000Y-88773000D01*
X51181000Y-88773000D01*
X51181000Y-95504000D01*
G36*
X48895000Y-87376000D02*
G01*
X42799000Y-87376000D01*
X42799000Y-80645000D01*
X48895000Y-80645000D01*
X48895000Y-87376000D01*
G37*
X48895000Y-87376000D02*
X42799000Y-87376000D01*
X42799000Y-80645000D01*
X48895000Y-80645000D01*
X48895000Y-87376000D01*
G36*
X133350000Y-87376000D02*
G01*
X124968000Y-87376000D01*
X124968000Y-80645000D01*
X133350000Y-80645000D01*
X133350000Y-87376000D01*
G37*
X133350000Y-87376000D02*
X124968000Y-87376000D01*
X124968000Y-80645000D01*
X133350000Y-80645000D01*
X133350000Y-87376000D01*
G36*
X133350000Y-95504000D02*
G01*
X127254000Y-95504000D01*
X127254000Y-88773000D01*
X133350000Y-88773000D01*
X133350000Y-95504000D01*
G37*
X133350000Y-95504000D02*
X127254000Y-95504000D01*
X127254000Y-88773000D01*
X133350000Y-88773000D01*
X133350000Y-95504000D01*
G36*
X51181000Y-95504000D02*
G01*
X42799000Y-95504000D01*
X42799000Y-88773000D01*
X51181000Y-88773000D01*
X51181000Y-95504000D01*
G37*
X51181000Y-95504000D02*
X42799000Y-95504000D01*
X42799000Y-88773000D01*
X51181000Y-88773000D01*
X51181000Y-95504000D01*
G04 #@! TO.C,C4*
G36*
G01*
X78609298Y-82024000D02*
X77600702Y-82024000D01*
G75*
G02*
X77329000Y-81752298I0J271702D01*
G01*
X77329000Y-81018702D01*
G75*
G02*
X77600702Y-80747000I271702J0D01*
G01*
X78609298Y-80747000D01*
G75*
G02*
X78881000Y-81018702I0J-271702D01*
G01*
X78881000Y-81752298D01*
G75*
G02*
X78609298Y-82024000I-271702J0D01*
G01*
G37*
G36*
G01*
X78609298Y-84099000D02*
X77600702Y-84099000D01*
G75*
G02*
X77329000Y-83827298I0J271702D01*
G01*
X77329000Y-83093702D01*
G75*
G02*
X77600702Y-82822000I271702J0D01*
G01*
X78609298Y-82822000D01*
G75*
G02*
X78881000Y-83093702I0J-271702D01*
G01*
X78881000Y-83827298D01*
G75*
G02*
X78609298Y-84099000I-271702J0D01*
G01*
G37*
G04 #@! TD*
G04 #@! TO.C,IR1*
G36*
G01*
X86988500Y-56439000D02*
X83699500Y-56439000D01*
G75*
G02*
X83293000Y-56032500I0J406500D01*
G01*
X83293000Y-55219500D01*
G75*
G02*
X83699500Y-54813000I406500J0D01*
G01*
X86988500Y-54813000D01*
G75*
G02*
X87395000Y-55219500I0J-406500D01*
G01*
X87395000Y-56032500D01*
G75*
G02*
X86988500Y-56439000I-406500J0D01*
G01*
G37*
D11*
X86614000Y-58166000D03*
X84074000Y-55626000D03*
X86614000Y-53086000D03*
G04 #@! TD*
D12*
G04 #@! TO.C,J4*
X56134000Y-39751000D03*
X53594000Y-39751000D03*
X51054000Y-39751000D03*
G36*
G01*
X49364000Y-40652000D02*
X47664000Y-40652000D01*
G75*
G02*
X47613000Y-40601000I0J51000D01*
G01*
X47613000Y-38901000D01*
G75*
G02*
X47664000Y-38850000I51000J0D01*
G01*
X49364000Y-38850000D01*
G75*
G02*
X49415000Y-38901000I0J-51000D01*
G01*
X49415000Y-40601000D01*
G75*
G02*
X49364000Y-40652000I-51000J0D01*
G01*
G37*
G04 #@! TD*
G04 #@! TO.C,U3*
G36*
G01*
X51166000Y-85497000D02*
X51166000Y-86997000D01*
G75*
G02*
X51115000Y-87048000I-51000J0D01*
G01*
X49115000Y-87048000D01*
G75*
G02*
X49064000Y-86997000I0J51000D01*
G01*
X49064000Y-85497000D01*
G75*
G02*
X49115000Y-85446000I51000J0D01*
G01*
X51115000Y-85446000D01*
G75*
G02*
X51166000Y-85497000I0J-51000D01*
G01*
G37*
G36*
G01*
X51166000Y-80897000D02*
X51166000Y-82397000D01*
G75*
G02*
X51115000Y-82448000I-51000J0D01*
G01*
X49115000Y-82448000D01*
G75*
G02*
X49064000Y-82397000I0J51000D01*
G01*
X49064000Y-80897000D01*
G75*
G02*
X49115000Y-80846000I51000J0D01*
G01*
X51115000Y-80846000D01*
G75*
G02*
X51166000Y-80897000I0J-51000D01*
G01*
G37*
G36*
G01*
X51166000Y-83197000D02*
X51166000Y-84697000D01*
G75*
G02*
X51115000Y-84748000I-51000J0D01*
G01*
X49115000Y-84748000D01*
G75*
G02*
X49064000Y-84697000I0J51000D01*
G01*
X49064000Y-83197000D01*
G75*
G02*
X49115000Y-83146000I51000J0D01*
G01*
X51115000Y-83146000D01*
G75*
G02*
X51166000Y-83197000I0J-51000D01*
G01*
G37*
G36*
G01*
X44866000Y-82047000D02*
X44866000Y-85847000D01*
G75*
G02*
X44815000Y-85898000I-51000J0D01*
G01*
X42815000Y-85898000D01*
G75*
G02*
X42764000Y-85847000I0J51000D01*
G01*
X42764000Y-82047000D01*
G75*
G02*
X42815000Y-81996000I51000J0D01*
G01*
X44815000Y-81996000D01*
G75*
G02*
X44866000Y-82047000I0J-51000D01*
G01*
G37*
G04 #@! TD*
D13*
G04 #@! TO.C,U4*
X73914000Y-52832000D03*
X71374000Y-52832000D03*
X68834000Y-52832000D03*
X66294000Y-52832000D03*
X61214000Y-52832000D03*
X63754000Y-52832000D03*
X58674000Y-52832000D03*
X56134000Y-52832000D03*
X51054000Y-52832000D03*
X53594000Y-52832000D03*
G36*
G01*
X47664000Y-51931000D02*
X49364000Y-51931000D01*
G75*
G02*
X49415000Y-51982000I0J-51000D01*
G01*
X49415000Y-53682000D01*
G75*
G02*
X49364000Y-53733000I-51000J0D01*
G01*
X47664000Y-53733000D01*
G75*
G02*
X47613000Y-53682000I0J51000D01*
G01*
X47613000Y-51982000D01*
G75*
G02*
X47664000Y-51931000I51000J0D01*
G01*
G37*
G36*
G01*
X47664000Y-72251000D02*
X49364000Y-72251000D01*
G75*
G02*
X49415000Y-72302000I0J-51000D01*
G01*
X49415000Y-74002000D01*
G75*
G02*
X49364000Y-74053000I-51000J0D01*
G01*
X47664000Y-74053000D01*
G75*
G02*
X47613000Y-74002000I0J51000D01*
G01*
X47613000Y-72302000D01*
G75*
G02*
X47664000Y-72251000I51000J0D01*
G01*
G37*
X51054000Y-73152000D03*
X53594000Y-73152000D03*
X56134000Y-73152000D03*
X58674000Y-73152000D03*
X61214000Y-73152000D03*
X63754000Y-73152000D03*
X66294000Y-73152000D03*
X68834000Y-73152000D03*
X71374000Y-73152000D03*
X73914000Y-73152000D03*
G04 #@! TD*
G04 #@! TO.C,R8*
G36*
G01*
X67038000Y-58322172D02*
X67038000Y-59279828D01*
G75*
G02*
X66765828Y-59552000I-272172J0D01*
G01*
X66058172Y-59552000D01*
G75*
G02*
X65786000Y-59279828I0J272172D01*
G01*
X65786000Y-58322172D01*
G75*
G02*
X66058172Y-58050000I272172J0D01*
G01*
X66765828Y-58050000D01*
G75*
G02*
X67038000Y-58322172I0J-272172D01*
G01*
G37*
G36*
G01*
X69088000Y-58322172D02*
X69088000Y-59279828D01*
G75*
G02*
X68815828Y-59552000I-272172J0D01*
G01*
X68108172Y-59552000D01*
G75*
G02*
X67836000Y-59279828I0J272172D01*
G01*
X67836000Y-58322172D01*
G75*
G02*
X68108172Y-58050000I272172J0D01*
G01*
X68815828Y-58050000D01*
G75*
G02*
X69088000Y-58322172I0J-272172D01*
G01*
G37*
G04 #@! TD*
G04 #@! TO.C,R7*
G36*
G01*
X67047000Y-60227172D02*
X67047000Y-61184828D01*
G75*
G02*
X66774828Y-61457000I-272172J0D01*
G01*
X66067172Y-61457000D01*
G75*
G02*
X65795000Y-61184828I0J272172D01*
G01*
X65795000Y-60227172D01*
G75*
G02*
X66067172Y-59955000I272172J0D01*
G01*
X66774828Y-59955000D01*
G75*
G02*
X67047000Y-60227172I0J-272172D01*
G01*
G37*
G36*
G01*
X69097000Y-60227172D02*
X69097000Y-61184828D01*
G75*
G02*
X68824828Y-61457000I-272172J0D01*
G01*
X68117172Y-61457000D01*
G75*
G02*
X67845000Y-61184828I0J272172D01*
G01*
X67845000Y-60227172D01*
G75*
G02*
X68117172Y-59955000I272172J0D01*
G01*
X68824828Y-59955000D01*
G75*
G02*
X69097000Y-60227172I0J-272172D01*
G01*
G37*
G04 #@! TD*
D12*
G04 #@! TO.C,J7*
X85979000Y-76200000D03*
X85979000Y-73660000D03*
X85979000Y-71120000D03*
X85979000Y-68580000D03*
G36*
G01*
X85078000Y-66890000D02*
X85078000Y-65190000D01*
G75*
G02*
X85129000Y-65139000I51000J0D01*
G01*
X86829000Y-65139000D01*
G75*
G02*
X86880000Y-65190000I0J-51000D01*
G01*
X86880000Y-66890000D01*
G75*
G02*
X86829000Y-66941000I-51000J0D01*
G01*
X85129000Y-66941000D01*
G75*
G02*
X85078000Y-66890000I0J51000D01*
G01*
G37*
G04 #@! TD*
G04 #@! TO.C,J6*
X39751000Y-83439000D03*
X39751000Y-80899000D03*
X39751000Y-78359000D03*
X39751000Y-75819000D03*
G36*
G01*
X38850000Y-74129000D02*
X38850000Y-72429000D01*
G75*
G02*
X38901000Y-72378000I51000J0D01*
G01*
X40601000Y-72378000D01*
G75*
G02*
X40652000Y-72429000I0J-51000D01*
G01*
X40652000Y-74129000D01*
G75*
G02*
X40601000Y-74180000I-51000J0D01*
G01*
X38901000Y-74180000D01*
G75*
G02*
X38850000Y-74129000I0J51000D01*
G01*
G37*
G04 #@! TD*
D13*
G04 #@! TO.C,U1*
X66675000Y-47117000D03*
X64135000Y-47117000D03*
X61595000Y-47117000D03*
G36*
G01*
X58154000Y-47967000D02*
X58154000Y-46267000D01*
G75*
G02*
X58205000Y-46216000I51000J0D01*
G01*
X59905000Y-46216000D01*
G75*
G02*
X59956000Y-46267000I0J-51000D01*
G01*
X59956000Y-47967000D01*
G75*
G02*
X59905000Y-48018000I-51000J0D01*
G01*
X58205000Y-48018000D01*
G75*
G02*
X58154000Y-47967000I0J51000D01*
G01*
G37*
G04 #@! TD*
G04 #@! TO.C,R6*
G36*
G01*
X71852828Y-69714000D02*
X70895172Y-69714000D01*
G75*
G02*
X70623000Y-69441828I0J272172D01*
G01*
X70623000Y-68734172D01*
G75*
G02*
X70895172Y-68462000I272172J0D01*
G01*
X71852828Y-68462000D01*
G75*
G02*
X72125000Y-68734172I0J-272172D01*
G01*
X72125000Y-69441828D01*
G75*
G02*
X71852828Y-69714000I-272172J0D01*
G01*
G37*
G36*
G01*
X71852828Y-71764000D02*
X70895172Y-71764000D01*
G75*
G02*
X70623000Y-71491828I0J272172D01*
G01*
X70623000Y-70784172D01*
G75*
G02*
X70895172Y-70512000I272172J0D01*
G01*
X71852828Y-70512000D01*
G75*
G02*
X72125000Y-70784172I0J-272172D01*
G01*
X72125000Y-71491828D01*
G75*
G02*
X71852828Y-71764000I-272172J0D01*
G01*
G37*
G04 #@! TD*
G04 #@! TO.C,R2*
G36*
G01*
X81389000Y-43336172D02*
X81389000Y-44293828D01*
G75*
G02*
X81116828Y-44566000I-272172J0D01*
G01*
X80409172Y-44566000D01*
G75*
G02*
X80137000Y-44293828I0J272172D01*
G01*
X80137000Y-43336172D01*
G75*
G02*
X80409172Y-43064000I272172J0D01*
G01*
X81116828Y-43064000D01*
G75*
G02*
X81389000Y-43336172I0J-272172D01*
G01*
G37*
G36*
G01*
X83439000Y-43336172D02*
X83439000Y-44293828D01*
G75*
G02*
X83166828Y-44566000I-272172J0D01*
G01*
X82459172Y-44566000D01*
G75*
G02*
X82187000Y-44293828I0J272172D01*
G01*
X82187000Y-43336172D01*
G75*
G02*
X82459172Y-43064000I272172J0D01*
G01*
X83166828Y-43064000D01*
G75*
G02*
X83439000Y-43336172I0J-272172D01*
G01*
G37*
G04 #@! TD*
G04 #@! TO.C,R1*
G36*
G01*
X83430000Y-41431172D02*
X83430000Y-42388828D01*
G75*
G02*
X83157828Y-42661000I-272172J0D01*
G01*
X82450172Y-42661000D01*
G75*
G02*
X82178000Y-42388828I0J272172D01*
G01*
X82178000Y-41431172D01*
G75*
G02*
X82450172Y-41159000I272172J0D01*
G01*
X83157828Y-41159000D01*
G75*
G02*
X83430000Y-41431172I0J-272172D01*
G01*
G37*
G36*
G01*
X85480000Y-41431172D02*
X85480000Y-42388828D01*
G75*
G02*
X85207828Y-42661000I-272172J0D01*
G01*
X84500172Y-42661000D01*
G75*
G02*
X84228000Y-42388828I0J272172D01*
G01*
X84228000Y-41431172D01*
G75*
G02*
X84500172Y-41159000I272172J0D01*
G01*
X85207828Y-41159000D01*
G75*
G02*
X85480000Y-41431172I0J-272172D01*
G01*
G37*
G04 #@! TD*
G04 #@! TO.C,JP1*
G36*
G01*
X44565000Y-77894000D02*
X43065000Y-77894000D01*
G75*
G02*
X43014000Y-77843000I0J51000D01*
G01*
X43014000Y-76843000D01*
G75*
G02*
X43065000Y-76792000I51000J0D01*
G01*
X44565000Y-76792000D01*
G75*
G02*
X44616000Y-76843000I0J-51000D01*
G01*
X44616000Y-77843000D01*
G75*
G02*
X44565000Y-77894000I-51000J0D01*
G01*
G37*
D10*
G36*
X43014602Y-76036888D02*
G01*
X43014602Y-76018466D01*
X43014848Y-76013467D01*
X43019658Y-75964636D01*
X43020392Y-75959686D01*
X43029964Y-75911561D01*
X43031180Y-75906705D01*
X43045424Y-75859750D01*
X43047110Y-75855039D01*
X43065887Y-75809706D01*
X43068027Y-75805180D01*
X43091158Y-75761907D01*
X43093731Y-75757616D01*
X43120991Y-75716817D01*
X43123973Y-75712796D01*
X43155101Y-75674867D01*
X43158462Y-75671159D01*
X43193159Y-75636462D01*
X43196867Y-75633101D01*
X43234796Y-75601973D01*
X43238817Y-75598991D01*
X43279616Y-75571731D01*
X43283907Y-75569158D01*
X43327180Y-75546027D01*
X43331706Y-75543887D01*
X43377039Y-75525110D01*
X43381750Y-75523424D01*
X43428705Y-75509180D01*
X43433561Y-75507964D01*
X43481686Y-75498392D01*
X43486636Y-75497658D01*
X43535467Y-75492848D01*
X43540466Y-75492602D01*
X43558888Y-75492602D01*
X43565000Y-75492000D01*
X44065000Y-75492000D01*
X44071112Y-75492602D01*
X44089534Y-75492602D01*
X44094533Y-75492848D01*
X44143364Y-75497658D01*
X44148314Y-75498392D01*
X44196439Y-75507964D01*
X44201295Y-75509180D01*
X44248250Y-75523424D01*
X44252961Y-75525110D01*
X44298294Y-75543887D01*
X44302820Y-75546027D01*
X44346093Y-75569158D01*
X44350384Y-75571731D01*
X44391183Y-75598991D01*
X44395204Y-75601973D01*
X44433133Y-75633101D01*
X44436841Y-75636462D01*
X44471538Y-75671159D01*
X44474899Y-75674867D01*
X44506027Y-75712796D01*
X44509009Y-75716817D01*
X44536269Y-75757616D01*
X44538842Y-75761907D01*
X44561973Y-75805180D01*
X44564113Y-75809706D01*
X44582890Y-75855039D01*
X44584576Y-75859750D01*
X44598820Y-75906705D01*
X44600036Y-75911561D01*
X44609608Y-75959686D01*
X44610342Y-75964636D01*
X44615152Y-76013467D01*
X44615398Y-76018466D01*
X44615398Y-76036888D01*
X44616000Y-76043000D01*
X44616000Y-76593000D01*
X44615020Y-76602950D01*
X44612118Y-76612517D01*
X44607405Y-76621334D01*
X44601062Y-76629062D01*
X44593334Y-76635405D01*
X44584517Y-76640118D01*
X44574950Y-76643020D01*
X44565000Y-76644000D01*
X43065000Y-76644000D01*
X43055050Y-76643020D01*
X43045483Y-76640118D01*
X43036666Y-76635405D01*
X43028938Y-76629062D01*
X43022595Y-76621334D01*
X43017882Y-76612517D01*
X43014980Y-76602950D01*
X43014000Y-76593000D01*
X43014000Y-76043000D01*
X43014602Y-76036888D01*
G37*
G36*
X43014980Y-78083050D02*
G01*
X43017882Y-78073483D01*
X43022595Y-78064666D01*
X43028938Y-78056938D01*
X43036666Y-78050595D01*
X43045483Y-78045882D01*
X43055050Y-78042980D01*
X43065000Y-78042000D01*
X44565000Y-78042000D01*
X44574950Y-78042980D01*
X44584517Y-78045882D01*
X44593334Y-78050595D01*
X44601062Y-78056938D01*
X44607405Y-78064666D01*
X44612118Y-78073483D01*
X44615020Y-78083050D01*
X44616000Y-78093000D01*
X44616000Y-78643000D01*
X44615398Y-78649112D01*
X44615398Y-78667534D01*
X44615152Y-78672533D01*
X44610342Y-78721364D01*
X44609608Y-78726314D01*
X44600036Y-78774439D01*
X44598820Y-78779295D01*
X44584576Y-78826250D01*
X44582890Y-78830961D01*
X44564113Y-78876294D01*
X44561973Y-78880820D01*
X44538842Y-78924093D01*
X44536269Y-78928384D01*
X44509009Y-78969183D01*
X44506027Y-78973204D01*
X44474899Y-79011133D01*
X44471538Y-79014841D01*
X44436841Y-79049538D01*
X44433133Y-79052899D01*
X44395204Y-79084027D01*
X44391183Y-79087009D01*
X44350384Y-79114269D01*
X44346093Y-79116842D01*
X44302820Y-79139973D01*
X44298294Y-79142113D01*
X44252961Y-79160890D01*
X44248250Y-79162576D01*
X44201295Y-79176820D01*
X44196439Y-79178036D01*
X44148314Y-79187608D01*
X44143364Y-79188342D01*
X44094533Y-79193152D01*
X44089534Y-79193398D01*
X44071112Y-79193398D01*
X44065000Y-79194000D01*
X43565000Y-79194000D01*
X43558888Y-79193398D01*
X43540466Y-79193398D01*
X43535467Y-79193152D01*
X43486636Y-79188342D01*
X43481686Y-79187608D01*
X43433561Y-79178036D01*
X43428705Y-79176820D01*
X43381750Y-79162576D01*
X43377039Y-79160890D01*
X43331706Y-79142113D01*
X43327180Y-79139973D01*
X43283907Y-79116842D01*
X43279616Y-79114269D01*
X43238817Y-79087009D01*
X43234796Y-79084027D01*
X43196867Y-79052899D01*
X43193159Y-79049538D01*
X43158462Y-79014841D01*
X43155101Y-79011133D01*
X43123973Y-78973204D01*
X43120991Y-78969183D01*
X43093731Y-78928384D01*
X43091158Y-78924093D01*
X43068027Y-78880820D01*
X43065887Y-78876294D01*
X43047110Y-78830961D01*
X43045424Y-78826250D01*
X43031180Y-78779295D01*
X43029964Y-78774439D01*
X43020392Y-78726314D01*
X43019658Y-78721364D01*
X43014848Y-78672533D01*
X43014602Y-78667534D01*
X43014602Y-78649112D01*
X43014000Y-78643000D01*
X43014000Y-78093000D01*
X43014980Y-78083050D01*
G37*
G04 #@! TD*
D12*
G04 #@! TO.C,J5*
X77597000Y-86233000D03*
X75057000Y-86233000D03*
X72517000Y-86233000D03*
X69977000Y-86233000D03*
G36*
G01*
X68287000Y-87134000D02*
X66587000Y-87134000D01*
G75*
G02*
X66536000Y-87083000I0J51000D01*
G01*
X66536000Y-85383000D01*
G75*
G02*
X66587000Y-85332000I51000J0D01*
G01*
X68287000Y-85332000D01*
G75*
G02*
X68338000Y-85383000I0J-51000D01*
G01*
X68338000Y-87083000D01*
G75*
G02*
X68287000Y-87134000I-51000J0D01*
G01*
G37*
G04 #@! TD*
G04 #@! TO.C,J3*
X39751000Y-55245000D03*
X39751000Y-52705000D03*
X39751000Y-50165000D03*
G36*
G01*
X38850000Y-48475000D02*
X38850000Y-46775000D01*
G75*
G02*
X38901000Y-46724000I51000J0D01*
G01*
X40601000Y-46724000D01*
G75*
G02*
X40652000Y-46775000I0J-51000D01*
G01*
X40652000Y-48475000D01*
G75*
G02*
X40601000Y-48526000I-51000J0D01*
G01*
X38901000Y-48526000D01*
G75*
G02*
X38850000Y-48475000I0J51000D01*
G01*
G37*
G04 #@! TD*
G04 #@! TO.C,J2*
X48514000Y-49784000D03*
G36*
G01*
X51904000Y-50685000D02*
X50204000Y-50685000D01*
G75*
G02*
X50153000Y-50634000I0J51000D01*
G01*
X50153000Y-48934000D01*
G75*
G02*
X50204000Y-48883000I51000J0D01*
G01*
X51904000Y-48883000D01*
G75*
G02*
X51955000Y-48934000I0J-51000D01*
G01*
X51955000Y-50634000D01*
G75*
G02*
X51904000Y-50685000I-51000J0D01*
G01*
G37*
G04 #@! TD*
G04 #@! TO.C,J1*
X71120000Y-39751000D03*
X68580000Y-39751000D03*
X66040000Y-39751000D03*
G36*
G01*
X64350000Y-40652000D02*
X62650000Y-40652000D01*
G75*
G02*
X62599000Y-40601000I0J51000D01*
G01*
X62599000Y-38901000D01*
G75*
G02*
X62650000Y-38850000I51000J0D01*
G01*
X64350000Y-38850000D01*
G75*
G02*
X64401000Y-38901000I0J-51000D01*
G01*
X64401000Y-40601000D01*
G75*
G02*
X64350000Y-40652000I-51000J0D01*
G01*
G37*
G04 #@! TD*
D13*
G04 #@! TO.C,IR2*
X67310000Y-56388000D03*
X64770000Y-56388000D03*
G36*
G01*
X61329000Y-57238000D02*
X61329000Y-55538000D01*
G75*
G02*
X61380000Y-55487000I51000J0D01*
G01*
X63080000Y-55487000D01*
G75*
G02*
X63131000Y-55538000I0J-51000D01*
G01*
X63131000Y-57238000D01*
G75*
G02*
X63080000Y-57289000I-51000J0D01*
G01*
X61380000Y-57289000D01*
G75*
G02*
X61329000Y-57238000I0J51000D01*
G01*
G37*
G04 #@! TD*
D14*
G04 #@! TO.C,H2*
X84455000Y-84455000D03*
G04 #@! TD*
G04 #@! TO.C,H1*
X41275000Y-41275000D03*
G04 #@! TD*
D15*
G04 #@! TO.C,C3*
X56388000Y-84963000D03*
G36*
G01*
X55588000Y-81612000D02*
X57188000Y-81612000D01*
G75*
G02*
X57239000Y-81663000I0J-51000D01*
G01*
X57239000Y-83263000D01*
G75*
G02*
X57188000Y-83314000I-51000J0D01*
G01*
X55588000Y-83314000D01*
G75*
G02*
X55537000Y-83263000I0J51000D01*
G01*
X55537000Y-81663000D01*
G75*
G02*
X55588000Y-81612000I51000J0D01*
G01*
G37*
G04 #@! TD*
G04 #@! TO.C,C2*
G36*
G01*
X51843000Y-79853828D02*
X51843000Y-78896172D01*
G75*
G02*
X52115172Y-78624000I272172J0D01*
G01*
X52822828Y-78624000D01*
G75*
G02*
X53095000Y-78896172I0J-272172D01*
G01*
X53095000Y-79853828D01*
G75*
G02*
X52822828Y-80126000I-272172J0D01*
G01*
X52115172Y-80126000D01*
G75*
G02*
X51843000Y-79853828I0J272172D01*
G01*
G37*
G36*
G01*
X49793000Y-79853828D02*
X49793000Y-78896172D01*
G75*
G02*
X50065172Y-78624000I272172J0D01*
G01*
X50772828Y-78624000D01*
G75*
G02*
X51045000Y-78896172I0J-272172D01*
G01*
X51045000Y-79853828D01*
G75*
G02*
X50772828Y-80126000I-272172J0D01*
G01*
X50065172Y-80126000D01*
G75*
G02*
X49793000Y-79853828I0J272172D01*
G01*
G37*
G04 #@! TD*
G04 #@! TO.C,IR1*
G36*
G01*
X92449500Y-53899000D02*
X89160500Y-53899000D01*
G75*
G02*
X88754000Y-53492500I0J406500D01*
G01*
X88754000Y-52679500D01*
G75*
G02*
X89160500Y-52273000I406500J0D01*
G01*
X92449500Y-52273000D01*
G75*
G02*
X92856000Y-52679500I0J-406500D01*
G01*
X92856000Y-53492500D01*
G75*
G02*
X92449500Y-53899000I-406500J0D01*
G01*
G37*
G36*
G01*
X92449500Y-58979000D02*
X89160500Y-58979000D01*
G75*
G02*
X88754000Y-58572500I0J406500D01*
G01*
X88754000Y-57759500D01*
G75*
G02*
X89160500Y-57353000I406500J0D01*
G01*
X92449500Y-57353000D01*
G75*
G02*
X92856000Y-57759500I0J-406500D01*
G01*
X92856000Y-58572500D01*
G75*
G02*
X92449500Y-58979000I-406500J0D01*
G01*
G37*
D11*
X89535000Y-58166000D03*
X92075000Y-55626000D03*
X89535000Y-53086000D03*
G04 #@! TD*
D12*
G04 #@! TO.C,J4*
X120015000Y-39751000D03*
X122555000Y-39751000D03*
X125095000Y-39751000D03*
G36*
G01*
X128485000Y-40652000D02*
X126785000Y-40652000D01*
G75*
G02*
X126734000Y-40601000I0J51000D01*
G01*
X126734000Y-38901000D01*
G75*
G02*
X126785000Y-38850000I51000J0D01*
G01*
X128485000Y-38850000D01*
G75*
G02*
X128536000Y-38901000I0J-51000D01*
G01*
X128536000Y-40601000D01*
G75*
G02*
X128485000Y-40652000I-51000J0D01*
G01*
G37*
G04 #@! TD*
D13*
G04 #@! TO.C,U4*
X102235000Y-52832000D03*
X104775000Y-52832000D03*
X107315000Y-52832000D03*
X109855000Y-52832000D03*
X114935000Y-52832000D03*
X112395000Y-52832000D03*
X117475000Y-52832000D03*
X120015000Y-52832000D03*
X125095000Y-52832000D03*
X122555000Y-52832000D03*
G36*
G01*
X126785000Y-51931000D02*
X128485000Y-51931000D01*
G75*
G02*
X128536000Y-51982000I0J-51000D01*
G01*
X128536000Y-53682000D01*
G75*
G02*
X128485000Y-53733000I-51000J0D01*
G01*
X126785000Y-53733000D01*
G75*
G02*
X126734000Y-53682000I0J51000D01*
G01*
X126734000Y-51982000D01*
G75*
G02*
X126785000Y-51931000I51000J0D01*
G01*
G37*
G36*
G01*
X126785000Y-72251000D02*
X128485000Y-72251000D01*
G75*
G02*
X128536000Y-72302000I0J-51000D01*
G01*
X128536000Y-74002000D01*
G75*
G02*
X128485000Y-74053000I-51000J0D01*
G01*
X126785000Y-74053000D01*
G75*
G02*
X126734000Y-74002000I0J51000D01*
G01*
X126734000Y-72302000D01*
G75*
G02*
X126785000Y-72251000I51000J0D01*
G01*
G37*
X125095000Y-73152000D03*
X122555000Y-73152000D03*
X120015000Y-73152000D03*
X117475000Y-73152000D03*
X114935000Y-73152000D03*
X112395000Y-73152000D03*
X109855000Y-73152000D03*
X107315000Y-73152000D03*
X104775000Y-73152000D03*
X102235000Y-73152000D03*
G04 #@! TD*
D12*
G04 #@! TO.C,J7*
X90170000Y-76200000D03*
X90170000Y-73660000D03*
X90170000Y-71120000D03*
X90170000Y-68580000D03*
G36*
G01*
X91071000Y-65190000D02*
X91071000Y-66890000D01*
G75*
G02*
X91020000Y-66941000I-51000J0D01*
G01*
X89320000Y-66941000D01*
G75*
G02*
X89269000Y-66890000I0J51000D01*
G01*
X89269000Y-65190000D01*
G75*
G02*
X89320000Y-65139000I51000J0D01*
G01*
X91020000Y-65139000D01*
G75*
G02*
X91071000Y-65190000I0J-51000D01*
G01*
G37*
G04 #@! TD*
G04 #@! TO.C,J6*
X136398000Y-83439000D03*
X136398000Y-80899000D03*
X136398000Y-78359000D03*
X136398000Y-75819000D03*
G36*
G01*
X137299000Y-72429000D02*
X137299000Y-74129000D01*
G75*
G02*
X137248000Y-74180000I-51000J0D01*
G01*
X135548000Y-74180000D01*
G75*
G02*
X135497000Y-74129000I0J51000D01*
G01*
X135497000Y-72429000D01*
G75*
G02*
X135548000Y-72378000I51000J0D01*
G01*
X137248000Y-72378000D01*
G75*
G02*
X137299000Y-72429000I0J-51000D01*
G01*
G37*
G04 #@! TD*
G04 #@! TO.C,U2*
G36*
G01*
X99195000Y-80850500D02*
X99195000Y-81201500D01*
G75*
G02*
X99019500Y-81377000I-175500J0D01*
G01*
X97068500Y-81377000D01*
G75*
G02*
X96893000Y-81201500I0J175500D01*
G01*
X96893000Y-80850500D01*
G75*
G02*
X97068500Y-80675000I175500J0D01*
G01*
X99019500Y-80675000D01*
G75*
G02*
X99195000Y-80850500I0J-175500D01*
G01*
G37*
G36*
G01*
X99195000Y-79580500D02*
X99195000Y-79931500D01*
G75*
G02*
X99019500Y-80107000I-175500J0D01*
G01*
X97068500Y-80107000D01*
G75*
G02*
X96893000Y-79931500I0J175500D01*
G01*
X96893000Y-79580500D01*
G75*
G02*
X97068500Y-79405000I175500J0D01*
G01*
X99019500Y-79405000D01*
G75*
G02*
X99195000Y-79580500I0J-175500D01*
G01*
G37*
G36*
G01*
X99195000Y-78310500D02*
X99195000Y-78661500D01*
G75*
G02*
X99019500Y-78837000I-175500J0D01*
G01*
X97068500Y-78837000D01*
G75*
G02*
X96893000Y-78661500I0J175500D01*
G01*
X96893000Y-78310500D01*
G75*
G02*
X97068500Y-78135000I175500J0D01*
G01*
X99019500Y-78135000D01*
G75*
G02*
X99195000Y-78310500I0J-175500D01*
G01*
G37*
G36*
G01*
X99195000Y-77040500D02*
X99195000Y-77391500D01*
G75*
G02*
X99019500Y-77567000I-175500J0D01*
G01*
X97068500Y-77567000D01*
G75*
G02*
X96893000Y-77391500I0J175500D01*
G01*
X96893000Y-77040500D01*
G75*
G02*
X97068500Y-76865000I175500J0D01*
G01*
X99019500Y-76865000D01*
G75*
G02*
X99195000Y-77040500I0J-175500D01*
G01*
G37*
G36*
G01*
X105795000Y-77040500D02*
X105795000Y-77391500D01*
G75*
G02*
X105619500Y-77567000I-175500J0D01*
G01*
X103668500Y-77567000D01*
G75*
G02*
X103493000Y-77391500I0J175500D01*
G01*
X103493000Y-77040500D01*
G75*
G02*
X103668500Y-76865000I175500J0D01*
G01*
X105619500Y-76865000D01*
G75*
G02*
X105795000Y-77040500I0J-175500D01*
G01*
G37*
G36*
G01*
X105795000Y-78310500D02*
X105795000Y-78661500D01*
G75*
G02*
X105619500Y-78837000I-175500J0D01*
G01*
X103668500Y-78837000D01*
G75*
G02*
X103493000Y-78661500I0J175500D01*
G01*
X103493000Y-78310500D01*
G75*
G02*
X103668500Y-78135000I175500J0D01*
G01*
X105619500Y-78135000D01*
G75*
G02*
X105795000Y-78310500I0J-175500D01*
G01*
G37*
G36*
G01*
X105795000Y-79580500D02*
X105795000Y-79931500D01*
G75*
G02*
X105619500Y-80107000I-175500J0D01*
G01*
X103668500Y-80107000D01*
G75*
G02*
X103493000Y-79931500I0J175500D01*
G01*
X103493000Y-79580500D01*
G75*
G02*
X103668500Y-79405000I175500J0D01*
G01*
X105619500Y-79405000D01*
G75*
G02*
X105795000Y-79580500I0J-175500D01*
G01*
G37*
G36*
G01*
X105795000Y-80850500D02*
X105795000Y-81201500D01*
G75*
G02*
X105619500Y-81377000I-175500J0D01*
G01*
X103668500Y-81377000D01*
G75*
G02*
X103493000Y-81201500I0J175500D01*
G01*
X103493000Y-80850500D01*
G75*
G02*
X103668500Y-80675000I175500J0D01*
G01*
X105619500Y-80675000D01*
G75*
G02*
X105795000Y-80850500I0J-175500D01*
G01*
G37*
G04 #@! TD*
D13*
G04 #@! TO.C,U1*
X109474000Y-47117000D03*
X112014000Y-47117000D03*
X114554000Y-47117000D03*
G36*
G01*
X117995000Y-46267000D02*
X117995000Y-47967000D01*
G75*
G02*
X117944000Y-48018000I-51000J0D01*
G01*
X116244000Y-48018000D01*
G75*
G02*
X116193000Y-47967000I0J51000D01*
G01*
X116193000Y-46267000D01*
G75*
G02*
X116244000Y-46216000I51000J0D01*
G01*
X117944000Y-46216000D01*
G75*
G02*
X117995000Y-46267000I0J-51000D01*
G01*
G37*
G04 #@! TD*
G04 #@! TO.C,SW1*
G36*
G01*
X90643000Y-39008000D02*
X90643000Y-38208000D01*
G75*
G02*
X90694000Y-38157000I51000J0D01*
G01*
X92694000Y-38157000D01*
G75*
G02*
X92745000Y-38208000I0J-51000D01*
G01*
X92745000Y-39008000D01*
G75*
G02*
X92694000Y-39059000I-51000J0D01*
G01*
X90694000Y-39059000D01*
G75*
G02*
X90643000Y-39008000I0J51000D01*
G01*
G37*
G36*
G01*
X90627000Y-39751000D02*
X90627000Y-38227000D01*
G75*
G02*
X90678000Y-38176000I51000J0D01*
G01*
X91948000Y-38176000D01*
G75*
G02*
X91999000Y-38227000I0J-51000D01*
G01*
X91999000Y-39751000D01*
G75*
G02*
X91948000Y-39802000I-51000J0D01*
G01*
X90678000Y-39802000D01*
G75*
G02*
X90627000Y-39751000I0J51000D01*
G01*
G37*
G36*
G01*
X98136000Y-39008000D02*
X98136000Y-38208000D01*
G75*
G02*
X98187000Y-38157000I51000J0D01*
G01*
X100187000Y-38157000D01*
G75*
G02*
X100238000Y-38208000I0J-51000D01*
G01*
X100238000Y-39008000D01*
G75*
G02*
X100187000Y-39059000I-51000J0D01*
G01*
X98187000Y-39059000D01*
G75*
G02*
X98136000Y-39008000I0J51000D01*
G01*
G37*
G36*
G01*
X98882000Y-39751000D02*
X98882000Y-38227000D01*
G75*
G02*
X98933000Y-38176000I51000J0D01*
G01*
X100203000Y-38176000D01*
G75*
G02*
X100254000Y-38227000I0J-51000D01*
G01*
X100254000Y-39751000D01*
G75*
G02*
X100203000Y-39802000I-51000J0D01*
G01*
X98933000Y-39802000D01*
G75*
G02*
X98882000Y-39751000I0J51000D01*
G01*
G37*
G36*
G01*
X92626000Y-42294001D02*
X92626000Y-40293999D01*
G75*
G02*
X92676999Y-40243000I50999J0D01*
G01*
X93877001Y-40243000D01*
G75*
G02*
X93928000Y-40293999I0J-50999D01*
G01*
X93928000Y-42294001D01*
G75*
G02*
X93877001Y-42345000I-50999J0D01*
G01*
X92676999Y-42345000D01*
G75*
G02*
X92626000Y-42294001I0J50999D01*
G01*
G37*
G36*
G01*
X96826000Y-42294001D02*
X96826000Y-40293999D01*
G75*
G02*
X96876999Y-40243000I50999J0D01*
G01*
X98077001Y-40243000D01*
G75*
G02*
X98128000Y-40293999I0J-50999D01*
G01*
X98128000Y-42294001D01*
G75*
G02*
X98077001Y-42345000I-50999J0D01*
G01*
X96876999Y-42345000D01*
G75*
G02*
X96826000Y-42294001I0J50999D01*
G01*
G37*
G04 #@! TD*
G04 #@! TO.C,R5*
G36*
G01*
X115561000Y-75848172D02*
X115561000Y-76805828D01*
G75*
G02*
X115288828Y-77078000I-272172J0D01*
G01*
X114581172Y-77078000D01*
G75*
G02*
X114309000Y-76805828I0J272172D01*
G01*
X114309000Y-75848172D01*
G75*
G02*
X114581172Y-75576000I272172J0D01*
G01*
X115288828Y-75576000D01*
G75*
G02*
X115561000Y-75848172I0J-272172D01*
G01*
G37*
G36*
G01*
X117611000Y-75848172D02*
X117611000Y-76805828D01*
G75*
G02*
X117338828Y-77078000I-272172J0D01*
G01*
X116631172Y-77078000D01*
G75*
G02*
X116359000Y-76805828I0J272172D01*
G01*
X116359000Y-75848172D01*
G75*
G02*
X116631172Y-75576000I272172J0D01*
G01*
X117338828Y-75576000D01*
G75*
G02*
X117611000Y-75848172I0J-272172D01*
G01*
G37*
G04 #@! TD*
G04 #@! TO.C,R4*
G36*
G01*
X107793828Y-45838000D02*
X106836172Y-45838000D01*
G75*
G02*
X106564000Y-45565828I0J272172D01*
G01*
X106564000Y-44858172D01*
G75*
G02*
X106836172Y-44586000I272172J0D01*
G01*
X107793828Y-44586000D01*
G75*
G02*
X108066000Y-44858172I0J-272172D01*
G01*
X108066000Y-45565828D01*
G75*
G02*
X107793828Y-45838000I-272172J0D01*
G01*
G37*
G36*
G01*
X107793828Y-47888000D02*
X106836172Y-47888000D01*
G75*
G02*
X106564000Y-47615828I0J272172D01*
G01*
X106564000Y-46908172D01*
G75*
G02*
X106836172Y-46636000I272172J0D01*
G01*
X107793828Y-46636000D01*
G75*
G02*
X108066000Y-46908172I0J-272172D01*
G01*
X108066000Y-47615828D01*
G75*
G02*
X107793828Y-47888000I-272172J0D01*
G01*
G37*
G04 #@! TD*
G04 #@! TO.C,R3*
G36*
G01*
X116096000Y-49627828D02*
X116096000Y-48670172D01*
G75*
G02*
X116368172Y-48398000I272172J0D01*
G01*
X117075828Y-48398000D01*
G75*
G02*
X117348000Y-48670172I0J-272172D01*
G01*
X117348000Y-49627828D01*
G75*
G02*
X117075828Y-49900000I-272172J0D01*
G01*
X116368172Y-49900000D01*
G75*
G02*
X116096000Y-49627828I0J272172D01*
G01*
G37*
G36*
G01*
X114046000Y-49627828D02*
X114046000Y-48670172D01*
G75*
G02*
X114318172Y-48398000I272172J0D01*
G01*
X115025828Y-48398000D01*
G75*
G02*
X115298000Y-48670172I0J-272172D01*
G01*
X115298000Y-49627828D01*
G75*
G02*
X115025828Y-49900000I-272172J0D01*
G01*
X114318172Y-49900000D01*
G75*
G02*
X114046000Y-49627828I0J272172D01*
G01*
G37*
G04 #@! TD*
D12*
G04 #@! TO.C,J5*
X98552000Y-86233000D03*
X101092000Y-86233000D03*
X103632000Y-86233000D03*
X106172000Y-86233000D03*
G36*
G01*
X109562000Y-87134000D02*
X107862000Y-87134000D01*
G75*
G02*
X107811000Y-87083000I0J51000D01*
G01*
X107811000Y-85383000D01*
G75*
G02*
X107862000Y-85332000I51000J0D01*
G01*
X109562000Y-85332000D01*
G75*
G02*
X109613000Y-85383000I0J-51000D01*
G01*
X109613000Y-87083000D01*
G75*
G02*
X109562000Y-87134000I-51000J0D01*
G01*
G37*
G04 #@! TD*
G04 #@! TO.C,J3*
X136398000Y-55245000D03*
X136398000Y-52705000D03*
X136398000Y-50165000D03*
G36*
G01*
X137299000Y-46775000D02*
X137299000Y-48475000D01*
G75*
G02*
X137248000Y-48526000I-51000J0D01*
G01*
X135548000Y-48526000D01*
G75*
G02*
X135497000Y-48475000I0J51000D01*
G01*
X135497000Y-46775000D01*
G75*
G02*
X135548000Y-46724000I51000J0D01*
G01*
X137248000Y-46724000D01*
G75*
G02*
X137299000Y-46775000I0J-51000D01*
G01*
G37*
G04 #@! TD*
G04 #@! TO.C,J2*
X127635000Y-49784000D03*
G36*
G01*
X125945000Y-50685000D02*
X124245000Y-50685000D01*
G75*
G02*
X124194000Y-50634000I0J51000D01*
G01*
X124194000Y-48934000D01*
G75*
G02*
X124245000Y-48883000I51000J0D01*
G01*
X125945000Y-48883000D01*
G75*
G02*
X125996000Y-48934000I0J-51000D01*
G01*
X125996000Y-50634000D01*
G75*
G02*
X125945000Y-50685000I-51000J0D01*
G01*
G37*
G04 #@! TD*
G04 #@! TO.C,J1*
X105029000Y-39751000D03*
X107569000Y-39751000D03*
X110109000Y-39751000D03*
G36*
G01*
X113499000Y-40652000D02*
X111799000Y-40652000D01*
G75*
G02*
X111748000Y-40601000I0J51000D01*
G01*
X111748000Y-38901000D01*
G75*
G02*
X111799000Y-38850000I51000J0D01*
G01*
X113499000Y-38850000D01*
G75*
G02*
X113550000Y-38901000I0J-51000D01*
G01*
X113550000Y-40601000D01*
G75*
G02*
X113499000Y-40652000I-51000J0D01*
G01*
G37*
G04 #@! TD*
D13*
G04 #@! TO.C,IR2*
X108839000Y-56388000D03*
X111379000Y-56388000D03*
G36*
G01*
X114820000Y-55538000D02*
X114820000Y-57238000D01*
G75*
G02*
X114769000Y-57289000I-51000J0D01*
G01*
X113069000Y-57289000D01*
G75*
G02*
X113018000Y-57238000I0J51000D01*
G01*
X113018000Y-55538000D01*
G75*
G02*
X113069000Y-55487000I51000J0D01*
G01*
X114769000Y-55487000D01*
G75*
G02*
X114820000Y-55538000I0J-51000D01*
G01*
G37*
G04 #@! TD*
D14*
G04 #@! TO.C,H2*
X91694000Y-84455000D03*
G04 #@! TD*
G04 #@! TO.C,H1*
X134874000Y-41275000D03*
G04 #@! TD*
D15*
G04 #@! TO.C,C3*
X119761000Y-84963000D03*
G36*
G01*
X118961000Y-81612000D02*
X120561000Y-81612000D01*
G75*
G02*
X120612000Y-81663000I0J-51000D01*
G01*
X120612000Y-83263000D01*
G75*
G02*
X120561000Y-83314000I-51000J0D01*
G01*
X118961000Y-83314000D01*
G75*
G02*
X118910000Y-83263000I0J51000D01*
G01*
X118910000Y-81663000D01*
G75*
G02*
X118961000Y-81612000I51000J0D01*
G01*
G37*
G04 #@! TD*
G04 #@! TO.C,C1*
G36*
G01*
X94898172Y-45094000D02*
X95855828Y-45094000D01*
G75*
G02*
X96128000Y-45366172I0J-272172D01*
G01*
X96128000Y-46073828D01*
G75*
G02*
X95855828Y-46346000I-272172J0D01*
G01*
X94898172Y-46346000D01*
G75*
G02*
X94626000Y-46073828I0J272172D01*
G01*
X94626000Y-45366172D01*
G75*
G02*
X94898172Y-45094000I272172J0D01*
G01*
G37*
G36*
G01*
X94898172Y-43044000D02*
X95855828Y-43044000D01*
G75*
G02*
X96128000Y-43316172I0J-272172D01*
G01*
X96128000Y-44023828D01*
G75*
G02*
X95855828Y-44296000I-272172J0D01*
G01*
X94898172Y-44296000D01*
G75*
G02*
X94626000Y-44023828I0J272172D01*
G01*
X94626000Y-43316172D01*
G75*
G02*
X94898172Y-43044000I272172J0D01*
G01*
G37*
G04 #@! TD*
G04 #@! TO.C,C4*
G36*
G01*
X97539702Y-94125000D02*
X98548298Y-94125000D01*
G75*
G02*
X98820000Y-94396702I0J-271702D01*
G01*
X98820000Y-95130298D01*
G75*
G02*
X98548298Y-95402000I-271702J0D01*
G01*
X97539702Y-95402000D01*
G75*
G02*
X97268000Y-95130298I0J271702D01*
G01*
X97268000Y-94396702D01*
G75*
G02*
X97539702Y-94125000I271702J0D01*
G01*
G37*
G36*
G01*
X97539702Y-92050000D02*
X98548298Y-92050000D01*
G75*
G02*
X98820000Y-92321702I0J-271702D01*
G01*
X98820000Y-93055298D01*
G75*
G02*
X98548298Y-93327000I-271702J0D01*
G01*
X97539702Y-93327000D01*
G75*
G02*
X97268000Y-93055298I0J271702D01*
G01*
X97268000Y-92321702D01*
G75*
G02*
X97539702Y-92050000I271702J0D01*
G01*
G37*
G04 #@! TD*
G04 #@! TO.C,IR1*
G36*
G01*
X89160500Y-119710000D02*
X92449500Y-119710000D01*
G75*
G02*
X92856000Y-120116500I0J-406500D01*
G01*
X92856000Y-120929500D01*
G75*
G02*
X92449500Y-121336000I-406500J0D01*
G01*
X89160500Y-121336000D01*
G75*
G02*
X88754000Y-120929500I0J406500D01*
G01*
X88754000Y-120116500D01*
G75*
G02*
X89160500Y-119710000I406500J0D01*
G01*
G37*
D11*
X89535000Y-117983000D03*
X92075000Y-120523000D03*
X89535000Y-123063000D03*
G04 #@! TD*
D12*
G04 #@! TO.C,J4*
X120015000Y-136398000D03*
X122555000Y-136398000D03*
X125095000Y-136398000D03*
G36*
G01*
X126785000Y-135497000D02*
X128485000Y-135497000D01*
G75*
G02*
X128536000Y-135548000I0J-51000D01*
G01*
X128536000Y-137248000D01*
G75*
G02*
X128485000Y-137299000I-51000J0D01*
G01*
X126785000Y-137299000D01*
G75*
G02*
X126734000Y-137248000I0J51000D01*
G01*
X126734000Y-135548000D01*
G75*
G02*
X126785000Y-135497000I51000J0D01*
G01*
G37*
G04 #@! TD*
G04 #@! TO.C,U3*
G36*
G01*
X124983000Y-90652000D02*
X124983000Y-89152000D01*
G75*
G02*
X125034000Y-89101000I51000J0D01*
G01*
X127034000Y-89101000D01*
G75*
G02*
X127085000Y-89152000I0J-51000D01*
G01*
X127085000Y-90652000D01*
G75*
G02*
X127034000Y-90703000I-51000J0D01*
G01*
X125034000Y-90703000D01*
G75*
G02*
X124983000Y-90652000I0J51000D01*
G01*
G37*
G36*
G01*
X124983000Y-95252000D02*
X124983000Y-93752000D01*
G75*
G02*
X125034000Y-93701000I51000J0D01*
G01*
X127034000Y-93701000D01*
G75*
G02*
X127085000Y-93752000I0J-51000D01*
G01*
X127085000Y-95252000D01*
G75*
G02*
X127034000Y-95303000I-51000J0D01*
G01*
X125034000Y-95303000D01*
G75*
G02*
X124983000Y-95252000I0J51000D01*
G01*
G37*
G36*
G01*
X124983000Y-92952000D02*
X124983000Y-91452000D01*
G75*
G02*
X125034000Y-91401000I51000J0D01*
G01*
X127034000Y-91401000D01*
G75*
G02*
X127085000Y-91452000I0J-51000D01*
G01*
X127085000Y-92952000D01*
G75*
G02*
X127034000Y-93003000I-51000J0D01*
G01*
X125034000Y-93003000D01*
G75*
G02*
X124983000Y-92952000I0J51000D01*
G01*
G37*
G36*
G01*
X131283000Y-94102000D02*
X131283000Y-90302000D01*
G75*
G02*
X131334000Y-90251000I51000J0D01*
G01*
X133334000Y-90251000D01*
G75*
G02*
X133385000Y-90302000I0J-51000D01*
G01*
X133385000Y-94102000D01*
G75*
G02*
X133334000Y-94153000I-51000J0D01*
G01*
X131334000Y-94153000D01*
G75*
G02*
X131283000Y-94102000I0J51000D01*
G01*
G37*
G04 #@! TD*
D13*
G04 #@! TO.C,U4*
X102235000Y-123317000D03*
X104775000Y-123317000D03*
X107315000Y-123317000D03*
X109855000Y-123317000D03*
X114935000Y-123317000D03*
X112395000Y-123317000D03*
X117475000Y-123317000D03*
X120015000Y-123317000D03*
X125095000Y-123317000D03*
X122555000Y-123317000D03*
G36*
G01*
X128485000Y-124218000D02*
X126785000Y-124218000D01*
G75*
G02*
X126734000Y-124167000I0J51000D01*
G01*
X126734000Y-122467000D01*
G75*
G02*
X126785000Y-122416000I51000J0D01*
G01*
X128485000Y-122416000D01*
G75*
G02*
X128536000Y-122467000I0J-51000D01*
G01*
X128536000Y-124167000D01*
G75*
G02*
X128485000Y-124218000I-51000J0D01*
G01*
G37*
G36*
G01*
X128485000Y-103898000D02*
X126785000Y-103898000D01*
G75*
G02*
X126734000Y-103847000I0J51000D01*
G01*
X126734000Y-102147000D01*
G75*
G02*
X126785000Y-102096000I51000J0D01*
G01*
X128485000Y-102096000D01*
G75*
G02*
X128536000Y-102147000I0J-51000D01*
G01*
X128536000Y-103847000D01*
G75*
G02*
X128485000Y-103898000I-51000J0D01*
G01*
G37*
X125095000Y-102997000D03*
X122555000Y-102997000D03*
X120015000Y-102997000D03*
X117475000Y-102997000D03*
X114935000Y-102997000D03*
X112395000Y-102997000D03*
X109855000Y-102997000D03*
X107315000Y-102997000D03*
X104775000Y-102997000D03*
X102235000Y-102997000D03*
G04 #@! TD*
G04 #@! TO.C,R8*
G36*
G01*
X109111000Y-117826828D02*
X109111000Y-116869172D01*
G75*
G02*
X109383172Y-116597000I272172J0D01*
G01*
X110090828Y-116597000D01*
G75*
G02*
X110363000Y-116869172I0J-272172D01*
G01*
X110363000Y-117826828D01*
G75*
G02*
X110090828Y-118099000I-272172J0D01*
G01*
X109383172Y-118099000D01*
G75*
G02*
X109111000Y-117826828I0J272172D01*
G01*
G37*
G36*
G01*
X107061000Y-117826828D02*
X107061000Y-116869172D01*
G75*
G02*
X107333172Y-116597000I272172J0D01*
G01*
X108040828Y-116597000D01*
G75*
G02*
X108313000Y-116869172I0J-272172D01*
G01*
X108313000Y-117826828D01*
G75*
G02*
X108040828Y-118099000I-272172J0D01*
G01*
X107333172Y-118099000D01*
G75*
G02*
X107061000Y-117826828I0J272172D01*
G01*
G37*
G04 #@! TD*
G04 #@! TO.C,R7*
G36*
G01*
X109102000Y-115921828D02*
X109102000Y-114964172D01*
G75*
G02*
X109374172Y-114692000I272172J0D01*
G01*
X110081828Y-114692000D01*
G75*
G02*
X110354000Y-114964172I0J-272172D01*
G01*
X110354000Y-115921828D01*
G75*
G02*
X110081828Y-116194000I-272172J0D01*
G01*
X109374172Y-116194000D01*
G75*
G02*
X109102000Y-115921828I0J272172D01*
G01*
G37*
G36*
G01*
X107052000Y-115921828D02*
X107052000Y-114964172D01*
G75*
G02*
X107324172Y-114692000I272172J0D01*
G01*
X108031828Y-114692000D01*
G75*
G02*
X108304000Y-114964172I0J-272172D01*
G01*
X108304000Y-115921828D01*
G75*
G02*
X108031828Y-116194000I-272172J0D01*
G01*
X107324172Y-116194000D01*
G75*
G02*
X107052000Y-115921828I0J272172D01*
G01*
G37*
G04 #@! TD*
D12*
G04 #@! TO.C,J7*
X90170000Y-99949000D03*
X90170000Y-102489000D03*
X90170000Y-105029000D03*
X90170000Y-107569000D03*
G36*
G01*
X91071000Y-109259000D02*
X91071000Y-110959000D01*
G75*
G02*
X91020000Y-111010000I-51000J0D01*
G01*
X89320000Y-111010000D01*
G75*
G02*
X89269000Y-110959000I0J51000D01*
G01*
X89269000Y-109259000D01*
G75*
G02*
X89320000Y-109208000I51000J0D01*
G01*
X91020000Y-109208000D01*
G75*
G02*
X91071000Y-109259000I0J-51000D01*
G01*
G37*
G04 #@! TD*
G04 #@! TO.C,J6*
X136398000Y-92710000D03*
X136398000Y-95250000D03*
X136398000Y-97790000D03*
X136398000Y-100330000D03*
G36*
G01*
X137299000Y-102020000D02*
X137299000Y-103720000D01*
G75*
G02*
X137248000Y-103771000I-51000J0D01*
G01*
X135548000Y-103771000D01*
G75*
G02*
X135497000Y-103720000I0J51000D01*
G01*
X135497000Y-102020000D01*
G75*
G02*
X135548000Y-101969000I51000J0D01*
G01*
X137248000Y-101969000D01*
G75*
G02*
X137299000Y-102020000I0J-51000D01*
G01*
G37*
G04 #@! TD*
D13*
G04 #@! TO.C,U1*
X109474000Y-129032000D03*
X112014000Y-129032000D03*
X114554000Y-129032000D03*
G36*
G01*
X117995000Y-128182000D02*
X117995000Y-129882000D01*
G75*
G02*
X117944000Y-129933000I-51000J0D01*
G01*
X116244000Y-129933000D01*
G75*
G02*
X116193000Y-129882000I0J51000D01*
G01*
X116193000Y-128182000D01*
G75*
G02*
X116244000Y-128131000I51000J0D01*
G01*
X117944000Y-128131000D01*
G75*
G02*
X117995000Y-128182000I0J-51000D01*
G01*
G37*
G04 #@! TD*
G04 #@! TO.C,R6*
G36*
G01*
X104296172Y-106435000D02*
X105253828Y-106435000D01*
G75*
G02*
X105526000Y-106707172I0J-272172D01*
G01*
X105526000Y-107414828D01*
G75*
G02*
X105253828Y-107687000I-272172J0D01*
G01*
X104296172Y-107687000D01*
G75*
G02*
X104024000Y-107414828I0J272172D01*
G01*
X104024000Y-106707172D01*
G75*
G02*
X104296172Y-106435000I272172J0D01*
G01*
G37*
G36*
G01*
X104296172Y-104385000D02*
X105253828Y-104385000D01*
G75*
G02*
X105526000Y-104657172I0J-272172D01*
G01*
X105526000Y-105364828D01*
G75*
G02*
X105253828Y-105637000I-272172J0D01*
G01*
X104296172Y-105637000D01*
G75*
G02*
X104024000Y-105364828I0J272172D01*
G01*
X104024000Y-104657172D01*
G75*
G02*
X104296172Y-104385000I272172J0D01*
G01*
G37*
G04 #@! TD*
G04 #@! TO.C,R2*
G36*
G01*
X94760000Y-132812828D02*
X94760000Y-131855172D01*
G75*
G02*
X95032172Y-131583000I272172J0D01*
G01*
X95739828Y-131583000D01*
G75*
G02*
X96012000Y-131855172I0J-272172D01*
G01*
X96012000Y-132812828D01*
G75*
G02*
X95739828Y-133085000I-272172J0D01*
G01*
X95032172Y-133085000D01*
G75*
G02*
X94760000Y-132812828I0J272172D01*
G01*
G37*
G36*
G01*
X92710000Y-132812828D02*
X92710000Y-131855172D01*
G75*
G02*
X92982172Y-131583000I272172J0D01*
G01*
X93689828Y-131583000D01*
G75*
G02*
X93962000Y-131855172I0J-272172D01*
G01*
X93962000Y-132812828D01*
G75*
G02*
X93689828Y-133085000I-272172J0D01*
G01*
X92982172Y-133085000D01*
G75*
G02*
X92710000Y-132812828I0J272172D01*
G01*
G37*
G04 #@! TD*
G04 #@! TO.C,R1*
G36*
G01*
X92719000Y-134717828D02*
X92719000Y-133760172D01*
G75*
G02*
X92991172Y-133488000I272172J0D01*
G01*
X93698828Y-133488000D01*
G75*
G02*
X93971000Y-133760172I0J-272172D01*
G01*
X93971000Y-134717828D01*
G75*
G02*
X93698828Y-134990000I-272172J0D01*
G01*
X92991172Y-134990000D01*
G75*
G02*
X92719000Y-134717828I0J272172D01*
G01*
G37*
G36*
G01*
X90669000Y-134717828D02*
X90669000Y-133760172D01*
G75*
G02*
X90941172Y-133488000I272172J0D01*
G01*
X91648828Y-133488000D01*
G75*
G02*
X91921000Y-133760172I0J-272172D01*
G01*
X91921000Y-134717828D01*
G75*
G02*
X91648828Y-134990000I-272172J0D01*
G01*
X90941172Y-134990000D01*
G75*
G02*
X90669000Y-134717828I0J272172D01*
G01*
G37*
G04 #@! TD*
G04 #@! TO.C,JP1*
G36*
G01*
X131584000Y-98255000D02*
X133084000Y-98255000D01*
G75*
G02*
X133135000Y-98306000I0J-51000D01*
G01*
X133135000Y-99306000D01*
G75*
G02*
X133084000Y-99357000I-51000J0D01*
G01*
X131584000Y-99357000D01*
G75*
G02*
X131533000Y-99306000I0J51000D01*
G01*
X131533000Y-98306000D01*
G75*
G02*
X131584000Y-98255000I51000J0D01*
G01*
G37*
D10*
G36*
X133134398Y-100112112D02*
G01*
X133134398Y-100130534D01*
X133134152Y-100135533D01*
X133129342Y-100184364D01*
X133128608Y-100189314D01*
X133119036Y-100237439D01*
X133117820Y-100242295D01*
X133103576Y-100289250D01*
X133101890Y-100293961D01*
X133083113Y-100339294D01*
X133080973Y-100343820D01*
X133057842Y-100387093D01*
X133055269Y-100391384D01*
X133028009Y-100432183D01*
X133025027Y-100436204D01*
X132993899Y-100474133D01*
X132990538Y-100477841D01*
X132955841Y-100512538D01*
X132952133Y-100515899D01*
X132914204Y-100547027D01*
X132910183Y-100550009D01*
X132869384Y-100577269D01*
X132865093Y-100579842D01*
X132821820Y-100602973D01*
X132817294Y-100605113D01*
X132771961Y-100623890D01*
X132767250Y-100625576D01*
X132720295Y-100639820D01*
X132715439Y-100641036D01*
X132667314Y-100650608D01*
X132662364Y-100651342D01*
X132613533Y-100656152D01*
X132608534Y-100656398D01*
X132590112Y-100656398D01*
X132584000Y-100657000D01*
X132084000Y-100657000D01*
X132077888Y-100656398D01*
X132059466Y-100656398D01*
X132054467Y-100656152D01*
X132005636Y-100651342D01*
X132000686Y-100650608D01*
X131952561Y-100641036D01*
X131947705Y-100639820D01*
X131900750Y-100625576D01*
X131896039Y-100623890D01*
X131850706Y-100605113D01*
X131846180Y-100602973D01*
X131802907Y-100579842D01*
X131798616Y-100577269D01*
X131757817Y-100550009D01*
X131753796Y-100547027D01*
X131715867Y-100515899D01*
X131712159Y-100512538D01*
X131677462Y-100477841D01*
X131674101Y-100474133D01*
X131642973Y-100436204D01*
X131639991Y-100432183D01*
X131612731Y-100391384D01*
X131610158Y-100387093D01*
X131587027Y-100343820D01*
X131584887Y-100339294D01*
X131566110Y-100293961D01*
X131564424Y-100289250D01*
X131550180Y-100242295D01*
X131548964Y-100237439D01*
X131539392Y-100189314D01*
X131538658Y-100184364D01*
X131533848Y-100135533D01*
X131533602Y-100130534D01*
X131533602Y-100112112D01*
X131533000Y-100106000D01*
X131533000Y-99556000D01*
X131533980Y-99546050D01*
X131536882Y-99536483D01*
X131541595Y-99527666D01*
X131547938Y-99519938D01*
X131555666Y-99513595D01*
X131564483Y-99508882D01*
X131574050Y-99505980D01*
X131584000Y-99505000D01*
X133084000Y-99505000D01*
X133093950Y-99505980D01*
X133103517Y-99508882D01*
X133112334Y-99513595D01*
X133120062Y-99519938D01*
X133126405Y-99527666D01*
X133131118Y-99536483D01*
X133134020Y-99546050D01*
X133135000Y-99556000D01*
X133135000Y-100106000D01*
X133134398Y-100112112D01*
G37*
G36*
X133134020Y-98065950D02*
G01*
X133131118Y-98075517D01*
X133126405Y-98084334D01*
X133120062Y-98092062D01*
X133112334Y-98098405D01*
X133103517Y-98103118D01*
X133093950Y-98106020D01*
X133084000Y-98107000D01*
X131584000Y-98107000D01*
X131574050Y-98106020D01*
X131564483Y-98103118D01*
X131555666Y-98098405D01*
X131547938Y-98092062D01*
X131541595Y-98084334D01*
X131536882Y-98075517D01*
X131533980Y-98065950D01*
X131533000Y-98056000D01*
X131533000Y-97506000D01*
X131533602Y-97499888D01*
X131533602Y-97481466D01*
X131533848Y-97476467D01*
X131538658Y-97427636D01*
X131539392Y-97422686D01*
X131548964Y-97374561D01*
X131550180Y-97369705D01*
X131564424Y-97322750D01*
X131566110Y-97318039D01*
X131584887Y-97272706D01*
X131587027Y-97268180D01*
X131610158Y-97224907D01*
X131612731Y-97220616D01*
X131639991Y-97179817D01*
X131642973Y-97175796D01*
X131674101Y-97137867D01*
X131677462Y-97134159D01*
X131712159Y-97099462D01*
X131715867Y-97096101D01*
X131753796Y-97064973D01*
X131757817Y-97061991D01*
X131798616Y-97034731D01*
X131802907Y-97032158D01*
X131846180Y-97009027D01*
X131850706Y-97006887D01*
X131896039Y-96988110D01*
X131900750Y-96986424D01*
X131947705Y-96972180D01*
X131952561Y-96970964D01*
X132000686Y-96961392D01*
X132005636Y-96960658D01*
X132054467Y-96955848D01*
X132059466Y-96955602D01*
X132077888Y-96955602D01*
X132084000Y-96955000D01*
X132584000Y-96955000D01*
X132590112Y-96955602D01*
X132608534Y-96955602D01*
X132613533Y-96955848D01*
X132662364Y-96960658D01*
X132667314Y-96961392D01*
X132715439Y-96970964D01*
X132720295Y-96972180D01*
X132767250Y-96986424D01*
X132771961Y-96988110D01*
X132817294Y-97006887D01*
X132821820Y-97009027D01*
X132865093Y-97032158D01*
X132869384Y-97034731D01*
X132910183Y-97061991D01*
X132914204Y-97064973D01*
X132952133Y-97096101D01*
X132955841Y-97099462D01*
X132990538Y-97134159D01*
X132993899Y-97137867D01*
X133025027Y-97175796D01*
X133028009Y-97179817D01*
X133055269Y-97220616D01*
X133057842Y-97224907D01*
X133080973Y-97268180D01*
X133083113Y-97272706D01*
X133101890Y-97318039D01*
X133103576Y-97322750D01*
X133117820Y-97369705D01*
X133119036Y-97374561D01*
X133128608Y-97422686D01*
X133129342Y-97427636D01*
X133134152Y-97476467D01*
X133134398Y-97481466D01*
X133134398Y-97499888D01*
X133135000Y-97506000D01*
X133135000Y-98056000D01*
X133134020Y-98065950D01*
G37*
G04 #@! TD*
D12*
G04 #@! TO.C,J5*
X98552000Y-89916000D03*
X101092000Y-89916000D03*
X103632000Y-89916000D03*
X106172000Y-89916000D03*
G36*
G01*
X107862000Y-89015000D02*
X109562000Y-89015000D01*
G75*
G02*
X109613000Y-89066000I0J-51000D01*
G01*
X109613000Y-90766000D01*
G75*
G02*
X109562000Y-90817000I-51000J0D01*
G01*
X107862000Y-90817000D01*
G75*
G02*
X107811000Y-90766000I0J51000D01*
G01*
X107811000Y-89066000D01*
G75*
G02*
X107862000Y-89015000I51000J0D01*
G01*
G37*
G04 #@! TD*
G04 #@! TO.C,J3*
X136398000Y-120904000D03*
X136398000Y-123444000D03*
X136398000Y-125984000D03*
G36*
G01*
X137299000Y-127674000D02*
X137299000Y-129374000D01*
G75*
G02*
X137248000Y-129425000I-51000J0D01*
G01*
X135548000Y-129425000D01*
G75*
G02*
X135497000Y-129374000I0J51000D01*
G01*
X135497000Y-127674000D01*
G75*
G02*
X135548000Y-127623000I51000J0D01*
G01*
X137248000Y-127623000D01*
G75*
G02*
X137299000Y-127674000I0J-51000D01*
G01*
G37*
G04 #@! TD*
G04 #@! TO.C,J2*
X127635000Y-126365000D03*
G36*
G01*
X124245000Y-125464000D02*
X125945000Y-125464000D01*
G75*
G02*
X125996000Y-125515000I0J-51000D01*
G01*
X125996000Y-127215000D01*
G75*
G02*
X125945000Y-127266000I-51000J0D01*
G01*
X124245000Y-127266000D01*
G75*
G02*
X124194000Y-127215000I0J51000D01*
G01*
X124194000Y-125515000D01*
G75*
G02*
X124245000Y-125464000I51000J0D01*
G01*
G37*
G04 #@! TD*
G04 #@! TO.C,J1*
X105029000Y-136398000D03*
X107569000Y-136398000D03*
X110109000Y-136398000D03*
G36*
G01*
X111799000Y-135497000D02*
X113499000Y-135497000D01*
G75*
G02*
X113550000Y-135548000I0J-51000D01*
G01*
X113550000Y-137248000D01*
G75*
G02*
X113499000Y-137299000I-51000J0D01*
G01*
X111799000Y-137299000D01*
G75*
G02*
X111748000Y-137248000I0J51000D01*
G01*
X111748000Y-135548000D01*
G75*
G02*
X111799000Y-135497000I51000J0D01*
G01*
G37*
G04 #@! TD*
D13*
G04 #@! TO.C,IR2*
X108839000Y-119761000D03*
X111379000Y-119761000D03*
G36*
G01*
X114820000Y-118911000D02*
X114820000Y-120611000D01*
G75*
G02*
X114769000Y-120662000I-51000J0D01*
G01*
X113069000Y-120662000D01*
G75*
G02*
X113018000Y-120611000I0J51000D01*
G01*
X113018000Y-118911000D01*
G75*
G02*
X113069000Y-118860000I51000J0D01*
G01*
X114769000Y-118860000D01*
G75*
G02*
X114820000Y-118911000I0J-51000D01*
G01*
G37*
G04 #@! TD*
D14*
G04 #@! TO.C,H2*
X91694000Y-91694000D03*
G04 #@! TD*
G04 #@! TO.C,H1*
X134874000Y-134874000D03*
G04 #@! TD*
D15*
G04 #@! TO.C,C3*
X119761000Y-91186000D03*
G36*
G01*
X120561000Y-94537000D02*
X118961000Y-94537000D01*
G75*
G02*
X118910000Y-94486000I0J51000D01*
G01*
X118910000Y-92886000D01*
G75*
G02*
X118961000Y-92835000I51000J0D01*
G01*
X120561000Y-92835000D01*
G75*
G02*
X120612000Y-92886000I0J-51000D01*
G01*
X120612000Y-94486000D01*
G75*
G02*
X120561000Y-94537000I-51000J0D01*
G01*
G37*
G04 #@! TD*
G04 #@! TO.C,C2*
G36*
G01*
X124306000Y-96295172D02*
X124306000Y-97252828D01*
G75*
G02*
X124033828Y-97525000I-272172J0D01*
G01*
X123326172Y-97525000D01*
G75*
G02*
X123054000Y-97252828I0J272172D01*
G01*
X123054000Y-96295172D01*
G75*
G02*
X123326172Y-96023000I272172J0D01*
G01*
X124033828Y-96023000D01*
G75*
G02*
X124306000Y-96295172I0J-272172D01*
G01*
G37*
G36*
G01*
X126356000Y-96295172D02*
X126356000Y-97252828D01*
G75*
G02*
X126083828Y-97525000I-272172J0D01*
G01*
X125376172Y-97525000D01*
G75*
G02*
X125104000Y-97252828I0J272172D01*
G01*
X125104000Y-96295172D01*
G75*
G02*
X125376172Y-96023000I272172J0D01*
G01*
X126083828Y-96023000D01*
G75*
G02*
X126356000Y-96295172I0J-272172D01*
G01*
G37*
G04 #@! TD*
G04 #@! TO.C,IR1*
G36*
G01*
X83699500Y-122250000D02*
X86988500Y-122250000D01*
G75*
G02*
X87395000Y-122656500I0J-406500D01*
G01*
X87395000Y-123469500D01*
G75*
G02*
X86988500Y-123876000I-406500J0D01*
G01*
X83699500Y-123876000D01*
G75*
G02*
X83293000Y-123469500I0J406500D01*
G01*
X83293000Y-122656500D01*
G75*
G02*
X83699500Y-122250000I406500J0D01*
G01*
G37*
G36*
G01*
X83699500Y-117170000D02*
X86988500Y-117170000D01*
G75*
G02*
X87395000Y-117576500I0J-406500D01*
G01*
X87395000Y-118389500D01*
G75*
G02*
X86988500Y-118796000I-406500J0D01*
G01*
X83699500Y-118796000D01*
G75*
G02*
X83293000Y-118389500I0J406500D01*
G01*
X83293000Y-117576500D01*
G75*
G02*
X83699500Y-117170000I406500J0D01*
G01*
G37*
D11*
X86614000Y-117983000D03*
X84074000Y-120523000D03*
X86614000Y-123063000D03*
G04 #@! TD*
D12*
G04 #@! TO.C,J4*
X56134000Y-136398000D03*
X53594000Y-136398000D03*
X51054000Y-136398000D03*
G36*
G01*
X47664000Y-135497000D02*
X49364000Y-135497000D01*
G75*
G02*
X49415000Y-135548000I0J-51000D01*
G01*
X49415000Y-137248000D01*
G75*
G02*
X49364000Y-137299000I-51000J0D01*
G01*
X47664000Y-137299000D01*
G75*
G02*
X47613000Y-137248000I0J51000D01*
G01*
X47613000Y-135548000D01*
G75*
G02*
X47664000Y-135497000I51000J0D01*
G01*
G37*
G04 #@! TD*
D13*
G04 #@! TO.C,U4*
X73914000Y-123317000D03*
X71374000Y-123317000D03*
X68834000Y-123317000D03*
X66294000Y-123317000D03*
X61214000Y-123317000D03*
X63754000Y-123317000D03*
X58674000Y-123317000D03*
X56134000Y-123317000D03*
X51054000Y-123317000D03*
X53594000Y-123317000D03*
G36*
G01*
X49364000Y-124218000D02*
X47664000Y-124218000D01*
G75*
G02*
X47613000Y-124167000I0J51000D01*
G01*
X47613000Y-122467000D01*
G75*
G02*
X47664000Y-122416000I51000J0D01*
G01*
X49364000Y-122416000D01*
G75*
G02*
X49415000Y-122467000I0J-51000D01*
G01*
X49415000Y-124167000D01*
G75*
G02*
X49364000Y-124218000I-51000J0D01*
G01*
G37*
G36*
G01*
X49364000Y-103898000D02*
X47664000Y-103898000D01*
G75*
G02*
X47613000Y-103847000I0J51000D01*
G01*
X47613000Y-102147000D01*
G75*
G02*
X47664000Y-102096000I51000J0D01*
G01*
X49364000Y-102096000D01*
G75*
G02*
X49415000Y-102147000I0J-51000D01*
G01*
X49415000Y-103847000D01*
G75*
G02*
X49364000Y-103898000I-51000J0D01*
G01*
G37*
X51054000Y-102997000D03*
X53594000Y-102997000D03*
X56134000Y-102997000D03*
X58674000Y-102997000D03*
X61214000Y-102997000D03*
X63754000Y-102997000D03*
X66294000Y-102997000D03*
X68834000Y-102997000D03*
X71374000Y-102997000D03*
X73914000Y-102997000D03*
G04 #@! TD*
D12*
G04 #@! TO.C,J7*
X85979000Y-99949000D03*
X85979000Y-102489000D03*
X85979000Y-105029000D03*
X85979000Y-107569000D03*
G36*
G01*
X85078000Y-110959000D02*
X85078000Y-109259000D01*
G75*
G02*
X85129000Y-109208000I51000J0D01*
G01*
X86829000Y-109208000D01*
G75*
G02*
X86880000Y-109259000I0J-51000D01*
G01*
X86880000Y-110959000D01*
G75*
G02*
X86829000Y-111010000I-51000J0D01*
G01*
X85129000Y-111010000D01*
G75*
G02*
X85078000Y-110959000I0J51000D01*
G01*
G37*
G04 #@! TD*
G04 #@! TO.C,J6*
X39751000Y-92710000D03*
X39751000Y-95250000D03*
X39751000Y-97790000D03*
X39751000Y-100330000D03*
G36*
G01*
X38850000Y-103720000D02*
X38850000Y-102020000D01*
G75*
G02*
X38901000Y-101969000I51000J0D01*
G01*
X40601000Y-101969000D01*
G75*
G02*
X40652000Y-102020000I0J-51000D01*
G01*
X40652000Y-103720000D01*
G75*
G02*
X40601000Y-103771000I-51000J0D01*
G01*
X38901000Y-103771000D01*
G75*
G02*
X38850000Y-103720000I0J51000D01*
G01*
G37*
G04 #@! TD*
G04 #@! TO.C,U2*
G36*
G01*
X76954000Y-95298500D02*
X76954000Y-94947500D01*
G75*
G02*
X77129500Y-94772000I175500J0D01*
G01*
X79080500Y-94772000D01*
G75*
G02*
X79256000Y-94947500I0J-175500D01*
G01*
X79256000Y-95298500D01*
G75*
G02*
X79080500Y-95474000I-175500J0D01*
G01*
X77129500Y-95474000D01*
G75*
G02*
X76954000Y-95298500I0J175500D01*
G01*
G37*
G36*
G01*
X76954000Y-96568500D02*
X76954000Y-96217500D01*
G75*
G02*
X77129500Y-96042000I175500J0D01*
G01*
X79080500Y-96042000D01*
G75*
G02*
X79256000Y-96217500I0J-175500D01*
G01*
X79256000Y-96568500D01*
G75*
G02*
X79080500Y-96744000I-175500J0D01*
G01*
X77129500Y-96744000D01*
G75*
G02*
X76954000Y-96568500I0J175500D01*
G01*
G37*
G36*
G01*
X76954000Y-97838500D02*
X76954000Y-97487500D01*
G75*
G02*
X77129500Y-97312000I175500J0D01*
G01*
X79080500Y-97312000D01*
G75*
G02*
X79256000Y-97487500I0J-175500D01*
G01*
X79256000Y-97838500D01*
G75*
G02*
X79080500Y-98014000I-175500J0D01*
G01*
X77129500Y-98014000D01*
G75*
G02*
X76954000Y-97838500I0J175500D01*
G01*
G37*
G36*
G01*
X76954000Y-99108500D02*
X76954000Y-98757500D01*
G75*
G02*
X77129500Y-98582000I175500J0D01*
G01*
X79080500Y-98582000D01*
G75*
G02*
X79256000Y-98757500I0J-175500D01*
G01*
X79256000Y-99108500D01*
G75*
G02*
X79080500Y-99284000I-175500J0D01*
G01*
X77129500Y-99284000D01*
G75*
G02*
X76954000Y-99108500I0J175500D01*
G01*
G37*
G36*
G01*
X70354000Y-99108500D02*
X70354000Y-98757500D01*
G75*
G02*
X70529500Y-98582000I175500J0D01*
G01*
X72480500Y-98582000D01*
G75*
G02*
X72656000Y-98757500I0J-175500D01*
G01*
X72656000Y-99108500D01*
G75*
G02*
X72480500Y-99284000I-175500J0D01*
G01*
X70529500Y-99284000D01*
G75*
G02*
X70354000Y-99108500I0J175500D01*
G01*
G37*
G36*
G01*
X70354000Y-97838500D02*
X70354000Y-97487500D01*
G75*
G02*
X70529500Y-97312000I175500J0D01*
G01*
X72480500Y-97312000D01*
G75*
G02*
X72656000Y-97487500I0J-175500D01*
G01*
X72656000Y-97838500D01*
G75*
G02*
X72480500Y-98014000I-175500J0D01*
G01*
X70529500Y-98014000D01*
G75*
G02*
X70354000Y-97838500I0J175500D01*
G01*
G37*
G36*
G01*
X70354000Y-96568500D02*
X70354000Y-96217500D01*
G75*
G02*
X70529500Y-96042000I175500J0D01*
G01*
X72480500Y-96042000D01*
G75*
G02*
X72656000Y-96217500I0J-175500D01*
G01*
X72656000Y-96568500D01*
G75*
G02*
X72480500Y-96744000I-175500J0D01*
G01*
X70529500Y-96744000D01*
G75*
G02*
X70354000Y-96568500I0J175500D01*
G01*
G37*
G36*
G01*
X70354000Y-95298500D02*
X70354000Y-94947500D01*
G75*
G02*
X70529500Y-94772000I175500J0D01*
G01*
X72480500Y-94772000D01*
G75*
G02*
X72656000Y-94947500I0J-175500D01*
G01*
X72656000Y-95298500D01*
G75*
G02*
X72480500Y-95474000I-175500J0D01*
G01*
X70529500Y-95474000D01*
G75*
G02*
X70354000Y-95298500I0J175500D01*
G01*
G37*
G04 #@! TD*
D13*
G04 #@! TO.C,U1*
X66675000Y-129032000D03*
X64135000Y-129032000D03*
X61595000Y-129032000D03*
G36*
G01*
X58154000Y-129882000D02*
X58154000Y-128182000D01*
G75*
G02*
X58205000Y-128131000I51000J0D01*
G01*
X59905000Y-128131000D01*
G75*
G02*
X59956000Y-128182000I0J-51000D01*
G01*
X59956000Y-129882000D01*
G75*
G02*
X59905000Y-129933000I-51000J0D01*
G01*
X58205000Y-129933000D01*
G75*
G02*
X58154000Y-129882000I0J51000D01*
G01*
G37*
G04 #@! TD*
G04 #@! TO.C,SW1*
G36*
G01*
X85506000Y-137141000D02*
X85506000Y-137941000D01*
G75*
G02*
X85455000Y-137992000I-51000J0D01*
G01*
X83455000Y-137992000D01*
G75*
G02*
X83404000Y-137941000I0J51000D01*
G01*
X83404000Y-137141000D01*
G75*
G02*
X83455000Y-137090000I51000J0D01*
G01*
X85455000Y-137090000D01*
G75*
G02*
X85506000Y-137141000I0J-51000D01*
G01*
G37*
G36*
G01*
X85522000Y-136398000D02*
X85522000Y-137922000D01*
G75*
G02*
X85471000Y-137973000I-51000J0D01*
G01*
X84201000Y-137973000D01*
G75*
G02*
X84150000Y-137922000I0J51000D01*
G01*
X84150000Y-136398000D01*
G75*
G02*
X84201000Y-136347000I51000J0D01*
G01*
X85471000Y-136347000D01*
G75*
G02*
X85522000Y-136398000I0J-51000D01*
G01*
G37*
G36*
G01*
X78013000Y-137141000D02*
X78013000Y-137941000D01*
G75*
G02*
X77962000Y-137992000I-51000J0D01*
G01*
X75962000Y-137992000D01*
G75*
G02*
X75911000Y-137941000I0J51000D01*
G01*
X75911000Y-137141000D01*
G75*
G02*
X75962000Y-137090000I51000J0D01*
G01*
X77962000Y-137090000D01*
G75*
G02*
X78013000Y-137141000I0J-51000D01*
G01*
G37*
G36*
G01*
X77267000Y-136398000D02*
X77267000Y-137922000D01*
G75*
G02*
X77216000Y-137973000I-51000J0D01*
G01*
X75946000Y-137973000D01*
G75*
G02*
X75895000Y-137922000I0J51000D01*
G01*
X75895000Y-136398000D01*
G75*
G02*
X75946000Y-136347000I51000J0D01*
G01*
X77216000Y-136347000D01*
G75*
G02*
X77267000Y-136398000I0J-51000D01*
G01*
G37*
G36*
G01*
X83523000Y-133854999D02*
X83523000Y-135855001D01*
G75*
G02*
X83472001Y-135906000I-50999J0D01*
G01*
X82271999Y-135906000D01*
G75*
G02*
X82221000Y-135855001I0J50999D01*
G01*
X82221000Y-133854999D01*
G75*
G02*
X82271999Y-133804000I50999J0D01*
G01*
X83472001Y-133804000D01*
G75*
G02*
X83523000Y-133854999I0J-50999D01*
G01*
G37*
G36*
G01*
X79323000Y-133854999D02*
X79323000Y-135855001D01*
G75*
G02*
X79272001Y-135906000I-50999J0D01*
G01*
X78071999Y-135906000D01*
G75*
G02*
X78021000Y-135855001I0J50999D01*
G01*
X78021000Y-133854999D01*
G75*
G02*
X78071999Y-133804000I50999J0D01*
G01*
X79272001Y-133804000D01*
G75*
G02*
X79323000Y-133854999I0J-50999D01*
G01*
G37*
G04 #@! TD*
G04 #@! TO.C,R5*
G36*
G01*
X60588000Y-100300828D02*
X60588000Y-99343172D01*
G75*
G02*
X60860172Y-99071000I272172J0D01*
G01*
X61567828Y-99071000D01*
G75*
G02*
X61840000Y-99343172I0J-272172D01*
G01*
X61840000Y-100300828D01*
G75*
G02*
X61567828Y-100573000I-272172J0D01*
G01*
X60860172Y-100573000D01*
G75*
G02*
X60588000Y-100300828I0J272172D01*
G01*
G37*
G36*
G01*
X58538000Y-100300828D02*
X58538000Y-99343172D01*
G75*
G02*
X58810172Y-99071000I272172J0D01*
G01*
X59517828Y-99071000D01*
G75*
G02*
X59790000Y-99343172I0J-272172D01*
G01*
X59790000Y-100300828D01*
G75*
G02*
X59517828Y-100573000I-272172J0D01*
G01*
X58810172Y-100573000D01*
G75*
G02*
X58538000Y-100300828I0J272172D01*
G01*
G37*
G04 #@! TD*
G04 #@! TO.C,R4*
G36*
G01*
X68355172Y-130311000D02*
X69312828Y-130311000D01*
G75*
G02*
X69585000Y-130583172I0J-272172D01*
G01*
X69585000Y-131290828D01*
G75*
G02*
X69312828Y-131563000I-272172J0D01*
G01*
X68355172Y-131563000D01*
G75*
G02*
X68083000Y-131290828I0J272172D01*
G01*
X68083000Y-130583172D01*
G75*
G02*
X68355172Y-130311000I272172J0D01*
G01*
G37*
G36*
G01*
X68355172Y-128261000D02*
X69312828Y-128261000D01*
G75*
G02*
X69585000Y-128533172I0J-272172D01*
G01*
X69585000Y-129240828D01*
G75*
G02*
X69312828Y-129513000I-272172J0D01*
G01*
X68355172Y-129513000D01*
G75*
G02*
X68083000Y-129240828I0J272172D01*
G01*
X68083000Y-128533172D01*
G75*
G02*
X68355172Y-128261000I272172J0D01*
G01*
G37*
G04 #@! TD*
G04 #@! TO.C,R3*
G36*
G01*
X60053000Y-126521172D02*
X60053000Y-127478828D01*
G75*
G02*
X59780828Y-127751000I-272172J0D01*
G01*
X59073172Y-127751000D01*
G75*
G02*
X58801000Y-127478828I0J272172D01*
G01*
X58801000Y-126521172D01*
G75*
G02*
X59073172Y-126249000I272172J0D01*
G01*
X59780828Y-126249000D01*
G75*
G02*
X60053000Y-126521172I0J-272172D01*
G01*
G37*
G36*
G01*
X62103000Y-126521172D02*
X62103000Y-127478828D01*
G75*
G02*
X61830828Y-127751000I-272172J0D01*
G01*
X61123172Y-127751000D01*
G75*
G02*
X60851000Y-127478828I0J272172D01*
G01*
X60851000Y-126521172D01*
G75*
G02*
X61123172Y-126249000I272172J0D01*
G01*
X61830828Y-126249000D01*
G75*
G02*
X62103000Y-126521172I0J-272172D01*
G01*
G37*
G04 #@! TD*
D12*
G04 #@! TO.C,J5*
X77597000Y-89916000D03*
X75057000Y-89916000D03*
X72517000Y-89916000D03*
X69977000Y-89916000D03*
G36*
G01*
X66587000Y-89015000D02*
X68287000Y-89015000D01*
G75*
G02*
X68338000Y-89066000I0J-51000D01*
G01*
X68338000Y-90766000D01*
G75*
G02*
X68287000Y-90817000I-51000J0D01*
G01*
X66587000Y-90817000D01*
G75*
G02*
X66536000Y-90766000I0J51000D01*
G01*
X66536000Y-89066000D01*
G75*
G02*
X66587000Y-89015000I51000J0D01*
G01*
G37*
G04 #@! TD*
G04 #@! TO.C,J3*
X39751000Y-120904000D03*
X39751000Y-123444000D03*
X39751000Y-125984000D03*
G36*
G01*
X38850000Y-129374000D02*
X38850000Y-127674000D01*
G75*
G02*
X38901000Y-127623000I51000J0D01*
G01*
X40601000Y-127623000D01*
G75*
G02*
X40652000Y-127674000I0J-51000D01*
G01*
X40652000Y-129374000D01*
G75*
G02*
X40601000Y-129425000I-51000J0D01*
G01*
X38901000Y-129425000D01*
G75*
G02*
X38850000Y-129374000I0J51000D01*
G01*
G37*
G04 #@! TD*
G04 #@! TO.C,J2*
X48514000Y-126365000D03*
G36*
G01*
X50204000Y-125464000D02*
X51904000Y-125464000D01*
G75*
G02*
X51955000Y-125515000I0J-51000D01*
G01*
X51955000Y-127215000D01*
G75*
G02*
X51904000Y-127266000I-51000J0D01*
G01*
X50204000Y-127266000D01*
G75*
G02*
X50153000Y-127215000I0J51000D01*
G01*
X50153000Y-125515000D01*
G75*
G02*
X50204000Y-125464000I51000J0D01*
G01*
G37*
G04 #@! TD*
G04 #@! TO.C,J1*
X71120000Y-136398000D03*
X68580000Y-136398000D03*
X66040000Y-136398000D03*
G36*
G01*
X62650000Y-135497000D02*
X64350000Y-135497000D01*
G75*
G02*
X64401000Y-135548000I0J-51000D01*
G01*
X64401000Y-137248000D01*
G75*
G02*
X64350000Y-137299000I-51000J0D01*
G01*
X62650000Y-137299000D01*
G75*
G02*
X62599000Y-137248000I0J51000D01*
G01*
X62599000Y-135548000D01*
G75*
G02*
X62650000Y-135497000I51000J0D01*
G01*
G37*
G04 #@! TD*
D13*
G04 #@! TO.C,IR2*
X67310000Y-119761000D03*
X64770000Y-119761000D03*
G36*
G01*
X61329000Y-120611000D02*
X61329000Y-118911000D01*
G75*
G02*
X61380000Y-118860000I51000J0D01*
G01*
X63080000Y-118860000D01*
G75*
G02*
X63131000Y-118911000I0J-51000D01*
G01*
X63131000Y-120611000D01*
G75*
G02*
X63080000Y-120662000I-51000J0D01*
G01*
X61380000Y-120662000D01*
G75*
G02*
X61329000Y-120611000I0J51000D01*
G01*
G37*
G04 #@! TD*
D14*
G04 #@! TO.C,H2*
X84455000Y-91694000D03*
G04 #@! TD*
G04 #@! TO.C,H1*
X41275000Y-134874000D03*
G04 #@! TD*
D15*
G04 #@! TO.C,C3*
X56388000Y-91186000D03*
G36*
G01*
X57188000Y-94537000D02*
X55588000Y-94537000D01*
G75*
G02*
X55537000Y-94486000I0J51000D01*
G01*
X55537000Y-92886000D01*
G75*
G02*
X55588000Y-92835000I51000J0D01*
G01*
X57188000Y-92835000D01*
G75*
G02*
X57239000Y-92886000I0J-51000D01*
G01*
X57239000Y-94486000D01*
G75*
G02*
X57188000Y-94537000I-51000J0D01*
G01*
G37*
G04 #@! TD*
G04 #@! TO.C,C1*
G36*
G01*
X81250828Y-131055000D02*
X80293172Y-131055000D01*
G75*
G02*
X80021000Y-130782828I0J272172D01*
G01*
X80021000Y-130075172D01*
G75*
G02*
X80293172Y-129803000I272172J0D01*
G01*
X81250828Y-129803000D01*
G75*
G02*
X81523000Y-130075172I0J-272172D01*
G01*
X81523000Y-130782828D01*
G75*
G02*
X81250828Y-131055000I-272172J0D01*
G01*
G37*
G36*
G01*
X81250828Y-133105000D02*
X80293172Y-133105000D01*
G75*
G02*
X80021000Y-132832828I0J272172D01*
G01*
X80021000Y-132125172D01*
G75*
G02*
X80293172Y-131853000I272172J0D01*
G01*
X81250828Y-131853000D01*
G75*
G02*
X81523000Y-132125172I0J-272172D01*
G01*
X81523000Y-132832828D01*
G75*
G02*
X81250828Y-133105000I-272172J0D01*
G01*
G37*
G04 #@! TD*
D10*
G36*
X83294990Y-123469304D02*
G01*
X83302781Y-123548409D01*
X83325800Y-123624292D01*
X83363179Y-123694223D01*
X83413482Y-123755518D01*
X83474777Y-123805821D01*
X83544708Y-123843200D01*
X83620591Y-123866219D01*
X83699696Y-123874010D01*
X83701322Y-123875175D01*
X83701126Y-123877165D01*
X83699500Y-123878000D01*
X83643140Y-123878000D01*
X83642944Y-123877990D01*
X83569811Y-123870787D01*
X83569426Y-123870711D01*
X83505008Y-123851170D01*
X83504646Y-123851020D01*
X83445276Y-123819286D01*
X83444950Y-123819068D01*
X83392914Y-123776363D01*
X83392637Y-123776086D01*
X83349932Y-123724050D01*
X83349714Y-123723724D01*
X83317980Y-123664354D01*
X83317830Y-123663992D01*
X83298289Y-123599574D01*
X83298213Y-123599189D01*
X83291010Y-123526056D01*
X83291000Y-123525860D01*
X83291000Y-123469500D01*
X83292000Y-123467768D01*
X83294000Y-123467768D01*
X83294990Y-123469304D01*
G37*
G36*
X87396165Y-123467874D02*
G01*
X87397000Y-123469500D01*
X87397000Y-123525860D01*
X87396990Y-123526056D01*
X87389787Y-123599189D01*
X87389711Y-123599574D01*
X87370170Y-123663992D01*
X87370020Y-123664354D01*
X87338286Y-123723724D01*
X87338068Y-123724050D01*
X87295363Y-123776086D01*
X87295086Y-123776363D01*
X87243050Y-123819068D01*
X87242724Y-123819286D01*
X87183354Y-123851020D01*
X87182992Y-123851170D01*
X87118574Y-123870711D01*
X87118189Y-123870787D01*
X87045056Y-123877990D01*
X87044860Y-123878000D01*
X86988500Y-123878000D01*
X86986768Y-123877000D01*
X86986768Y-123875000D01*
X86988304Y-123874010D01*
X87067409Y-123866219D01*
X87143292Y-123843200D01*
X87213223Y-123805821D01*
X87274518Y-123755518D01*
X87324821Y-123694223D01*
X87362200Y-123624292D01*
X87385219Y-123548409D01*
X87393010Y-123469304D01*
X87394175Y-123467678D01*
X87396165Y-123467874D01*
G37*
G36*
X83701232Y-122249000D02*
G01*
X83701232Y-122251000D01*
X83699696Y-122251990D01*
X83620591Y-122259781D01*
X83544708Y-122282800D01*
X83474777Y-122320179D01*
X83413482Y-122370482D01*
X83363179Y-122431777D01*
X83325800Y-122501708D01*
X83302781Y-122577591D01*
X83294990Y-122656696D01*
X83293825Y-122658322D01*
X83291835Y-122658126D01*
X83291000Y-122656500D01*
X83291000Y-122600140D01*
X83291010Y-122599944D01*
X83298213Y-122526811D01*
X83298289Y-122526426D01*
X83317830Y-122462008D01*
X83317980Y-122461646D01*
X83349714Y-122402276D01*
X83349932Y-122401950D01*
X83392637Y-122349914D01*
X83392914Y-122349637D01*
X83444950Y-122306932D01*
X83445276Y-122306714D01*
X83504646Y-122274980D01*
X83505008Y-122274830D01*
X83569426Y-122255289D01*
X83569811Y-122255213D01*
X83642944Y-122248010D01*
X83643140Y-122248000D01*
X83699500Y-122248000D01*
X83701232Y-122249000D01*
G37*
G36*
X87045056Y-122248010D02*
G01*
X87118189Y-122255213D01*
X87118574Y-122255289D01*
X87182992Y-122274830D01*
X87183354Y-122274980D01*
X87242724Y-122306714D01*
X87243050Y-122306932D01*
X87295086Y-122349637D01*
X87295363Y-122349914D01*
X87338068Y-122401950D01*
X87338286Y-122402276D01*
X87370020Y-122461646D01*
X87370170Y-122462008D01*
X87389711Y-122526426D01*
X87389787Y-122526811D01*
X87396990Y-122599944D01*
X87397000Y-122600140D01*
X87397000Y-122656500D01*
X87396000Y-122658232D01*
X87394000Y-122658232D01*
X87393010Y-122656696D01*
X87385219Y-122577591D01*
X87362200Y-122501708D01*
X87324821Y-122431777D01*
X87274518Y-122370482D01*
X87213223Y-122320179D01*
X87143292Y-122282800D01*
X87067409Y-122259781D01*
X86988304Y-122251990D01*
X86986678Y-122250825D01*
X86986874Y-122248835D01*
X86988500Y-122248000D01*
X87044860Y-122248000D01*
X87045056Y-122248010D01*
G37*
G36*
X88755990Y-120929304D02*
G01*
X88763781Y-121008409D01*
X88786800Y-121084292D01*
X88824179Y-121154223D01*
X88874482Y-121215518D01*
X88935777Y-121265821D01*
X89005708Y-121303200D01*
X89081591Y-121326219D01*
X89160696Y-121334010D01*
X89162322Y-121335175D01*
X89162126Y-121337165D01*
X89160500Y-121338000D01*
X89104140Y-121338000D01*
X89103944Y-121337990D01*
X89030811Y-121330787D01*
X89030426Y-121330711D01*
X88966008Y-121311170D01*
X88965646Y-121311020D01*
X88906276Y-121279286D01*
X88905950Y-121279068D01*
X88853914Y-121236363D01*
X88853637Y-121236086D01*
X88810932Y-121184050D01*
X88810714Y-121183724D01*
X88778980Y-121124354D01*
X88778830Y-121123992D01*
X88759289Y-121059574D01*
X88759213Y-121059189D01*
X88752010Y-120986056D01*
X88752000Y-120985860D01*
X88752000Y-120929500D01*
X88753000Y-120927768D01*
X88755000Y-120927768D01*
X88755990Y-120929304D01*
G37*
G36*
X92857165Y-120927874D02*
G01*
X92858000Y-120929500D01*
X92858000Y-120985860D01*
X92857990Y-120986056D01*
X92850787Y-121059189D01*
X92850711Y-121059574D01*
X92831170Y-121123992D01*
X92831020Y-121124354D01*
X92799286Y-121183724D01*
X92799068Y-121184050D01*
X92756363Y-121236086D01*
X92756086Y-121236363D01*
X92704050Y-121279068D01*
X92703724Y-121279286D01*
X92644354Y-121311020D01*
X92643992Y-121311170D01*
X92579574Y-121330711D01*
X92579189Y-121330787D01*
X92506056Y-121337990D01*
X92505860Y-121338000D01*
X92449500Y-121338000D01*
X92447768Y-121337000D01*
X92447768Y-121335000D01*
X92449304Y-121334010D01*
X92528409Y-121326219D01*
X92604292Y-121303200D01*
X92674223Y-121265821D01*
X92735518Y-121215518D01*
X92785821Y-121154223D01*
X92823200Y-121084292D01*
X92846219Y-121008409D01*
X92854010Y-120929304D01*
X92855175Y-120927678D01*
X92857165Y-120927874D01*
G37*
G36*
X89162232Y-119709000D02*
G01*
X89162232Y-119711000D01*
X89160696Y-119711990D01*
X89081591Y-119719781D01*
X89005708Y-119742800D01*
X88935777Y-119780179D01*
X88874482Y-119830482D01*
X88824179Y-119891777D01*
X88786800Y-119961708D01*
X88763781Y-120037591D01*
X88755990Y-120116696D01*
X88754825Y-120118322D01*
X88752835Y-120118126D01*
X88752000Y-120116500D01*
X88752000Y-120060140D01*
X88752010Y-120059944D01*
X88759213Y-119986811D01*
X88759289Y-119986426D01*
X88778830Y-119922008D01*
X88778980Y-119921646D01*
X88810714Y-119862276D01*
X88810932Y-119861950D01*
X88853637Y-119809914D01*
X88853914Y-119809637D01*
X88905950Y-119766932D01*
X88906276Y-119766714D01*
X88965646Y-119734980D01*
X88966008Y-119734830D01*
X89030426Y-119715289D01*
X89030811Y-119715213D01*
X89103944Y-119708010D01*
X89104140Y-119708000D01*
X89160500Y-119708000D01*
X89162232Y-119709000D01*
G37*
G36*
X92506056Y-119708010D02*
G01*
X92579189Y-119715213D01*
X92579574Y-119715289D01*
X92643992Y-119734830D01*
X92644354Y-119734980D01*
X92703724Y-119766714D01*
X92704050Y-119766932D01*
X92756086Y-119809637D01*
X92756363Y-119809914D01*
X92799068Y-119861950D01*
X92799286Y-119862276D01*
X92831020Y-119921646D01*
X92831170Y-119922008D01*
X92850711Y-119986426D01*
X92850787Y-119986811D01*
X92857990Y-120059944D01*
X92858000Y-120060140D01*
X92858000Y-120116500D01*
X92857000Y-120118232D01*
X92855000Y-120118232D01*
X92854010Y-120116696D01*
X92846219Y-120037591D01*
X92823200Y-119961708D01*
X92785821Y-119891777D01*
X92735518Y-119830482D01*
X92674223Y-119780179D01*
X92604292Y-119742800D01*
X92528409Y-119719781D01*
X92449304Y-119711990D01*
X92447678Y-119710825D01*
X92447874Y-119708835D01*
X92449500Y-119708000D01*
X92505860Y-119708000D01*
X92506056Y-119708010D01*
G37*
G36*
X83294990Y-118389304D02*
G01*
X83302781Y-118468409D01*
X83325800Y-118544292D01*
X83363179Y-118614223D01*
X83413482Y-118675518D01*
X83474777Y-118725821D01*
X83544708Y-118763200D01*
X83620591Y-118786219D01*
X83699696Y-118794010D01*
X83701322Y-118795175D01*
X83701126Y-118797165D01*
X83699500Y-118798000D01*
X83643140Y-118798000D01*
X83642944Y-118797990D01*
X83569811Y-118790787D01*
X83569426Y-118790711D01*
X83505008Y-118771170D01*
X83504646Y-118771020D01*
X83445276Y-118739286D01*
X83444950Y-118739068D01*
X83392914Y-118696363D01*
X83392637Y-118696086D01*
X83349932Y-118644050D01*
X83349714Y-118643724D01*
X83317980Y-118584354D01*
X83317830Y-118583992D01*
X83298289Y-118519574D01*
X83298213Y-118519189D01*
X83291010Y-118446056D01*
X83291000Y-118445860D01*
X83291000Y-118389500D01*
X83292000Y-118387768D01*
X83294000Y-118387768D01*
X83294990Y-118389304D01*
G37*
G36*
X87396165Y-118387874D02*
G01*
X87397000Y-118389500D01*
X87397000Y-118445860D01*
X87396990Y-118446056D01*
X87389787Y-118519189D01*
X87389711Y-118519574D01*
X87370170Y-118583992D01*
X87370020Y-118584354D01*
X87338286Y-118643724D01*
X87338068Y-118644050D01*
X87295363Y-118696086D01*
X87295086Y-118696363D01*
X87243050Y-118739068D01*
X87242724Y-118739286D01*
X87183354Y-118771020D01*
X87182992Y-118771170D01*
X87118574Y-118790711D01*
X87118189Y-118790787D01*
X87045056Y-118797990D01*
X87044860Y-118798000D01*
X86988500Y-118798000D01*
X86986768Y-118797000D01*
X86986768Y-118795000D01*
X86988304Y-118794010D01*
X87067409Y-118786219D01*
X87143292Y-118763200D01*
X87213223Y-118725821D01*
X87274518Y-118675518D01*
X87324821Y-118614223D01*
X87362200Y-118544292D01*
X87385219Y-118468409D01*
X87393010Y-118389304D01*
X87394175Y-118387678D01*
X87396165Y-118387874D01*
G37*
G36*
X83701232Y-117169000D02*
G01*
X83701232Y-117171000D01*
X83699696Y-117171990D01*
X83620591Y-117179781D01*
X83544708Y-117202800D01*
X83474777Y-117240179D01*
X83413482Y-117290482D01*
X83363179Y-117351777D01*
X83325800Y-117421708D01*
X83302781Y-117497591D01*
X83294990Y-117576696D01*
X83293825Y-117578322D01*
X83291835Y-117578126D01*
X83291000Y-117576500D01*
X83291000Y-117520140D01*
X83291010Y-117519944D01*
X83298213Y-117446811D01*
X83298289Y-117446426D01*
X83317830Y-117382008D01*
X83317980Y-117381646D01*
X83349714Y-117322276D01*
X83349932Y-117321950D01*
X83392637Y-117269914D01*
X83392914Y-117269637D01*
X83444950Y-117226932D01*
X83445276Y-117226714D01*
X83504646Y-117194980D01*
X83505008Y-117194830D01*
X83569426Y-117175289D01*
X83569811Y-117175213D01*
X83642944Y-117168010D01*
X83643140Y-117168000D01*
X83699500Y-117168000D01*
X83701232Y-117169000D01*
G37*
G36*
X87045056Y-117168010D02*
G01*
X87118189Y-117175213D01*
X87118574Y-117175289D01*
X87182992Y-117194830D01*
X87183354Y-117194980D01*
X87242724Y-117226714D01*
X87243050Y-117226932D01*
X87295086Y-117269637D01*
X87295363Y-117269914D01*
X87338068Y-117321950D01*
X87338286Y-117322276D01*
X87370020Y-117381646D01*
X87370170Y-117382008D01*
X87389711Y-117446426D01*
X87389787Y-117446811D01*
X87396990Y-117519944D01*
X87397000Y-117520140D01*
X87397000Y-117576500D01*
X87396000Y-117578232D01*
X87394000Y-117578232D01*
X87393010Y-117576696D01*
X87385219Y-117497591D01*
X87362200Y-117421708D01*
X87324821Y-117351777D01*
X87274518Y-117290482D01*
X87213223Y-117240179D01*
X87143292Y-117202800D01*
X87067409Y-117179781D01*
X86988304Y-117171990D01*
X86986678Y-117170825D01*
X86986874Y-117168835D01*
X86988500Y-117168000D01*
X87044860Y-117168000D01*
X87045056Y-117168010D01*
G37*
G36*
X133136732Y-99356000D02*
G01*
X133137000Y-99357000D01*
X133137000Y-99420252D01*
X133136764Y-99421195D01*
X133129421Y-99434933D01*
X133122421Y-99458008D01*
X133120058Y-99481999D01*
X133122421Y-99505990D01*
X133129478Y-99529253D01*
X133129024Y-99531201D01*
X133127110Y-99531782D01*
X133125800Y-99530777D01*
X133124734Y-99528782D01*
X133118641Y-99521359D01*
X133111218Y-99515266D01*
X133102748Y-99510739D01*
X133093555Y-99507950D01*
X133083906Y-99507000D01*
X131584094Y-99507000D01*
X131574445Y-99507950D01*
X131565252Y-99510739D01*
X131556782Y-99515266D01*
X131549359Y-99521359D01*
X131543266Y-99528782D01*
X131540100Y-99534707D01*
X131538402Y-99535763D01*
X131536638Y-99534820D01*
X131536422Y-99533184D01*
X131536912Y-99531567D01*
X131536978Y-99531382D01*
X131542644Y-99517703D01*
X131547349Y-99494053D01*
X131547349Y-99469946D01*
X131542645Y-99446296D01*
X131533419Y-99424022D01*
X131531337Y-99420906D01*
X131531000Y-99419795D01*
X131531000Y-99357000D01*
X131532000Y-99355268D01*
X131533000Y-99355000D01*
X133135000Y-99355000D01*
X133136732Y-99356000D01*
G37*
G36*
X133131362Y-98077180D02*
G01*
X133131578Y-98078816D01*
X133131088Y-98080433D01*
X133131022Y-98080618D01*
X133125356Y-98094297D01*
X133120651Y-98117947D01*
X133120651Y-98142054D01*
X133125355Y-98165704D01*
X133134581Y-98187978D01*
X133136663Y-98191094D01*
X133137000Y-98192205D01*
X133137000Y-98255000D01*
X133136000Y-98256732D01*
X133135000Y-98257000D01*
X131533000Y-98257000D01*
X131531268Y-98256000D01*
X131531000Y-98255000D01*
X131531000Y-98191748D01*
X131531236Y-98190805D01*
X131538579Y-98177067D01*
X131545579Y-98153992D01*
X131547942Y-98130001D01*
X131545579Y-98106010D01*
X131538522Y-98082747D01*
X131538976Y-98080799D01*
X131540890Y-98080218D01*
X131542200Y-98081223D01*
X131543266Y-98083218D01*
X131549359Y-98090641D01*
X131556782Y-98096734D01*
X131565252Y-98101261D01*
X131574445Y-98104050D01*
X131584094Y-98105000D01*
X133083906Y-98105000D01*
X133093555Y-98104050D01*
X133102748Y-98101261D01*
X133111218Y-98096734D01*
X133118641Y-98090641D01*
X133124734Y-98083218D01*
X133127900Y-98077293D01*
X133129598Y-98076237D01*
X133131362Y-98077180D01*
G37*
G36*
X44617732Y-77893000D02*
G01*
X44618000Y-77894000D01*
X44618000Y-77957252D01*
X44617764Y-77958195D01*
X44610421Y-77971933D01*
X44603421Y-77995008D01*
X44601058Y-78018999D01*
X44603421Y-78042990D01*
X44610478Y-78066253D01*
X44610024Y-78068201D01*
X44608110Y-78068782D01*
X44606800Y-78067777D01*
X44605734Y-78065782D01*
X44599641Y-78058359D01*
X44592218Y-78052266D01*
X44583748Y-78047739D01*
X44574555Y-78044950D01*
X44564906Y-78044000D01*
X43065094Y-78044000D01*
X43055445Y-78044950D01*
X43046252Y-78047739D01*
X43037782Y-78052266D01*
X43030359Y-78058359D01*
X43024266Y-78065782D01*
X43021100Y-78071707D01*
X43019402Y-78072763D01*
X43017638Y-78071820D01*
X43017422Y-78070184D01*
X43017912Y-78068567D01*
X43017978Y-78068382D01*
X43023644Y-78054703D01*
X43028349Y-78031053D01*
X43028349Y-78006946D01*
X43023645Y-77983296D01*
X43014419Y-77961022D01*
X43012337Y-77957906D01*
X43012000Y-77956795D01*
X43012000Y-77894000D01*
X43013000Y-77892268D01*
X43014000Y-77892000D01*
X44616000Y-77892000D01*
X44617732Y-77893000D01*
G37*
G36*
X44612362Y-76614180D02*
G01*
X44612578Y-76615816D01*
X44612088Y-76617433D01*
X44612022Y-76617618D01*
X44606356Y-76631297D01*
X44601651Y-76654947D01*
X44601651Y-76679054D01*
X44606355Y-76702704D01*
X44615581Y-76724978D01*
X44617663Y-76728094D01*
X44618000Y-76729205D01*
X44618000Y-76792000D01*
X44617000Y-76793732D01*
X44616000Y-76794000D01*
X43014000Y-76794000D01*
X43012268Y-76793000D01*
X43012000Y-76792000D01*
X43012000Y-76728748D01*
X43012236Y-76727805D01*
X43019579Y-76714067D01*
X43026579Y-76690992D01*
X43028942Y-76667001D01*
X43026579Y-76643010D01*
X43019522Y-76619747D01*
X43019976Y-76617799D01*
X43021890Y-76617218D01*
X43023200Y-76618223D01*
X43024266Y-76620218D01*
X43030359Y-76627641D01*
X43037782Y-76633734D01*
X43046252Y-76638261D01*
X43055445Y-76641050D01*
X43065094Y-76642000D01*
X44564906Y-76642000D01*
X44574555Y-76641050D01*
X44583748Y-76638261D01*
X44592218Y-76633734D01*
X44599641Y-76627641D01*
X44605734Y-76620218D01*
X44608900Y-76614293D01*
X44610598Y-76613237D01*
X44612362Y-76614180D01*
G37*
G36*
X88755990Y-58572304D02*
G01*
X88763781Y-58651409D01*
X88786800Y-58727292D01*
X88824179Y-58797223D01*
X88874482Y-58858518D01*
X88935777Y-58908821D01*
X89005708Y-58946200D01*
X89081591Y-58969219D01*
X89160696Y-58977010D01*
X89162322Y-58978175D01*
X89162126Y-58980165D01*
X89160500Y-58981000D01*
X89104140Y-58981000D01*
X89103944Y-58980990D01*
X89030811Y-58973787D01*
X89030426Y-58973711D01*
X88966008Y-58954170D01*
X88965646Y-58954020D01*
X88906276Y-58922286D01*
X88905950Y-58922068D01*
X88853914Y-58879363D01*
X88853637Y-58879086D01*
X88810932Y-58827050D01*
X88810714Y-58826724D01*
X88778980Y-58767354D01*
X88778830Y-58766992D01*
X88759289Y-58702574D01*
X88759213Y-58702189D01*
X88752010Y-58629056D01*
X88752000Y-58628860D01*
X88752000Y-58572500D01*
X88753000Y-58570768D01*
X88755000Y-58570768D01*
X88755990Y-58572304D01*
G37*
G36*
X92857165Y-58570874D02*
G01*
X92858000Y-58572500D01*
X92858000Y-58628860D01*
X92857990Y-58629056D01*
X92850787Y-58702189D01*
X92850711Y-58702574D01*
X92831170Y-58766992D01*
X92831020Y-58767354D01*
X92799286Y-58826724D01*
X92799068Y-58827050D01*
X92756363Y-58879086D01*
X92756086Y-58879363D01*
X92704050Y-58922068D01*
X92703724Y-58922286D01*
X92644354Y-58954020D01*
X92643992Y-58954170D01*
X92579574Y-58973711D01*
X92579189Y-58973787D01*
X92506056Y-58980990D01*
X92505860Y-58981000D01*
X92449500Y-58981000D01*
X92447768Y-58980000D01*
X92447768Y-58978000D01*
X92449304Y-58977010D01*
X92528409Y-58969219D01*
X92604292Y-58946200D01*
X92674223Y-58908821D01*
X92735518Y-58858518D01*
X92785821Y-58797223D01*
X92823200Y-58727292D01*
X92846219Y-58651409D01*
X92854010Y-58572304D01*
X92855175Y-58570678D01*
X92857165Y-58570874D01*
G37*
G36*
X89162232Y-57352000D02*
G01*
X89162232Y-57354000D01*
X89160696Y-57354990D01*
X89081591Y-57362781D01*
X89005708Y-57385800D01*
X88935777Y-57423179D01*
X88874482Y-57473482D01*
X88824179Y-57534777D01*
X88786800Y-57604708D01*
X88763781Y-57680591D01*
X88755990Y-57759696D01*
X88754825Y-57761322D01*
X88752835Y-57761126D01*
X88752000Y-57759500D01*
X88752000Y-57703140D01*
X88752010Y-57702944D01*
X88759213Y-57629811D01*
X88759289Y-57629426D01*
X88778830Y-57565008D01*
X88778980Y-57564646D01*
X88810714Y-57505276D01*
X88810932Y-57504950D01*
X88853637Y-57452914D01*
X88853914Y-57452637D01*
X88905950Y-57409932D01*
X88906276Y-57409714D01*
X88965646Y-57377980D01*
X88966008Y-57377830D01*
X89030426Y-57358289D01*
X89030811Y-57358213D01*
X89103944Y-57351010D01*
X89104140Y-57351000D01*
X89160500Y-57351000D01*
X89162232Y-57352000D01*
G37*
G36*
X92506056Y-57351010D02*
G01*
X92579189Y-57358213D01*
X92579574Y-57358289D01*
X92643992Y-57377830D01*
X92644354Y-57377980D01*
X92703724Y-57409714D01*
X92704050Y-57409932D01*
X92756086Y-57452637D01*
X92756363Y-57452914D01*
X92799068Y-57504950D01*
X92799286Y-57505276D01*
X92831020Y-57564646D01*
X92831170Y-57565008D01*
X92850711Y-57629426D01*
X92850787Y-57629811D01*
X92857990Y-57702944D01*
X92858000Y-57703140D01*
X92858000Y-57759500D01*
X92857000Y-57761232D01*
X92855000Y-57761232D01*
X92854010Y-57759696D01*
X92846219Y-57680591D01*
X92823200Y-57604708D01*
X92785821Y-57534777D01*
X92735518Y-57473482D01*
X92674223Y-57423179D01*
X92604292Y-57385800D01*
X92528409Y-57362781D01*
X92449304Y-57354990D01*
X92447678Y-57353825D01*
X92447874Y-57351835D01*
X92449500Y-57351000D01*
X92505860Y-57351000D01*
X92506056Y-57351010D01*
G37*
G36*
X83294990Y-56032304D02*
G01*
X83302781Y-56111409D01*
X83325800Y-56187292D01*
X83363179Y-56257223D01*
X83413482Y-56318518D01*
X83474777Y-56368821D01*
X83544708Y-56406200D01*
X83620591Y-56429219D01*
X83699696Y-56437010D01*
X83701322Y-56438175D01*
X83701126Y-56440165D01*
X83699500Y-56441000D01*
X83643140Y-56441000D01*
X83642944Y-56440990D01*
X83569811Y-56433787D01*
X83569426Y-56433711D01*
X83505008Y-56414170D01*
X83504646Y-56414020D01*
X83445276Y-56382286D01*
X83444950Y-56382068D01*
X83392914Y-56339363D01*
X83392637Y-56339086D01*
X83349932Y-56287050D01*
X83349714Y-56286724D01*
X83317980Y-56227354D01*
X83317830Y-56226992D01*
X83298289Y-56162574D01*
X83298213Y-56162189D01*
X83291010Y-56089056D01*
X83291000Y-56088860D01*
X83291000Y-56032500D01*
X83292000Y-56030768D01*
X83294000Y-56030768D01*
X83294990Y-56032304D01*
G37*
G36*
X87396165Y-56030874D02*
G01*
X87397000Y-56032500D01*
X87397000Y-56088860D01*
X87396990Y-56089056D01*
X87389787Y-56162189D01*
X87389711Y-56162574D01*
X87370170Y-56226992D01*
X87370020Y-56227354D01*
X87338286Y-56286724D01*
X87338068Y-56287050D01*
X87295363Y-56339086D01*
X87295086Y-56339363D01*
X87243050Y-56382068D01*
X87242724Y-56382286D01*
X87183354Y-56414020D01*
X87182992Y-56414170D01*
X87118574Y-56433711D01*
X87118189Y-56433787D01*
X87045056Y-56440990D01*
X87044860Y-56441000D01*
X86988500Y-56441000D01*
X86986768Y-56440000D01*
X86986768Y-56438000D01*
X86988304Y-56437010D01*
X87067409Y-56429219D01*
X87143292Y-56406200D01*
X87213223Y-56368821D01*
X87274518Y-56318518D01*
X87324821Y-56257223D01*
X87362200Y-56187292D01*
X87385219Y-56111409D01*
X87393010Y-56032304D01*
X87394175Y-56030678D01*
X87396165Y-56030874D01*
G37*
G36*
X83701232Y-54812000D02*
G01*
X83701232Y-54814000D01*
X83699696Y-54814990D01*
X83620591Y-54822781D01*
X83544708Y-54845800D01*
X83474777Y-54883179D01*
X83413482Y-54933482D01*
X83363179Y-54994777D01*
X83325800Y-55064708D01*
X83302781Y-55140591D01*
X83294990Y-55219696D01*
X83293825Y-55221322D01*
X83291835Y-55221126D01*
X83291000Y-55219500D01*
X83291000Y-55163140D01*
X83291010Y-55162944D01*
X83298213Y-55089811D01*
X83298289Y-55089426D01*
X83317830Y-55025008D01*
X83317980Y-55024646D01*
X83349714Y-54965276D01*
X83349932Y-54964950D01*
X83392637Y-54912914D01*
X83392914Y-54912637D01*
X83444950Y-54869932D01*
X83445276Y-54869714D01*
X83504646Y-54837980D01*
X83505008Y-54837830D01*
X83569426Y-54818289D01*
X83569811Y-54818213D01*
X83642944Y-54811010D01*
X83643140Y-54811000D01*
X83699500Y-54811000D01*
X83701232Y-54812000D01*
G37*
G36*
X87045056Y-54811010D02*
G01*
X87118189Y-54818213D01*
X87118574Y-54818289D01*
X87182992Y-54837830D01*
X87183354Y-54837980D01*
X87242724Y-54869714D01*
X87243050Y-54869932D01*
X87295086Y-54912637D01*
X87295363Y-54912914D01*
X87338068Y-54964950D01*
X87338286Y-54965276D01*
X87370020Y-55024646D01*
X87370170Y-55025008D01*
X87389711Y-55089426D01*
X87389787Y-55089811D01*
X87396990Y-55162944D01*
X87397000Y-55163140D01*
X87397000Y-55219500D01*
X87396000Y-55221232D01*
X87394000Y-55221232D01*
X87393010Y-55219696D01*
X87385219Y-55140591D01*
X87362200Y-55064708D01*
X87324821Y-54994777D01*
X87274518Y-54933482D01*
X87213223Y-54883179D01*
X87143292Y-54845800D01*
X87067409Y-54822781D01*
X86988304Y-54814990D01*
X86986678Y-54813825D01*
X86986874Y-54811835D01*
X86988500Y-54811000D01*
X87044860Y-54811000D01*
X87045056Y-54811010D01*
G37*
G36*
X92857165Y-53490874D02*
G01*
X92858000Y-53492500D01*
X92858000Y-53548860D01*
X92857990Y-53549056D01*
X92850787Y-53622189D01*
X92850711Y-53622574D01*
X92831170Y-53686992D01*
X92831020Y-53687354D01*
X92799286Y-53746724D01*
X92799068Y-53747050D01*
X92756363Y-53799086D01*
X92756086Y-53799363D01*
X92704050Y-53842068D01*
X92703724Y-53842286D01*
X92644354Y-53874020D01*
X92643992Y-53874170D01*
X92579574Y-53893711D01*
X92579189Y-53893787D01*
X92506056Y-53900990D01*
X92505860Y-53901000D01*
X92449500Y-53901000D01*
X92447768Y-53900000D01*
X92447768Y-53898000D01*
X92449304Y-53897010D01*
X92528409Y-53889219D01*
X92604292Y-53866200D01*
X92674223Y-53828821D01*
X92735518Y-53778518D01*
X92785821Y-53717223D01*
X92823200Y-53647292D01*
X92846219Y-53571409D01*
X92854010Y-53492304D01*
X92855175Y-53490678D01*
X92857165Y-53490874D01*
G37*
G36*
X88755990Y-53492304D02*
G01*
X88763781Y-53571409D01*
X88786800Y-53647292D01*
X88824179Y-53717223D01*
X88874482Y-53778518D01*
X88935777Y-53828821D01*
X89005708Y-53866200D01*
X89081591Y-53889219D01*
X89160696Y-53897010D01*
X89162322Y-53898175D01*
X89162126Y-53900165D01*
X89160500Y-53901000D01*
X89104140Y-53901000D01*
X89103944Y-53900990D01*
X89030811Y-53893787D01*
X89030426Y-53893711D01*
X88966008Y-53874170D01*
X88965646Y-53874020D01*
X88906276Y-53842286D01*
X88905950Y-53842068D01*
X88853914Y-53799363D01*
X88853637Y-53799086D01*
X88810932Y-53747050D01*
X88810714Y-53746724D01*
X88778980Y-53687354D01*
X88778830Y-53686992D01*
X88759289Y-53622574D01*
X88759213Y-53622189D01*
X88752010Y-53549056D01*
X88752000Y-53548860D01*
X88752000Y-53492500D01*
X88753000Y-53490768D01*
X88755000Y-53490768D01*
X88755990Y-53492304D01*
G37*
G36*
X89162232Y-52272000D02*
G01*
X89162232Y-52274000D01*
X89160696Y-52274990D01*
X89081591Y-52282781D01*
X89005708Y-52305800D01*
X88935777Y-52343179D01*
X88874482Y-52393482D01*
X88824179Y-52454777D01*
X88786800Y-52524708D01*
X88763781Y-52600591D01*
X88755990Y-52679696D01*
X88754825Y-52681322D01*
X88752835Y-52681126D01*
X88752000Y-52679500D01*
X88752000Y-52623140D01*
X88752010Y-52622944D01*
X88759213Y-52549811D01*
X88759289Y-52549426D01*
X88778830Y-52485008D01*
X88778980Y-52484646D01*
X88810714Y-52425276D01*
X88810932Y-52424950D01*
X88853637Y-52372914D01*
X88853914Y-52372637D01*
X88905950Y-52329932D01*
X88906276Y-52329714D01*
X88965646Y-52297980D01*
X88966008Y-52297830D01*
X89030426Y-52278289D01*
X89030811Y-52278213D01*
X89103944Y-52271010D01*
X89104140Y-52271000D01*
X89160500Y-52271000D01*
X89162232Y-52272000D01*
G37*
G36*
X92506056Y-52271010D02*
G01*
X92579189Y-52278213D01*
X92579574Y-52278289D01*
X92643992Y-52297830D01*
X92644354Y-52297980D01*
X92703724Y-52329714D01*
X92704050Y-52329932D01*
X92756086Y-52372637D01*
X92756363Y-52372914D01*
X92799068Y-52424950D01*
X92799286Y-52425276D01*
X92831020Y-52484646D01*
X92831170Y-52485008D01*
X92850711Y-52549426D01*
X92850787Y-52549811D01*
X92857990Y-52622944D01*
X92858000Y-52623140D01*
X92858000Y-52679500D01*
X92857000Y-52681232D01*
X92855000Y-52681232D01*
X92854010Y-52679696D01*
X92846219Y-52600591D01*
X92823200Y-52524708D01*
X92785821Y-52454777D01*
X92735518Y-52393482D01*
X92674223Y-52343179D01*
X92604292Y-52305800D01*
X92528409Y-52282781D01*
X92449304Y-52274990D01*
X92447678Y-52273825D01*
X92447874Y-52271835D01*
X92449500Y-52271000D01*
X92505860Y-52271000D01*
X92506056Y-52271010D01*
G37*
M02*
