G04 #@! TF.GenerationSoftware,KiCad,Pcbnew,5.1.8-1.fc31*
G04 #@! TF.CreationDate,2021-06-10T12:46:03+02:00*
G04 #@! TF.ProjectId,LoRaWANV2_panelized,4c6f5261-5741-44e5-9632-5f70616e656c,rev?*
G04 #@! TF.SameCoordinates,Original*
G04 #@! TF.FileFunction,Profile,NP*
%FSLAX46Y46*%
G04 Gerber Fmt 4.6, Leading zero omitted, Abs format (unit mm)*
G04 Created by KiCad (PCBNEW 5.1.8-1.fc31) date 2021-06-10 12:46:03*
%MOMM*%
%LPD*%
G01*
G04 APERTURE LIST*
G04 #@! TA.AperFunction,Profile*
%ADD10C,0.050000*%
G04 #@! TD*
G04 APERTURE END LIST*
D10*
X87630000Y-40132000D02*
X88519000Y-40132000D01*
X136017000Y-87630000D02*
X136017000Y-88519000D01*
X87630000Y-136017000D02*
X88519000Y-136017000D01*
X40132000Y-88519000D02*
X40132000Y-87630000D01*
X40132000Y-87630000D02*
G75*
G02*
X38100000Y-85598000I0J2032000D01*
G01*
X85598000Y-38100000D02*
G75*
G02*
X87630000Y-40132000I0J-2032000D01*
G01*
X38100000Y-40132000D02*
G75*
G02*
X40132000Y-38100000I2032000J0D01*
G01*
X46482000Y-58674000D02*
G75*
G02*
X48514000Y-60706000I0J-2032000D01*
G01*
X48514000Y-65278000D02*
G75*
G02*
X46482000Y-67310000I-2032000J0D01*
G01*
X38100000Y-69342000D02*
G75*
G02*
X40132000Y-67310000I2032000J0D01*
G01*
X40132000Y-58674000D02*
G75*
G02*
X38100000Y-56642000I0J2032000D01*
G01*
X38100000Y-69342000D02*
X38100000Y-85598000D01*
X38100000Y-56642000D02*
X38100000Y-40132000D01*
X46482000Y-67310000D02*
X40132000Y-67310000D01*
X48514000Y-60706000D02*
X48514000Y-65278000D01*
X40132000Y-58674000D02*
X46482000Y-58674000D01*
X40132000Y-38100000D02*
X85598000Y-38100000D01*
X136017000Y-87630000D02*
G75*
G03*
X138049000Y-85598000I0J2032000D01*
G01*
X90551000Y-38100000D02*
G75*
G03*
X88519000Y-40132000I0J-2032000D01*
G01*
X138049000Y-40132000D02*
G75*
G03*
X136017000Y-38100000I-2032000J0D01*
G01*
X129667000Y-58674000D02*
G75*
G03*
X127635000Y-60706000I0J-2032000D01*
G01*
X127635000Y-65278000D02*
G75*
G03*
X129667000Y-67310000I2032000J0D01*
G01*
X138049000Y-69342000D02*
G75*
G03*
X136017000Y-67310000I-2032000J0D01*
G01*
X136017000Y-58674000D02*
G75*
G03*
X138049000Y-56642000I0J2032000D01*
G01*
X138049000Y-69342000D02*
X138049000Y-85598000D01*
X138049000Y-56642000D02*
X138049000Y-40132000D01*
X129667000Y-67310000D02*
X136017000Y-67310000D01*
X127635000Y-60706000D02*
X127635000Y-65278000D01*
X136017000Y-58674000D02*
X129667000Y-58674000D01*
X136017000Y-38100000D02*
X90551000Y-38100000D01*
X136017000Y-88519000D02*
G75*
G02*
X138049000Y-90551000I0J-2032000D01*
G01*
X90551000Y-138049000D02*
G75*
G02*
X88519000Y-136017000I0J2032000D01*
G01*
X138049000Y-136017000D02*
G75*
G02*
X136017000Y-138049000I-2032000J0D01*
G01*
X129667000Y-117475000D02*
G75*
G02*
X127635000Y-115443000I0J2032000D01*
G01*
X127635000Y-110871000D02*
G75*
G02*
X129667000Y-108839000I2032000J0D01*
G01*
X138049000Y-106807000D02*
G75*
G02*
X136017000Y-108839000I-2032000J0D01*
G01*
X136017000Y-117475000D02*
G75*
G02*
X138049000Y-119507000I0J-2032000D01*
G01*
X138049000Y-106807000D02*
X138049000Y-90551000D01*
X138049000Y-119507000D02*
X138049000Y-136017000D01*
X129667000Y-108839000D02*
X136017000Y-108839000D01*
X127635000Y-115443000D02*
X127635000Y-110871000D01*
X136017000Y-117475000D02*
X129667000Y-117475000D01*
X136017000Y-138049000D02*
X90551000Y-138049000D01*
X40132000Y-88519000D02*
G75*
G03*
X38100000Y-90551000I0J-2032000D01*
G01*
X85598000Y-138049000D02*
G75*
G03*
X87630000Y-136017000I0J2032000D01*
G01*
X38100000Y-136017000D02*
G75*
G03*
X40132000Y-138049000I2032000J0D01*
G01*
X46482000Y-117475000D02*
G75*
G03*
X48514000Y-115443000I0J2032000D01*
G01*
X48514000Y-110871000D02*
G75*
G03*
X46482000Y-108839000I-2032000J0D01*
G01*
X38100000Y-106807000D02*
G75*
G03*
X40132000Y-108839000I2032000J0D01*
G01*
X40132000Y-117475000D02*
G75*
G03*
X38100000Y-119507000I0J-2032000D01*
G01*
X38100000Y-106807000D02*
X38100000Y-90551000D01*
X38100000Y-119507000D02*
X38100000Y-136017000D01*
X46482000Y-108839000D02*
X40132000Y-108839000D01*
X48514000Y-115443000D02*
X48514000Y-110871000D01*
X40132000Y-117475000D02*
X46482000Y-117475000D01*
X40132000Y-138049000D02*
X85598000Y-138049000D01*
M02*
