M48
; DRILL file {KiCad 5.1.8-1.fc31} date Thu Jun 10 12:46:46 2021
; FORMAT={-:-/ absolute / metric / decimal}
; #@! TF.CreationDate,2021-06-10T12:46:46+02:00
; #@! TF.GenerationSoftware,Kicad,Pcbnew,5.1.8-1.fc31
FMAT,2
METRIC
T1C0.400
T2C0.600
T3C0.762
T4C0.800
T5C1.000
T6C3.200
T7C0.800
%
G90
G05
T1
X41.702Y-75.484
X41.702Y-100.665
X61.214Y-76.327
X61.214Y-99.822
X61.468Y-49.149
X61.468Y-127.0
X63.708Y-54.691
X63.708Y-121.458
X63.754Y-48.768
X63.754Y-127.381
X71.374Y-43.688
X71.374Y-132.461
X74.403Y-78.486
X74.403Y-97.663
X75.057Y-77.343
X75.057Y-98.806
X75.311Y-75.311
X75.311Y-100.838
X76.835Y-78.486
X76.835Y-97.663
X77.038Y-55.768
X77.038Y-120.381
X77.222Y-70.485
X77.222Y-105.664
X77.73Y-54.864
X77.73Y-121.285
X78.105Y-81.28
X78.105Y-94.869
X78.988Y-73.781
X78.988Y-76.962
X78.988Y-99.187
X78.988Y-102.368
X80.772Y-43.561
X80.772Y-132.588
X82.804Y-41.91
X82.804Y-134.239
X93.345Y-41.91
X93.345Y-134.239
X95.377Y-43.561
X95.377Y-132.588
X97.161Y-73.781
X97.161Y-76.962
X97.161Y-99.187
X97.161Y-102.368
X98.044Y-81.28
X98.044Y-94.869
X98.419Y-54.864
X98.419Y-121.285
X98.927Y-70.485
X98.927Y-105.664
X99.111Y-55.768
X99.111Y-120.381
X99.314Y-78.486
X99.314Y-97.663
X100.838Y-75.311
X100.838Y-100.838
X101.092Y-77.343
X101.092Y-98.806
X101.746Y-78.486
X101.746Y-97.663
X104.775Y-43.688
X104.775Y-132.461
X112.395Y-48.768
X112.395Y-127.381
X112.441Y-54.691
X112.441Y-121.458
X114.681Y-49.149
X114.681Y-127.0
X114.935Y-76.327
X114.935Y-99.822
X134.447Y-75.484
X134.447Y-100.665
T2
X38.862Y-41.148
X38.862Y-135.001
X39.624Y-39.624
X39.624Y-42.926
X39.624Y-133.223
X39.624Y-136.525
X41.402Y-38.862
X41.402Y-43.688
X41.402Y-132.461
X41.402Y-137.287
X42.037Y-56.896
X42.037Y-73.533
X42.037Y-102.616
X42.037Y-119.253
X42.926Y-39.624
X42.926Y-42.926
X42.926Y-133.223
X42.926Y-136.525
X43.688Y-41.148
X43.688Y-135.001
X43.815Y-68.707
X43.815Y-81.28
X43.815Y-82.677
X43.815Y-83.947
X43.815Y-85.217
X43.815Y-86.614
X43.815Y-89.535
X43.815Y-90.932
X43.815Y-92.202
X43.815Y-93.472
X43.815Y-94.869
X43.815Y-107.442
X45.72Y-69.596
X45.72Y-106.553
X46.228Y-81.28
X46.228Y-82.55
X46.228Y-83.947
X46.228Y-85.217
X46.228Y-86.487
X46.228Y-89.662
X46.228Y-90.932
X46.228Y-92.202
X46.228Y-93.599
X46.228Y-94.869
X47.117Y-47.117
X47.117Y-129.032
X47.498Y-76.708
X47.498Y-99.441
X47.752Y-81.28
X47.752Y-82.55
X47.752Y-83.947
X47.752Y-85.217
X47.752Y-86.487
X47.752Y-89.662
X47.752Y-90.932
X47.752Y-92.202
X47.752Y-93.599
X47.752Y-94.869
X50.165Y-83.947
X50.165Y-86.233
X50.165Y-89.916
X50.165Y-92.202
X52.07Y-57.15
X52.07Y-69.596
X52.07Y-106.553
X52.07Y-118.999
X52.324Y-76.708
X52.324Y-99.441
X53.213Y-67.31
X53.213Y-108.839
X53.975Y-42.545
X53.975Y-133.604
X56.769Y-43.399
X56.769Y-132.75
X59.055Y-45.085
X59.055Y-131.064
X59.427Y-49.149
X59.427Y-127.0
X59.436Y-39.751
X59.436Y-136.398
X62.23Y-70.739
X62.23Y-105.41
X62.484Y-50.673
X62.484Y-125.476
X67.437Y-42.418
X67.437Y-133.731
X68.072Y-83.185
X68.072Y-92.964
X68.961Y-42.926
X68.961Y-133.223
X71.374Y-69.088
X71.374Y-107.061
X76.581Y-38.862
X76.581Y-137.287
X77.978Y-66.04
X77.978Y-110.109
X78.613Y-41.275
X78.613Y-45.847
X78.613Y-130.302
X78.613Y-134.874
X79.696Y-58.166
X79.696Y-117.983
X82.042Y-84.582
X82.042Y-91.567
X82.804Y-82.804
X82.804Y-86.106
X82.804Y-90.043
X82.804Y-93.345
X84.582Y-82.042
X84.582Y-86.868
X84.582Y-89.281
X84.582Y-94.107
X84.836Y-38.989
X84.836Y-41.91
X84.836Y-134.239
X84.836Y-137.16
X86.106Y-82.804
X86.106Y-86.106
X86.106Y-90.043
X86.106Y-93.345
X86.868Y-62.23
X86.868Y-84.582
X86.868Y-91.567
X86.868Y-113.919
X89.281Y-62.23
X89.281Y-84.582
X89.281Y-91.567
X89.281Y-113.919
X90.043Y-82.804
X90.043Y-86.106
X90.043Y-90.043
X90.043Y-93.345
X91.313Y-38.989
X91.313Y-41.91
X91.313Y-134.239
X91.313Y-137.16
X91.567Y-82.042
X91.567Y-86.868
X91.567Y-89.281
X91.567Y-94.107
X93.345Y-82.804
X93.345Y-86.106
X93.345Y-90.043
X93.345Y-93.345
X94.107Y-84.582
X94.107Y-91.567
X96.453Y-58.166
X96.453Y-117.983
X97.536Y-41.275
X97.536Y-45.847
X97.536Y-130.302
X97.536Y-134.874
X98.171Y-66.04
X98.171Y-110.109
X99.568Y-38.862
X99.568Y-137.287
X104.775Y-69.088
X104.775Y-107.061
X107.188Y-42.926
X107.188Y-133.223
X108.077Y-83.185
X108.077Y-92.964
X108.712Y-42.418
X108.712Y-133.731
X113.665Y-50.673
X113.665Y-125.476
X113.919Y-70.739
X113.919Y-105.41
X116.713Y-39.751
X116.713Y-136.398
X116.722Y-49.149
X116.722Y-127.0
X117.094Y-45.085
X117.094Y-131.064
X119.38Y-43.399
X119.38Y-132.75
X122.174Y-42.545
X122.174Y-133.604
X122.936Y-67.31
X122.936Y-108.839
X123.825Y-76.708
X123.825Y-99.441
X124.079Y-57.15
X124.079Y-69.596
X124.079Y-106.553
X124.079Y-118.999
X125.984Y-83.947
X125.984Y-86.233
X125.984Y-89.916
X125.984Y-92.202
X128.397Y-81.28
X128.397Y-82.55
X128.397Y-83.947
X128.397Y-85.217
X128.397Y-86.487
X128.397Y-89.662
X128.397Y-90.932
X128.397Y-92.202
X128.397Y-93.599
X128.397Y-94.869
X128.651Y-76.708
X128.651Y-99.441
X129.032Y-47.117
X129.032Y-129.032
X129.921Y-81.28
X129.921Y-82.55
X129.921Y-83.947
X129.921Y-85.217
X129.921Y-86.487
X129.921Y-89.662
X129.921Y-90.932
X129.921Y-92.202
X129.921Y-93.599
X129.921Y-94.869
X130.429Y-69.596
X130.429Y-106.553
X132.334Y-68.707
X132.334Y-81.28
X132.334Y-82.677
X132.334Y-83.947
X132.334Y-85.217
X132.334Y-86.614
X132.334Y-89.535
X132.334Y-90.932
X132.334Y-92.202
X132.334Y-93.472
X132.334Y-94.869
X132.334Y-107.442
X132.461Y-41.148
X132.461Y-135.001
X133.223Y-39.624
X133.223Y-42.926
X133.223Y-133.223
X133.223Y-136.525
X134.112Y-56.896
X134.112Y-73.533
X134.112Y-102.616
X134.112Y-119.253
X134.747Y-38.862
X134.747Y-43.688
X134.747Y-132.461
X134.747Y-137.287
X136.525Y-39.624
X136.525Y-42.926
X136.525Y-133.223
X136.525Y-136.525
X137.287Y-41.148
X137.287Y-135.001
T3
X84.074Y-120.523
X86.614Y-117.983
X86.614Y-123.063
X89.535Y-53.086
X89.535Y-58.166
X92.075Y-55.626
X89.535Y-117.983
X89.535Y-123.063
X92.075Y-120.523
X84.074Y-55.626
X86.614Y-53.086
X86.614Y-58.166
T4
X56.388Y-82.463
X56.388Y-84.963
X56.388Y-91.186
X56.388Y-93.686
X119.761Y-91.186
X119.761Y-93.686
X119.761Y-82.463
X119.761Y-84.963
T5
X39.751Y-47.625
X39.751Y-50.165
X39.751Y-52.705
X39.751Y-55.245
X102.235Y-52.832
X102.235Y-73.152
X104.775Y-52.832
X104.775Y-73.152
X107.315Y-52.832
X107.315Y-73.152
X109.855Y-52.832
X109.855Y-73.152
X112.395Y-52.832
X112.395Y-73.152
X114.935Y-52.832
X114.935Y-73.152
X117.475Y-52.832
X117.475Y-73.152
X120.015Y-52.832
X120.015Y-73.152
X122.555Y-52.832
X122.555Y-73.152
X125.095Y-52.832
X125.095Y-73.152
X127.635Y-52.832
X127.635Y-73.152
X105.029Y-136.398
X107.569Y-136.398
X110.109Y-136.398
X112.649Y-136.398
X108.839Y-56.388
X111.379Y-56.388
X113.919Y-56.388
X59.055Y-47.117
X61.595Y-47.117
X64.135Y-47.117
X66.675Y-47.117
X39.751Y-92.71
X39.751Y-95.25
X39.751Y-97.79
X39.751Y-100.33
X39.751Y-102.87
X105.029Y-39.751
X107.569Y-39.751
X110.109Y-39.751
X112.649Y-39.751
X136.398Y-47.625
X136.398Y-50.165
X136.398Y-52.705
X136.398Y-55.245
X63.5Y-136.398
X66.04Y-136.398
X68.58Y-136.398
X71.12Y-136.398
X98.552Y-86.233
X101.092Y-86.233
X103.632Y-86.233
X106.172Y-86.233
X108.712Y-86.233
X90.17Y-99.949
X90.17Y-102.489
X90.17Y-105.029
X90.17Y-107.569
X90.17Y-110.109
X125.095Y-126.365
X127.635Y-126.365
X48.514Y-102.997
X48.514Y-123.317
X51.054Y-102.997
X51.054Y-123.317
X53.594Y-102.997
X53.594Y-123.317
X56.134Y-102.997
X56.134Y-123.317
X58.674Y-102.997
X58.674Y-123.317
X61.214Y-102.997
X61.214Y-123.317
X63.754Y-102.997
X63.754Y-123.317
X66.294Y-102.997
X66.294Y-123.317
X68.834Y-102.997
X68.834Y-123.317
X71.374Y-102.997
X71.374Y-123.317
X73.914Y-102.997
X73.914Y-123.317
X62.23Y-56.388
X64.77Y-56.388
X67.31Y-56.388
X39.751Y-120.904
X39.751Y-123.444
X39.751Y-125.984
X39.751Y-128.524
X125.095Y-49.784
X127.635Y-49.784
X63.5Y-39.751
X66.04Y-39.751
X68.58Y-39.751
X71.12Y-39.751
X48.514Y-126.365
X51.054Y-126.365
X102.235Y-102.997
X102.235Y-123.317
X104.775Y-102.997
X104.775Y-123.317
X107.315Y-102.997
X107.315Y-123.317
X109.855Y-102.997
X109.855Y-123.317
X112.395Y-102.997
X112.395Y-123.317
X114.935Y-102.997
X114.935Y-123.317
X117.475Y-102.997
X117.475Y-123.317
X120.015Y-102.997
X120.015Y-123.317
X122.555Y-102.997
X122.555Y-123.317
X125.095Y-102.997
X125.095Y-123.317
X127.635Y-102.997
X127.635Y-123.317
X48.514Y-39.751
X51.054Y-39.751
X53.594Y-39.751
X56.134Y-39.751
X90.17Y-66.04
X90.17Y-68.58
X90.17Y-71.12
X90.17Y-73.66
X90.17Y-76.2
X98.552Y-89.916
X101.092Y-89.916
X103.632Y-89.916
X106.172Y-89.916
X108.712Y-89.916
X136.398Y-120.904
X136.398Y-123.444
X136.398Y-125.984
X136.398Y-128.524
X85.979Y-99.949
X85.979Y-102.489
X85.979Y-105.029
X85.979Y-107.569
X85.979Y-110.109
X59.055Y-129.032
X61.595Y-129.032
X64.135Y-129.032
X66.675Y-129.032
X108.839Y-119.761
X111.379Y-119.761
X113.919Y-119.761
X120.015Y-136.398
X122.555Y-136.398
X125.095Y-136.398
X127.635Y-136.398
X136.398Y-92.71
X136.398Y-95.25
X136.398Y-97.79
X136.398Y-100.33
X136.398Y-102.87
X62.23Y-119.761
X64.77Y-119.761
X67.31Y-119.761
X48.514Y-136.398
X51.054Y-136.398
X53.594Y-136.398
X56.134Y-136.398
X109.474Y-47.117
X112.014Y-47.117
X114.554Y-47.117
X117.094Y-47.117
X120.015Y-39.751
X122.555Y-39.751
X125.095Y-39.751
X127.635Y-39.751
X48.514Y-49.784
X51.054Y-49.784
X67.437Y-89.916
X69.977Y-89.916
X72.517Y-89.916
X75.057Y-89.916
X77.597Y-89.916
X85.979Y-66.04
X85.979Y-68.58
X85.979Y-71.12
X85.979Y-73.66
X85.979Y-76.2
X48.514Y-52.832
X48.514Y-73.152
X51.054Y-52.832
X51.054Y-73.152
X53.594Y-52.832
X53.594Y-73.152
X56.134Y-52.832
X56.134Y-73.152
X58.674Y-52.832
X58.674Y-73.152
X61.214Y-52.832
X61.214Y-73.152
X63.754Y-52.832
X63.754Y-73.152
X66.294Y-52.832
X66.294Y-73.152
X68.834Y-52.832
X68.834Y-73.152
X71.374Y-52.832
X71.374Y-73.152
X73.914Y-52.832
X73.914Y-73.152
X109.474Y-129.032
X112.014Y-129.032
X114.554Y-129.032
X117.094Y-129.032
X39.751Y-73.279
X39.751Y-75.819
X39.751Y-78.359
X39.751Y-80.899
X39.751Y-83.439
X136.398Y-73.279
X136.398Y-75.819
X136.398Y-78.359
X136.398Y-80.899
X136.398Y-83.439
X67.437Y-86.233
X69.977Y-86.233
X72.517Y-86.233
X75.057Y-86.233
X77.597Y-86.233
T6
X91.694Y-91.694
X134.874Y-134.874
X91.694Y-84.455
X84.455Y-84.455
X134.874Y-41.275
X84.455Y-91.694
X41.275Y-41.275
X41.275Y-134.874
T7
X79.622Y-39.327
X81.922Y-39.327
X79.622Y-136.822
X81.922Y-136.822
X94.227Y-39.327
X96.527Y-39.327
X94.227Y-136.822
X96.527Y-136.822
T0
M30
