999
dxfrw 0.6.3
  0
SECTION
  2
HEADER
  9
$ACADVER
  1
AC1021
  9
$DWGCODEPAGE
  3
ANSI_1252
  9
$INSBASE
 10
0
 20
0
 30
0
  9
$EXTMIN
 10
-29.63646927220966
 20
-22.07675612475134
 30
0
  9
$EXTMAX
 10
112.9754938123046
 20
144.1390736391822
 30
0
  9
$LIMMIN
 10
0
 20
0
  9
$LIMMAX
 10
420
 20
297
  9
$ORTHOMODE
 70
    0
  9
$REGENMODE
 70
    1
  9
$FILLMODE
 70
    1
  9
$QTEXTMODE
 70
    0
  9
$MIRRTEXT
 70
    1
  9
$LTSCALE
 40
1
  9
$ATTMODE
 70
    1
  9
$TEXTSIZE
 40
2.5
  9
$TRACEWID
 40
1
  9
$TEXTSTYLE
  7
Standard
  9
$CLAYER
  8
0
  9
$CELTYPE
  6
BYLAYER
  9
$CECOLOR
 62
  256
  9
$CELTSCALE
 40
1
  9
$DISPSILH
 70
    0
  9
$DIMSCALE
 40
1
  9
$DIMASZ
 40
2.5
  9
$DIMEXO
 40
0.625
  9
$DIMDLI
 40
3.75
  9
$DIMRND
 40
0
  9
$DIMDLE
 40
0
  9
$DIMEXE
 40
1.25
  9
$DIMTP
 40
0
  9
$DIMTM
 40
0
  9
$DIMTXT
 40
2.5
  9
$DIMCEN
 40
2.5
  9
$DIMTSZ
 40
0
  9
$DIMTOL
 70
    0
  9
$DIMLIM
 70
    0
  9
$DIMTIH
 70
    0
  9
$DIMTOH
 70
    0
  9
$DIMSE1
 70
    0
  9
$DIMSE2
 70
    0
  9
$DIMTAD
 70
    1
  9
$DIMZIN
 70
    8
  9
$DIMBLK
  1

  9
$DIMASO
 70
    1
  9
$DIMSHO
 70
    1
  9
$DIMPOST
  1

  9
$DIMAPOST
  1

  9
$DIMALT
 70
    0
  9
$DIMALTD
 70
    3
  9
$DIMALTF
 40
0.03937
  9
$DIMLFAC
 40
1
  9
$DIMTOFL
 70
    1
  9
$DIMTVP
 40
0
  9
$DIMTIX
 70
    0
  9
$DIMSOXD
 70
    0
  9
$DIMSAH
 70
    0
  9
$DIMBLK1
  1

  9
$DIMBLK2
  1

  9
$DIMSTYLE
  2
Standard
  9
$DIMCLRD
 70
    0
  9
$DIMCLRE
 70
    0
  9
$DIMCLRT
 70
    0
  9
$DIMTFAC
 40
1
  9
$DIMGAP
 40
0.625
  9
$DIMJUST
 70
    0
  9
$DIMSD1
 70
    0
  9
$DIMSD2
 70
    0
  9
$DIMTOLJ
 70
    0
  9
$DIMTZIN
 70
    8
  9
$DIMALTZ
 70
    0
  9
$DIMALTTZ
 70
    0
  9
$DIMUPT
 70
    0
  9
$DIMDEC
 70
    2
  9
$DIMTDEC
 70
    2
  9
$DIMALTU
 70
    2
  9
$DIMALTTD
 70
    3
  9
$DIMTXSTY
  7
Standard
  9
$DIMAUNIT
 70
    0
  9
$DIMADEC
 70
    0
  9
$DIMALTRND
 40
0
  9
$DIMAZIN
 70
    0
  9
$DIMDSEP
 70
   44
  9
$DIMATFIT
 70
    0
  9
$DIMFRAC
 70
    0
  9
$DIMLDRBLK
  1

  9
$DIMLUNIT
 70
    2
  9
$DIMLWD
 70
   -2
  9
$DIMLWE
 70
   -2
  9
$DIMTMOVE
 70
    0
  9
$DIMFXL
 40
1
  9
$DIMFXLON
 70
    0
  9
$DIMJOGANG
 40
0.7854
  9
$DIMTFILL
 70
    0
  9
$DIMTFILLCLR
 70
    0
  9
$DIMARCSYM
 70
    0
  9
$DIMLTYPE
  6

  9
$DIMLTEX1
  6

  9
$DIMLTEX2
  6

  9
$LUNITS
 70
    2
  9
$LUPREC
 70
    4
  9
$SKETCHINC
 40
1
  9
$FILLETRAD
 40
2.5
  9
$AUNITS
 70
    0
  9
$AUPREC
 70
    0
  9
$MENU
  1
.
  9
$ELEVATION
 40
0
  9
$PELEVATION
 40
0
  9
$THICKNESS
 40
0
  9
$LIMCHECK
 70
    0
  9
$CHAMFERA
 40
2.5
  9
$CHAMFERB
 40
2.5
  9
$CHAMFERC
 40
0
  9
$CHAMFERD
 40
0
  9
$SKPOLY
 70
    0
  9
$USRTIMER
 70
    1
  9
$ANGBASE
 50
0
  9
$ANGDIR
 70
    0
  9
$PDMODE
 70
    0
  9
$PDSIZE
 40
0
  9
$PLINEWID
 40
0
  9
$SPLFRAME
 70
    0
  9
$SPLINETYPE
 70
    6
  9
$SPLINESEGS
 70
    8
  9
$HANDSEED
  5
20000
  9
$SURFTAB1
 70
    6
  9
$SURFTAB2
 70
    6
  9
$SURFTYPE
 70
    6
  9
$SURFU
 70
    6
  9
$SURFV
 70
    6
  9
$UCSBASE
  2

  9
$UCSNAME
  2

  9
$UCSORG
 10
0
 20
0
 30
0
  9
$UCSXDIR
 10
1
 20
0
 30
0
  9
$UCSYDIR
 10
0
 20
1
 30
0
  9
$UCSORTHOREF
  2

  9
$UCSORTHOVIEW
 70
    0
  9
$UCSORGTOP
 10
0
 20
0
 30
0
  9
$UCSORGBOTTOM
 10
0
 20
0
 30
0
  9
$UCSORGLEFT
 10
0
 20
0
 30
0
  9
$UCSORGRIGHT
 10
0
 20
0
 30
0
  9
$UCSORGFRONT
 10
0
 20
0
 30
0
  9
$UCSORGBACK
 10
0
 20
0
 30
0
  9
$PUCSBASE
  2

  9
$PUCSNAME
  2

  9
$PUCSORG
 10
0
 20
0
 30
0
  9
$PUCSXDIR
 10
1
 20
0
 30
0
  9
$PUCSYDIR
 10
0
 20
1
 30
0
  9
$PUCSORTHOREF
  2

  9
$PUCSORTHOVIEW
 70
    0
  9
$PUCSORGTOP
 10
0
 20
0
 30
0
  9
$PUCSORGBOTTOM
 10
0
 20
0
 30
0
  9
$PUCSORGLEFT
 10
0
 20
0
 30
0
  9
$PUCSORGRIGHT
 10
0
 20
0
 30
0
  9
$PUCSORGFRONT
 10
0
 20
0
 30
0
  9
$PUCSORGBACK
 10
0
 20
0
 30
0
  9
$USERI1
 70
    0
  9
$USERI2
 70
    0
  9
$USERI3
 70
    0
  9
$USERI4
 70
    0
  9
$USERI5
 70
    0
  9
$USERR1
 40
0
  9
$USERR2
 40
0
  9
$USERR3
 40
0
  9
$USERR4
 40
0
  9
$USERR5
 40
0
  9
$WORLDVIEW
 70
    1
  9
$SHADEDGE
 70
    3
  9
$SHADEDIF
 70
   70
  9
$TILEMODE
 70
    1
  9
$MAXACTVP
 70
   48
  9
$PINSBASE
 10
0
 20
0
 30
0
  9
$PLIMCHECK
 70
    0
  9
$PEXTMIN
 10
0
 20
0
 30
0
  9
$PEXTMAX
 10
177.25
 20
141.25
 30
2
  9
$GRIDMODE
 70
    1
  9
$SNAPSTYLE
 70
    0
  9
$PLIMMIN
 10
0
 20
0
  9
$PLIMMAX
 10
420
 20
297
  9
$UNITMODE
 70
    0
  9
$VISRETAIN
 70
    0
  9
$PLINEGEN
 70
    0
  9
$PSLTSCALE
 70
    1
  9
$TREEDEPTH
 70
 3020
  9
$CMLSTYLE
  2
Standard
  9
$CMLJUST
 70
    0
  9
$CMLSCALE
 40
20
  9
$PROXYGRAPHICS
 70
    1
  9
$MEASUREMENT
 70
    1
  9
$CELWEIGHT
370
   -1
  9
$ENDCAPS
280
    0
  9
$JOINSTYLE
280
    0
  9
$LWDISPLAY
290
    0
  9
$INSUNITS
 70
    4
  9
$HYPERLINKBASE
  1

  9
$STYLESHEET
  1

  9
$XEDIT
290
    1
  9
$CEPSNTYPE
380
    0
  9
$PSTYLEMODE
290
    1
  9
$EXTNAMES
290
    1
  9
$PSVPSCALE
 40
1
  9
$OLESTARTUP
290
    0
  9
$SORTENTS
280
  127
  9
$INDEXCTL
280
    0
  9
$HIDETEXT
280
    1
  9
$XCLIPFRAME
290
    0
  9
$HALOGAP
280
    0
  9
$OBSCOLOR
 70
  257
  9
$OBSLTYPE
280
    0
  9
$INTERSECTIONDISPLAY
280
    0
  9
$INTERSECTIONCOLOR
 70
  257
  9
$DIMASSOC
280
    1
  9
$PROJECTNAME
  1

  9
$CAMERADISPLAY
290
    0
  9
$LENSLENGTH
 40
50
  9
$CAMERAHEIGHT
 40
0
  9
$STEPSPERSEC
 40
2
  9
$STEPSIZE
 40
50
  9
$3DDWFPREC
 40
2
  9
$PSOLWIDTH
 40
5
  9
$PSOLHEIGHT
 40
80
  9
$LOFTANG1
 40
1.570796326794897
  9
$LOFTANG2
 40
1.570796326794897
  9
$LOFTMAG1
 40
0
  9
$LOFTMAG2
 40
0
  9
$LOFTPARAM
 70
    7
  9
$LOFTNORMALS
280
    1
  9
$LATITUDE
 40
1
  9
$LONGITUDE
 40
1
  9
$NORTHDIRECTION
 40
0
  9
$TIMEZONE
 70
-8000
  9
$LIGHTGLYPHDISPLAY
280
    1
  9
$TILEMODELIGHTSYNCH
280
    1
  9
$SOLIDHIST
280
    1
  9
$SHOWHIST
280
    1
  9
$DWFFRAME
280
    2
  9
$DGNFRAME
280
    0
  9
$REALWORLDSCALE
290
    1
  9
$INTERFERECOLOR
 62
    1
  9
$CSHADOW
280
    0
  9
$SHADOWPLANELOCATION
 40
0
  0
ENDSEC
  0
SECTION
  2
CLASSES
  0
ENDSEC
  0
SECTION
  2
TABLES
  0
TABLE
  2
VPORT
  5
8
330
0
100
AcDbSymbolTable
 70
    1
  0
VPORT
  5
31
330
2
100
AcDbSymbolTableRecord
100
AcDbViewportTableRecord
  2
*ACTIVE
 70
    0
 10
0
 20
0
 11
1
 21
1
 12
86.39872157412528
 22
49.64855445906488
 13
0
 23
0
 14
10
 24
10
 15
10
 25
10
 16
0
 26
0
 36
1
 17
0
 27
0
 37
0
 40
177.7111145173951
 41
1.942396313364055
 42
50
 43
0
 44
0
 50
0
 51
0
 71
    0
 72
  100
 73
    1
 74
    3
 75
    0
 76
    1
 77
    0
 78
    0
281
    0
 65
    1
110
0
120
0
130
0
111
1
121
0
131
0
112
0
122
1
132
0
 79
    0
146
0
348
10020
 60
    7
 61
    5
292
1
282
    1
141
0
142
0
 63
  250
421
3358443
  0
ENDTAB
  0
TABLE
  2
LTYPE
  5
5
330
0
100
AcDbSymbolTable
 70
    4
  0
LTYPE
  5
14
330
5
100
AcDbSymbolTableRecord
100
AcDbLinetypeTableRecord
  2
ByBlock
 70
    0
  3

 72
   65
 73
    0
 40
0
  0
LTYPE
  5
15
330
5
100
AcDbSymbolTableRecord
100
AcDbLinetypeTableRecord
  2
ByLayer
 70
    0
  3

 72
   65
 73
    0
 40
0
  0
LTYPE
  5
16
330
5
100
AcDbSymbolTableRecord
100
AcDbLinetypeTableRecord
  2
Continuous
 70
    0
  3
Solid line
 72
   65
 73
    0
 40
0
  0
LTYPE
  5
32
330
5
100
AcDbSymbolTableRecord
100
AcDbLinetypeTableRecord
  2
DOT
 70
    0
  3
Dot . . . . . . . . . . . . . . . . . . . . . .
 72
   65
 73
    2
 40
6.35
 49
0
 74
    0
 49
-6.35
 74
    0
  0
LTYPE
  5
33
330
5
100
AcDbSymbolTableRecord
100
AcDbLinetypeTableRecord
  2
DOTTINY
 70
    0
  3
Dot (.15x) .....................................
 72
   65
 73
    2
 40
0.9525
 49
0
 74
    0
 49
-0.9525
 74
    0
  0
LTYPE
  5
34
330
5
100
AcDbSymbolTableRecord
100
AcDbLinetypeTableRecord
  2
DOT2
 70
    0
  3
Dot (.5x) .....................................
 72
   65
 73
    2
 40
3.175
 49
0
 74
    0
 49
-3.175
 74
    0
  0
LTYPE
  5
35
330
5
100
AcDbSymbolTableRecord
100
AcDbLinetypeTableRecord
  2
DOTX2
 70
    0
  3
Dot (2x) .  .  .  .  .  .  .  .  .  .  .  .  .
 72
   65
 73
    2
 40
12.7
 49
0
 74
    0
 49
-12.7
 74
    0
  0
LTYPE
  5
36
330
5
100
AcDbSymbolTableRecord
100
AcDbLinetypeTableRecord
  2
DASHED
 70
    0
  3
Dashed _ _ _ _ _ _ _ _ _ _ _ _ _ _ _ _ _
 72
   65
 73
    2
 40
19.05
 49
12.7
 74
    0
 49
-6.35
 74
    0
  0
LTYPE
  5
37
330
5
100
AcDbSymbolTableRecord
100
AcDbLinetypeTableRecord
  2
DASHEDTINY
 70
    0
  3
Dashed (.15x) _ _ _ _ _ _ _ _ _ _ _ _ _ _ _ _ _
 72
   65
 73
    2
 40
2.8575
 49
1.905
 74
    0
 49
-0.9525
 74
    0
  0
LTYPE
  5
38
330
5
100
AcDbSymbolTableRecord
100
AcDbLinetypeTableRecord
  2
DASHED2
 70
    0
  3
Dashed (.5x) _ _ _ _ _ _ _ _ _ _ _ _ _ _ _ _ _
 72
   65
 73
    2
 40
9.524999999999999
 49
6.35
 74
    0
 49
-3.175
 74
    0
  0
LTYPE
  5
39
330
5
100
AcDbSymbolTableRecord
100
AcDbLinetypeTableRecord
  2
DASHEDX2
 70
    0
  3
Dashed (2x) ____  ____  ____  ____  ____  ___
 72
   65
 73
    2
 40
38.09999999999999
 49
25.4
 74
    0
 49
-12.7
 74
    0
  0
LTYPE
  5
3A
330
5
100
AcDbSymbolTableRecord
100
AcDbLinetypeTableRecord
  2
DASHDOT
 70
    0
  3
Dash dot __ . __ . __ . __ . __ . __ . __ . __
 72
   65
 73
    4
 40
25.4
 49
12.7
 74
    0
 49
-6.35
 74
    0
 49
0
 74
    0
 49
-6.35
 74
    0
  0
LTYPE
  5
3B
330
5
100
AcDbSymbolTableRecord
100
AcDbLinetypeTableRecord
  2
DASHDOTTINY
 70
    0
  3
Dash dot (.15x) _._._._._._._._._._._._._._._.
 72
   65
 73
    4
 40
3.81
 49
1.905
 74
    0
 49
-0.9525
 74
    0
 49
0
 74
    0
 49
-0.9525
 74
    0
  0
LTYPE
  5
3C
330
5
100
AcDbSymbolTableRecord
100
AcDbLinetypeTableRecord
  2
DASHDOT2
 70
    0
  3
Dash dot (.5x) _._._._._._._._._._._._._._._.
 72
   65
 73
    4
 40
12.7
 49
6.35
 74
    0
 49
-3.175
 74
    0
 49
0
 74
    0
 49
-3.175
 74
    0
  0
LTYPE
  5
3D
330
5
100
AcDbSymbolTableRecord
100
AcDbLinetypeTableRecord
  2
DASHDOTX2
 70
    0
  3
Dash dot (2x) ____  .  ____  .  ____  .  ___
 72
   65
 73
    4
 40
50.8
 49
25.4
 74
    0
 49
-12.7
 74
    0
 49
0
 74
    0
 49
-12.7
 74
    0
  0
LTYPE
  5
3E
330
5
100
AcDbSymbolTableRecord
100
AcDbLinetypeTableRecord
  2
DIVIDE
 70
    0
  3
Divide ____ . . ____ . . ____ . . ____ . . ____
 72
   65
 73
    6
 40
31.75
 49
12.7
 74
    0
 49
-6.35
 74
    0
 49
0
 74
    0
 49
-6.35
 74
    0
 49
0
 74
    0
 49
-6.35
 74
    0
  0
LTYPE
  5
3F
330
5
100
AcDbSymbolTableRecord
100
AcDbLinetypeTableRecord
  2
DIVIDETINY
 70
    0
  3
Divide (.15x) __..__..__..__..__..__..__..__.._
 72
   65
 73
    6
 40
4.7625
 49
1.905
 74
    0
 49
-0.9525
 74
    0
 49
0
 74
    0
 49
-0.9525
 74
    0
 49
0
 74
    0
 49
-0.9525
 74
    0
  0
LTYPE
  5
40
330
5
100
AcDbSymbolTableRecord
100
AcDbLinetypeTableRecord
  2
DIVIDE2
 70
    0
  3
Divide (.5x) __..__..__..__..__..__..__..__.._
 72
   65
 73
    6
 40
15.875
 49
6.35
 74
    0
 49
-3.175
 74
    0
 49
0
 74
    0
 49
-3.175
 74
    0
 49
0
 74
    0
 49
-3.175
 74
    0
  0
LTYPE
  5
41
330
5
100
AcDbSymbolTableRecord
100
AcDbLinetypeTableRecord
  2
DIVIDEX2
 70
    0
  3
Divide (2x) ________  .  .  ________  .  .  _
 72
   65
 73
    6
 40
63.5
 49
25.4
 74
    0
 49
-12.7
 74
    0
 49
0
 74
    0
 49
-12.7
 74
    0
 49
0
 74
    0
 49
-12.7
 74
    0
  0
LTYPE
  5
42
330
5
100
AcDbSymbolTableRecord
100
AcDbLinetypeTableRecord
  2
BORDER
 70
    0
  3
Border __ __ . __ __ . __ __ . __ __ . __ __ .
 72
   65
 73
    6
 40
44.45
 49
12.7
 74
    0
 49
-6.35
 74
    0
 49
12.7
 74
    0
 49
-6.35
 74
    0
 49
0
 74
    0
 49
-6.35
 74
    0
  0
LTYPE
  5
43
330
5
100
AcDbSymbolTableRecord
100
AcDbLinetypeTableRecord
  2
BORDERTINY
 70
    0
  3
Border (.15x) __.__.__.__.__.__.__.__.__.__.__.
 72
   65
 73
    6
 40
6.6675
 49
1.905
 74
    0
 49
-0.9525
 74
    0
 49
1.905
 74
    0
 49
-0.9525
 74
    0
 49
0
 74
    0
 49
-0.9525
 74
    0
  0
LTYPE
  5
44
330
5
100
AcDbSymbolTableRecord
100
AcDbLinetypeTableRecord
  2
BORDER2
 70
    0
  3
Border (.5x) __.__.__.__.__.__.__.__.__.__.__.
 72
   65
 73
    6
 40
22.225
 49
6.35
 74
    0
 49
-3.175
 74
    0
 49
6.35
 74
    0
 49
-3.175
 74
    0
 49
0
 74
    0
 49
-3.175
 74
    0
  0
LTYPE
  5
45
330
5
100
AcDbSymbolTableRecord
100
AcDbLinetypeTableRecord
  2
BORDERX2
 70
    0
  3
Border (2x) ____  ____  .  ____  ____  .  ___
 72
   65
 73
    6
 40
88.89999999999999
 49
25.4
 74
    0
 49
-12.7
 74
    0
 49
25.4
 74
    0
 49
-12.7
 74
    0
 49
0
 74
    0
 49
-12.7
 74
    0
  0
LTYPE
  5
46
330
5
100
AcDbSymbolTableRecord
100
AcDbLinetypeTableRecord
  2
CENTER
 70
    0
  3
Center ____ _ ____ _ ____ _ ____ _ ____ _ ____
 72
   65
 73
    4
 40
50.8
 49
31.75
 74
    0
 49
-6.35
 74
    0
 49
6.35
 74
    0
 49
-6.35
 74
    0
  0
LTYPE
  5
47
330
5
100
AcDbSymbolTableRecord
100
AcDbLinetypeTableRecord
  2
CENTERTINY
 70
    0
  3
Center (.15x) ___ _ ___ _ ___ _ ___ _ ___ _ ___
 72
   65
 73
    4
 40
7.619999999999999
 49
4.7625
 74
    0
 49
-0.9525
 74
    0
 49
0.9525
 74
    0
 49
-0.9525
 74
    0
  0
LTYPE
  5
48
330
5
100
AcDbSymbolTableRecord
100
AcDbLinetypeTableRecord
  2
CENTER2
 70
    0
  3
Center (.5x) ___ _ ___ _ ___ _ ___ _ ___ _ ___
 72
   65
 73
    4
 40
28.575
 49
19.05
 74
    0
 49
-3.175
 74
    0
 49
3.175
 74
    0
 49
-3.175
 74
    0
  0
LTYPE
  5
49
330
5
100
AcDbSymbolTableRecord
100
AcDbLinetypeTableRecord
  2
CENTERX2
 70
    0
  3
Center (2x) ________  __  ________  __  _____
 72
   65
 73
    4
 40
101.6
 49
63.5
 74
    0
 49
-12.7
 74
    0
 49
12.7
 74
    0
 49
-12.7
 74
    0
  0
ENDTAB
  0
TABLE
  2
LAYER
  5
2
330
0
100
AcDbSymbolTable
 70
    1
  0
LAYER
  5
10
330
2
100
AcDbSymbolTableRecord
100
AcDbLayerTableRecord
  2
0
 70
    0
 62
  255
  6
CONTINUOUS
370
   -3
390
F
  0
ENDTAB
  0
TABLE
  2
STYLE
  5
3
330
0
100
AcDbSymbolTable
 70
    3
  0
STYLE
  5
4A
330
2
100
AcDbSymbolTableRecord
100
AcDbTextStyleTableRecord
  2
Standard
 70
    0
 40
0
 41
1
 50
0
 71
    0
 42
1
  3
txt
  4

  0
ENDTAB
  0
TABLE
  2
VIEW
  5
6
330
0
100
AcDbSymbolTable
 70
    0
  0
ENDTAB
  0
TABLE
  2
UCS
  5
7
330
0
100
AcDbSymbolTable
 70
    0
  0
ENDTAB
  0
TABLE
  2
APPID
  5
9
330
0
100
AcDbSymbolTable
 70
    1
  0
APPID
  5
12
330
9
100
AcDbSymbolTableRecord
100
AcDbRegAppTableRecord
  2
ACAD
 70
    0
  0
APPID
  5
4B
330
9
100
AcDbSymbolTableRecord
100
AcDbRegAppTableRecord
  2
LibreCad
 70
    0
  0
ENDTAB
  0
TABLE
  2
DIMSTYLE
  5
A
330
0
100
AcDbSymbolTable
 70
    1
100
AcDbDimStyleTable
 71
    1
  0
DIMSTYLE
105
4C
330
A
100
AcDbSymbolTableRecord
100
AcDbDimStyleTableRecord
  2
Standard
 70
    0
 40
1
 41
2.5
 42
0.625
 43
0.38
 44
1.25
 45
0
 46
0
 47
0
 48
0
 49
1
140
2.5
141
0.09
142
0
143
25.4
144
1
145
0
146
1
147
0.625
148
0
 71
    0
 72
    0
 73
    0
 74
    1
 75
    0
 76
    0
 77
    0
 78
    8
 79
    0
170
    0
171
    2
172
    0
173
    0
174
    0
175
    0
176
    0
177
    0
178
    0
179
    0
271
    2
272
    4
273
    2
274
    2
275
    0
276
    0
277
    2
278
   44
279
    0
280
    0
281
    0
282
    0
283
    1
284
    0
285
    0
286
    0
288
    0
289
    3
340
Standard
341

371
   -2
372
   -2
  0
ENDTAB
  0
TABLE
  2
BLOCK_RECORD
  5
1
330
0
100
AcDbSymbolTable
 70
    2
  0
BLOCK_RECORD
  5
1F
330
1
100
AcDbSymbolTableRecord
100
AcDbBlockTableRecord
  2
*Model_Space
 70
    0
280
    1
281
    0
  0
BLOCK_RECORD
  5
1E
330
1
100
AcDbSymbolTableRecord
100
AcDbBlockTableRecord
  2
*Paper_Space
 70
    0
280
    1
281
    0
  0
BLOCK_RECORD
  5
4D
330
1
100
AcDbSymbolTableRecord
100
AcDbBlockTableRecord
  2
neOSensor_logo
 70
    0
280
    1
281
    0
  0
BLOCK_RECORD
  5
50
330
1
100
AcDbSymbolTableRecord
100
AcDbBlockTableRecord
  2
BLOCK_2
 70
    0
280
    1
281
    0
  0
BLOCK_RECORD
  5
53
330
1
100
AcDbSymbolTableRecord
100
AcDbBlockTableRecord
  2
BLOCK_3
 70
    0
280
    1
281
    0
  0
BLOCK_RECORD
  5
56
330
1
100
AcDbSymbolTableRecord
100
AcDbBlockTableRecord
  2
BLOCK_4
 70
    0
280
    1
281
    0
  0
BLOCK_RECORD
  5
59
330
1
100
AcDbSymbolTableRecord
100
AcDbBlockTableRecord
  2
BLOCK_5
 70
    0
280
    1
281
    0
  0
BLOCK_RECORD
  5
5C
330
1
100
AcDbSymbolTableRecord
100
AcDbBlockTableRecord
  2
BLOCK_6
 70
    0
280
    1
281
    0
  0
BLOCK_RECORD
  5
5F
330
1
100
AcDbSymbolTableRecord
100
AcDbBlockTableRecord
  2
BLOCK_7
 70
    0
280
    1
281
    0
  0
BLOCK_RECORD
  5
62
330
1
100
AcDbSymbolTableRecord
100
AcDbBlockTableRecord
  2
BLOCK_8
 70
    0
280
    1
281
    0
  0
BLOCK_RECORD
  5
65
330
1
100
AcDbSymbolTableRecord
100
AcDbBlockTableRecord
  2
BLOCK_9
 70
    0
280
    1
281
    0
  0
BLOCK_RECORD
  5
68
330
1
100
AcDbSymbolTableRecord
100
AcDbBlockTableRecord
  2
BLOCK_10
 70
    0
280
    1
281
    0
  0
BLOCK_RECORD
  5
6B
330
1
100
AcDbSymbolTableRecord
100
AcDbBlockTableRecord
  2
BLOCK_11
 70
    0
280
    1
281
    0
  0
BLOCK_RECORD
  5
6E
330
1
100
AcDbSymbolTableRecord
100
AcDbBlockTableRecord
  2
BLOCK_12
 70
    0
280
    1
281
    0
  0
BLOCK_RECORD
  5
71
330
1
100
AcDbSymbolTableRecord
100
AcDbBlockTableRecord
  2
BLOCK_13
 70
    0
280
    1
281
    0
  0
BLOCK_RECORD
  5
74
330
1
100
AcDbSymbolTableRecord
100
AcDbBlockTableRecord
  2
BLOCK_14
 70
    0
280
    1
281
    0
  0
BLOCK_RECORD
  5
77
330
1
100
AcDbSymbolTableRecord
100
AcDbBlockTableRecord
  2
BLOCK_15
 70
    0
280
    1
281
    0
  0
BLOCK_RECORD
  5
7A
330
1
100
AcDbSymbolTableRecord
100
AcDbBlockTableRecord
  2
BLOCK_16
 70
    0
280
    1
281
    0
  0
BLOCK_RECORD
  5
7D
330
1
100
AcDbSymbolTableRecord
100
AcDbBlockTableRecord
  2
BLOCK_17
 70
    0
280
    1
281
    0
  0
BLOCK_RECORD
  5
80
330
1
100
AcDbSymbolTableRecord
100
AcDbBlockTableRecord
  2
BLOCK_18
 70
    0
280
    1
281
    0
  0
BLOCK_RECORD
  5
83
330
1
100
AcDbSymbolTableRecord
100
AcDbBlockTableRecord
  2
BLOCK_19
 70
    0
280
    1
281
    0
  0
BLOCK_RECORD
  5
86
330
1
100
AcDbSymbolTableRecord
100
AcDbBlockTableRecord
  2
BLOCK_20
 70
    0
280
    1
281
    0
  0
BLOCK_RECORD
  5
89
330
1
100
AcDbSymbolTableRecord
100
AcDbBlockTableRecord
  2
BLOCK_21
 70
    0
280
    1
281
    0
  0
BLOCK_RECORD
  5
8C
330
1
100
AcDbSymbolTableRecord
100
AcDbBlockTableRecord
  2
BLOCK_22
 70
    0
280
    1
281
    0
  0
BLOCK_RECORD
  5
8F
330
1
100
AcDbSymbolTableRecord
100
AcDbBlockTableRecord
  2
BLOCK_23
 70
    0
280
    1
281
    0
  0
BLOCK_RECORD
  5
92
330
1
100
AcDbSymbolTableRecord
100
AcDbBlockTableRecord
  2
BLOCK_24
 70
    0
280
    1
281
    0
  0
ENDTAB
  0
ENDSEC
  0
SECTION
  2
BLOCKS
  0
BLOCK
  5
20
330
1F
100
AcDbEntity
  8
0
100
AcDbBlockBegin
  2
*Model_Space
 70
    0
 10
0
 20
0
 30
0
  3
*Model_Space
  1

  0
ENDBLK
  5
21
330
1F
100
AcDbEntity
  8
0
100
AcDbBlockEnd
  0
BLOCK
  5
1C
330
1B
100
AcDbEntity
  8
0
100
AcDbBlockBegin
  2
*Paper_Space
 70
    0
 10
0
 20
0
 30
0
  3
*Paper_Space
  1

  0
ENDBLK
  5
1D
330
1F
100
AcDbEntity
  8
0
100
AcDbBlockEnd
  0
BLOCK
  5
4E
330
4D
100
AcDbEntity
  8
0
100
AcDbBlockBegin
  2
neOSensor_logo
 70
    0
 10
0
 20
0
  3
neOSensor_logo
  1

  0
INSERT
  5
95
100
AcDbEntity
  8
0
  6
ByLayer
 62
  256
370
   -1
100
AcDbBlockReference
  2
BLOCK_2
 10
0
 20
0
 30
0
 41
1
 42
1
 43
0
 50
0
 70
    1
 71
    1
 44
0
 45
0
  0
INSERT
  5
96
100
AcDbEntity
  8
0
  6
ByLayer
 62
  256
370
   -1
100
AcDbBlockReference
  2
BLOCK_3
 10
0
 20
0
 30
0
 41
1
 42
1
 43
0
 50
0
 70
    1
 71
    1
 44
0
 45
0
  0
INSERT
  5
97
100
AcDbEntity
  8
0
  6
ByLayer
 62
  256
370
   -1
100
AcDbBlockReference
  2
BLOCK_4
 10
0
 20
0
 30
0
 41
1
 42
1
 43
0
 50
0
 70
    1
 71
    1
 44
0
 45
0
  0
INSERT
  5
98
100
AcDbEntity
  8
0
  6
ByLayer
 62
  256
370
   -1
100
AcDbBlockReference
  2
BLOCK_5
 10
0
 20
0
 30
0
 41
1
 42
1
 43
0
 50
0
 70
    1
 71
    1
 44
0
 45
0
  0
INSERT
  5
99
100
AcDbEntity
  8
0
  6
ByLayer
 62
  256
370
   -1
100
AcDbBlockReference
  2
BLOCK_6
 10
0
 20
0
 30
0
 41
1
 42
1
 43
0
 50
0
 70
    1
 71
    1
 44
0
 45
0
  0
INSERT
  5
9A
100
AcDbEntity
  8
0
  6
ByLayer
 62
  256
370
   -1
100
AcDbBlockReference
  2
BLOCK_7
 10
0
 20
0
 30
0
 41
1
 42
1
 43
0
 50
0
 70
    1
 71
    1
 44
0
 45
0
  0
INSERT
  5
9B
100
AcDbEntity
  8
0
  6
ByLayer
 62
  256
370
   -1
100
AcDbBlockReference
  2
BLOCK_8
 10
0
 20
0
 30
0
 41
1
 42
1
 43
0
 50
0
 70
    1
 71
    1
 44
0
 45
0
  0
INSERT
  5
9C
100
AcDbEntity
  8
0
  6
ByLayer
 62
  256
370
   -1
100
AcDbBlockReference
  2
BLOCK_9
 10
0
 20
0
 30
0
 41
1
 42
1
 43
0
 50
0
 70
    1
 71
    1
 44
0
 45
0
  0
INSERT
  5
9D
100
AcDbEntity
  8
0
  6
ByLayer
 62
  256
370
   -1
100
AcDbBlockReference
  2
BLOCK_10
 10
0
 20
0
 30
0
 41
1
 42
1
 43
0
 50
0
 70
    1
 71
    1
 44
0
 45
0
  0
INSERT
  5
9E
100
AcDbEntity
  8
0
  6
ByLayer
 62
  256
370
   -1
100
AcDbBlockReference
  2
BLOCK_11
 10
0
 20
0
 30
0
 41
1
 42
1
 43
0
 50
0
 70
    1
 71
    1
 44
0
 45
0
  0
INSERT
  5
9F
100
AcDbEntity
  8
0
  6
ByLayer
 62
  256
370
   -1
100
AcDbBlockReference
  2
BLOCK_12
 10
0
 20
0
 30
0
 41
1
 42
1
 43
0
 50
0
 70
    1
 71
    1
 44
0
 45
0
  0
INSERT
  5
A0
100
AcDbEntity
  8
0
  6
ByLayer
 62
  256
370
   -1
100
AcDbBlockReference
  2
BLOCK_13
 10
0
 20
0
 30
0
 41
1
 42
1
 43
0
 50
0
 70
    1
 71
    1
 44
0
 45
0
  0
INSERT
  5
A1
100
AcDbEntity
  8
0
  6
ByLayer
 62
  256
370
   -1
100
AcDbBlockReference
  2
BLOCK_14
 10
0
 20
0
 30
0
 41
1
 42
1
 43
0
 50
0
 70
    1
 71
    1
 44
0
 45
0
  0
INSERT
  5
A2
100
AcDbEntity
  8
0
  6
ByLayer
 62
  256
370
   -1
100
AcDbBlockReference
  2
BLOCK_15
 10
0
 20
0
 30
0
 41
1
 42
1
 43
0
 50
0
 70
    1
 71
    1
 44
0
 45
0
  0
INSERT
  5
A3
100
AcDbEntity
  8
0
  6
ByLayer
 62
  256
370
   -1
100
AcDbBlockReference
  2
BLOCK_16
 10
0
 20
0
 30
0
 41
1
 42
1
 43
0
 50
0
 70
    1
 71
    1
 44
0
 45
0
  0
INSERT
  5
A4
100
AcDbEntity
  8
0
  6
ByLayer
 62
  256
370
   -1
100
AcDbBlockReference
  2
BLOCK_17
 10
0
 20
0
 30
0
 41
1
 42
1
 43
0
 50
0
 70
    1
 71
    1
 44
0
 45
0
  0
INSERT
  5
A5
100
AcDbEntity
  8
0
  6
ByLayer
 62
  256
370
   -1
100
AcDbBlockReference
  2
BLOCK_18
 10
0
 20
0
 30
0
 41
1
 42
1
 43
0
 50
0
 70
    1
 71
    1
 44
0
 45
0
  0
INSERT
  5
A6
100
AcDbEntity
  8
0
  6
ByLayer
 62
  256
370
   -1
100
AcDbBlockReference
  2
BLOCK_19
 10
0
 20
0
 30
0
 41
1
 42
1
 43
0
 50
0
 70
    1
 71
    1
 44
0
 45
0
  0
INSERT
  5
A7
100
AcDbEntity
  8
0
  6
ByLayer
 62
  256
370
   -1
100
AcDbBlockReference
  2
BLOCK_20
 10
0
 20
0
 30
0
 41
1
 42
1
 43
0
 50
0
 70
    1
 71
    1
 44
0
 45
0
  0
INSERT
  5
A8
100
AcDbEntity
  8
0
  6
ByLayer
 62
  256
370
   -1
100
AcDbBlockReference
  2
BLOCK_21
 10
0
 20
0
 30
0
 41
1
 42
1
 43
0
 50
0
 70
    1
 71
    1
 44
0
 45
0
  0
INSERT
  5
A9
100
AcDbEntity
  8
0
  6
ByLayer
 62
  256
370
   -1
100
AcDbBlockReference
  2
BLOCK_22
 10
0
 20
0
 30
0
 41
1
 42
1
 43
0
 50
0
 70
    1
 71
    1
 44
0
 45
0
  0
INSERT
  5
AA
100
AcDbEntity
  8
0
  6
ByLayer
 62
  256
370
   -1
100
AcDbBlockReference
  2
BLOCK_23
 10
0
 20
0
 30
0
 41
1
 42
1
 43
0
 50
0
 70
    1
 71
    1
 44
0
 45
0
  0
INSERT
  5
AB
100
AcDbEntity
  8
0
  6
ByLayer
 62
  256
370
   -1
100
AcDbBlockReference
  2
BLOCK_24
 10
0
 20
0
 30
0
 41
1
 42
1
 43
0
 50
0
 70
    1
 71
    1
 44
0
 45
0
  0
ENDBLK
  5
4F
330
4D
100
AcDbEntity
  8
0
100
AcDbBlockEnd
  0
BLOCK
  5
51
330
50
100
AcDbEntity
  8
0
100
AcDbBlockBegin
  2
BLOCK_2
 70
    0
 10
0
 20
0
  3
BLOCK_2
  1

  0
SPLINE
  5
AC
100
AcDbEntity
  8
0
  6
ByLayer
 62
    7
370
   -1
100
AcDbSpline
210
0
220
0
230
0
 70
   11
 71
    3
 72
   20
 73
   16
 74
    0
 42
1e-07
 43
1e-07
 40
0
 40
0
 40
0
 40
0
 40
1
 40
1
 40
1
 40
2
 40
2
 40
2
 40
3
 40
3
 40
3
 40
4
 40
4
 40
4
 40
5
 40
5
 40
5
 40
5
 10
9.505439436286384
 20
54.15794543628645
 30
0
 10
9.505439436286384
 20
55.04160103601565
 30
0
 10
10.22178383655723
 20
55.7579454362865
 30
0
 10
11.10543943628644
 20
55.7579454362865
 30
0
 10
11.98909503601565
 20
55.7579454362865
 30
0
 10
12.7054394362865
 20
55.04160103601565
 30
0
 10
12.7054394362865
 20
54.15794543628645
 30
0
 10
12.7054394362865
 20
53.27428983655724
 30
0
 10
11.98909503601565
 20
52.55794543628639
 30
0
 10
11.10543943628644
 20
52.55794543628639
 30
0
 10
10.22178383655723
 20
52.55794543628639
 30
0
 10
9.505439436286384
 20
53.27428983655724
 30
0
 10
9.505439436286384
 20
54.15794543628645
 30
0
 10
9.505439436286384
 20
54.15794543628645
 30
0
 10
9.505439436286384
 20
54.15794543628645
 30
0
 10
9.505439436286384
 20
54.15794543628645
 30
0
  0
ENDBLK
  5
52
330
50
100
AcDbEntity
  8
0
100
AcDbBlockEnd
  0
BLOCK
  5
54
330
53
100
AcDbEntity
  8
0
100
AcDbBlockBegin
  2
BLOCK_3
 70
    0
 10
0
 20
0
  3
BLOCK_3
  1

  0
SPLINE
  5
AD
100
AcDbEntity
  8
0
  6
ByLayer
 62
    7
370
   -1
100
AcDbSpline
210
0
220
0
230
0
 70
   11
 71
    3
 72
   20
 73
   16
 74
    0
 42
1e-07
 43
1e-07
 40
0
 40
0
 40
0
 40
0
 40
1
 40
1
 40
1
 40
2
 40
2
 40
2
 40
3
 40
3
 40
3
 40
4
 40
4
 40
4
 40
5
 40
5
 40
5
 40
5
 10
52.55794543628671
 20
11.10594343628615
 30
0
 10
52.55794543628671
 20
11.98959903601568
 30
0
 10
53.27428983655724
 20
12.70594343628621
 30
0
 10
54.15794543628677
 20
12.70594343628621
 30
0
 10
55.04160103601565
 20
12.70594343628621
 30
0
 10
55.75794543628618
 20
11.98959903601568
 30
0
 10
55.75794543628618
 20
11.10594343628615
 30
0
 10
55.75794543628618
 20
10.22228783655727
 30
0
 10
55.04160103601565
 20
9.505943436286739
 30
0
 10
54.15794543628677
 20
9.505943436286739
 30
0
 10
53.27428983655724
 20
9.505943436286739
 30
0
 10
52.55794543628671
 20
10.22228783655727
 30
0
 10
52.55794543628671
 20
11.10594343628615
 30
0
 10
52.55794543628671
 20
11.10594343628615
 30
0
 10
52.55794543628671
 20
11.10594343628615
 30
0
 10
52.55794543628671
 20
11.10594343628615
 30
0
  0
ENDBLK
  5
55
330
53
100
AcDbEntity
  8
0
100
AcDbBlockEnd
  0
BLOCK
  5
57
330
56
100
AcDbEntity
  8
0
100
AcDbBlockBegin
  2
BLOCK_4
 70
    0
 10
0
 20
0
  3
BLOCK_4
  1

  0
SPLINE
  5
AE
100
AcDbEntity
  8
0
  6
ByLayer
 62
    7
370
   -1
100
AcDbSpline
210
0
220
0
230
0
 70
    8
 71
    3
 72
    8
 73
    4
 74
    0
 42
1e-07
 43
1e-07
 40
0
 40
0
 40
0
 40
0
 40
1
 40
1
 40
1
 40
1
 10
5.881944331566809
 20
61.38194443628635
 30
0
 10
4.77737483190522
 20
61.3819443784513
 30
0
 10
3.881944378451196
 20
60.48651383122836
 30
0
 10
3.881944436286568
 20
59.38194433156677
 30
0
  0
ENDBLK
  5
58
330
56
100
AcDbEntity
  8
0
100
AcDbBlockEnd
  0
BLOCK
  5
5A
330
59
100
AcDbEntity
  8
0
100
AcDbBlockBegin
  2
BLOCK_5
 70
    0
 10
0
 20
0
  3
BLOCK_5
  1

  0
LWPOLYLINE
  5
AF
100
AcDbEntity
  8
0
  6
ByLayer
 62
    7
370
   -1
100
AcDbPolyline
 90
    2
 70
    0
 43
0
 10
5.881944436286318
 20
61.38194443628635
 10
59.3819444362866
 20
61.38194443628635
  0
ENDBLK
  5
5B
330
59
100
AcDbEntity
  8
0
100
AcDbBlockEnd
  0
BLOCK
  5
5D
330
5C
100
AcDbEntity
  8
0
100
AcDbBlockBegin
  2
BLOCK_6
 70
    0
 10
0
 20
0
  3
BLOCK_6
  1

  0
SPLINE
  5
B0
100
AcDbEntity
  8
0
  6
ByLayer
 62
    7
370
   -1
100
AcDbSpline
210
0
220
0
230
0
 70
    8
 71
    3
 72
    8
 73
    4
 74
    0
 42
1e-07
 43
1e-07
 40
0
 40
0
 40
0
 40
0
 40
1
 40
1
 40
1
 40
1
 10
61.38194443628667
 20
59.3819444362866
 30
0
 10
61.38194443628667
 20
60.48651393594787
 30
0
 10
60.48651393594787
 20
61.38194443628635
 30
0
 10
59.3819444362866
 20
61.38194443628635
 30
0
  0
ENDBLK
  5
5E
330
5C
100
AcDbEntity
  8
0
100
AcDbBlockEnd
  0
BLOCK
  5
60
330
5F
100
AcDbEntity
  8
0
100
AcDbBlockBegin
  2
BLOCK_7
 70
    0
 10
0
 20
0
  3
BLOCK_7
  1

  0
LWPOLYLINE
  5
B1
100
AcDbEntity
  8
0
  6
ByLayer
 62
    7
370
   -1
100
AcDbPolyline
 90
    2
 70
    0
 43
0
 10
61.38194443628667
 20
5.881944436286318
 10
61.38194443628667
 20
59.3819444362866
  0
ENDBLK
  5
61
330
5F
100
AcDbEntity
  8
0
100
AcDbBlockEnd
  0
BLOCK
  5
63
330
62
100
AcDbEntity
  8
0
100
AcDbBlockBegin
  2
BLOCK_8
 70
    0
 10
0
 20
0
  3
BLOCK_8
  1

  0
SPLINE
  5
B2
100
AcDbEntity
  8
0
  6
ByLayer
 62
    7
370
   -1
100
AcDbSpline
210
0
220
0
230
0
 70
    8
 71
    3
 72
    8
 73
    4
 74
    0
 42
1e-07
 43
1e-07
 40
0
 40
0
 40
0
 40
0
 40
1
 40
1
 40
1
 40
1
 10
59.38194433156645
 20
3.881944436286247
 30
0
 10
60.48651383122836
 20
3.881944378451196
 30
0
 10
61.38194437845162
 20
4.777374831904899
 30
0
 10
61.38194443628667
 20
5.881944331566809
 30
0
  0
ENDBLK
  5
64
330
62
100
AcDbEntity
  8
0
100
AcDbBlockEnd
  0
BLOCK
  5
66
330
65
100
AcDbEntity
  8
0
100
AcDbBlockBegin
  2
BLOCK_9
 70
    0
 10
0
 20
0
  3
BLOCK_9
  1

  0
LWPOLYLINE
  5
B3
100
AcDbEntity
  8
0
  6
ByLayer
 62
    7
370
   -1
100
AcDbPolyline
 90
    2
 70
    0
 43
0
 10
3.881944436286568
 20
59.3819444362866
 10
3.881944436286568
 20
5.881944436286318
  0
ENDBLK
  5
67
330
65
100
AcDbEntity
  8
0
100
AcDbBlockEnd
  0
BLOCK
  5
69
330
68
100
AcDbEntity
  8
0
100
AcDbBlockBegin
  2
BLOCK_10
 70
    0
 10
0
 20
0
  3
BLOCK_10
  1

  0
LWPOLYLINE
  5
B4
100
AcDbEntity
  8
0
  6
ByLayer
 62
    7
370
   -1
100
AcDbPolyline
 90
    2
 70
    0
 43
0
 10
59.3819444362866
 20
3.881944436286247
 10
5.881944436286318
 20
3.881944436286247
  0
ENDBLK
  5
6A
330
68
100
AcDbEntity
  8
0
100
AcDbBlockEnd
  0
BLOCK
  5
6C
330
6B
100
AcDbEntity
  8
0
100
AcDbBlockBegin
  2
BLOCK_11
 70
    0
 10
0
 20
0
  3
BLOCK_11
  1

  0
SPLINE
  5
B5
100
AcDbEntity
  8
0
  6
ByLayer
 62
    7
370
   -1
100
AcDbSpline
210
0
220
0
230
0
 70
    8
 71
    3
 72
    8
 73
    4
 74
    0
 42
1e-07
 43
1e-07
 40
0
 40
0
 40
0
 40
0
 40
1
 40
1
 40
1
 40
1
 10
3.881944436286568
 20
5.881944261753804
 30
0
 10
3.881944532678427
 20
4.77737487114672
 30
0
 10
4.777374940960047
 20
3.881944494121298
 30
0
 10
5.881944331566809
 20
3.881944436286247
 30
0
  0
ENDBLK
  5
6D
330
6B
100
AcDbEntity
  8
0
100
AcDbBlockEnd
  0
BLOCK
  5
6F
330
6E
100
AcDbEntity
  8
0
100
AcDbBlockBegin
  2
BLOCK_12
 70
    0
 10
0
 20
0
  3
BLOCK_12
  1

  0
SPLINE
  5
B6
100
AcDbEntity
  8
0
  6
ByLayer
 62
    7
370
   -1
100
AcDbSpline
210
0
220
0
230
0
 70
   11
 71
    3
 72
   50
 73
   46
 74
    0
 42
1e-07
 43
1e-07
 40
0
 40
0
 40
0
 40
0
 40
1
 40
1
 40
1
 40
2
 40
2
 40
2
 40
3
 40
3
 40
3
 40
4
 40
4
 40
4
 40
5
 40
5
 40
5
 40
6
 40
6
 40
6
 40
7
 40
7
 40
7
 40
8
 40
8
 40
8
 40
9
 40
9
 40
9
 40
10
 40
10
 40
10
 40
11
 40
11
 40
11
 40
12
 40
12
 40
12
 40
13
 40
13
 40
13
 40
14
 40
14
 40
14
 40
15
 40
15
 40
15
 40
15
 10
24.81791323836765
 20
13.7889632639987
 30
0
 10
24.8208540492648
 20
13.82344692247227
 30
0
 10
24.82636070427697
 20
13.85793593763125
 30
0
 10
24.82637141761313
 20
13.89241959610482
 30
0
 10
24.82678120273871
 20
15.87580178445102
 30
0
 10
24.82689904944155
 20
17.85918129445452
 30
0
 10
24.82672227938665
 20
19.84256080445802
 30
0
 10
24.82672227938665
 20
19.84256080445802
 30
0
 10
24.82672227938665
 20
19.95026766596268
 30
0
 10
24.82672227938665
 20
19.95026766596268
 30
0
 10
24.82672227938665
 20
19.95026766596268
 30
0
 10
23.96858937439503
 20
19.95026766596268
 30
0
 10
23.96858937439503
 20
19.95026766596268
 30
0
 10
23.96858937439503
 20
19.95026766596268
 30
0
 10
23.89154977090529
 20
19.47446817261136
 30
0
 10
23.89154977090529
 20
19.47446817261136
 30
0
 10
23.85331655091381
 20
19.50109089612489
 30
0
 10
23.82552079910492
 20
19.51922863089625
 30
0
 10
23.79901868269098
 20
19.53909389651901
 30
0
 10
23.51823552207536
 20
19.77523263306337
 30
0
 10
23.18680238434982
 20
19.94347538962127
 30
0
 10
22.83045806069419
 20
20.03075721193949
 30
0
 10
22.1004941581173
 20
20.18975165217059
 30
0
 10
21.35949819717489
 20
19.81286334386366
 30
0
 10
21.05808382860219
 20
19.12928608170305
 30
0
 10
20.84379566992958
 20
18.64073767850136
 30
0
 10
20.75608290485157
 20
18.10606286238768
 30
0
 10
20.80305017250512
 20
17.57465562400884
 30
0
 10
20.82015401438714
 20
17.12874643190586
 30
0
 10
20.95058085248929
 20
16.69454695280113
 30
0
 10
21.18203177639598
 20
16.31302511213166
 30
0
 10
21.44238192578045
 20
15.86416438669802
 30
0
 10
21.88528197416185
 20
15.55092420732042
 30
0
 10
22.39523679632186
 20
15.45499133903242
 30
0
 10
22.81514870269324
 20
15.37912193370529
 30
0
 10
23.24769431125013
 20
15.48147478874022
 30
0
 10
23.58907478200831
 20
15.73748682593416
 30
0
 10
23.65852398651835
 20
15.78481849292843
 30
0
 10
23.72479936505928
 20
15.83681583239318
 30
0
 10
23.78967397484113
 20
15.88455192909049
 30
0
 10
23.78967397484113
 20
15.88455192909049
 30
0
 10
23.78967397484113
 20
13.7889632639987
 30
0
 10
23.78967397484113
 20
13.7889632639987
 30
0
 10
23.78967397484113
 20
13.7889632639987
 30
0
 10
24.81791323836765
 20
13.7889632639987
 30
0
 10
24.81791323836765
 20
13.7889632639987
 30
0
  0
ENDBLK
  5
70
330
6E
100
AcDbEntity
  8
0
100
AcDbBlockEnd
  0
BLOCK
  5
72
330
71
100
AcDbEntity
  8
0
100
AcDbBlockBegin
  2
BLOCK_13
 70
    0
 10
0
 20
0
  3
BLOCK_13
  1

  0
SPLINE
  5
B7
100
AcDbEntity
  8
0
  6
ByLayer
 62
    7
370
   -1
100
AcDbSpline
210
0
220
0
230
0
 70
   11
 71
    3
 72
   35
 73
   31
 74
    0
 42
1e-07
 43
1e-07
 40
0
 40
0
 40
0
 40
0
 40
1
 40
1
 40
1
 40
2
 40
2
 40
2
 40
3
 40
3
 40
3
 40
4
 40
4
 40
4
 40
5
 40
5
 40
5
 40
6
 40
6
 40
6
 40
7
 40
7
 40
7
 40
8
 40
8
 40
8
 40
9
 40
9
 40
9
 40
10
 40
10
 40
10
 40
10
 10
23.78677333895745
 20
17.68468728672127
 30
0
 10
23.78677333895745
 20
17.68468728672127
 30
0
 10
23.78677333895745
 20
16.89210416699005
 30
0
 10
23.78677333895745
 20
16.89210416699005
 30
0
 10
23.78677333895745
 20
16.63395481255629
 30
0
 10
23.78773486091748
 20
16.63244958412412
 30
0
 10
23.569822916138
 20
16.49346236166356
 30
0
 10
23.36121818253247
 20
16.35301008590687
 30
0
 10
23.11386598877691
 20
16.28141799340209
 30
0
 10
22.8624909371289
 20
16.28872986816989
 30
0
 10
22.51721616851597
 20
16.30566234885831
 30
0
 10
22.20996035316116
 20
16.51308121978535
 30
0
 10
22.06515889567578
 20
16.82698294973712
 30
0
 10
21.95432675021502
 20
17.04174047885576
 30
0
 10
21.89170729778815
 20
17.2781041961614
 30
0
 10
21.88167693639613
 20
17.51956747740833
 30
0
 10
21.84079216559652
 20
17.89272485474438
 30
0
 10
21.87894235722864
 20
18.2703068537347
 30
0
 10
21.9936393388681
 20
18.6277450394908
 30
0
 10
22.12744891300272
 20
19.06125618459755
 30
0
 10
22.58504498086485
 20
19.30650664200569
 30
0
 10
23.02012429352702
 20
19.17790067470963
 30
0
 10
23.30263765800293
 20
19.10398110265374
 30
0
 10
23.55806770755442
 20
18.95068617506175
 30
0
 10
23.75619479796644
 20
18.73615630504773
 30
0
 10
23.77767771618315
 20
18.70662222333956
 30
0
 10
23.78806161768369
 20
18.67046192252017
 30
0
 10
23.7855225569084
 20
18.63403110911742
 30
0
 10
23.78765986756055
 20
18.31759566725024
 30
0
 10
23.78676798228873
 20
18.00114147698543
 30
0
 10
23.78677333895745
 20
17.68468728672127
 30
0
  0
ENDBLK
  5
73
330
71
100
AcDbEntity
  8
0
100
AcDbBlockEnd
  0
BLOCK
  5
75
330
74
100
AcDbEntity
  8
0
100
AcDbBlockBegin
  2
BLOCK_14
 70
    0
 10
0
 20
0
  3
BLOCK_14
  1

  0
SPLINE
  5
B8
100
AcDbEntity
  8
0
  6
ByLayer
 62
    7
370
   -1
100
AcDbSpline
210
0
220
0
230
0
 70
   11
 71
    3
 72
   83
 73
   79
 74
    0
 42
1e-07
 43
1e-07
 40
0
 40
0
 40
0
 40
0
 40
1
 40
1
 40
1
 40
2
 40
2
 40
2
 40
3
 40
3
 40
3
 40
4
 40
4
 40
4
 40
5
 40
5
 40
5
 40
6
 40
6
 40
6
 40
7
 40
7
 40
7
 40
8
 40
8
 40
8
 40
9
 40
9
 40
9
 40
10
 40
10
 40
10
 40
11
 40
11
 40
11
 40
12
 40
12
 40
12
 40
13
 40
13
 40
13
 40
14
 40
14
 40
14
 40
15
 40
15
 40
15
 40
16
 40
16
 40
16
 40
17
 40
17
 40
17
 40
18
 40
18
 40
18
 40
19
 40
19
 40
19
 40
20
 40
20
 40
20
 40
21
 40
21
 40
21
 40
22
 40
22
 40
22
 40
23
 40
23
 40
23
 40
24
 40
24
 40
24
 40
25
 40
25
 40
25
 40
26
 40
26
 40
26
 40
26
 10
12.70575234850919
 20
16.64709476039875
 30
0
 10
12.72007072287537
 20
16.58573661422592
 30
0
 10
12.73248747999508
 20
16.523874939681
 30
0
 10
12.74900744503226
 20
16.46310067215233
 30
0
 10
12.8555837175286
 20
16.05255095649013
 30
0
 10
13.16102630066312
 20
15.72285771971381
 30
0
 10
13.56225146966977
 20
15.58528466204383
 30
0
 10
14.18296612226861
 20
15.34672202562264
 30
0
 10
14.87466734317991
 20
15.37522226716217
 30
0
 10
15.47365534915456
 20
15.66403596379909
 30
0
 10
15.69943356133096
 20
15.76048575217204
 30
0
 10
15.91059878238537
 20
15.88806323598422
 30
0
 10
16.1010122704455
 20
16.04305355431902
 30
0
 10
16.1010122704455
 20
16.04305355431902
 30
0
 10
15.62337422813921
 20
16.69702174118416
 30
0
 10
15.62337422813921
 20
16.69702174118416
 30
0
 10
15.43658720451775
 20
16.58531879281066
 30
0
 10
15.26346504173069
 20
16.46793240185234
 30
0
 10
15.07836536862425
 20
16.37420916604878
 30
0
 10
14.77682779668127
 20
16.21638783979076
 30
0
 10
14.4287193505366
 20
16.17186307563795
 30
0
 10
14.09716836610822
 20
16.2487073976007
 30
0
 10
13.83831272717899
 20
16.29494630089332
 30
0
 10
13.66184800337165
 20
16.53692382388123
 30
0
 10
13.69693953740505
 20
16.79752386161691
 30
0
 10
13.71103293170299
 20
16.9151861218427
 30
0
 10
13.77796450211133
 20
17.02001644360336
 30
0
 10
13.87876628618071
 20
17.0823173663026
 30
0
 10
14.00952791605214
 20
17.16755293502258
 30
0
 10
14.14658363117524
 20
17.24272864966698
 30
0
 10
14.28873889452059
 20
17.30719367303049
 30
0
 10
14.57364936806098
 20
17.43619603500276
 30
0
 10
14.86995883174465
 20
17.5415888086679
 30
0
 10
15.14847344333413
 20
17.6825981796443
 30
0
 10
15.30682727161917
 20
17.7673623601014
 30
0
 10
15.45143588904607
 20
17.87560756842879
 30
0
 10
15.57738723078364
 20
18.00365911884655
 30
0
 10
15.98694201899678
 20
18.46026828886024
 30
0
 10
15.97370569162783
 20
19.15583648997133
 30
0
 10
15.5470738448737
 20
19.59653094941031
 30
0
 10
15.28798786920815
 20
19.85072974879603
 30
0
 10
14.94957499268685
 20
20.00840108787879
 30
0
 10
14.58828914252465
 20
20.04324096589254
 30
0
 10
13.96124826466376
 20
20.123711763473
 30
0
 10
13.32822934497933
 20
19.94813034872286
 30
0
 10
12.83222864374082
 20
19.55615761598634
 30
0
 10
12.82297232091842
 20
19.54935730461811
 30
0
 10
12.81470698173143
 20
19.54120710867709
 30
0
 10
12.79805845665526
 20
19.52686994177978
 30
0
 10
12.79805845665526
 20
19.52686994177978
 30
0
 10
13.27033983066131
 20
18.90243315828011
 30
0
 10
13.27033983066131
 20
18.90243315828011
 30
0
 10
13.3870294929084
 20
18.97170312791982
 30
0
 10
13.49880709032559
 20
19.04312112816888
 30
0
 10
13.61514856913224
 20
19.10610770652404
 30
0
 10
13.88911001266714
 20
19.26601546151632
 30
0
 10
14.21394373504776
 20
19.31482557351831
 30
0
 10
14.52279851588885
 20
19.24248890182395
 30
0
 10
14.75891509788553
 20
19.1950742062149
 30
0
 10
14.91790101302939
 20
18.97280124830625
 30
0
 10
14.88648951011799
 20
18.73402702283537
 30
0
 10
14.87577617351816
 20
18.6308867351334
 30
0
 10
14.81834197600534
 20
18.53835804004197
 30
0
 10
14.73066938593888
 20
18.48298331080383
 30
0
 10
14.60145583320667
 20
18.40076087729024
 30
0
 10
14.46592141187984
 20
18.32892237728321
 30
0
 10
14.32534636568283
 20
18.26813739638566
 30
0
 10
14.0640052326623
 20
18.15750578497478
 30
0
 10
13.79393808698214
 20
18.06729385606494
 30
0
 10
13.53360400760126
 20
17.95449814398978
 30
0
 10
13.23367343614765
 20
17.84265324346849
 30
0
 10
12.98475977358363
 20
17.62537807248874
 30
0
 10
12.83341246743537
 20
17.34331112037179
 30
0
 10
12.78183846504261
 20
17.21898782258221
 30
0
 10
12.7391726020331
 20
17.09115053955684
 30
0
 10
12.70574699184175
 20
16.96076883124591
 30
0
 10
12.70574699184175
 20
16.96076883124591
 30
0
 10
12.70575234850919
 20
16.64709476039875
 30
0
 10
12.70575234850919
 20
16.64709476039875
 30
0
  0
ENDBLK
  5
76
330
74
100
AcDbEntity
  8
0
100
AcDbBlockEnd
  0
BLOCK
  5
78
330
77
100
AcDbEntity
  8
0
100
AcDbBlockBegin
  2
BLOCK_15
 70
    0
 10
0
 20
0
  3
BLOCK_15
  1

  0
SPLINE
  5
B9
100
AcDbEntity
  8
0
  6
ByLayer
 62
    7
370
   -1
100
AcDbSpline
210
0
220
0
230
0
 70
   11
 71
    3
 72
  107
 73
  103
 74
    0
 42
1e-07
 43
1e-07
 40
0
 40
0
 40
0
 40
0
 40
1
 40
1
 40
1
 40
2
 40
2
 40
2
 40
3
 40
3
 40
3
 40
4
 40
4
 40
4
 40
5
 40
5
 40
5
 40
6
 40
6
 40
6
 40
7
 40
7
 40
7
 40
8
 40
8
 40
8
 40
9
 40
9
 40
9
 40
10
 40
10
 40
10
 40
11
 40
11
 40
11
 40
12
 40
12
 40
12
 40
13
 40
13
 40
13
 40
14
 40
14
 40
14
 40
15
 40
15
 40
15
 40
16
 40
16
 40
16
 40
17
 40
17
 40
17
 40
18
 40
18
 40
18
 40
19
 40
19
 40
19
 40
20
 40
20
 40
20
 40
21
 40
21
 40
21
 40
22
 40
22
 40
22
 40
23
 40
23
 40
23
 40
24
 40
24
 40
24
 40
25
 40
25
 40
25
 40
26
 40
26
 40
26
 40
27
 40
27
 40
27
 40
28
 40
28
 40
28
 40
29
 40
29
 40
29
 40
30
 40
30
 40
30
 40
31
 40
31
 40
31
 40
32
 40
32
 40
32
 40
33
 40
33
 40
33
 40
34
 40
34
 40
34
 40
34
 10
26.67407647600817
 20
15.53888505820708
 30
0
 10
26.67407647600817
 20
15.53888505820708
 30
0
 10
26.67407647600817
 20
15.65403235491381
 30
0
 10
26.67407647600817
 20
15.65403235491381
 30
0
 10
26.67407647600817
 20
16.4556280968404
 30
0
 10
26.67130440016349
 20
17.25724526550604
 30
0
 10
26.6760798699526
 20
18.05881422400818
 30
0
 10
26.67447822613132
 20
18.25303154521703
 30
0
 10
26.68961617074737
 20
18.44702656400666
 30
0
 10
26.72133032541703
 20
18.63864589308233
 30
0
 10
26.75941623702964
 20
18.97281999670259
 30
0
 10
27.06118950237958
 20
19.21284500807721
 30
0
 10
27.39536257594006
 20
19.17475897906768
 30
0
 10
27.45545368093036
 20
19.16791045753595
 30
0
 10
27.51418954883865
 20
19.15214841247855
 30
0
 10
27.56963642241256
 20
19.12799244232122
 30
0
 10
27.83284971100353
 20
19.02432452116476
 30
0
 10
28.0660335171055
 20
18.8566120764034
 30
0
 10
28.24805042760528
 20
18.64005202284543
 30
0
 10
28.26683626333296
 20
18.60849043593602
 30
0
 10
28.27473199240784
 20
18.57162840940578
 30
0
 10
28.27051897278933
 20
18.53514135081271
 30
0
 10
28.27165458646926
 20
17.57380658946608
 30
0
 10
28.27195991656187
 20
16.61246914977739
 30
0
 10
28.27142692806601
 20
15.65113438843076
 30
0
 10
28.27142692806601
 20
15.65113438843076
 30
0
 10
28.27142692806601
 20
15.54129556637168
 30
0
 10
28.27142692806601
 20
15.54129556637168
 30
0
 10
28.27142692806601
 20
15.54129556637168
 30
0
 10
29.31137586849649
 20
15.54129556637168
 30
0
 10
29.31137586849649
 20
15.54129556637168
 30
0
 10
29.31137586849649
 20
15.54129556637168
 30
0
 10
29.31137586849649
 20
15.64520721668704
 30
0
 10
29.31137586849649
 20
15.64520721668704
 30
0
 10
29.31137586849649
 20
16.50779685021881
 30
0
 10
29.3089894727688
 20
17.3703998754628
 30
0
 10
29.31365513085879
 20
18.23296272557076
 30
0
 10
29.31393903427781
 20
18.38367840942656
 30
0
 10
29.33109108617573
 20
18.53388788656691
 30
0
 10
29.36479256478366
 20
18.68078693249435
 30
0
 10
29.42114203696681
 20
19.00697421906043
 30
0
 10
29.73125027818939
 20
19.22572247836378
 30
0
 10
30.05743655931575
 20
19.16937283249002
 30
0
 10
30.08729998508856
 20
19.16421434501634
 30
0
 10
30.11672684239477
 20
19.15679801489473
 30
0
 10
30.14546804615881
 20
19.14718812234362
 30
0
 10
30.34439595848084
 20
19.09016353418282
 30
0
 10
30.5269512141452
 20
18.98674202052797
 30
0
 10
30.67812442857355
 20
18.84542196183154
 30
0
 10
30.91533109256797
 20
18.64301694788833
 30
0
 10
30.91465347402825
 20
18.64222415853654
 30
0
 10
30.91465347402825
 20
18.3336041198086
 30
0
 10
30.91465347402825
 20
18.3336041198086
 30
0
 10
30.91465347402825
 20
15.54065008585243
 30
0
 10
30.91465347402825
 20
15.54065008585243
 30
0
 10
30.91465347402825
 20
15.54065008585243
 30
0
 10
31.94232225238044
 20
15.54065008585243
 30
0
 10
31.94232225238044
 20
15.54065008585243
 30
0
 10
31.94232225238044
 20
15.54065008585243
 30
0
 10
31.94232225238044
 20
19.95012571381489
 30
0
 10
31.94232225238044
 20
19.95012571381489
 30
0
 10
31.94232225238044
 20
19.95012571381489
 30
0
 10
31.09373493029961
 20
19.95012571381489
 30
0
 10
31.09373493029961
 20
19.95012571381489
 30
0
 10
31.09373493029961
 20
19.95012571381489
 30
0
 10
31.01725509864676
 20
19.33598983520766
 30
0
 10
31.01725509864676
 20
19.33598983520766
 30
0
 10
30.97365985368696
 20
19.37517934128901
 30
0
 10
30.94187070566037
 20
19.4020163321943
 30
0
 10
30.91202334989243
 20
19.43086207990384
 30
0
 10
30.7097957298973
 20
19.64423490599906
 30
0
 10
30.47024820185481
 20
19.81881729903183
 30
0
 10
30.2052029327056
 20
19.94599838816715
 30
0
 10
29.8432046456602
 20
20.10162883033708
 30
0
 10
29.43438639933756
 20
20.10797114515401
 30
0
 10
29.06773316753961
 20
19.96364598627929
 30
0
 10
28.79453772757125
 20
19.85415267039022
 30
0
 10
28.57586781422895
 20
19.64085483788296
 30
0
 10
28.45961204211411
 20
19.37046813699711
 30
0
 10
28.44560971117799
 20
19.34218484119268
 30
0
 10
28.43240284548314
 20
19.31350515071203
 30
0
 10
28.42123954874619
 20
19.29007768968936
 30
0
 10
28.25476501131932
 20
19.4350429723992
 30
0
 10
28.09230261844875
 20
19.5837043676293
 30
0
 10
27.92216947657283
 20
19.72303709625987
 30
0
 10
27.65913831470291
 20
19.94845978483859
 30
0
 10
27.32230029866187
 20
20.06911107518903
 30
0
 10
26.97596490972595
 20
20.06195454428125
 30
0
 10
26.3496445037507
 20
20.10734173468841
 30
0
 10
25.7959257015797
 20
19.65805783115474
 30
0
 10
25.71131176911386
 20
19.03581996677061
 30
0
 10
25.66061626032176
 20
18.80648154159513
 30
0
 10
25.63397754886511
 20
18.57248012229124
 30
0
 10
25.63182684654309
 20
18.33761627673301
 30
0
 10
25.62290531548997
 20
17.43445243409645
 30
0
 10
25.62816288542531
 20
16.53114931765482
 30
0
 10
25.62837715215868
 20
15.6279024464035
 30
0
 10
25.62837715215868
 20
15.5995361219843
 30
0
 10
25.63107423464771
 20
15.5711751542505
 30
0
 10
25.63270534014503
 20
15.53888505820708
 30
0
 10
25.63270534014503
 20
15.53888505820708
 30
0
 10
26.67407647600817
 20
15.53888505820708
 30
0
 10
26.67407647600817
 20
15.53888505820708
 30
0
  0
ENDBLK
  5
79
330
77
100
AcDbEntity
  8
0
100
AcDbBlockEnd
  0
BLOCK
  5
7B
330
7A
100
AcDbEntity
  8
0
100
AcDbBlockBegin
  2
BLOCK_16
 70
    0
 10
0
 20
0
  3
BLOCK_16
  1

  0
SPLINE
  5
BA
100
AcDbEntity
  8
0
  6
ByLayer
 62
    7
370
   -1
100
AcDbSpline
210
0
220
0
230
0
 70
   11
 71
    3
 72
   77
 73
   73
 74
    0
 42
1e-07
 43
1e-07
 40
0
 40
0
 40
0
 40
0
 40
1
 40
1
 40
1
 40
2
 40
2
 40
2
 40
3
 40
3
 40
3
 40
4
 40
4
 40
4
 40
5
 40
5
 40
5
 40
6
 40
6
 40
6
 40
7
 40
7
 40
7
 40
8
 40
8
 40
8
 40
9
 40
9
 40
9
 40
10
 40
10
 40
10
 40
11
 40
11
 40
11
 40
12
 40
12
 40
12
 40
13
 40
13
 40
13
 40
14
 40
14
 40
14
 40
15
 40
15
 40
15
 40
16
 40
16
 40
16
 40
17
 40
17
 40
17
 40
18
 40
18
 40
18
 40
19
 40
19
 40
19
 40
20
 40
20
 40
20
 40
21
 40
21
 40
21
 40
22
 40
22
 40
22
 40
23
 40
23
 40
23
 40
24
 40
24
 40
24
 40
24
 10
40.29875961872687
 20
20.6198452323679
 30
0
 10
40.49418962664987
 20
20.45548071561279
 30
0
 10
40.67992674328385
 20
20.27992608428645
 30
0
 10
40.85504158667918
 20
20.09406519138356
 30
0
 10
40.93687272996418
 20
19.96708229958571
 30
0
 10
41.09454090470641
 20
19.91196736956076
 30
0
 10
41.23766036834614
 20
19.96031412832669
 30
0
 10
41.90331746798243
 20
20.10355455852721
 30
0
 10
42.57211357524179
 20
19.7315515467679
 30
0
 10
42.80151021685506
 20
19.09046083018998
 30
0
 10
42.93517783927889
 20
18.76492973751267
 30
0
 10
43.00685140030038
 20
18.41729428496103
 30
0
 10
43.01284551212815
 20
18.06544044312005
 30
0
 10
43.03781160390715
 20
17.67641656537279
 30
0
 10
42.99516448923687
 20
17.28601066294352
 30
0
 10
42.88679641119383
 20
16.91155428954087
 30
0
 10
42.79868323516018
 20
16.60312173478153
 30
0
 10
42.63526333783079
 20
16.32143510728588
 30
0
 10
42.41124211285634
 20
16.09185027460943
 30
0
 10
41.87857769543788
 20
15.5886995486112
 30
0
 10
41.0388877994035
 20
15.61262785966391
 30
0
 10
40.53573862431869
 20
16.14529391897332
 30
0
 10
40.46872402555162
 20
16.21623785261615
 30
0
 10
40.40974442923457
 20
16.29435974390645
 30
0
 10
40.35986581235862
 20
16.37824274971158
 30
0
 10
40.14718465417538
 20
16.72974037201237
 30
0
 10
40.0232634897239
 20
17.12772598344944
 30
0
 10
39.9988049422653
 20
17.53783109427257
 30
0
 10
39.95603998089283
 20
17.9778747165069
 30
0
 10
39.99492939275044
 20
18.4220349510188
 30
0
 10
40.11351799391028
 20
18.84795031706282
 30
0
 10
40.12084323781018
 20
18.87840307021629
 30
0
 10
40.11832560370978
 20
18.91039587025255
 30
0
 10
40.1063293450518
 20
18.93933000326162
 30
0
 10
39.97932541799238
 20
19.26399599134189
 30
0
 10
39.74507295656563
 20
19.53544331582019
 30
0
 10
39.44248547763517
 20
19.70858476063923
 30
0
 10
39.38275594775582
 20
19.74263720598531
 30
0
 10
39.35530837938609
 20
19.73303534846038
 30
0
 10
39.32192562254129
 20
19.67401271686548
 30
0
 10
39.09250219758635
 20
19.25862323647582
 30
0
 10
38.95596072261922
 20
18.79839026918713
 30
0
 10
38.9217235771798
 20
18.32509234764327
 30
0
 10
38.86018349341452
 20
17.76069596585349
 30
0
 10
38.91237351266187
 20
17.18968943500613
 30
0
 10
39.07520819397956
 20
16.64580112101692
 30
0
 10
39.26289513787526
 20
16.00688789681486
 30
0
 10
39.68624334696052
 20
15.46310939486359
 30
0
 10
40.25961308678998
 20
15.12446513776827
 30
0
 10
40.67913931304372
 20
14.88443744805159
 30
0
 10
41.16066897487039
 20
14.77486378189046
 30
0
 10
41.6427476951965
 20
14.80972508664326
 30
0
 10
42.23007155594746
 20
14.81997242468808
 30
0
 10
42.79174099304353
 20
15.0521793545801
 30
0
 10
43.2148401170526
 20
15.45965968984559
 30
0
 10
43.57319854798882
 20
15.80806650500998
 30
0
 10
43.82598776006834
 20
16.25051260038209
 30
0
 10
43.94415988026702
 20
16.73614964538915
 30
0
 10
44.1908103504749
 20
17.59743760451227
 30
0
 10
44.14939259117943
 20
18.51572069002903
 30
0
 10
43.82620604430164
 20
19.35130727542598
 30
0
 10
43.52726377814908
 20
20.18605821799304
 30
0
 10
42.77848457816785
 20
20.7772648072643
 30
0
 10
41.8971599777709
 20
20.87440828631999
 30
0
 10
41.3948357296047
 20
20.95429252691423
 30
0
 10
40.88012686432788
 20
20.88674740978384
 30
0
 10
40.41542249763229
 20
20.67995794932176
 30
0
 10
40.38637328544192
 20
20.66685281993121
 30
0
 10
40.35791598509753
 20
20.65237102254342
 30
0
 10
40.32956849645355
 20
20.6377847698018
 30
0
 10
40.31432877514082
 20
20.62994793992223
 30
0
 10
40.29991130241103
 20
20.62052285299636
 30
0
 10
40.29875961872687
 20
20.6198452323679
 30
0
  0
ENDBLK
  5
7C
330
7A
100
AcDbEntity
  8
0
100
AcDbBlockEnd
  0
BLOCK
  5
7E
330
7D
100
AcDbEntity
  8
0
100
AcDbBlockBegin
  2
BLOCK_17
 70
    0
 10
0
 20
0
  3
BLOCK_17
  1

  0
SPLINE
  5
BB
100
AcDbEntity
  8
0
  6
ByLayer
 62
    7
370
   -1
100
AcDbSpline
210
0
220
0
230
0
 70
   11
 71
    3
 72
   65
 73
   61
 74
    0
 42
1e-07
 43
1e-07
 40
0
 40
0
 40
0
 40
0
 40
1
 40
1
 40
1
 40
2
 40
2
 40
2
 40
3
 40
3
 40
3
 40
4
 40
4
 40
4
 40
5
 40
5
 40
5
 40
6
 40
6
 40
6
 40
7
 40
7
 40
7
 40
8
 40
8
 40
8
 40
9
 40
9
 40
9
 40
10
 40
10
 40
10
 40
11
 40
11
 40
11
 40
12
 40
12
 40
12
 40
13
 40
13
 40
13
 40
14
 40
14
 40
14
 40
15
 40
15
 40
15
 40
16
 40
16
 40
16
 40
17
 40
17
 40
17
 40
18
 40
18
 40
18
 40
19
 40
19
 40
19
 40
20
 40
20
 40
20
 40
20
 10
33.80312972143832
 20
18.36698697955433
 30
0
 10
33.74782747790957
 20
18.76794287271906
 30
0
 10
34.02033190766705
 20
19.1405619032311
 30
0
 10
34.41919210761897
 20
19.20937387631951
 30
0
 10
34.72662469302675
 20
19.24474942281458
 30
0
 10
35.03778284123681
 20
19.19213338625376
 30
0
 10
35.31648761455235
 20
19.05763774400795
 30
0
 10
35.48964459568416
 20
18.97768386651181
 30
0
 10
35.65795111366992
 20
18.88722820844307
 30
0
 10
35.83247940188605
 20
18.79945624946434
 30
0
 10
35.83875473879912
 20
18.80609050360367
 30
0
 10
35.84434710050503
 20
18.81333809815368
 30
0
 10
35.84917613697748
 20
18.82108922107579
 30
0
 10
35.96873965176722
 20
19.03968481486246
 30
0
 10
36.0879656964546
 20
19.25846253593168
 30
0
 10
36.21646949063798
 20
19.49410577913013
 30
0
 10
36.02792815814828
 20
19.59062520440563
 30
0
 10
35.84548807085304
 20
19.69063450983516
 30
0
 10
35.65755204188113
 20
19.77893410226774
 30
0
 10
35.19239235838034
 20
20.00369524027164
 30
0
 10
34.67462751383854
 20
20.09698458460566
 30
0
 10
34.16027218867024
 20
20.04870746274227
 30
0
 10
33.50253760144986
 20
20.03189550746195
 30
0
 10
32.94903306601095
 20
19.55117589911172
 30
0
 10
32.84026055951105
 20
18.90227781442074
 30
0
 10
32.79007393420653
 20
18.69058430901405
 30
0
 10
32.76308168264392
 20
18.47405639556529
 30
0
 10
32.75975786996351
 20
18.25651874702965
 30
0
 10
32.75088990559373
 20
17.37945267279484
 30
0
 10
32.75602962882623
 20
16.50224196806955
 30
0
 10
32.75622246888601
 20
15.62508215185045
 30
0
 10
32.75622246888601
 20
15.59934328133159
 30
0
 10
32.75868117963564
 20
15.57360708915479
 30
0
 10
32.76029353679309
 20
15.54133841985041
 30
0
 10
32.76029353679309
 20
15.54133841985041
 30
0
 10
33.60276354367683
 20
15.54133841985041
 30
0
 10
33.60276354367683
 20
15.54133841985041
 30
0
 10
33.60276354367683
 20
15.54133841985041
 30
0
 10
33.68811669636946
 20
16.03322403769011
 30
0
 10
33.68811669636946
 20
16.03322403769011
 30
0
 10
33.68811669636946
 20
16.03322403769011
 30
0
 10
33.77042458313197
 20
15.96951698522712
 30
0
 10
33.77042458313197
 20
15.96951698522712
 30
0
 10
34.03858475489887
 20
15.73637799217821
 30
0
 10
34.35555488821501
 20
15.56626039593573
 30
0
 10
34.69806561598504
 20
15.47165598548084
 30
0
 10
35.06449118938104
 20
15.37377060557826
 30
0
 10
35.4545637749869
 20
15.42122547632334
 30
0
 10
35.78682987463348
 20
15.60411340915588
 30
0
 10
36.39773914590982
 20
15.99477911079834
 30
0
 10
36.57628225701724
 20
16.80671593275339
 30
0
 10
36.1856177595641
 20
17.41762708710326
 30
0
 10
36.05067525008455
 20
17.62865100690896
 30
0
 10
35.85818337472369
 20
17.79667146104765
 30
0
 10
35.63086244207742
 20
17.90186068068991
 30
0
 10
35.25637508288974
 20
18.08163637964764
 30
0
 10
34.85719616117277
 20
18.20462050623396
 30
0
 10
34.44646826260315
 20
18.26676608507382
 30
0
 10
34.23293271582529
 20
18.30542795770069
 30
0
 10
34.01755715348737
 20
18.33391748587005
 30
0
 10
33.80312972143832
 20
18.36698697955433
 30
0
  0
ENDBLK
  5
7F
330
7D
100
AcDbEntity
  8
0
100
AcDbBlockEnd
  0
BLOCK
  5
81
330
80
100
AcDbEntity
  8
0
100
AcDbBlockBegin
  2
BLOCK_18
 70
    0
 10
0
 20
0
  3
BLOCK_18
  1

  0
SPLINE
  5
BC
100
AcDbEntity
  8
0
  6
ByLayer
 62
    7
370
   -1
100
AcDbSpline
210
0
220
0
230
0
 70
   11
 71
    3
 72
   32
 73
   28
 74
    0
 42
1e-07
 43
1e-07
 40
0
 40
0
 40
0
 40
0
 40
1
 40
1
 40
1
 40
2
 40
2
 40
2
 40
3
 40
3
 40
3
 40
4
 40
4
 40
4
 40
5
 40
5
 40
5
 40
6
 40
6
 40
6
 40
7
 40
7
 40
7
 40
8
 40
8
 40
8
 40
9
 40
9
 40
9
 40
9
 10
33.79330023510788
 20
17.71059221446967
 30
0
 10
33.84976755399259
 20
17.70333122820744
 30
0
 10
33.8929181954827
 20
17.69847271508362
 30
0
 10
33.93585724857572
 20
17.69215182700638
 30
0
 10
34.29092668517563
 20
17.65340692576473
 30
0
 10
34.63717101075103
 20
17.55636254537745
 30
0
 10
34.96065485271963
 20
17.40492638741511
 30
0
 10
35.09298062973453
 20
17.3434611075464
 30
0
 10
35.2061081075618
 20
17.24717737640299
 30
0
 10
35.28793121584501
 20
17.12637342053459
 30
0
 10
35.46395133618266
 20
16.8659635451102
 30
0
 10
35.39553864698895
 20
16.51216790502545
 30
0
 10
35.13512957425306
 20
16.33614724212035
 30
0
 10
35.11877834426706
 20
16.32509640135486
 30
0
 10
35.1018619857761
 20
16.31489995181624
 30
0
 10
35.08445281380147
 20
16.30560610366799
 30
0
 10
34.89685961160065
 20
16.23080000027601
 30
0
 10
34.68982170347165
 20
16.21999824535354
 30
0
 10
34.49546035087408
 20
16.27487480290499
 30
0
 10
34.23782335398415
 20
16.35870692020392
 30
0
 10
34.00529038308088
 20
16.50574256159375
 30
0
 10
33.81909259297234
 20
16.70255519659437
 30
0
 10
33.80469654691679
 20
16.71615849767289
 30
0
 10
33.79588482756279
 20
16.73463906027222
 30
0
 10
33.79438496043883
 20
16.75438915717227
 30
0
 10
33.79289848498602
 20
17.07035588911863
 30
0
 10
33.79330023510788
 20
17.38633065609244
 30
0
 10
33.79330023510788
 20
17.71059221446967
 30
0
  0
ENDBLK
  5
82
330
80
100
AcDbEntity
  8
0
100
AcDbBlockEnd
  0
BLOCK
  5
84
330
83
100
AcDbEntity
  8
0
100
AcDbBlockBegin
  2
BLOCK_19
 70
    0
 10
0
 20
0
  3
BLOCK_19
  1

  0
SPLINE
  5
BD
100
AcDbEntity
  8
0
  6
ByLayer
 62
    7
370
   -1
100
AcDbSpline
210
0
220
0
230
0
 70
   11
 71
    3
 72
   71
 73
   67
 74
    0
 42
1e-07
 43
1e-07
 40
0
 40
0
 40
0
 40
0
 40
1
 40
1
 40
1
 40
2
 40
2
 40
2
 40
3
 40
3
 40
3
 40
4
 40
4
 40
4
 40
5
 40
5
 40
5
 40
6
 40
6
 40
6
 40
7
 40
7
 40
7
 40
8
 40
8
 40
8
 40
9
 40
9
 40
9
 40
10
 40
10
 40
10
 40
11
 40
11
 40
11
 40
12
 40
12
 40
12
 40
13
 40
13
 40
13
 40
14
 40
14
 40
14
 40
15
 40
15
 40
15
 40
16
 40
16
 40
16
 40
17
 40
17
 40
17
 40
18
 40
18
 40
18
 40
19
 40
19
 40
19
 40
20
 40
20
 40
20
 40
21
 40
21
 40
21
 40
22
 40
22
 40
22
 40
22
 10
48.79980694166545
 20
15.53912878736598
 30
0
 10
48.79980694166545
 20
15.53912878736598
 30
0
 10
49.83530850823988
 20
15.53912878736598
 30
0
 10
49.83530850823988
 20
15.53912878736598
 30
0
 10
49.83530850823988
 20
15.53912878736598
 30
0
 10
49.83530850823988
 20
15.65079691728756
 30
0
 10
49.83530850823988
 20
15.65079691728756
 30
0
 10
49.83530850823988
 20
16.51337315910775
 30
0
 10
49.83418896456547
 20
17.37595207927
 30
0
 10
49.83661821363907
 20
18.23852028606337
 30
0
 10
49.83704272960139
 20
18.35743333219226
 30
0
 10
49.84691774761274
 20
18.47612407590258
 30
0
 10
49.86614952597696
 20
18.59347297006692
 30
0
 10
49.88006347188628
 20
18.92976564253067
 30
0
 10
50.16396287428452
 20
19.19110490276988
 30
0
 10
50.50025451015919
 20
19.17719091397196
 30
0
 10
50.53524158916028
 20
19.17574193073076
 30
0
 10
50.57003850643723
 20
19.17128249062522
 30
0
 10
50.60425958187114
 20
19.16385812547615
 30
0
 10
50.77064171677127
 20
19.15536778004987
 30
0
 10
50.93100161733381
 20
19.09886279031673
 30
0
 10
51.06595617931701
 20
19.00117828609497
 30
0
 10
51.20008313604791
 20
18.89990480304947
 30
0
 10
51.32732677401358
 20
18.78956245261764
 30
0
 10
51.45897225415438
 20
18.68493032819574
 30
0
 10
51.50685283375334
 20
18.64692197111621
 30
0
 10
51.53238137570423
 20
18.58736367103937
 30
0
 10
51.52689079069692
 20
18.52647691313006
 30
0
 10
51.52494765927142
 20
17.57097022485875
 30
0
 10
51.52450707330359
 20
16.61545550155997
 30
0
 10
51.52556769362658
 20
15.6599407782612
 30
0
 10
51.52556769362658
 20
15.6599407782612
 30
0
 10
51.52556769362658
 20
15.54133306316565
 30
0
 10
51.52556769362658
 20
15.54133306316565
 30
0
 10
51.52556769362658
 20
15.54133306316565
 30
0
 10
52.55825299184229
 20
15.54133306316565
 30
0
 10
52.55825299184229
 20
15.54133306316565
 30
0
 10
52.55825299184229
 20
15.54133306316565
 30
0
 10
52.55825299184229
 20
19.94854817013812
 30
0
 10
52.55825299184229
 20
19.94854817013812
 30
0
 10
52.55825299184229
 20
19.94854817013812
 30
0
 10
51.70795689257348
 20
19.94854817013812
 30
0
 10
51.70795689257348
 20
19.94854817013812
 30
0
 10
51.70795689257348
 20
19.94854817013812
 30
0
 10
51.63205825943111
 20
19.35029218365497
 30
0
 10
51.63205825943111
 20
19.35029218365497
 30
0
 10
51.59311528088951
 20
19.37984769210218
 30
0
 10
51.5636897627508
 20
19.39929513630966
 30
0
 10
51.5375612739502
 20
19.42246547646185
 30
0
 10
51.30316686081329
 20
19.65310289770393
 30
0
 10
51.0270359666165
 20
19.83704341910209
 30
0
 10
50.72389407251724
 20
19.96447359408236
 30
0
 10
50.3747102752122
 20
20.09332596887938
 30
0
 10
49.99223076692167
 20
20.10039411448827
 30
0
 10
49.6385246024043
 20
19.98453170035846
 30
0
 10
49.265079115201
 20
19.85560165363143
 30
0
 10
48.98634086270886
 20
19.54063662174515
 30
0
 10
48.90376782086528
 20
19.15428572971837
 30
0
 10
48.82599837131805
 20
18.88022702139402
 30
0
 10
48.78949937268935
 20
18.59611113733678
 30
0
 10
48.79547071867603
 20
18.3112962059114
 30
0
 10
48.79514664024482
 20
17.41678340924527
 30
0
 10
48.79516538858341
 20
16.52227061257978
 30
0
 10
48.79553098119495
 20
15.62775245922889
 30
0
 10
48.79553098119495
 20
15.59951737358795
 30
0
 10
48.79818521033807
 20
15.57129835800066
 30
0
 10
48.79980694166545
 20
15.53912878736598
 30
0
  0
ENDBLK
  5
85
330
83
100
AcDbEntity
  8
0
100
AcDbBlockEnd
  0
BLOCK
  5
87
330
86
100
AcDbEntity
  8
0
100
AcDbBlockBegin
  2
BLOCK_20
 70
    0
 10
0
 20
0
  3
BLOCK_20
  1

  0
SPLINE
  5
BE
100
AcDbEntity
  8
0
  6
ByLayer
 62
    7
370
   -1
100
AcDbSpline
210
0
220
0
230
0
 70
   11
 71
    3
 72
   71
 73
   67
 74
    0
 42
1e-07
 43
1e-07
 40
0
 40
0
 40
0
 40
0
 40
1
 40
1
 40
1
 40
2
 40
2
 40
2
 40
3
 40
3
 40
3
 40
4
 40
4
 40
4
 40
5
 40
5
 40
5
 40
6
 40
6
 40
6
 40
7
 40
7
 40
7
 40
8
 40
8
 40
8
 40
9
 40
9
 40
9
 40
10
 40
10
 40
10
 40
11
 40
11
 40
11
 40
12
 40
12
 40
12
 40
13
 40
13
 40
13
 40
14
 40
14
 40
14
 40
15
 40
15
 40
15
 40
16
 40
16
 40
16
 40
17
 40
17
 40
17
 40
18
 40
18
 40
18
 40
19
 40
19
 40
19
 40
20
 40
20
 40
20
 40
21
 40
21
 40
21
 40
22
 40
22
 40
22
 40
22
 10
20.24772436984412
 20
19.95271834926396
 30
0
 10
20.24772436984412
 20
19.95271834926396
 30
0
 10
19.21484355323621
 20
19.95271834926396
 30
0
 10
19.21484355323621
 20
19.95271834926396
 30
0
 10
19.21484355323621
 20
19.95271834926396
 30
0
 10
19.21484355323621
 20
19.8410823594503
 30
0
 10
19.21484355323621
 20
19.8410823594503
 30
0
 10
19.21484355323621
 20
19.00468155796187
 30
0
 10
19.21936993794912
 20
18.168235224652
 30
0
 10
19.21152241888951
 20
17.33190941675088
 30
0
 10
19.208372697929
 20
17.13227113051181
 30
0
 10
19.18371595374447
 20
16.93355419406139
 30
0
 10
19.13798607646753
 20
16.73919759904681
 30
0
 10
19.08792801120425
 20
16.50197949051366
 30
0
 10
18.87959111101158
 20
16.33152174478592
 30
0
 10
18.63715901709028
 20
16.32943263770959
 30
0
 10
18.34372608428491
 20
16.29604174293704
 30
0
 10
18.05131627512406
 20
16.40003910020923
 30
0
 10
17.84486492217426
 20
16.61122372055906
 30
0
 10
17.55419067354305
 20
16.88968562379798
 30
0
 10
17.55351573333705
 20
16.88898657642984
 30
0
 10
17.55351573333705
 20
17.29357430189703
 30
0
 10
17.55351573333705
 20
17.29357430189703
 30
0
 10
17.55351573333705
 20
19.94851067334415
 30
0
 10
17.55351573333705
 20
19.94851067334415
 30
0
 10
17.55351573333705
 20
19.94851067334415
 30
0
 10
16.52684597362206
 20
19.94851067334415
 30
0
 10
16.52684597362206
 20
19.94851067334415
 30
0
 10
16.52684597362206
 20
19.94851067334415
 30
0
 10
16.52684597362206
 20
15.53458364030297
 30
0
 10
16.52684597362206
 20
15.53458364030297
 30
0
 10
16.52684597362206
 20
15.53458364030297
 30
0
 10
16.62709066418891
 20
15.53458364030297
 30
0
 10
16.62709066418891
 20
15.53458364030297
 30
0
 10
16.84780682482154
 20
15.53458364030297
 30
0
 10
17.06856583880136
 20
15.53695933001694
 30
0
 10
17.28921236274642
 20
15.53311590866478
 30
0
 10
17.35378164243501
 20
15.53199368319661
 30
0
 10
17.37221393805545
 20
15.55342042244249
 30
0
 10
17.37851337997584
 20
15.61585526226269
 30
0
 10
17.39737420905981
 20
15.80269642848661
 30
0
 10
17.42415219389161
 20
15.98873944867333
 30
0
 10
17.44783402444623
 20
16.17508779989467
 30
0
 10
17.44783402444623
 20
16.17508779989467
 30
0
 10
17.47400670576024
 20
16.19463166442915
 30
0
 10
17.47400670576024
 20
16.19463166442915
 30
0
 10
17.49356925839189
 20
16.16448424231031
 30
0
 10
17.51481916153792
 20
16.13546440234376
 30
0
 10
17.53765463850036
 20
16.10771409667858
 30
0
 10
17.74956979311707
 20
15.85145565198304
 30
0
 10
18.02120108594197
 20
15.65119063362172
 30
0
 10
18.32866313302515
 20
15.52452914291215
 30
0
 10
18.68890978953667
 20
15.39071647797955
 30
0
 10
19.08489078027785
 20
15.3887345045991
 30
0
 10
19.44645517719164
 20
15.51893408562621
 30
0
 10
19.80296823589781
 20
15.65761597705279
 30
0
 10
20.06559496931022
 20
15.96662169708677
 30
0
 10
20.14498615018418
 20
16.34083166298845
 30
0
 10
20.21767346068154
 20
16.58915685747806
 30
0
 10
20.25338101156889
 20
16.84683482364829
 30
0
 10
20.25095176249529
 20
17.10556805672685
 30
0
 10
20.2532979832108
 20
18.0320040165267
 30
0
 10
20.25189185778173
 20
18.95843997632655
 30
0
 10
20.25171776606183
 20
19.88485986607212
 30
0
 10
20.25172312273055
 20
19.90471977501075
 30
0
 10
20.24944653870325
 20
19.92457432726398
 30
0
 10
20.24772436984412
 20
19.95271834926396
 30
0
  0
ENDBLK
  5
88
330
86
100
AcDbEntity
  8
0
100
AcDbBlockEnd
  0
BLOCK
  5
8A
330
89
100
AcDbEntity
  8
0
100
AcDbBlockBegin
  2
BLOCK_21
 70
    0
 10
0
 20
0
  3
BLOCK_21
  1

  0
SPLINE
  5
BF
100
AcDbEntity
  8
0
  6
ByLayer
 62
    7
370
   -1
100
AcDbSpline
210
0
220
0
230
0
 70
   11
 71
    3
 72
   53
 73
   49
 74
    0
 42
1e-07
 43
1e-07
 40
0
 40
0
 40
0
 40
0
 40
1
 40
1
 40
1
 40
2
 40
2
 40
2
 40
3
 40
3
 40
3
 40
4
 40
4
 40
4
 40
5
 40
5
 40
5
 40
6
 40
6
 40
6
 40
7
 40
7
 40
7
 40
8
 40
8
 40
8
 40
9
 40
9
 40
9
 40
10
 40
10
 40
10
 40
11
 40
11
 40
11
 40
12
 40
12
 40
12
 40
13
 40
13
 40
13
 40
14
 40
14
 40
14
 40
15
 40
15
 40
15
 40
16
 40
16
 40
16
 40
16
 10
47.2474150066493
 20
17.48069937241589
 30
0
 10
47.24667310809071
 20
16.89750102693787
 30
0
 10
46.84223661643776
 20
16.39253170644603
 30
0
 10
46.27328478878832
 20
16.2644239108373
 30
0
 10
45.84952545541062
 20
16.18384597956097
 30
0
 10
45.41095359501621
 20
16.26489262075877
 30
0
 10
45.04397896311949
 20
16.49159823534916
 30
0
 10
45.01127114648006
 20
16.51027699528659
 30
0
 10
44.97864769736558
 20
16.52910842074134
 30
0
 10
44.94592916738999
 20
16.54776843228244
 30
0
 10
44.94081488832973
 20
16.54991378454908
 30
0
 10
44.93558544090228
 20
16.55177523252143
 30
0
 10
44.93026493011301
 20
16.55334206282868
 30
0
 10
44.93026493011301
 20
16.55334206282868
 30
0
 10
44.57811889523852
 20
15.90445736984992
 30
0
 10
44.57811889523852
 20
15.90445736984992
 30
0
 10
44.66521564346194
 20
15.85411524599195
 30
0
 10
44.74795875952549
 20
15.80236699237088
 30
0
 10
44.8341180907962
 20
15.75712711079563
 30
0
 10
45.4311535911754
 20
15.41261192714625
 30
0
 10
46.14486670129868
 20
15.33285356864616
 30
0
 10
46.80322534037544
 20
15.53707182039822
 30
0
 10
47.55724202278721
 20
15.76051789228125
 30
0
 10
48.11089252743749
 20
16.40430569966141
 30
0
 10
48.21894724038548
 20
17.18327748328665
 30
0
 10
48.33792152166295
 20
17.7357097095504
 30
0
 10
48.27840491934754
 20
18.31165510379364
 30
0
 10
48.04897747689266
 20
18.82808505143943
 30
0
 10
47.7950727386393
 20
19.45948284685147
 30
0
 10
47.2313396450818
 20
19.91360383677055
 30
0
 10
46.56036203465626
 20
20.02725661841465
 30
0
 10
45.64753218965303
 20
20.24810201982243
 30
0
 10
44.72850735776046
 20
19.68713659465367
 30
0
 10
44.50766129792133
 20
18.77430393593234
 30
0
 10
44.49562620341803
 20
18.7245564040887
 30
0
 10
44.48584358793534
 20
18.6742919521601
 30
0
 10
44.47834157398117
 20
18.62366324566514
 30
0
 10
44.40220992576749
 20
18.27695717792768
 30
0
 10
44.38788351639951
 20
17.91952970554046
 30
0
 10
44.4360225552446
 20
17.56784192092902
 30
0
 10
44.44562036567059
 20
17.49794254082435
 30
0
 10
44.47123327514706
 20
17.47898255493403
 30
0
 10
44.54031688704492
 20
17.47917003890198
 30
0
 10
45.40869442016065
 20
17.48151091016532
 30
0
 10
46.27707864911196
 20
17.48201979522217
 30
0
 10
47.14546823473069
 20
17.48069669407383
 30
0
 10
47.14546823473069
 20
17.48069669407383
 30
0
 10
47.2474150066493
 20
17.48069937241589
 30
0
 10
47.2474150066493
 20
17.48069937241589
 30
0
  0
ENDBLK
  5
8B
330
89
100
AcDbEntity
  8
0
100
AcDbBlockEnd
  0
BLOCK
  5
8D
330
8C
100
AcDbEntity
  8
0
100
AcDbBlockBegin
  2
BLOCK_22
 70
    0
 10
0
 20
0
  3
BLOCK_22
  1

  0
SPLINE
  5
C0
100
AcDbEntity
  8
0
  6
ByLayer
 62
    7
370
   -1
100
AcDbSpline
210
0
220
0
230
0
 70
   11
 71
    3
 72
   17
 73
   13
 74
    0
 42
1e-07
 43
1e-07
 40
0
 40
0
 40
0
 40
0
 40
1
 40
1
 40
1
 40
2
 40
2
 40
2
 40
3
 40
3
 40
3
 40
4
 40
4
 40
4
 40
4
 10
45.31273238590052
 20
18.14292488891729
 30
0
 10
45.30271005951159
 20
18.40594614818773
 30
0
 10
45.36445503583838
 20
18.66673902657611
 30
0
 10
45.49134915119739
 20
18.89734430770962
 30
0
 10
45.59167017428675
 20
19.06699319403063
 30
0
 10
45.75848619931848
 20
19.18684633834516
 30
0
 10
45.95127670893637
 20
19.22779015870106
 30
0
 10
46.60774846160468
 20
19.38289296741714
 30
0
 10
47.19965093458632
 20
18.92627308403329
 30
0
 10
47.2575511622405
 20
18.14290881886365
 30
0
 10
47.2575511622405
 20
18.14290881886365
 30
0
 10
45.31273238590052
 20
18.14292488891729
 30
0
 10
45.31273238590052
 20
18.14292488891729
 30
0
  0
ENDBLK
  5
8E
330
8C
100
AcDbEntity
  8
0
100
AcDbBlockEnd
  0
BLOCK
  5
90
330
8F
100
AcDbEntity
  8
0
100
AcDbBlockBegin
  2
BLOCK_23
 70
    0
 10
0
 20
0
  3
BLOCK_23
  1

  0
SPLINE
  5
C1
100
AcDbEntity
  8
0
  6
ByLayer
 62
    7
370
   -1
100
AcDbSpline
210
0
220
0
230
0
 70
   11
 71
    3
 72
   53
 73
   49
 74
    0
 42
1e-07
 43
1e-07
 40
0
 40
0
 40
0
 40
0
 40
1
 40
1
 40
1
 40
2
 40
2
 40
2
 40
3
 40
3
 40
3
 40
4
 40
4
 40
4
 40
5
 40
5
 40
5
 40
6
 40
6
 40
6
 40
7
 40
7
 40
7
 40
8
 40
8
 40
8
 40
9
 40
9
 40
9
 40
10
 40
10
 40
10
 40
11
 40
11
 40
11
 40
12
 40
12
 40
12
 40
13
 40
13
 40
13
 40
14
 40
14
 40
14
 40
15
 40
15
 40
15
 40
16
 40
16
 40
16
 40
16
 10
36.73121585259133
 20
20.15630986889312
 30
0
 10
36.73121585259133
 20
20.15630986889312
 30
0
 10
37.3182852715993
 20
19.50601368946649
 30
0
 10
37.3182852715993
 20
19.50601368946649
 30
0
 10
37.3841856833594
 20
19.56249725246057
 30
0
 10
37.44588646717342
 20
19.61523381442949
 30
0
 10
37.50742922927179
 20
19.6681525036816
 30
0
 10
37.82657149158354
 20
19.91847038492183
 30
0
 10
38.23162132175607
 20
20.0326909751558
 30
0
 10
38.63452044960659
 20
19.98598336194236
 30
0
 10
38.82298143207192
 20
19.97814385372073
 30
0
 10
39.01048624924465
 20
19.95489584163917
 30
0
 10
39.19515471055384
 20
19.91647501982915
 30
0
 10
39.61784404943797
 20
19.81621662855595
 30
0
 10
39.9701387318582
 20
19.52560308582176
 30
0
 10
40.1489362847099
 20
19.12968515472197
 30
0
 10
40.33072018013836
 20
18.77088369268085
 30
0
 10
40.42485559050832
 20
18.37410065698337
 30
0
 10
40.42362355680042
 20
17.97187790786062
 30
0
 10
40.43989979342884
 20
17.60003023996069
 30
0
 10
40.39388333439852
 20
17.22807811670758
 30
0
 10
40.28747847528644
 20
16.87140593687883
 30
0
 10
40.27924527610985
 20
16.85017739497106
 30
0
 10
40.27773201731537
 20
16.82693206123157
 30
0
 10
40.2831422522983
 20
16.80481698798771
 30
0
 10
40.39207278051323
 20
16.47049825387695
 30
0
 10
40.61493964346852
 20
16.18504587695915
 30
0
 10
40.91285342930654
 20
15.99827702597984
 30
0
 10
40.98669778015614
 20
15.95458790465755
 30
0
 10
41.01840925649208
 20
15.96944199163981
 30
0
 10
41.05947615401467
 20
16.03999220894913
 30
0
 10
41.31243945781345
 20
16.48240616421267
 30
0
 10
41.45865775406472
 20
16.97774952209847
 30
0
 10
41.48649903755451
 20
17.4866158307901
 30
0
 10
41.53833016002526
 20
18.04040061996869
 30
0
 10
41.47078792942977
 20
18.59885911664522
 30
0
 10
41.28842819215954
 20
19.12431775654066
 30
0
 10
41.06692192295178
 20
19.78822259373058
 30
0
 10
40.58840806537855
 20
20.33555525605366
 30
0
 10
39.96003873377796
 20
20.64375211668157
 30
0
 10
39.70803427360485
 20
20.7563148129667
 30
0
 10
39.43964108676791
 20
20.82782655520006
 30
0
 10
39.16503952137047
 20
20.85557150418048
 30
0
 10
38.71416071555675
 20
20.93019815863134
 30
0
 10
38.25300246327545
 20
20.91533871496495
 30
0
 10
37.80786332754523
 20
20.8118395293801
 30
0
 10
37.39729612902435
 20
20.69245509498704
 30
0
 10
37.02576565073804
 20
20.46624497374193
 30
0
 10
36.73121585259133
 20
20.15630986889312
 30
0
  0
ENDBLK
  5
91
330
8F
100
AcDbEntity
  8
0
100
AcDbBlockEnd
  0
BLOCK
  5
93
330
92
100
AcDbEntity
  8
0
100
AcDbBlockBegin
  2
BLOCK_24
 70
    0
 10
0
 20
0
  3
BLOCK_24
  1

  0
SPLINE
  5
C2
100
AcDbEntity
  8
0
  6
ByLayer
 62
    7
370
   -1
100
AcDbSpline
210
0
220
0
230
0
 70
   11
 71
    3
 72
   29
 73
   25
 74
    0
 42
1e-07
 43
1e-07
 40
0
 40
0
 40
0
 40
0
 40
1
 40
1
 40
1
 40
2
 40
2
 40
2
 40
3
 40
3
 40
3
 40
4
 40
4
 40
4
 40
5
 40
5
 40
5
 40
6
 40
6
 40
6
 40
7
 40
7
 40
7
 40
8
 40
8
 40
8
 40
8
 10
40.07032182073862
 20
15.08640589218255
 30
0
 10
39.92548286657477
 20
15.20815530292005
 30
0
 10
39.78278657973177
 20
15.31302044313134
 30
0
 10
39.65876899524977
 20
15.43662326681373
 30
0
 10
39.53617092786735
 20
15.55881460404761
 30
0
 10
39.43244440290635
 20
15.69993646540593
 30
0
 10
39.3169573126924
 20
15.83688279095302
 30
0
 10
38.54479625558172
 20
15.63569642280434
 30
0
 10
37.80156924229356
 20
15.62087715427335
 30
0
 10
37.20523278712768
 20
16.30349824819468
 30
0
 10
37.20523278712768
 20
16.30349824819468
 30
0
 10
36.61684027105065
 20
15.66078445611855
 30
0
 10
36.61684027105065
 20
15.66078445611855
 30
0
 10
36.65826338701419
 20
15.61586597563222
 30
0
 10
36.69779024239999
 20
15.57149923368148
 30
0
 10
36.7389240982758
 20
15.52869664369528
 30
0
 10
37.15713526246228
 20
15.09094032587539
 30
0
 10
37.73036840724901
 20
14.83468991620731
 30
0
 10
38.33546569342056
 20
14.81500142118298
 30
0
 10
38.82864343046412
 20
14.78237653233842
 30
0
 10
39.32372546308979
 20
14.83630763502012
 30
0
 10
39.79831020446481
 20
14.97435743763903
 30
0
 10
39.89087878935695
 20
15.00692608129263
 30
0
 10
39.98167163870789
 20
15.04432645464624
 30
0
 10
40.07032182073862
 20
15.08640589218255
 30
0
  0
ENDBLK
  5
94
330
92
100
AcDbEntity
  8
0
100
AcDbBlockEnd
  0
ENDSEC
  0
SECTION
  2
ENTITIES
  0
CIRCLE
  5
C3
100
AcDbEntity
  8
0
  6
ByLayer
 62
  255
370
   35
100
AcDbCircle
 10
20.67988271403212
 20
9.541465727694231
 40
1.6
  0
CIRCLE
  5
C4
100
AcDbEntity
  8
0
  6
ByLayer
 62
  255
370
   35
100
AcDbCircle
 10
20.67988271403212
 20
93.86307263918215
 40
1.6
  0
LINE
  5
C5
100
AcDbEntity
  8
0
  6
ByLayer
 62
  255
370
   35
100
AcDbLine
 10
-27.59662228596788
 20
59.81746672769424
 11
25.90337771403213
 21
59.81746672769421
  0
LINE
  5
C6
100
AcDbEntity
  8
0
  6
ByLayer
 62
  255
370
   35
100
AcDbLine
 10
-27.59662228596788
 20
144.1390736391822
 11
25.90337771403213
 21
144.1390736391821
  0
CIRCLE
  5
C7
100
AcDbEntity
  8
0
  6
ByLayer
 62
  255
370
   35
100
AcDbCircle
 10
-22.3726232859679
 20
52.59346772769425
 40
1.6
  0
CIRCLE
  5
C8
100
AcDbEntity
  8
0
  6
ByLayer
 62
  255
370
   35
100
AcDbCircle
 10
-22.3726232859679
 20
136.9150746391822
 40
1.6
  0
ARC
  5
C9
100
AcDbEntity
  8
0
  6
ByLayer
 62
  255
370
   35
100
AcDbCircle
 10
25.90337771403213
 20
57.81746672769418
 40
2
100
AcDbArc
 50
4.9783130604e-06
 51
90.00000300000001
  0
ARC
  5
CA
100
AcDbEntity
  8
0
  6
ByLayer
 62
  255
370
   35
100
AcDbCircle
 10
25.90337771403213
 20
142.1390736391821
 40
2
100
AcDbArc
 50
4.9783130604e-06
 51
90.00000300000001
  0
ARC
  5
CB
100
AcDbEntity
  8
0
  6
ByLayer
 62
  255
370
   35
100
AcDbCircle
 10
20.4367135572753
 20
-0.4684887681834891
 40
2
100
AcDbArc
 50
4.9783130604e-06
 51
90.00000300000001
  0
ARC
  5
CC
100
AcDbEntity
  8
0
  6
ByLayer
 62
  255
370
   35
100
AcDbCircle
 10
20.4367135572753
 20
83.85311814330443
 40
2
100
AcDbArc
 50
4.9783130604e-06
 51
90.00000300000001
  0
ARC
  5
CD
100
AcDbEntity
  8
0
  6
ByLayer
 62
  255
370
   35
100
AcDbCircle
 10
-27.5966222859679
 20
57.81746672769424
 40
2
100
AcDbArc
 50
90.00000300000001
 51
180
  0
ARC
  5
CE
100
AcDbEntity
  8
0
  6
ByLayer
 62
  255
370
   35
100
AcDbCircle
 10
-27.5966222859679
 20
142.1390736391822
 40
2
100
AcDbArc
 50
90.00000300000001
 51
180
  0
ARC
  5
CF
100
AcDbEntity
  8
0
  6
ByLayer
 62
  255
370
   35
100
AcDbCircle
 10
-22.11835470484095
 20
-0.4856106681090555
 40
2
100
AcDbArc
 50
90.00000300000001
 51
180
  0
ARC
  5
D0
100
AcDbEntity
  8
0
  6
ByLayer
 62
  255
370
   35
100
AcDbCircle
 10
-22.11835470484095
 20
83.83599624337887
 40
2
100
AcDbArc
 50
90.00000300000001
 51
180
  0
LINE
  5
D1
100
AcDbEntity
  8
0
  6
ByLayer
 62
  255
370
   35
100
AcDbLine
 10
-29.5966222859679
 20
57.81746672769424
 11
-29.62227106530164
 21
-17.30029848892529
  0
LINE
  5
D2
100
AcDbEntity
  8
0
  6
ByLayer
 62
  255
370
   35
100
AcDbLine
 10
-29.5966222859679
 20
142.1390736391822
 11
-29.62227106530164
 21
67.02130842256263
  0
ARC
  5
D3
100
AcDbEntity
  8
0
  6
ByLayer
 62
  255
370
   35
100
AcDbCircle
 10
-27.63646927220966
 20
-17.06240935812413
 40
2
100
AcDbArc
 50
180
 51
270.000003
  0
ARC
  5
D4
100
AcDbEntity
  8
0
  6
ByLayer
 62
  255
370
   35
100
AcDbCircle
 10
-27.63646927220966
 20
67.25919755336379
 40
2
100
AcDbArc
 50
180
 51
270.000003
  0
ARC
  5
D5
100
AcDbEntity
  8
0
  6
ByLayer
 62
  255
370
   35
100
AcDbCircle
 10
-22.11966282570691
 20
-13
 40
2
100
AcDbArc
 50
180
 51
270.000003
  0
ARC
  5
D6
100
AcDbEntity
  8
0
  6
ByLayer
 62
  255
370
   35
100
AcDbCircle
 10
-22.11966282570691
 20
71.32160691148792
 40
2
100
AcDbArc
 50
180
 51
270.000003
  0
LINE
  5
D7
100
AcDbEntity
  8
0
  6
ByLayer
 62
  255
370
   35
100
AcDbLine
 10
27.9
 20
-17.2
 11
27.9033777140321
 21
57.81746672769424
  0
LINE
  5
D8
100
AcDbEntity
  8
0
  6
ByLayer
 62
  255
370
   35
100
AcDbLine
 10
27.9
 20
67.12160691148792
 11
27.9033777140321
 21
142.1390736391822
  0
ARC
  5
D9
100
AcDbEntity
  8
0
  6
ByLayer
 62
  255
370
   35
100
AcDbCircle
 10
25.90000000000001
 20
-17.10000017377591
 40
2
100
AcDbArc
 50
270.000003
 51
4.9783130604e-06
  0
ARC
  5
DA
100
AcDbEntity
  8
0
  6
ByLayer
 62
  255
370
   35
100
AcDbCircle
 10
25.90000000000001
 20
67.22160673771201
 40
2
100
AcDbArc
 50
270.000003
 51
4.9783130604e-06
  0
ARC
  5
DB
100
AcDbEntity
  8
0
  6
ByLayer
 62
  255
370
   35
100
AcDbCircle
 10
20.45613166098078
 20
-13.00000008688796
 40
2.000000000000002
100
AcDbArc
 50
270.000003
 51
4.9783130604e-06
  0
ARC
  5
DC
100
AcDbEntity
  8
0
  6
ByLayer
 62
  255
370
   35
100
AcDbCircle
 10
20.45613166098078
 20
71.32160682459997
 40
2.000000000000002
100
AcDbArc
 50
270.000003
 51
4.9783130604e-06
  0
LINE
  5
DD
100
AcDbEntity
  8
0
  6
ByLayer
 62
  256
370
   35
100
AcDbLine
 10
-22.11835480956071
 20
1.514389331890942
 11
20.43671345255554
 21
1.531511231816508
  0
LINE
  5
DE
100
AcDbEntity
  8
0
  6
ByLayer
 62
  256
370
   35
100
AcDbLine
 10
-22.11835480956071
 20
85.83599624337886
 11
20.43671345255554
 21
85.85311814330443
  0
LINE
  5
DF
100
AcDbEntity
  8
0
  6
ByLayer
 62
  256
370
   35
100
AcDbLine
 10
22.43671355727529
 20
-0.4684885944075808
 11
22.45613166098077
 21
-13
  0
LINE
  5
E0
100
AcDbEntity
  8
0
  6
ByLayer
 62
  256
370
   35
100
AcDbLine
 10
22.43671355727529
 20
83.85311831708034
 11
22.45613166098077
 21
71.32160691148792
  0
LINE
  5
E1
100
AcDbEntity
  8
0
  6
ByLayer
 62
  256
370
   35
100
AcDbLine
 10
20.45613176570054
 20
-15.00000008688796
 11
-22.11966272098715
 21
-15
  0
LINE
  5
E2
100
AcDbEntity
  8
0
  6
ByLayer
 62
  256
370
   35
100
AcDbLine
 10
20.45613176570054
 20
69.32160682459997
 11
-22.11966272098715
 21
69.32160691148792
  0
LINE
  5
E3
100
AcDbEntity
  8
0
  6
ByLayer
 62
  256
370
   35
100
AcDbLine
 10
-24.11966282570691
 20
-13
 11
-24.11835470484095
 21
-0.4856106681090553
  0
LINE
  5
E4
100
AcDbEntity
  8
0
  6
ByLayer
 62
  256
370
   35
100
AcDbLine
 10
-24.11966282570691
 20
71.32160691148792
 11
-24.11835470484095
 21
83.83599624337887
  0
LINE
  5
E5
100
AcDbEntity
  8
0
  6
ByLayer
 62
  256
370
   35
100
AcDbLine
 10
22.41306216319238
 20
-19.07675612475134
 11
22.41306216319238
 21
-22.07675612475134
  0
LINE
  5
E6
100
AcDbEntity
  8
0
  6
ByLayer
 62
  256
370
   35
100
AcDbLine
 10
22.41306216319238
 20
65.24485078673658
 11
22.41306216319238
 21
62.24485078673658
  0
LINE
  5
E7
100
AcDbEntity
  8
0
  6
ByLayer
 62
  256
370
   35
100
AcDbLine
 10
-24.10284276607181
 20
-19.06654140852939
 11
-24.10284276607181
 21
-22
  0
LINE
  5
E8
100
AcDbEntity
  8
0
  6
ByLayer
 62
  256
370
   35
100
AcDbLine
 10
-24.10284276607181
 20
65.25506550295853
 11
-24.10284276607181
 21
62.32160691148792
  0
LINE
  5
E9
100
AcDbEntity
  8
0
  6
ByLayer
 62
  256
370
   35
100
AcDbLine
 10
22.41306216319238
 20
-19.07675612475134
 11
25.90000010471977
 21
-19.1000001737759
  0
LINE
  5
EA
100
AcDbEntity
  8
0
  6
ByLayer
 62
  256
370
   35
100
AcDbLine
 10
22.41306216319238
 20
65.24485078673658
 11
25.90000010471977
 21
65.22160673771202
  0
LINE
  5
EB
100
AcDbEntity
  8
0
  6
ByLayer
 62
  256
370
   35
100
AcDbLine
 10
-24.10284276607181
 20
-19.06654140852939
 11
-27.6364691674899
 21
-19.06240935812413
  0
LINE
  5
EC
100
AcDbEntity
  8
0
  6
ByLayer
 62
  256
370
   35
100
AcDbLine
 10
-24.10284276607181
 20
65.25506550295853
 11
-27.6364691674899
 21
65.25919755336379
  0
LINE
  5
ED
100
AcDbEntity
  8
0
  6
ByLayer
 62
  256
370
   35
100
AcDbLine
 10
-19.1
 20
-22
 11
-19.1
 21
-19
  0
LINE
  5
EE
100
AcDbEntity
  8
0
  6
ByLayer
 62
  256
370
   35
100
AcDbLine
 10
-19.1
 20
62.32160691148792
 11
-19.1
 21
65.32160691148792
  0
LINE
  5
EF
100
AcDbEntity
  8
0
  6
ByLayer
 62
  256
370
   35
100
AcDbLine
 10
-14.1
 20
-22
 11
-14.1
 21
-19
  0
LINE
  5
F0
100
AcDbEntity
  8
0
  6
ByLayer
 62
  256
370
   35
100
AcDbLine
 10
-14.1
 20
62.32160691148792
 11
-14.1
 21
65.32160691148792
  0
LINE
  5
F1
100
AcDbEntity
  8
0
  6
ByLayer
 62
  256
370
   -1
100
AcDbLine
 10
-18
 20
-19
 11
-18
 21
-19
  0
LINE
  5
F2
100
AcDbEntity
  8
0
  6
ByLayer
 62
  256
370
   -1
100
AcDbLine
 10
-18
 20
65.32160691148792
 11
-18
 21
65.32160691148792
  0
LINE
  5
F3
100
AcDbEntity
  8
0
  6
ByLayer
 62
  256
370
   35
100
AcDbLine
 10
17.41552035036735
 20
-22.07502683250734
 11
17.41552035036735
 21
-19.1
  0
LINE
  5
F4
100
AcDbEntity
  8
0
  6
ByLayer
 62
  256
370
   35
100
AcDbLine
 10
17.41552035036735
 20
62.24658007898058
 11
17.41552035036735
 21
65.22160691148792
  0
LINE
  5
F5
100
AcDbEntity
  8
0
  6
ByLayer
 62
  256
370
   35
100
AcDbLine
 10
12.4
 20
-22.07502683250734
 11
12.4
 21
-19.1
  0
LINE
  5
F6
100
AcDbEntity
  8
0
  6
ByLayer
 62
  256
370
   35
100
AcDbLine
 10
12.4
 20
62.24658007898058
 11
12.4
 21
65.22160691148792
  0
LINE
  5
F7
100
AcDbEntity
  8
0
  6
ByLayer
 62
  256
370
   35
100
AcDbLine
 10
-19.1
 20
-19
 11
-14.1
 21
-19
  0
LINE
  5
F8
100
AcDbEntity
  8
0
  6
ByLayer
 62
  256
370
   35
100
AcDbLine
 10
-19.1
 20
65.32160691148792
 11
-14.1
 21
65.32160691148792
  0
LINE
  5
F9
100
AcDbEntity
  8
0
  6
ByLayer
 62
  256
370
   35
100
AcDbLine
 10
12.4
 20
-19.1
 11
17.41552035036735
 21
-19.1
  0
LINE
  5
FA
100
AcDbEntity
  8
0
  6
ByLayer
 62
  256
370
   35
100
AcDbLine
 10
12.4
 20
65.22160691148792
 11
17.41552035036735
 21
65.22160691148792
  0
LINE
  5
FB
100
AcDbEntity
  8
0
  6
ByLayer
 62
  256
370
   35
100
AcDbLine
 10
22.41306216319238
 20
-22.07675612475134
 11
17.41552035036735
 21
-22.07502683250734
  0
LINE
  5
FC
100
AcDbEntity
  8
0
  6
ByLayer
 62
  256
370
   35
100
AcDbLine
 10
22.41306216319238
 20
62.24485078673658
 11
17.41552035036735
 21
62.24658007898058
  0
LINE
  5
FD
100
AcDbEntity
  8
0
  6
ByLayer
 62
  256
370
   -1
100
AcDbLine
 10
17.41552035036735
 20
-22.07502683250734
 11
17.41552035036735
 21
-22.07502683250734
  0
LINE
  5
FE
100
AcDbEntity
  8
0
  6
ByLayer
 62
  256
370
   -1
100
AcDbLine
 10
17.41552035036735
 20
62.24658007898058
 11
17.41552035036735
 21
62.24658007898058
  0
LINE
  5
FF
100
AcDbEntity
  8
0
  6
ByLayer
 62
  256
370
   35
100
AcDbLine
 10
-19.1
 20
-22
 11
-24.10284276607181
 21
-22
  0
LINE
  5
100
100
AcDbEntity
  8
0
  6
ByLayer
 62
  256
370
   35
100
AcDbLine
 10
-19.1
 20
62.32160691148792
 11
-24.10284276607181
 21
62.32160691148792
  0
LINE
  5
101
100
AcDbEntity
  8
0
  6
ByLayer
 62
  256
370
   35
100
AcDbLine
 10
-14.1
 20
-22
 11
12.4
 21
-22
  0
LINE
  5
102
100
AcDbEntity
  8
0
  6
ByLayer
 62
  256
370
   35
100
AcDbLine
 10
-14.1
 20
62.32160691148792
 11
12.4
 21
62.32160691148792
  0
INSERT
  5
103
100
AcDbEntity
  8
0
  6
ByLayer
 62
  256
370
   -1
100
AcDbBlockReference
  2
neOSensor_logo
 10
51.59354937601795
 20
6.756298132573778
 30
0
 41
1
 42
1
 43
0
 50
0
 70
    1
 71
    1
 44
0
 45
0
  0
ENDSEC
  0
SECTION
  2
OBJECTS
  0
DICTIONARY
  5
C
330
0
100
AcDbDictionary
281
    1
  3
ACAD_GROUP
350
D
  0
DICTIONARY
  5
D
330
C
100
AcDbDictionary
281
    1
  0
PLOTSETTINGS
  5
104
100
AcDbPlotSettings
  6
1x1
 40
0
 41
0
 42
0
 43
0
  0
ENDSEC
  0
EOF
