999
dxflib 3.17.0.0
  0
SECTION
  2
HEADER
  9
$ACADVER
  1
AC1015
  9
$HANDSEED
  5
FFFF
  9
$ANGBASE
 50
0.0
  9
$ANGDIR
 70
0
  9
$ATTMODE
 70
1
  9
$AUNITS
 70
0
  9
$AUPREC
 70
0
  9
$CECOLOR
 62
256
  9
$CELTSCALE
 40
1.0
  9
$CHAMFERA
 40
2.5
  9
$CHAMFERB
 40
2.5
  9
$CHAMFERC
 40
0.0
  9
$CHAMFERD
 40
0.0
  9
$CMLJUST
 70
0
  9
$CMLSCALE
 40
20.0
  9
$DIMADEC
 70
0
  9
$DIMALT
 70
0
  9
$DIMALTD
 70
3
  9
$DIMALTF
 40
0.03937
  9
$DIMALTRND
 40
0.0
  9
$DIMALTTD
 70
3
  9
$DIMALTTZ
 70
0
  9
$DIMALTU
 70
2
  9
$DIMALTZ
 70
0
  9
$DIMAPOST
  1

  9
$DIMASZ
 40
2.5
  9
$DIMATFIT
 70
0
  9
$DIMAUNIT
 70
0
  9
$DIMAZIN
 70
0
  9
$DIMBLK
  1

  9
$DIMBLK1
  1

  9
$DIMBLK2
  1

  9
$DIMCEN
 40
2.5
  9
$DIMCLRD
 70
0
  9
$DIMCLRE
 70
0
  9
$DIMDEC
 70
2
  9
$DIMDLE
 40
0.0
  9
$DIMDLI
 40
3.75
  9
$DIMDSEP
 70
44
  9
$DIMEXE
 40
1.25
  9
$DIMEXO
 40
0.625
  9
$DIMFRAC
 70
0
  9
$DIMGAP
 40
0.625
  9
$DIMJUST
 70
0
  9
$DIMLDRBLK
  1

  9
$DIMLFAC
 40
1.0
  9
$DIMLIM
 70
0
  9
$DIMLUNIT
 70
2
  9
$DIMLWD
 70
-2
  9
$DIMLWE
 70
-2
  9
$DIMPOST
  1

  9
$DIMRND
 40
0.0
  9
$DIMSAH
 70
0
  9
$DIMSCALE
 40
1.0
  9
$DIMSD1
 70
0
  9
$DIMSD2
 70
0
  9
$DIMSE1
 70
0
  9
$DIMSE2
 70
0
  9
$DIMSOXD
 70
0
  9
$DIMTAD
 70
1
  9
$DIMTDEC
 70
2
  9
$DIMTFAC
 40
1.0
  9
$DIMTIH
 70
0
  9
$DIMTIX
 70
0
  9
$DIMTM
 40
0.0
  9
$DIMTOFL
 70
1
  9
$DIMTOH
 70
0
  9
$DIMTOL
 70
0
  9
$DIMTOLJ
 70
0
  9
$DIMTP
 40
0.0
  9
$DIMTSZ
 40
0.0
  9
$DIMTVP
 40
0.0
  9
$DIMTXSTY
  7
Standard
  9
$DIMTXT
 40
2.5
  9
$DIMTZIN
 70
8
  9
$DIMUPT
 70
0
  9
$DIMZIN
 70
8
  9
$DISPSILH
 70
0
  9
$DWGCODEPAGE
  3
ANSI_1252
  9
$ELEVATION
 40
0.0
  9
$EXTMAX
 10
177.25
 20
141.25
 30
2.0
  9
$EXTMIN
 10
0.0
 20
0.0
 30
0.0
  9
$FILLETRAD
 40
2.5
  9
$FILLMODE
 70
1
  9
$INSBASE
 10
0.0
 20
0.0
 30
0.0
  9
$INSUNITS
 70
4
  9
$LIMCHECK
 70
0
  9
$LIMMAX
 10
420.0
 20
297.0
  9
$LIMMIN
 10
0.0
 20
0.0
  9
$LTSCALE
 40
1.0
  9
$LUNITS
 70
2
  9
$LUPREC
 70
4
  9
$MAXACTVP
 70
48
  9
$MEASUREMENT
 70
1
  9
$MIRRTEXT
 70
1
  9
$ORTHOMODE
 70
0
  9
$PDMODE
 70
0
  9
$PDSIZE
 40
0.0
  9
$PELEVATION
 40
0.0
  9
$PEXTMAX
 10
177.25
 20
141.25
 30
2.0
  9
$PEXTMIN
 10
0.0
 20
0.0
 30
0.0
  9
$PINSBASE
 10
0.0
 20
0.0
 30
0.0
  9
$PLIMCHECK
 70
0
  9
$PLIMMAX
 10
420.0
 20
297.0
  9
$PLIMMIN
 10
0.0
 20
0.0
  9
$PLINEGEN
 70
0
  9
$PLINEWID
 40
0.0
  9
$PROXYGRAPHICS
 70
1
  9
$PSLTSCALE
 70
1
  9
$PUCSNAME
  2

  9
$PUCSORG
 10
0.0
 20
0.0
 30
0.0
  9
$PUCSXDIR
 10
1.0
 20
0.0
 30
0.0
  9
$PUCSYDIR
 10
0.0
 20
1.0
 30
0.0
  9
$QTEXTMODE
 70
0
  9
$REGENMODE
 70
1
  9
$SHADEDGE
 70
3
  9
$SHADEDIF
 70
70
  9
$SKETCHINC
 40
1.0
  9
$SKPOLY
 70
0
  9
$SPLFRAME
 70
0
  9
$SPLINESEGS
 70
8
  9
$SPLINETYPE
 70
6
  9
$SURFTAB1
 70
6
  9
$SURFTAB2
 70
6
  9
$SURFTYPE
 70
6
  9
$SURFU
 70
6
  9
$SURFV
 70
6
  9
$TEXTSIZE
 40
2.5
  9
$TEXTSTYLE
  7
Standard
  9
$THICKNESS
 40
0.0
  9
$TILEMODE
 70
1
  9
$TRACEWID
 40
1.0
  9
$TREEDEPTH
 70
3020
  9
$UCSNAME
  2

  9
$UCSORG
 10
0.0
 20
0.0
 30
0.0
  9
$UCSXDIR
 10
1.0
 20
0.0
 30
0.0
  9
$UCSYDIR
 10
0.0
 20
1.0
 30
0.0
  9
$UNITMODE
 70
0
  9
$USERI1
 70
0
  9
$USERI2
 70
0
  9
$USERI3
 70
0
  9
$USERI4
 70
0
  9
$USERI5
 70
0
  9
$USERR1
 40
0.0
  9
$USERR2
 40
0.0
  9
$USERR3
 40
0.0
  9
$USERR4
 40
0.0
  9
$USERR5
 40
0.0
  9
$USRTIMER
 70
1
  9
$VISRETAIN
 70
0
  0
ENDSEC
  0
SECTION
  2
TABLES
  0
TABLE
  2
VPORT
  5
8
100
AcDbSymbolTable
 70
1
  0
VPORT
  5
30
100
AcDbSymbolTableRecord
100
AcDbViewportTableRecord
  2
*Active
 70
0
 10
0.0
 20
0.0
 11
1.0
 21
1.0
 12
286.3055555555554861
 22
148.5
 13
0.0
 23
0.0
 14
10.0
 24
10.0
 15
10.0
 25
10.0
 16
0.0
 26
0.0
 36
1.0
 17
0.0
 27
0.0
 37
0.0
 40
297.0
 41
1.92798353909465
 42
50.0
 43
0.0
 44
0.0
 50
0.0
 51
0.0
 71
0
 72
100
 73
1
 74
3
 75
1
 76
1
 77
0
 78
0
281
0
 65
1
110
0.0
120
0.0
130
0.0
111
1.0
121
0.0
131
0.0
112
0.0
122
1.0
132
0.0
 79
0
146
0.0
  0
ENDTAB
  0
TABLE
  2
LTYPE
  5
5
100
AcDbSymbolTable
 70
41
  0
LTYPE
  5
16
100
AcDbSymbolTableRecord
100
AcDbLinetypeTableRecord
  2
Continuous
 70
0
  3
Solid line
 72
65
 73
0
 40
0.0
  0
LTYPE
  5
31
100
AcDbSymbolTableRecord
100
AcDbLinetypeTableRecord
  2
PHANTOM2
 70
0
  3
Phantom (.5x) ___ _ _ ___ _ _ ___ _ _ ___ _ _
 72
65
 73
6
 40
31.7500000000000036
 49
15.875
 74
0
 49
-3.1749999999999998
 74
0
 49
3.1749999999999998
 74
0
 49
-3.1749999999999998
 74
0
 49
3.1749999999999998
 74
0
 49
-3.1749999999999998
 74
0
  0
LTYPE
  5
32
100
AcDbSymbolTableRecord
100
AcDbLinetypeTableRecord
  2
ACAD_ISO05W100
 70
0
  3
ISO long-dash double-dot ____ .. ____ .. ____ . 
 72
65
 73
6
 40
33.0000000000000071
 49
24.0
 74
0
 49
-2.9500000000000002
 74
0
 49
0.1
 74
0
 49
-2.9000000000000004
 74
0
 49
0.1
 74
0
 49
-2.9500000000000002
 74
0
  0
LTYPE
  5
33
100
AcDbSymbolTableRecord
100
AcDbLinetypeTableRecord
  2
CENTER
 70
0
  3
Center ____ _ ____ _ ____ _ ____ _ ____ _ ____
 72
65
 73
4
 40
50.8000000000000043
 49
31.75
 74
0
 49
-6.3499999999999996
 74
0
 49
6.3499999999999996
 74
0
 49
-6.3499999999999996
 74
0
  0
LTYPE
  5
34
100
AcDbSymbolTableRecord
100
AcDbLinetypeTableRecord
  2
DASHDOT2
 70
0
  3
Dash dot (.5x) _._._._._._._._._._._._._._._.
 72
65
 73
4
 40
12.6999999999999993
 49
6.3499999999999996
 74
0
 49
-3.125
 74
0
 49
0.1
 74
0
 49
-3.125
 74
0
  0
LTYPE
  5
15
100
AcDbSymbolTableRecord
100
AcDbLinetypeTableRecord
  2
ByLayer
 70
0
  3

 72
65
 73
0
 40
0.0
  0
LTYPE
  5
35
100
AcDbSymbolTableRecord
100
AcDbLinetypeTableRecord
  2
ACAD_ISO10W100
 70
0
  3
ISO dash dot __ . __ . __ . __ . __ . __ . __ . 
 72
65
 73
4
 40
18.0
 49
12.0
 74
0
 49
-2.9500000000000002
 74
0
 49
0.1
 74
0
 49
-2.9500000000000002
 74
0
  0
LTYPE
  5
36
100
AcDbSymbolTableRecord
100
AcDbLinetypeTableRecord
  2
ACAD_ISO03W100
 70
0
  3
ISO dash space __    __    __    __    __    __
 72
65
 73
2
 40
30.0
 49
12.0
 74
0
 49
-18.0
 74
0
  0
LTYPE
  5
37
100
AcDbSymbolTableRecord
100
AcDbLinetypeTableRecord
  2
ACAD_ISO06W100
 70
0
  3
ISO long-dash triple-dot ____ ... ____ ... ____
 72
65
 73
8
 40
36.0000000000000071
 49
24.0
 74
0
 49
-2.9500000000000002
 74
0
 49
0.1
 74
0
 49
-2.9000000000000004
 74
0
 49
0.1
 74
0
 49
-2.9000000000000004
 74
0
 49
0.1
 74
0
 49
-2.9500000000000002
 74
0
  0
LTYPE
  5
38
100
AcDbSymbolTableRecord
100
AcDbLinetypeTableRecord
  2
HIDDEN2
 70
0
  3
Hidden (.5x) _ _ _ _ _ _ _ _ _ _ _ _ _ _ _ _ _ 
 72
65
 73
2
 40
4.7624999999999993
 49
3.1749999999999998
 74
0
 49
-1.5874999999999999
 74
0
  0
LTYPE
  5
39
100
AcDbSymbolTableRecord
100
AcDbLinetypeTableRecord
  2
BORDERX2
 70
0
  3
Border (2x) ____  ____  .  ____  ____  .  ___
 72
65
 73
6
 40
88.8999999999999773
 49
25.3999999999999986
 74
0
 49
-12.6999999999999993
 74
0
 49
25.3999999999999986
 74
0
 49
-12.6499999999999986
 74
0
 49
0.1
 74
0
 49
-12.6499999999999986
 74
0
  0
LTYPE
  5
3A
100
AcDbSymbolTableRecord
100
AcDbLinetypeTableRecord
  2
CENTER2
 70
0
  3
Center (.5x) ___ _ ___ _ ___ _ ___ _ ___ _ ___
 72
65
 73
4
 40
28.5750000000000028
 49
19.0500000000000007
 74
0
 49
-3.1749999999999998
 74
0
 49
3.1749999999999998
 74
0
 49
-3.1749999999999998
 74
0
  0
LTYPE
  5
3B
100
AcDbSymbolTableRecord
100
AcDbLinetypeTableRecord
  2
DASHED2
 70
0
  3
Dashed (.5x) _ _ _ _ _ _ _ _ _ _ _ _ _ _ _ _ _ 
 72
65
 73
2
 40
9.5249999999999986
 49
6.3499999999999996
 74
0
 49
-3.1749999999999998
 74
0
  0
LTYPE
  5
3C
100
AcDbSymbolTableRecord
100
AcDbLinetypeTableRecord
  2
ACAD_ISO07W100
 70
0
  3
ISO dot . . . . . . . . . . . . . . . . . . . . 
 72
65
 73
2
 40
3.0
 49
0.1
 74
0
 49
-2.8999999999999999
 74
0
  0
LTYPE
  5
3D
100
AcDbSymbolTableRecord
100
AcDbLinetypeTableRecord
  2
PHANTOMX2
 70
0
  3
Phantom (2x) ____________    ____    ____   _
 72
65
 73
6
 40
127.0000000000000142
 49
63.5
 74
0
 49
-12.6999999999999993
 74
0
 49
12.6999999999999993
 74
0
 49
-12.6999999999999993
 74
0
 49
12.6999999999999993
 74
0
 49
-12.6999999999999993
 74
0
  0
LTYPE
  5
3E
100
AcDbSymbolTableRecord
100
AcDbLinetypeTableRecord
  2
DASHEDX2
 70
0
  3
Dashed (2x) ____  ____  ____  ____  ____  ___
 72
65
 73
2
 40
38.0999999999999943
 49
25.3999999999999986
 74
0
 49
-12.6999999999999993
 74
0
  0
LTYPE
  5
3F
100
AcDbSymbolTableRecord
100
AcDbLinetypeTableRecord
  2
DASHDOT
 70
0
  3
Dash dot __ . __ . __ . __ . __ . __ . __ . __
 72
65
 73
4
 40
25.4000000000000021
 49
12.6999999999999993
 74
0
 49
-6.2999999999999998
 74
0
 49
0.1
 74
0
 49
-6.2999999999999998
 74
0
  0
LTYPE
  5
40
100
AcDbSymbolTableRecord
100
AcDbLinetypeTableRecord
  2
ACAD_ISO13W100
 70
0
  3
ISO double-dash double-dot __ __ . . __ __ . . _
 72
65
 73
8
 40
36.0000000000000071
 49
12.0
 74
0
 49
-3.0
 74
0
 49
12.0
 74
0
 49
-2.9500000000000002
 74
0
 49
0.1
 74
0
 49
-2.9000000000000004
 74
0
 49
0.1
 74
0
 49
-2.9500000000000002
 74
0
  0
LTYPE
  5
41
100
AcDbSymbolTableRecord
100
AcDbLinetypeTableRecord
  2
HIDDEN
 70
0
  3
Hidden __ __ __ __ __ __ __ __ __ __ __ __ __ __
 72
65
 73
2
 40
9.5249999999999986
 49
6.3499999999999996
 74
0
 49
-3.1749999999999998
 74
0
  0
LTYPE
  5
42
100
AcDbSymbolTableRecord
100
AcDbLinetypeTableRecord
  2
DOT2
 70
0
  3
Dot (.5x) ........................................
 72
65
 73
2
 40
3.1749999999999998
 49
0.1
 74
0
 49
-3.0749999999999997
 74
0
  0
LTYPE
  5
43
100
AcDbSymbolTableRecord
100
AcDbLinetypeTableRecord
  2
ACAD_ISO09W100
 70
0
  3
ISO long-dash double-short-dash ____ __ __ ____
 72
65
 73
6
 40
45.0
 49
24.0
 74
0
 49
-3.0
 74
0
 49
6.0
 74
0
 49
-3.0
 74
0
 49
6.0
 74
0
 49
-3.0
 74
0
  0
LTYPE
  5
44
100
AcDbSymbolTableRecord
100
AcDbLinetypeTableRecord
  2
ACAD_ISO11W100
 70
0
  3
ISO double-dash dot __ __ . __ __ . __ __ . __ _
 72
65
 73
6
 40
33.0
 49
12.0
 74
0
 49
-3.0
 74
0
 49
12.0
 74
0
 49
-2.9500000000000002
 74
0
 49
0.1
 74
0
 49
-2.9500000000000002
 74
0
  0
LTYPE
  5
45
100
AcDbSymbolTableRecord
100
AcDbLinetypeTableRecord
  2
DIVIDEX2
 70
0
  3
Divide (2x) ________  .  .  ________  .  .  _
 72
65
 73
6
 40
63.5
 49
25.3999999999999986
 74
0
 49
-12.6499999999999986
 74
0
 49
0.1
 74
0
 49
-12.5999999999999979
 74
0
 49
0.1
 74
0
 49
-12.6499999999999986
 74
0
  0
LTYPE
  5
46
100
AcDbSymbolTableRecord
100
AcDbLinetypeTableRecord
  2
PHANTOM
 70
0
  3
Phantom ______  __  __  ______  __  __  ______ 
 72
65
 73
6
 40
63.5000000000000071
 49
31.75
 74
0
 49
-6.3499999999999996
 74
0
 49
6.3499999999999996
 74
0
 49
-6.3499999999999996
 74
0
 49
6.3499999999999996
 74
0
 49
-6.3499999999999996
 74
0
  0
LTYPE
  5
47
100
AcDbSymbolTableRecord
100
AcDbLinetypeTableRecord
  2
DOTX2
 70
0
  3
Dot (2x) .  .  .  .  .  .  .  .  .  .  .  .  .  .
 72
65
 73
2
 40
12.6999999999999993
 49
0.1
 74
0
 49
-12.5999999999999996
 74
0
  0
LTYPE
  5
48
100
AcDbSymbolTableRecord
100
AcDbLinetypeTableRecord
  2
ACAD_ISO15W100
 70
0
  3
ISO double-dash triple-dot __ __ . . . __ __ . .
 72
65
 73
10
 40
39.0000000000000071
 49
12.0
 74
0
 49
-3.0
 74
0
 49
12.0
 74
0
 49
-2.9500000000000002
 74
0
 49
0.1
 74
0
 49
-2.9000000000000004
 74
0
 49
0.1
 74
0
 49
-2.9000000000000004
 74
0
 49
0.1
 74
0
 49
-2.9500000000000002
 74
0
  0
LTYPE
  5
49
100
AcDbSymbolTableRecord
100
AcDbLinetypeTableRecord
  2
DASHDOTX2
 70
0
  3
Dash dot (2x) ____  .  ____  .  ____  .  ___
 72
65
 73
4
 40
50.7999999999999972
 49
25.3999999999999986
 74
0
 49
-12.6499999999999986
 74
0
 49
0.1
 74
0
 49
-12.6499999999999986
 74
0
  0
LTYPE
  5
4A
100
AcDbSymbolTableRecord
100
AcDbLinetypeTableRecord
  2
DASHED
 70
0
  3
Dashed __ __ __ __ __ __ __ __ __ __ __ __ __ _
 72
65
 73
2
 40
19.0499999999999972
 49
12.6999999999999993
 74
0
 49
-6.3499999999999996
 74
0
  0
LTYPE
  5
4B
100
AcDbSymbolTableRecord
100
AcDbLinetypeTableRecord
  2
ACAD_ISO04W100
 70
0
  3
ISO long-dash dot ____ . ____ . ____ . ____ . _
 72
65
 73
4
 40
30.0
 49
24.0
 74
0
 49
-2.9500000000000002
 74
0
 49
0.1
 74
0
 49
-2.9500000000000002
 74
0
  0
LTYPE
  5
4C
100
AcDbSymbolTableRecord
100
AcDbLinetypeTableRecord
  2
BORDER2
 70
0
  3
Border (.5x) __.__.__.__.__.__.__.__.__.__.__.
 72
65
 73
6
 40
22.2250000000000014
 49
6.3499999999999996
 74
0
 49
-3.1749999999999998
 74
0
 49
6.3499999999999996
 74
0
 49
-3.125
 74
0
 49
0.1
 74
0
 49
-3.125
 74
0
  0
LTYPE
  5
4D
100
AcDbSymbolTableRecord
100
AcDbLinetypeTableRecord
  2
CENTERX2
 70
0
  3
Center (2x) ________  __  ________  __  _____
 72
65
 73
4
 40
101.6000000000000085
 49
63.5
 74
0
 49
-12.6999999999999993
 74
0
 49
12.6999999999999993
 74
0
 49
-12.6999999999999993
 74
0
  0
LTYPE
  5
4E
100
AcDbSymbolTableRecord
100
AcDbLinetypeTableRecord
  2
DIVIDE
 70
0
  3
Divide ____ . . ____ . . ____ . . ____ . . ____
 72
65
 73
6
 40
31.7500000000000036
 49
12.6999999999999993
 74
0
 49
-6.2999999999999998
 74
0
 49
0.1
 74
0
 49
-6.25
 74
0
 49
0.1
 74
0
 49
-6.2999999999999998
 74
0
  0
LTYPE
  5
4F
100
AcDbSymbolTableRecord
100
AcDbLinetypeTableRecord
  2
HIDDENX2
 70
0
  3
Hidden (2x) ____ ____ ____ ____ ____ ____ ____ 
 72
65
 73
2
 40
19.0499999999999972
 49
12.6999999999999993
 74
0
 49
-6.3499999999999996
 74
0
  0
LTYPE
  5
50
100
AcDbSymbolTableRecord
100
AcDbLinetypeTableRecord
  2
ACAD_ISO02W100
 70
0
  3
ISO dash __ __ __ __ __ __ __ __ __ __ __ __ __
 72
65
 73
2
 40
15.0
 49
12.0
 74
0
 49
-3.0
 74
0
  0
LTYPE
  5
14
100
AcDbSymbolTableRecord
100
AcDbLinetypeTableRecord
  2
ByBlock
 70
0
  3

 72
65
 73
0
 40
0.0
  0
LTYPE
  5
51
100
AcDbSymbolTableRecord
100
AcDbLinetypeTableRecord
  2
ACAD_ISO14W100
 70
0
  3
ISO dash triple-dot __ . . . __ . . . __ . . . _
 72
65
 73
8
 40
24.0000000000000036
 49
12.0
 74
0
 49
-2.9500000000000002
 74
0
 49
0.1
 74
0
 49
-2.9000000000000004
 74
0
 49
0.1
 74
0
 49
-2.9000000000000004
 74
0
 49
0.1
 74
0
 49
-2.9500000000000002
 74
0
  0
LTYPE
  5
52
100
AcDbSymbolTableRecord
100
AcDbLinetypeTableRecord
  2
ACAD_ISO08W100
 70
0
  3
ISO long-dash short-dash ____ __ ____ __ ____ _
 72
65
 73
4
 40
36.0
 49
24.0
 74
0
 49
-3.0
 74
0
 49
6.0
 74
0
 49
-3.0
 74
0
  0
LTYPE
  5
53
100
AcDbSymbolTableRecord
100
AcDbLinetypeTableRecord
  2
BORDER
 70
0
  3
Border __ __ . __ __ . __ __ . __ __ . __ __ .
 72
65
 73
6
 40
44.4499999999999957
 49
12.6999999999999993
 74
0
 49
-6.3499999999999996
 74
0
 49
12.6999999999999993
 74
0
 49
-6.2999999999999998
 74
0
 49
0.1
 74
0
 49
-6.2999999999999998
 74
0
  0
LTYPE
  5
54
100
AcDbSymbolTableRecord
100
AcDbLinetypeTableRecord
  2
DOT
 70
0
  3
Dot . . . . . . . . . . . . . . . . . . . . . . . .
 72
65
 73
2
 40
6.3499999999999996
 49
0.1
 74
0
 49
-6.25
 74
0
  0
LTYPE
  5
55
100
AcDbSymbolTableRecord
100
AcDbLinetypeTableRecord
  2
DIVIDE2
 70
0
  3
Divide (.5x) __..__..__..__..__..__..__..__.._
 72
65
 73
6
 40
15.8749999999999982
 49
6.3499999999999996
 74
0
 49
-3.125
 74
0
 49
0.1
 74
0
 49
-3.0750000000000002
 74
0
 49
0.1
 74
0
 49
-3.125
 74
0
  0
LTYPE
  5
56
100
AcDbSymbolTableRecord
100
AcDbLinetypeTableRecord
  2
ACAD_ISO12W100
 70
0
  3
ISO dash double-dot __ . . __ . . __ . . __ . . 
 72
65
 73
6
 40
21.0
 49
12.0
 74
0
 49
-2.9500000000000002
 74
0
 49
0.1
 74
0
 49
-2.9000000000000004
 74
0
 49
0.1
 74
0
 49
-2.9500000000000002
 74
0
  0
ENDTAB
  0
TABLE
  2
LAYER
  5
2
100
AcDbSymbolTable
 70
1
  0
LAYER
  5
10
100
AcDbSymbolTableRecord
100
AcDbLayerTableRecord
  2
0
 70
0
 62
7
420
16777215
  6
Continuous
370
-3
390
F
  0
ENDTAB
  0
TABLE
  2
STYLE
  5
3
100
AcDbSymbolTable
 70
3
  0
STYLE
  5
57
100
AcDbSymbolTableRecord
100
AcDbTextStyleTableRecord
  2
Standard
 70
0
 40
0.0
 41
1.0
 50
0.0
 71
0
 42
2.5
  3

  4

1001
ACAD
1000
txt
1071
0
  0
STYLE
  5
58
100
AcDbSymbolTableRecord
100
AcDbTextStyleTableRecord
  2
textstyle0
 70
0
 40
0.0
 41
1.0
 50
0.0
 71
0
 42
1.0
  3

  4

1001
ACAD
1000
Arial
1071
0
  0
STYLE
  5
59
100
AcDbSymbolTableRecord
100
AcDbTextStyleTableRecord
  2
textstyle1
 70
0
 40
0.0
 41
1.0
 50
0.0
 71
0
 42
1.0
  3

  4

1001
ACAD
1000
Arial
1071
0
  0
ENDTAB
  0
TABLE
  2
VIEW
  5
6
100
AcDbSymbolTable
 70
0
  0
ENDTAB
  0
TABLE
  2
UCS
  5
7
100
AcDbSymbolTable
 70
0
  0
ENDTAB
  0
TABLE
  2
APPID
  5
9
100
AcDbSymbolTable
 70
1
  0
APPID
  5
12
100
AcDbSymbolTableRecord
100
AcDbRegAppTableRecord
  2
ACAD
 70
0
  0
APPID
  5
5A
100
AcDbSymbolTableRecord
100
AcDbRegAppTableRecord
  2
QCAD
 70
0
  0
ENDTAB
  0
TABLE
  2
DIMSTYLE
  5
A
100
AcDbSymbolTable
 70
1
100
AcDbDimStyleTable
 71
0
  0
DIMSTYLE
105
27
100
AcDbSymbolTableRecord
100
AcDbDimStyleTableRecord
  2
Standard
 41
2.5
 42
0.625
 43
3.75
 44
1.25
 70
0
 73
0
 74
0
 77
1
 78
8
140
2.5
141
2.5
143
0.03937007874016
147
0.625
171
3
172
1
271
2
272
2
274
3
278
44
283
0
284
8
340
57
  0
ENDTAB
  0
TABLE
  2
BLOCK_RECORD
  5
1
100
AcDbSymbolTable
 70
1
  0
BLOCK_RECORD
  5
1F
100
AcDbSymbolTableRecord
100
AcDbBlockTableRecord
  2
*Model_Space
340
22
  0
BLOCK_RECORD
  5
1B
100
AcDbSymbolTableRecord
100
AcDbBlockTableRecord
  2
*Paper_Space
340
1E
  0
BLOCK_RECORD
  5
23
100
AcDbSymbolTableRecord
100
AcDbBlockTableRecord
  2
*Paper_Space0
340
26
  0
ENDTAB
  0
ENDSEC
  0
SECTION
  2
BLOCKS
  0
BLOCK
  5
20
100
AcDbEntity
  8
0
100
AcDbBlockBegin
  2
*Model_Space
 70
0
 10
0.0
 20
0.0
 30
0.0
  3
*Model_Space
  1

  0
ENDBLK
  5
21
100
AcDbEntity
  8
0
100
AcDbBlockEnd
  0
BLOCK
  5
1C
100
AcDbEntity
 67
1
  8
0
100
AcDbBlockBegin
  2
*Paper_Space
 70
0
 10
0.0
 20
0.0
 30
0.0
  3
*Paper_Space
  1

  0
ENDBLK
  5
1D
100
AcDbEntity
 67
1
  8
0
100
AcDbBlockEnd
  0
BLOCK
  5
24
100
AcDbEntity
  8
0
100
AcDbBlockBegin
  2
*Paper_Space0
 70
0
 10
0.0
 20
0.0
 30
0.0
  3
*Paper_Space0
  1

  0
ENDBLK
  5
25
100
AcDbEntity
  8
0
100
AcDbBlockEnd
  0
ENDSEC
  0
SECTION
  2
ENTITIES
  0
CIRCLE
  5
5B
100
AcDbEntity
  8
0
 62
7
420
16777215
370
35
 48
1.0
  6
ByLayer
100
AcDbCircle
 10
20.679882714032118
 20
9.5414657276942307
 30
0.0
 40
1.6000000000000001
  0
CIRCLE
  5
5C
100
AcDbEntity
  8
0
 62
7
420
16777215
370
35
 48
1.0
  6
ByLayer
100
AcDbCircle
 10
20.679882714032118
 20
93.8630726391821497
 30
0.0
 40
1.6000000000000001
  0
LINE
  5
5D
100
AcDbEntity
  8
0
 62
7
420
16777215
370
35
 48
1.0
  6
ByLayer
100
AcDbLine
 10
34.7397776336267299
 20
-28.2546154845610786
 30
0.0
 11
34.7397776336267157
 21
-81.7546154845610715
 31
0.0
  0
LINE
  5
5E
100
AcDbEntity
  8
0
 62
7
420
16777215
370
35
 48
1.0
  6
ByLayer
100
AcDbLine
 10
-27.5966222859678822
 20
59.8174667276942387
 30
0.0
 11
25.903377714032132
 21
59.8174667276942102
 31
0.0
  0
LINE
  5
5F
100
AcDbEntity
  8
0
 62
7
420
16777215
370
35
 48
1.0
  6
ByLayer
100
AcDbLine
 10
-27.5966222859678822
 20
144.1390736391821576
 30
0.0
 11
25.903377714032132
 21
144.1390736391821292
 31
0.0
  0
CIRCLE
  5
60
100
AcDbEntity
  8
0
 62
7
420
16777215
370
35
 48
1.0
  6
ByLayer
100
AcDbCircle
 10
-22.3726232859679044
 20
52.5934677276942466
 30
0.0
 40
1.6000000000000001
  0
CIRCLE
  5
61
100
AcDbEntity
  8
0
 62
7
420
16777215
370
35
 48
1.0
  6
ByLayer
100
AcDbCircle
 10
-22.3726232859679044
 20
136.9150746391821656
 30
0.0
 40
1.6000000000000001
  0
ARC
  5
62
100
AcDbEntity
  8
0
 62
7
420
16777215
370
35
 48
1.0
  6
ByLayer
100
AcDbCircle
 10
32.7397776336267015
 20
-81.7546154845610999
 30
0.0
 40
2.0
100
AcDbArc
 50
270.0000049999999874
 51
359.9999970000000076
  0
ARC
  5
63
100
AcDbEntity
  8
0
 62
7
420
16777215
370
35
 48
1.0
  6
ByLayer
100
AcDbCircle
 10
25.903377714032132
 20
57.8174667276941818
 30
0.0
 40
2.0
100
AcDbArc
 50
0.0000049783130604
 51
90.0000030000000066
  0
ARC
  5
64
100
AcDbEntity
  8
0
 62
7
420
16777215
370
35
 48
1.0
  6
ByLayer
100
AcDbCircle
 10
25.903377714032132
 20
142.1390736391821008
 30
0.0
 40
2.0
100
AcDbArc
 50
0.0000049783130604
 51
90.0000030000000066
  0
ARC
  5
65
100
AcDbEntity
  8
0
 62
7
420
16777215
370
35
 48
1.0
  6
ByLayer
100
AcDbCircle
 10
32.7397776336267299
 20
-28.2546154845610928
 30
0.0
 40
2.0
100
AcDbArc
 50
359.9999970000000076
 51
90.0
  0
ARC
  5
66
100
AcDbEntity
  8
0
 62
7
420
16777215
370
35
 48
1.0
  6
ByLayer
100
AcDbCircle
 10
-21.0999999476401179
 20
-35.0000000868879511
 30
0.0
 40
2.0
100
AcDbArc
 50
0.0000049783130604
 51
90.0000030000000066
  0
ARC
  5
67
100
AcDbEntity
  8
0
 62
7
420
16777215
370
35
 48
1.0
  6
ByLayer
100
AcDbCircle
 10
20.4000000523598786
 20
-35.0000000868879511
 30
0.0
 40
2.0
100
AcDbArc
 50
0.0000049783130604
 51
90.0000030000000066
  0
ARC
  5
68
100
AcDbEntity
  8
0
 62
7
420
16777215
370
35
 48
1.0
  6
ByLayer
100
AcDbCircle
 10
20.4367135572752971
 20
-0.4684887681834891
 30
0.0
 40
2.0
100
AcDbArc
 50
0.0000049783130604
 51
90.0000030000000066
  0
ARC
  5
69
100
AcDbEntity
  8
0
 62
7
420
16777215
370
35
 48
1.0
  6
ByLayer
100
AcDbCircle
 10
20.4367135572752971
 20
83.8531181433044281
 30
0.0
 40
2.0
100
AcDbArc
 50
0.0000049783130604
 51
90.0000030000000066
  0
LINE
  5
6A
100
AcDbEntity
  8
0
 62
7
420
16777215
370
35
 48
1.0
  6
ByLayer
100
AcDbLine
 10
32.7397776336267299
 20
-26.2546154845610786
 30
0.0
 11
-35.7602223663732772
 21
-26.2546154845610786
 31
0.0
  0
ARC
  5
6B
100
AcDbEntity
  8
0
 62
7
420
16777215
370
35
 48
1.0
  6
ByLayer
100
AcDbCircle
 10
-35.7602223663732701
 20
-28.2546154845610786
 30
0.0
 40
2.0
100
AcDbArc
 50
90.0
 51
180.0000030000000208
  0
LINE
  5
6C
100
AcDbEntity
  8
0
 62
7
420
16777215
370
35
 48
1.0
  6
ByLayer
100
AcDbLine
 10
-35.7602223663732417
 20
-83.7546154845610999
 30
0.0
 11
32.739777633626673
 21
-83.7546154845610999
 31
0.0
  0
ARC
  5
6D
100
AcDbEntity
  8
0
 62
7
420
16777215
370
35
 48
1.0
  6
ByLayer
100
AcDbCircle
 10
-27.5966222859678965
 20
57.8174667276942387
 30
0.0
 40
2.0
100
AcDbArc
 50
90.0000030000000066
 51
180.0
  0
ARC
  5
6E
100
AcDbEntity
  8
0
 62
7
420
16777215
370
35
 48
1.0
  6
ByLayer
100
AcDbCircle
 10
-27.5966222859678965
 20
142.1390736391821576
 30
0.0
 40
2.0
100
AcDbArc
 50
90.0000030000000066
 51
180.0
  0
LINE
  5
6F
100
AcDbEntity
  8
0
 62
7
420
16777215
370
35
 48
1.0
  6
ByLayer
100
AcDbLine
 10
-37.7602223663732843
 20
-81.7546154845610715
 30
0.0
 11
-37.7602223663732701
 21
-28.2546154845610786
 31
0.0
  0
ARC
  5
70
100
AcDbEntity
  8
0
 62
7
420
16777215
370
35
 48
1.0
  6
ByLayer
100
AcDbCircle
 10
-22.0999999476401179
 20
-35.0
 30
0.0
 40
2.0
100
AcDbArc
 50
90.0000030000000066
 51
180.0
  0
ARC
  5
71
100
AcDbEntity
  8
0
 62
7
420
16777215
370
35
 48
1.0
  6
ByLayer
100
AcDbCircle
 10
19.4000000523598786
 20
-35.0
 30
0.0
 40
2.0
100
AcDbArc
 50
90.0000030000000066
 51
180.0
  0
ARC
  5
72
100
AcDbEntity
  8
0
 62
7
420
16777215
370
35
 48
1.0
  6
ByLayer
100
AcDbCircle
 10
-22.1183547048409537
 20
-0.4856106681090555
 30
0.0
 40
2.0
100
AcDbArc
 50
90.0000030000000066
 51
180.0
  0
ARC
  5
73
100
AcDbEntity
  8
0
 62
7
420
16777215
370
35
 48
1.0
  6
ByLayer
100
AcDbCircle
 10
-22.1183547048409537
 20
83.8359962433788724
 30
0.0
 40
2.0
100
AcDbArc
 50
90.0000030000000066
 51
180.0
  0
ARC
  5
74
100
AcDbEntity
  8
0
 62
7
420
16777215
370
35
 48
1.0
  6
ByLayer
100
AcDbCircle
 10
-35.7602223663732914
 20
-81.7546154845610431
 30
0.0
 40
2.0
100
AcDbArc
 50
180.0000030000000208
 51
270.0000049999999874
  0
LINE
  5
75
100
AcDbEntity
  8
0
 62
7
420
16777215
370
35
 48
1.0
  6
ByLayer
100
AcDbLine
 10
-29.5966222859678965
 20
57.8174667276942387
 30
0.0
 11
-29.6222710653016428
 21
-17.3002984889252929
 31
0.0
  0
LINE
  5
76
100
AcDbEntity
  8
0
 62
7
420
16777215
370
35
 48
1.0
  6
ByLayer
100
AcDbLine
 10
-29.5966222859678965
 20
142.1390736391821576
 30
0.0
 11
-29.6222710653016428
 21
67.0213084225626261
 31
0.0
  0
ARC
  5
77
100
AcDbEntity
  8
0
 62
7
420
16777215
370
35
 48
1.0
  6
ByLayer
100
AcDbCircle
 10
-27.6364692722096592
 20
-17.0624093581241318
 30
0.0
 40
2.0
100
AcDbArc
 50
180.0
 51
270.0000030000000493
  0
ARC
  5
78
100
AcDbEntity
  8
0
 62
7
420
16777215
370
35
 48
1.0
  6
ByLayer
100
AcDbCircle
 10
-27.6364692722096592
 20
67.2591975533637907
 30
0.0
 40
2.0
100
AcDbArc
 50
180.0
 51
270.0000030000000493
  0
ARC
  5
79
100
AcDbEntity
  8
0
 62
7
420
16777215
370
35
 48
1.0
  6
ByLayer
100
AcDbCircle
 10
-22.1107738137780743
 20
-59.9998241271440307
 30
0.0
 40
2.0
100
AcDbArc
 50
180.0
 51
270.0000030000000493
  0
ARC
  5
7A
100
AcDbEntity
  8
0
 62
7
420
16777215
370
35
 48
1.0
  6
ByLayer
100
AcDbCircle
 10
19.4020782153834332
 20
-59.9869138042028567
 30
0.0
 40
2.0
100
AcDbArc
 50
180.0
 51
270.0000030000000493
  0
ARC
  5
7B
100
AcDbEntity
  8
0
 62
7
420
16777215
370
35
 48
1.0
  6
ByLayer
100
AcDbCircle
 10
-22.1196628257069108
 20
-13.0
 30
0.0
 40
2.0
100
AcDbArc
 50
180.0
 51
270.0000030000000493
  0
ARC
  5
7C
100
AcDbEntity
  8
0
 62
7
420
16777215
370
35
 48
1.0
  6
ByLayer
100
AcDbCircle
 10
-22.1196628257069108
 20
71.321606911487919
 30
0.0
 40
2.0
100
AcDbArc
 50
180.0
 51
270.0000030000000493
  0
LINE
  5
7D
100
AcDbEntity
  8
0
 62
7
420
16777215
370
35
 48
1.0
  6
ByLayer
100
AcDbLine
 10
27.8999999999999986
 20
-17.1999999999999993
 30
0.0
 11
27.9033777140321035
 21
57.8174667276942387
 31
0.0
  0
LINE
  5
7E
100
AcDbEntity
  8
0
 62
7
420
16777215
370
35
 48
1.0
  6
ByLayer
100
AcDbLine
 10
27.8999999999999986
 20
67.1216069114879161
 30
0.0
 11
27.9033777140321035
 21
142.1390736391821576
 31
0.0
  0
ARC
  5
7F
100
AcDbEntity
  8
0
 62
7
420
16777215
370
35
 48
1.0
  6
ByLayer
100
AcDbCircle
 10
25.9000000000000092
 20
-17.1000001737759071
 30
0.0
 40
2.0
100
AcDbArc
 50
270.0000030000000493
 51
0.0000049783130604
  0
ARC
  5
80
100
AcDbEntity
  8
0
 62
7
420
16777215
370
35
 48
1.0
  6
ByLayer
100
AcDbCircle
 10
25.9000000000000092
 20
67.2216067377120083
 30
0.0
 40
2.0
100
AcDbArc
 50
270.0000030000000493
 51
0.0000049783130604
  0
ARC
  5
81
100
AcDbEntity
  8
0
 62
7
420
16777215
370
35
 48
1.0
  6
ByLayer
100
AcDbCircle
 10
-21.1007724675113266
 20
-60.0
 30
0.0
 40
2.0
100
AcDbArc
 50
270.0000030000000493
 51
0.0000049783130604
  0
ARC
  5
82
100
AcDbEntity
  8
0
 62
7
420
16777215
370
35
 48
1.0
  6
ByLayer
100
AcDbCircle
 10
20.4015769491772403
 20
-59.9901092706009251
 30
0.0
 40
2.0
100
AcDbArc
 50
270.0000030000000493
 51
0.0000049783130604
  0
ARC
  5
83
100
AcDbEntity
  8
0
 62
7
420
16777215
370
35
 48
1.0
  6
ByLayer
100
AcDbCircle
 10
20.4561316609807804
 20
-13.0000000868879599
 30
0.0
 40
2.0000000000000018
100
AcDbArc
 50
270.0000030000000493
 51
0.0000049783130604
  0
ARC
  5
84
100
AcDbEntity
  8
0
 62
7
420
16777215
370
35
 48
1.0
  6
ByLayer
100
AcDbCircle
 10
20.4561316609807804
 20
71.3216068245999679
 30
0.0
 40
2.0000000000000018
100
AcDbArc
 50
270.0000030000000493
 51
0.0000049783130604
  0
LINE
  5
85
100
AcDbEntity
  8
0
 62
256
370
35
 48
1.0
  6
ByLayer
100
AcDbLine
 10
-22.1183548095607101
 20
1.5143893318909418
 30
0.0
 11
20.4367134525555407
 21
1.5315112318165083
 31
0.0
  0
LINE
  5
86
100
AcDbEntity
  8
0
 62
256
370
35
 48
1.0
  6
ByLayer
100
AcDbLine
 10
-22.1183548095607101
 20
85.8359962433788581
 30
0.0
 11
20.4367134525555407
 21
85.8531181433044281
 31
0.0
  0
LINE
  5
87
100
AcDbEntity
  8
0
 62
256
370
35
 48
1.0
  6
ByLayer
100
AcDbLine
 10
22.43671355727529
 20
-0.4684885944075808
 30
0.0
 11
22.4561316609807733
 21
-13.0
 31
0.0
  0
LINE
  5
88
100
AcDbEntity
  8
0
 62
256
370
35
 48
1.0
  6
ByLayer
100
AcDbLine
 10
22.43671355727529
 20
83.8531183170803445
 30
0.0
 11
22.4561316609807733
 21
71.321606911487919
 31
0.0
  0
LINE
  5
89
100
AcDbEntity
  8
0
 62
256
370
35
 48
1.0
  6
ByLayer
100
AcDbLine
 10
20.4561317657005368
 20
-15.0000000868879582
 30
0.0
 11
-22.1196627209871544
 21
-15.0
 31
0.0
  0
LINE
  5
8A
100
AcDbEntity
  8
0
 62
256
370
35
 48
1.0
  6
ByLayer
100
AcDbLine
 10
20.4561317657005368
 20
69.3216068245999679
 30
0.0
 11
-22.1196627209871544
 21
69.321606911487919
 31
0.0
  0
LINE
  5
8B
100
AcDbEntity
  8
0
 62
256
370
35
 48
1.0
  6
ByLayer
100
AcDbLine
 10
-24.1196628257069108
 20
-13.0
 30
0.0
 11
-24.1183547048409537
 21
-0.4856106681090553
 31
0.0
  0
LINE
  5
8C
100
AcDbEntity
  8
0
 62
256
370
35
 48
1.0
  6
ByLayer
100
AcDbLine
 10
-24.1196628257069108
 20
71.321606911487919
 30
0.0
 11
-24.1183547048409537
 21
83.8359962433788724
 31
0.0
  0
LINE
  5
8D
100
AcDbEntity
  8
0
 62
256
370
35
 48
1.0
  6
ByLayer
100
AcDbLine
 10
22.4130621631923823
 20
-19.0767561247513413
 30
0.0
 11
22.4130621631923823
 21
-22.0767561247513413
 31
0.0
  0
LINE
  5
8E
100
AcDbEntity
  8
0
 62
256
370
35
 48
1.0
  6
ByLayer
100
AcDbLine
 10
22.4130621631923823
 20
65.2448507867365777
 30
0.0
 11
22.4130621631923823
 21
62.2448507867365777
 31
0.0
  0
LINE
  5
8F
100
AcDbEntity
  8
0
 62
256
370
35
 48
1.0
  6
ByLayer
100
AcDbLine
 10
-24.1028427660718094
 20
-19.0665414085293925
 30
0.0
 11
-24.102842766071813
 21
-21.9999999999999964
 31
0.0
  0
LINE
  5
90
100
AcDbEntity
  8
0
 62
256
370
35
 48
1.0
  6
ByLayer
100
AcDbLine
 10
-24.1028427660718094
 20
65.25506550295853
 30
0.0
 11
-24.102842766071813
 21
62.321606911487919
 31
0.0
  0
LINE
  5
91
100
AcDbEntity
  8
0
 62
256
370
35
 48
1.0
  6
ByLayer
100
AcDbLine
 10
22.4130621631923823
 20
-19.0767561247513413
 30
0.0
 11
25.9000001047197657
 21
-19.1000001737759035
 31
0.0
  0
LINE
  5
92
100
AcDbEntity
  8
0
 62
256
370
35
 48
1.0
  6
ByLayer
100
AcDbLine
 10
22.4130621631923823
 20
65.2448507867365777
 30
0.0
 11
25.9000001047197657
 21
65.2216067377120226
 31
0.0
  0
LINE
  5
93
100
AcDbEntity
  8
0
 62
256
370
35
 48
1.0
  6
ByLayer
100
AcDbLine
 10
-24.1028427660718094
 20
-19.0665414085293925
 30
0.0
 11
-27.6364691674899028
 21
-19.0624093581241283
 31
0.0
  0
LINE
  5
94
100
AcDbEntity
  8
0
 62
256
370
35
 48
1.0
  6
ByLayer
100
AcDbLine
 10
-24.1028427660718094
 20
65.25506550295853
 30
0.0
 11
-27.6364691674899028
 21
65.2591975533637907
 31
0.0
  0
MTEXT
  5
95
100
AcDbEntity
  8
0
 62
256
370
-1
 48
1.0
  6
ByLayer
100
AcDbMText
 10
-19.0
 20
6.0515780103077725
 30
0.0
 40
1.0
 41
0.0
 71
4
 72
1
  1
\H5;neO
  7
textstyle0
 50
0.0
 73
2
 44
1.0
  0
MTEXT
  5
96
100
AcDbEntity
  8
0
 62
256
370
-1
 48
1.0
  6
ByLayer
100
AcDbMText
 10
-8.8757422922510543
 20
5.4122000348620825
 30
0.0
 40
1.0
 41
0.0
 71
4
 72
1
  1
\H5;Campus
  7
textstyle1
 50
0.0
 73
2
 44
1.0
  0
LINE
  5
97
100
AcDbEntity
  8
0
 62
256
370
35
 48
1.0
  6
ByLayer
100
AcDbLine
 10
-19.0999999999999979
 20
-21.9999999999999964
 30
0.0
 11
-19.0999999999999979
 21
-18.9999999999999964
 31
0.0
  0
LINE
  5
98
100
AcDbEntity
  8
0
 62
256
370
35
 48
1.0
  6
ByLayer
100
AcDbLine
 10
-19.0999999999999979
 20
62.321606911487919
 30
0.0
 11
-19.0999999999999979
 21
65.321606911487919
 31
0.0
  0
LINE
  5
99
100
AcDbEntity
  8
0
 62
256
370
35
 48
1.0
  6
ByLayer
100
AcDbLine
 10
-14.0999999999999996
 20
-21.9999999999999964
 30
0.0
 11
-14.0999999999999996
 21
-18.9999999999999964
 31
0.0
  0
LINE
  5
9A
100
AcDbEntity
  8
0
 62
256
370
35
 48
1.0
  6
ByLayer
100
AcDbLine
 10
-14.0999999999999996
 20
62.321606911487919
 30
0.0
 11
-14.0999999999999996
 21
65.321606911487919
 31
0.0
  0
LINE
  5
9B
100
AcDbEntity
  8
0
 62
256
370
-1
 48
1.0
  6
ByLayer
100
AcDbLine
 10
-18.0
 20
-19.0
 30
0.0
 11
-18.0
 21
-19.0
 31
0.0
  0
LINE
  5
9C
100
AcDbEntity
  8
0
 62
256
370
-1
 48
1.0
  6
ByLayer
100
AcDbLine
 10
-18.0
 20
65.321606911487919
 30
0.0
 11
-18.0
 21
65.321606911487919
 31
0.0
  0
LINE
  5
9D
100
AcDbEntity
  8
0
 62
256
370
35
 48
1.0
  6
ByLayer
100
AcDbLine
 10
17.4155203503673519
 20
-22.0750268325073407
 30
0.0
 11
17.4155203503673519
 21
-19.1000000000000014
 31
0.0
  0
LINE
  5
9E
100
AcDbEntity
  8
0
 62
256
370
35
 48
1.0
  6
ByLayer
100
AcDbLine
 10
17.4155203503673519
 20
62.2465800789805783
 30
0.0
 11
17.4155203503673519
 21
65.2216069114879247
 31
0.0
  0
LINE
  5
9F
100
AcDbEntity
  8
0
 62
256
370
35
 48
1.0
  6
ByLayer
100
AcDbLine
 10
12.3999999999999986
 20
-22.0750268325073407
 30
0.0
 11
12.3999999999999986
 21
-19.1000000000000014
 31
0.0
  0
LINE
  5
A0
100
AcDbEntity
  8
0
 62
256
370
35
 48
1.0
  6
ByLayer
100
AcDbLine
 10
12.3999999999999986
 20
62.2465800789805783
 30
0.0
 11
12.3999999999999986
 21
65.2216069114879247
 31
0.0
  0
LINE
  5
A1
100
AcDbEntity
  8
0
 62
256
370
35
 48
1.0
  6
ByLayer
100
AcDbLine
 10
-19.0999999999999979
 20
-18.9999999999999964
 30
0.0
 11
-14.0999999999999996
 21
-18.9999999999999964
 31
0.0
  0
LINE
  5
A2
100
AcDbEntity
  8
0
 62
256
370
35
 48
1.0
  6
ByLayer
100
AcDbLine
 10
-19.0999999999999979
 20
65.321606911487919
 30
0.0
 11
-14.0999999999999996
 21
65.321606911487919
 31
0.0
  0
LINE
  5
A3
100
AcDbEntity
  8
0
 62
256
370
35
 48
1.0
  6
ByLayer
100
AcDbLine
 10
12.3999999999999986
 20
-19.1000000000000014
 30
0.0
 11
17.4155203503673519
 21
-19.1000000000000014
 31
0.0
  0
LINE
  5
A4
100
AcDbEntity
  8
0
 62
256
370
35
 48
1.0
  6
ByLayer
100
AcDbLine
 10
12.3999999999999986
 20
65.2216069114879247
 30
0.0
 11
17.4155203503673519
 21
65.2216069114879247
 31
0.0
  0
LINE
  5
A5
100
AcDbEntity
  8
0
 62
256
370
35
 48
1.0
  6
ByLayer
100
AcDbLine
 10
22.4130621631923823
 20
-22.0767561247513413
 30
0.0
 11
17.4155203503673519
 21
-22.0750268325073407
 31
0.0
  0
LINE
  5
A6
100
AcDbEntity
  8
0
 62
256
370
35
 48
1.0
  6
ByLayer
100
AcDbLine
 10
22.4130621631923823
 20
62.2448507867365777
 30
0.0
 11
17.4155203503673519
 21
62.2465800789805783
 31
0.0
  0
LINE
  5
A7
100
AcDbEntity
  8
0
 62
256
370
-1
 48
1.0
  6
ByLayer
100
AcDbLine
 10
17.4155203503673519
 20
-22.0750268325073407
 30
0.0
 11
17.4155203503673519
 21
-22.0750268325073407
 31
0.0
  0
LINE
  5
A8
100
AcDbEntity
  8
0
 62
256
370
-1
 48
1.0
  6
ByLayer
100
AcDbLine
 10
17.4155203503673519
 20
62.2465800789805783
 30
0.0
 11
17.4155203503673519
 21
62.2465800789805783
 31
0.0
  0
LINE
  5
A9
100
AcDbEntity
  8
0
 62
256
370
35
 48
1.0
  6
ByLayer
100
AcDbLine
 10
-19.0999999999999979
 20
-21.9999999999999964
 30
0.0
 11
-24.1028427660718094
 21
-21.9999999999999964
 31
0.0
  0
LINE
  5
AA
100
AcDbEntity
  8
0
 62
256
370
35
 48
1.0
  6
ByLayer
100
AcDbLine
 10
-19.0999999999999979
 20
62.321606911487919
 30
0.0
 11
-24.1028427660718094
 21
62.321606911487919
 31
0.0
  0
LINE
  5
AB
100
AcDbEntity
  8
0
 62
256
370
35
 48
1.0
  6
ByLayer
100
AcDbLine
 10
-14.0999999999999996
 20
-21.9999999999999964
 30
0.0
 11
12.3999999999999986
 21
-21.9999999999999964
 31
0.0
  0
LINE
  5
AC
100
AcDbEntity
  8
0
 62
256
370
35
 48
1.0
  6
ByLayer
100
AcDbLine
 10
-14.0999999999999996
 20
62.321606911487919
 30
0.0
 11
12.3999999999999986
 21
62.321606911487919
 31
0.0
  0
LINE
  5
AD
100
AcDbEntity
  8
0
 62
256
370
35
 48
1.0
  6
ByLayer
100
AcDbLine
 10
-22.1000000523598743
 20
-33.0
 30
0.0
 11
-21.0999999476401179
 21
-33.0
 31
0.0
  0
LINE
  5
AE
100
AcDbEntity
  8
0
 62
256
370
25
 48
1.0
  6
ByLayer
100
AcDbLine
 10
-24.0999999999999979
 20
-68.3080997228083504
 30
0.0
 11
22.4000000000000021
 21
-68.3080997228083504
 31
0.0
  0
LINE
  5
AF
100
AcDbEntity
  8
0
 62
256
370
35
 48
1.0
  6
ByLayer
100
AcDbLine
 10
19.3999999476401221
 20
-33.0
 30
0.0
 11
20.420907762851936
 21
-33.0001093729633155
 31
0.0
  0
LINE
  5
B0
100
AcDbEntity
  8
0
 62
256
370
35
 48
1.0
  6
ByLayer
100
AcDbLine
 10
-19.099999947640125
 20
-34.9999999131120418
 30
0.0
 11
-19.1007724675113337
 21
-59.9999998262240908
 31
0.0
  0
LINE
  5
B1
100
AcDbEntity
  8
0
 62
256
370
25
 48
1.0
  6
ByLayer
100
AcDbLine
 10
22.3865236776213941
 20
-68.2999999999999972
 30
0.0
 11
22.3865236776213941
 21
-71.0
 31
0.0
  0
LINE
  5
B2
100
AcDbEntity
  8
0
 62
256
370
35
 48
1.0
  6
ByLayer
100
AcDbLine
 10
22.4000000523598715
 20
-34.9999999131120418
 30
0.0
 11
22.4015769491772332
 21
-59.9901090968250159
 31
0.0
  0
LINE
  5
B3
100
AcDbEntity
  8
0
 62
256
370
35
 48
1.0
  6
ByLayer
100
AcDbLine
 10
-21.0167365827917045
 20
-61.9982337125770329
 30
0.0
 11
-22.1905179599550628
 21
-61.9982337125770329
 31
0.0
  0
LINE
  5
B4
100
AcDbEntity
  8
0
 62
256
370
25
 48
1.0
  6
ByLayer
100
AcDbLine
 10
22.3865236776213941
 20
-71.0
 30
0.0
 11
-24.0999999999999979
 21
-71.0
 31
0.0
  0
LINE
  5
B5
100
AcDbEntity
  8
0
 62
256
370
35
 48
1.0
  6
ByLayer
100
AcDbLine
 10
20.4782478448548453
 20
-61.9886391237069532
 30
0.0
 11
19.4020783201031897
 21
-61.9869138042028567
 31
0.0
  0
LINE
  5
B6
100
AcDbEntity
  8
0
 62
256
370
35
 48
1.0
  6
ByLayer
100
AcDbLine
 10
-24.1107738137780743
 20
-59.9998241271440307
 30
0.0
 11
-24.0999999476401179
 21
-35.0
 31
0.0
  0
LINE
  5
B7
100
AcDbEntity
  8
0
 62
256
370
25
 48
1.0
  6
ByLayer
100
AcDbLine
 10
-24.0999999999999979
 20
-71.0
 30
0.0
 11
-24.0999999999999979
 21
-68.3080997228083504
 31
0.0
  0
LINE
  5
B8
100
AcDbEntity
  8
0
 62
256
370
35
 48
1.0
  6
ByLayer
100
AcDbLine
 10
17.4020782153834332
 20
-59.9869138042028567
 30
0.0
 11
17.4000000523598786
 21
-35.0
 31
0.0
  0
LINE
  5
B9
100
AcDbEntity
  8
0
 62
256
370
35
 48
1.0
  6
ByLayer
100
AcDbLine
 10
-12.0990120063795406
 20
-32.9720404637136681
 30
0.0
 11
10.3996660060979256
 21
-32.9720404637136681
 31
0.0
  0
LINE
  5
BA
100
AcDbEntity
  8
0
 62
256
370
35
 48
1.0
  6
ByLayer
100
AcDbLine
 10
12.3996660060979256
 20
-34.9720404637136681
 30
0.0
 11
12.4400938495666935
 21
-59.9612796160596986
 31
0.0
  0
LINE
  5
BB
100
AcDbEntity
  8
0
 62
256
370
35
 48
1.0
  6
ByLayer
100
AcDbLine
 10
10.4400938495666935
 20
-61.9612796160596915
 30
0.0
 11
-12.0585841629107762
 21
-61.9612796160596915
 31
0.0
  0
LINE
  5
BC
100
AcDbEntity
  8
0
 62
256
370
35
 48
1.0
  6
ByLayer
100
AcDbLine
 10
-14.0585841629107762
 20
-59.9612796160596986
 30
0.0
 11
-14.0990120063795406
 21
-34.9720404637136681
 31
0.0
  0
ARC
  5
BD
100
AcDbEntity
  8
0
 62
256
370
35
 48
1.0
  6
ByLayer
100
AcDbCircle
 10
-12.0990120063795406
 20
-34.9720404637136681
 30
0.0
 40
2.0
100
AcDbArc
 50
90.0
 51
180.0
  0
ARC
  5
BE
100
AcDbEntity
  8
0
 62
256
370
35
 48
1.0
  6
ByLayer
100
AcDbCircle
 10
10.3996660060979256
 20
-34.9720404637136681
 30
0.0
 40
2.0
100
AcDbArc
 50
0.0
 51
90.0
  0
ARC
  5
BF
100
AcDbEntity
  8
0
 62
256
370
35
 48
1.0
  6
ByLayer
100
AcDbCircle
 10
10.4400938495666935
 20
-59.9612796160596986
 30
0.0
 40
2.0
100
AcDbArc
 50
270.0
 51
0.0
  0
ARC
  5
C0
100
AcDbEntity
  8
0
 62
256
370
35
 48
1.0
  6
ByLayer
100
AcDbCircle
 10
-12.0585841629107762
 20
-59.9612796160596986
 30
0.0
 40
2.0
100
AcDbArc
 50
180.0
 51
270.0
  0
ENDSEC
  0
SECTION
  2
OBJECTS
  0
DICTIONARY
  5
C
100
AcDbDictionary
280
0
281
1
  3
ACAD_GROUP
350
D
  3
ACAD_LAYOUT
350
1A
  3
ACAD_MLINESTYLE
350
17
  3
ACAD_PLOTSETTINGS
350
19
  3
ACAD_PLOTSTYLENAME
350
E
  3
AcDbVariableDictionary
350
C1
  3
QCAD_OBJECTS
350
C2
  0
DICTIONARY
  5
D
100
AcDbDictionary
280
0
281
1
  0
ACDBDICTIONARYWDFLT
  5
E
100
AcDbDictionary
281
1
  3
Normal
350
F
100
AcDbDictionaryWithDefault
340
F
  0
ACDBPLACEHOLDER
  5
F
  0
DICTIONARY
  5
17
100
AcDbDictionary
280
0
281
1
  3
Standard
350
18
  0
MLINESTYLE
  5
18
100
AcDbMlineStyle
  2
STANDARD
 70
0
  3

 62
256
 51
90.0
 52
90.0
 71
2
 49
0.5
 62
256
  6
BYLAYER
 49
-0.5
 62
256
  6
BYLAYER
  0
DICTIONARY
  5
19
100
AcDbDictionary
280
0
281
1
  0
DICTIONARY
  5
1A
100
AcDbDictionary
281
1
  3
Layout1
350
1E
  3
Layout2
350
26
  3
Model
350
22
  0
LAYOUT
  5
1E
100
AcDbPlotSettings
  1

  2
none_device
  4

  6

 40
0.0
 41
0.0
 42
0.0
 43
0.0
 44
0.0
 45
0.0
 46
0.0
 47
0.0
 48
0.0
 49
0.0
140
0.0
141
0.0
142
1.0
143
1.0
 70
688
 72
0
 73
0
 74
5
  7

 75
16
147
1.0
148
0.0
149
0.0
100
AcDbLayout
  1
Layout1
 70
1
 71
1
 10
0.0
 20
0.0
 11
420.0
 21
297.0
 12
0.0
 22
0.0
 32
0.0
 14
100000000000000000000.0
 24
100000000000000000000.0
 34
100000000000000000000.0
 15
-100000000000000000000.0
 25
-100000000000000000000.0
 35
-100000000000000000000.0
146
0.0
 13
0.0
 23
0.0
 33
0.0
 16
1.0
 26
0.0
 36
0.0
 17
0.0
 27
1.0
 37
0.0
 76
0
330
1B
  0
LAYOUT
  5
22
100
AcDbPlotSettings
  1

  2
none_device
  4

  6

 40
0.0
 41
0.0
 42
0.0
 43
0.0
 44
0.0
 45
0.0
 46
0.0
 47
0.0
 48
0.0
 49
0.0
140
0.0
141
0.0
142
1.0
143
1.0
 70
1712
 72
0
 73
0
 74
0
  7

 75
0
147
1.0
148
0.0
149
0.0
100
AcDbLayout
  1
Model
 70
1
 71
0
 10
0.0
 20
0.0
 11
12.0
 21
9.0
 12
0.0
 22
0.0
 32
0.0
 14
0.0
 24
0.0
 34
0.0
 15
0.0
 25
0.0
 35
0.0
146
0.0
 13
0.0
 23
0.0
 33
0.0
 16
1.0
 26
0.0
 36
0.0
 17
0.0
 27
1.0
 37
0.0
 76
0
330
1F
  0
LAYOUT
  5
26
100
AcDbPlotSettings
  1

  2
none_device
  4

  6

 40
0.0
 41
0.0
 42
0.0
 43
0.0
 44
0.0
 45
0.0
 46
0.0
 47
0.0
 48
0.0
 49
0.0
140
0.0
141
0.0
142
1.0
143
1.0
 70
688
 72
0
 73
0
 74
5
  7

 75
16
147
1.0
148
0.0
149
0.0
100
AcDbLayout
  1
Layout2
 70
1
 71
2
 10
0.0
 20
0.0
 11
12.0
 21
9.0
 12
0.0
 22
0.0
 32
0.0
 14
0.0
 24
0.0
 34
0.0
 15
0.0
 25
0.0
 35
0.0
146
0.0
 13
0.0
 23
0.0
 33
0.0
 16
1.0
 26
0.0
 36
0.0
 17
0.0
 27
1.0
 37
0.0
 76
0
330
23
  0
DICTIONARY
  5
C1
100
AcDbDictionary
281
1
  3
DIMASSOC
350
C4
  3
HIDETEXT
350
C3
  0
DICTIONARYVAR
  5
C3
100
DictionaryVariables
280
0
  1
2
  0
DICTIONARYVAR
  5
C4
100
DictionaryVariables
280
0
  1
1
  0
DICTIONARY
  5
C2
100
AcDbDictionary
281
1
  3
ColorSettings/BackgroundColor
350
C5
  3
ColorSettings/ColorMode
350
C6
  3
Grid/DisplayGrid00
350
C7
  3
Grid/DisplayGrid01
350
C8
  3
Grid/DisplayGrid02
350
C9
  3
Grid/DisplayGrid03
350
CA
  3
Grid/GridSpacingX00
350
CB
  3
Grid/GridSpacingX01
350
CC
  3
Grid/GridSpacingX02
350
CD
  3
Grid/GridSpacingX03
350
CE
  3
Grid/GridSpacingY00
350
CF
  3
Grid/GridSpacingY01
350
D0
  3
Grid/GridSpacingY02
350
D1
  3
Grid/GridSpacingY03
350
D2
  3
Grid/IsometricGrid00
350
D3
  3
Grid/IsometricGrid01
350
D4
  3
Grid/IsometricGrid02
350
D5
  3
Grid/IsometricGrid03
350
D6
  3
Grid/IsometricProjection00
350
D7
  3
Grid/IsometricProjection01
350
D8
  3
Grid/IsometricProjection02
350
D9
  3
Grid/IsometricProjection03
350
DA
  3
Grid/MetaGridSpacingX00
350
DB
  3
Grid/MetaGridSpacingX01
350
DC
  3
Grid/MetaGridSpacingX02
350
DD
  3
Grid/MetaGridSpacingX03
350
DE
  3
Grid/MetaGridSpacingY00
350
DF
  3
Grid/MetaGridSpacingY01
350
E0
  3
Grid/MetaGridSpacingY02
350
E1
  3
Grid/MetaGridSpacingY03
350
E2
  3
MultiPageSettings/Columns
350
E3
  3
MultiPageSettings/GlueMarginsBottom
350
E4
  3
MultiPageSettings/GlueMarginsLeft
350
E5
  3
MultiPageSettings/GlueMarginsRight
350
E6
  3
MultiPageSettings/GlueMarginsTop
350
E7
  3
MultiPageSettings/PrintCropMarks
350
E8
  3
MultiPageSettings/Rows
350
E9
  3
PageSettings/OffsetX
350
EA
  3
PageSettings/OffsetY
350
EB
  3
PageSettings/PageOrientation
350
EC
  3
PageSettings/PaperHeight
350
ED
  3
PageSettings/PaperWidth
350
EE
  3
PageSettings/Scale
350
EF
  3
PageSettings/ShowPaperBorders
350
F0
  3
PageTagSettings/EnablePageTags
350
F1
  3
PageTagSettings/TagAlignment
350
F2
  3
PageTagSettings/TagFont
350
F3
  3
PageTagSettings/TagPosition
350
F4
  3
QCADVersion
350
F5
  3
UnitSettings/Measurement
350
F6
  3
UnitSettings/PaperUnit
350
F7
  3
ViewportCenter
350
F8
  3
ViewportHeight
350
F9
  3
ViewportWidth
350
FA
  0
XRECORD
  5
C5
330
C2
100
AcDbXrecord
280
1
1000
White
  0
XRECORD
  5
C6
330
C2
100
AcDbXrecord
280
1
1000
FullColor
  0
XRECORD
  5
C7
330
C2
100
AcDbXrecord
280
1
290
1
  0
XRECORD
  5
C8
330
C2
100
AcDbXrecord
280
1
290
1
  0
XRECORD
  5
C9
330
C2
100
AcDbXrecord
280
1
290
1
  0
XRECORD
  5
CA
330
C2
100
AcDbXrecord
280
1
290
1
  0
XRECORD
  5
CB
330
C2
100
AcDbXrecord
280
1
1000
auto
  0
XRECORD
  5
CC
330
C2
100
AcDbXrecord
280
1
1000
auto
  0
XRECORD
  5
CD
330
C2
100
AcDbXrecord
280
1
1000
auto
  0
XRECORD
  5
CE
330
C2
100
AcDbXrecord
280
1
1000
auto
  0
XRECORD
  5
CF
330
C2
100
AcDbXrecord
280
1
1000
0.1
  0
XRECORD
  5
D0
330
C2
100
AcDbXrecord
280
1
1000
auto
  0
XRECORD
  5
D1
330
C2
100
AcDbXrecord
280
1
1000
auto
  0
XRECORD
  5
D2
330
C2
100
AcDbXrecord
280
1
1000
auto
  0
XRECORD
  5
D3
330
C2
100
AcDbXrecord
280
1
290
0
  0
XRECORD
  5
D4
330
C2
100
AcDbXrecord
280
1
290
0
  0
XRECORD
  5
D5
330
C2
100
AcDbXrecord
280
1
290
0
  0
XRECORD
  5
D6
330
C2
100
AcDbXrecord
280
1
290
0
  0
XRECORD
  5
D7
330
C2
100
AcDbXrecord
280
1
 90
65537
  0
XRECORD
  5
D8
330
C2
100
AcDbXrecord
280
1
 90
65537
  0
XRECORD
  5
D9
330
C2
100
AcDbXrecord
280
1
 90
65537
  0
XRECORD
  5
DA
330
C2
100
AcDbXrecord
280
1
 90
65537
  0
XRECORD
  5
DB
330
C2
100
AcDbXrecord
280
1
1000
auto
  0
XRECORD
  5
DC
330
C2
100
AcDbXrecord
280
1
1000
auto
  0
XRECORD
  5
DD
330
C2
100
AcDbXrecord
280
1
1000
auto
  0
XRECORD
  5
DE
330
C2
100
AcDbXrecord
280
1
1000
auto
  0
XRECORD
  5
DF
330
C2
100
AcDbXrecord
280
1
1000
auto
  0
XRECORD
  5
E0
330
C2
100
AcDbXrecord
280
1
1000
auto
  0
XRECORD
  5
E1
330
C2
100
AcDbXrecord
280
1
1000
auto
  0
XRECORD
  5
E2
330
C2
100
AcDbXrecord
280
1
1000
auto
  0
XRECORD
  5
E3
330
C2
100
AcDbXrecord
280
1
 90
1
  0
XRECORD
  5
E4
330
C2
100
AcDbXrecord
280
1
 40
0.5
  0
XRECORD
  5
E5
330
C2
100
AcDbXrecord
280
1
 40
0.5
  0
XRECORD
  5
E6
330
C2
100
AcDbXrecord
280
1
 40
0.5
  0
XRECORD
  5
E7
330
C2
100
AcDbXrecord
280
1
 40
0.5
  0
XRECORD
  5
E8
330
C2
100
AcDbXrecord
280
1
290
0
  0
XRECORD
  5
E9
330
C2
100
AcDbXrecord
280
1
 90
1
  0
XRECORD
  5
EA
330
C2
100
AcDbXrecord
280
1
 40
0.0
  0
XRECORD
  5
EB
330
C2
100
AcDbXrecord
280
1
 40
0.0
  0
XRECORD
  5
EC
330
C2
100
AcDbXrecord
280
1
1000
Portrait
  0
XRECORD
  5
ED
330
C2
100
AcDbXrecord
280
1
 40
11.6929133858267722
  0
XRECORD
  5
EE
330
C2
100
AcDbXrecord
280
1
 40
8.2677165354330704
  0
XRECORD
  5
EF
330
C2
100
AcDbXrecord
280
1
1000
1:1
  0
XRECORD
  5
F0
330
C2
100
AcDbXrecord
280
1
290
1
  0
XRECORD
  5
F1
330
C2
100
AcDbXrecord
280
1
290
0
  0
XRECORD
  5
F2
330
C2
100
AcDbXrecord
280
1
1000
Inside
  0
XRECORD
  5
F3
330
C2
100
AcDbXrecord
280
1
1000
Arial,10,-1,5,50,0,0,0,0,0
  0
XRECORD
  5
F4
330
C2
100
AcDbXrecord
280
1
1000
TopLeft
  0
XRECORD
  5
F5
330
C2
100
AcDbXrecord
280
1
1000
3.26.4
  0
XRECORD
  5
F6
330
C2
100
AcDbXrecord
280
1
 90
1
  0
XRECORD
  5
F7
330
C2
100
AcDbXrecord
280
1
 90
4
  0
XRECORD
  5
F9
330
C2
100
AcDbXrecord
280
1
 40
418.9023056633331521
  0
XRECORD
  5
FA
330
C2
100
AcDbXrecord
280
1
 40
726.0973298164441303
  0
ENDSEC
  0
EOF
