M48
; DRILL file {KiCad 5.1.8-1.fc31} date Fri Jul  2 10:36:47 2021
; FORMAT={-:-/ absolute / metric / decimal}
; #@! TF.CreationDate,2021-07-02T10:36:47+02:00
; #@! TF.GenerationSoftware,Kicad,Pcbnew,5.1.8-1.fc31
FMAT,2
METRIC
T1C0.400
T2C0.600
T3C0.750
T4C0.762
T5C0.800
T6C1.000
T7C3.200
T8C0.800
%
G90
G05
T1
X32.177Y-61.006
X32.177Y-86.187
X36.068Y-41.421
X36.068Y-105.772
X36.722Y-40.405
X36.722Y-106.788
X37.446Y-39.786
X37.446Y-107.407
X47.752Y-41.421
X47.752Y-105.772
X47.879Y-36.83
X47.879Y-110.363
X51.689Y-61.849
X51.689Y-85.344
X54.183Y-40.213
X54.183Y-106.98
X65.532Y-64.008
X65.532Y-83.185
X66.167Y-62.738
X66.167Y-84.455
X66.675Y-39.605
X66.675Y-107.588
X67.31Y-64.008
X67.31Y-83.185
X67.342Y-60.833
X67.342Y-86.36
X67.71Y-41.29
X67.71Y-56.007
X67.71Y-91.186
X67.71Y-105.903
X67.818Y-45.974
X67.818Y-101.219
X68.205Y-40.386
X68.205Y-106.807
X68.58Y-66.802
X68.58Y-80.391
X69.463Y-59.303
X69.463Y-62.484
X69.463Y-84.709
X69.463Y-87.89
X69.971Y-57.296
X69.971Y-89.897
X71.247Y-29.337
X71.247Y-117.856
X73.279Y-27.432
X73.279Y-119.761
X83.82Y-27.432
X83.82Y-119.761
X85.852Y-29.337
X85.852Y-117.856
X87.128Y-57.296
X87.128Y-89.897
X87.636Y-59.303
X87.636Y-62.484
X87.636Y-84.709
X87.636Y-87.89
X88.519Y-66.802
X88.519Y-80.391
X88.894Y-40.386
X88.894Y-106.807
X89.281Y-45.974
X89.281Y-101.219
X89.389Y-41.29
X89.389Y-56.007
X89.389Y-91.186
X89.389Y-105.903
X89.757Y-60.833
X89.757Y-86.36
X89.789Y-64.008
X89.789Y-83.185
X90.424Y-39.605
X90.424Y-107.588
X90.932Y-62.738
X90.932Y-84.455
X91.567Y-64.008
X91.567Y-83.185
X102.916Y-40.213
X102.916Y-106.98
X105.41Y-61.849
X105.41Y-85.344
X109.22Y-36.83
X109.22Y-110.363
X109.347Y-41.421
X109.347Y-105.772
X119.653Y-39.786
X119.653Y-107.407
X120.377Y-40.405
X120.377Y-106.788
X121.031Y-41.421
X121.031Y-105.772
X124.922Y-61.006
X124.922Y-86.187
T2
X29.337Y-26.67
X29.337Y-120.523
X30.099Y-25.146
X30.099Y-28.448
X30.099Y-118.745
X30.099Y-122.047
X31.877Y-24.384
X31.877Y-29.21
X31.877Y-117.983
X31.877Y-122.809
X33.147Y-31.115
X33.147Y-42.418
X33.147Y-57.658
X33.147Y-89.535
X33.147Y-104.775
X33.147Y-116.078
X33.401Y-25.146
X33.401Y-28.448
X33.401Y-118.745
X33.401Y-122.047
X34.163Y-26.67
X34.163Y-120.523
X34.29Y-54.229
X34.29Y-66.802
X34.29Y-68.199
X34.29Y-69.469
X34.29Y-70.739
X34.29Y-72.136
X34.29Y-75.057
X34.29Y-76.454
X34.29Y-77.724
X34.29Y-78.994
X34.29Y-80.391
X34.29Y-92.964
X36.195Y-55.118
X36.195Y-92.075
X36.703Y-66.802
X36.703Y-68.072
X36.703Y-69.469
X36.703Y-70.739
X36.703Y-72.009
X36.703Y-75.184
X36.703Y-76.454
X36.703Y-77.724
X36.703Y-79.121
X36.703Y-80.391
X37.973Y-62.23
X37.973Y-84.963
X38.227Y-66.802
X38.227Y-68.072
X38.227Y-69.469
X38.227Y-70.739
X38.227Y-72.009
X38.227Y-75.184
X38.227Y-76.454
X38.227Y-77.724
X38.227Y-79.121
X38.227Y-80.391
X40.64Y-69.469
X40.64Y-71.755
X40.64Y-75.438
X40.64Y-77.724
X42.545Y-42.672
X42.545Y-55.118
X42.545Y-92.075
X42.545Y-104.521
X42.799Y-62.23
X42.799Y-84.963
X43.688Y-52.832
X43.688Y-94.361
X49.276Y-30.607
X49.276Y-116.586
X51.689Y-24.384
X51.689Y-122.809
X52.578Y-30.607
X52.578Y-116.586
X52.705Y-56.261
X52.705Y-90.932
X53.213Y-35.687
X53.213Y-111.506
X58.547Y-68.707
X58.547Y-78.486
X58.674Y-27.178
X58.674Y-120.015
X59.309Y-30.734
X59.309Y-116.459
X60.579Y-60.833
X60.579Y-86.36
X61.849Y-54.61
X61.849Y-92.583
X63.119Y-41.783
X63.119Y-105.41
X67.056Y-24.384
X67.056Y-122.809
X68.453Y-51.562
X68.453Y-95.631
X69.088Y-27.432
X69.088Y-31.369
X69.088Y-115.824
X69.088Y-119.761
X70.171Y-43.688
X70.171Y-103.505
X72.517Y-70.104
X72.517Y-77.089
X73.279Y-68.326
X73.279Y-71.628
X73.279Y-75.565
X73.279Y-78.867
X75.057Y-67.564
X75.057Y-72.39
X75.057Y-74.803
X75.057Y-79.629
X75.311Y-24.511
X75.311Y-27.432
X75.311Y-119.761
X75.311Y-122.682
X76.581Y-68.326
X76.581Y-71.628
X76.581Y-75.565
X76.581Y-78.867
X77.216Y-47.752
X77.216Y-99.441
X77.343Y-70.104
X77.343Y-77.089
X79.756Y-70.104
X79.756Y-77.089
X79.883Y-47.752
X79.883Y-99.441
X80.518Y-68.326
X80.518Y-71.628
X80.518Y-75.565
X80.518Y-78.867
X81.788Y-24.511
X81.788Y-27.432
X81.788Y-119.761
X81.788Y-122.682
X82.042Y-67.564
X82.042Y-72.39
X82.042Y-74.803
X82.042Y-79.629
X83.82Y-68.326
X83.82Y-71.628
X83.82Y-75.565
X83.82Y-78.867
X84.582Y-70.104
X84.582Y-77.089
X86.928Y-43.688
X86.928Y-103.505
X88.011Y-27.432
X88.011Y-31.369
X88.011Y-115.824
X88.011Y-119.761
X88.646Y-51.562
X88.646Y-95.631
X90.043Y-24.384
X90.043Y-122.809
X93.98Y-41.783
X93.98Y-105.41
X95.25Y-54.61
X95.25Y-92.583
X96.52Y-60.833
X96.52Y-86.36
X97.79Y-30.734
X97.79Y-116.459
X98.425Y-27.178
X98.425Y-120.015
X98.552Y-68.707
X98.552Y-78.486
X103.886Y-35.687
X103.886Y-111.506
X104.394Y-56.261
X104.394Y-90.932
X104.521Y-30.607
X104.521Y-116.586
X105.41Y-24.384
X105.41Y-122.809
X107.823Y-30.607
X107.823Y-116.586
X113.411Y-52.832
X113.411Y-94.361
X114.3Y-62.23
X114.3Y-84.963
X114.554Y-42.672
X114.554Y-55.118
X114.554Y-92.075
X114.554Y-104.521
X116.459Y-69.469
X116.459Y-71.755
X116.459Y-75.438
X116.459Y-77.724
X118.872Y-66.802
X118.872Y-68.072
X118.872Y-69.469
X118.872Y-70.739
X118.872Y-72.009
X118.872Y-75.184
X118.872Y-76.454
X118.872Y-77.724
X118.872Y-79.121
X118.872Y-80.391
X119.126Y-62.23
X119.126Y-84.963
X120.396Y-66.802
X120.396Y-68.072
X120.396Y-69.469
X120.396Y-70.739
X120.396Y-72.009
X120.396Y-75.184
X120.396Y-76.454
X120.396Y-77.724
X120.396Y-79.121
X120.396Y-80.391
X120.904Y-55.118
X120.904Y-92.075
X122.809Y-54.229
X122.809Y-66.802
X122.809Y-68.199
X122.809Y-69.469
X122.809Y-70.739
X122.809Y-72.136
X122.809Y-75.057
X122.809Y-76.454
X122.809Y-77.724
X122.809Y-78.994
X122.809Y-80.391
X122.809Y-92.964
X122.936Y-26.67
X122.936Y-120.523
X123.698Y-25.146
X123.698Y-28.448
X123.698Y-118.745
X123.698Y-122.047
X123.952Y-31.115
X123.952Y-42.418
X123.952Y-57.658
X123.952Y-89.535
X123.952Y-104.775
X123.952Y-116.078
X125.222Y-24.384
X125.222Y-29.21
X125.222Y-117.983
X125.222Y-122.809
X127.0Y-25.146
X127.0Y-28.448
X127.0Y-118.745
X127.0Y-122.047
X127.762Y-26.67
X127.762Y-120.523
T3
X42.291Y-32.417
X42.291Y-34.417
X114.808Y-112.776
X114.808Y-114.776
X114.808Y-32.417
X114.808Y-34.417
X42.291Y-112.776
X42.291Y-114.776
T4
X80.01Y-38.608
X80.01Y-43.688
X82.55Y-41.148
X80.01Y-103.505
X80.01Y-108.585
X82.55Y-106.045
X74.549Y-106.045
X77.089Y-103.505
X77.089Y-108.585
X74.549Y-41.148
X77.089Y-38.608
X77.089Y-43.688
T5
X110.236Y-76.708
X110.236Y-79.208
X46.863Y-76.708
X46.863Y-79.208
X46.863Y-67.985
X46.863Y-70.485
X110.236Y-67.985
X110.236Y-70.485
T6
X92.71Y-88.519
X92.71Y-108.839
X95.25Y-88.519
X95.25Y-108.839
X97.79Y-88.519
X97.79Y-108.839
X100.33Y-88.519
X100.33Y-108.839
X102.87Y-88.519
X102.87Y-108.839
X105.41Y-88.519
X105.41Y-108.839
X107.95Y-88.519
X107.95Y-108.839
X110.49Y-88.519
X110.49Y-108.839
X113.03Y-88.519
X113.03Y-108.839
X115.57Y-88.519
X115.57Y-108.839
X118.11Y-88.519
X118.11Y-108.839
X54.229Y-121.92
X56.769Y-121.92
X59.309Y-121.92
X61.849Y-121.92
X30.226Y-104.902
X30.226Y-107.442
X30.226Y-109.982
X30.226Y-112.522
X30.226Y-115.062
X57.912Y-71.755
X60.452Y-71.755
X62.992Y-71.755
X65.532Y-71.755
X68.072Y-71.755
X126.873Y-32.131
X126.873Y-34.671
X126.873Y-37.211
X126.873Y-39.751
X126.873Y-42.291
X54.229Y-25.273
X56.769Y-25.273
X59.309Y-25.273
X61.849Y-25.273
X108.077Y-25.273
X110.617Y-25.273
X113.157Y-25.273
X115.697Y-25.273
X118.237Y-25.273
X49.53Y-114.554
X52.07Y-114.554
X54.61Y-114.554
X57.15Y-114.554
X95.25Y-121.92
X97.79Y-121.92
X100.33Y-121.92
X102.87Y-121.92
X38.989Y-88.519
X38.989Y-108.839
X41.529Y-88.519
X41.529Y-108.839
X44.069Y-88.519
X44.069Y-108.839
X46.609Y-88.519
X46.609Y-108.839
X49.149Y-88.519
X49.149Y-108.839
X51.689Y-88.519
X51.689Y-108.839
X54.229Y-88.519
X54.229Y-108.839
X56.769Y-88.519
X56.769Y-108.839
X59.309Y-88.519
X59.309Y-108.839
X61.849Y-88.519
X61.849Y-108.839
X64.389Y-88.519
X64.389Y-108.839
X80.645Y-51.562
X80.645Y-54.102
X80.645Y-56.642
X80.645Y-59.182
X80.645Y-61.722
X38.989Y-38.354
X38.989Y-58.674
X41.529Y-38.354
X41.529Y-58.674
X44.069Y-38.354
X44.069Y-58.674
X46.609Y-38.354
X46.609Y-58.674
X49.149Y-38.354
X49.149Y-58.674
X51.689Y-38.354
X51.689Y-58.674
X54.229Y-38.354
X54.229Y-58.674
X56.769Y-38.354
X56.769Y-58.674
X59.309Y-38.354
X59.309Y-58.674
X61.849Y-38.354
X61.849Y-58.674
X64.389Y-38.354
X64.389Y-58.674
X99.949Y-114.554
X102.489Y-114.554
X105.029Y-114.554
X107.569Y-114.554
X52.705Y-41.91
X55.245Y-41.91
X57.785Y-41.91
X126.873Y-104.902
X126.873Y-107.442
X126.873Y-109.982
X126.873Y-112.522
X126.873Y-115.062
X92.71Y-38.354
X92.71Y-58.674
X95.25Y-38.354
X95.25Y-58.674
X97.79Y-38.354
X97.79Y-58.674
X100.33Y-38.354
X100.33Y-58.674
X102.87Y-38.354
X102.87Y-58.674
X105.41Y-38.354
X105.41Y-58.674
X107.95Y-38.354
X107.95Y-58.674
X110.49Y-38.354
X110.49Y-58.674
X113.03Y-38.354
X113.03Y-58.674
X115.57Y-38.354
X115.57Y-58.674
X118.11Y-38.354
X118.11Y-58.674
X30.226Y-32.131
X30.226Y-34.671
X30.226Y-37.211
X30.226Y-39.751
X30.226Y-42.291
X99.314Y-105.283
X101.854Y-105.283
X104.394Y-105.283
X95.25Y-25.273
X97.79Y-25.273
X100.33Y-25.273
X102.87Y-25.273
X30.226Y-78.232
X30.226Y-80.772
X30.226Y-83.312
X30.226Y-85.852
X30.226Y-88.392
X76.454Y-85.471
X76.454Y-88.011
X76.454Y-90.551
X76.454Y-93.091
X76.454Y-95.631
X89.027Y-71.755
X91.567Y-71.755
X94.107Y-71.755
X96.647Y-71.755
X99.187Y-71.755
X126.873Y-58.801
X126.873Y-61.341
X126.873Y-63.881
X126.873Y-66.421
X126.873Y-68.961
X99.314Y-41.91
X101.854Y-41.91
X104.394Y-41.91
X38.862Y-121.92
X41.402Y-121.92
X43.942Y-121.92
X46.482Y-121.92
X49.022Y-121.92
X38.862Y-25.273
X41.402Y-25.273
X43.942Y-25.273
X46.482Y-25.273
X49.022Y-25.273
X49.53Y-32.639
X52.07Y-32.639
X54.61Y-32.639
X57.15Y-32.639
X76.454Y-51.562
X76.454Y-54.102
X76.454Y-56.642
X76.454Y-59.182
X76.454Y-61.722
X80.645Y-85.471
X80.645Y-88.011
X80.645Y-90.551
X80.645Y-93.091
X80.645Y-95.631
X89.027Y-75.438
X91.567Y-75.438
X94.107Y-75.438
X96.647Y-75.438
X99.187Y-75.438
X108.077Y-121.92
X110.617Y-121.92
X113.157Y-121.92
X115.697Y-121.92
X118.237Y-121.92
X30.226Y-58.801
X30.226Y-61.341
X30.226Y-63.881
X30.226Y-66.421
X30.226Y-68.961
X126.873Y-78.232
X126.873Y-80.772
X126.873Y-83.312
X126.873Y-85.852
X126.873Y-88.392
X57.912Y-75.438
X60.452Y-75.438
X62.992Y-75.438
X65.532Y-75.438
X68.072Y-75.438
X99.949Y-32.639
X102.489Y-32.639
X105.029Y-32.639
X107.569Y-32.639
X52.705Y-105.283
X55.245Y-105.283
X57.785Y-105.283
T7
X82.169Y-77.216
X31.75Y-26.797
X74.93Y-69.977
X74.93Y-77.216
X82.169Y-69.977
X31.75Y-120.396
X125.349Y-120.396
X125.349Y-26.797
T8
X70.097Y-24.849
X72.397Y-24.849
X84.702Y-24.849
X87.002Y-24.849
X70.097Y-122.344
X72.397Y-122.344
X84.702Y-122.344
X87.002Y-122.344
T0
M30
