G04 #@! TF.GenerationSoftware,KiCad,Pcbnew,5.1.8-1.fc31*
G04 #@! TF.CreationDate,2021-07-02T10:36:43+02:00*
G04 #@! TF.ProjectId,LoRaWANV2.1_panelized,4c6f5261-5741-44e5-9632-2e315f70616e,rev?*
G04 #@! TF.SameCoordinates,Original*
G04 #@! TF.FileFunction,Profile,NP*
%FSLAX46Y46*%
G04 Gerber Fmt 4.6, Leading zero omitted, Abs format (unit mm)*
G04 Created by KiCad (PCBNEW 5.1.8-1.fc31) date 2021-07-02 10:36:43*
%MOMM*%
%LPD*%
G01*
G04 APERTURE LIST*
G04 #@! TA.AperFunction,Profile*
%ADD10C,0.050000*%
G04 #@! TD*
G04 APERTURE END LIST*
D10*
X126492000Y-123571000D02*
X81026000Y-123571000D01*
X126492000Y-102997000D02*
X120142000Y-102997000D01*
X118110000Y-100965000D02*
X118110000Y-96393000D01*
X120142000Y-94361000D02*
X126492000Y-94361000D01*
X128524000Y-105029000D02*
X128524000Y-121539000D01*
X128524000Y-92329000D02*
X128524000Y-76073000D01*
X126492000Y-102997000D02*
G75*
G02*
X128524000Y-105029000I0J-2032000D01*
G01*
X128524000Y-92329000D02*
G75*
G02*
X126492000Y-94361000I-2032000J0D01*
G01*
X118110000Y-96393000D02*
G75*
G02*
X120142000Y-94361000I2032000J0D01*
G01*
X120142000Y-102997000D02*
G75*
G02*
X118110000Y-100965000I0J2032000D01*
G01*
X128524000Y-121539000D02*
G75*
G02*
X126492000Y-123571000I-2032000J0D01*
G01*
X81026000Y-123571000D02*
G75*
G02*
X78994000Y-121539000I0J2032000D01*
G01*
X126492000Y-74041000D02*
G75*
G02*
X128524000Y-76073000I0J-2032000D01*
G01*
X128524000Y-42164000D02*
X128524000Y-25654000D01*
X128524000Y-54864000D02*
G75*
G03*
X126492000Y-52832000I-2032000J0D01*
G01*
X126492000Y-44196000D02*
G75*
G03*
X128524000Y-42164000I0J2032000D01*
G01*
X120142000Y-52832000D02*
X126492000Y-52832000D01*
X126492000Y-73152000D02*
G75*
G03*
X128524000Y-71120000I0J2032000D01*
G01*
X118110000Y-46228000D02*
X118110000Y-50800000D01*
X126492000Y-44196000D02*
X120142000Y-44196000D01*
X128524000Y-25654000D02*
G75*
G03*
X126492000Y-23622000I-2032000J0D01*
G01*
X120142000Y-44196000D02*
G75*
G03*
X118110000Y-46228000I0J-2032000D01*
G01*
X118110000Y-50800000D02*
G75*
G03*
X120142000Y-52832000I2032000J0D01*
G01*
X128524000Y-54864000D02*
X128524000Y-71120000D01*
X126492000Y-23622000D02*
X81026000Y-23622000D01*
X81026000Y-23622000D02*
G75*
G03*
X78994000Y-25654000I0J-2032000D01*
G01*
X78105000Y-121539000D02*
X78994000Y-121539000D01*
X126492000Y-73152000D02*
X126492000Y-74041000D01*
X78105000Y-25654000D02*
X78994000Y-25654000D01*
X30607000Y-74041000D02*
X30607000Y-73152000D01*
X30607000Y-73152000D02*
G75*
G02*
X28575000Y-71120000I0J2032000D01*
G01*
X76073000Y-23622000D02*
G75*
G02*
X78105000Y-25654000I0J-2032000D01*
G01*
X28575000Y-25654000D02*
G75*
G02*
X30607000Y-23622000I2032000J0D01*
G01*
X36957000Y-44196000D02*
G75*
G02*
X38989000Y-46228000I0J-2032000D01*
G01*
X38989000Y-50800000D02*
G75*
G02*
X36957000Y-52832000I-2032000J0D01*
G01*
X28575000Y-54864000D02*
G75*
G02*
X30607000Y-52832000I2032000J0D01*
G01*
X30607000Y-44196000D02*
G75*
G02*
X28575000Y-42164000I0J2032000D01*
G01*
X28575000Y-54864000D02*
X28575000Y-71120000D01*
X28575000Y-42164000D02*
X28575000Y-25654000D01*
X36957000Y-52832000D02*
X30607000Y-52832000D01*
X38989000Y-46228000D02*
X38989000Y-50800000D01*
X30607000Y-44196000D02*
X36957000Y-44196000D01*
X30607000Y-23622000D02*
X76073000Y-23622000D01*
X30607000Y-74041000D02*
G75*
G03*
X28575000Y-76073000I0J-2032000D01*
G01*
X76073000Y-123571000D02*
G75*
G03*
X78105000Y-121539000I0J2032000D01*
G01*
X28575000Y-121539000D02*
G75*
G03*
X30607000Y-123571000I2032000J0D01*
G01*
X36957000Y-102997000D02*
G75*
G03*
X38989000Y-100965000I0J2032000D01*
G01*
X38989000Y-96393000D02*
G75*
G03*
X36957000Y-94361000I-2032000J0D01*
G01*
X28575000Y-92329000D02*
G75*
G03*
X30607000Y-94361000I2032000J0D01*
G01*
X30607000Y-102997000D02*
G75*
G03*
X28575000Y-105029000I0J-2032000D01*
G01*
X28575000Y-92329000D02*
X28575000Y-76073000D01*
X28575000Y-105029000D02*
X28575000Y-121539000D01*
X36957000Y-94361000D02*
X30607000Y-94361000D01*
X38989000Y-100965000D02*
X38989000Y-96393000D01*
X30607000Y-102997000D02*
X36957000Y-102997000D01*
X30607000Y-123571000D02*
X76073000Y-123571000D01*
M02*
